<?xml version="1.0" encoding="UTF-8"?><svg xmlns="http://www.w3.org/2000/svg" width="20px" height="20px" viewBox="0 0 56.33 56.53"><defs><style>.cls-1{fill:#fff;}.cls-2{fill:#c3c;}</style></defs><g id="Backgrounds"><g><rect class="cls-1" x="1.17" y="1.19" width="54" height="54" rx="11" ry="11"/><path class="cls-1" d="M44.17,2.19c5.51,0,10,4.49,10,10V44.19c0,5.51-4.49,10-10,10H12.17c-5.51,0-10-4.49-10-10V12.19C2.17,6.68,6.65,2.19,12.17,2.19H44.17m0-2H12.17C5.57,.19,.17,5.59,.17,12.19V44.19c0,6.6,5.4,12,12,12H44.17c6.6,0,12-5.4,12-12V12.19C56.17,5.59,50.77,.19,44.17,.19h0Z"/></g><g><rect class="cls-1" x="1.2" y="1.29" width="53.88" height="53.88" rx="3.24" ry="3.24"/><path class="cls-1" d="M51.84,2.29c1.24,0,2.24,1.01,2.24,2.24V51.93c0,1.24-1.01,2.24-2.24,2.24H4.44c-1.24,0-2.24-1.01-2.24-2.24V4.53c0-1.24,1.01-2.24,2.24-2.24H51.84m0-2H4.44C2.1,.29,.2,2.19,.2,4.53V51.93c0,2.34,1.9,4.24,4.24,4.24H51.84c2.34,0,4.24-1.9,4.24-4.24V4.53c0-2.34-1.9-4.24-4.24-4.24h0Z"/></g></g><g id="Timers"><g id="Layer_170"><path class="cls-2" d="M42.14,13.46h-6.73c.46-.92,.83-1.94,1.11-3.06,.74-2.89,.63-5.43,.63-5.54l-.16-3.67-1.85,3.19c-.96,1.65-2.13,3.05-3.49,4.18-1.09,.9-2.3,1.62-3.61,2.15-.83,.33-1.58,.55-2.22,.68h-8.48c-2.34-.51-6.46-2.1-9.31-7.01l-1.85-3.19-.16,3.67c0,.11-.11,2.65,.63,5.54,.28,1.12,.66,2.14,1.11,3.06H1.05l-.02,1.04c0,.13-.04,3.31,2.33,5.72,1.45,1.47,3.46,2.32,5.97,2.53,0,3.17,.47,5.51,1.44,7.12,1.76,2.93,2.2,11.62,2.22,14.72v.27l.13,.24c.15,.27,.59,.8,1.83,1.26,1.51,.56,3.75,.85,6.65,.85s5.13-.28,6.64-.85c1.24-.46,1.68-.99,1.83-1.26l.13-.24v-.27c.02-3.1,.46-11.79,2.22-14.72,.97-1.61,1.44-3.95,1.44-7.12,2.51-.2,4.52-1.05,5.97-2.53,2.37-2.41,2.33-5.58,2.33-5.72l-.02-1.04Zm-31.91,0c-.97-1.52-1.49-3.32-1.76-4.87,.54,.59,1.12,1.14,1.73,1.64,.91,.74,1.89,1.38,2.93,1.9-.66,.34-1.42,.79-2.03,1.33h-.87Zm2.38,13.89c-.82-.42-1.05-1.58-.51-2.58,.53-1.01,1.63-1.48,2.45-1.05,.82,.42,1.05,1.58,.51,2.58-.54,1-1.63,1.47-2.45,1.05h0Zm15.45,16.75c-.26,.16-.83,.41-1.91,.62-.57-.83-1.83-1.95-4.51-1.97h0s-.02,0-.02,0c0,0-.02,0-.02,0h0c-2.68,.02-3.94,1.14-4.51,1.98-1.11-.21-1.68-.47-1.95-.63,0-.43-.03-1.13-.07-2.01,1.56-1.34,4.37-4.62,4.47-10.83,.14-8.61-5.67-9.9-3.52-13.18,2.15-3.27,4.52-2.56,5.6-2.56s3.44-.71,5.59,2.56c2.15,3.27-3.66,4.57-3.52,13.18,.1,6.15,2.86,9.42,4.43,10.79-.04,.9-.06,1.61-.07,2.05h0Zm2.57-16.75c-.82,.42-1.92-.05-2.45-1.05-.54-1.01-.31-2.16,.51-2.58,.82-.42,1.92,.05,2.45,1.05,.54,1,.31,2.16-.51,2.58h0Zm2.33-13.89h-.87c-.61-.54-1.37-.99-2.03-1.33,1.04-.52,2.02-1.16,2.93-1.9,.61-.5,1.19-1.05,1.73-1.64-.27,1.55-.78,3.35-1.76,4.87h0Zm0,0"/><path class="cls-2" d="M54.74,44.1c0,6.12-4.96,11.09-11.09,11.09s-11.09-4.96-11.09-11.09,4.96-11.09,11.09-11.09,11.09,4.96,11.09,11.09h0Zm-2.77,0c0-4.58-3.73-8.31-8.31-8.31s-8.31,3.73-8.31,8.31,3.73,8.31,8.31,8.31,8.31-3.73,8.31-8.31h0Zm-4.16,0h-4.16v-4.16c0-.77-.62-1.39-1.39-1.39s-1.39,.62-1.39,1.39v5.54c0,.77,.62,1.39,1.39,1.39h5.54c.77,0,1.39-.62,1.39-1.39s-.62-1.39-1.39-1.39h0Zm0,0"/></g></g></svg>