<?xml version="1.0" encoding="UTF-8"?>
<svg xmlns="http://www.w3.org/2000/svg" xmlns:xlink="http://www.w3.org/1999/xlink" width="20px" height="20px" viewBox="0 0 20 20" version="1.1">
<g id="surface1">
<path style=" stroke:none;fill-rule:nonzero;fill:rgb(80%,20%,80%);fill-opacity:1;" d="M 17.0625 14.230469 C 18.8125 12.511719 19.796875 10.164062 19.792969 7.714844 L 12 7.714844 C 11.328125 9.578125 9.894531 11.070312 8.054688 11.808594 C 6.21875 12.550781 4.152344 12.472656 2.375 11.597656 C 2.851562 12.601562 3.503906 13.511719 4.300781 14.285156 L 3.328125 16.246094 C 2.4375 18.03125 5.132812 19.625 6.023438 17.824219 L 6.902344 16.039062 C 7.601562 16.351562 8.335938 16.574219 9.089844 16.707031 L 9.089844 18.535156 C 9.089844 20.546875 12.214844 20.550781 12.214844 18.535156 L 12.214844 16.722656 C 12.996094 16.582031 13.753906 16.34375 14.472656 16.007812 L 15.292969 17.660156 C 16.1875 19.445312 18.863281 17.882812 17.988281 16.085938 C 17.683594 15.476562 17.371094 14.855469 17.0625 14.230469 Z M 17.0625 14.230469 "/>
<path style=" stroke:none;fill-rule:nonzero;fill:rgb(80%,20%,80%);fill-opacity:1;" d="M 10.652344 5.292969 C 10.652344 8.214844 8.285156 10.585938 5.359375 10.585938 C 2.4375 10.585938 0.0664062 8.214844 0.0664062 5.292969 C 0.0664062 2.371094 2.4375 0 5.359375 0 C 8.28125 0.00390625 10.652344 2.371094 10.652344 5.292969 Z M 9.328125 5.292969 C 9.332031 3.097656 7.550781 1.320312 5.359375 1.316406 C 3.164062 1.316406 1.386719 3.097656 1.386719 5.289062 C 1.386719 7.484375 3.167969 9.261719 5.359375 9.261719 C 7.550781 9.257812 9.324219 7.484375 9.328125 5.292969 Z M 7.34375 5.292969 L 5.359375 5.292969 L 5.359375 3.308594 C 5.335938 2.960938 5.046875 2.691406 4.699219 2.691406 C 4.351562 2.691406 4.0625 2.960938 4.035156 3.308594 L 4.035156 5.953125 C 4.035156 6.128906 4.105469 6.296875 4.226562 6.421875 C 4.351562 6.546875 4.519531 6.617188 4.695312 6.617188 L 7.34375 6.617188 C 7.589844 6.636719 7.828125 6.515625 7.957031 6.300781 C 8.089844 6.089844 8.089844 5.820312 7.957031 5.609375 C 7.828125 5.398438 7.589844 5.273438 7.34375 5.292969 Z M 7.34375 5.292969 "/>
</g>
</svg>
