<?xml version="1.0" encoding="UTF-8"?>
<svg xmlns="http://www.w3.org/2000/svg" xmlns:xlink="http://www.w3.org/1999/xlink" width="20px" height="20px" viewBox="0 0 20 20" version="1.1">
	<g id="surface1">
		<path style=" stroke:none;fill-rule:nonzero;fill:rgb(80%,20%,80%);fill-opacity:1;" d="M 2.625 3.179688 L 2.625 0.730469 C 2.609375 0.5 2.71875 0.277344 2.917969 0.15625 C 3.113281 0.0390625 3.359375 0.0390625 3.558594 0.15625 C 3.753906 0.277344 3.867188 0.5 3.851562 0.730469 L 3.851562 3.179688 C 3.867188 3.410156 3.753906 3.628906 3.558594 3.75 C 3.359375 3.871094 3.113281 3.871094 2.917969 3.75 C 2.71875 3.628906 2.609375 3.410156 2.625 3.179688 Z M 13.058594 3.796875 C 13.21875 3.796875 13.378906 3.730469 13.492188 3.617188 C 13.609375 3.5 13.671875 3.34375 13.671875 3.179688 L 13.671875 0.730469 C 13.671875 0.390625 13.394531 0.113281 13.058594 0.113281 C 12.71875 0.113281 12.441406 0.390625 12.441406 0.730469 L 12.441406 3.179688 C 12.441406 3.519531 12.71875 3.792969 13.058594 3.792969 Z M 19.808594 14.84375 C 19.808594 17.554688 17.609375 19.753906 14.894531 19.753906 C 12.183594 19.753906 9.984375 17.554688 9.984375 14.84375 C 9.984375 12.128906 12.183594 9.933594 14.894531 9.933594 C 17.609375 9.933594 19.808594 12.128906 19.808594 14.84375 Z M 18.578125 14.84375 C 18.574219 12.8125 16.921875 11.167969 14.890625 11.171875 C 12.855469 11.175781 11.210938 12.824219 11.214844 14.855469 C 11.214844 16.890625 12.863281 18.535156 14.894531 18.535156 C 16.933594 18.535156 18.582031 16.878906 18.578125 14.84375 Z M 5.078125 7.464844 L 2.625 7.464844 L 2.625 9.917969 L 5.078125 9.917969 Z M 2.625 13.613281 L 5.078125 13.613281 L 5.078125 11.160156 L 2.625 11.160156 Z M 6.308594 9.933594 L 8.761719 9.933594 L 8.761719 7.464844 L 6.308594 7.464844 Z M 6.308594 13.613281 L 8.761719 13.613281 L 8.761719 11.160156 L 6.308594 11.160156 Z M 1.414062 14.71875 L 1.414062 6.25 L 14.914062 6.25 L 14.914062 8.703125 L 16.144531 8.703125 L 16.144531 3.917969 C 16.148438 3.179688 15.554688 2.574219 14.8125 2.566406 L 14.269531 2.566406 L 14.269531 3.179688 C 14.296875 3.632812 14.066406 4.0625 13.679688 4.296875 C 13.289062 4.53125 12.800781 4.53125 12.410156 4.296875 C 12.023438 4.0625 11.792969 3.632812 11.816406 3.179688 L 11.816406 2.566406 L 4.464844 2.566406 L 4.464844 3.179688 C 4.488281 3.632812 4.261719 4.0625 3.871094 4.296875 C 3.480469 4.53125 2.992188 4.53125 2.605469 4.296875 C 2.214844 4.0625 1.984375 3.632812 2.011719 3.179688 L 2.011719 2.566406 L 1.5 2.566406 C 1.144531 2.570312 0.804688 2.714844 0.554688 2.964844 C 0.304688 3.21875 0.164062 3.5625 0.167969 3.917969 L 0.167969 14.71875 C 0.164062 15.074219 0.304688 15.414062 0.554688 15.667969 C 0.804688 15.921875 1.144531 16.066406 1.5 16.066406 L 8.761719 16.066406 L 8.761719 14.84375 L 1.5 14.84375 C 1.445312 14.828125 1.410156 14.773438 1.414062 14.71875 Z M 12.460938 9.933594 L 12.460938 7.464844 L 9.984375 7.464844 L 9.984375 9.917969 Z M 16.746094 14.84375 L 14.894531 14.84375 L 14.894531 13 C 14.914062 12.769531 14.800781 12.550781 14.605469 12.429688 C 14.40625 12.308594 14.160156 12.308594 13.964844 12.429688 C 13.765625 12.550781 13.652344 12.769531 13.671875 13 L 13.671875 15.453125 C 13.667969 15.789062 13.9375 16.0625 14.269531 16.066406 L 16.730469 16.066406 C 16.957031 16.085938 17.179688 15.972656 17.300781 15.777344 C 17.417969 15.578125 17.417969 15.332031 17.300781 15.136719 C 17.179688 14.9375 16.957031 14.824219 16.730469 14.84375 Z M 16.746094 14.84375 "/>
	</g>
</svg>
