<?xml version="1.0" encoding="UTF-8"?>
<svg xmlns="http://www.w3.org/2000/svg" xmlns:xlink="http://www.w3.org/1999/xlink" width="20px" height="20px" viewBox="0 0 20 20" version="1.1">
<g id="surface1">
<path style=" stroke:none;fill-rule:nonzero;fill:rgb(80%,20%,80%);fill-opacity:1;" d="M 15.050781 8.0625 L 11.21875 8.0625 C 10.921875 8.0625 10.679688 8.304688 10.679688 8.601562 L 10.679688 9.84375 C 10.679688 10.140625 10.921875 10.378906 11.21875 10.378906 L 15.050781 10.378906 C 15.347656 10.378906 15.585938 10.140625 15.585938 9.84375 L 15.585938 8.601562 C 15.585938 8.457031 15.53125 8.320312 15.429688 8.21875 C 15.328125 8.117188 15.191406 8.0625 15.050781 8.0625 Z M 15.050781 8.0625 "/>
<path style=" stroke:none;fill-rule:nonzero;fill:rgb(80%,20%,80%);fill-opacity:1;" d="M 16.152344 8.0625 L 14.910156 8.0625 C 14.613281 8.0625 14.375 8.304688 14.371094 8.601562 L 14.371094 9.84375 C 14.375 10.140625 14.613281 10.378906 14.910156 10.378906 L 16.152344 10.378906 C 16.449219 10.378906 16.6875 10.140625 16.6875 9.84375 L 16.6875 8.601562 C 16.691406 8.457031 16.632812 8.320312 16.535156 8.21875 C 16.433594 8.117188 16.296875 8.0625 16.152344 8.0625 Z M 16.152344 8.0625 "/>
<path style=" stroke:none;fill-rule:nonzero;fill:rgb(80%,20%,80%);fill-opacity:1;" d="M 7.523438 15.171875 L 3.863281 15.171875 C 3.566406 15.171875 3.324219 15.414062 3.324219 15.710938 L 3.324219 16.949219 C 3.324219 17.246094 3.566406 17.488281 3.863281 17.488281 L 7.519531 17.488281 C 7.664062 17.492188 7.800781 17.433594 7.902344 17.332031 C 8.003906 17.230469 8.0625 17.09375 8.0625 16.949219 L 8.0625 15.710938 C 8.0625 15.566406 8.007812 15.429688 7.90625 15.328125 C 7.804688 15.226562 7.667969 15.171875 7.523438 15.171875 Z M 7.523438 15.171875 "/>
<path style=" stroke:none;fill-rule:nonzero;fill:rgb(80%,20%,80%);fill-opacity:1;" d="M 8.804688 15.171875 L 7.5625 15.171875 C 7.261719 15.171875 7.019531 15.414062 7.019531 15.710938 L 7.019531 16.949219 C 7.019531 17.246094 7.261719 17.488281 7.5625 17.488281 L 8.804688 17.488281 C 8.945312 17.488281 9.082031 17.433594 9.183594 17.332031 C 9.285156 17.230469 9.339844 17.09375 9.339844 16.949219 L 9.339844 15.710938 C 9.339844 15.566406 9.285156 15.429688 9.183594 15.328125 C 9.082031 15.226562 8.945312 15.171875 8.804688 15.171875 Z M 8.804688 15.171875 "/>
<path style=" stroke:none;fill-rule:nonzero;fill:rgb(80%,20%,80%);fill-opacity:1;" d="M 3.828125 13.929688 L 14.78125 13.929688 C 15.078125 13.925781 15.316406 13.6875 15.316406 13.390625 L 15.316406 12.144531 C 15.316406 11.851562 15.078125 11.609375 14.78125 11.609375 L 3.828125 11.609375 C 3.53125 11.613281 3.292969 11.855469 3.292969 12.148438 L 3.292969 13.394531 C 3.292969 13.6875 3.53125 13.929688 3.828125 13.929688 Z M 3.828125 13.929688 "/>
<path style=" stroke:none;fill-rule:nonzero;fill:rgb(80%,20%,80%);fill-opacity:1;" d="M 7.519531 13.929688 L 8.765625 13.929688 C 9.0625 13.929688 9.300781 13.6875 9.304688 13.394531 L 9.304688 12.148438 C 9.300781 11.851562 9.0625 11.613281 8.765625 11.609375 L 7.519531 11.609375 C 7.226562 11.613281 6.984375 11.855469 6.984375 12.148438 L 6.984375 13.394531 C 6.984375 13.6875 7.226562 13.929688 7.519531 13.929688 Z M 7.519531 13.929688 "/>
<path style=" stroke:none;fill-rule:nonzero;fill:rgb(80%,20%,80%);fill-opacity:1;" d="M 12.460938 11.609375 L 11.21875 11.609375 C 10.921875 11.609375 10.679688 11.851562 10.679688 12.144531 L 10.679688 13.390625 C 10.679688 13.6875 10.921875 13.925781 11.21875 13.929688 L 12.460938 13.929688 C 12.757812 13.925781 12.996094 13.6875 12.996094 13.390625 L 12.996094 12.144531 C 12.996094 11.851562 12.757812 11.609375 12.460938 11.609375 Z M 12.460938 11.609375 "/>
<path style=" stroke:none;fill-rule:nonzero;fill:rgb(80%,20%,80%);fill-opacity:1;" d="M 16.152344 11.609375 L 14.910156 11.609375 C 14.613281 11.609375 14.375 11.851562 14.371094 12.144531 L 14.371094 13.390625 C 14.375 13.6875 14.613281 13.925781 14.910156 13.929688 L 16.152344 13.929688 C 16.449219 13.925781 16.6875 13.6875 16.6875 13.390625 L 16.6875 12.144531 C 16.6875 11.851562 16.449219 11.609375 16.152344 11.609375 Z M 16.152344 11.609375 "/>
<path style=" stroke:none;fill-rule:nonzero;fill:rgb(80%,20%,80%);fill-opacity:1;" d="M 0.699219 19.910156 L 19.269531 19.910156 C 19.566406 19.910156 19.808594 19.671875 19.8125 19.375 L 19.8125 2.152344 C 19.808594 1.855469 19.570312 1.617188 19.269531 1.613281 L 17.375 1.613281 L 17.375 3.484375 C 17.375 4.140625 16.84375 4.671875 16.1875 4.671875 L 14.875 4.671875 C 14.222656 4.667969 13.691406 4.140625 13.691406 3.484375 L 13.691406 1.613281 L 11.832031 1.613281 L 11.832031 3.484375 C 11.832031 4.140625 11.304688 4.667969 10.648438 4.671875 L 9.332031 4.671875 C 8.679688 4.667969 8.148438 4.140625 8.148438 3.484375 L 8.148438 1.613281 L 6.289062 1.613281 L 6.289062 3.484375 C 6.289062 4.140625 5.761719 4.667969 5.105469 4.671875 L 3.789062 4.671875 C 3.136719 4.667969 2.605469 4.140625 2.605469 3.484375 L 2.605469 1.613281 L 0.699219 1.613281 C 0.402344 1.617188 0.164062 1.855469 0.164062 2.152344 L 0.164062 19.375 C 0.164062 19.671875 0.402344 19.910156 0.699219 19.910156 Z M 1.546875 7.054688 L 18.4375 7.054688 L 18.4375 18.542969 L 1.546875 18.542969 Z M 1.546875 7.054688 "/>
<path style=" stroke:none;fill-rule:nonzero;fill:rgb(80%,20%,80%);fill-opacity:1;" d="M 3.792969 0 C 3.496094 0 3.257812 0.238281 3.257812 0.535156 L 3.257812 3.484375 C 3.257812 3.78125 3.496094 4.019531 3.792969 4.019531 L 5.105469 4.019531 C 5.25 4.023438 5.386719 3.964844 5.488281 3.867188 C 5.589844 3.765625 5.644531 3.628906 5.644531 3.484375 L 5.644531 0.535156 C 5.644531 0.394531 5.589844 0.257812 5.488281 0.15625 C 5.386719 0.0546875 5.25 0 5.105469 0 Z M 3.792969 0 "/>
<path style=" stroke:none;fill-rule:nonzero;fill:rgb(80%,20%,80%);fill-opacity:1;" d="M 9.332031 0 C 9.035156 0 8.796875 0.238281 8.796875 0.535156 L 8.796875 3.484375 C 8.796875 3.78125 9.035156 4.019531 9.332031 4.019531 L 10.648438 4.019531 C 10.945312 4.019531 11.1875 3.78125 11.1875 3.484375 L 11.1875 0.535156 C 11.1875 0.238281 10.945312 0 10.648438 0 Z M 9.332031 0 "/>
<path style=" stroke:none;fill-rule:nonzero;fill:rgb(80%,20%,80%);fill-opacity:1;" d="M 16.1875 0 L 14.871094 0 C 14.574219 0 14.335938 0.238281 14.335938 0.535156 L 14.335938 3.484375 C 14.335938 3.78125 14.574219 4.019531 14.871094 4.019531 L 16.1875 4.019531 C 16.484375 4.019531 16.726562 3.78125 16.726562 3.484375 L 16.726562 0.535156 C 16.726562 0.238281 16.484375 0 16.1875 0 Z M 16.1875 0 "/>
</g>
</svg>
