<?xml version="1.0" encoding="UTF-8"?>
<svg xmlns="http://www.w3.org/2000/svg" xmlns:xlink="http://www.w3.org/1999/xlink" width="20px" height="20px" viewBox="0 0 20 20" version="1.1">
<g id="surface1">
<path style=" stroke:none;fill-rule:nonzero;fill:rgb(80%,20%,80%);fill-opacity:1;" d="M 11.972656 6.519531 C 11.972656 9.652344 9.4375 12.191406 6.304688 12.191406 C 3.171875 12.195312 0.636719 9.65625 0.636719 6.523438 C 0.636719 3.394531 3.175781 0.855469 6.308594 0.855469 C 9.433594 0.859375 11.96875 3.394531 11.972656 6.519531 Z M 10.542969 6.519531 C 10.542969 4.175781 8.640625 2.269531 6.292969 2.269531 C 3.945312 2.269531 2.042969 4.175781 2.042969 6.519531 C 2.042969 8.867188 3.945312 10.769531 6.292969 10.769531 C 8.636719 10.765625 10.539062 8.867188 10.542969 6.519531 Z M 8.398438 6.519531 L 6.308594 6.519531 L 6.308594 4.394531 C 6.308594 4 5.988281 3.683594 5.59375 3.683594 C 5.199219 3.683594 4.878906 4 4.878906 4.394531 L 4.878906 7.230469 C 4.878906 7.625 5.199219 7.941406 5.59375 7.941406 L 8.429688 7.941406 C 8.824219 7.941406 9.144531 7.625 9.144531 7.230469 C 9.144531 6.835938 8.824219 6.515625 8.429688 6.515625 Z M 8.398438 6.519531 "/>
<path style=" stroke:none;fill-rule:nonzero;fill:rgb(80%,20%,80%);fill-opacity:1;" d="M 6.355469 16.320312 C 6.300781 16.371094 6.234375 16.402344 6.160156 16.402344 C 6.089844 16.402344 6.019531 16.371094 5.96875 16.320312 C 5.863281 16.214844 5.863281 16.042969 5.96875 15.9375 C 6.074219 15.828125 6.246094 15.828125 6.355469 15.9375 C 6.460938 16.042969 6.460938 16.214844 6.355469 16.320312 M 5.539062 17.136719 C 5.488281 17.1875 5.417969 17.214844 5.347656 17.214844 C 5.273438 17.214844 5.203125 17.1875 5.152344 17.136719 C 5.101562 17.085938 5.074219 17.015625 5.074219 16.945312 C 5.074219 16.871094 5.101562 16.804688 5.152344 16.753906 C 5.257812 16.648438 5.429688 16.644531 5.539062 16.75 C 5.644531 16.855469 5.644531 17.027344 5.539062 17.136719 M 4.527344 18.035156 C 4.378906 18.035156 4.257812 17.910156 4.257812 17.761719 C 4.257812 17.609375 4.378906 17.488281 4.527344 17.488281 C 4.679688 17.488281 4.800781 17.609375 4.800781 17.761719 C 4.800781 17.910156 4.679688 18.035156 4.527344 18.035156 M 14.984375 4.160156 C 14.863281 4.117188 14.730469 4.164062 14.664062 4.273438 C 14.59375 4.382812 14.609375 4.523438 14.699219 4.613281 C 15.738281 5.652344 16.300781 7.074219 16.25 8.542969 C 16.257812 10.222656 15.503906 11.816406 14.199219 12.871094 L 15.09375 13.765625 C 15.171875 13.84375 15.195312 13.960938 15.152344 14.0625 C 15.109375 14.164062 15.011719 14.230469 14.898438 14.230469 C 14.828125 14.230469 14.757812 14.199219 14.707031 14.148438 L 13.75 13.191406 C 13.574219 13.308594 13.386719 13.414062 13.195312 13.503906 L 13.988281 14.296875 C 14.039062 14.347656 14.070312 14.417969 14.070312 14.488281 C 14.070312 14.5625 14.039062 14.632812 13.988281 14.683594 C 13.941406 14.734375 13.871094 14.765625 13.800781 14.765625 C 13.726562 14.765625 13.65625 14.734375 13.605469 14.683594 L 12.648438 13.730469 C 12.421875 13.800781 12.1875 13.855469 11.949219 13.894531 L 12.753906 14.695312 C 12.804688 14.746094 12.835938 14.816406 12.835938 14.890625 C 12.835938 14.960938 12.804688 15.03125 12.753906 15.082031 C 12.703125 15.132812 12.632812 15.160156 12.5625 15.160156 C 12.488281 15.160156 12.421875 15.132812 12.367188 15.082031 L 11.257812 13.96875 L 11.0625 13.96875 C 9.90625 13.96875 8.785156 13.5625 7.894531 12.820312 C 7.792969 12.730469 7.640625 12.730469 7.539062 12.820312 L 6.695312 13.664062 L 3.199219 17.183594 C 3.015625 17.367188 2.910156 17.617188 2.910156 17.878906 C 2.910156 18.140625 3.015625 18.390625 3.199219 18.574219 L 3.730469 19.105469 C 3.917969 19.292969 4.167969 19.398438 4.429688 19.398438 C 4.691406 19.398438 4.941406 19.292969 5.125 19.105469 L 8.363281 15.894531 C 10.425781 17.425781 13.175781 17.671875 15.476562 16.519531 C 17.773438 15.367188 19.230469 13.019531 19.234375 10.449219 C 19.296875 7.664062 17.59375 5.140625 14.984375 4.160156 "/>
</g>
</svg>
