<?xml version="1.0" encoding="UTF-8"?>
<svg xmlns="http://www.w3.org/2000/svg" xmlns:xlink="http://www.w3.org/1999/xlink" width="20px" height="20px" viewBox="0 0 20 20" version="1.1">
<g id="surface1">
<path style=" stroke:none;fill-rule:nonzero;fill:rgb(80%,20%,80%);fill-opacity:1;" d="M 15.699219 10.445312 L 19.347656 6.8125 C 19.429688 6.734375 19.476562 6.625 19.476562 6.511719 C 19.476562 6.398438 19.429688 6.289062 19.347656 6.210938 C 19.269531 6.128906 19.160156 6.082031 19.046875 6.082031 L 17.128906 6.082031 L 17.128906 3.089844 C 17.128906 2.976562 17.082031 2.867188 17.003906 2.789062 C 16.925781 2.707031 16.816406 2.660156 16.703125 2.660156 L 14.128906 2.660156 C 13.894531 2.667969 13.707031 2.855469 13.699219 3.089844 L 13.699219 6.082031 L 11.769531 6.082031 C 11.65625 6.082031 11.550781 6.128906 11.472656 6.210938 C 11.390625 6.289062 11.347656 6.398438 11.347656 6.511719 C 11.34375 6.625 11.390625 6.730469 11.472656 6.8125 L 15.109375 10.445312 C 15.1875 10.527344 15.296875 10.574219 15.410156 10.574219 C 15.523438 10.578125 15.632812 10.53125 15.710938 10.445312 Z M 15.699219 10.445312 "/>
<path style=" stroke:none;fill-rule:nonzero;fill:rgb(80%,20%,80%);fill-opacity:1;" d="M 10.699219 5.453125 C 10.703125 8.269531 8.421875 10.554688 5.605469 10.558594 C 2.785156 10.558594 0.503906 8.277344 0.5 5.460938 C 0.496094 2.644531 2.78125 0.359375 5.597656 0.355469 C 6.949219 0.355469 8.246094 0.890625 9.203125 1.847656 C 10.160156 2.804688 10.699219 4.101562 10.699219 5.453125 Z M 9.425781 5.453125 C 9.425781 3.339844 7.714844 1.625 5.601562 1.625 C 3.488281 1.625 1.773438 3.335938 1.773438 5.453125 C 1.777344 7.566406 3.488281 9.277344 5.605469 9.273438 C 7.710938 9.269531 9.421875 7.5625 9.425781 5.453125 Z M 7.515625 5.453125 L 5.597656 5.453125 L 5.597656 3.535156 C 5.613281 3.296875 5.496094 3.066406 5.292969 2.941406 C 5.085938 2.816406 4.832031 2.816406 4.625 2.941406 C 4.421875 3.066406 4.304688 3.296875 4.320312 3.535156 L 4.320312 6.082031 C 4.320312 6.433594 4.605469 6.71875 4.957031 6.722656 L 7.507812 6.722656 C 7.839844 6.695312 8.097656 6.417969 8.097656 6.082031 C 8.097656 5.75 7.839844 5.472656 7.507812 5.445312 Z M 7.515625 5.453125 "/>
<path style=" stroke:none;fill-rule:nonzero;fill:rgb(80%,20%,80%);fill-opacity:1;" d="M 12.914062 19.570312 L 9.515625 19.570312 C 7.90625 19.570312 6.601562 18.269531 6.601562 16.660156 L 6.601562 13.257812 C 6.605469 11.648438 7.90625 10.347656 9.515625 10.347656 L 12.914062 10.347656 C 14.523438 10.347656 15.824219 11.648438 15.828125 13.257812 L 15.828125 16.660156 C 15.828125 18.269531 14.523438 19.570312 12.914062 19.570312 Z M 9.515625 12.394531 C 9.035156 12.394531 8.648438 12.777344 8.644531 13.257812 L 8.644531 16.660156 C 8.644531 16.890625 8.738281 17.109375 8.902344 17.273438 C 9.0625 17.433594 9.285156 17.527344 9.515625 17.523438 L 12.914062 17.523438 C 13.144531 17.527344 13.363281 17.433594 13.527344 17.273438 C 13.691406 17.109375 13.78125 16.890625 13.78125 16.660156 L 13.78125 13.257812 C 13.78125 12.777344 13.390625 12.394531 12.914062 12.394531 Z M 9.515625 12.394531 "/>
</g>
</svg>
