<?xml version="1.0" encoding="UTF-8"?>
<svg xmlns="http://www.w3.org/2000/svg" xmlns:xlink="http://www.w3.org/1999/xlink" width="20px" height="20px" viewBox="0 0 20 20" version="1.1">
<g id="surface1">
<path style=" stroke:none;fill-rule:nonzero;fill:rgb(80%,20%,80%);fill-opacity:1;" d="M 0.585938 9.144531 L 0.585938 7.71875 L 1.804688 7.71875 L 1.804688 1.75 L 0.511719 1.75 L 0.511719 0.320312 L 3.746094 0.320312 L 3.746094 7.730469 L 4.898438 7.730469 L 4.898438 9.160156 Z M 0.585938 9.144531 "/>
<path style=" stroke:none;fill-rule:nonzero;fill:rgb(80%,20%,80%);fill-opacity:1;" d="M 9.296875 9.25 C 8.390625 9.289062 7.53125 8.84375 7.042969 8.078125 C 6.523438 7.300781 6.265625 6.171875 6.265625 4.703125 C 6.265625 3.234375 6.519531 2.144531 7.023438 1.351562 C 7.507812 0.570312 8.378906 0.117188 9.296875 0.171875 C 10.210938 0.125 11.082031 0.578125 11.566406 1.355469 C 12.074219 2.144531 12.328125 3.265625 12.328125 4.714844 C 12.328125 6.164062 12.066406 7.289062 11.546875 8.09375 C 11.054688 8.851562 10.199219 9.292969 9.296875 9.25 Z M 9.296875 7.820312 C 9.746094 7.820312 10.03125 7.464844 10.148438 6.75 C 10.265625 6.078125 10.324219 5.398438 10.328125 4.71875 C 10.355469 3.933594 10.277344 3.152344 10.089844 2.394531 C 9.933594 1.863281 9.671875 1.605469 9.308594 1.605469 C 8.941406 1.605469 8.679688 1.871094 8.519531 2.410156 C 8.339844 3.167969 8.261719 3.945312 8.285156 4.722656 C 8.257812 5.503906 8.339844 6.285156 8.523438 7.042969 C 8.671875 7.5625 8.914062 7.820312 9.269531 7.820312 Z M 9.296875 7.820312 "/>
<path style=" stroke:none;fill-rule:nonzero;fill:rgb(80%,20%,80%);fill-opacity:1;" d="M 16.695312 9.25 C 15.789062 9.289062 14.929688 8.84375 14.441406 8.078125 C 13.914062 7.3125 13.664062 6.183594 13.664062 4.714844 C 13.664062 3.246094 13.914062 2.152344 14.421875 1.359375 C 14.90625 0.578125 15.777344 0.125 16.695312 0.171875 C 17.609375 0.125 18.480469 0.578125 18.964844 1.355469 C 19.472656 2.144531 19.730469 3.265625 19.730469 4.714844 C 19.730469 6.164062 19.46875 7.289062 18.945312 8.09375 C 18.457031 8.851562 17.597656 9.292969 16.695312 9.25 Z M 16.695312 7.820312 C 17.148438 7.820312 17.4375 7.464844 17.554688 6.75 C 17.667969 6.078125 17.726562 5.398438 17.730469 4.71875 C 17.757812 3.933594 17.671875 3.152344 17.484375 2.390625 C 17.328125 1.859375 17.066406 1.601562 16.703125 1.601562 C 16.339844 1.601562 16.070312 1.867188 15.917969 2.40625 C 15.738281 3.164062 15.65625 3.941406 15.683594 4.71875 C 15.652344 5.5 15.734375 6.28125 15.921875 7.039062 C 16.058594 7.5625 16.328125 7.820312 16.683594 7.820312 Z M 16.695312 7.820312 "/>
<path style=" stroke:none;fill-rule:nonzero;fill:rgb(80%,20%,80%);fill-opacity:1;" d="M 3.054688 19.695312 C 2.148438 19.742188 1.289062 19.296875 0.800781 18.535156 C 0.28125 17.75 0.0195312 16.621094 0.0195312 15.148438 C 0.0195312 13.722656 0.273438 12.59375 0.777344 11.800781 C 1.261719 11.019531 2.136719 10.5625 3.054688 10.609375 C 3.976562 10.554688 4.855469 11.007812 5.34375 11.792969 C 5.851562 12.582031 6.105469 13.703125 6.105469 15.148438 C 6.105469 16.625 5.84375 17.753906 5.320312 18.527344 C 4.832031 19.296875 3.964844 19.742188 3.054688 19.695312 Z M 3.054688 18.269531 C 3.507812 18.269531 3.792969 17.910156 3.910156 17.195312 C 4.023438 16.523438 4.085938 15.84375 4.089844 15.160156 C 4.113281 14.371094 4.027344 13.585938 3.835938 12.820312 C 3.679688 12.296875 3.417969 12.03125 3.054688 12.03125 C 2.6875 12.03125 2.425781 12.304688 2.269531 12.84375 C 2.085938 13.597656 2.007812 14.375 2.03125 15.152344 C 2.003906 15.929688 2.085938 16.707031 2.269531 17.464844 C 2.429688 18 2.6875 18.265625 3.039062 18.265625 Z M 3.054688 18.269531 "/>
<path style=" stroke:none;fill-rule:nonzero;fill:rgb(80%,20%,80%);fill-opacity:1;" d="M 7.585938 19.582031 L 7.585938 18.179688 L 8.804688 18.179688 L 8.804688 12.175781 L 7.511719 12.175781 L 7.511719 10.746094 L 10.746094 10.746094 L 10.746094 18.179688 L 11.898438 18.179688 L 11.898438 19.605469 Z M 7.585938 19.582031 "/>
<path style=" stroke:none;fill-rule:nonzero;fill:rgb(80%,20%,80%);fill-opacity:1;" d="M 16.296875 19.695312 C 15.390625 19.742188 14.53125 19.296875 14.042969 18.535156 C 13.523438 17.757812 13.265625 16.632812 13.265625 15.160156 C 13.265625 13.730469 13.519531 12.605469 14.023438 11.8125 C 14.503906 11.027344 15.378906 10.570312 16.296875 10.621094 C 17.207031 10.574219 18.070312 11.023438 18.558594 11.792969 C 19.0625 12.582031 19.316406 13.703125 19.316406 15.148438 C 19.316406 16.625 19.058594 17.753906 18.535156 18.527344 C 18.050781 19.289062 17.199219 19.734375 16.296875 19.695312 Z M 16.296875 18.269531 C 16.746094 18.269531 17.03125 17.910156 17.148438 17.195312 C 17.265625 16.523438 17.324219 15.84375 17.328125 15.160156 C 17.355469 14.375 17.269531 13.585938 17.078125 12.820312 C 16.921875 12.296875 16.660156 12.03125 16.296875 12.03125 C 15.933594 12.03125 15.667969 12.304688 15.511719 12.84375 C 15.328125 13.597656 15.25 14.375 15.273438 15.152344 C 15.25 15.933594 15.328125 16.714844 15.515625 17.476562 C 15.671875 18 15.929688 18.265625 16.285156 18.265625 Z M 16.296875 18.269531 "/>
</g>
</svg>
