<?xml version="1.0" encoding="UTF-8"?><svg xmlns="http://www.w3.org/2000/svg" width="20px" height="20px" viewBox="0 0 56.33 56.53"><defs><style>.d{fill:#fff;}.e{fill:#c3c;}</style></defs><g id="a"><g><rect class="d" x="1.17" y="1.19" width="54" height="54" rx="11" ry="11"/><path class="d" d="M44.17,2.19c5.51,0,10,4.49,10,10V44.19c0,5.51-4.49,10-10,10H12.17c-5.51,0-10-4.49-10-10V12.19C2.17,6.68,6.65,2.19,12.17,2.19H44.17m0-2H12.17C5.57,.19,.17,5.59,.17,12.19V44.19c0,6.6,5.4,12,12,12H44.17c6.6,0,12-5.4,12-12V12.19C56.17,5.59,50.77,.19,44.17,.19h0Z"/></g><g><rect class="d" x="1.2" y="1.29" width="53.88" height="53.88" rx="3.24" ry="3.24"/><path class="d" d="M51.84,2.29c1.24,0,2.24,1.01,2.24,2.24V51.93c0,1.24-1.01,2.24-2.24,2.24H4.44c-1.24,0-2.24-1.01-2.24-2.24V4.53c0-1.24,1.01-2.24,2.24-2.24H51.84m0-2H4.44C2.1,.29,.2,2.19,.2,4.53V51.93c0,2.34,1.9,4.24,4.24,4.24H51.84c2.34,0,4.24-1.9,4.24-4.24V4.53c0-2.34-1.9-4.24-4.24-4.24h0Z"/></g><g><rect class="d" x="1.17" y="1.19" width="54" height="54" rx="4" ry="4"/><path class="e" d="M51.17,2.19c1.65,0,3,1.35,3,3V51.19c0,1.65-1.35,3-3,3H5.17c-1.65,0-3-1.35-3-3V5.19c0-1.65,1.35-3,3-3H51.17m0-2H5.17C2.42,.19,.17,2.44,.17,5.19V51.19c0,2.75,2.25,5,5,5H51.17c2.75,0,5-2.25,5-5V5.19c0-2.75-2.25-5-5-5h0Z"/></g></g><g id="b"><g id="c"><path class="e" d="M49.4,27.69c0,11.32-9.18,20.5-20.5,20.5S8.4,39.01,8.4,27.69,17.58,7.19,28.9,7.19s20.5,9.18,20.5,20.5h0Zm-5.13,0c0-8.48-6.9-15.38-15.38-15.38s-15.38,6.9-15.38,15.38,6.9,15.38,15.38,15.38,15.38-6.9,15.38-15.38h0Zm-7.69,0h-7.69v-7.69c0-1.42-1.15-2.56-2.56-2.56s-2.56,1.15-2.56,2.56v10.25c0,1.42,1.15,2.56,2.56,2.56h10.25c1.42,0,2.56-1.15,2.56-2.56s-1.15-2.56-2.56-2.56h0Zm0,0"/></g></g></svg>