<?xml version="1.0" standalone="no"?>
<!DOCTYPE svg PUBLIC "-//W3C//DTD SVG 1.0//EN" "http://www.w3.org/TR/2001/REC-SVG-20010904/DTD/svg10.dtd">
<svg xmlns="http://www.w3.org/2000/svg" xmlns:xlink="http://www.w3.org/1999/xlink" id="body_1" width="20" height="20">

<g transform="matrix(0.35746202 0 0 0.35746202 0.012511117 -0)">
    <path d="M0 0L55.88 0L55.88 55.95L0 55.95z" stroke="none" fill="none" />
    <path transform="matrix(1 0 0 1 -0.04 -0.1)"  d="M17.18 46.11C 16.901033 46.379234 16.458967 46.379234 16.18 46.11C 15.96188 45.904957 15.891057 45.58752 16.001335 45.309208C 16.111612 45.03089 16.380634 44.848118 16.68 44.848118C 16.979366 44.848118 17.248388 45.03089 17.358665 45.309208C 17.468945 45.58752 17.39812 45.904957 17.18 46.11C 14.721032 48.579235 14.278968 48.579235 14 48.31C 13.781879 48.104958 13.711057 47.78752 13.821334 47.50921C 13.931611 47.230892 14.200634 47.04812 14.5 47.04812C 14.799366 47.04812 15.068389 47.230892 15.178666 47.50921C 15.288943 47.78752 15.218121 48.104958 15 48.31C 11.978105 50.73814 11.701558 50.562004 11.581282 50.284985C 11.461005 50.007965 11.521136 49.685654 11.733207 49.470634C 11.945277 49.25562 12.26673 49.191048 12.545383 49.30749C 12.824036 49.42393 13.003969 49.698025 13 50C 13.000001 50.196262 12.922037 50.384483 12.78326 50.523262C 12.644483 50.66204 12.456261 50.740005 12.26 50.74C 40.075047 13.2442665 39.706535 13.365707 39.52 13.66C 39.328266 13.952661 39.374676 14.340794 39.63 14.58C 42.425407 17.380962 43.935158 21.215076 43.8 25.17C 43.825283 29.69589 41.7948 33.988594 38.28 36.84L38.28 36.84L40.68 39.24C 40.949234 39.51897 40.949234 39.961033 40.68 40.24C 40.403202 40.514557 39.9568 40.514557 39.68 40.24L39.68 40.24L37.07 37.7C 36.593647 38.011658 36.09572 38.28903 35.579998 38.530003L35.579998 38.530003L37.719997 40.670002C 37.93204 40.87889 37.996025 41.195602 37.881695 41.47043C 37.76737 41.74525 37.497635 41.923138 37.199997 41.920002C 37.006027 41.919876 36.819653 41.844612 36.679996 41.710003L36.679996 41.710003L34.109997 39.140003C 33.501415 39.338837 32.879982 39.49587 32.249996 39.610004L32.249996 39.610004L34.42 41.770004C 34.571674 42.057045 34.518547 42.409428 34.288982 42.63899C 34.05942 42.868553 33.70704 42.92168 33.42 42.770004L33.42 42.770004L30.419998 39.770004L29.909998 39.770004C 26.79597 39.768394 23.781084 38.67497 21.389997 36.680004C 21.10709 36.420708 20.672905 36.420708 20.389997 36.680004L20.389997 36.680004L18.119997 38.950005L8.64 48.43C 8.139845 48.92575 7.858487 49.60078 7.858487 50.305C 7.858487 51.00922 8.139845 51.68425 8.64 52.18L8.64 52.18L10.070001 53.62C 11.113071 54.6467 12.78693 54.6467 13.830001 53.62L13.830001 53.62L22.55 45C 25.718668 47.388363 29.582058 48.67382 33.55 48.66C 43.67042 48.637955 51.86451 40.430447 51.87 30.31C 52.036583 22.799166 47.43573 16.004185 40.4 13.37" stroke="none" fill="#CC33CC" fill-rule="nonzero" />
    <path transform="matrix(1 0 0 1 -0.04 -0.1)"  d="M31.67 30.34L28.36 11.89C 28.224949 11.144874 27.577263 10.602331 26.82 10.6L26.82 10.6L21.32 10.6C 22.941904 9.006233 23.43904 6.5899396 22.578053 4.4853344C 21.717064 2.3807292 19.66891 1.0057077 17.395 1.0057077C 15.12109 1.0057082 13.072937 2.3807306 12.211948 4.485336C 11.350962 6.589941 11.848097 9.006233 13.469999 10.6L13.469999 10.6L8 10.6C 7.245039 10.603127 6.600661 11.146426 6.4700003 11.89L6.4700003 11.89L3.13 30.34C 3.0470877 30.794426 3.1698318 31.262232 3.4651713 31.61741C 3.7605112 31.972591 4.198073 32.17862 4.66 32.18L4.66 32.18L30.13 32.18C 30.593674 32.181587 31.034023 31.976826 31.331623 31.621254C 31.629223 31.26568 31.753223 30.796148 31.669998 30.34L31.669998 30.34L31.67 30.34zM17.4 4.14C 18.403067 4.1399994 19.307364 4.744232 19.691221 5.6709447C 20.075077 6.5976577 19.8629 7.6643496 19.153624 8.373625C 18.44435 9.0829 17.377657 9.295078 16.450945 8.911221C 15.524231 8.527364 14.92 7.6230664 14.92 6.62C 14.92 5.250334 16.030333 4.1400003 17.4 4.14zM16.99 25.14C 16.90943 25.292131 16.752136 25.388042 16.58 25.39L16.58 25.39L15.85 25.39C 15.685077 25.390583 15.532462 25.30283 15.450001 25.16L15.450001 25.16L13.630001 22.05L12.460001 23.24L12.460001 24.67C 12.492655 24.945637 12.363962 25.215496 12.129226 25.363615C 11.894488 25.511736 11.595513 25.511736 11.360776 25.363615C 11.1260395 25.215496 10.997347 24.945637 11.030001 24.67L11.030001 24.67L11.030001 19C 10.997347 18.724363 11.1260395 18.454504 11.360776 18.306385C 11.595513 18.158264 11.894488 18.158264 12.129226 18.306385C 12.363962 18.454504 12.492655 18.724363 12.460001 19L12.460001 19L12.460001 21.43L15.220001 18.43C 15.310282 18.332863 15.437398 18.278383 15.570002 18.28L15.570002 18.28L16.2 18.28C 16.38538 18.282461 16.552769 18.39146 16.630001 18.560001C 16.700542 18.731585 16.66111 18.928747 16.53 19.060001L16.53 19.060001L14.620001 21.060001L17 24.67C 17.083958 24.815418 17.083958 24.99458 17 25.14zM24.06 24.199999C 24.060884 24.339577 23.998348 24.472006 23.89 24.56C 23.543388 24.817259 23.163193 25.025862 22.76 25.18C 22.205233 25.396082 21.615358 25.507954 21.02 25.51C 20.339928 25.512056 19.671139 25.33624 19.08 25C 18.533772 24.69464 18.096708 24.226107 17.83 23.66C 17.54781 23.070234 17.404152 22.423773 17.41 21.77C 17.396135 21.074432 17.557777 20.386587 17.88 19.77C 18.187078 19.20082 18.661911 18.739954 19.24 18.45C 19.770027 18.197586 20.353367 18.077486 20.94 18.1C 21.67138 18.054087 22.397867 18.247116 23.01 18.65C 23.22247 18.80563 23.408226 18.994762 23.56 19.21C 23.70164 19.415958 23.72805 19.680069 23.63 19.91C 23.54093 20.142172 23.335375 20.309662 23.089998 20.35C 22.803764 20.405807 22.512918 20.278315 22.359999 20.03C 22.2601 19.873577 22.131098 19.737785 21.98 19.630001C 21.68851 19.422153 21.337944 19.313478 20.98 19.320002C 20.419975 19.29534 19.876656 19.514126 19.49 19.920002C 19.084888 20.41724 18.88462 21.050236 18.93 21.690002C 18.878939 22.371986 19.081966 23.04875 19.5 23.590002C 19.870096 24.010698 20.41012 24.242138 20.97 24.220001C 21.278759 24.218208 21.5843 24.1571 21.869999 24.04C 22.15017 23.941216 22.413303 23.799526 22.65 23.62L22.65 23.62L22.65 22.710001L21.65 22.710001C 21.490868 22.710001 21.338255 22.646786 21.225733 22.534266C 21.113213 22.421743 21.049997 22.26913 21.05 22.11C 21.049974 21.951775 21.113506 21.800169 21.226324 21.68923C 21.339144 21.578293 21.491795 21.517317 21.65 21.52L21.65 21.52L23.65 21.52C 23.90405 21.52 24.109999 21.725948 24.109999 21.98L24.109999 21.98L24.109999 24.2z" stroke="none" fill="#CC33CC" fill-rule="nonzero" />
</g>
</svg>