<?xml version="1.0" encoding="UTF-8"?>
<svg xmlns="http://www.w3.org/2000/svg" xmlns:xlink="http://www.w3.org/1999/xlink" width="20px" height="20px" viewBox="0 0 20 20" version="1.1">
<g id="surface1">
<path style=" stroke:none;fill-rule:nonzero;fill:rgb(80%,20%,80%);fill-opacity:1;" d="M 12.527344 8.109375 L 11.285156 8.109375 C 10.988281 8.109375 10.75 8.351562 10.746094 8.644531 L 10.746094 9.894531 C 10.75 10.1875 10.988281 10.429688 11.285156 10.429688 L 12.527344 10.429688 C 12.824219 10.429688 13.066406 10.1875 13.066406 9.894531 L 13.066406 8.644531 C 13.066406 8.351562 12.824219 8.109375 12.527344 8.109375 Z M 12.527344 8.109375 "/>
<path style=" stroke:none;fill-rule:nonzero;fill:rgb(80%,20%,80%);fill-opacity:1;" d="M 16.226562 8.109375 L 14.984375 8.109375 C 14.6875 8.109375 14.449219 8.351562 14.445312 8.644531 L 14.445312 9.894531 C 14.449219 10.1875 14.6875 10.429688 14.984375 10.429688 L 16.230469 10.429688 C 16.527344 10.429688 16.769531 10.191406 16.769531 9.894531 L 16.769531 8.644531 C 16.769531 8.351562 16.527344 8.109375 16.230469 8.109375 Z M 16.226562 8.109375 "/>
<path style=" stroke:none;fill-rule:nonzero;fill:rgb(80%,20%,80%);fill-opacity:1;" d="M 5.171875 15.226562 L 3.914062 15.226562 C 3.617188 15.226562 3.375 15.464844 3.375 15.765625 L 3.375 17.007812 C 3.375 17.148438 3.433594 17.285156 3.53125 17.386719 C 3.632812 17.488281 3.773438 17.542969 3.914062 17.542969 L 5.15625 17.542969 C 5.453125 17.542969 5.691406 17.304688 5.691406 17.007812 L 5.691406 15.765625 C 5.695312 15.621094 5.636719 15.484375 5.539062 15.382812 C 5.4375 15.28125 5.300781 15.226562 5.15625 15.226562 Z M 5.171875 15.226562 "/>
<path style=" stroke:none;fill-rule:nonzero;fill:rgb(80%,20%,80%);fill-opacity:1;" d="M 8.867188 15.226562 L 7.625 15.226562 C 7.328125 15.226562 7.089844 15.46875 7.089844 15.765625 L 7.089844 17.007812 C 7.089844 17.304688 7.328125 17.542969 7.625 17.542969 L 8.867188 17.542969 C 9.011719 17.542969 9.148438 17.488281 9.25 17.386719 C 9.351562 17.285156 9.40625 17.148438 9.40625 17.007812 L 9.40625 15.765625 C 9.40625 15.464844 9.164062 15.226562 8.867188 15.226562 Z M 8.867188 15.226562 "/>
<path style=" stroke:none;fill-rule:nonzero;fill:rgb(80%,20%,80%);fill-opacity:1;" d="M 3.894531 13.980469 L 5.136719 13.980469 C 5.433594 13.980469 5.671875 13.738281 5.675781 13.441406 L 5.675781 12.199219 C 5.671875 11.902344 5.433594 11.664062 5.136719 11.660156 L 3.894531 11.660156 C 3.597656 11.664062 3.355469 11.902344 3.355469 12.199219 L 3.355469 13.441406 C 3.355469 13.738281 3.597656 13.980469 3.894531 13.980469 Z M 3.894531 13.980469 "/>
<path style=" stroke:none;fill-rule:nonzero;fill:rgb(80%,20%,80%);fill-opacity:1;" d="M 7.589844 13.980469 L 8.832031 13.980469 C 9.128906 13.980469 9.371094 13.738281 9.371094 13.441406 L 9.371094 12.199219 C 9.371094 11.902344 9.128906 11.664062 8.832031 11.660156 L 7.589844 11.660156 C 7.292969 11.664062 7.050781 11.902344 7.050781 12.199219 L 7.050781 13.441406 C 7.050781 13.738281 7.292969 13.980469 7.589844 13.980469 Z M 7.589844 13.980469 "/>
<path style=" stroke:none;fill-rule:nonzero;fill:rgb(80%,20%,80%);fill-opacity:1;" d="M 12.527344 11.660156 L 11.285156 11.660156 C 10.988281 11.660156 10.75 11.898438 10.746094 12.195312 L 10.746094 13.441406 C 10.75 13.738281 10.988281 13.980469 11.285156 13.980469 L 12.527344 13.980469 C 12.824219 13.980469 13.066406 13.738281 13.066406 13.441406 L 13.066406 12.195312 C 13.066406 11.898438 12.824219 11.660156 12.527344 11.660156 Z M 12.527344 11.660156 "/>
<path style=" stroke:none;fill-rule:nonzero;fill:rgb(80%,20%,80%);fill-opacity:1;" d="M 16.226562 11.660156 L 14.984375 11.660156 C 14.6875 11.660156 14.449219 11.898438 14.445312 12.195312 L 14.445312 13.441406 C 14.449219 13.738281 14.6875 13.980469 14.984375 13.980469 L 16.230469 13.980469 C 16.527344 13.980469 16.769531 13.742188 16.769531 13.441406 L 16.769531 12.195312 C 16.769531 11.898438 16.527344 11.660156 16.230469 11.660156 Z M 16.226562 11.660156 "/>
<path style=" stroke:none;fill-rule:nonzero;fill:rgb(80%,20%,80%);fill-opacity:1;" d="M 0.761719 19.964844 L 19.355469 19.964844 C 19.5 19.964844 19.636719 19.910156 19.738281 19.808594 C 19.839844 19.707031 19.894531 19.570312 19.894531 19.429688 L 19.894531 2.191406 C 19.894531 2.050781 19.839844 1.914062 19.738281 1.8125 C 19.636719 1.710938 19.5 1.65625 19.355469 1.65625 L 17.445312 1.65625 L 17.445312 3.535156 C 17.445312 4.1875 16.917969 4.71875 16.265625 4.71875 L 14.945312 4.71875 C 14.292969 4.714844 13.765625 4.1875 13.765625 3.535156 L 13.765625 1.65625 L 11.898438 1.65625 L 11.898438 3.535156 C 11.898438 4.1875 11.371094 4.714844 10.71875 4.71875 L 9.398438 4.71875 C 8.746094 4.714844 8.21875 4.1875 8.21875 3.535156 L 8.21875 1.65625 L 6.355469 1.65625 L 6.355469 3.535156 C 6.351562 4.1875 5.824219 4.714844 5.171875 4.71875 L 3.855469 4.71875 C 3.199219 4.71875 2.671875 4.1875 2.671875 3.535156 L 2.671875 1.65625 L 0.761719 1.65625 C 0.464844 1.65625 0.226562 1.898438 0.226562 2.191406 L 0.226562 19.433594 C 0.226562 19.726562 0.464844 19.964844 0.761719 19.964844 Z M 1.605469 7.105469 L 18.511719 7.105469 L 18.511719 18.585938 L 1.605469 18.585938 Z M 1.605469 7.105469 "/>
<path style=" stroke:none;fill-rule:nonzero;fill:rgb(80%,20%,80%);fill-opacity:1;" d="M 3.855469 0.0390625 C 3.714844 0.0390625 3.578125 0.09375 3.476562 0.195312 C 3.375 0.296875 3.316406 0.433594 3.316406 0.574219 L 3.316406 3.535156 C 3.316406 3.832031 3.558594 4.074219 3.855469 4.074219 L 5.171875 4.074219 C 5.464844 4.066406 5.699219 3.828125 5.699219 3.535156 L 5.699219 0.574219 C 5.699219 0.28125 5.464844 0.046875 5.171875 0.0390625 Z M 3.855469 0.0390625 "/>
<path style=" stroke:none;fill-rule:nonzero;fill:rgb(80%,20%,80%);fill-opacity:1;" d="M 9.398438 0.0390625 C 9.105469 0.0390625 8.863281 0.277344 8.863281 0.574219 L 8.863281 3.535156 C 8.863281 3.832031 9.105469 4.074219 9.398438 4.074219 L 10.71875 4.074219 C 11.015625 4.074219 11.253906 3.832031 11.253906 3.535156 L 11.253906 0.574219 C 11.253906 0.277344 11.015625 0.0390625 10.71875 0.0390625 Z M 9.398438 0.0390625 "/>
<path style=" stroke:none;fill-rule:nonzero;fill:rgb(80%,20%,80%);fill-opacity:1;" d="M 16.261719 0.0390625 L 14.945312 0.0390625 C 14.648438 0.0390625 14.410156 0.277344 14.40625 0.574219 L 14.40625 3.535156 C 14.410156 3.832031 14.648438 4.074219 14.945312 4.074219 L 16.261719 4.074219 C 16.558594 4.074219 16.800781 3.832031 16.800781 3.535156 L 16.800781 0.574219 C 16.800781 0.433594 16.742188 0.296875 16.640625 0.195312 C 16.539062 0.09375 16.402344 0.0390625 16.261719 0.0390625 Z M 16.261719 0.0390625 "/>
</g>
</svg>
