<?xml version="1.0" standalone="no"?>
<!DOCTYPE svg PUBLIC "-//W3C//DTD SVG 1.0//EN" "http://www.w3.org/TR/2001/REC-SVG-20010904/DTD/svg10.dtd">
<svg xmlns="http://www.w3.org/2000/svg" xmlns:xlink="http://www.w3.org/1999/xlink" id="body_1" width="20" height="20">

<g transform="matrix(0.35746202 0 0 0.35746202 0.012511117 -0)">
    <path d="M0 0L55.88 0L55.88 55.95L0 55.95z" stroke="none" fill="none" />
    <path d="M1 4.24C 1 2.4505975 2.4505975 1 4.24 1L4.24 1L51.64 1C 53.429405 1 54.88 2.4505975 54.88 4.24L54.88 4.24L54.88 51.57C 54.88 53.359406 53.429405 54.81 51.64 54.81L51.64 54.81L4.24 54.81C 2.4505975 54.81 1 53.359406 1 51.57L1 51.57L1 4.24z" stroke="none" fill="#FFFFFF" fill-rule="nonzero" />
    <path transform="matrix(1 0 0 1 -0.04 -0.1)"  d="M51.68 2.1C 52.914845 2.1054752 53.914528 3.105157 53.920002 4.34L53.920002 4.34L53.920002 51.67C 53.914528 52.904842 52.914845 53.904526 51.68 53.91L51.68 53.91L4.28 53.91C 3.679015 53.92074 3.0989318 53.689484 2.6701589 53.268234C 2.241386 52.84698 1.9999042 52.271084 2 51.67L2 51.67L2 4.34C 1.9999039 3.7389193 2.241386 3.1630197 2.6701589 2.7417688C 3.098932 2.3205183 3.679015 2.089266 4.28 2.1L4.28 2.1L51.68 2.1zM51.68 0.099999905L4.28 0.099999905C 3.1485677 0.08932543 2.0598025 0.5313215 1.2559757 1.327636C 0.4521489 2.1239502 -5.054474E-05 3.208517 0 4.34L0 4.34L0 51.67C 9.536743E-07 54.01169 1.8983133 55.909996 4.24 55.909996L4.24 55.909996L51.64 55.909996C 53.981686 55.909996 55.879997 54.011684 55.879997 51.67L55.879997 51.67L55.879997 4.34C 55.880104 2.0138462 54.006054 0.121946335 51.68 0.1z" stroke="none" fill="#198596" fill-rule="nonzero" />
</g>
</svg>