<?xml version="1.0" encoding="UTF-8"?><svg xmlns="http://www.w3.org/2000/svg" width="20px" height="20px" viewBox="0 0 56.33 56.53"><defs><style>.c{fill:#fff;}.d{fill:#198596;}</style></defs><g id="a"><g><rect class="c" x="1.17" y="1.19" width="54" height="54" rx="11" ry="11"/><path class="c" d="M44.17,2.19c5.51,0,10,4.49,10,10V44.19c0,5.51-4.49,10-10,10H12.17c-5.51,0-10-4.49-10-10V12.19C2.17,6.68,6.65,2.19,12.17,2.19H44.17m0-2H12.17C5.57,.19,.17,5.59,.17,12.19V44.19c0,6.6,5.4,12,12,12H44.17c6.6,0,12-5.4,12-12V12.19C56.17,5.59,50.77,.19,44.17,.19h0Z"/></g></g><g id="b"><path class="d" d="M41.5,42.51h-4.21c-1,0-1.82,.82-1.82,1.82v4.21c0,1,.82,1.82,1.82,1.82h4.21c1,0,1.82-.81,1.82-1.82v-4.21c0-1-.81-1.82-1.81-1.82h0Zm0,0"/><path class="d" d="M54,42.51h-4.21c-1,0-1.82,.82-1.82,1.82v4.21c0,1,.82,1.82,1.82,1.82h4.21c1,0,1.82-.81,1.82-1.82v-4.21c0-1-.82-1.82-1.82-1.82h0Zm0,0"/><path class="d" d="M37.17,38.3h4.21c1,0,1.82-.81,1.82-1.82v-4.21c0-1-.82-1.82-1.82-1.82h-4.21c-1,0-1.82,.82-1.82,1.82v4.21c0,1,.82,1.82,1.82,1.82h0Zm0,0"/><path class="d" d="M49.67,38.3h4.21c1,0,1.82-.81,1.82-1.82v-4.21c0-1-.81-1.82-1.82-1.82h-4.21c-1,0-1.82,.82-1.82,1.82v4.21c0,1,.82,1.82,1.82,1.82h0Zm0,0"/><path class="d" d="M53.78,17.43h-4.21c-1,0-1.82,.82-1.82,1.82v4.21c0,1,.81,1.82,1.82,1.82h4.21c1,0,1.82-.82,1.82-1.82v-4.21c0-1-.82-1.82-1.82-1.82h0Zm0,0"/><path class="d" d="M40.01,5.27c-1.43-.73-3.17-.16-3.9,1.27L14.53,48.97c-.73,1.43-.16,3.17,1.27,3.9,.42,.21,.87,.32,1.31,.32,1.06,0,2.08-.58,2.59-1.59L41.28,9.17c.73-1.43,.16-3.17-1.27-3.9h0Zm0,0"/><path class="d" d="M15.66,17.42c-1.53-.74-3.16-1.3-4.78-1.89-.94-.34-1.83-.73-2.62-1.28-1.56-1.08-1.26-2.84,.56-3.54,.52-.2,1.06-.26,1.61-.29,2.12-.1,4.13,.24,6.04,1.04,.95,.4,1.27,.27,1.59-.59,.34-.91,.62-1.84,.94-2.76,.21-.62-.05-1.03-.72-1.29-1.23-.47-2.49-.81-3.81-.99-1.73-.23-1.73-.24-1.74-1.75q0-2.13-2.46-2.13c-.36,0-.71,0-1.07,0-1.15,.03-1.34,.2-1.37,1.21-.02,.45,0,.9,0,1.36,0,1.34-.02,1.32-1.49,1.78C2.78,7.42,.58,9.53,.35,12.91c-.21,2.99,1.58,5.01,4.4,6.48,1.74,.91,3.66,1.44,5.5,2.15,.72,.27,1.4,.59,2,1.03,1.77,1.27,1.45,3.39-.65,4.19-1.12,.43-2.31,.53-3.53,.4-1.88-.2-3.68-.63-5.38-1.4-.99-.45-1.28-.33-1.62,.6-.29,.81-.55,1.63-.81,2.44-.35,1.1-.22,1.36,.98,1.87,1.53,.65,3.17,.98,4.84,1.21,1.31,.18,1.35,.23,1.36,1.41,0,.53,0,1.08,.02,1.61,0,.68,.38,1.07,1.18,1.08,.9,.01,1.82,.01,2.72,0,.74-.01,1.12-.37,1.12-1.02,0-.73,.04-1.47,0-2.2-.04-.75,.33-1.13,1.15-1.32,1.9-.45,3.51-1.34,4.76-2.66,3.46-3.66,2.14-9.01-2.75-11.37h0Zm0,0"/></g></svg>