<?xml version="1.0" encoding="UTF-8"?><svg xmlns="http://www.w3.org/2000/svg" width="20px" height="20px" viewBox="0 0 56.17 56.53"><defs><style>.c{fill:#fff;}.d{fill:#c3c;}</style></defs><g id="a"><g><rect class="c" x="1" y="1.19" width="54" height="54" rx="11" ry="11"/><path class="c" d="M44,2.19c5.51,0,10,4.49,10,10V44.19c0,5.51-4.49,10-10,10H12c-5.51,0-10-4.49-10-10V12.19C2,6.68,6.49,2.19,12,2.19H44m0-2H12C5.4,.19,0,5.59,0,12.19V44.19c0,6.6,5.4,12,12,12H44c6.6,0,12-5.4,12-12V12.19C56,5.59,50.6,.19,44,.19h0Z"/></g></g><g id="b"><path class="d" d="M55.23,41.14c0,6.1-4.95,11.05-11.05,11.05s-11.05-4.95-11.05-11.05,4.95-11.05,11.05-11.05,11.05,4.95,11.05,11.05h0Zm-2.76,0c0-4.57-3.72-8.28-8.28-8.28s-8.28,3.72-8.28,8.28,3.72,8.28,8.28,8.28,8.28-3.72,8.28-8.28h0Zm-4.14,0h-4.14v-4.14c0-.76-.62-1.38-1.38-1.38s-1.38,.62-1.38,1.38v5.52c0,.76,.62,1.38,1.38,1.38h5.52c.76,0,1.38-.62,1.38-1.38s-.62-1.38-1.38-1.38h0Zm0,0"/><g transform="translate(1 1)"><g><path class="d" d="M21.27,39.79l-5.57,5.57c-2.31,2.31-6.05,2.31-8.36,0-2.31-2.31-2.31-6.05,0-8.36l11.15-11.15c2.31-2.31,6.05-2.31,8.36,0,.77,.77,2.02,.77,2.79,0,.77-.77,.77-2.02,0-2.79-3.85-3.85-10.09-3.85-13.94,0l-11.15,11.15c-3.85,3.85-3.85,10.09,0,13.94,3.85,3.85,10.09,3.85,13.94,0l5.57-5.57c.77-.77,.77-2.02,0-2.79s-2.02-.77-2.79,0Z"/><path class="d" d="M46.07,6.62c-3.85-3.85-10.09-3.85-13.94,0l-6.69,6.69c-.77,.77-.77,2.02,0,2.79,.77,.77,2.02,.77,2.79,0l6.69-6.69c2.31-2.31,6.05-2.31,8.36,0,2.31,2.31,2.31,6.05,0,8.36l-12.26,12.26c-2.31,2.31-6.05,2.31-8.36,0-.77-.77-2.02-.77-2.79,0s-.77,2.02,0,2.79c3.85,3.85,10.09,3.85,13.94,0l12.26-12.26c3.85-3.85,3.85-10.09,0-13.94Z"/></g></g></g></svg>