<?xml version="1.0" encoding="UTF-8"?>
<svg xmlns="http://www.w3.org/2000/svg" xmlns:xlink="http://www.w3.org/1999/xlink" width="20px" height="20px" viewBox="0 0 20 20" version="1.1">
<g id="surface1">
<path style=" stroke:none;fill-rule:nonzero;fill:rgb(80%,20%,80%);fill-opacity:1;" d="M 15.566406 11.472656 L 19.183594 7.855469 C 19.292969 7.730469 19.324219 7.554688 19.257812 7.402344 C 19.195312 7.25 19.050781 7.148438 18.886719 7.140625 L 16.96875 7.140625 L 16.96875 4.148438 C 16.96875 4.035156 16.925781 3.929688 16.84375 3.851562 C 16.765625 3.769531 16.65625 3.722656 16.542969 3.726562 L 13.988281 3.726562 C 13.753906 3.722656 13.558594 3.914062 13.558594 4.148438 L 13.558594 7.128906 L 11.648438 7.128906 C 11.414062 7.132812 11.226562 7.324219 11.226562 7.558594 C 11.222656 7.667969 11.269531 7.777344 11.351562 7.855469 L 14.984375 11.472656 C 15.0625 11.554688 15.171875 11.601562 15.285156 11.601562 C 15.398438 11.601562 15.507812 11.554688 15.585938 11.472656 Z M 15.566406 11.472656 "/>
<path style=" stroke:none;fill-rule:nonzero;fill:rgb(80%,20%,80%);fill-opacity:1;" d="M 10.570312 6.503906 C 10.570312 9.304688 8.300781 11.578125 5.496094 11.578125 C 2.695312 11.578125 0.421875 9.304688 0.421875 6.503906 C 0.421875 3.699219 2.695312 1.429688 5.496094 1.429688 C 8.300781 1.429688 10.570312 3.699219 10.570312 6.503906 Z M 9.304688 6.503906 C 9.296875 4.402344 7.589844 2.703125 5.488281 2.707031 C 3.386719 2.710938 1.6875 4.417969 1.6875 6.519531 C 1.691406 8.617188 3.394531 10.320312 5.496094 10.320312 C 7.601562 10.320312 9.308594 8.609375 9.304688 6.503906 Z M 7.398438 6.503906 L 5.496094 6.503906 L 5.496094 4.605469 C 5.472656 4.277344 5.195312 4.019531 4.863281 4.019531 C 4.53125 4.019531 4.253906 4.277344 4.230469 4.605469 L 4.230469 7.144531 C 4.230469 7.496094 4.511719 7.777344 4.859375 7.777344 L 7.398438 7.777344 C 7.730469 7.753906 7.988281 7.476562 7.988281 7.144531 C 7.988281 6.8125 7.730469 6.535156 7.398438 6.511719 Z M 7.398438 6.503906 "/>
<path style=" stroke:none;fill-rule:nonzero;fill:rgb(80%,20%,80%);fill-opacity:1;" d="M 17.105469 18.683594 C 17.367188 18.683594 17.632812 18.722656 17.886719 18.804688 C 17.644531 17.730469 17.242188 15.335938 18.027344 13.089844 C 18.027344 13.089844 16.640625 13.089844 15.597656 14.730469 C 15.492188 14.890625 15.40625 15.0625 15.34375 15.242188 C 15.15625 14.136719 14.769531 13.074219 14.203125 12.105469 C 14.078125 13.617188 13.648438 15.082031 12.9375 16.417969 C 12.789062 14.054688 12.015625 11.773438 10.699219 9.804688 C 10.535156 12.039062 10.175781 14.257812 9.628906 16.433594 C 9.269531 15.230469 8.796875 13.605469 8.292969 11.464844 C 7.792969 12.519531 7.453125 13.644531 7.277344 14.800781 L 7.25 14.75 C 6.203125 13.105469 4.8125 13.105469 4.8125 13.105469 C 5.601562 15.335938 5.199219 17.75 4.957031 18.820312 C 5.210938 18.742188 5.476562 18.699219 5.742188 18.699219 Z M 17.105469 18.683594 "/>
</g>
</svg>
