<?xml version="1.0" encoding="UTF-8"?>
<svg xmlns="http://www.w3.org/2000/svg" xmlns:xlink="http://www.w3.org/1999/xlink" width="20px" height="20px" viewBox="0 0 20 20" version="1.1">
<g id="surface1">
<path style=" stroke:none;fill-rule:nonzero;fill:rgb(100%,100%,100%);fill-opacity:1;" d="M 1.515625 0.355469 L 18.441406 0.355469 C 19.082031 0.355469 19.601562 0.875 19.601562 1.515625 L 19.601562 18.417969 C 19.601562 19.058594 19.082031 19.574219 18.441406 19.574219 L 1.515625 19.574219 C 0.875 19.574219 0.355469 19.058594 0.355469 18.417969 L 0.355469 1.515625 C 0.355469 0.875 0.875 0.355469 1.515625 0.355469 Z M 1.515625 0.355469 "/>
<path style=" stroke:none;fill-rule:nonzero;fill:rgb(9.803922%,52.156863%,58.823529%);fill-opacity:1;" d="M 18.441406 0.714844 C 18.882812 0.714844 19.242188 1.074219 19.242188 1.515625 L 19.242188 18.417969 C 19.242188 18.859375 18.882812 19.214844 18.441406 19.21875 L 1.515625 19.21875 C 1.300781 19.222656 1.09375 19.140625 0.9375 18.988281 C 0.785156 18.839844 0.699219 18.632812 0.699219 18.417969 L 0.699219 1.515625 C 0.699219 1.300781 0.785156 1.09375 0.9375 0.945312 C 1.09375 0.792969 1.300781 0.710938 1.515625 0.714844 L 18.441406 0.714844 M 18.441406 0 L 1.515625 0 C 1.109375 -0.00390625 0.722656 0.152344 0.433594 0.4375 C 0.148438 0.722656 -0.015625 1.109375 -0.015625 1.515625 L -0.015625 18.417969 C -0.015625 19.253906 0.664062 19.933594 1.5 19.933594 L 18.429688 19.933594 C 19.265625 19.933594 19.941406 19.253906 19.941406 18.417969 L 19.941406 1.515625 C 19.941406 0.683594 19.273438 0.0078125 18.441406 0 Z M 18.441406 0 "/>
<path style=" stroke:none;fill-rule:nonzero;fill:rgb(9.803922%,52.156863%,58.823529%);fill-opacity:1;" d="M 14.046875 10.289062 C 14.628906 9.734375 16.960938 9.558594 17.660156 9.515625 C 17.753906 9.511719 17.84375 9.542969 17.914062 9.605469 C 17.980469 9.671875 18.019531 9.761719 18.019531 9.855469 L 18.019531 16.640625 C 18.019531 16.835938 17.863281 16.996094 17.664062 16.996094 L 15.640625 16.996094 C 15.496094 16.992188 15.367188 16.898438 15.316406 16.765625 C 15.269531 16.609375 14.097656 12.335938 13.941406 10.566406 C 13.929688 10.464844 13.96875 10.359375 14.046875 10.289062 Z M 14.046875 10.289062 "/>
<path style=" stroke:none;fill-rule:nonzero;fill:rgb(9.803922%,52.156863%,58.823529%);fill-opacity:1;" d="M 3.742188 13.9375 L 6.125 14.964844 C 6.78125 14.996094 8.152344 14.964844 8.503906 14.964844 C 8.855469 14.964844 10.613281 14.402344 10.335938 14.289062 C 10.179688 14.261719 10.019531 14.261719 9.859375 14.289062 C 8.3125 14.417969 5.78125 14.730469 5.78125 13.605469 C 5.78125 12.484375 8.519531 12.25 9.183594 12.25 C 9.84375 12.25 10.96875 11.652344 11.902344 11.566406 C 12.277344 11.535156 12.796875 11.480469 13.332031 11.449219 C 13.617188 13 14.003906 14.535156 14.484375 16.035156 L 10.882812 17.679688 C 9.53125 18.1875 8.617188 18.839844 5.78125 17.679688 C 5.78125 17.679688 1.703125 15.945312 1.703125 14.960938 C 1.703125 14.144531 2.640625 13.558594 3.742188 13.9375 Z M 3.742188 13.9375 "/>
<path style=" stroke:none;fill-rule:nonzero;fill:rgb(9.803922%,52.156863%,58.823529%);fill-opacity:1;" d="M 6.644531 5.980469 C 6.222656 5.78125 5.785156 5.601562 5.34375 5.441406 C 5.089844 5.355469 4.851562 5.234375 4.628906 5.085938 C 4.433594 4.972656 4.328125 4.75 4.363281 4.527344 C 4.398438 4.304688 4.566406 4.125 4.785156 4.078125 C 4.925781 4.027344 5.078125 4 5.230469 3.996094 C 5.800781 3.964844 6.375 4.066406 6.898438 4.292969 C 7.160156 4.40625 7.257812 4.371094 7.339844 4.125 C 7.421875 3.878906 7.511719 3.601562 7.597656 3.335938 C 7.652344 3.160156 7.597656 3.042969 7.398438 2.980469 C 7.0625 2.84375 6.707031 2.75 6.347656 2.695312 C 5.867188 2.632812 5.867188 2.628906 5.863281 2.195312 C 5.863281 1.589844 5.863281 1.589844 5.1875 1.589844 L 4.894531 1.589844 C 4.574219 1.589844 4.535156 1.648438 4.511719 1.945312 C 4.511719 2.074219 4.511719 2.203125 4.511719 2.332031 C 4.511719 2.714844 4.511719 2.6875 4.101562 2.839844 C 3.117188 3.160156 2.511719 3.761719 2.445312 4.726562 C 2.390625 5.574219 2.882812 6.152344 3.660156 6.570312 C 4.15625 6.804688 4.664062 7.007812 5.183594 7.1875 C 5.367188 7.253906 5.539062 7.347656 5.699219 7.464844 C 5.925781 7.601562 6.046875 7.859375 6.007812 8.121094 C 5.964844 8.382812 5.773438 8.59375 5.519531 8.65625 C 5.207031 8.773438 4.871094 8.816406 4.542969 8.769531 C 4.03125 8.714844 3.53125 8.578125 3.0625 8.355469 C 2.789062 8.230469 2.707031 8.265625 2.617188 8.53125 C 2.527344 8.800781 2.464844 8.992188 2.394531 9.226562 C 2.296875 9.539062 2.332031 9.613281 2.664062 9.761719 C 3.09375 9.9375 3.542969 10.058594 4.003906 10.117188 C 4.359375 10.171875 4.359375 10.1875 4.382812 10.519531 C 4.382812 10.675781 4.382812 10.828125 4.382812 10.980469 C 4.382812 11.136719 4.484375 11.285156 4.707031 11.289062 L 5.460938 11.289062 C 5.664062 11.289062 5.769531 11.183594 5.769531 10.996094 C 5.769531 10.8125 5.769531 10.578125 5.769531 10.367188 C 5.769531 10.15625 5.859375 10.050781 6.085938 9.992188 C 6.589844 9.878906 7.046875 9.613281 7.398438 9.234375 C 8.355469 8.191406 7.992188 6.667969 6.640625 5.996094 Z M 6.644531 5.980469 "/>
</g>
</svg>
