<?xml version="1.0" encoding="UTF-8"?>
<svg xmlns="http://www.w3.org/2000/svg" xmlns:xlink="http://www.w3.org/1999/xlink" width="20px" height="20px" viewBox="0 0 20 20" version="1.1">
<g id="surface1">
<path style=" stroke:none;fill-rule:nonzero;fill:rgb(100%,100%,100%);fill-opacity:1;" d="M 1.515625 0.355469 L 18.441406 0.355469 C 19.082031 0.355469 19.601562 0.875 19.601562 1.515625 L 19.601562 18.417969 C 19.601562 19.058594 19.082031 19.574219 18.441406 19.574219 L 1.515625 19.574219 C 0.875 19.574219 0.355469 19.058594 0.355469 18.417969 L 0.355469 1.515625 C 0.355469 0.875 0.875 0.355469 1.515625 0.355469 Z M 1.515625 0.355469 "/>
<path style=" stroke:none;fill-rule:nonzero;fill:rgb(9.803922%,52.156863%,58.823529%);fill-opacity:1;" d="M 18.441406 0.714844 C 18.882812 0.714844 19.242188 1.074219 19.242188 1.515625 L 19.242188 18.417969 C 19.242188 18.859375 18.882812 19.214844 18.441406 19.21875 L 1.515625 19.21875 C 1.300781 19.222656 1.09375 19.140625 0.9375 18.988281 C 0.785156 18.839844 0.699219 18.632812 0.699219 18.417969 L 0.699219 1.515625 C 0.699219 1.300781 0.785156 1.09375 0.9375 0.945312 C 1.09375 0.792969 1.300781 0.710938 1.515625 0.714844 L 18.441406 0.714844 M 18.441406 0 L 1.515625 0 C 1.109375 -0.00390625 0.722656 0.152344 0.433594 0.4375 C 0.148438 0.722656 -0.015625 1.109375 -0.015625 1.515625 L -0.015625 18.417969 C -0.015625 19.253906 0.664062 19.933594 1.5 19.933594 L 18.429688 19.933594 C 19.265625 19.933594 19.941406 19.253906 19.941406 18.417969 L 19.941406 1.515625 C 19.941406 0.683594 19.273438 0.0078125 18.441406 0 Z M 18.441406 0 "/>
<path style=" stroke:none;fill-rule:nonzero;fill:rgb(9.803922%,52.156863%,58.823529%);fill-opacity:1;" d="M 3.109375 18.003906 L 4.777344 16.339844 C 4.394531 16.183594 4.09375 15.882812 3.9375 15.5 L 2.273438 17.167969 C 2.164062 17.277344 2.101562 17.429688 2.101562 17.585938 C 2.101562 17.742188 2.164062 17.894531 2.273438 18.003906 C 2.386719 18.113281 2.535156 18.175781 2.691406 18.175781 C 2.851562 18.175781 3 18.113281 3.109375 18.003906 Z M 3.109375 18.003906 "/>
<path style=" stroke:none;fill-rule:nonzero;fill:rgb(9.803922%,52.156863%,58.823529%);fill-opacity:1;" d="M 12.863281 7.273438 L 12.863281 7.398438 L 12.988281 7.398438 C 13.09375 7.410156 13.199219 7.417969 13.308594 7.417969 C 14.332031 7.375 15.296875 6.933594 16.003906 6.191406 C 16.839844 5.421875 17.285156 4.316406 17.226562 3.179688 L 17.226562 3.054688 L 17.101562 3.054688 C 15.960938 2.980469 14.851562 3.417969 14.070312 4.25 C 13.238281 5.027344 12.796875 6.136719 12.863281 7.273438 Z M 12.863281 7.273438 "/>
<path style=" stroke:none;fill-rule:nonzero;fill:rgb(9.803922%,52.156863%,58.823529%);fill-opacity:1;" d="M 10.410156 9.402344 L 10.519531 9.339844 C 11.457031 8.699219 12.0625 7.675781 12.167969 6.542969 C 12.289062 5.683594 12.140625 4.8125 11.738281 4.042969 L 12.988281 2.792969 C 13.179688 2.605469 13.179688 2.300781 12.992188 2.109375 C 12.804688 1.921875 12.5 1.917969 12.3125 2.105469 L 10.882812 3.535156 C 10.074219 4.195312 9.558594 5.148438 9.453125 6.1875 C 9.269531 7.308594 9.59375 8.453125 10.339844 9.3125 Z M 10.410156 9.402344 "/>
<path style=" stroke:none;fill-rule:nonzero;fill:rgb(9.803922%,52.156863%,58.823529%);fill-opacity:1;" d="M 4.628906 15.203125 L 4.734375 15.144531 C 5.675781 14.5 6.277344 13.476562 6.386719 12.34375 C 6.570312 11.222656 6.246094 10.078125 5.5 9.21875 L 5.414062 9.132812 L 5.308594 9.191406 C 4.367188 9.832031 3.761719 10.859375 3.652344 11.988281 C 3.46875 13.109375 3.792969 14.257812 4.539062 15.113281 Z M 4.628906 15.203125 "/>
<path style=" stroke:none;fill-rule:nonzero;fill:rgb(9.803922%,52.156863%,58.823529%);fill-opacity:1;" d="M 7.511719 12.304688 L 7.617188 12.238281 C 8.558594 11.597656 9.164062 10.574219 9.269531 9.441406 C 9.453125 8.320312 9.125 7.175781 8.382812 6.316406 L 8.296875 6.230469 L 8.1875 6.292969 C 7.25 6.933594 6.644531 7.957031 6.535156 9.089844 C 6.351562 10.210938 6.675781 11.355469 7.421875 12.214844 Z M 7.511719 12.304688 "/>
<path style=" stroke:none;fill-rule:nonzero;fill:rgb(9.803922%,52.156863%,58.823529%);fill-opacity:1;" d="M 7.933594 13.910156 C 6.800781 14.019531 5.777344 14.621094 5.136719 15.5625 L 5.074219 15.667969 L 5.160156 15.757812 C 5.859375 16.378906 6.769531 16.707031 7.703125 16.679688 C 7.898438 16.679688 8.09375 16.667969 8.289062 16.644531 C 9.421875 16.535156 10.445312 15.929688 11.085938 14.988281 L 11.144531 14.882812 L 11.058594 14.796875 C 10.199219 14.050781 9.054688 13.726562 7.933594 13.910156 Z M 7.933594 13.910156 "/>
<path style=" stroke:none;fill-rule:nonzero;fill:rgb(9.803922%,52.156863%,58.823529%);fill-opacity:1;" d="M 10.835938 11.007812 C 9.703125 11.113281 8.679688 11.722656 8.039062 12.660156 L 7.976562 12.769531 L 8.0625 12.855469 C 8.761719 13.480469 9.671875 13.808594 10.605469 13.777344 C 10.800781 13.777344 10.996094 13.765625 11.1875 13.742188 C 12.316406 13.636719 13.339844 13.039062 13.984375 12.105469 L 14.050781 12 L 13.960938 11.914062 C 13.105469 11.160156 11.960938 10.828125 10.835938 11.007812 Z M 10.835938 11.007812 "/>
<path style=" stroke:none;fill-rule:nonzero;fill:rgb(9.803922%,52.156863%,58.823529%);fill-opacity:1;" d="M 18.179688 7.289062 C 17.992188 7.101562 17.683594 7.101562 17.496094 7.289062 L 16.246094 8.535156 C 15.476562 8.132812 14.605469 7.984375 13.746094 8.105469 C 12.613281 8.210938 11.589844 8.816406 10.949219 9.757812 L 10.886719 9.863281 L 10.976562 9.953125 C 11.671875 10.574219 12.582031 10.90625 13.515625 10.875 C 13.710938 10.875 13.90625 10.863281 14.101562 10.839844 C 15.136719 10.734375 16.089844 10.21875 16.75 9.410156 L 18.179688 7.980469 C 18.273438 7.890625 18.324219 7.765625 18.324219 7.636719 C 18.324219 7.503906 18.273438 7.378906 18.179688 7.289062 Z M 18.179688 7.289062 "/>
</g>
</svg>
