<?xml version="1.0" encoding="UTF-8"?>
<svg xmlns="http://www.w3.org/2000/svg" xmlns:xlink="http://www.w3.org/1999/xlink" width="20px" height="20px" viewBox="0 0 20 20" version="1.1">
<g id="surface1">
<path style=" stroke:none;fill-rule:nonzero;fill:rgb(100%,100%,100%);fill-opacity:1;" d="M 1.515625 0.355469 L 18.441406 0.355469 C 19.082031 0.355469 19.601562 0.875 19.601562 1.515625 L 19.601562 18.417969 C 19.601562 19.058594 19.082031 19.574219 18.441406 19.574219 L 1.515625 19.574219 C 0.875 19.574219 0.355469 19.058594 0.355469 18.417969 L 0.355469 1.515625 C 0.355469 0.875 0.875 0.355469 1.515625 0.355469 Z M 1.515625 0.355469 "/>
<path style=" stroke:none;fill-rule:nonzero;fill:rgb(9.803922%,52.156863%,58.823529%);fill-opacity:1;" d="M 18.441406 0.714844 C 18.882812 0.714844 19.242188 1.074219 19.242188 1.515625 L 19.242188 18.417969 C 19.242188 18.859375 18.882812 19.214844 18.441406 19.21875 L 1.515625 19.21875 C 1.300781 19.222656 1.09375 19.140625 0.9375 18.988281 C 0.785156 18.839844 0.699219 18.632812 0.699219 18.417969 L 0.699219 1.515625 C 0.699219 1.300781 0.785156 1.09375 0.9375 0.945312 C 1.09375 0.792969 1.300781 0.710938 1.515625 0.714844 L 18.441406 0.714844 M 18.441406 0 L 1.515625 0 C 1.109375 -0.00390625 0.722656 0.152344 0.433594 0.4375 C 0.148438 0.722656 -0.015625 1.109375 -0.015625 1.515625 L -0.015625 18.417969 C -0.015625 19.253906 0.664062 19.933594 1.5 19.933594 L 18.429688 19.933594 C 19.265625 19.933594 19.941406 19.253906 19.941406 18.417969 L 19.941406 1.515625 C 19.941406 0.683594 19.273438 0.0078125 18.441406 0 Z M 18.441406 0 "/>
<path style=" stroke:none;fill-rule:nonzero;fill:rgb(9.803922%,52.156863%,58.823529%);fill-opacity:1;" d="M 13.949219 4.296875 C 13.855469 4.863281 13.769531 5.398438 13.457031 5.726562 C 13.148438 6.03125 12.730469 6.203125 12.292969 6.203125 C 11.980469 6.199219 11.675781 6.105469 11.414062 5.933594 C 10.660156 6.984375 9.683594 9.980469 9.347656 11.136719 C 9.304688 11.273438 9.179688 11.367188 9.035156 11.367188 C 8.890625 11.363281 8.765625 11.261719 8.730469 11.121094 C 8.570312 10.566406 8.355469 10.03125 8.085938 9.523438 C 6.910156 10.375 5.289062 10.238281 4.269531 9.207031 C 3.71875 8.652344 3.558594 7.628906 3.371094 6.546875 C 3.199219 5.382812 2.992188 4.175781 2.332031 3.515625 C 2.238281 3.421875 2.214844 3.28125 2.261719 3.160156 C 2.3125 3.039062 2.429688 2.960938 2.5625 2.960938 C 4.988281 2.960938 7.203125 3.726562 8.480469 5.007812 C 9.226562 5.757812 9.515625 6.84375 9.242188 7.863281 C 9.210938 7.988281 9.105469 8.082031 8.976562 8.101562 C 8.847656 8.121094 8.71875 8.058594 8.652344 7.945312 C 8.042969 6.941406 7.3125 6.015625 6.480469 5.1875 C 6.351562 5.082031 6.164062 5.089844 6.046875 5.207031 C 5.929688 5.324219 5.921875 5.511719 6.023438 5.644531 C 6.269531 5.890625 6.496094 6.136719 6.710938 6.382812 C 6.734375 6.402344 6.753906 6.429688 6.769531 6.453125 C 7.703125 7.507812 8.460938 8.707031 9.011719 10.003906 C 9.433594 8.6875 10.21875 6.433594 10.9375 5.480469 C 10.488281 4.828125 10.566406 3.945312 11.128906 3.386719 C 11.808594 2.703125 12.914062 2.3125 14.203125 2.3125 C 14.335938 2.3125 14.453125 2.394531 14.503906 2.515625 C 14.558594 2.636719 14.527344 2.777344 14.433594 2.871094 C 14.140625 3.179688 14.042969 3.734375 13.949219 4.296875 Z M 13.949219 4.296875 "/>
<path style=" stroke:none;fill-rule:nonzero;fill:rgb(9.803922%,52.156863%,58.823529%);fill-opacity:1;" d="M 13.980469 10.175781 C 14.535156 9.648438 16.75 9.480469 17.417969 9.4375 C 17.507812 9.4375 17.59375 9.46875 17.660156 9.527344 C 17.726562 9.589844 17.761719 9.675781 17.761719 9.765625 L 17.761719 16.230469 C 17.761719 16.316406 17.726562 16.398438 17.664062 16.460938 C 17.605469 16.519531 17.523438 16.554688 17.4375 16.554688 L 15.496094 16.554688 C 15.355469 16.554688 15.234375 16.464844 15.1875 16.332031 C 15.144531 16.1875 14.027344 12.121094 13.882812 10.4375 C 13.871094 10.339844 13.90625 10.242188 13.980469 10.175781 Z M 13.980469 10.175781 "/>
<path style=" stroke:none;fill-rule:nonzero;fill:rgb(9.803922%,52.156863%,58.823529%);fill-opacity:1;" d="M 4.179688 13.648438 L 6.441406 14.605469 C 7.066406 14.636719 8.371094 14.605469 8.707031 14.605469 C 9.042969 14.605469 10.714844 14.070312 10.449219 13.964844 C 10.300781 13.9375 10.148438 13.9375 10 13.964844 C 8.519531 14.085938 6.117188 14.386719 6.117188 13.316406 C 6.117188 12.25 8.722656 12.023438 9.355469 12.023438 C 9.984375 12.023438 11.035156 11.457031 11.9375 11.375 C 12.296875 11.34375 12.792969 11.296875 13.292969 11.265625 C 13.566406 12.75 13.933594 14.21875 14.398438 15.65625 L 10.96875 17.207031 C 9.6875 17.691406 8.824219 18.3125 6.117188 17.207031 C 6.117188 17.207031 2.234375 15.5625 2.234375 14.617188 C 2.234375 13.84375 3.128906 13.285156 4.179688 13.648438 Z M 4.179688 13.648438 "/>
</g>
</svg>
