<?xml version="1.0" encoding="UTF-8"?>
<svg xmlns="http://www.w3.org/2000/svg" xmlns:xlink="http://www.w3.org/1999/xlink" width="20px" height="20px" viewBox="0 0 20 20" version="1.1">
<g id="surface1">
<path style=" stroke:none;fill-rule:nonzero;fill:rgb(100%,100%,100%);fill-opacity:1;" d="M 1.515625 0.355469 L 18.441406 0.355469 C 19.082031 0.355469 19.601562 0.875 19.601562 1.515625 L 19.601562 18.417969 C 19.601562 19.058594 19.082031 19.574219 18.441406 19.574219 L 1.515625 19.574219 C 0.875 19.574219 0.355469 19.058594 0.355469 18.417969 L 0.355469 1.515625 C 0.355469 0.875 0.875 0.355469 1.515625 0.355469 Z M 1.515625 0.355469 "/>
<path style=" stroke:none;fill-rule:nonzero;fill:rgb(9.803922%,52.156863%,58.823529%);fill-opacity:1;" d="M 18.441406 0.714844 C 18.882812 0.714844 19.242188 1.074219 19.242188 1.515625 L 19.242188 18.417969 C 19.242188 18.859375 18.882812 19.214844 18.441406 19.21875 L 1.515625 19.21875 C 1.300781 19.222656 1.09375 19.140625 0.9375 18.988281 C 0.785156 18.839844 0.699219 18.632812 0.699219 18.417969 L 0.699219 1.515625 C 0.699219 1.300781 0.785156 1.09375 0.9375 0.945312 C 1.09375 0.792969 1.300781 0.710938 1.515625 0.714844 L 18.441406 0.714844 M 18.441406 0 L 1.515625 0 C 1.109375 -0.00390625 0.722656 0.152344 0.433594 0.4375 C 0.148438 0.722656 -0.015625 1.109375 -0.015625 1.515625 L -0.015625 18.417969 C -0.015625 19.253906 0.664062 19.933594 1.5 19.933594 L 18.429688 19.933594 C 19.265625 19.933594 19.941406 19.253906 19.941406 18.417969 L 19.941406 1.515625 C 19.941406 0.683594 19.273438 0.0078125 18.441406 0 Z M 18.441406 0 "/>
<path style=" stroke:none;fill-rule:nonzero;fill:rgb(9.803922%,52.156863%,58.823529%);fill-opacity:1;" d="M 2.222656 8.441406 C 2.347656 9.210938 2.464844 9.9375 2.890625 10.355469 C 3.628906 11.09375 4.777344 11.21875 5.65625 10.65625 C 6.671875 12.085938 7.992188 16.121094 8.445312 17.679688 C 8.5 17.863281 8.671875 17.992188 8.863281 17.992188 C 9.0625 17.988281 9.234375 17.851562 9.277344 17.65625 C 9.496094 16.917969 9.789062 16.199219 10.144531 15.515625 C 11.726562 16.644531 13.890625 16.460938 15.261719 15.085938 C 16.007812 14.335938 16.234375 12.941406 16.476562 11.496094 C 16.734375 9.921875 17.003906 8.28125 17.902344 7.398438 C 18.027344 7.273438 18.0625 7.085938 17.996094 6.921875 C 17.925781 6.761719 17.769531 6.65625 17.59375 6.652344 C 14.316406 6.652344 11.328125 7.6875 9.601562 9.414062 C 8.597656 10.425781 8.207031 11.894531 8.574219 13.269531 C 8.617188 13.441406 8.757812 13.566406 8.933594 13.59375 C 9.105469 13.617188 9.277344 13.535156 9.367188 13.386719 C 10.1875 12.027344 11.171875 10.777344 12.296875 9.65625 C 12.46875 9.488281 12.742188 9.488281 12.914062 9.65625 C 13.085938 9.828125 13.085938 10.105469 12.914062 10.273438 C 12.578125 10.605469 12.273438 10.941406 11.984375 11.269531 L 11.902344 11.367188 C 10.648438 12.796875 9.628906 14.414062 8.882812 16.160156 C 8.3125 14.375 7.25 11.34375 6.28125 10.054688 C 6.890625 9.171875 6.78125 7.984375 6.023438 7.226562 C 5.105469 6.308594 3.59375 5.777344 1.875 5.777344 C 1.699219 5.78125 1.539062 5.886719 1.472656 6.050781 C 1.40625 6.210938 1.441406 6.398438 1.5625 6.523438 C 1.96875 6.910156 2.097656 7.691406 2.222656 8.441406 Z M 2.222656 8.441406 "/>
</g>
</svg>
