<?xml version="1.0" encoding="UTF-8"?>
<svg xmlns="http://www.w3.org/2000/svg" xmlns:xlink="http://www.w3.org/1999/xlink" width="20px" height="20px" viewBox="0 0 20 20" version="1.1">
<g id="surface1">
<path style=" stroke:none;fill-rule:nonzero;fill:rgb(100%,100%,100%);fill-opacity:1;" d="M 1.515625 0.355469 L 18.441406 0.355469 C 19.082031 0.355469 19.601562 0.875 19.601562 1.515625 L 19.601562 18.417969 C 19.601562 19.058594 19.082031 19.574219 18.441406 19.574219 L 1.515625 19.574219 C 0.875 19.574219 0.355469 19.058594 0.355469 18.417969 L 0.355469 1.515625 C 0.355469 0.875 0.875 0.355469 1.515625 0.355469 Z M 1.515625 0.355469 "/>
<path style=" stroke:none;fill-rule:nonzero;fill:rgb(9.803922%,52.156863%,58.823529%);fill-opacity:1;" d="M 18.441406 0.714844 C 18.882812 0.714844 19.242188 1.074219 19.242188 1.515625 L 19.242188 18.417969 C 19.242188 18.859375 18.882812 19.214844 18.441406 19.21875 L 1.515625 19.21875 C 1.300781 19.222656 1.09375 19.140625 0.9375 18.988281 C 0.785156 18.839844 0.699219 18.632812 0.699219 18.417969 L 0.699219 1.515625 C 0.699219 1.300781 0.785156 1.09375 0.9375 0.945312 C 1.09375 0.792969 1.300781 0.710938 1.515625 0.714844 L 18.441406 0.714844 M 18.441406 0 L 1.515625 0 C 1.109375 -0.00390625 0.722656 0.152344 0.433594 0.4375 C 0.148438 0.722656 -0.015625 1.109375 -0.015625 1.515625 L -0.015625 18.417969 C -0.015625 19.253906 0.664062 19.933594 1.5 19.933594 L 18.429688 19.933594 C 19.265625 19.933594 19.941406 19.253906 19.941406 18.417969 L 19.941406 1.515625 C 19.941406 0.683594 19.273438 0.0078125 18.441406 0 Z M 18.441406 0 "/>
<path style=" stroke:none;fill-rule:nonzero;fill:rgb(9.803922%,52.156863%,58.823529%);fill-opacity:1;" d="M 8.347656 9.058594 C 7.675781 8.710938 6.988281 8.398438 6.28125 8.125 C 5.875 7.96875 5.496094 7.753906 5.148438 7.488281 C 4.839844 7.277344 4.671875 6.910156 4.726562 6.535156 C 4.777344 6.164062 5.035156 5.851562 5.394531 5.734375 C 5.613281 5.648438 5.847656 5.601562 6.085938 5.59375 C 6.984375 5.542969 7.882812 5.71875 8.691406 6.109375 C 9.105469 6.308594 9.238281 6.246094 9.382812 5.816406 C 9.523438 5.390625 9.648438 4.902344 9.785156 4.445312 C 9.835938 4.320312 9.828125 4.179688 9.769531 4.058594 C 9.710938 3.9375 9.605469 3.847656 9.476562 3.8125 C 8.953125 3.578125 8.40625 3.410156 7.84375 3.316406 C 7.097656 3.203125 7.097656 3.199219 7.09375 2.449219 C 7.09375 1.378906 7.09375 1.378906 6.019531 1.378906 L 5.558594 1.378906 C 5.0625 1.378906 4.980469 1.480469 4.964844 1.980469 C 4.964844 2.203125 4.964844 2.425781 4.964844 2.652344 C 4.964844 3.3125 4.964844 3.304688 4.324219 3.535156 C 2.789062 4.09375 1.84375 5.136719 1.738281 6.8125 C 1.648438 8.292969 2.425781 9.3125 3.640625 10.023438 C 4.40625 10.433594 5.199219 10.789062 6.015625 11.097656 C 6.324219 11.222656 6.617188 11.394531 6.878906 11.605469 C 7.238281 11.863281 7.425781 12.292969 7.363281 12.730469 C 7.304688 13.164062 7.011719 13.53125 6.597656 13.683594 C 6.117188 13.890625 5.589844 13.957031 5.070312 13.882812 C 4.261719 13.789062 3.472656 13.550781 2.746094 13.179688 C 2.316406 12.953125 2.191406 13.015625 2.03125 13.480469 C 1.90625 13.878906 1.796875 14.28125 1.675781 14.6875 C 1.523438 15.230469 1.578125 15.359375 2.101562 15.613281 C 2.761719 15.917969 3.46875 16.121094 4.1875 16.214844 C 4.753906 16.304688 4.769531 16.328125 4.777344 16.929688 C 4.777344 17.191406 4.777344 17.460938 4.777344 17.726562 C 4.757812 17.867188 4.804688 18.011719 4.902344 18.117188 C 5.003906 18.222656 5.144531 18.277344 5.289062 18.265625 C 5.679688 18.265625 6.070312 18.265625 6.464844 18.265625 C 6.601562 18.277344 6.734375 18.226562 6.828125 18.128906 C 6.921875 18.027344 6.964844 17.890625 6.945312 17.757812 C 6.945312 17.398438 6.964844 17.042969 6.945312 16.667969 C 6.921875 16.507812 6.96875 16.34375 7.070312 16.21875 C 7.171875 16.09375 7.324219 16.015625 7.484375 16.007812 C 8.292969 15.796875 9.007812 15.335938 9.535156 14.6875 C 11.027344 12.878906 10.460938 10.226562 8.351562 9.058594 Z M 8.347656 9.058594 "/>
<path style=" stroke:none;fill-rule:nonzero;fill:rgb(9.803922%,52.156863%,58.823529%);fill-opacity:1;" d="M 18.535156 8.003906 L 13.621094 4.769531 C 13.558594 4.699219 13.464844 4.65625 13.371094 4.65625 C 13.277344 4.65625 13.1875 4.699219 13.121094 4.769531 C 13.054688 4.839844 13.015625 4.9375 13.019531 5.035156 L 13.019531 6.75 L 10.230469 6.75 C 10.132812 6.75 10.042969 6.789062 9.980469 6.859375 C 9.910156 6.933594 9.875 7.03125 9.875 7.128906 L 9.875 8.78125 C 9.875 8.882812 9.910156 8.976562 9.980469 9.050781 C 10.042969 9.121094 10.132812 9.160156 10.230469 9.160156 L 13.019531 9.160156 L 13.019531 10.875 C 13.011719 10.976562 13.050781 11.070312 13.121094 11.144531 C 13.1875 11.214844 13.277344 11.253906 13.371094 11.253906 C 13.464844 11.253906 13.558594 11.214844 13.621094 11.144531 L 18.535156 8.535156 C 18.675781 8.382812 18.675781 8.152344 18.535156 8 Z M 18.535156 8.003906 "/>
</g>
</svg>
