<?xml version="1.0" encoding="UTF-8"?>
<svg xmlns="http://www.w3.org/2000/svg" xmlns:xlink="http://www.w3.org/1999/xlink" width="20px" height="20px" viewBox="0 0 20 20" version="1.1">
<g id="surface1">
<path style=" stroke:none;fill-rule:nonzero;fill:rgb(100%,100%,100%);fill-opacity:1;" d="M 1.515625 0.355469 L 18.441406 0.355469 C 19.082031 0.355469 19.601562 0.875 19.601562 1.515625 L 19.601562 18.417969 C 19.601562 19.058594 19.082031 19.574219 18.441406 19.574219 L 1.515625 19.574219 C 0.875 19.574219 0.355469 19.058594 0.355469 18.417969 L 0.355469 1.515625 C 0.355469 0.875 0.875 0.355469 1.515625 0.355469 Z M 1.515625 0.355469 "/>
<path style=" stroke:none;fill-rule:nonzero;fill:rgb(9.803922%,52.156863%,58.823529%);fill-opacity:1;" d="M 18.441406 0.714844 C 18.882812 0.714844 19.242188 1.074219 19.242188 1.515625 L 19.242188 18.417969 C 19.242188 18.859375 18.882812 19.214844 18.441406 19.21875 L 1.515625 19.21875 C 1.300781 19.222656 1.09375 19.140625 0.9375 18.988281 C 0.785156 18.839844 0.699219 18.632812 0.699219 18.417969 L 0.699219 1.515625 C 0.699219 1.300781 0.785156 1.09375 0.9375 0.945312 C 1.09375 0.792969 1.300781 0.710938 1.515625 0.714844 L 18.441406 0.714844 M 18.441406 0 L 1.515625 0 C 1.109375 -0.00390625 0.722656 0.152344 0.433594 0.4375 C 0.148438 0.722656 -0.015625 1.109375 -0.015625 1.515625 L -0.015625 18.417969 C -0.015625 19.253906 0.664062 19.933594 1.5 19.933594 L 18.429688 19.933594 C 19.265625 19.933594 19.941406 19.253906 19.941406 18.417969 L 19.941406 1.515625 C 19.941406 0.683594 19.273438 0.0078125 18.441406 0 Z M 18.441406 0 "/>
<path style=" stroke:none;fill-rule:nonzero;fill:rgb(9.803922%,52.156863%,58.823529%);fill-opacity:1;" d="M 13.695312 2.644531 C 13.488281 2.539062 13.242188 2.519531 13.019531 2.59375 C 12.796875 2.667969 12.609375 2.824219 12.503906 3.035156 L 5.910156 16.003906 C 5.742188 16.289062 5.746094 16.640625 5.921875 16.921875 C 6.09375 17.199219 6.410156 17.359375 6.738281 17.335938 C 7.066406 17.3125 7.355469 17.109375 7.484375 16.808594 L 14.085938 3.839844 C 14.304688 3.402344 14.132812 2.867188 13.695312 2.644531 Z M 13.695312 2.644531 "/>
<path style=" stroke:none;fill-rule:nonzero;fill:rgb(9.803922%,52.156863%,58.823529%);fill-opacity:1;" d="M 8.960938 6.917969 C 8.960938 5.058594 7.457031 3.550781 5.597656 3.550781 C 3.738281 3.550781 2.230469 5.054688 2.230469 6.914062 C 2.234375 8.773438 3.742188 10.28125 5.601562 10.277344 C 7.453125 10.273438 8.957031 8.773438 8.960938 6.917969 Z M 5.601562 8.507812 C 4.722656 8.507812 4.011719 7.796875 4.011719 6.917969 C 4.011719 6.039062 4.722656 5.328125 5.601562 5.328125 C 6.476562 5.328125 7.1875 6.039062 7.1875 6.917969 C 7.1875 7.796875 6.476562 8.507812 5.601562 8.507812 Z M 5.601562 8.507812 "/>
<path style=" stroke:none;fill-rule:nonzero;fill:rgb(9.803922%,52.156863%,58.823529%);fill-opacity:1;" d="M 14.4375 9.5625 C 12.578125 9.5625 11.070312 11.070312 11.070312 12.929688 C 11.070312 14.789062 12.578125 16.292969 14.4375 16.292969 C 16.296875 16.292969 17.800781 14.785156 17.800781 12.925781 C 17.796875 11.066406 16.292969 9.5625 14.4375 9.5625 Z M 14.4375 14.515625 C 13.558594 14.515625 12.847656 13.804688 12.847656 12.925781 C 12.847656 12.046875 13.558594 11.335938 14.4375 11.335938 C 15.3125 11.335938 16.023438 12.046875 16.023438 12.925781 C 16.023438 13.804688 15.3125 14.515625 14.4375 14.515625 Z M 14.4375 14.515625 "/>
</g>
</svg>
