<?xml version="1.0" encoding="UTF-8"?>
<svg xmlns="http://www.w3.org/2000/svg" xmlns:xlink="http://www.w3.org/1999/xlink" width="20px" height="20px" viewBox="0 0 20 20" version="1.1">
<g id="surface1">
<path style=" stroke:none;fill-rule:nonzero;fill:rgb(100%,100%,100%);fill-opacity:1;" d="M 1.515625 0.355469 L 18.441406 0.355469 C 19.082031 0.355469 19.601562 0.875 19.601562 1.515625 L 19.601562 18.417969 C 19.601562 19.058594 19.082031 19.574219 18.441406 19.574219 L 1.515625 19.574219 C 0.875 19.574219 0.355469 19.058594 0.355469 18.417969 L 0.355469 1.515625 C 0.355469 0.875 0.875 0.355469 1.515625 0.355469 Z M 1.515625 0.355469 "/>
<path style=" stroke:none;fill-rule:nonzero;fill:rgb(9.803922%,52.156863%,58.823529%);fill-opacity:1;" d="M 18.441406 0.714844 C 18.882812 0.714844 19.242188 1.074219 19.242188 1.515625 L 19.242188 18.417969 C 19.242188 18.859375 18.882812 19.214844 18.441406 19.21875 L 1.515625 19.21875 C 1.300781 19.222656 1.09375 19.140625 0.9375 18.988281 C 0.785156 18.839844 0.699219 18.632812 0.699219 18.417969 L 0.699219 1.515625 C 0.699219 1.300781 0.785156 1.09375 0.9375 0.945312 C 1.09375 0.792969 1.300781 0.710938 1.515625 0.714844 L 18.441406 0.714844 M 18.441406 0 L 1.515625 0 C 1.109375 -0.00390625 0.722656 0.152344 0.433594 0.4375 C 0.148438 0.722656 -0.015625 1.109375 -0.015625 1.515625 L -0.015625 18.417969 C -0.015625 19.253906 0.664062 19.933594 1.5 19.933594 L 18.429688 19.933594 C 19.265625 19.933594 19.941406 19.253906 19.941406 18.417969 L 19.941406 1.515625 C 19.941406 0.683594 19.273438 0.0078125 18.441406 0 Z M 18.441406 0 "/>
<path style=" stroke:none;fill-rule:nonzero;fill:rgb(9.803922%,52.156863%,58.823529%);fill-opacity:1;" d="M 9.820312 7.5625 C 9.75 7.636719 9.714844 7.734375 9.714844 7.835938 C 9.710938 7.9375 9.75 8.035156 9.820312 8.105469 L 14.820312 10.761719 C 14.886719 10.828125 14.980469 10.867188 15.078125 10.867188 C 15.171875 10.867188 15.265625 10.828125 15.332031 10.761719 C 15.402344 10.6875 15.441406 10.585938 15.4375 10.484375 L 15.4375 8.742188 L 18.277344 8.742188 C 18.375 8.742188 18.46875 8.703125 18.53125 8.628906 C 18.601562 8.554688 18.640625 8.457031 18.640625 8.355469 L 18.640625 6.671875 C 18.640625 6.570312 18.601562 6.472656 18.53125 6.398438 C 18.46875 6.324219 18.375 6.28125 18.277344 6.28125 L 15.441406 6.28125 L 15.441406 4.539062 C 15.445312 4.4375 15.40625 4.339844 15.335938 4.269531 C 15.273438 4.191406 15.179688 4.148438 15.082031 4.148438 C 14.980469 4.148438 14.890625 4.191406 14.824219 4.269531 L 9.824219 7.5625 Z M 9.820312 7.5625 "/>
<path style=" stroke:none;fill-rule:nonzero;fill:rgb(9.803922%,52.156863%,58.823529%);fill-opacity:1;" d="M 8.273438 9.113281 C 7.59375 8.765625 6.890625 8.453125 6.175781 8.179688 C 5.761719 8.015625 5.371094 7.800781 5.019531 7.53125 C 4.703125 7.316406 4.535156 6.941406 4.589844 6.5625 C 4.644531 6.183594 4.90625 5.867188 5.269531 5.746094 C 5.496094 5.65625 5.738281 5.609375 5.980469 5.605469 C 6.898438 5.546875 7.8125 5.730469 8.640625 6.128906 C 9.058594 6.332031 9.195312 6.269531 9.335938 5.828125 C 9.476562 5.390625 9.609375 4.898438 9.75 4.4375 C 9.800781 4.308594 9.796875 4.164062 9.734375 4.039062 C 9.675781 3.914062 9.566406 3.824219 9.433594 3.785156 C 8.898438 3.546875 8.335938 3.375 7.757812 3.28125 C 6.996094 3.167969 6.996094 3.164062 6.992188 2.398438 C 6.992188 1.328125 6.992188 1.328125 5.921875 1.328125 L 5.4375 1.328125 C 4.929688 1.328125 4.847656 1.433594 4.832031 1.9375 C 4.832031 2.167969 4.832031 2.394531 4.832031 2.625 C 4.832031 3.300781 4.832031 3.289062 4.179688 3.523438 C 2.613281 4.09375 1.648438 5.15625 1.546875 6.863281 C 1.453125 8.371094 2.242188 9.394531 3.480469 10.132812 C 4.265625 10.546875 5.070312 10.910156 5.898438 11.222656 C 6.210938 11.34375 6.503906 11.511719 6.769531 11.714844 C 7.132812 11.976562 7.324219 12.417969 7.261719 12.859375 C 7.203125 13.304688 6.902344 13.675781 6.480469 13.832031 C 5.992188 14.039062 5.453125 14.109375 4.929688 14.03125 C 4.105469 13.9375 3.304688 13.695312 2.5625 13.316406 C 2.128906 13.09375 2 13.152344 1.851562 13.625 C 1.726562 14.03125 1.609375 14.445312 1.492188 14.855469 C 1.339844 15.410156 1.394531 15.542969 1.925781 15.800781 C 2.605469 16.109375 3.328125 16.316406 4.066406 16.414062 C 4.644531 16.503906 4.660156 16.527344 4.667969 17.128906 C 4.667969 17.398438 4.667969 17.675781 4.667969 17.941406 C 4.648438 18.089844 4.695312 18.234375 4.796875 18.339844 C 4.894531 18.445312 5.039062 18.5 5.1875 18.488281 C 5.582031 18.488281 5.984375 18.488281 6.382812 18.488281 C 6.519531 18.503906 6.65625 18.453125 6.753906 18.351562 C 6.847656 18.25 6.894531 18.113281 6.875 17.976562 C 6.875 17.617188 6.894531 17.230469 6.875 16.863281 C 6.851562 16.707031 6.894531 16.546875 6.988281 16.421875 C 7.085938 16.296875 7.226562 16.214844 7.386719 16.195312 C 8.207031 15.980469 8.9375 15.511719 9.476562 14.855469 C 10.996094 13.007812 10.417969 10.304688 8.265625 9.113281 Z M 8.273438 9.113281 "/>
</g>
</svg>
