<?xml version="1.0" encoding="UTF-8"?><svg xmlns="http://www.w3.org/2000/svg" width="20px" height="20px" viewBox="0 0 56.17 56.53"><defs><style>.c{fill:#198596;}.d{fill:none;}</style></defs><g id="a"><rect class="d" x=".04" y=".29" width="55.88" height="55.95"/></g><g id="b"><path class="c" d="M38.43,2.82c-3.13,0-5.88,1.55-7.56,3.92-.55-.11-1.13-.17-1.71-.17-1.59,0-3.09,.41-4.39,1.13-1.63-1.43-3.76-2.3-6.1-2.3-5.12,0-9.28,4.15-9.28,9.28,0,3.86,2.36,7.17,5.71,8.56,.9,4.09,4.54,7.16,8.9,7.16,4.05,0,7.47-2.64,8.67-6.29,1.51-.63,2.81-1.66,3.78-2.96,.64,.14,1.3,.22,1.99,.22,5.12,0,9.28-4.15,9.28-9.28s-4.15-9.28-9.28-9.28Z"/><circle class="c" cx="8.67" cy="52.5" r="3.69"/><circle class="c" cx="17.88" cy="50.6" r="2.15"/><circle class="c" cx="28.2" cy="3.31" r="2.15"/><circle class="c" cx="49.27" cy="23.95" r="2.15"/><circle class="c" cx="13" cy="29.11" r="2.15"/><circle class="c" cx="10.42" cy="43.72" r="2.15"/><circle class="c" cx="24.6" cy="42.86" r="2.15"/><path class="c" d="M39.99,25.17c-3.89,0-7.1,2.83-7.71,6.55-.26-.06-.54-.1-.82-.1-2.04,0-3.69,1.65-3.69,3.69s1.65,3.69,3.69,3.69c.97,0,1.85-.38,2.51-1,1.44,1.73,3.6,2.83,6.03,2.83,4.32,0,7.83-3.5,7.83-7.83s-3.51-7.83-7.83-7.83Z"/><circle class="c" cx="18.31" cy="36.41" r="4.3"/></g></svg>