<?xml version="1.0" encoding="UTF-8"?>
<svg xmlns="http://www.w3.org/2000/svg" xmlns:xlink="http://www.w3.org/1999/xlink" width="20px" height="20px" viewBox="0 0 20 20" version="1.1">
<g id="surface1">
<path style=" stroke:none;fill-rule:nonzero;fill:rgb(80%,20%,80%);fill-opacity:1;" d="M 12.515625 7.847656 L 7.484375 7.847656 C 7.054688 7.847656 6.707031 8.199219 6.710938 8.628906 L 6.710938 13.480469 C 6.71875 13.902344 7.0625 14.246094 7.484375 14.25 C 7.71875 14.246094 7.9375 14.140625 8.082031 13.957031 L 8.390625 18.683594 C 8.414062 19.101562 8.769531 19.425781 9.1875 19.417969 L 10.785156 19.417969 C 11.207031 19.421875 11.558594 19.09375 11.585938 18.675781 L 11.890625 13.941406 C 12.03125 14.132812 12.25 14.246094 12.484375 14.25 C 12.914062 14.242188 13.253906 13.894531 13.257812 13.46875 L 13.273438 8.625 C 13.277344 8.195312 12.933594 7.84375 12.503906 7.835938 Z M 12.515625 7.847656 "/>
<path style=" stroke:none;fill-rule:nonzero;fill:rgb(80%,20%,80%);fill-opacity:1;" d="M 12.128906 5.183594 C 12.128906 6.367188 11.167969 7.324219 9.984375 7.324219 C 8.800781 7.324219 7.84375 6.367188 7.84375 5.183594 C 7.84375 4 8.800781 3.039062 9.984375 3.039062 C 11.167969 3.039062 12.128906 4 12.128906 5.183594 Z M 12.128906 5.183594 "/>
<path style=" stroke:none;fill-rule:nonzero;fill:rgb(80%,20%,80%);fill-opacity:1;" d="M 5.230469 4.335938 L 1.269531 4.335938 C 1.101562 4.335938 0.945312 4.402344 0.832031 4.523438 C 0.714844 4.640625 0.652344 4.800781 0.65625 4.964844 L 0.65625 8.777344 C 0.65625 9.113281 0.929688 9.390625 1.265625 9.394531 C 1.449219 9.390625 1.621094 9.304688 1.730469 9.160156 L 1.992188 12.855469 C 2.015625 13.1875 2.292969 13.441406 2.621094 13.4375 L 3.875 13.4375 C 4.207031 13.4375 4.480469 13.183594 4.503906 12.855469 L 4.742188 9.136719 C 4.855469 9.285156 5.027344 9.375 5.214844 9.378906 C 5.550781 9.371094 5.820312 9.097656 5.820312 8.761719 L 5.820312 4.953125 C 5.820312 4.617188 5.550781 4.339844 5.214844 4.335938 Z M 5.230469 4.335938 "/>
<path style=" stroke:none;fill-rule:nonzero;fill:rgb(80%,20%,80%);fill-opacity:1;" d="M 4.933594 2.246094 C 4.933594 3.175781 4.175781 3.933594 3.246094 3.933594 C 2.316406 3.933594 1.5625 3.175781 1.5625 2.246094 C 1.5625 1.316406 2.316406 0.5625 3.246094 0.5625 C 4.175781 0.5625 4.933594 1.316406 4.933594 2.246094 Z M 4.933594 2.246094 "/>
<path style=" stroke:none;fill-rule:nonzero;fill:rgb(80%,20%,80%);fill-opacity:1;" d="M 14.753906 4.335938 L 18.714844 4.335938 C 18.878906 4.335938 19.035156 4.40625 19.148438 4.523438 C 19.261719 4.640625 19.324219 4.800781 19.320312 4.964844 L 19.320312 8.777344 C 19.320312 9.113281 19.050781 9.390625 18.714844 9.394531 C 18.53125 9.390625 18.359375 9.304688 18.246094 9.160156 L 17.988281 12.855469 C 17.964844 13.1875 17.691406 13.441406 17.359375 13.4375 L 16.105469 13.4375 C 15.777344 13.4375 15.5 13.183594 15.480469 12.855469 L 15.238281 9.136719 C 15.128906 9.285156 14.953125 9.375 14.769531 9.378906 C 14.429688 9.371094 14.164062 9.097656 14.160156 8.761719 L 14.160156 4.953125 C 14.164062 4.617188 14.433594 4.339844 14.769531 4.335938 Z M 14.753906 4.335938 "/>
<path style=" stroke:none;fill-rule:nonzero;fill:rgb(80%,20%,80%);fill-opacity:1;" d="M 18.417969 2.246094 C 18.417969 3.175781 17.664062 3.933594 16.730469 3.933594 C 15.800781 3.933594 15.046875 3.175781 15.046875 2.246094 C 15.046875 1.316406 15.800781 0.5625 16.730469 0.5625 C 17.664062 0.5625 18.417969 1.316406 18.417969 2.246094 Z M 18.417969 2.246094 "/>
</g>
</svg>
