<?xml version="1.0" encoding="UTF-8"?>
<svg xmlns="http://www.w3.org/2000/svg" xmlns:xlink="http://www.w3.org/1999/xlink" width="20px" height="20px" viewBox="0 0 20 20" version="1.1">
<g id="surface1">
<path style=" stroke:none;fill-rule:nonzero;fill:rgb(100%,100%,100%);fill-opacity:1;" d="M 1.515625 0.355469 L 18.441406 0.355469 C 19.082031 0.355469 19.601562 0.875 19.601562 1.515625 L 19.601562 18.417969 C 19.601562 19.058594 19.082031 19.574219 18.441406 19.574219 L 1.515625 19.574219 C 0.875 19.574219 0.355469 19.058594 0.355469 18.417969 L 0.355469 1.515625 C 0.355469 0.875 0.875 0.355469 1.515625 0.355469 Z M 1.515625 0.355469 "/>
<path style=" stroke:none;fill-rule:nonzero;fill:rgb(9.803922%,52.156863%,58.823529%);fill-opacity:1;" d="M 18.441406 0.714844 C 18.882812 0.714844 19.242188 1.074219 19.242188 1.515625 L 19.242188 18.417969 C 19.242188 18.859375 18.882812 19.214844 18.441406 19.21875 L 1.515625 19.21875 C 1.300781 19.222656 1.09375 19.140625 0.9375 18.988281 C 0.785156 18.839844 0.699219 18.632812 0.699219 18.417969 L 0.699219 1.515625 C 0.699219 1.300781 0.785156 1.09375 0.9375 0.945312 C 1.09375 0.792969 1.300781 0.710938 1.515625 0.714844 L 18.441406 0.714844 M 18.441406 0 L 1.515625 0 C 1.109375 -0.00390625 0.722656 0.152344 0.433594 0.4375 C 0.148438 0.722656 -0.015625 1.109375 -0.015625 1.515625 L -0.015625 18.417969 C -0.015625 19.253906 0.664062 19.933594 1.5 19.933594 L 18.429688 19.933594 C 19.265625 19.933594 19.941406 19.253906 19.941406 18.417969 L 19.941406 1.515625 C 19.941406 0.683594 19.273438 0.0078125 18.441406 0 Z M 18.441406 0 "/>
<path style=" stroke:none;fill-rule:nonzero;fill:rgb(9.803922%,52.156863%,58.823529%);fill-opacity:1;" d="M 6.480469 7.386719 L 6.480469 12.335938 C 6.484375 12.855469 6.90625 13.277344 7.429688 13.277344 L 7.785156 13.277344 L 7.785156 17.738281 C 7.785156 18.261719 8.210938 18.6875 8.730469 18.6875 L 11.269531 18.6875 C 11.789062 18.6875 12.214844 18.261719 12.214844 17.738281 L 12.214844 13.265625 L 12.570312 13.265625 C 13.09375 13.265625 13.519531 12.839844 13.519531 12.316406 L 13.519531 7.386719 C 13.515625 6.863281 13.09375 6.441406 12.570312 6.441406 L 7.429688 6.441406 C 7.175781 6.441406 6.9375 6.539062 6.757812 6.714844 C 6.582031 6.894531 6.480469 7.132812 6.480469 7.386719 Z M 6.480469 7.386719 "/>
<path style=" stroke:none;fill-rule:nonzero;fill:rgb(9.803922%,52.156863%,58.823529%);fill-opacity:1;" d="M 12.1875 3.464844 C 12.1875 4.671875 11.207031 5.652344 10 5.652344 C 8.792969 5.65625 7.8125 4.679688 7.808594 3.472656 C 7.804688 2.265625 8.777344 1.28125 9.984375 1.273438 C 10.570312 1.269531 11.128906 1.5 11.542969 1.910156 C 11.953125 2.324219 12.1875 2.882812 12.1875 3.464844 Z M 12.1875 3.464844 "/>
</g>
</svg>
