<?xml version="1.0" encoding="UTF-8"?>
<svg xmlns="http://www.w3.org/2000/svg" xmlns:xlink="http://www.w3.org/1999/xlink" width="20px" height="20px" viewBox="0 0 20 20" version="1.1">
<g id="surface1">
<path style=" stroke:none;fill-rule:nonzero;fill:rgb(100%,100%,100%);fill-opacity:1;" d="M 1.515625 0.355469 L 18.441406 0.355469 C 19.082031 0.355469 19.601562 0.875 19.601562 1.515625 L 19.601562 18.417969 C 19.601562 19.058594 19.082031 19.574219 18.441406 19.574219 L 1.515625 19.574219 C 0.875 19.574219 0.355469 19.058594 0.355469 18.417969 L 0.355469 1.515625 C 0.355469 0.875 0.875 0.355469 1.515625 0.355469 Z M 1.515625 0.355469 "/>
<path style=" stroke:none;fill-rule:nonzero;fill:rgb(9.803922%,52.156863%,58.823529%);fill-opacity:1;" d="M 18.441406 0.714844 C 18.882812 0.714844 19.242188 1.074219 19.242188 1.515625 L 19.242188 18.417969 C 19.242188 18.859375 18.882812 19.214844 18.441406 19.21875 L 1.515625 19.21875 C 1.300781 19.222656 1.09375 19.140625 0.9375 18.988281 C 0.785156 18.839844 0.699219 18.632812 0.699219 18.417969 L 0.699219 1.515625 C 0.699219 1.300781 0.785156 1.09375 0.9375 0.945312 C 1.09375 0.792969 1.300781 0.710938 1.515625 0.714844 L 18.441406 0.714844 M 18.441406 0 L 1.515625 0 C 1.109375 -0.00390625 0.722656 0.152344 0.433594 0.4375 C 0.148438 0.722656 -0.015625 1.109375 -0.015625 1.515625 L -0.015625 18.417969 C -0.015625 19.253906 0.664062 19.933594 1.5 19.933594 L 18.429688 19.933594 C 19.265625 19.933594 19.941406 19.253906 19.941406 18.417969 L 19.941406 1.515625 C 19.941406 0.683594 19.273438 0.0078125 18.441406 0 Z M 18.441406 0 "/>
<path style=" stroke:none;fill-rule:nonzero;fill:rgb(9.803922%,52.156863%,58.823529%);fill-opacity:1;" d="M 8.03125 4.628906 C 4.308594 4.628906 1.292969 7.644531 1.292969 11.367188 C 1.292969 15.089844 4.308594 18.105469 8.03125 18.105469 C 11.753906 18.105469 14.769531 15.089844 14.769531 11.367188 C 14.769531 7.644531 11.753906 4.628906 8.03125 4.628906 Z M 8.03125 17.1875 C 4.816406 17.1875 2.210938 14.578125 2.210938 11.363281 C 2.210938 8.148438 4.816406 5.542969 8.03125 5.542969 C 11.246094 5.542969 13.855469 8.148438 13.855469 11.363281 C 13.855469 12.910156 13.242188 14.390625 12.148438 15.484375 C 11.054688 16.574219 9.574219 17.1875 8.027344 17.1875 Z M 8.03125 17.1875 "/>
<path style=" stroke:none;fill-rule:nonzero;fill:rgb(9.803922%,52.156863%,58.823529%);fill-opacity:1;" d="M 16.710938 6.699219 L 16.210938 6.09375 C 16.1875 6.066406 16.15625 6.046875 16.121094 6.042969 C 16.085938 6.039062 16.046875 6.050781 16.019531 6.074219 C 14.933594 7.058594 10.34375 13.078125 9.917969 14.144531 C 9.894531 14.214844 9.917969 14.230469 9.984375 14.175781 L 16.703125 6.90625 C 16.757812 6.847656 16.757812 6.761719 16.710938 6.699219 Z M 9.3125 13.796875 C 9.328125 13.871094 9.375 13.878906 9.417969 13.816406 L 14.941406 5.5625 C 14.964844 5.535156 14.972656 5.5 14.960938 5.464844 C 14.953125 5.429688 14.929688 5.40625 14.894531 5.394531 L 14.085938 5.035156 C 14.015625 5.003906 13.933594 5.03125 13.894531 5.101562 C 12.328125 7.894531 10.777344 10.65625 9.253906 13.421875 C 9.207031 13.480469 9.269531 13.59375 9.3125 13.796875 Z M 15.445312 2.640625 C 15.417969 2.621094 15.378906 2.613281 15.34375 2.621094 C 15.3125 2.632812 15.28125 2.65625 15.265625 2.6875 L 14.789062 3.503906 C 14.238281 4.476562 14.21875 4.511719 15.21875 4.914062 C 15.289062 4.941406 15.371094 4.914062 15.417969 4.855469 L 16.414062 3.382812 C 16.453125 3.320312 16.4375 3.238281 16.375 3.195312 Z M 17.457031 4.171875 C 16.242188 5.34375 16.207031 5.53125 17.164062 6.214844 C 17.230469 6.253906 17.3125 6.246094 17.367188 6.191406 L 18.4375 5.039062 C 18.464844 5.015625 18.480469 4.980469 18.480469 4.945312 C 18.480469 4.910156 18.464844 4.875 18.4375 4.851562 L 17.675781 4.167969 C 17.644531 4.140625 17.605469 4.125 17.566406 4.125 C 17.523438 4.125 17.484375 4.140625 17.457031 4.171875 Z M 17.457031 4.171875 "/>
</g>
</svg>
