<?xml version="1.0" encoding="UTF-8"?>
<svg xmlns="http://www.w3.org/2000/svg" xmlns:xlink="http://www.w3.org/1999/xlink" width="20px" height="20px" viewBox="0 0 20 20" version="1.1">
<g id="surface1">
<path style=" stroke:none;fill-rule:nonzero;fill:rgb(9.803922%,52.156863%,58.823529%);fill-opacity:1;" d="M 9.984375 0.566406 C 4.800781 0.5625 0.59375 4.765625 0.589844 9.949219 C 0.585938 15.136719 4.785156 19.34375 9.972656 19.347656 C 15.15625 19.351562 19.363281 15.148438 19.367188 9.964844 C 19.371094 4.777344 15.171875 0.570312 9.984375 0.566406 Z M 9.984375 18.066406 C 5.503906 18.074219 1.863281 14.445312 1.859375 9.964844 C 1.855469 5.480469 5.488281 1.847656 9.972656 1.847656 C 14.453125 1.847656 18.085938 5.480469 18.082031 9.964844 C 18.078125 14.433594 14.453125 18.054688 9.984375 18.0625 Z M 9.984375 18.066406 "/>
<path style=" stroke:none;fill-rule:nonzero;fill:rgb(9.803922%,52.156863%,58.823529%);fill-opacity:1;" d="M 9.984375 1.394531 C 5.296875 1.390625 1.492188 5.1875 1.492188 9.878906 C 1.492188 14.566406 5.292969 18.367188 9.984375 18.363281 C 14.671875 18.363281 18.46875 14.558594 18.464844 9.867188 C 18.457031 5.1875 14.664062 1.398438 9.984375 1.394531 Z M 9.984375 16.214844 C 6.597656 16.21875 3.847656 13.476562 3.84375 10.085938 C 3.839844 6.699219 6.582031 3.949219 9.96875 3.941406 C 13.355469 3.9375 16.109375 6.679688 16.113281 10.066406 C 16.113281 13.453125 13.371094 16.199219 9.984375 16.203125 Z M 9.984375 16.214844 "/>
<path style=" stroke:none;fill-rule:nonzero;fill:rgb(9.803922%,52.156863%,58.823529%);fill-opacity:1;" d="M 13.574219 9.921875 C 13.574219 11.90625 11.964844 13.519531 9.980469 13.519531 C 7.992188 13.519531 6.382812 11.90625 6.382812 9.921875 C 6.382812 7.933594 7.992188 6.324219 9.980469 6.324219 C 11.964844 6.324219 13.574219 7.933594 13.574219 9.921875 Z M 13.574219 9.921875 "/>
</g>
</svg>
