<?xml version="1.0" encoding="UTF-8"?>
<svg xmlns="http://www.w3.org/2000/svg" xmlns:xlink="http://www.w3.org/1999/xlink" width="20px" height="20px" viewBox="0 0 20 20" version="1.1">
<g id="surface1">
<path style=" stroke:none;fill-rule:nonzero;fill:rgb(9.803922%,52.156863%,58.823529%);fill-opacity:1;" d="M 18.113281 5.574219 C 17.734375 5.390625 17.332031 5.246094 16.933594 5.097656 C 16.703125 5.015625 16.484375 4.90625 16.285156 4.769531 C 16.109375 4.671875 16.011719 4.476562 16.039062 4.277344 C 16.070312 4.074219 16.21875 3.914062 16.414062 3.867188 C 16.542969 3.820312 16.675781 3.796875 16.8125 3.792969 C 17.324219 3.765625 17.832031 3.859375 18.304688 4.0625 C 18.539062 4.160156 18.617188 4.128906 18.695312 3.910156 C 18.773438 3.691406 18.851562 3.4375 18.929688 3.195312 C 18.980469 3.039062 18.929688 2.9375 18.75 2.867188 C 18.445312 2.75 18.128906 2.664062 17.808594 2.617188 C 17.382812 2.558594 17.382812 2.558594 17.378906 2.171875 C 17.378906 1.628906 17.378906 1.628906 16.769531 1.628906 L 16.507812 1.628906 C 16.226562 1.628906 16.179688 1.679688 16.167969 1.9375 C 16.167969 2.050781 16.167969 2.164062 16.167969 2.292969 C 16.167969 2.648438 16.167969 2.628906 15.8125 2.746094 C 14.933594 3.03125 14.382812 3.570312 14.332031 4.433594 C 14.28125 5.191406 14.726562 5.707031 15.402344 6.082031 C 15.847656 6.289062 16.304688 6.472656 16.769531 6.628906 C 16.945312 6.691406 17.113281 6.78125 17.265625 6.890625 C 17.472656 7.007812 17.585938 7.242188 17.546875 7.480469 C 17.511719 7.714844 17.335938 7.90625 17.105469 7.960938 C 16.828125 8.066406 16.527344 8.101562 16.230469 8.0625 C 15.773438 8.019531 15.324219 7.898438 14.902344 7.707031 C 14.65625 7.59375 14.585938 7.621094 14.503906 7.859375 C 14.421875 8.101562 14.367188 8.273438 14.304688 8.480469 C 14.21875 8.765625 14.25 8.839844 14.546875 8.960938 C 14.929688 9.113281 15.332031 9.21875 15.742188 9.269531 C 16.066406 9.3125 16.074219 9.328125 16.101562 9.625 C 16.101562 9.761719 16.101562 9.898438 16.101562 10.035156 C 16.101562 10.171875 16.191406 10.308594 16.390625 10.3125 C 16.585938 10.3125 16.839844 10.3125 17.0625 10.3125 C 17.28125 10.3125 17.339844 10.21875 17.339844 10.050781 C 17.339844 9.882812 17.339844 9.691406 17.339844 9.488281 C 17.339844 9.285156 17.421875 9.199219 17.625 9.132812 C 18.074219 9.03125 18.484375 8.796875 18.800781 8.457031 C 19.652344 7.523438 19.328125 6.160156 18.117188 5.558594 Z M 18.113281 5.574219 "/>
<path style=" stroke:none;fill-rule:nonzero;fill:rgb(9.803922%,52.156863%,58.823529%);fill-opacity:1;" d="M 7.71875 4.523438 C 3.851562 4.523438 0.71875 7.660156 0.71875 11.527344 C 0.71875 15.394531 3.855469 18.527344 7.71875 18.523438 C 11.585938 18.523438 14.71875 15.386719 14.71875 11.519531 C 14.71875 7.65625 11.582031 4.523438 7.71875 4.523438 Z M 7.71875 17.5625 C 4.378906 17.566406 1.667969 14.859375 1.667969 11.519531 C 1.667969 8.179688 4.375 5.472656 7.714844 5.472656 C 11.054688 5.472656 13.761719 8.179688 13.761719 11.519531 C 13.761719 14.855469 11.054688 17.5625 7.714844 17.5625 Z M 7.71875 17.5625 "/>
<path style=" stroke:none;fill-rule:nonzero;fill:rgb(9.803922%,52.156863%,58.823529%);fill-opacity:1;" d="M 7.71875 5.132812 C 4.226562 5.132812 1.394531 7.964844 1.394531 11.457031 C 1.394531 14.949219 4.226562 17.78125 7.71875 17.78125 C 11.210938 17.78125 14.042969 14.949219 14.042969 11.457031 C 14.042969 9.78125 13.378906 8.171875 12.191406 6.984375 C 11.003906 5.796875 9.394531 5.132812 7.71875 5.132812 Z M 7.71875 16.179688 C 5.191406 16.179688 3.140625 14.128906 3.144531 11.601562 C 3.144531 9.074219 5.191406 7.027344 7.71875 7.027344 C 10.246094 7.03125 12.292969 9.078125 12.292969 11.605469 C 12.292969 14.132812 10.242188 16.179688 7.71875 16.179688 Z M 7.71875 16.179688 "/>
<path style=" stroke:none;fill-rule:nonzero;fill:rgb(9.803922%,52.156863%,58.823529%);fill-opacity:1;" d="M 10.398438 11.496094 C 10.398438 12.976562 9.199219 14.175781 7.722656 14.175781 C 6.242188 14.175781 5.042969 12.976562 5.042969 11.496094 C 5.042969 10.015625 6.242188 8.816406 7.722656 8.816406 C 9.199219 8.816406 10.398438 10.015625 10.398438 11.496094 Z M 10.398438 11.496094 "/>
</g>
</svg>
