<?xml version="1.0" encoding="UTF-8"?>
<svg xmlns="http://www.w3.org/2000/svg" xmlns:xlink="http://www.w3.org/1999/xlink" width="20px" height="20px" viewBox="0 0 20 20" version="1.1">
<g id="surface1">
<path style=" stroke:none;fill-rule:nonzero;fill:rgb(100%,100%,100%);fill-opacity:1;" d="M 1.515625 0.355469 L 18.441406 0.355469 C 19.082031 0.355469 19.601562 0.875 19.601562 1.515625 L 19.601562 18.417969 C 19.601562 19.058594 19.082031 19.574219 18.441406 19.574219 L 1.515625 19.574219 C 0.875 19.574219 0.355469 19.058594 0.355469 18.417969 L 0.355469 1.515625 C 0.355469 0.875 0.875 0.355469 1.515625 0.355469 Z M 1.515625 0.355469 "/>
<path style=" stroke:none;fill-rule:nonzero;fill:rgb(9.803922%,52.156863%,58.823529%);fill-opacity:1;" d="M 18.441406 0.714844 C 18.882812 0.714844 19.242188 1.074219 19.242188 1.515625 L 19.242188 18.417969 C 19.242188 18.859375 18.882812 19.214844 18.441406 19.21875 L 1.515625 19.21875 C 1.300781 19.222656 1.09375 19.140625 0.9375 18.988281 C 0.785156 18.839844 0.699219 18.632812 0.699219 18.417969 L 0.699219 1.515625 C 0.699219 1.300781 0.785156 1.09375 0.9375 0.945312 C 1.09375 0.792969 1.300781 0.710938 1.515625 0.714844 L 18.441406 0.714844 M 18.441406 0 L 1.515625 0 C 1.109375 -0.00390625 0.722656 0.152344 0.433594 0.4375 C 0.148438 0.722656 -0.015625 1.109375 -0.015625 1.515625 L -0.015625 18.417969 C -0.015625 19.253906 0.664062 19.933594 1.5 19.933594 L 18.429688 19.933594 C 19.265625 19.933594 19.941406 19.253906 19.941406 18.417969 L 19.941406 1.515625 C 19.941406 0.683594 19.273438 0.0078125 18.441406 0 Z M 18.441406 0 "/>
<path style=" stroke:none;fill-rule:nonzero;fill:rgb(9.803922%,52.156863%,58.823529%);fill-opacity:1;" d="M 7.484375 9.25 C 6.945312 8.96875 6.386719 8.714844 5.816406 8.496094 C 5.488281 8.367188 5.179688 8.195312 4.898438 7.980469 C 4.640625 7.8125 4.503906 7.511719 4.542969 7.207031 C 4.585938 6.898438 4.800781 6.644531 5.097656 6.554688 C 5.273438 6.484375 5.464844 6.445312 5.65625 6.4375 C 6.386719 6.394531 7.113281 6.539062 7.769531 6.855469 C 8.105469 7.019531 8.210938 6.96875 8.324219 6.617188 C 8.4375 6.269531 8.542969 5.878906 8.652344 5.511719 C 8.695312 5.410156 8.691406 5.292969 8.640625 5.195312 C 8.59375 5.097656 8.503906 5.023438 8.398438 4.992188 C 7.972656 4.804688 7.523438 4.675781 7.0625 4.605469 C 6.457031 4.515625 6.457031 4.511719 6.457031 3.894531 C 6.457031 3.039062 6.457031 3.039062 5.59375 3.039062 C 5.472656 3.039062 5.347656 3.039062 5.234375 3.039062 C 4.835938 3.039062 4.769531 3.121094 4.757812 3.523438 C 4.757812 3.703125 4.757812 3.882812 4.757812 4.066406 C 4.757812 4.605469 4.757812 4.597656 4.238281 4.78125 C 2.980469 5.238281 2.210938 6.085938 2.128906 7.441406 C 2.058594 8.644531 2.683594 9.449219 3.667969 10.042969 C 4.289062 10.367188 4.933594 10.65625 5.589844 10.902344 C 5.84375 11.007812 6.085938 11.148438 6.304688 11.316406 C 6.589844 11.527344 6.738281 11.878906 6.6875 12.234375 C 6.636719 12.585938 6.394531 12.882812 6.058594 13 C 5.667969 13.164062 5.242188 13.222656 4.824219 13.160156 C 4.167969 13.089844 3.53125 12.898438 2.941406 12.597656 C 2.585938 12.417969 2.496094 12.464844 2.375 12.839844 C 2.253906 13.214844 2.1875 13.492188 2.09375 13.820312 C 1.972656 14.261719 2.019531 14.363281 2.449219 14.570312 C 2.988281 14.816406 3.558594 14.980469 4.144531 15.058594 C 4.601562 15.128906 4.613281 15.148438 4.617188 15.625 C 4.617188 15.839844 4.617188 16.058594 4.617188 16.269531 C 4.601562 16.386719 4.640625 16.503906 4.71875 16.585938 C 4.800781 16.671875 4.914062 16.714844 5.027344 16.703125 C 5.347656 16.703125 5.664062 16.703125 5.980469 16.703125 C 6.09375 16.714844 6.203125 16.675781 6.277344 16.597656 C 6.355469 16.515625 6.390625 16.40625 6.375 16.296875 C 6.375 16.003906 6.375 15.707031 6.375 15.414062 C 6.355469 15.289062 6.386719 15.164062 6.460938 15.0625 C 6.535156 14.960938 6.648438 14.894531 6.769531 14.878906 C 7.425781 14.707031 8.007812 14.332031 8.4375 13.808594 C 9.003906 13.105469 9.230469 12.1875 9.042969 11.300781 C 8.859375 10.417969 8.289062 9.664062 7.484375 9.25 Z M 7.484375 9.25 "/>
<path style=" stroke:none;fill-rule:nonzero;fill:rgb(9.803922%,52.156863%,58.823529%);fill-opacity:1;" d="M 10.128906 7.3125 L 10.128906 12.191406 C 10.128906 12.707031 10.542969 13.121094 11.058594 13.125 L 11.414062 13.125 L 11.414062 17.523438 C 11.414062 18.039062 11.832031 18.457031 12.347656 18.457031 L 14.847656 18.457031 C 15.359375 18.457031 15.777344 18.039062 15.777344 17.523438 L 15.777344 13.109375 L 16.136719 13.109375 C 16.652344 13.109375 17.066406 12.691406 17.066406 12.175781 L 17.066406 7.3125 C 17.058594 6.804688 16.652344 6.402344 16.144531 6.394531 L 11.058594 6.394531 C 10.808594 6.390625 10.570312 6.488281 10.394531 6.664062 C 10.21875 6.839844 10.121094 7.082031 10.125 7.328125 Z M 10.128906 7.3125 "/>
<path style=" stroke:none;fill-rule:nonzero;fill:rgb(9.803922%,52.156863%,58.823529%);fill-opacity:1;" d="M 15.757812 3.4375 C 15.746094 4.617188 14.785156 5.566406 13.601562 5.5625 C 12.421875 5.554688 11.46875 4.59375 11.472656 3.410156 C 11.476562 2.230469 12.433594 1.273438 13.613281 1.273438 C 14.800781 1.285156 15.757812 2.25 15.757812 3.4375 Z M 15.757812 3.4375 "/>
</g>
</svg>
