<?xml version="1.0" encoding="UTF-8"?>
<svg xmlns="http://www.w3.org/2000/svg" xmlns:xlink="http://www.w3.org/1999/xlink" width="20px" height="20px" viewBox="0 0 20 20" version="1.1">
<g id="surface1">
<path style=" stroke:none;fill-rule:nonzero;fill:rgb(100%,100%,100%);fill-opacity:1;" d="M 1.515625 0.355469 L 18.441406 0.355469 C 19.082031 0.355469 19.601562 0.875 19.601562 1.515625 L 19.601562 18.417969 C 19.601562 19.058594 19.082031 19.574219 18.441406 19.574219 L 1.515625 19.574219 C 0.875 19.574219 0.355469 19.058594 0.355469 18.417969 L 0.355469 1.515625 C 0.355469 0.875 0.875 0.355469 1.515625 0.355469 Z M 1.515625 0.355469 "/>
<path style=" stroke:none;fill-rule:nonzero;fill:rgb(9.803922%,52.156863%,58.823529%);fill-opacity:1;" d="M 18.441406 0.714844 C 18.882812 0.714844 19.242188 1.074219 19.242188 1.515625 L 19.242188 18.417969 C 19.242188 18.859375 18.882812 19.214844 18.441406 19.21875 L 1.515625 19.21875 C 1.300781 19.222656 1.09375 19.140625 0.9375 18.988281 C 0.785156 18.839844 0.699219 18.632812 0.699219 18.417969 L 0.699219 1.515625 C 0.699219 1.300781 0.785156 1.09375 0.9375 0.945312 C 1.09375 0.792969 1.300781 0.710938 1.515625 0.714844 L 18.441406 0.714844 M 18.441406 0 L 1.515625 0 C 1.109375 -0.00390625 0.722656 0.152344 0.433594 0.4375 C 0.148438 0.722656 -0.015625 1.109375 -0.015625 1.515625 L -0.015625 18.417969 C -0.015625 19.253906 0.664062 19.933594 1.5 19.933594 L 18.429688 19.933594 C 19.265625 19.933594 19.941406 19.253906 19.941406 18.417969 L 19.941406 1.515625 C 19.941406 0.683594 19.273438 0.0078125 18.441406 0 Z M 18.441406 0 "/>
<path style="fill-rule:nonzero;fill:rgb(100%,100%,100%);fill-opacity:1;stroke-width:7;stroke-linecap:butt;stroke-linejoin:miter;stroke:rgb(9.803922%,52.156863%,58.823529%);stroke-opacity:1;stroke-miterlimit:10;" d="M 8.4 21.798437 L 30.854687 21.798437 L 30.854687 44.264062 L 8.4 44.264062 Z M 8.4 21.798437 " transform="matrix(0.357143,0,0,0.357143,0,0)"/>
<path style=" stroke:none;fill-rule:nonzero;fill:rgb(9.803922%,52.156863%,58.823529%);fill-opacity:1;" d="M 13.199219 6.769531 L 13.199219 10.320312 C 13.191406 10.503906 13.257812 10.683594 13.382812 10.820312 C 13.507812 10.953125 13.683594 11.03125 13.867188 11.035156 L 14.132812 11.035156 L 14.132812 14.25 C 14.132812 14.625 14.433594 14.929688 14.8125 14.933594 L 16.640625 14.933594 C 17.015625 14.929688 17.320312 14.625 17.320312 14.25 L 17.320312 11.035156 L 17.582031 11.035156 C 17.769531 11.035156 17.945312 10.957031 18.074219 10.824219 C 18.203125 10.6875 18.273438 10.507812 18.265625 10.320312 L 18.265625 6.75 C 18.261719 6.375 17.957031 6.070312 17.582031 6.066406 L 13.867188 6.066406 C 13.683594 6.070312 13.511719 6.144531 13.386719 6.277344 C 13.257812 6.410156 13.191406 6.589844 13.199219 6.769531 Z M 13.199219 6.769531 "/>
<path style=" stroke:none;fill-rule:nonzero;fill:rgb(9.803922%,52.156863%,58.823529%);fill-opacity:1;" d="M 17.296875 3.945312 C 17.296875 4.820312 16.589844 5.527344 15.714844 5.523438 C 14.84375 5.523438 14.136719 4.816406 14.140625 3.945312 C 14.140625 3.070312 14.847656 2.367188 15.722656 2.367188 C 16.140625 2.367188 16.542969 2.53125 16.835938 2.828125 C 17.132812 3.125 17.296875 3.527344 17.296875 3.945312 Z M 17.296875 3.945312 "/>
</g>
</svg>
