<?xml version="1.0" encoding="UTF-8"?>
<svg xmlns="http://www.w3.org/2000/svg" xmlns:xlink="http://www.w3.org/1999/xlink" width="20px" height="20px" viewBox="0 0 20 20" version="1.1">
<g id="surface1">
<path style=" stroke:none;fill-rule:nonzero;fill:rgb(100%,100%,100%);fill-opacity:1;" d="M 1.515625 0.355469 L 18.441406 0.355469 C 19.082031 0.355469 19.601562 0.875 19.601562 1.515625 L 19.601562 18.417969 C 19.601562 19.058594 19.082031 19.574219 18.441406 19.574219 L 1.515625 19.574219 C 0.875 19.574219 0.355469 19.058594 0.355469 18.417969 L 0.355469 1.515625 C 0.355469 0.875 0.875 0.355469 1.515625 0.355469 Z M 1.515625 0.355469 "/>
<path style=" stroke:none;fill-rule:nonzero;fill:rgb(9.803922%,52.156863%,58.823529%);fill-opacity:1;" d="M 18.441406 0.714844 C 18.882812 0.714844 19.242188 1.074219 19.242188 1.515625 L 19.242188 18.417969 C 19.242188 18.859375 18.882812 19.214844 18.441406 19.21875 L 1.515625 19.21875 C 1.300781 19.222656 1.09375 19.140625 0.9375 18.988281 C 0.785156 18.839844 0.699219 18.632812 0.699219 18.417969 L 0.699219 1.515625 C 0.699219 1.300781 0.785156 1.09375 0.9375 0.945312 C 1.09375 0.792969 1.300781 0.710938 1.515625 0.714844 L 18.441406 0.714844 M 18.441406 0 L 1.515625 0 C 1.109375 -0.00390625 0.722656 0.152344 0.433594 0.4375 C 0.148438 0.722656 -0.015625 1.109375 -0.015625 1.515625 L -0.015625 18.417969 C -0.015625 19.253906 0.664062 19.933594 1.5 19.933594 L 18.429688 19.933594 C 19.265625 19.933594 19.941406 19.253906 19.941406 18.417969 L 19.941406 1.515625 C 19.941406 0.683594 19.273438 0.0078125 18.441406 0 Z M 18.441406 0 "/>
<path style=" stroke:none;fill-rule:nonzero;fill:rgb(9.803922%,52.156863%,58.823529%);fill-opacity:1;" d="M 8.199219 4.476562 C 4.476562 4.476562 1.457031 7.492188 1.457031 11.21875 C 1.457031 14.941406 4.476562 17.960938 8.199219 17.960938 C 11.925781 17.960938 14.941406 14.941406 14.941406 11.21875 C 14.941406 7.492188 11.925781 4.476562 8.199219 4.476562 Z M 8.199219 17.039062 C 4.984375 17.042969 2.371094 14.433594 2.371094 11.214844 C 2.371094 8 4.976562 5.390625 8.195312 5.390625 C 11.414062 5.386719 14.019531 7.996094 14.019531 11.214844 C 14.019531 14.429688 11.414062 17.039062 8.199219 17.039062 Z M 8.199219 17.039062 "/>
<path style=" stroke:none;fill-rule:nonzero;fill:rgb(9.803922%,52.156863%,58.823529%);fill-opacity:1;" d="M 16.886719 6.550781 L 16.386719 5.941406 C 16.359375 5.917969 16.324219 5.902344 16.289062 5.902344 C 16.253906 5.902344 16.21875 5.917969 16.191406 5.941406 C 15.121094 6.921875 10.480469 12.945312 10.09375 14.011719 C 10.0625 14.082031 10.09375 14.101562 10.15625 14.042969 L 16.878906 6.75 C 16.929688 6.695312 16.929688 6.609375 16.886719 6.550781 Z M 9.480469 13.644531 C 9.5 13.722656 9.546875 13.730469 9.589844 13.667969 L 15.117188 5.40625 C 15.140625 5.378906 15.144531 5.34375 15.136719 5.308594 C 15.125 5.277344 15.101562 5.25 15.066406 5.238281 L 14.261719 4.882812 C 14.1875 4.855469 14.109375 4.882812 14.066406 4.945312 C 12.5 7.742188 10.949219 10.503906 9.425781 13.269531 C 9.378906 13.332031 9.429688 13.441406 9.480469 13.644531 Z M 15.621094 2.484375 C 15.589844 2.464844 15.554688 2.460938 15.519531 2.46875 C 15.484375 2.476562 15.457031 2.5 15.4375 2.53125 L 14.964844 3.351562 C 14.414062 4.320312 14.394531 4.359375 15.390625 4.761719 C 15.464844 4.789062 15.546875 4.761719 15.59375 4.699219 C 15.90625 4.226562 16.230469 3.742188 16.574219 3.230469 C 16.59375 3.199219 16.601562 3.164062 16.59375 3.128906 C 16.585938 3.09375 16.5625 3.0625 16.53125 3.046875 Z M 17.632812 4.019531 C 16.417969 5.191406 16.378906 5.378906 17.339844 6.0625 C 17.402344 6.101562 17.488281 6.09375 17.542969 6.039062 L 18.613281 4.886719 C 18.640625 4.859375 18.652344 4.828125 18.652344 4.792969 C 18.652344 4.753906 18.640625 4.722656 18.613281 4.695312 L 17.84375 4.015625 C 17.78125 3.957031 17.6875 3.960938 17.632812 4.019531 Z M 17.632812 4.019531 "/>
<path style=" stroke:none;fill-rule:nonzero;fill:rgb(9.803922%,52.156863%,58.823529%);fill-opacity:1;" d="M 8.199219 5.0625 C 4.835938 5.0625 2.109375 7.792969 2.109375 11.15625 C 2.113281 14.519531 4.839844 17.246094 8.203125 17.246094 C 11.570312 17.246094 14.296875 14.519531 14.296875 11.152344 C 14.296875 7.789062 11.566406 5.058594 8.199219 5.0625 Z M 8.199219 15.703125 C 5.765625 15.703125 3.792969 13.730469 3.792969 11.296875 C 3.792969 8.859375 5.769531 6.886719 8.203125 6.890625 C 10.636719 6.890625 12.609375 8.867188 12.605469 11.300781 C 12.605469 13.734375 10.632812 15.707031 8.199219 15.703125 Z M 8.199219 15.703125 "/>
<path style=" stroke:none;fill-rule:nonzero;fill:rgb(9.803922%,52.156863%,58.823529%);fill-opacity:1;" d="M 10.785156 11.191406 C 10.785156 12.617188 9.628906 13.773438 8.203125 13.773438 C 6.777344 13.773438 5.621094 12.617188 5.621094 11.191406 C 5.621094 9.765625 6.777344 8.609375 8.203125 8.609375 C 9.628906 8.609375 10.785156 9.765625 10.785156 11.191406 Z M 10.785156 11.191406 "/>
</g>
</svg>
