<?xml version="1.0" encoding="UTF-8"?>
<svg xmlns="http://www.w3.org/2000/svg" xmlns:xlink="http://www.w3.org/1999/xlink" width="20px" height="20px" viewBox="0 0 20 20" version="1.1">
<g id="surface1">
<path style=" stroke:none;fill-rule:nonzero;fill:rgb(100%,100%,100%);fill-opacity:1;" d="M 1.515625 0.355469 L 18.441406 0.355469 C 19.082031 0.355469 19.601562 0.875 19.601562 1.515625 L 19.601562 18.417969 C 19.601562 19.058594 19.082031 19.574219 18.441406 19.574219 L 1.515625 19.574219 C 0.875 19.574219 0.355469 19.058594 0.355469 18.417969 L 0.355469 1.515625 C 0.355469 0.875 0.875 0.355469 1.515625 0.355469 Z M 1.515625 0.355469 "/>
<path style=" stroke:none;fill-rule:nonzero;fill:rgb(9.803922%,52.156863%,58.823529%);fill-opacity:1;" d="M 18.441406 0.714844 C 18.882812 0.714844 19.242188 1.074219 19.242188 1.515625 L 19.242188 18.417969 C 19.242188 18.859375 18.882812 19.214844 18.441406 19.21875 L 1.515625 19.21875 C 1.300781 19.222656 1.09375 19.140625 0.9375 18.988281 C 0.785156 18.839844 0.699219 18.632812 0.699219 18.417969 L 0.699219 1.515625 C 0.699219 1.300781 0.785156 1.09375 0.9375 0.945312 C 1.09375 0.792969 1.300781 0.710938 1.515625 0.714844 L 18.441406 0.714844 M 18.441406 0 L 1.515625 0 C 1.109375 -0.00390625 0.722656 0.152344 0.433594 0.4375 C 0.148438 0.722656 -0.015625 1.109375 -0.015625 1.515625 L -0.015625 18.417969 C -0.015625 19.253906 0.664062 19.933594 1.5 19.933594 L 18.429688 19.933594 C 19.265625 19.933594 19.941406 19.253906 19.941406 18.417969 L 19.941406 1.515625 C 19.941406 0.683594 19.273438 0.0078125 18.441406 0 Z M 18.441406 0 "/>
<path style="fill-rule:nonzero;fill:rgb(100%,100%,100%);fill-opacity:1;stroke-width:3;stroke-linecap:butt;stroke-linejoin:miter;stroke:rgb(9.803922%,52.156863%,58.823529%);stroke-opacity:1;stroke-miterlimit:10;" d="M 7.032812 7.229687 L 48.639062 7.229687 L 48.639062 48.835938 L 7.032812 48.835938 Z M 7.032812 7.229687 " transform="matrix(0.357143,0,0,0.357143,0,0)"/>
<path style=" stroke:none;fill-rule:nonzero;fill:rgb(9.803922%,52.156863%,58.823529%);fill-opacity:1;" d="M 14.710938 13.207031 C 14.851562 12.960938 14.925781 12.683594 14.925781 12.398438 C 14.925781 11.515625 14.214844 10.796875 13.328125 10.785156 C 13.417969 10.566406 13.46875 10.332031 13.480469 10.09375 C 13.480469 7.875 11.972656 7.457031 11.289062 7.382812 C 11.238281 7.375 11.1875 7.398438 11.15625 7.441406 C 11.128906 7.484375 11.128906 7.539062 11.152344 7.585938 C 11.234375 7.730469 11.25 7.898438 11.203125 8.058594 C 11.0625 8.550781 10.53125 8.480469 10.273438 8.480469 L 8.355469 8.480469 C 7.46875 8.484375 6.753906 9.203125 6.75 10.089844 C 6.75 10.328125 6.800781 10.566406 6.902344 10.78125 L 6.855469 10.78125 C 5.960938 10.78125 5.234375 11.5 5.230469 12.394531 C 5.230469 12.675781 5.308594 12.957031 5.453125 13.199219 C 4.683594 13.425781 4.195312 14.179688 4.304688 14.976562 C 4.417969 15.769531 5.097656 16.363281 5.898438 16.363281 L 14.269531 16.363281 C 15.078125 16.367188 15.757812 15.773438 15.871094 14.976562 C 15.984375 14.179688 15.488281 13.421875 14.714844 13.203125 Z M 14.710938 13.207031 "/>
<path style=" stroke:none;fill-rule:nonzero;fill:rgb(9.803922%,52.156863%,58.823529%);fill-opacity:1;" d="M 8.363281 7.878906 C 8.511719 7.839844 8.648438 7.769531 8.769531 7.675781 C 9.257812 7.257812 9.4375 6.582031 9.222656 5.980469 C 9.054688 5.488281 8.71875 5.085938 8.507812 4.617188 C 8.46875 4.539062 8.4375 4.457031 8.410156 4.371094 C 8.355469 4.164062 8.34375 3.945312 8.367188 3.730469 C 8.371094 3.71875 8.363281 3.703125 8.355469 3.695312 C 8.34375 3.6875 8.328125 3.683594 8.3125 3.6875 C 7.871094 3.871094 7.574219 4.300781 7.5625 4.78125 C 7.550781 5.21875 7.664062 5.648438 7.886719 6.023438 C 8.117188 6.371094 8.273438 6.757812 8.347656 7.167969 C 8.355469 7.390625 8.34375 7.613281 8.3125 7.835938 C 8.308594 7.847656 8.3125 7.863281 8.324219 7.871094 C 8.335938 7.878906 8.347656 7.882812 8.359375 7.882812 Z M 8.363281 7.878906 "/>
<path style=" stroke:none;fill-rule:nonzero;fill:rgb(9.803922%,52.156863%,58.823529%);fill-opacity:1;" d="M 5.640625 9.488281 C 5.792969 9.449219 5.933594 9.378906 6.058594 9.28125 C 6.546875 8.867188 6.730469 8.191406 6.511719 7.585938 C 6.34375 7.101562 6.007812 6.691406 5.796875 6.230469 C 5.757812 6.148438 5.726562 6.0625 5.699219 5.980469 C 5.648438 5.769531 5.632812 5.554688 5.65625 5.339844 C 5.660156 5.324219 5.652344 5.3125 5.644531 5.300781 C 5.632812 5.292969 5.617188 5.292969 5.605469 5.296875 C 5.152344 5.472656 4.847656 5.90625 4.839844 6.394531 C 4.828125 6.832031 4.9375 7.261719 5.160156 7.640625 C 5.390625 7.984375 5.546875 8.375 5.621094 8.78125 C 5.632812 9.003906 5.617188 9.226562 5.585938 9.445312 C 5.585938 9.460938 5.589844 9.476562 5.601562 9.484375 C 5.609375 9.496094 5.625 9.5 5.640625 9.496094 Z M 5.640625 9.488281 "/>
</g>
</svg>
