<?xml version="1.0" encoding="UTF-8"?>
<svg xmlns="http://www.w3.org/2000/svg" xmlns:xlink="http://www.w3.org/1999/xlink" width="20px" height="20px" viewBox="0 0 20 20" version="1.1">
<g id="surface1">
<path style=" stroke:none;fill-rule:nonzero;fill:rgb(100%,100%,100%);fill-opacity:1;" d="M 1.515625 0.355469 L 18.441406 0.355469 C 19.082031 0.355469 19.601562 0.875 19.601562 1.515625 L 19.601562 18.417969 C 19.601562 19.058594 19.082031 19.574219 18.441406 19.574219 L 1.515625 19.574219 C 0.875 19.574219 0.355469 19.058594 0.355469 18.417969 L 0.355469 1.515625 C 0.355469 0.875 0.875 0.355469 1.515625 0.355469 Z M 1.515625 0.355469 "/>
<path style=" stroke:none;fill-rule:nonzero;fill:rgb(9.803922%,52.156863%,58.823529%);fill-opacity:1;" d="M 18.441406 0.714844 C 18.882812 0.714844 19.242188 1.074219 19.242188 1.515625 L 19.242188 18.417969 C 19.242188 18.859375 18.882812 19.214844 18.441406 19.21875 L 1.515625 19.21875 C 1.300781 19.222656 1.09375 19.140625 0.9375 18.988281 C 0.785156 18.839844 0.699219 18.632812 0.699219 18.417969 L 0.699219 1.515625 C 0.699219 1.300781 0.785156 1.09375 0.9375 0.945312 C 1.09375 0.792969 1.300781 0.710938 1.515625 0.714844 L 18.441406 0.714844 M 18.441406 0 L 1.515625 0 C 1.109375 -0.00390625 0.722656 0.152344 0.433594 0.4375 C 0.148438 0.722656 -0.015625 1.109375 -0.015625 1.515625 L -0.015625 18.417969 C -0.015625 19.253906 0.664062 19.933594 1.5 19.933594 L 18.429688 19.933594 C 19.265625 19.933594 19.941406 19.253906 19.941406 18.417969 L 19.941406 1.515625 C 19.941406 0.683594 19.273438 0.0078125 18.441406 0 Z M 18.441406 0 "/>
<path style=" stroke:none;fill-rule:nonzero;fill:rgb(9.803922%,52.156863%,58.823529%);fill-opacity:1;" d="M 16.261719 14.117188 C 16.640625 13.457031 16.644531 12.644531 16.265625 11.980469 C 15.886719 11.320312 15.183594 10.910156 14.421875 10.902344 C 14.546875 10.605469 14.617188 10.289062 14.628906 9.964844 C 14.628906 7.015625 12.625 6.457031 11.714844 6.355469 C 11.644531 6.347656 11.578125 6.378906 11.542969 6.4375 C 11.503906 6.496094 11.5 6.570312 11.535156 6.628906 C 11.640625 6.820312 11.667969 7.046875 11.605469 7.257812 C 11.414062 7.925781 10.699219 7.820312 10.34375 7.820312 L 7.808594 7.820312 C 6.625 7.820312 5.664062 8.78125 5.664062 9.964844 C 5.664062 10.28125 5.734375 10.59375 5.867188 10.882812 L 5.800781 10.882812 C 5.03125 10.878906 4.324219 11.285156 3.9375 11.949219 C 3.554688 12.613281 3.550781 13.433594 3.9375 14.097656 C 2.890625 14.378906 2.222656 15.394531 2.375 16.464844 C 2.527344 17.535156 3.453125 18.324219 4.53125 18.308594 L 15.667969 18.308594 C 16.742188 18.316406 17.65625 17.527344 17.808594 16.464844 C 17.957031 15.398438 17.296875 14.386719 16.261719 14.101562 Z M 16.261719 14.117188 "/>
<path style=" stroke:none;fill-rule:nonzero;fill:rgb(9.803922%,52.156863%,58.823529%);fill-opacity:1;" d="M 7.816406 7.03125 C 8.011719 6.976562 8.195312 6.882812 8.355469 6.757812 C 9.003906 6.203125 9.246094 5.304688 8.953125 4.5 C 8.730469 3.855469 8.285156 3.3125 8.007812 2.691406 C 7.957031 2.585938 7.917969 2.476562 7.882812 2.363281 C 7.816406 2.085938 7.804688 1.796875 7.84375 1.511719 C 7.847656 1.492188 7.839844 1.472656 7.824219 1.460938 C 7.808594 1.449219 7.785156 1.445312 7.769531 1.453125 C 7.179688 1.699219 6.789062 2.265625 6.769531 2.902344 C 6.757812 3.484375 6.90625 4.058594 7.199219 4.5625 C 7.507812 5.019531 7.714844 5.539062 7.8125 6.082031 C 7.828125 6.378906 7.8125 6.675781 7.769531 6.96875 C 7.765625 6.984375 7.773438 7.003906 7.785156 7.019531 C 7.796875 7.03125 7.816406 7.035156 7.835938 7.03125 Z M 7.816406 7.03125 "/>
<path style=" stroke:none;fill-rule:nonzero;fill:rgb(9.803922%,52.156863%,58.823529%);fill-opacity:1;" d="M 4.1875 9.171875 C 4.382812 9.117188 4.5625 9.023438 4.722656 8.894531 C 5.382812 8.347656 5.628906 7.449219 5.34375 6.640625 C 5.121094 5.988281 4.675781 5.449219 4.394531 4.832031 C 4.34375 4.726562 4.304688 4.613281 4.269531 4.5 C 4.199219 4.222656 4.179688 3.933594 4.214844 3.648438 C 4.21875 3.628906 4.210938 3.609375 4.195312 3.597656 C 4.179688 3.585938 4.15625 3.585938 4.140625 3.59375 C 3.546875 3.835938 3.15625 4.40625 3.144531 5.042969 C 3.125 5.621094 3.269531 6.195312 3.558594 6.699219 C 3.863281 7.160156 4.070312 7.675781 4.171875 8.21875 C 4.183594 8.515625 4.164062 8.8125 4.121094 9.105469 C 4.121094 9.125 4.128906 9.144531 4.140625 9.15625 C 4.152344 9.167969 4.171875 9.171875 4.1875 9.171875 Z M 4.1875 9.171875 "/>
</g>
</svg>
