<?xml version="1.0" encoding="UTF-8"?>
<svg xmlns="http://www.w3.org/2000/svg" xmlns:xlink="http://www.w3.org/1999/xlink" width="20px" height="20px" viewBox="0 0 20 20" version="1.1">
<g id="surface1">
<path style=" stroke:none;fill-rule:nonzero;fill:rgb(100%,100%,100%);fill-opacity:1;" d="M 1.515625 0.355469 L 18.441406 0.355469 C 19.082031 0.355469 19.601562 0.875 19.601562 1.515625 L 19.601562 18.417969 C 19.601562 19.058594 19.082031 19.574219 18.441406 19.574219 L 1.515625 19.574219 C 0.875 19.574219 0.355469 19.058594 0.355469 18.417969 L 0.355469 1.515625 C 0.355469 0.875 0.875 0.355469 1.515625 0.355469 Z M 1.515625 0.355469 "/>
<path style=" stroke:none;fill-rule:nonzero;fill:rgb(9.803922%,52.156863%,58.823529%);fill-opacity:1;" d="M 18.441406 0.714844 C 18.882812 0.714844 19.242188 1.074219 19.242188 1.515625 L 19.242188 18.417969 C 19.242188 18.859375 18.882812 19.214844 18.441406 19.21875 L 1.515625 19.21875 C 1.300781 19.222656 1.09375 19.140625 0.9375 18.988281 C 0.785156 18.839844 0.699219 18.632812 0.699219 18.417969 L 0.699219 1.515625 C 0.699219 1.300781 0.785156 1.09375 0.9375 0.945312 C 1.09375 0.792969 1.300781 0.710938 1.515625 0.714844 L 18.441406 0.714844 M 18.441406 0 L 1.515625 0 C 1.109375 -0.00390625 0.722656 0.152344 0.433594 0.4375 C 0.148438 0.722656 -0.015625 1.109375 -0.015625 1.515625 L -0.015625 18.417969 C -0.015625 19.253906 0.664062 19.933594 1.5 19.933594 L 18.429688 19.933594 C 19.265625 19.933594 19.941406 19.253906 19.941406 18.417969 L 19.941406 1.515625 C 19.941406 0.683594 19.273438 0.0078125 18.441406 0 Z M 18.441406 0 "/>
<path style=" stroke:none;fill-rule:nonzero;fill:rgb(9.803922%,52.156863%,58.823529%);fill-opacity:1;" d="M 2.859375 7.585938 C 2.859375 7.894531 2.921875 8.203125 3.042969 8.484375 C 3.277344 9.039062 3.71875 9.476562 4.269531 9.710938 C 4.554688 9.832031 4.855469 9.894531 5.164062 9.894531 C 5.472656 9.894531 5.773438 9.832031 6.058594 9.710938 C 6.324219 9.59375 6.566406 9.425781 6.769531 9.21875 C 6.980469 9.007812 7.148438 8.757812 7.265625 8.484375 C 7.386719 8.203125 7.449219 7.894531 7.445312 7.585938 C 7.449219 7.277344 7.386719 6.96875 7.265625 6.6875 C 7.148438 6.414062 6.980469 6.164062 6.769531 5.953125 C 6.339844 5.519531 5.75 5.277344 5.140625 5.277344 C 4.832031 5.277344 4.527344 5.339844 4.246094 5.460938 C 3.980469 5.578125 3.738281 5.746094 3.53125 5.953125 C 3.324219 6.164062 3.15625 6.414062 3.039062 6.6875 C 2.917969 6.96875 2.855469 7.277344 2.855469 7.585938 Z M 9.015625 7.585938 C 9.015625 8.039062 8.933594 8.488281 8.773438 8.910156 C 8.621094 9.324219 8.394531 9.707031 8.113281 10.042969 C 7.832031 10.378906 7.5 10.664062 7.128906 10.894531 C 6.75 11.125 6.332031 11.289062 5.894531 11.371094 L 5.894531 12.5625 L 6.894531 12.5625 C 7.097656 12.554688 7.292969 12.632812 7.433594 12.777344 C 7.65625 12.996094 7.722656 13.328125 7.605469 13.617188 C 7.488281 13.90625 7.207031 14.097656 6.894531 14.101562 L 5.894531 14.101562 L 5.894531 15.171875 C 5.898438 15.371094 5.820312 15.566406 5.675781 15.707031 C 5.367188 15.996094 4.882812 15.996094 4.574219 15.707031 C 4.429688 15.566406 4.351562 15.371094 4.355469 15.171875 L 4.355469 14.101562 L 3.414062 14.101562 C 3.210938 14.101562 3.019531 14.015625 2.882812 13.867188 C 2.742188 13.722656 2.660156 13.53125 2.660156 13.328125 C 2.660156 13.125 2.738281 12.929688 2.875 12.777344 C 3.015625 12.632812 3.210938 12.554688 3.414062 12.5625 L 4.355469 12.5625 L 4.355469 11.355469 C 3.929688 11.261719 3.519531 11.097656 3.144531 10.871094 C 2.777344 10.648438 2.449219 10.363281 2.179688 10.027344 C 1.90625 9.6875 1.691406 9.304688 1.542969 8.894531 C 1.386719 8.472656 1.308594 8.023438 1.3125 7.574219 C 1.308594 7.058594 1.410156 6.546875 1.613281 6.070312 C 1.8125 5.617188 2.09375 5.207031 2.441406 4.855469 C 2.792969 4.507812 3.207031 4.226562 3.660156 4.03125 C 4.132812 3.828125 4.640625 3.722656 5.152344 3.726562 C 5.671875 3.722656 6.183594 3.828125 6.65625 4.03125 C 7.113281 4.226562 7.53125 4.507812 7.882812 4.855469 C 8.230469 5.210938 8.511719 5.625 8.707031 6.082031 C 8.910156 6.558594 9.015625 7.070312 9.015625 7.585938 Z M 9.015625 7.585938 "/>
<path style=" stroke:none;fill-rule:nonzero;fill:rgb(9.803922%,52.156863%,58.823529%);fill-opacity:1;" d="M 17.867188 5.546875 L 15.246094 5.546875 C 14.851562 5.546875 14.53125 5.867188 14.53125 6.261719 C 14.53125 6.65625 14.851562 6.976562 15.246094 6.976562 L 16.144531 6.976562 L 14.148438 8.980469 C 12.65625 7.96875 10.65625 8.164062 9.386719 9.441406 C 7.910156 10.921875 7.910156 13.320312 9.386719 14.800781 C 10.089844 15.507812 11.046875 15.902344 12.042969 15.902344 C 13.039062 15.902344 13.996094 15.507812 14.699219 14.800781 C 15.972656 13.515625 16.164062 11.511719 15.15625 10.011719 L 17.152344 8.003906 L 17.152344 8.894531 C 17.152344 9.289062 17.472656 9.605469 17.867188 9.605469 C 18.261719 9.605469 18.582031 9.289062 18.582031 8.894531 L 18.582031 6.265625 C 18.582031 5.871094 18.261719 5.550781 17.867188 5.550781 Z M 13.691406 13.761719 C 13.257812 14.199219 12.664062 14.445312 12.042969 14.445312 C 11.421875 14.445312 10.828125 14.199219 10.394531 13.761719 C 9.484375 12.84375 9.484375 11.363281 10.394531 10.441406 C 10.828125 10.003906 11.421875 9.757812 12.042969 9.757812 C 12.664062 9.757812 13.257812 10.003906 13.691406 10.441406 C 14.597656 11.363281 14.597656 12.839844 13.691406 13.761719 Z M 13.691406 13.761719 "/>
</g>
</svg>
