<?xml version="1.0" encoding="UTF-8" standalone="no"?>
<!DOCTYPE svg PUBLIC "-//W3C//DTD SVG 1.1//EN" "http://www.w3.org/Graphics/SVG/1.1/DTD/svg11.dtd">
<svg width="20px" height="20px" viewBox="0 0 57 57" version="1.1" xmlns="http://www.w3.org/2000/svg" xmlns:xlink="http://www.w3.org/1999/xlink" xml:space="preserve" xmlns:serif="http://www.serif.com/" style="fill-rule:evenodd;clip-rule:evenodd;stroke-linejoin:round;stroke-miterlimit:2;">
    <g id="Border">
        <g transform="matrix(1,0,0,1,4.2925,1.1942)">
            <path d="M0,53.738C-1.787,53.738 -3.241,52.284 -3.241,50.497L-3.241,3.241C-3.241,1.454 -1.787,0 0,0L47.541,0C49.328,0 50.782,1.454 50.782,3.241L50.782,50.497C50.782,52.284 49.328,53.738 47.541,53.738L0,53.738Z" style="fill:white;fill-rule:nonzero;"/>
        </g>
        <g id="ActivityBorder" transform="matrix(1,0,0,1,51.8335,55.9322)">
            <path d="M0,-55.738L-47.541,-55.738C-49.883,-55.738 -51.782,-53.839 -51.782,-51.497L-51.782,-4.241C-51.782,-1.899 -49.883,0 -47.541,0L0,0C2.342,0 4.241,-1.899 4.241,-4.241L4.241,-51.497C4.241,-53.839 2.342,-55.738 0,-55.738M0,-53.738C1.236,-53.738 2.241,-52.733 2.241,-51.497L2.241,-4.241C2.241,-3.006 1.236,-2 0,-2L-47.541,-2C-48.777,-2 -49.782,-3.006 -49.782,-4.241L-49.782,-51.497C-49.782,-52.733 -48.777,-53.738 -47.541,-53.738L0,-53.738Z" style="fill:rgb(25,133,150);fill-rule:nonzero;"/>
        </g>
    </g>
    <g id="Activities">
        <g id="OtherFeed">
            <g transform="matrix(1,0,0,1,40.9637,43.0191)">
                <path d="M0,-16.681C1.638,-18.235 8.188,-18.736 10.156,-18.852C10.422,-18.852 10.676,-18.774 10.869,-18.594C11.06,-18.413 11.169,-18.16 11.169,-17.898L11.169,1.216C11.169,1.743 10.741,2.171 10.214,2.171L4.48,2.171C4.067,2.171 3.7,1.906 3.572,1.512C3.433,1.084 0.14,-10.936 -0.294,-15.905C-0.319,-16.194 -0.212,-16.48 0,-16.681" style="fill:rgb(25,133,150);fill-rule:nonzero;"/>
            </g>
            <g transform="matrix(1,0,0,1,11.9973,43.3282)">
                <path d="M0,-6.723L6.689,-3.868C8.541,-3.778 12.392,-3.898 13.379,-3.885C14.349,-3.871 19.313,-5.464 18.535,-5.779C18.373,-5.846 17.958,-5.859 17.201,-5.796C12.836,-5.433 5.734,-4.554 5.734,-7.707C5.734,-10.861 13.43,-11.53 15.29,-11.53C17.149,-11.53 20.267,-13.198 22.935,-13.441C23.995,-13.537 25.452,-13.682 26.931,-13.774C27.535,-9.664 29.295,-3.709 30.201,-0.796L20.068,3.787C16.276,5.22 13.698,7.051 5.734,3.787C5.734,3.787 -5.734,-1.081 -5.734,-3.858C-5.734,-6.153 -3.106,-7.797 0,-6.723" style="fill:rgb(25,133,150);fill-rule:nonzero;"/>
            </g>
            <g transform="matrix(0,-0.630674,-0.630674,0,20.6103,22.9927)">
                <path d="M-5.202,-5.202C-8.075,-5.202 -10.404,-2.873 -10.404,0C-10.404,2.873 -8.075,5.202 -5.202,5.202C-2.329,5.202 0,2.873 0,0C0,-2.873 -2.329,-5.202 -5.202,-5.202" style="fill:rgb(25,133,150);fill-rule:nonzero;"/>
            </g>
            <g transform="matrix(0,-0.630674,-0.630674,0,28.8115,20.6346)">
                <path d="M-5.202,-5.202C-8.075,-5.202 -10.404,-2.873 -10.404,0C-10.404,2.873 -8.075,5.202 -5.202,5.202C-2.329,5.202 0,2.873 0,0C0,-2.873 -2.329,-5.202 -5.202,-5.202" style="fill:rgb(25,133,150);fill-rule:nonzero;"/>
            </g>
            <g transform="matrix(0,-0.630674,-0.630674,0,22.7077,14.3493)">
                <path d="M-5.202,-5.202C-8.075,-5.202 -10.404,-2.873 -10.404,0C-10.404,2.873 -8.075,5.202 -5.202,5.202C-2.329,5.202 0,2.873 0,0C0,-2.873 -2.329,-5.202 -5.202,-5.202" style="fill:rgb(25,133,150);fill-rule:nonzero;"/>
            </g>
            <g transform="matrix(0,-0.630674,-0.630674,0,12.3955,26.2734)">
                <path d="M-5.202,-5.202C-8.075,-5.202 -10.404,-2.873 -10.404,0C-10.404,2.873 -8.075,5.202 -5.202,5.202C-2.329,5.202 0,2.873 0,0C0,-2.873 -2.329,-5.202 -5.202,-5.202" style="fill:rgb(25,133,150);fill-rule:nonzero;"/>
            </g>
            <g transform="matrix(0,-0.630674,-0.630674,0,13.3318,17.8331)">
                <path d="M-5.202,-5.202C-8.075,-5.202 -10.404,-2.873 -10.404,0C-10.404,2.873 -8.075,5.202 -5.202,5.202C-2.329,5.202 0,2.873 0,0C0,-2.873 -2.329,-5.202 -5.202,-5.202" style="fill:rgb(25,133,150);fill-rule:nonzero;"/>
            </g>
        </g>
    </g>
</svg>
