<?xml version="1.0" encoding="UTF-8" standalone="no"?>
<!DOCTYPE svg PUBLIC "-//W3C//DTD SVG 1.1//EN" "http://www.w3.org/Graphics/SVG/1.1/DTD/svg11.dtd">
<svg width="20px" height="20px" viewBox="0 0 57 57" version="1.1" xmlns="http://www.w3.org/2000/svg" xmlns:xlink="http://www.w3.org/1999/xlink" xml:space="preserve" xmlns:serif="http://www.serif.com/" style="fill-rule:evenodd;clip-rule:evenodd;stroke-linejoin:round;stroke-miterlimit:2;">
    <g id="Border">
        <g transform="matrix(1,0,0,1,4.2925,1.1942)">
            <path d="M0,53.738C-1.787,53.738 -3.241,52.284 -3.241,50.497L-3.241,3.241C-3.241,1.454 -1.787,0 0,0L47.541,0C49.328,0 50.782,1.454 50.782,3.241L50.782,50.497C50.782,52.284 49.328,53.738 47.541,53.738L0,53.738Z" style="fill:white;fill-rule:nonzero;"/>
        </g>
        <g id="ActivityBorder" transform="matrix(1,0,0,1,51.8335,55.9322)">
            <path d="M0,-55.738L-47.541,-55.738C-49.883,-55.738 -51.782,-53.839 -51.782,-51.497L-51.782,-4.241C-51.782,-1.899 -49.883,0 -47.541,0L0,0C2.342,0 4.241,-1.899 4.241,-4.241L4.241,-51.497C4.241,-53.839 2.342,-55.738 0,-55.738M0,-53.738C1.236,-53.738 2.241,-52.733 2.241,-51.497L2.241,-4.241C2.241,-3.006 1.236,-2 0,-2L-47.541,-2C-48.777,-2 -49.782,-3.006 -49.782,-4.241L-49.782,-51.497C-49.782,-52.733 -48.777,-53.738 -47.541,-53.738L0,-53.738Z" style="fill:rgb(25,133,150);fill-rule:nonzero;"/>
        </g>
    </g>
    <g id="Activities">
        <g id="OtherBuy">
            <g transform="matrix(0.92164,0,0,0.891817,45.0919,44.7972)">
                <path d="M0,-28.485C0.048,-29.629 -0.338,-30.811 -0.925,-31.414C-0.369,-32.171 -0.05,-33.297 -0.411,-34.168C-0.64,-34.721 -1.225,-35.381 -2.708,-35.381C-2.825,-35.381 -2.947,-35.377 -3.072,-35.37C-3.437,-36.287 -4.344,-36.942 -5.308,-36.942C-5.806,-36.942 -6.712,-36.763 -7.452,-35.619C-7.542,-35.635 -7.642,-35.643 -7.751,-35.643C-8.453,-35.643 -9.769,-35.251 -10.305,-34.204C-10.597,-33.636 -10.743,-32.689 -9.867,-31.349C-10.329,-30.641 -11.695,-28.344 -13.056,-24.044C-13.628,-22.241 -15.567,-18.044 -21.22,-18.044C-25.453,-18.044 -30.731,-20.419 -36.905,-25.102C-36.974,-25.155 -37.057,-25.183 -37.145,-25.183C-37.177,-25.183 -37.208,-25.179 -37.238,-25.171C-37.356,-25.144 -37.453,-25.064 -37.504,-24.957C-37.562,-24.839 -38.801,-22.092 -34.199,-17.402C-34.947,-17.245 -35.674,-16.857 -35.924,-16.125C-36.24,-15.204 -35.685,-14.117 -34.275,-12.893C-34.62,-12.738 -34.933,-12.509 -35.082,-12.115C-35.353,-11.39 -34.99,-10.334 -33.862,-8.586C-32.108,-5.864 -28.094,0.352 -18.592,0.863C-18.596,0.901 -18.604,0.938 -18.604,0.975L-18.604,5.664L-20.25,5.664C-21.02,5.664 -21.646,6.29 -21.646,7.061C-21.646,7.834 -21.02,8.457 -20.25,8.457L-11.769,8.457C-11,8.457 -10.373,7.834 -10.373,7.061C-10.373,6.29 -11,5.664 -11.769,5.664L-15.809,5.664L-15.809,0.975C-15.809,0.935 -15.818,0.895 -15.823,0.857C-11.932,0.623 -8.598,-0.516 -6.117,-2.48C-3.243,-4.753 -1.724,-7.969 -1.724,-11.783C-1.767,-13.946 -2.059,-15.341 -2.34,-16.693C-2.631,-18.093 -2.907,-19.415 -2.929,-21.562C-2.951,-22.503 -2.648,-23.781 -1.93,-24.515C-1.561,-24.893 -1.116,-25.083 -0.61,-25.083C-0.089,-25.083 0.504,-24.887 1.155,-24.502C1.217,-24.465 1.289,-24.446 1.36,-24.446C1.419,-24.446 1.478,-24.461 1.533,-24.486C1.654,-24.544 1.738,-24.659 1.755,-24.791C1.765,-24.875 1.998,-26.791 0,-28.485" style="fill:rgb(25,133,150);fill-rule:nonzero;"/>
            </g>
            <g transform="matrix(1,0,0,1,29.335,12.4379)">
                <path d="M0,0.27L-13.756,-8.787C-13.952,-8.997 -14.185,-9.103 -14.455,-9.103C-14.724,-9.103 -14.956,-8.997 -15.154,-8.787C-15.35,-8.576 -15.449,-8.326 -15.449,-8.038L-15.449,-3.243L-23.252,-3.243C-23.521,-3.243 -23.754,-3.138 -23.951,-2.927C-24.148,-2.715 -24.246,-2.466 -24.246,-2.178L-24.246,2.447C-24.246,2.736 -24.148,2.985 -23.951,3.196C-23.754,3.407 -23.521,3.513 -23.252,3.513L-15.449,3.513L-15.449,8.307C-15.449,8.596 -15.35,8.846 -15.154,9.057C-14.956,9.267 -14.724,9.373 -14.455,9.373C-14.185,9.373 -13.952,9.267 -13.756,9.057L0,1.769C0.197,1.558 0.295,1.308 0.295,1.019C0.295,0.731 0.197,0.48 0,0.27" style="fill:rgb(25,133,150);fill-rule:nonzero;"/>
            </g>
        </g>
    </g>
</svg>
