<?xml version="1.0" encoding="UTF-8" standalone="no"?>
<!DOCTYPE svg PUBLIC "-//W3C//DTD SVG 1.1//EN" "http://www.w3.org/Graphics/SVG/1.1/DTD/svg11.dtd">
<svg width="20px" height="20px" viewBox="0 0 57 57" version="1.1" xmlns="http://www.w3.org/2000/svg" xmlns:xlink="http://www.w3.org/1999/xlink" xml:space="preserve" xmlns:serif="http://www.serif.com/" style="fill-rule:evenodd;clip-rule:evenodd;stroke-linejoin:round;stroke-miterlimit:2;">
    <g id="Border">
        <g transform="matrix(1,0,0,1,4.2925,1.1942)">
            <path d="M0,53.738C-1.787,53.738 -3.241,52.284 -3.241,50.497L-3.241,3.241C-3.241,1.454 -1.787,0 0,0L47.541,0C49.328,0 50.782,1.454 50.782,3.241L50.782,50.497C50.782,52.284 49.328,53.738 47.541,53.738L0,53.738Z" style="fill:white;fill-rule:nonzero;"/>
        </g>
        <g id="ActivityBorder" transform="matrix(1,0,0,1,51.8335,55.9322)">
            <path d="M0,-55.738L-47.541,-55.738C-49.883,-55.738 -51.782,-53.839 -51.782,-51.497L-51.782,-4.241C-51.782,-1.899 -49.883,0 -47.541,0L0,0C2.342,0 4.241,-1.899 4.241,-4.241L4.241,-51.497C4.241,-53.839 2.342,-55.738 0,-55.738M0,-53.738C1.236,-53.738 2.241,-52.733 2.241,-51.497L2.241,-4.241C2.241,-3.006 1.236,-2 0,-2L-47.541,-2C-48.777,-2 -49.782,-3.006 -49.782,-4.241L-49.782,-51.497C-49.782,-52.733 -48.777,-53.738 -47.541,-53.738L0,-53.738Z" style="fill:rgb(25,133,150);fill-rule:nonzero;"/>
        </g>
    </g>
    <g id="Activities">
        <g id="OtherBreed">
            <g transform="matrix(0.698194,0,0,0.698194,47.5681,21.7717)">
                <path d="M0,-12.511C0,-11.211 -0.223,-9.972 -0.67,-8.794C-1.117,-7.616 -1.733,-6.56 -2.518,-5.626C-3.304,-4.692 -4.224,-3.9 -5.28,-3.25C-6.336,-2.6 -7.487,-2.153 -8.733,-1.909L-8.733,1.422L-5.93,1.422C-5.335,1.422 -4.834,1.625 -4.427,2.031C-4.021,2.437 -3.818,2.952 -3.818,3.575C-3.818,4.197 -4.021,4.712 -4.427,5.118C-4.834,5.524 -5.335,5.727 -5.93,5.727L-8.733,5.727L-8.733,8.693C-8.733,9.288 -8.936,9.789 -9.342,10.196C-9.803,10.602 -10.317,10.805 -10.886,10.805C-11.455,10.805 -11.969,10.602 -12.43,10.196C-12.836,9.789 -13.039,9.288 -13.039,8.693L-13.039,5.727L-15.679,5.727C-16.248,5.727 -16.742,5.511 -17.162,5.077C-17.582,4.644 -17.792,4.143 -17.792,3.575C-17.792,3.006 -17.588,2.491 -17.182,2.031C-16.776,1.625 -16.275,1.422 -15.679,1.422L-13.039,1.422L-13.039,-1.95C-14.257,-2.221 -15.388,-2.674 -16.431,-3.311C-17.473,-3.947 -18.374,-4.732 -19.132,-5.667C-19.89,-6.601 -20.486,-7.65 -20.919,-8.814C-21.353,-9.979 -21.569,-11.211 -21.569,-12.511C-21.569,-14 -21.285,-15.402 -20.716,-16.715C-20.147,-18.029 -19.376,-19.173 -18.401,-20.148C-17.426,-21.123 -16.288,-21.894 -14.989,-22.463C-13.689,-23.032 -12.294,-23.316 -10.805,-23.316C-9.316,-23.316 -7.914,-23.032 -6.601,-22.463C-5.287,-21.894 -4.143,-21.123 -3.168,-20.148C-2.193,-19.173 -1.422,-18.029 -0.853,-16.715C-0.284,-15.402 0,-14 0,-12.511M-17.223,-12.511C-17.223,-11.617 -17.053,-10.778 -16.715,-9.993C-16.376,-9.207 -15.916,-8.523 -15.334,-7.941C-14.752,-7.359 -14.075,-6.899 -13.303,-6.56C-12.531,-6.221 -11.698,-6.053 -10.805,-6.053C-9.911,-6.053 -9.072,-6.222 -8.286,-6.56C-7.501,-6.899 -6.817,-7.359 -6.235,-7.941C-5.653,-8.523 -5.192,-9.207 -4.854,-9.993C-4.515,-10.778 -4.346,-11.617 -4.346,-12.511C-4.346,-13.405 -4.515,-14.244 -4.854,-15.029C-5.192,-15.815 -5.653,-16.498 -6.235,-17.081C-6.817,-17.663 -7.501,-18.123 -8.286,-18.462C-9.072,-18.8 -9.911,-18.97 -10.805,-18.97C-11.698,-18.97 -12.531,-18.8 -13.303,-18.462C-14.075,-18.123 -14.752,-17.663 -15.334,-17.081C-15.916,-16.498 -16.376,-15.815 -16.715,-15.029C-17.053,-14.244 -17.223,-13.405 -17.223,-12.511" style="fill:rgb(25,133,150);fill-rule:nonzero;"/>
            </g>
            <g transform="matrix(0.698194,0,0,0.698194,40.5443,34.5201)">
                <path d="M0,17.107C-1.234,18.347 -2.874,19.03 -4.619,19.03C-6.364,19.03 -8.004,18.347 -9.238,17.107C-11.784,14.547 -11.784,10.383 -9.238,7.823C-8.004,6.583 -6.364,5.9 -4.619,5.9C-2.874,5.9 -1.234,6.583 0,7.823C2.547,10.383 2.547,14.548 0,17.107M11.694,-5.936L4.353,-5.936C3.25,-5.936 2.356,-5.038 2.356,-3.93C2.356,-2.822 3.25,-1.923 4.353,-1.923L6.874,-1.923L1.278,3.7C-0.449,2.521 -2.485,1.887 -4.619,1.887C-7.43,1.887 -10.073,2.987 -12.061,4.985C-16.165,9.11 -16.165,15.82 -12.061,19.945C-10.073,21.943 -7.43,23.043 -4.619,23.043C-1.808,23.043 0.836,21.943 2.823,19.945C6.444,16.305 6.87,10.653 4.1,6.54L9.697,0.914L9.697,3.448C9.697,4.556 10.591,5.455 11.694,5.455C12.797,5.455 13.69,4.556 13.69,3.448L13.69,-3.93C13.69,-5.038 12.796,-5.936 11.694,-5.936" style="fill:rgb(25,133,150);fill-rule:nonzero;"/>
            </g>
            <g transform="matrix(0.716479,0,0,0.716479,31.2419,42.2913)">
                <path d="M0,-28.485C0.048,-29.629 -0.338,-30.811 -0.925,-31.414C-0.369,-32.171 -0.05,-33.297 -0.411,-34.168C-0.64,-34.721 -1.225,-35.381 -2.708,-35.381C-2.825,-35.381 -2.947,-35.377 -3.072,-35.37C-3.437,-36.287 -4.344,-36.942 -5.308,-36.942C-5.806,-36.942 -6.712,-36.763 -7.452,-35.619C-7.542,-35.635 -7.642,-35.643 -7.751,-35.643C-8.453,-35.643 -9.769,-35.251 -10.305,-34.204C-10.597,-33.636 -10.743,-32.689 -9.867,-31.349C-10.329,-30.641 -11.695,-28.344 -13.056,-24.044C-13.628,-22.241 -15.567,-18.044 -21.22,-18.044C-25.453,-18.044 -30.731,-20.419 -36.905,-25.102C-36.974,-25.155 -37.057,-25.183 -37.145,-25.183C-37.177,-25.183 -37.208,-25.179 -37.238,-25.171C-37.356,-25.144 -37.453,-25.064 -37.504,-24.957C-37.562,-24.839 -38.801,-22.092 -34.199,-17.402C-34.947,-17.245 -35.674,-16.857 -35.924,-16.125C-36.24,-15.204 -35.685,-14.117 -34.275,-12.893C-34.62,-12.738 -34.933,-12.509 -35.082,-12.115C-35.353,-11.39 -34.99,-10.334 -33.862,-8.586C-32.108,-5.864 -28.094,0.352 -18.592,0.863C-18.596,0.901 -18.604,0.938 -18.604,0.975L-18.604,5.664L-20.25,5.664C-21.02,5.664 -21.646,6.29 -21.646,7.061C-21.646,7.834 -21.02,8.457 -20.25,8.457L-11.769,8.457C-11,8.457 -10.373,7.834 -10.373,7.061C-10.373,6.29 -11,5.664 -11.769,5.664L-15.809,5.664L-15.809,0.975C-15.809,0.935 -15.818,0.895 -15.823,0.857C-11.932,0.623 -8.598,-0.516 -6.117,-2.48C-3.243,-4.753 -1.724,-7.969 -1.724,-11.783C-1.767,-13.946 -2.059,-15.341 -2.34,-16.693C-2.631,-18.093 -2.907,-19.415 -2.929,-21.562C-2.951,-22.503 -2.648,-23.781 -1.93,-24.515C-1.561,-24.893 -1.116,-25.083 -0.61,-25.083C-0.089,-25.083 0.504,-24.887 1.155,-24.502C1.217,-24.465 1.289,-24.446 1.36,-24.446C1.419,-24.446 1.478,-24.461 1.533,-24.486C1.654,-24.544 1.738,-24.659 1.755,-24.791C1.765,-24.875 1.998,-26.791 0,-28.485" style="fill:rgb(25,133,150);fill-rule:nonzero;"/>
            </g>
        </g>
    </g>
</svg>
