<?xml version="1.0" encoding="UTF-8"?>
<svg xmlns="http://www.w3.org/2000/svg" xmlns:xlink="http://www.w3.org/1999/xlink" width="20px" height="20px" viewBox="0 0 20 20" version="1.1">
<g id="surface1">
<path style=" stroke:none;fill-rule:nonzero;fill:rgb(100%,100%,100%);fill-opacity:1;" d="M 1.515625 0.355469 L 18.441406 0.355469 C 19.082031 0.355469 19.601562 0.875 19.601562 1.515625 L 19.601562 18.417969 C 19.601562 19.058594 19.082031 19.574219 18.441406 19.574219 L 1.515625 19.574219 C 0.875 19.574219 0.355469 19.058594 0.355469 18.417969 L 0.355469 1.515625 C 0.355469 0.875 0.875 0.355469 1.515625 0.355469 Z M 1.515625 0.355469 "/>
<path style=" stroke:none;fill-rule:nonzero;fill:rgb(9.803922%,52.156863%,58.823529%);fill-opacity:1;" d="M 18.441406 0.714844 C 18.882812 0.714844 19.242188 1.074219 19.242188 1.515625 L 19.242188 18.417969 C 19.242188 18.859375 18.882812 19.214844 18.441406 19.21875 L 1.515625 19.21875 C 1.300781 19.222656 1.09375 19.140625 0.9375 18.988281 C 0.785156 18.839844 0.699219 18.632812 0.699219 18.417969 L 0.699219 1.515625 C 0.699219 1.300781 0.785156 1.09375 0.9375 0.945312 C 1.09375 0.792969 1.300781 0.710938 1.515625 0.714844 L 18.441406 0.714844 M 18.441406 0 L 1.515625 0 C 1.109375 -0.00390625 0.722656 0.152344 0.433594 0.4375 C 0.148438 0.722656 -0.015625 1.109375 -0.015625 1.515625 L -0.015625 18.417969 C -0.015625 19.253906 0.664062 19.933594 1.5 19.933594 L 18.429688 19.933594 C 19.265625 19.933594 19.941406 19.253906 19.941406 18.417969 L 19.941406 1.515625 C 19.941406 0.683594 19.273438 0.0078125 18.441406 0 Z M 18.441406 0 "/>
<path style=" stroke:none;fill-rule:nonzero;fill:rgb(9.803922%,52.156863%,58.823529%);fill-opacity:1;" d="M 12.9375 11.007812 C 13.183594 11.007812 13.421875 11.046875 13.652344 11.121094 C 13.429688 10.144531 13.058594 7.90625 13.785156 5.859375 C 13.785156 5.859375 12.5 5.859375 11.535156 7.375 C 11.449219 7.515625 11.378906 7.667969 11.320312 7.820312 C 11.140625 6.804688 10.777344 5.828125 10.25 4.9375 C 10.140625 6.335938 9.746094 7.691406 9.09375 8.929688 C 8.953125 6.746094 8.234375 4.636719 7.015625 2.820312 C 6.867188 4.882812 6.546875 6.925781 6.058594 8.933594 C 5.699219 7.820312 5.269531 6.320312 4.804688 4.34375 C 4.339844 5.316406 4.027344 6.355469 3.867188 7.421875 C 3.855469 7.40625 3.847656 7.390625 3.839844 7.375 C 2.875 5.859375 1.589844 5.859375 1.589844 5.859375 C 2.304688 7.917969 1.945312 10.144531 1.722656 11.121094 C 1.953125 11.046875 2.191406 11.007812 2.4375 11.007812 Z M 12.9375 11.007812 "/>
<path style=" stroke:none;fill-rule:nonzero;fill:rgb(9.803922%,52.156863%,58.823529%);fill-opacity:1;" d="M 8.285156 15.28125 C 8.222656 15.34375 8.128906 15.363281 8.046875 15.328125 C 7.964844 15.296875 7.914062 15.21875 7.914062 15.128906 C 7.914062 15.039062 7.964844 14.960938 8.046875 14.925781 C 8.128906 14.894531 8.222656 14.914062 8.285156 14.976562 C 8.328125 15.015625 8.351562 15.070312 8.351562 15.128906 C 8.351562 15.1875 8.328125 15.242188 8.285156 15.28125 M 7.632812 15.9375 C 7.570312 16 7.476562 16.015625 7.394531 15.984375 C 7.3125 15.949219 7.257812 15.871094 7.257812 15.78125 C 7.257812 15.695312 7.3125 15.613281 7.394531 15.582031 C 7.476562 15.546875 7.570312 15.566406 7.632812 15.628906 C 7.671875 15.667969 7.695312 15.722656 7.695312 15.78125 C 7.695312 15.839844 7.671875 15.894531 7.632812 15.9375 M 6.824219 16.648438 C 6.738281 16.648438 6.65625 16.597656 6.625 16.515625 C 6.589844 16.433594 6.609375 16.339844 6.671875 16.277344 C 6.734375 16.214844 6.828125 16.195312 6.910156 16.230469 C 6.992188 16.265625 7.042969 16.347656 7.042969 16.4375 C 7.042969 16.492188 7.019531 16.546875 6.980469 16.589844 C 6.9375 16.628906 6.882812 16.652344 6.824219 16.648438 M 15.171875 5.578125 C 15.074219 5.546875 14.96875 5.582031 14.914062 5.667969 C 14.863281 5.75 14.871094 5.863281 14.941406 5.9375 C 15.773438 6.765625 16.222656 7.90625 16.183594 9.078125 C 16.1875 10.421875 15.585938 11.695312 14.542969 12.539062 L 15.257812 13.253906 C 15.339844 13.339844 15.339844 13.476562 15.257812 13.5625 C 15.214844 13.601562 15.160156 13.625 15.105469 13.625 C 15.042969 13.621094 14.984375 13.585938 14.949219 13.535156 L 14.1875 12.773438 C 14.042969 12.863281 13.894531 12.945312 13.742188 13.019531 L 14.375 13.652344 C 14.425781 13.714844 14.441406 13.804688 14.40625 13.878906 C 14.375 13.953125 14.304688 14.003906 14.222656 14.011719 C 14.164062 14.011719 14.109375 13.988281 14.066406 13.949219 L 13.308594 13.214844 C 13.128906 13.273438 12.945312 13.320312 12.757812 13.355469 L 13.394531 13.996094 C 13.449219 14.058594 13.460938 14.148438 13.429688 14.222656 C 13.398438 14.296875 13.324219 14.347656 13.242188 14.355469 C 13.183594 14.351562 13.128906 14.332031 13.089844 14.289062 L 12.199219 13.414062 L 12.046875 13.414062 C 11.121094 13.417969 10.226562 13.09375 9.519531 12.5 C 9.433594 12.425781 9.308594 12.425781 9.226562 12.5 L 8.558594 13.179688 L 5.757812 15.957031 C 5.449219 16.265625 5.449219 16.761719 5.757812 17.070312 L 6.183594 17.492188 C 6.488281 17.800781 6.988281 17.800781 7.296875 17.492188 L 9.875 14.964844 C 11.527344 16.199219 13.734375 16.398438 15.578125 15.472656 C 17.421875 14.542969 18.582031 12.65625 18.574219 10.59375 C 18.625 8.367188 17.257812 6.351562 15.171875 5.570312 "/>
</g>
</svg>
