<?xml version="1.0" encoding="UTF-8"?>
<svg xmlns="http://www.w3.org/2000/svg" xmlns:xlink="http://www.w3.org/1999/xlink" width="20px" height="20px" viewBox="0 0 20 20" version="1.1">
<g id="surface1">
<path style=" stroke:none;fill-rule:nonzero;fill:rgb(100%,100%,100%);fill-opacity:1;" d="M 1.515625 0.355469 L 18.441406 0.355469 C 19.082031 0.355469 19.601562 0.875 19.601562 1.515625 L 19.601562 18.417969 C 19.601562 19.058594 19.082031 19.574219 18.441406 19.574219 L 1.515625 19.574219 C 0.875 19.574219 0.355469 19.058594 0.355469 18.417969 L 0.355469 1.515625 C 0.355469 0.875 0.875 0.355469 1.515625 0.355469 Z M 1.515625 0.355469 "/>
<path style=" stroke:none;fill-rule:nonzero;fill:rgb(9.803922%,52.156863%,58.823529%);fill-opacity:1;" d="M 18.441406 0.714844 C 18.882812 0.714844 19.242188 1.074219 19.242188 1.515625 L 19.242188 18.417969 C 19.242188 18.859375 18.882812 19.214844 18.441406 19.21875 L 1.515625 19.21875 C 1.300781 19.222656 1.09375 19.140625 0.9375 18.988281 C 0.785156 18.839844 0.699219 18.632812 0.699219 18.417969 L 0.699219 1.515625 C 0.699219 1.300781 0.785156 1.09375 0.9375 0.945312 C 1.09375 0.792969 1.300781 0.710938 1.515625 0.714844 L 18.441406 0.714844 M 18.441406 0 L 1.515625 0 C 1.109375 -0.00390625 0.722656 0.152344 0.433594 0.4375 C 0.148438 0.722656 -0.015625 1.109375 -0.015625 1.515625 L -0.015625 18.417969 C -0.015625 19.253906 0.664062 19.933594 1.5 19.933594 L 18.429688 19.933594 C 19.265625 19.933594 19.941406 19.253906 19.941406 18.417969 L 19.941406 1.515625 C 19.941406 0.683594 19.273438 0.0078125 18.441406 0 Z M 18.441406 0 "/>
<path style=" stroke:none;fill-rule:nonzero;fill:rgb(9.803922%,52.156863%,58.823529%);fill-opacity:1;" d="M 16.769531 16.117188 C 17.089844 16.117188 17.40625 16.167969 17.707031 16.265625 C 17.417969 15.007812 16.9375 12.125 17.878906 9.480469 C 17.878906 9.480469 16.21875 9.480469 14.976562 11.4375 C 14.859375 11.625 14.757812 11.820312 14.683594 12.023438 C 14.453125 10.710938 13.988281 9.453125 13.3125 8.304688 C 13.164062 10.101562 12.648438 11.851562 11.800781 13.445312 C 11.621094 10.617188 10.695312 7.890625 9.117188 5.535156 C 8.925781 8.203125 8.503906 10.851562 7.859375 13.445312 C 7.40625 12.019531 6.859375 10.074219 6.261719 7.519531 C 5.664062 8.777344 5.253906 10.117188 5.050781 11.496094 L 5.015625 11.4375 C 3.78125 9.46875 2.128906 9.46875 2.128906 9.46875 C 3.0625 12.125 2.589844 15.007812 2.296875 16.253906 C 2.597656 16.15625 2.914062 16.109375 3.230469 16.105469 Z M 16.769531 16.117188 "/>
</g>
</svg>
