<?xml version="1.0" encoding="UTF-8"?>
<svg xmlns="http://www.w3.org/2000/svg" xmlns:xlink="http://www.w3.org/1999/xlink" width="20px" height="20px" viewBox="0 0 20 20" version="1.1">
<g id="surface1">
<path style=" stroke:none;fill-rule:nonzero;fill:rgb(100%,100%,100%);fill-opacity:1;" d="M 1.515625 0.355469 L 18.441406 0.355469 C 19.082031 0.355469 19.601562 0.875 19.601562 1.515625 L 19.601562 18.417969 C 19.601562 19.058594 19.082031 19.574219 18.441406 19.574219 L 1.515625 19.574219 C 0.875 19.574219 0.355469 19.058594 0.355469 18.417969 L 0.355469 1.515625 C 0.355469 0.875 0.875 0.355469 1.515625 0.355469 Z M 1.515625 0.355469 "/>
<path style=" stroke:none;fill-rule:nonzero;fill:rgb(9.803922%,52.156863%,58.823529%);fill-opacity:1;" d="M 18.441406 0.714844 C 18.882812 0.714844 19.242188 1.074219 19.242188 1.515625 L 19.242188 18.417969 C 19.242188 18.859375 18.882812 19.214844 18.441406 19.21875 L 1.515625 19.21875 C 1.300781 19.222656 1.09375 19.140625 0.9375 18.988281 C 0.785156 18.839844 0.699219 18.632812 0.699219 18.417969 L 0.699219 1.515625 C 0.699219 1.300781 0.785156 1.09375 0.9375 0.945312 C 1.09375 0.792969 1.300781 0.710938 1.515625 0.714844 L 18.441406 0.714844 M 18.441406 0 L 1.515625 0 C 1.109375 -0.00390625 0.722656 0.152344 0.433594 0.4375 C 0.148438 0.722656 -0.015625 1.109375 -0.015625 1.515625 L -0.015625 18.417969 C -0.015625 19.253906 0.664062 19.933594 1.5 19.933594 L 18.429688 19.933594 C 19.265625 19.933594 19.941406 19.253906 19.941406 18.417969 L 19.941406 1.515625 C 19.941406 0.683594 19.273438 0.0078125 18.441406 0 Z M 18.441406 0 "/>
<path style=" stroke:none;fill-rule:nonzero;fill:rgb(9.803922%,52.156863%,58.823529%);fill-opacity:1;" d="M 6.90625 18.179688 C 5.835938 15.957031 6.410156 14.6875 7.230469 13.484375 C 7.769531 12.695312 8.15625 11.808594 8.359375 10.875 C 8.8125 11.570312 8.964844 12.417969 8.78125 13.230469 C 9.796875 11.980469 10.265625 10.375 10.078125 8.777344 C 12.894531 10.753906 14.101562 15.019531 12.484375 18.179688 C 21.121094 13.289062 14.628906 5.980469 13.503906 5.15625 C 13.878906 5.980469 13.949219 7.375 13.1875 8.050781 C 11.894531 3.179688 8.710938 2.171875 8.710938 2.171875 C 9.089844 4.6875 7.347656 7.441406 5.667969 9.5 C 5.605469 8.496094 5.546875 7.804688 5.019531 6.84375 C 4.898438 8.664062 3.507812 10.152344 3.128906 11.980469 C 2.617188 14.453125 3.511719 16.269531 6.90625 18.179688 Z M 6.90625 18.179688 "/>
</g>
</svg>
