<?xml version="1.0" encoding="UTF-8"?>
<svg xmlns="http://www.w3.org/2000/svg" xmlns:xlink="http://www.w3.org/1999/xlink" width="20px" height="20px" viewBox="0 0 20 20" version="1.1">
<g id="surface1">
<path style=" stroke:none;fill-rule:nonzero;fill:rgb(100%,100%,100%);fill-opacity:1;" d="M 1.515625 0.355469 L 18.441406 0.355469 C 19.082031 0.355469 19.601562 0.875 19.601562 1.515625 L 19.601562 18.417969 C 19.601562 19.058594 19.082031 19.574219 18.441406 19.574219 L 1.515625 19.574219 C 0.875 19.574219 0.355469 19.058594 0.355469 18.417969 L 0.355469 1.515625 C 0.355469 0.875 0.875 0.355469 1.515625 0.355469 Z M 1.515625 0.355469 "/>
<path style=" stroke:none;fill-rule:nonzero;fill:rgb(9.803922%,52.156863%,58.823529%);fill-opacity:1;" d="M 18.441406 0.714844 C 18.882812 0.714844 19.242188 1.074219 19.242188 1.515625 L 19.242188 18.417969 C 19.242188 18.859375 18.882812 19.214844 18.441406 19.21875 L 1.515625 19.21875 C 1.300781 19.222656 1.09375 19.140625 0.9375 18.988281 C 0.785156 18.839844 0.699219 18.632812 0.699219 18.417969 L 0.699219 1.515625 C 0.699219 1.300781 0.785156 1.09375 0.9375 0.945312 C 1.09375 0.792969 1.300781 0.710938 1.515625 0.714844 L 18.441406 0.714844 M 18.441406 0 L 1.515625 0 C 1.109375 -0.00390625 0.722656 0.152344 0.433594 0.4375 C 0.148438 0.722656 -0.015625 1.109375 -0.015625 1.515625 L -0.015625 18.417969 C -0.015625 19.253906 0.664062 19.933594 1.5 19.933594 L 18.429688 19.933594 C 19.265625 19.933594 19.941406 19.253906 19.941406 18.417969 L 19.941406 1.515625 C 19.941406 0.683594 19.273438 0.0078125 18.441406 0 Z M 18.441406 0 "/>
<path style=" stroke:none;fill-rule:nonzero;fill:rgb(9.803922%,52.156863%,58.823529%);fill-opacity:1;" d="M 8.816406 4.941406 C 8.703125 5.066406 8.703125 5.257812 8.816406 5.382812 L 12.871094 7.523438 C 12.921875 7.585938 12.996094 7.617188 13.074219 7.617188 C 13.15625 7.617188 13.230469 7.585938 13.28125 7.523438 C 13.339844 7.464844 13.367188 7.386719 13.367188 7.308594 L 13.367188 5.878906 L 18.011719 5.878906 C 18.089844 5.878906 18.164062 5.84375 18.21875 5.785156 C 18.273438 5.726562 18.304688 5.644531 18.304688 5.5625 L 18.304688 4.222656 C 18.304688 4.140625 18.273438 4.058594 18.21875 4 C 18.164062 3.941406 18.089844 3.90625 18.011719 3.90625 L 13.367188 3.90625 L 13.367188 2.496094 C 13.371094 2.414062 13.339844 2.335938 13.28125 2.273438 C 13.230469 2.214844 13.15625 2.179688 13.074219 2.183594 C 12.996094 2.179688 12.921875 2.214844 12.871094 2.273438 Z M 8.816406 4.941406 "/>
<path style=" stroke:none;fill-rule:nonzero;fill:rgb(9.803922%,52.156863%,58.823529%);fill-opacity:1;" d="M 6.769531 9.847656 C 6.21875 9.558594 5.652344 9.300781 5.070312 9.074219 C 4.738281 8.945312 4.421875 8.769531 4.136719 8.554688 C 3.878906 8.378906 3.746094 8.070312 3.792969 7.761719 C 3.835938 7.457031 4.054688 7.203125 4.351562 7.105469 C 4.53125 7.03125 4.726562 6.992188 4.925781 6.988281 C 5.664062 6.945312 6.402344 7.09375 7.066406 7.414062 C 7.40625 7.578125 7.519531 7.523438 7.632812 7.171875 C 7.746094 6.816406 7.855469 6.417969 7.964844 6.042969 C 8.007812 5.941406 8.003906 5.824219 7.953125 5.722656 C 7.90625 5.625 7.816406 5.550781 7.710938 5.519531 C 7.277344 5.324219 6.820312 5.1875 6.355469 5.109375 C 5.738281 5.019531 5.738281 5.015625 5.734375 4.394531 C 5.734375 3.523438 5.734375 3.523438 4.855469 3.523438 L 4.484375 3.523438 C 4.078125 3.523438 4.011719 3.605469 3.996094 4.019531 C 3.996094 4.203125 3.996094 4.375 3.996094 4.574219 C 3.996094 5.121094 3.996094 5.109375 3.464844 5.289062 C 2.199219 5.75 1.417969 6.613281 1.320312 7.992188 C 1.246094 9.214844 1.886719 10.039062 2.890625 10.640625 C 3.523438 10.972656 4.175781 11.265625 4.847656 11.519531 C 5.101562 11.625 5.34375 11.765625 5.5625 11.9375 C 5.855469 12.148438 6.007812 12.507812 5.960938 12.867188 C 5.914062 13.226562 5.667969 13.527344 5.328125 13.652344 C 4.933594 13.824219 4.5 13.878906 4.074219 13.8125 C 3.40625 13.742188 2.757812 13.546875 2.15625 13.242188 C 1.800781 13.0625 1.703125 13.105469 1.582031 13.492188 C 1.480469 13.820312 1.386719 14.152344 1.292969 14.488281 C 1.171875 14.9375 1.21875 15.042969 1.648438 15.253906 C 2.199219 15.507812 2.78125 15.675781 3.378906 15.757812 C 3.847656 15.832031 3.859375 15.855469 3.863281 16.335938 C 3.863281 16.554688 3.863281 16.773438 3.863281 16.992188 C 3.863281 17.269531 4 17.433594 4.28125 17.4375 C 4.5625 17.4375 4.933594 17.4375 5.253906 17.4375 C 5.367188 17.453125 5.480469 17.410156 5.558594 17.328125 C 5.640625 17.246094 5.675781 17.128906 5.652344 17.019531 C 5.652344 16.71875 5.652344 16.417969 5.652344 16.117188 C 5.636719 15.992188 5.667969 15.867188 5.742188 15.765625 C 5.820312 15.664062 5.933594 15.597656 6.058594 15.578125 C 6.722656 15.410156 7.3125 15.035156 7.75 14.507812 C 8.332031 13.792969 8.558594 12.855469 8.371094 11.953125 C 8.179688 11.050781 7.59375 10.28125 6.769531 9.863281 Z M 6.769531 9.847656 "/>
<path style=" stroke:none;fill-rule:nonzero;fill:rgb(9.803922%,52.156863%,58.823529%);fill-opacity:1;" d="M 15.277344 17.699219 L 11.742188 17.699219 C 10.070312 17.699219 8.71875 16.34375 8.71875 14.671875 L 8.71875 11.140625 C 8.71875 9.46875 10.070312 8.113281 11.742188 8.109375 L 15.277344 8.109375 C 16.949219 8.113281 18.304688 9.46875 18.304688 11.140625 L 18.304688 14.671875 C 18.304688 16.34375 16.949219 17.699219 15.277344 17.699219 Z M 11.742188 10.238281 C 11.246094 10.238281 10.84375 10.640625 10.84375 11.140625 L 10.84375 14.671875 C 10.84375 15.167969 11.246094 15.570312 11.742188 15.570312 L 15.277344 15.570312 C 15.777344 15.570312 16.179688 15.167969 16.179688 14.671875 L 16.179688 11.140625 C 16.179688 10.640625 15.777344 10.238281 15.277344 10.238281 Z M 11.742188 10.238281 "/>
</g>
</svg>
