<?xml version="1.0" encoding="UTF-8"?>
<svg xmlns="http://www.w3.org/2000/svg" xmlns:xlink="http://www.w3.org/1999/xlink" width="20px" height="20px" viewBox="0 0 20 20" version="1.1">
<g id="surface1">
<path style=" stroke:none;fill-rule:nonzero;fill:rgb(100%,100%,100%);fill-opacity:1;" d="M 1.515625 0.355469 L 18.441406 0.355469 C 19.082031 0.355469 19.601562 0.875 19.601562 1.515625 L 19.601562 18.417969 C 19.601562 19.058594 19.082031 19.574219 18.441406 19.574219 L 1.515625 19.574219 C 0.875 19.574219 0.355469 19.058594 0.355469 18.417969 L 0.355469 1.515625 C 0.355469 0.875 0.875 0.355469 1.515625 0.355469 Z M 1.515625 0.355469 "/>
<path style=" stroke:none;fill-rule:nonzero;fill:rgb(9.803922%,52.156863%,58.823529%);fill-opacity:1;" d="M 18.441406 0.714844 C 18.882812 0.714844 19.242188 1.074219 19.242188 1.515625 L 19.242188 18.417969 C 19.242188 18.859375 18.882812 19.214844 18.441406 19.21875 L 1.515625 19.21875 C 1.300781 19.222656 1.09375 19.140625 0.9375 18.988281 C 0.785156 18.839844 0.699219 18.632812 0.699219 18.417969 L 0.699219 1.515625 C 0.699219 1.300781 0.785156 1.09375 0.9375 0.945312 C 1.09375 0.792969 1.300781 0.710938 1.515625 0.714844 L 18.441406 0.714844 M 18.441406 0 L 1.515625 0 C 1.109375 -0.00390625 0.722656 0.152344 0.433594 0.4375 C 0.148438 0.722656 -0.015625 1.109375 -0.015625 1.515625 L -0.015625 18.417969 C -0.015625 19.253906 0.664062 19.933594 1.5 19.933594 L 18.429688 19.933594 C 19.265625 19.933594 19.941406 19.253906 19.941406 18.417969 L 19.941406 1.515625 C 19.941406 0.683594 19.273438 0.0078125 18.441406 0 Z M 18.441406 0 "/>
<path style=" stroke:none;fill-rule:nonzero;fill:rgb(9.803922%,52.156863%,58.823529%);fill-opacity:1;" d="M 9.582031 13.152344 L 5.414062 13.152344 C 3.441406 13.152344 1.84375 11.554688 1.84375 9.582031 L 1.84375 5.417969 C 1.84375 3.445312 3.441406 1.847656 5.414062 1.847656 L 9.582031 1.847656 C 11.554688 1.847656 13.152344 3.445312 13.152344 5.417969 L 13.152344 9.585938 C 13.152344 11.558594 11.554688 13.152344 9.582031 13.152344 Z M 5.414062 4.359375 C 4.824219 4.359375 4.34375 4.839844 4.34375 5.433594 L 4.34375 9.585938 C 4.34375 10.175781 4.824219 10.65625 5.414062 10.65625 L 9.582031 10.65625 C 10.175781 10.65625 10.652344 10.175781 10.652344 9.585938 L 10.652344 5.417969 C 10.652344 4.824219 10.175781 4.347656 9.582031 4.347656 Z M 5.414062 4.359375 "/>
<path style=" stroke:none;fill-rule:nonzero;fill:rgb(60%,80%,80%);fill-opacity:1;" d="M 7.394531 7.503906 L 16.390625 7.503906 L 16.390625 15.6875 L 7.394531 15.6875 Z M 7.394531 7.503906 "/>
<path style=" stroke:none;fill-rule:nonzero;fill:rgb(9.803922%,52.156863%,58.823529%);fill-opacity:1;" d="M 14.046875 17.789062 L 9.882812 17.789062 C 7.910156 17.789062 6.3125 16.191406 6.3125 14.21875 L 6.3125 10.058594 C 6.3125 8.085938 7.910156 6.484375 9.882812 6.484375 L 14.046875 6.484375 C 16.019531 6.484375 17.617188 8.085938 17.617188 10.058594 L 17.617188 14.226562 C 17.613281 16.195312 16.015625 17.789062 14.046875 17.789062 Z M 9.882812 8.996094 C 9.289062 8.996094 8.8125 9.476562 8.8125 10.066406 L 8.8125 14.226562 C 8.8125 14.816406 9.289062 15.296875 9.882812 15.296875 L 14.046875 15.296875 C 14.636719 15.296875 15.117188 14.816406 15.117188 14.226562 L 15.117188 10.058594 C 15.117188 9.464844 14.636719 8.984375 14.046875 8.984375 Z M 9.882812 8.996094 "/>
</g>
</svg>
