<?xml version="1.0" encoding="UTF-8"?>
<svg xmlns="http://www.w3.org/2000/svg" xmlns:xlink="http://www.w3.org/1999/xlink" width="20px" height="20px" viewBox="0 0 20 20" version="1.1">
<g id="surface1">
<path style=" stroke:none;fill-rule:nonzero;fill:rgb(100%,100%,100%);fill-opacity:1;" d="M 1.515625 0.355469 L 18.441406 0.355469 C 19.082031 0.355469 19.601562 0.875 19.601562 1.515625 L 19.601562 18.417969 C 19.601562 19.058594 19.082031 19.574219 18.441406 19.574219 L 1.515625 19.574219 C 0.875 19.574219 0.355469 19.058594 0.355469 18.417969 L 0.355469 1.515625 C 0.355469 0.875 0.875 0.355469 1.515625 0.355469 Z M 1.515625 0.355469 "/>
<path style=" stroke:none;fill-rule:nonzero;fill:rgb(9.803922%,52.156863%,58.823529%);fill-opacity:1;" d="M 18.441406 0.714844 C 18.882812 0.714844 19.242188 1.074219 19.242188 1.515625 L 19.242188 18.417969 C 19.242188 18.859375 18.882812 19.214844 18.441406 19.21875 L 1.515625 19.21875 C 1.300781 19.222656 1.09375 19.140625 0.9375 18.988281 C 0.785156 18.839844 0.699219 18.632812 0.699219 18.417969 L 0.699219 1.515625 C 0.699219 1.300781 0.785156 1.09375 0.9375 0.945312 C 1.09375 0.792969 1.300781 0.710938 1.515625 0.714844 L 18.441406 0.714844 M 18.441406 0 L 1.515625 0 C 1.109375 -0.00390625 0.722656 0.152344 0.433594 0.4375 C 0.148438 0.722656 -0.015625 1.109375 -0.015625 1.515625 L -0.015625 18.417969 C -0.015625 19.253906 0.664062 19.933594 1.5 19.933594 L 18.429688 19.933594 C 19.265625 19.933594 19.941406 19.253906 19.941406 18.417969 L 19.941406 1.515625 C 19.941406 0.683594 19.273438 0.0078125 18.441406 0 Z M 18.441406 0 "/>
<path style=" stroke:none;fill-rule:nonzero;fill:rgb(9.803922%,52.156863%,58.823529%);fill-opacity:1;" d="M 14.15625 10.011719 C 14.734375 9.460938 17.054688 9.296875 17.75 9.242188 C 17.839844 9.238281 17.929688 9.269531 18 9.332031 C 18.066406 9.398438 18.105469 9.484375 18.105469 9.578125 L 18.105469 16.335938 C 18.097656 16.527344 17.941406 16.675781 17.75 16.675781 L 15.742188 16.675781 C 15.597656 16.675781 15.464844 16.582031 15.421875 16.441406 C 15.371094 16.289062 14.207031 12.039062 14.054688 10.28125 C 14.046875 10.179688 14.082031 10.082031 14.15625 10.011719 Z M 14.15625 10.011719 "/>
<path style=" stroke:none;fill-rule:nonzero;fill:rgb(9.803922%,52.156863%,58.823529%);fill-opacity:1;" d="M 3.914062 13.640625 L 6.277344 14.648438 C 6.933594 14.683594 8.292969 14.648438 8.644531 14.648438 C 8.992188 14.648438 10.742188 14.09375 10.46875 13.980469 C 10.3125 13.953125 10.148438 13.953125 9.992188 13.980469 C 8.449219 14.105469 5.9375 14.417969 5.9375 13.304688 C 5.9375 12.1875 8.660156 11.949219 9.316406 11.949219 C 9.976562 11.949219 11.078125 11.359375 12.019531 11.273438 C 12.378906 11.238281 12.910156 11.1875 13.449219 11.15625 C 13.730469 12.707031 14.113281 14.234375 14.59375 15.734375 L 11.019531 17.355469 C 9.683594 17.859375 8.769531 18.511719 5.953125 17.355469 C 5.953125 17.355469 1.898438 15.636719 1.898438 14.652344 C 1.890625 13.839844 2.816406 13.261719 3.914062 13.640625 Z M 3.914062 13.640625 "/>
<path style=" stroke:none;fill-rule:nonzero;fill:rgb(9.803922%,52.156863%,58.823529%);fill-opacity:1;" d="M 6.355469 6.6875 C 5.925781 6.488281 5.488281 6.308594 5.042969 6.152344 C 4.789062 6.066406 4.550781 5.945312 4.328125 5.796875 C 3.898438 5.492188 3.972656 4.992188 4.480469 4.796875 C 4.625 4.746094 4.773438 4.714844 4.925781 4.714844 C 5.492188 4.683594 6.058594 4.785156 6.582031 5.011719 C 6.84375 5.121094 6.9375 5.085938 7.019531 4.84375 C 7.097656 4.601562 7.1875 4.316406 7.273438 4.058594 C 7.335938 3.882812 7.273438 3.769531 7.078125 3.699219 C 6.742188 3.566406 6.390625 3.472656 6.03125 3.421875 C 5.558594 3.355469 5.558594 3.355469 5.558594 2.925781 C 5.558594 2.320312 5.558594 2.320312 4.878906 2.320312 L 4.585938 2.320312 C 4.269531 2.320312 4.230469 2.378906 4.230469 2.679688 C 4.230469 2.804688 4.230469 2.933594 4.230469 3.0625 C 4.230469 3.4375 4.230469 3.4375 3.820312 3.5625 C 2.847656 3.886719 2.242188 4.480469 2.179688 5.4375 C 2.121094 6.285156 2.613281 6.867188 3.386719 7.273438 C 3.878906 7.503906 4.382812 7.710938 4.894531 7.886719 C 5.09375 7.957031 5.277344 8.054688 5.445312 8.175781 C 5.671875 8.308594 5.796875 8.570312 5.753906 8.828125 C 5.714844 9.089844 5.523438 9.300781 5.269531 9.363281 C 4.960938 9.480469 4.625 9.519531 4.300781 9.476562 C 3.789062 9.425781 3.289062 9.292969 2.820312 9.078125 C 2.550781 8.953125 2.464844 8.984375 2.375 9.25 C 2.285156 9.515625 2.195312 9.683594 2.128906 9.914062 C 2.035156 10.226562 2.066406 10.300781 2.398438 10.441406 C 2.824219 10.621094 3.269531 10.742188 3.730469 10.800781 C 4.085938 10.855469 4.085938 10.867188 4.085938 11.199219 C 4.085938 11.355469 4.085938 11.507812 4.085938 11.65625 C 4.085938 11.808594 4.1875 11.960938 4.40625 11.964844 L 5.152344 11.964844 C 5.359375 11.964844 5.464844 11.859375 5.464844 11.675781 C 5.464844 11.488281 5.464844 11.257812 5.464844 11.050781 C 5.464844 10.84375 5.558594 10.730469 5.78125 10.675781 C 6.300781 10.5625 6.769531 10.296875 7.128906 9.90625 C 8.074219 8.871094 7.714844 7.355469 6.371094 6.691406 Z M 6.355469 6.6875 "/>
</g>
</svg>
