<?xml version="1.0" encoding="UTF-8"?>
<svg xmlns="http://www.w3.org/2000/svg" xmlns:xlink="http://www.w3.org/1999/xlink" width="20px" height="20px" viewBox="0 0 20 20" version="1.1">
<g id="surface1">
<path style=" stroke:none;fill-rule:nonzero;fill:rgb(100%,100%,100%);fill-opacity:1;" d="M 1.515625 0.355469 L 18.441406 0.355469 C 19.082031 0.355469 19.601562 0.875 19.601562 1.515625 L 19.601562 18.417969 C 19.601562 19.058594 19.082031 19.574219 18.441406 19.574219 L 1.515625 19.574219 C 0.875 19.574219 0.355469 19.058594 0.355469 18.417969 L 0.355469 1.515625 C 0.355469 0.875 0.875 0.355469 1.515625 0.355469 Z M 1.515625 0.355469 "/>
<path style=" stroke:none;fill-rule:nonzero;fill:rgb(9.803922%,52.156863%,58.823529%);fill-opacity:1;" d="M 18.441406 0.714844 C 18.882812 0.714844 19.242188 1.074219 19.242188 1.515625 L 19.242188 18.417969 C 19.242188 18.859375 18.882812 19.214844 18.441406 19.21875 L 1.515625 19.21875 C 1.300781 19.222656 1.09375 19.140625 0.9375 18.988281 C 0.785156 18.839844 0.699219 18.632812 0.699219 18.417969 L 0.699219 1.515625 C 0.699219 1.300781 0.785156 1.09375 0.9375 0.945312 C 1.09375 0.792969 1.300781 0.710938 1.515625 0.714844 L 18.441406 0.714844 M 18.441406 0 L 1.515625 0 C 1.109375 -0.00390625 0.722656 0.152344 0.433594 0.4375 C 0.148438 0.722656 -0.015625 1.109375 -0.015625 1.515625 L -0.015625 18.417969 C -0.015625 19.253906 0.664062 19.933594 1.5 19.933594 L 18.429688 19.933594 C 19.265625 19.933594 19.941406 19.253906 19.941406 18.417969 L 19.941406 1.515625 C 19.941406 0.683594 19.273438 0.0078125 18.441406 0 Z M 18.441406 0 "/>
<path style=" stroke:none;fill-rule:nonzero;fill:rgb(9.803922%,52.156863%,58.823529%);fill-opacity:1;" d="M 18.476562 13.746094 L 15.261719 10.53125 C 15.152344 10.425781 14.992188 10.398438 14.851562 10.453125 C 14.710938 10.511719 14.617188 10.644531 14.613281 10.796875 L 14.613281 12.5 L 11.964844 12.5 C 11.863281 12.5 11.765625 12.539062 11.695312 12.613281 C 11.625 12.683594 11.585938 12.777344 11.585938 12.878906 L 11.585938 15.148438 C 11.585938 15.359375 11.753906 15.527344 11.964844 15.527344 L 14.628906 15.527344 L 14.628906 17.230469 C 14.625 17.332031 14.667969 17.429688 14.742188 17.5 C 14.8125 17.570312 14.910156 17.609375 15.007812 17.609375 C 15.109375 17.609375 15.203125 17.570312 15.273438 17.5 L 18.488281 14.285156 C 18.558594 14.214844 18.601562 14.121094 18.601562 14.019531 C 18.601562 13.917969 18.558594 13.824219 18.488281 13.753906 Z M 18.476562 13.746094 "/>
<path style=" stroke:none;fill-rule:nonzero;fill:rgb(9.803922%,52.156863%,58.823529%);fill-opacity:1;" d="M 1.496094 13.792969 C 1.425781 13.863281 1.386719 13.960938 1.386719 14.0625 C 1.386719 14.160156 1.425781 14.257812 1.496094 14.328125 L 4.710938 17.542969 C 4.777344 17.617188 4.875 17.660156 4.976562 17.660156 C 5.078125 17.660156 5.175781 17.617188 5.242188 17.542969 C 5.316406 17.476562 5.359375 17.378906 5.355469 17.277344 L 5.355469 15.574219 L 8.003906 15.574219 C 8.105469 15.578125 8.203125 15.535156 8.269531 15.460938 C 8.34375 15.390625 8.382812 15.296875 8.382812 15.195312 L 8.382812 12.925781 C 8.382812 12.824219 8.34375 12.730469 8.269531 12.660156 C 8.203125 12.585938 8.105469 12.542969 8.003906 12.546875 L 5.359375 12.546875 L 5.359375 10.84375 C 5.363281 10.742188 5.320312 10.648438 5.246094 10.578125 C 5.179688 10.503906 5.082031 10.460938 4.980469 10.460938 C 4.878906 10.460938 4.78125 10.503906 4.714844 10.578125 L 1.5 13.792969 Z M 1.496094 13.792969 "/>
<path style=" stroke:none;fill-rule:nonzero;fill:rgb(60%,80%,80%);fill-opacity:1;" d="M 7.03125 3.667969 L 12.710938 3.667969 L 12.710938 8.835938 L 7.03125 8.835938 Z M 7.03125 3.667969 "/>
<path style=" stroke:none;fill-rule:nonzero;fill:rgb(9.803922%,52.156863%,58.823529%);fill-opacity:1;" d="M 11.613281 10.625 L 8.355469 10.625 C 6.820312 10.621094 5.574219 9.378906 5.570312 7.839844 L 5.570312 4.585938 C 5.574219 3.046875 6.820312 1.800781 8.355469 1.800781 L 11.613281 1.800781 C 13.152344 1.800781 14.398438 3.046875 14.398438 4.585938 L 14.398438 7.839844 C 14.398438 9.378906 13.152344 10.621094 11.613281 10.625 Z M 8.355469 3.757812 C 7.898438 3.757812 7.527344 4.128906 7.527344 4.585938 L 7.527344 7.839844 C 7.527344 8.296875 7.898438 8.667969 8.355469 8.667969 L 11.613281 8.667969 C 12.070312 8.667969 12.441406 8.296875 12.441406 7.839844 L 12.441406 4.585938 C 12.441406 4.128906 12.070312 3.757812 11.613281 3.757812 Z M 8.355469 3.757812 "/>
</g>
</svg>
