<?xml version="1.0" encoding="UTF-8"?><svg xmlns="http://www.w3.org/2000/svg" viewBox="0 0 56.33 56.53" width="20px" height="20px"><defs><style>.cls-1{fill:#fff;}.cls-2{fill:#e0bae2;}.cls-3{fill:#c3c;}</style></defs><g id="Backgrounds"><g><rect class="cls-1" x="1.17" y="1.19" width="54" height="54" rx="11" ry="11"/><path class="cls-1" d="M44.17,2.19c5.51,0,10,4.49,10,10V44.19c0,5.51-4.49,10-10,10H12.17c-5.51,0-10-4.49-10-10V12.19C2.17,6.68,6.65,2.19,12.17,2.19H44.17m0-2H12.17C5.57,.19,.17,5.59,.17,12.19V44.19c0,6.6,5.4,12,12,12H44.17c6.6,0,12-5.4,12-12V12.19C56.17,5.59,50.77,.19,44.17,.19h0Z"/></g><g><rect class="cls-1" x="1.2" y="1.29" width="53.88" height="53.88" rx="3.24" ry="3.24"/><path class="cls-1" d="M51.84,2.29c1.24,0,2.24,1.01,2.24,2.24V51.93c0,1.24-1.01,2.24-2.24,2.24H4.44c-1.24,0-2.24-1.01-2.24-2.24V4.53c0-1.24,1.01-2.24,2.24-2.24H51.84m0-2H4.44C2.1,.29,.2,2.19,.2,4.53V51.93c0,2.34,1.9,4.24,4.24,4.24H51.84c2.34,0,4.24-1.9,4.24-4.24V4.53c0-2.34-1.9-4.24-4.24-4.24h0Z"/></g></g><g id="Layer_169"><g><path class="cls-3" d="M51.27,47.21l-15.09-15.09c-2.66-2.66-6.78,1.46-4.12,4.12l15.09,15.09c2.66,2.66,6.78-1.46,4.12-4.12h0Z"/><path class="cls-3" d="M36.18,51.33l15.09-15.09c2.66-2.66-1.46-6.78-4.12-4.12l-15.09,15.09c-2.66,2.66,1.46,6.78,4.12,4.12h0Z"/></g><g><rect class="cls-2" x="9.83" y="9.86" width="18.68" height="16.99"/><path class="cls-3" d="M24.52,33.22H13.81c-5.05,0-9.16-4.11-9.16-9.16V13.35c0-5.05,4.11-9.16,9.16-9.16h10.71c5.05,0,9.16,4.11,9.16,9.16v10.71c0,5.05-4.11,9.16-9.16,9.16ZM13.81,10.63c-1.5,0-2.72,1.22-2.72,2.72v10.71c0,1.5,1.22,2.72,2.72,2.72h10.71c1.5,0,2.72-1.22,2.72-2.72V13.35c0-1.5-1.22-2.72-2.72-2.72H13.81Z"/></g></g></svg>