<?xml version="1.0" encoding="UTF-8"?>
<svg xmlns="http://www.w3.org/2000/svg" xmlns:xlink="http://www.w3.org/1999/xlink" width="20px" height="20px" viewBox="0 0 20 20" version="1.1">
<g id="surface1">
<path style=" stroke:none;fill-rule:nonzero;fill:rgb(100%,100%,100%);fill-opacity:1;" d="M 1.515625 0.355469 L 18.441406 0.355469 C 19.082031 0.355469 19.601562 0.875 19.601562 1.515625 L 19.601562 18.417969 C 19.601562 19.058594 19.082031 19.574219 18.441406 19.574219 L 1.515625 19.574219 C 0.875 19.574219 0.355469 19.058594 0.355469 18.417969 L 0.355469 1.515625 C 0.355469 0.875 0.875 0.355469 1.515625 0.355469 Z M 1.515625 0.355469 "/>
<path style=" stroke:none;fill-rule:nonzero;fill:rgb(9.803922%,52.156863%,58.823529%);fill-opacity:1;" d="M 18.441406 0.714844 C 18.882812 0.714844 19.242188 1.074219 19.242188 1.515625 L 19.242188 18.417969 C 19.242188 18.859375 18.882812 19.214844 18.441406 19.21875 L 1.515625 19.21875 C 1.300781 19.222656 1.09375 19.140625 0.9375 18.988281 C 0.785156 18.839844 0.699219 18.632812 0.699219 18.417969 L 0.699219 1.515625 C 0.699219 1.300781 0.785156 1.09375 0.9375 0.945312 C 1.09375 0.792969 1.300781 0.710938 1.515625 0.714844 L 18.441406 0.714844 M 18.441406 0 L 1.515625 0 C 1.109375 -0.00390625 0.722656 0.152344 0.433594 0.4375 C 0.148438 0.722656 -0.015625 1.109375 -0.015625 1.515625 L -0.015625 18.417969 C -0.015625 19.253906 0.664062 19.933594 1.5 19.933594 L 18.429688 19.933594 C 19.265625 19.933594 19.941406 19.253906 19.941406 18.417969 L 19.941406 1.515625 C 19.941406 0.683594 19.273438 0.0078125 18.441406 0 Z M 18.441406 0 "/>
<path style=" stroke:none;fill-rule:nonzero;fill:rgb(9.803922%,52.156863%,58.823529%);fill-opacity:1;" d="M 18.019531 5.023438 L 14.003906 2.378906 C 13.953125 2.320312 13.878906 2.285156 13.800781 2.285156 C 13.722656 2.285156 13.648438 2.320312 13.597656 2.378906 C 13.539062 2.4375 13.511719 2.515625 13.511719 2.597656 L 13.511719 3.996094 L 8.914062 3.996094 C 8.835938 3.996094 8.761719 4.03125 8.710938 4.089844 C 8.65625 4.148438 8.625 4.226562 8.625 4.308594 L 8.625 5.679688 C 8.625 5.757812 8.65625 5.835938 8.710938 5.894531 C 8.761719 5.957031 8.835938 5.988281 8.914062 5.988281 L 13.519531 5.988281 L 13.519531 7.390625 C 13.519531 7.46875 13.550781 7.550781 13.605469 7.605469 C 13.65625 7.667969 13.730469 7.699219 13.8125 7.699219 C 13.890625 7.699219 13.964844 7.667969 14.015625 7.605469 L 18.03125 5.464844 C 18.144531 5.339844 18.144531 5.152344 18.03125 5.027344 Z M 18.019531 5.023438 "/>
<path style=" stroke:none;fill-rule:nonzero;fill:rgb(9.803922%,52.156863%,58.823529%);fill-opacity:1;" d="M 6.6875 9.886719 C 6.132812 9.601562 5.566406 9.347656 4.984375 9.121094 C 4.65625 8.992188 4.34375 8.820312 4.0625 8.605469 C 3.808594 8.433594 3.671875 8.128906 3.714844 7.828125 C 3.757812 7.523438 3.96875 7.269531 4.261719 7.175781 C 4.441406 7.101562 4.632812 7.058594 4.828125 7.058594 C 5.566406 7.011719 6.304688 7.15625 6.972656 7.480469 C 7.308594 7.644531 7.417969 7.589844 7.53125 7.238281 C 7.644531 6.890625 7.75 6.492188 7.859375 6.117188 C 7.902344 6.015625 7.898438 5.898438 7.851562 5.800781 C 7.800781 5.699219 7.714844 5.625 7.605469 5.597656 C 7.179688 5.40625 6.726562 5.273438 6.265625 5.195312 C 5.652344 5.101562 5.652344 5.101562 5.648438 4.480469 C 5.648438 3.617188 5.648438 3.617188 4.78125 3.617188 L 4.402344 3.617188 C 4 3.617188 3.933594 3.699219 3.921875 4.109375 C 3.921875 4.292969 3.921875 4.46875 3.921875 4.660156 C 3.921875 5.199219 3.921875 5.191406 3.394531 5.375 C 2.128906 5.835938 1.363281 6.691406 1.277344 8.0625 C 1.207031 9.269531 1.839844 10.089844 2.84375 10.679688 C 3.472656 11.007812 4.121094 11.300781 4.785156 11.550781 C 5.042969 11.652344 5.285156 11.792969 5.5 11.96875 C 5.792969 12.175781 5.945312 12.53125 5.894531 12.886719 C 5.847656 13.242188 5.605469 13.542969 5.269531 13.664062 C 4.875 13.832031 4.445312 13.890625 4.023438 13.828125 C 3.363281 13.753906 2.71875 13.5625 2.125 13.261719 C 1.769531 13.078125 1.671875 13.125 1.550781 13.507812 C 1.449219 13.832031 1.355469 14.164062 1.269531 14.496094 C 1.144531 14.9375 1.1875 15.046875 1.625 15.253906 C 2.160156 15.5 2.726562 15.667969 3.308594 15.75 C 3.769531 15.824219 3.78125 15.847656 3.789062 16.324219 C 3.789062 16.539062 3.789062 16.761719 3.789062 16.976562 C 3.773438 17.089844 3.8125 17.210938 3.894531 17.292969 C 3.972656 17.378906 4.089844 17.425781 4.207031 17.414062 C 4.523438 17.414062 4.851562 17.414062 5.167969 17.414062 C 5.28125 17.429688 5.390625 17.386719 5.46875 17.308594 C 5.546875 17.226562 5.582031 17.113281 5.5625 17 C 5.5625 16.703125 5.5625 16.402344 5.5625 16.105469 C 5.546875 15.980469 5.578125 15.855469 5.652344 15.753906 C 5.730469 15.652344 5.84375 15.585938 5.972656 15.570312 C 6.628906 15.402344 7.21875 15.027344 7.648438 14.5 C 8.226562 13.789062 8.449219 12.859375 8.261719 11.964844 C 8.074219 11.070312 7.492188 10.308594 6.679688 9.894531 Z M 6.6875 9.886719 "/>
<path style=" stroke:none;fill-rule:nonzero;fill:rgb(9.803922%,52.156863%,58.823529%);fill-opacity:1;" d="M 15.105469 17.675781 L 11.601562 17.675781 C 9.945312 17.671875 8.601562 16.332031 8.601562 14.675781 L 8.601562 11.167969 C 8.601562 9.511719 9.945312 8.167969 11.601562 8.167969 L 15.105469 8.167969 C 16.761719 8.167969 18.105469 9.511719 18.105469 11.167969 L 18.105469 14.675781 C 18.105469 16.332031 16.761719 17.671875 15.105469 17.675781 Z M 11.601562 10.273438 C 11.105469 10.273438 10.707031 10.675781 10.707031 11.167969 L 10.707031 14.675781 C 10.707031 15.167969 11.105469 15.566406 11.601562 15.566406 L 15.105469 15.566406 C 15.601562 15.566406 16 15.167969 16 14.675781 L 16 11.167969 C 16 10.675781 15.601562 10.273438 15.105469 10.273438 Z M 11.601562 10.273438 "/>
</g>
</svg>
