<?xml version="1.0" encoding="UTF-8"?>
<svg xmlns="http://www.w3.org/2000/svg" xmlns:xlink="http://www.w3.org/1999/xlink" width="20px" height="20px" viewBox="0 0 20 20" version="1.1">
<g id="surface1">
<path style=" stroke:none;fill-rule:nonzero;fill:rgb(100%,100%,100%);fill-opacity:1;" d="M 1.515625 0.355469 L 18.441406 0.355469 C 19.082031 0.355469 19.601562 0.875 19.601562 1.515625 L 19.601562 18.417969 C 19.601562 19.058594 19.082031 19.574219 18.441406 19.574219 L 1.515625 19.574219 C 0.875 19.574219 0.355469 19.058594 0.355469 18.417969 L 0.355469 1.515625 C 0.355469 0.875 0.875 0.355469 1.515625 0.355469 Z M 1.515625 0.355469 "/>
<path style=" stroke:none;fill-rule:nonzero;fill:rgb(9.803922%,52.156863%,58.823529%);fill-opacity:1;" d="M 18.441406 0.714844 C 18.882812 0.714844 19.242188 1.074219 19.242188 1.515625 L 19.242188 18.417969 C 19.242188 18.859375 18.882812 19.214844 18.441406 19.21875 L 1.515625 19.21875 C 1.300781 19.222656 1.09375 19.140625 0.9375 18.988281 C 0.785156 18.839844 0.699219 18.632812 0.699219 18.417969 L 0.699219 1.515625 C 0.699219 1.300781 0.785156 1.09375 0.9375 0.945312 C 1.09375 0.792969 1.300781 0.710938 1.515625 0.714844 L 18.441406 0.714844 M 18.441406 0 L 1.515625 0 C 1.109375 -0.00390625 0.722656 0.152344 0.433594 0.4375 C 0.148438 0.722656 -0.015625 1.109375 -0.015625 1.515625 L -0.015625 18.417969 C -0.015625 19.253906 0.664062 19.933594 1.5 19.933594 L 18.429688 19.933594 C 19.265625 19.933594 19.941406 19.253906 19.941406 18.417969 L 19.941406 1.515625 C 19.941406 0.683594 19.273438 0.0078125 18.441406 0 Z M 18.441406 0 "/>
<path style=" stroke:none;fill-rule:nonzero;fill:rgb(9.803922%,52.156863%,58.823529%);fill-opacity:1;" d="M 6.984375 13.015625 C 6.519531 12.796875 6.042969 12.601562 5.558594 12.429688 C 5.277344 12.332031 5.011719 12.199219 4.769531 12.03125 C 4.300781 11.695312 4.390625 11.148438 4.9375 10.933594 C 5.09375 10.875 5.257812 10.84375 5.421875 10.84375 C 6.046875 10.808594 6.667969 10.917969 7.242188 11.164062 C 7.527344 11.289062 7.625 11.25 7.722656 10.980469 C 7.816406 10.714844 7.90625 10.410156 8.003906 10.121094 C 8.066406 9.933594 8.003906 9.804688 7.785156 9.722656 C 7.417969 9.574219 7.03125 9.472656 6.640625 9.414062 C 6.117188 9.34375 6.117188 9.339844 6.113281 8.871094 C 6.113281 8.207031 6.113281 8.207031 5.375 8.207031 L 5.054688 8.207031 C 4.695312 8.207031 4.648438 8.269531 4.640625 8.585938 C 4.640625 8.726562 4.640625 8.863281 4.640625 9.007812 C 4.640625 9.421875 4.640625 9.414062 4.191406 9.5625 C 3.121094 9.917969 2.460938 10.5625 2.390625 11.613281 C 2.3125 12.542969 2.84375 13.179688 3.695312 13.628906 C 4.230469 13.882812 4.78125 14.105469 5.34375 14.296875 C 5.558594 14.375 5.761719 14.480469 5.945312 14.613281 C 6.191406 14.765625 6.324219 15.046875 6.28125 15.332031 C 6.238281 15.617188 6.03125 15.847656 5.75 15.917969 C 5.410156 16.050781 5.039062 16.09375 4.679688 16.042969 C 4.125 15.984375 3.585938 15.835938 3.078125 15.605469 C 2.777344 15.46875 2.691406 15.507812 2.589844 15.796875 C 2.484375 16.085938 2.425781 16.300781 2.347656 16.554688 C 2.242188 16.910156 2.277344 16.980469 2.644531 17.136719 C 3.109375 17.328125 3.601562 17.453125 4.105469 17.515625 C 4.496094 17.566406 4.507812 17.585938 4.515625 17.953125 C 4.515625 18.117188 4.515625 18.285156 4.515625 18.453125 C 4.507812 18.546875 4.542969 18.640625 4.613281 18.707031 C 4.683594 18.773438 4.777344 18.800781 4.871094 18.789062 C 5.144531 18.789062 5.421875 18.789062 5.691406 18.789062 C 5.964844 18.789062 6.03125 18.679688 6.03125 18.476562 C 6.03125 18.269531 6.03125 18.019531 6.03125 17.789062 C 6.03125 17.5625 6.132812 17.433594 6.390625 17.378906 C 6.9375 17.253906 7.4375 16.964844 7.816406 16.554688 C 8.855469 15.414062 8.460938 13.75 6.988281 13.019531 Z M 6.984375 13.015625 "/>
<path style=" stroke:none;fill-rule:nonzero;fill:rgb(9.803922%,52.156863%,58.823529%);fill-opacity:1;" d="M 17.683594 4.804688 L 15.734375 4.804688 C 15.875 4.511719 15.984375 4.207031 16.058594 3.894531 C 16.191406 3.359375 16.25 2.8125 16.238281 2.265625 L 16.191406 1.191406 L 15.660156 2.140625 C 15.398438 2.605469 15.054688 3.019531 14.648438 3.367188 C 14.335938 3.628906 13.984375 3.839844 13.605469 3.996094 C 13.398438 4.082031 13.1875 4.148438 12.96875 4.199219 L 10.515625 4.199219 C 9.363281 3.929688 8.382812 3.179688 7.820312 2.140625 L 7.289062 1.203125 L 7.242188 2.273438 C 7.234375 2.820312 7.292969 3.363281 7.425781 3.894531 C 7.5 4.203125 7.609375 4.503906 7.746094 4.789062 L 5.804688 4.789062 L 5.804688 5.097656 C 5.816406 5.71875 6.054688 6.316406 6.480469 6.773438 C 6.9375 7.230469 7.550781 7.5 8.199219 7.53125 C 8.15625 8.25 8.296875 8.964844 8.613281 9.605469 C 9.121094 10.46875 9.25 13.019531 9.253906 13.933594 L 9.253906 14.011719 L 9.292969 14.078125 C 9.421875 14.253906 9.609375 14.382812 9.820312 14.4375 C 10.445312 14.625 11.09375 14.707031 11.742188 14.683594 C 12.394531 14.707031 13.042969 14.625 13.664062 14.4375 C 13.875 14.382812 14.0625 14.253906 14.191406 14.078125 L 14.230469 14.011719 L 14.230469 13.933594 C 14.230469 13.019531 14.355469 10.46875 14.867188 9.605469 C 15.1875 8.960938 15.332031 8.238281 15.285156 7.519531 C 15.933594 7.492188 16.546875 7.226562 17.011719 6.773438 C 17.433594 6.316406 17.675781 5.71875 17.6875 5.097656 Z M 8.457031 4.804688 C 8.195312 4.363281 8.023438 3.878906 7.949219 3.375 C 8.105469 3.546875 8.269531 3.710938 8.449219 3.855469 C 8.710938 4.074219 8.996094 4.261719 9.296875 4.414062 C 9.085938 4.519531 8.890625 4.652344 8.710938 4.804688 Z M 9.144531 8.894531 C 8.898438 8.722656 8.832031 8.386719 8.996094 8.136719 C 9.109375 7.855469 9.425781 7.714844 9.710938 7.824219 C 9.960938 7.996094 10.027344 8.332031 9.859375 8.585938 C 9.746094 8.863281 9.429688 9 9.144531 8.894531 Z M 13.609375 13.804688 C 13.4375 13.894531 13.25 13.957031 13.058594 13.984375 C 12.757812 13.585938 12.269531 13.367188 11.769531 13.40625 C 11.265625 13.363281 10.769531 13.582031 10.464844 13.984375 C 10.269531 13.957031 10.078125 13.894531 9.902344 13.804688 C 9.902344 13.675781 9.902344 13.472656 9.882812 13.214844 C 10.335938 12.816406 11.144531 11.855469 11.175781 10.03125 C 11.21875 7.503906 9.539062 7.125 10.160156 6.164062 C 10.46875 5.578125 11.132812 5.269531 11.777344 5.410156 C 12.425781 5.269531 13.085938 5.578125 13.394531 6.164062 C 14.015625 7.125 12.320312 7.503906 12.378906 10.03125 C 12.40625 11.839844 13.203125 12.800781 13.65625 13.199219 C 13.65625 13.464844 13.640625 13.675781 13.640625 13.804688 Z M 14.355469 8.894531 C 14.070312 9.003906 13.75 8.867188 13.640625 8.585938 C 13.503906 8.429688 13.476562 8.210938 13.570312 8.027344 C 13.667969 7.84375 13.867188 7.738281 14.070312 7.765625 C 14.273438 7.789062 14.441406 7.9375 14.492188 8.136719 C 14.660156 8.382812 14.597656 8.71875 14.355469 8.894531 Z M 15.023438 4.8125 L 14.773438 4.8125 C 14.59375 4.660156 14.398438 4.53125 14.1875 4.425781 C 14.488281 4.269531 14.773438 4.085938 15.03125 3.867188 C 15.210938 3.722656 15.378906 3.558594 15.53125 3.386719 C 15.457031 3.890625 15.285156 4.375 15.023438 4.8125 Z M 15.023438 4.8125 "/>
</g>
</svg>
