<?xml version="1.0" encoding="UTF-8"?>
<svg xmlns="http://www.w3.org/2000/svg" xmlns:xlink="http://www.w3.org/1999/xlink" width="20px" height="20px" viewBox="0 0 20 20" version="1.1">
<g id="surface1">
<path style=" stroke:none;fill-rule:nonzero;fill:rgb(100%,100%,100%);fill-opacity:1;" d="M 1.515625 0.355469 L 18.441406 0.355469 C 19.082031 0.355469 19.601562 0.875 19.601562 1.515625 L 19.601562 18.417969 C 19.601562 19.058594 19.082031 19.574219 18.441406 19.574219 L 1.515625 19.574219 C 0.875 19.574219 0.355469 19.058594 0.355469 18.417969 L 0.355469 1.515625 C 0.355469 0.875 0.875 0.355469 1.515625 0.355469 Z M 1.515625 0.355469 "/>
<path style=" stroke:none;fill-rule:nonzero;fill:rgb(9.803922%,52.156863%,58.823529%);fill-opacity:1;" d="M 18.441406 0.714844 C 18.882812 0.714844 19.242188 1.074219 19.242188 1.515625 L 19.242188 18.417969 C 19.242188 18.859375 18.882812 19.214844 18.441406 19.21875 L 1.515625 19.21875 C 1.300781 19.222656 1.09375 19.140625 0.9375 18.988281 C 0.785156 18.839844 0.699219 18.632812 0.699219 18.417969 L 0.699219 1.515625 C 0.699219 1.300781 0.785156 1.09375 0.9375 0.945312 C 1.09375 0.792969 1.300781 0.710938 1.515625 0.714844 L 18.441406 0.714844 M 18.441406 0 L 1.515625 0 C 1.109375 -0.00390625 0.722656 0.152344 0.433594 0.4375 C 0.148438 0.722656 -0.015625 1.109375 -0.015625 1.515625 L -0.015625 18.417969 C -0.015625 19.253906 0.664062 19.933594 1.5 19.933594 L 18.429688 19.933594 C 19.265625 19.933594 19.941406 19.253906 19.941406 18.417969 L 19.941406 1.515625 C 19.941406 0.683594 19.273438 0.0078125 18.441406 0 Z M 18.441406 0 "/>
<path style=" stroke:none;fill-rule:nonzero;fill:rgb(9.803922%,52.156863%,58.823529%);fill-opacity:1;" d="M 14.355469 9.855469 C 14.941406 9.304688 17.273438 9.125 17.980469 9.082031 C 18.070312 9.078125 18.164062 9.113281 18.230469 9.175781 C 18.300781 9.242188 18.339844 9.332031 18.339844 9.425781 L 18.339844 16.234375 C 18.328125 16.425781 18.171875 16.574219 17.980469 16.574219 L 15.953125 16.574219 C 15.804688 16.574219 15.675781 16.480469 15.632812 16.339844 C 15.582031 16.1875 14.40625 11.902344 14.253906 10.136719 C 14.246094 10.03125 14.285156 9.929688 14.355469 9.855469 Z M 14.355469 9.855469 "/>
<path style=" stroke:none;fill-rule:nonzero;fill:rgb(9.803922%,52.156863%,58.823529%);fill-opacity:1;" d="M 4.035156 13.515625 L 6.414062 14.53125 C 7.070312 14.5625 8.445312 14.53125 8.796875 14.53125 C 9.144531 14.53125 10.910156 13.96875 10.636719 13.855469 C 10.476562 13.828125 10.316406 13.828125 10.15625 13.855469 C 8.605469 13.984375 6.070312 14.300781 6.070312 13.175781 C 6.070312 12.050781 8.8125 11.8125 9.480469 11.8125 C 10.144531 11.8125 11.265625 11.21875 12.203125 11.132812 C 12.578125 11.101562 13.101562 11.046875 13.632812 11.015625 C 13.917969 12.585938 14.308594 14.136719 14.800781 15.65625 L 11.1875 17.261719 C 9.835938 17.769531 8.917969 18.425781 6.078125 17.261719 C 6.078125 17.261719 1.992188 15.523438 1.992188 14.535156 C 1.992188 13.71875 2.929688 13.132812 4.035156 13.515625 Z M 4.035156 13.515625 "/>
<path style=" stroke:none;fill-rule:nonzero;fill:rgb(9.803922%,52.156863%,58.823529%);fill-opacity:1;" d="M 6.945312 6.257812 C 6.515625 6.054688 6.070312 5.875 5.621094 5.71875 C 5.367188 5.628906 5.128906 5.511719 4.90625 5.359375 C 4.476562 5.050781 4.550781 4.550781 5.0625 4.351562 C 5.203125 4.292969 5.347656 4.257812 5.496094 4.25 C 6.070312 4.21875 6.640625 4.320312 7.167969 4.546875 C 7.433594 4.660156 7.523438 4.625 7.605469 4.378906 C 7.6875 4.132812 7.78125 3.855469 7.867188 3.589844 C 7.925781 3.410156 7.867188 3.296875 7.667969 3.230469 C 7.324219 3.09375 6.964844 3 6.597656 2.949219 C 6.117188 2.882812 6.117188 2.882812 6.113281 2.449219 C 6.113281 1.839844 6.113281 1.839844 5.4375 1.839844 L 5.140625 1.839844 C 4.820312 1.839844 4.78125 1.898438 4.761719 2.195312 C 4.761719 2.324219 4.761719 2.453125 4.761719 2.582031 C 4.761719 2.964844 4.761719 2.960938 4.351562 3.09375 C 3.382812 3.402344 2.769531 4.003906 2.707031 4.964844 C 2.648438 5.820312 3.144531 6.394531 3.914062 6.816406 C 4.410156 7.054688 4.917969 7.257812 5.4375 7.433594 C 5.632812 7.503906 5.820312 7.605469 5.992188 7.730469 C 6.222656 7.863281 6.34375 8.125 6.304688 8.386719 C 6.265625 8.652344 6.070312 8.863281 5.8125 8.925781 C 5.5 9.042969 5.164062 9.082031 4.832031 9.039062 C 4.320312 8.988281 3.816406 8.851562 3.347656 8.640625 C 3.070312 8.511719 2.988281 8.542969 2.894531 8.8125 C 2.804688 9.078125 2.742188 9.273438 2.671875 9.507812 C 2.578125 9.820312 2.613281 9.894531 2.945312 10.042969 C 3.375 10.222656 3.824219 10.339844 4.285156 10.398438 C 4.644531 10.449219 4.644531 10.464844 4.664062 10.804688 C 4.664062 10.953125 4.664062 11.109375 4.664062 11.261719 C 4.65625 11.347656 4.691406 11.433594 4.753906 11.492188 C 4.816406 11.554688 4.902344 11.582031 4.988281 11.570312 C 5.242188 11.570312 5.492188 11.570312 5.742188 11.570312 C 5.992188 11.570312 6.054688 11.46875 6.054688 11.28125 C 6.054688 11.097656 6.054688 10.859375 6.054688 10.652344 C 6.054688 10.445312 6.144531 10.332031 6.371094 10.273438 C 6.875 10.160156 7.335938 9.898438 7.6875 9.519531 C 8.644531 8.472656 8.28125 6.941406 6.929688 6.269531 Z M 6.945312 6.257812 "/>
</g>
</svg>
