<?xml version="1.0" encoding="UTF-8"?>
<svg xmlns="http://www.w3.org/2000/svg" xmlns:xlink="http://www.w3.org/1999/xlink" width="20px" height="20px" viewBox="0 0 20 20" version="1.1">
<g id="surface1">
<path style=" stroke:none;fill-rule:nonzero;fill:rgb(100%,100%,100%);fill-opacity:1;" d="M 1.785156 0.355469 L 18.214844 0.355469 C 19.003906 0.355469 19.644531 0.996094 19.644531 1.785156 L 19.644531 18.214844 C 19.644531 19.003906 19.003906 19.644531 18.214844 19.644531 L 1.785156 19.644531 C 0.996094 19.644531 0.355469 19.003906 0.355469 18.214844 L 0.355469 1.785156 C 0.355469 0.996094 0.996094 0.355469 1.785156 0.355469 Z M 1.785156 0.355469 "/>
<path style=" stroke:none;fill-rule:nonzero;fill:rgb(80%,20%,80%);fill-opacity:1;" d="M 18.214844 0.714844 C 18.804688 0.714844 19.285156 1.195312 19.285156 1.785156 L 19.285156 18.214844 C 19.285156 18.804688 18.804688 19.285156 18.214844 19.285156 L 1.785156 19.285156 C 1.195312 19.285156 0.714844 18.804688 0.714844 18.214844 L 0.714844 1.785156 C 0.714844 1.195312 1.195312 0.714844 1.785156 0.714844 L 18.214844 0.714844 M 18.214844 0 L 1.785156 0 C 0.800781 0 0 0.800781 0 1.785156 L 0 18.214844 C 0 19.199219 0.800781 20 1.785156 20 L 18.214844 20 C 19.199219 20 20 19.199219 20 18.214844 L 20 1.785156 C 20 0.800781 19.199219 0 18.214844 0 Z M 18.214844 0 "/>
<path style=" stroke:none;fill-rule:nonzero;fill:rgb(80%,20%,80%);fill-opacity:1;" d="M 17.652344 5.867188 L 15.105469 5.867188 C 15.285156 5.492188 15.425781 5.097656 15.523438 4.6875 C 15.695312 3.988281 15.777344 3.269531 15.765625 2.546875 L 15.714844 1.144531 L 15 2.371094 C 14.65625 2.980469 14.207031 3.523438 13.675781 3.980469 C 13.265625 4.324219 12.800781 4.601562 12.308594 4.808594 C 12.035156 4.917969 11.753906 5.007812 11.46875 5.070312 L 8.253906 5.070312 C 6.742188 4.722656 5.457031 3.738281 4.726562 2.371094 L 4.011719 1.144531 L 3.949219 2.570312 C 3.933594 3.292969 4.011719 4.015625 4.1875 4.714844 C 4.285156 5.121094 4.425781 5.515625 4.605469 5.894531 L 2.074219 5.894531 L 2.074219 6.292969 C 2.089844 7.109375 2.40625 7.894531 2.960938 8.492188 C 3.570312 9.085938 4.375 9.433594 5.226562 9.46875 C 5.226562 10.6875 5.402344 11.589844 5.769531 12.210938 C 6.429688 13.3125 6.59375 16.660156 6.605469 17.855469 L 6.605469 17.960938 L 6.648438 18.050781 C 6.816406 18.289062 7.0625 18.460938 7.347656 18.535156 C 8.160156 18.785156 9.011719 18.894531 9.863281 18.859375 C 10.714844 18.898438 11.566406 18.785156 12.382812 18.535156 C 12.664062 18.460938 12.914062 18.289062 13.078125 18.050781 L 13.128906 17.960938 L 13.128906 17.855469 C 13.128906 16.664062 13.300781 13.3125 13.96875 12.1875 C 14.324219 11.566406 14.515625 10.667969 14.515625 9.445312 C 15.367188 9.414062 16.175781 9.066406 16.785156 8.46875 C 17.339844 7.867188 17.65625 7.085938 17.671875 6.269531 Z M 5.558594 5.867188 C 5.21875 5.289062 4.992188 4.65625 4.890625 3.992188 C 5.09375 4.214844 5.3125 4.425781 5.546875 4.621094 C 5.886719 4.90625 6.261719 5.152344 6.65625 5.355469 C 6.382812 5.496094 6.125 5.667969 5.890625 5.871094 Z M 6.457031 11.226562 C 6.300781 11.117188 6.191406 10.953125 6.15625 10.769531 C 6.117188 10.582031 6.15625 10.390625 6.265625 10.230469 C 6.332031 10.054688 6.46875 9.910156 6.644531 9.835938 C 6.816406 9.757812 7.015625 9.753906 7.191406 9.824219 C 7.351562 9.929688 7.460938 10.097656 7.496094 10.28125 C 7.535156 10.46875 7.492188 10.664062 7.386719 10.820312 C 7.316406 11 7.179688 11.140625 7.003906 11.214844 C 6.832031 11.292969 6.632812 11.296875 6.457031 11.226562 Z M 12.3125 17.679688 C 12.089844 17.796875 11.847656 17.878906 11.601562 17.917969 C 11.386719 17.597656 10.90625 17.164062 9.894531 17.15625 L 9.875 17.15625 C 8.859375 17.15625 8.378906 17.601562 8.164062 17.921875 C 7.90625 17.882812 7.65625 17.800781 7.425781 17.679688 C 7.425781 17.511719 7.425781 17.242188 7.398438 16.902344 C 7.992188 16.386719 9.058594 15.117188 9.097656 12.734375 C 9.148438 9.417969 6.953125 8.921875 7.765625 7.65625 C 8.574219 6.394531 9.476562 6.671875 9.886719 6.671875 C 10.296875 6.671875 11.1875 6.398438 12.003906 7.65625 C 12.816406 8.914062 10.617188 9.417969 10.671875 12.734375 C 10.710938 15.105469 11.742188 16.359375 12.351562 16.890625 C 12.351562 17.246094 12.328125 17.507812 12.324219 17.679688 Z M 13.289062 11.214844 C 13.113281 11.285156 12.914062 11.28125 12.742188 11.207031 C 12.566406 11.128906 12.429688 10.988281 12.359375 10.8125 C 12.253906 10.652344 12.214844 10.460938 12.25 10.273438 C 12.285156 10.085938 12.394531 9.921875 12.554688 9.8125 C 12.730469 9.746094 12.929688 9.75 13.101562 9.824219 C 13.277344 9.902344 13.414062 10.042969 13.480469 10.222656 C 13.589844 10.378906 13.628906 10.570312 13.589844 10.757812 C 13.554688 10.945312 13.445312 11.109375 13.289062 11.214844 Z M 14.171875 5.855469 L 13.839844 5.855469 C 13.605469 5.660156 13.347656 5.492188 13.070312 5.355469 C 13.464844 5.15625 13.839844 4.910156 14.179688 4.625 C 14.414062 4.429688 14.632812 4.222656 14.835938 3.996094 C 14.738281 4.660156 14.511719 5.296875 14.171875 5.871094 Z M 14.171875 5.855469 "/>
</g>
</svg>
