<?xml version="1.0" encoding="UTF-8"?>
<svg xmlns="http://www.w3.org/2000/svg" xmlns:xlink="http://www.w3.org/1999/xlink" width="20px" height="20px" viewBox="0 0 20 20" version="1.1">
<g id="surface1">
<path style=" stroke:none;fill-rule:nonzero;fill:rgb(100%,100%,100%);fill-opacity:1;" d="M 1.515625 0.355469 L 18.441406 0.355469 C 19.082031 0.355469 19.601562 0.875 19.601562 1.515625 L 19.601562 18.417969 C 19.601562 19.058594 19.082031 19.574219 18.441406 19.574219 L 1.515625 19.574219 C 0.875 19.574219 0.355469 19.058594 0.355469 18.417969 L 0.355469 1.515625 C 0.355469 0.875 0.875 0.355469 1.515625 0.355469 Z M 1.515625 0.355469 "/>
<path style=" stroke:none;fill-rule:nonzero;fill:rgb(9.803922%,52.156863%,58.823529%);fill-opacity:1;" d="M 18.441406 0.714844 C 18.882812 0.714844 19.242188 1.074219 19.242188 1.515625 L 19.242188 18.417969 C 19.242188 18.859375 18.882812 19.214844 18.441406 19.21875 L 1.515625 19.21875 C 1.300781 19.222656 1.09375 19.140625 0.9375 18.988281 C 0.785156 18.839844 0.699219 18.632812 0.699219 18.417969 L 0.699219 1.515625 C 0.699219 1.300781 0.785156 1.09375 0.9375 0.945312 C 1.09375 0.792969 1.300781 0.710938 1.515625 0.714844 L 18.441406 0.714844 M 18.441406 0 L 1.515625 0 C 1.109375 -0.00390625 0.722656 0.152344 0.433594 0.4375 C 0.148438 0.722656 -0.015625 1.109375 -0.015625 1.515625 L -0.015625 18.417969 C -0.015625 19.253906 0.664062 19.933594 1.5 19.933594 L 18.429688 19.933594 C 19.265625 19.933594 19.941406 19.253906 19.941406 18.417969 L 19.941406 1.515625 C 19.941406 0.683594 19.273438 0.0078125 18.441406 0 Z M 18.441406 0 "/>
<path style=" stroke:none;fill-rule:nonzero;fill:rgb(9.803922%,52.156863%,58.823529%);fill-opacity:1;" d="M 14.628906 9.371094 C 15.214844 8.8125 17.554688 8.636719 18.257812 8.597656 C 18.351562 8.59375 18.441406 8.625 18.511719 8.6875 C 18.578125 8.75 18.617188 8.839844 18.617188 8.9375 L 18.617188 15.761719 C 18.617188 15.957031 18.457031 16.117188 18.261719 16.117188 L 16.214844 16.117188 C 16.070312 16.113281 15.941406 16.019531 15.894531 15.882812 C 15.84375 15.730469 14.664062 11.4375 14.511719 9.660156 C 14.5 9.550781 14.542969 9.441406 14.628906 9.371094 Z M 14.628906 9.371094 "/>
<path style=" stroke:none;fill-rule:nonzero;fill:rgb(9.803922%,52.156863%,58.823529%);fill-opacity:1;" d="M 4.269531 13.039062 L 6.660156 14.058594 C 7.320312 14.089844 8.695312 14.058594 9.050781 14.058594 C 9.402344 14.058594 11.167969 13.492188 10.890625 13.382812 C 10.730469 13.355469 10.570312 13.355469 10.414062 13.382812 C 8.855469 13.515625 6.316406 13.824219 6.316406 12.699219 C 6.316406 11.574219 9.066406 11.335938 9.730469 11.335938 C 10.394531 11.335938 11.519531 10.738281 12.460938 10.652344 C 12.839844 10.617188 13.359375 10.566406 13.890625 10.53125 C 14.175781 12.105469 14.566406 13.65625 15.058594 15.175781 L 11.4375 16.789062 C 10.082031 17.304688 9.160156 17.957031 6.316406 16.789062 C 6.316406 16.789062 2.222656 15.054688 2.222656 14.0625 C 2.222656 13.238281 3.160156 12.652344 4.269531 13.039062 Z M 4.269531 13.039062 "/>
<path style=" stroke:none;fill-rule:nonzero;fill:rgb(9.803922%,52.156863%,58.823529%);fill-opacity:1;" d="M 5.855469 9.933594 C 5.855469 10.957031 5.023438 11.789062 3.996094 11.789062 C 2.972656 11.789062 2.140625 10.957031 2.140625 9.933594 C 2.140625 8.90625 2.972656 8.074219 3.996094 8.074219 C 5.023438 8.074219 5.855469 8.90625 5.855469 9.933594 Z M 5.855469 9.933594 "/>
<path style=" stroke:none;fill-rule:nonzero;fill:rgb(9.803922%,52.156863%,58.823529%);fill-opacity:1;" d="M 10.496094 8.597656 C 10.496094 9.621094 9.664062 10.453125 8.640625 10.453125 C 7.613281 10.453125 6.78125 9.621094 6.78125 8.597656 C 6.78125 7.570312 7.613281 6.738281 8.640625 6.738281 C 9.664062 6.738281 10.496094 7.570312 10.496094 8.597656 Z M 10.496094 8.597656 "/>
<path style=" stroke:none;fill-rule:nonzero;fill:rgb(9.803922%,52.156863%,58.823529%);fill-opacity:1;" d="M 7.042969 5.035156 C 7.042969 6.0625 6.210938 6.894531 5.1875 6.894531 C 4.160156 6.894531 3.328125 6.0625 3.328125 5.035156 C 3.328125 4.011719 4.160156 3.179688 5.1875 3.179688 C 6.210938 3.179688 7.042969 4.011719 7.042969 5.035156 Z M 7.042969 5.035156 "/>
</g>
</svg>
