<?xml version="1.0" encoding="UTF-8"?>
<svg xmlns="http://www.w3.org/2000/svg" xmlns:xlink="http://www.w3.org/1999/xlink" width="20px" height="20px" viewBox="0 0 20 20" version="1.1">
<g id="surface1">
<path style=" stroke:none;fill-rule:nonzero;fill:rgb(100%,100%,100%);fill-opacity:1;" d="M 1.515625 0.355469 L 18.441406 0.355469 C 19.082031 0.355469 19.601562 0.875 19.601562 1.515625 L 19.601562 18.417969 C 19.601562 19.058594 19.082031 19.574219 18.441406 19.574219 L 1.515625 19.574219 C 0.875 19.574219 0.355469 19.058594 0.355469 18.417969 L 0.355469 1.515625 C 0.355469 0.875 0.875 0.355469 1.515625 0.355469 Z M 1.515625 0.355469 "/>
<path style=" stroke:none;fill-rule:nonzero;fill:rgb(9.803922%,52.156863%,58.823529%);fill-opacity:1;" d="M 18.441406 0.714844 C 18.882812 0.714844 19.242188 1.074219 19.242188 1.515625 L 19.242188 18.417969 C 19.242188 18.859375 18.882812 19.214844 18.441406 19.21875 L 1.515625 19.21875 C 1.300781 19.222656 1.09375 19.140625 0.9375 18.988281 C 0.785156 18.839844 0.699219 18.632812 0.699219 18.417969 L 0.699219 1.515625 C 0.699219 1.300781 0.785156 1.09375 0.9375 0.945312 C 1.09375 0.792969 1.300781 0.710938 1.515625 0.714844 L 18.441406 0.714844 M 18.441406 0 L 1.515625 0 C 1.109375 -0.00390625 0.722656 0.152344 0.433594 0.4375 C 0.148438 0.722656 -0.015625 1.109375 -0.015625 1.515625 L -0.015625 18.417969 C -0.015625 19.253906 0.664062 19.933594 1.5 19.933594 L 18.429688 19.933594 C 19.265625 19.933594 19.941406 19.253906 19.941406 18.417969 L 19.941406 1.515625 C 19.941406 0.683594 19.273438 0.0078125 18.441406 0 Z M 18.441406 0 "/>
<path style=" stroke:none;fill-rule:nonzero;fill:rgb(9.803922%,52.156863%,58.823529%);fill-opacity:1;" d="M 17.484375 9.066406 L 16.566406 8.808594 C 16.367188 8.167969 15.855469 7.671875 15.207031 7.496094 C 15.230469 6.316406 14.492188 5.328125 13.472656 5.253906 C 12.621094 5.234375 11.859375 5.769531 11.585938 6.570312 C 11.308594 6.378906 10.980469 6.261719 10.644531 6.238281 C 10.015625 6.183594 9.40625 6.453125 9.023438 6.953125 C 8.824219 6.839844 8.605469 6.769531 8.375 6.75 C 8.1875 6.734375 8 6.75 7.816406 6.804688 L 7.328125 6.296875 C 7.445312 6.335938 7.5625 6.363281 7.6875 6.378906 C 8.269531 6.4375 9.617188 6.097656 9.675781 5.507812 C 9.730469 4.917969 8.488281 4.3125 7.890625 4.25 C 7.492188 4.234375 7.09375 4.296875 6.71875 4.4375 C 6.363281 4.050781 5.867188 3.832031 5.34375 3.832031 C 4.824219 3.832031 4.324219 4.050781 3.972656 4.4375 L 2.148438 6.445312 C 1.910156 6.707031 1.800781 7.058594 1.847656 7.410156 C 1.890625 7.761719 2.085938 8.078125 2.382812 8.269531 L 2.894531 8.628906 C 3.296875 8.886719 3.8125 8.886719 4.214844 8.628906 L 5.25 7.96875 L 5.894531 9.394531 C 5.894531 9.441406 5.894531 9.492188 5.875 9.539062 C 5.863281 9.714844 5.890625 9.894531 5.957031 10.058594 C 5.640625 10.261719 5.433594 10.601562 5.398438 10.980469 C 5.363281 11.617188 5.792969 12.1875 6.414062 12.335938 C 6.386719 12.4375 6.367188 12.542969 6.359375 12.648438 C 6.3125 13.558594 7.007812 14.335938 7.917969 14.390625 L 7.917969 16.75 C 7.917969 17.128906 8.226562 17.4375 8.605469 17.4375 C 8.980469 17.4375 9.289062 17.128906 9.289062 16.75 L 9.289062 13.894531 L 9.335938 13.847656 C 9.632812 14.183594 10.046875 14.390625 10.496094 14.417969 C 10.96875 14.457031 11.433594 14.296875 11.785156 13.980469 C 12.023438 14.109375 12.289062 14.1875 12.5625 14.207031 C 13.0625 14.253906 13.5625 14.089844 13.941406 13.757812 L 14.335938 14.449219 L 13.746094 16.558594 C 13.695312 16.734375 13.71875 16.921875 13.808594 17.082031 C 13.898438 17.242188 14.046875 17.359375 14.226562 17.40625 C 14.402344 17.457031 14.589844 17.433594 14.75 17.34375 C 14.910156 17.253906 15.027344 17.101562 15.074219 16.925781 L 15.742188 14.539062 C 15.800781 14.367188 15.785156 14.175781 15.699219 14.015625 L 15.34375 13.40625 C 16.253906 13.410156 17.003906 12.695312 17.039062 11.785156 C 17.078125 11.390625 16.984375 10.992188 16.769531 10.652344 L 17.027344 10.730469 C 17.105469 10.75 17.1875 10.761719 17.269531 10.761719 C 17.691406 10.746094 18.042969 10.429688 18.097656 10.007812 C 18.152344 9.585938 17.894531 9.1875 17.484375 9.066406 Z M 4.726562 5.898438 C 4.5625 5.886719 4.425781 5.777344 4.378906 5.621094 C 4.328125 5.464844 4.378906 5.296875 4.503906 5.191406 C 4.628906 5.089844 4.804688 5.070312 4.949219 5.148438 C 5.089844 5.226562 5.175781 5.382812 5.15625 5.542969 C 5.132812 5.761719 4.941406 5.917969 4.726562 5.898438 Z M 14.886719 11.773438 L 14.394531 11.851562 L 14.183594 11.898438 L 13.976562 11.945312 C 13.726562 11.777344 13.503906 11.574219 13.3125 11.34375 C 13.113281 11.128906 12.90625 10.925781 12.6875 10.734375 C 12.53125 11.003906 12.402344 11.285156 12.296875 11.574219 C 12.214844 11.847656 12.097656 12.105469 11.9375 12.34375 L 11.058594 12.511719 C 10.972656 12.511719 10.925781 12.511719 10.917969 12.472656 L 10.746094 11.59375 C 10.84375 11.273438 10.980469 10.964844 11.152344 10.679688 C 11.308594 10.394531 11.445312 10.101562 11.5625 9.800781 C 11.375 9.574219 11.160156 9.367188 10.933594 9.183594 L 10.175781 8.5 C 10.089844 8.332031 10.039062 8.148438 10.019531 7.960938 C 9.988281 7.816406 9.976562 7.667969 9.984375 7.519531 C 10.003906 7.464844 10.078125 7.421875 10.21875 7.394531 L 10.359375 7.363281 L 10.546875 7.335938 L 10.769531 7.300781 L 10.988281 7.265625 C 11.230469 7.433594 11.453125 7.632812 11.644531 7.855469 C 12.042969 8.261719 12.246094 8.460938 12.257812 8.460938 C 12.40625 8.195312 12.535156 7.917969 12.640625 7.632812 C 12.722656 7.363281 12.84375 7.109375 12.996094 6.871094 C 13.082031 6.839844 13.171875 6.820312 13.265625 6.808594 C 13.757812 6.710938 14.011719 6.6875 14.019531 6.738281 C 14.035156 6.8125 14.050781 6.882812 14.070312 6.953125 C 14.097656 7.046875 14.109375 7.113281 14.121094 7.160156 C 14.171875 7.335938 14.1875 7.519531 14.167969 7.699219 C 14.167969 7.699219 14.019531 8.003906 13.726562 8.605469 C 13.566406 8.863281 13.445312 9.136719 13.367188 9.429688 C 13.542969 9.664062 13.753906 9.871094 13.984375 10.050781 L 14.742188 10.710938 C 14.777344 10.753906 14.800781 10.804688 14.8125 10.855469 C 14.8125 10.90625 14.835938 10.980469 14.851562 11.0625 C 14.863281 11.148438 14.871094 11.230469 14.875 11.238281 C 14.886719 11.3125 14.90625 11.386719 14.929688 11.460938 C 14.957031 11.5625 14.976562 11.636719 14.984375 11.683594 C 14.996094 11.730469 14.984375 11.75 14.886719 11.773438 Z M 14.886719 11.773438 "/>
</g>
</svg>
