<?xml version="1.0" encoding="UTF-8"?>
<svg xmlns="http://www.w3.org/2000/svg" xmlns:xlink="http://www.w3.org/1999/xlink" width="20px" height="20px" viewBox="0 0 20 20" version="1.1">
<g id="surface1">
<path style=" stroke:none;fill-rule:nonzero;fill:rgb(100%,100%,100%);fill-opacity:1;" d="M 1.515625 0.355469 L 18.441406 0.355469 C 19.082031 0.355469 19.601562 0.875 19.601562 1.515625 L 19.601562 18.417969 C 19.601562 19.058594 19.082031 19.574219 18.441406 19.574219 L 1.515625 19.574219 C 0.875 19.574219 0.355469 19.058594 0.355469 18.417969 L 0.355469 1.515625 C 0.355469 0.875 0.875 0.355469 1.515625 0.355469 Z M 1.515625 0.355469 "/>
<path style=" stroke:none;fill-rule:nonzero;fill:rgb(9.803922%,52.156863%,58.823529%);fill-opacity:1;" d="M 18.441406 0.714844 C 18.882812 0.714844 19.242188 1.074219 19.242188 1.515625 L 19.242188 18.417969 C 19.242188 18.859375 18.882812 19.214844 18.441406 19.21875 L 1.515625 19.21875 C 1.300781 19.222656 1.09375 19.140625 0.9375 18.988281 C 0.785156 18.839844 0.699219 18.632812 0.699219 18.417969 L 0.699219 1.515625 C 0.699219 1.300781 0.785156 1.09375 0.9375 0.945312 C 1.09375 0.792969 1.300781 0.710938 1.515625 0.714844 L 18.441406 0.714844 M 18.441406 0 L 1.515625 0 C 1.109375 -0.00390625 0.722656 0.152344 0.433594 0.4375 C 0.148438 0.722656 -0.015625 1.109375 -0.015625 1.515625 L -0.015625 18.417969 C -0.015625 19.253906 0.664062 19.933594 1.5 19.933594 L 18.429688 19.933594 C 19.265625 19.933594 19.941406 19.253906 19.941406 18.417969 L 19.941406 1.515625 C 19.941406 0.683594 19.273438 0.0078125 18.441406 0 Z M 18.441406 0 "/>
<path style=" stroke:none;fill-rule:nonzero;fill:rgb(9.803922%,52.156863%,58.823529%);fill-opacity:1;" d="M 14.933594 11.394531 C 14.542969 11.394531 14.15625 11.464844 13.792969 11.605469 L 11.894531 9.75 L 15.378906 6.355469 C 16.0625 5.609375 16.464844 4.652344 16.519531 3.644531 L 16.519531 3.421875 C 16.519531 2.539062 16.007812 2.324219 15.378906 2.9375 L 10.144531 8.042969 L 4.917969 2.9375 C 4.285156 2.324219 3.773438 2.539062 3.773438 3.421875 L 3.773438 3.644531 C 3.828125 4.65625 4.234375 5.613281 4.917969 6.355469 L 8.398438 9.75 L 6.503906 11.601562 C 5.082031 11.066406 3.480469 11.605469 2.679688 12.894531 C 1.875 14.183594 2.089844 15.859375 3.195312 16.898438 C 4.300781 17.941406 5.988281 18.058594 7.226562 17.179688 C 8.464844 16.300781 8.910156 14.667969 8.289062 13.28125 L 10.15625 11.457031 L 12.027344 13.28125 C 11.453125 14.570312 11.796875 16.085938 12.871094 17 C 13.945312 17.917969 15.492188 18.019531 16.675781 17.25 C 17.859375 16.480469 18.394531 15.023438 17.992188 13.667969 C 17.589844 12.316406 16.34375 11.390625 14.933594 11.394531 Z M 5.363281 16.167969 C 4.484375 16.164062 3.773438 15.453125 3.773438 14.574219 C 3.777344 13.695312 4.488281 12.980469 5.367188 12.980469 C 6.25 12.984375 6.960938 13.695312 6.960938 14.574219 C 6.960938 15 6.792969 15.402344 6.492188 15.703125 C 6.195312 16 5.789062 16.167969 5.363281 16.167969 Z M 14.933594 16.167969 C 14.050781 16.167969 13.339844 15.453125 13.339844 14.574219 C 13.339844 13.695312 14.050781 12.980469 14.933594 12.980469 C 15.8125 12.980469 16.523438 13.695312 16.523438 14.574219 C 16.523438 15.453125 15.8125 16.167969 14.933594 16.167969 Z M 14.933594 16.167969 "/>
</g>
</svg>
