<?xml version="1.0" encoding="UTF-8"?><svg xmlns="http://www.w3.org/2000/svg" width="20px" height="20px" viewBox="0 0 56.41 56.53"><defs><style>.cls-1{letter-spacing:-.02em;}.cls-2{letter-spacing:-.05em;}.cls-3,.cls-4{stroke-width:0px;}.cls-3,.cls-5{fill:#198596;}.cls-4{fill:#fff;}.cls-5{font-family:FranklinGothic-Demi, 'Franklin Gothic Demi';font-size:15.09px;font-weight:300;}</style></defs><g id="Backgrounds"><rect class="cls-4" x="1.2" y="1.29" width="53.88" height="53.81" rx="3.24" ry="3.24"/><path class="cls-3" d="M51.84,2.29c1.24,0,2.24,1.01,2.24,2.24v47.33c0,1.24-1.01,2.24-2.24,2.24H4.44c-1.24,0-2.24-1.01-2.24-2.24V4.53c0-1.24,1.01-2.24,2.24-2.24h47.4M51.84.29H4.44C2.1.29.2,2.19.2,4.53v47.33c0,2.34,1.9,4.24,4.24,4.24h47.4c2.34,0,4.24-1.9,4.24-4.24V4.53c0-2.34-1.9-4.24-4.24-4.24h0Z"/></g><g id="Activities"><g id="Layer_49"><path class="cls-3" d="M35.19,47.62h9.81v-25.16h2.19c.66,0,.92-.31,1.01-.5.09-.19.19-.58-.21-1.11l-5.45-7.23c-.28-.37-.67-.58-1.08-.58s-.8.21-1.08.58l-5.45,7.23c-.4.53-.3.92-.21,1.11.09.19.35.5,1.01.5h2.19v25.16h-4.9v-15.55h2.19c.66,0,.92-.31,1.01-.5.09-.19.19-.58-.21-1.11l-5.45-7.23c-.28-.37-.67-.58-1.08-.58s-.8.21-1.08.58l-5.45,7.23c-.4.53-.3.92-.21,1.11.09.19.35.5,1.01.5h2.19v15.55H5.25c-.69,0-1.24.56-1.24,1.24s.56,1.24,1.24,1.24h46.45c.69,0,1.24-.56,1.24-1.24s-.56-1.24-1.24-1.24h-4.35M40.67,47.38h0M41.63,47.62,40.67,47.38"/><path class="cls-3" d="M20.28,49.22v-8.23h2.19c.66,0,.92-.31,1.01-.5.09-.19.19-.58-.21-1.11l-5.45-7.23c-.28-.37-.67-.58-1.08-.58s-.8.21-1.08.58l-5.45,7.23c-.4.53-.3.92-.21,1.11.09.19.35.5,1.01.5h2.19v8.23"/><g id="Layer_184"><path class="cls-3" d="M11.78,12.43c0,.73-.14,1.38-.43,1.95-.29.58-.7,1.03-1.25,1.36s-1.2.49-1.95.49c-.9,0-1.65-.22-2.23-.67-.42-.32-.75-.75-1.01-1.29-.26-.54-.39-1.06-.39-1.57,0-.29.08-.55.23-.76.16-.21.35-.31.6-.31.2,0,.36.08.5.25.14.16.25.41.35.73.12.38.24.7.38.96s.33.47.57.63c.25.17.57.25.97.25.55,0,1-.17,1.34-.5.34-.34.52-.75.52-1.26,0-.4-.09-.72-.28-.97s-.42-.44-.72-.57-.69-.27-1.18-.42c-.66-.2-1.21-.44-1.65-.71-.44-.27-.79-.64-1.06-1.1-.26-.47-.39-1.04-.39-1.74s.14-1.25.41-1.76c.27-.51.67-.91,1.19-1.18.52-.28,1.13-.41,1.83-.41.56,0,1.05.09,1.46.27.41.18.75.43,1.02.73.27.3.47.62.59.95.12.33.19.66.19.97,0,.29-.08.55-.23.78-.16.23-.35.35-.58.35-.21,0-.37-.07-.48-.21-.11-.14-.23-.37-.36-.68-.17-.45-.37-.81-.6-1.06-.23-.25-.61-.38-1.12-.38-.48,0-.86.14-1.16.41-.29.27-.44.61-.44.99,0,.24.05.45.15.62.1.17.24.32.41.45s.35.22.53.29c.18.07.47.17.89.31.52.16.98.33,1.4.52.42.19.77.42,1.07.7s.52.62.69,1.03c.16.42.25.93.25,1.53Z"/><path class="cls-3" d="M21.15,12.25c0,.38-.07.79-.22,1.24s-.37.88-.68,1.31c-.31.43-.7.78-1.18,1.04s-1.04.4-1.67.4c-.48,0-.92-.06-1.32-.18-.4-.12-.75-.31-1.08-.56-.32-.25-.62-.59-.89-1-.24-.38-.45-.8-.62-1.26-.17-.47-.3-.96-.38-1.49-.09-.53-.13-1.09-.13-1.68,0-.96.11-1.83.32-2.59s.52-1.42.92-1.96c.4-.54.87-.96,1.4-1.24.54-.28,1.11-.43,1.72-.43.74,0,1.4.19,1.98.58s1.02.87,1.33,1.43c.31.57.46,1.11.46,1.62,0,.28-.07.52-.22.74-.15.21-.33.32-.54.32-.24,0-.42-.07-.53-.22-.12-.15-.25-.4-.4-.76-.24-.59-.53-1.04-.85-1.33s-.73-.44-1.21-.44c-.76,0-1.37.38-1.82,1.14-.45.76-.68,1.83-.68,3.23,0,.93.1,1.71.3,2.33.2.62.48,1.08.85,1.39.37.31.79.46,1.29.46.53,0,.98-.17,1.35-.52s.65-.85.83-1.52c.08-.32.18-.57.29-.77.12-.2.3-.3.56-.3.22,0,.41.1.57.3s.24.45.24.75Z"/><path class="cls-3" d="M28.68,14.67l-.44-1.5h-3.72l-.44,1.54c-.17.6-.32,1-.44,1.21s-.32.31-.59.31c-.23,0-.44-.11-.62-.34-.18-.22-.27-.48-.27-.76,0-.16.02-.33.06-.51s.11-.42.21-.73l2.34-7.78c.07-.22.15-.49.24-.81.09-.31.19-.57.3-.78.11-.21.25-.37.42-.5.17-.13.39-.19.64-.19s.47.06.65.19c.17.13.31.29.42.49.11.2.2.42.27.65.07.23.16.54.28.93l2.39,7.73c.19.59.28,1.02.28,1.28s-.09.53-.26.76-.39.35-.64.35c-.14,0-.27-.03-.37-.1-.1-.07-.19-.16-.26-.28-.07-.12-.15-.3-.23-.54-.08-.24-.15-.46-.21-.64ZM25.01,11.35h2.73l-1.38-4.95-1.35,4.95Z"/><text class="cls-5" transform="translate(3.53 28.91)"><tspan class="cls-2" x="0" y="0">0</tspan><tspan class="cls-1" x="8.12" y="0">7</tspan></text></g></g></g></svg>