<?xml version="1.0" encoding="UTF-8"?>
<svg xmlns="http://www.w3.org/2000/svg" xmlns:xlink="http://www.w3.org/1999/xlink" width="20px" height="20px" viewBox="0 0 20 20" version="1.1">
<g id="surface1">
<path style=" stroke:none;fill-rule:nonzero;fill:rgb(100%,100%,100%);fill-opacity:1;" d="M 1.515625 0.355469 L 18.441406 0.355469 C 19.082031 0.355469 19.601562 0.875 19.601562 1.515625 L 19.601562 18.417969 C 19.601562 19.058594 19.082031 19.574219 18.441406 19.574219 L 1.515625 19.574219 C 0.875 19.574219 0.355469 19.058594 0.355469 18.417969 L 0.355469 1.515625 C 0.355469 0.875 0.875 0.355469 1.515625 0.355469 Z M 1.515625 0.355469 "/>
<path style=" stroke:none;fill-rule:nonzero;fill:rgb(9.803922%,52.156863%,58.823529%);fill-opacity:1;" d="M 18.441406 0.714844 C 18.882812 0.714844 19.242188 1.074219 19.242188 1.515625 L 19.242188 18.417969 C 19.242188 18.859375 18.882812 19.214844 18.441406 19.21875 L 1.515625 19.21875 C 1.300781 19.222656 1.09375 19.140625 0.9375 18.988281 C 0.785156 18.839844 0.699219 18.632812 0.699219 18.417969 L 0.699219 1.515625 C 0.699219 1.300781 0.785156 1.09375 0.9375 0.945312 C 1.09375 0.792969 1.300781 0.710938 1.515625 0.714844 L 18.441406 0.714844 M 18.441406 0 L 1.515625 0 C 1.109375 -0.00390625 0.722656 0.152344 0.433594 0.4375 C 0.148438 0.722656 -0.015625 1.109375 -0.015625 1.515625 L -0.015625 18.417969 C -0.015625 19.253906 0.664062 19.933594 1.5 19.933594 L 18.429688 19.933594 C 19.265625 19.933594 19.941406 19.253906 19.941406 18.417969 L 19.941406 1.515625 C 19.941406 0.683594 19.273438 0.0078125 18.441406 0 Z M 18.441406 0 "/>
<path style=" stroke:none;fill-rule:nonzero;fill:rgb(9.803922%,52.156863%,58.823529%);fill-opacity:1;" d="M 9.539062 14.605469 C 9.539062 16.261719 8.199219 17.605469 6.542969 17.605469 C 4.886719 17.605469 3.546875 16.261719 3.546875 14.605469 C 3.546875 12.953125 4.886719 11.609375 6.542969 11.609375 C 8.199219 11.609375 9.539062 12.953125 9.539062 14.605469 Z M 9.539062 14.605469 "/>
<path style=" stroke:none;fill-rule:nonzero;fill:rgb(9.803922%,52.156863%,58.823529%);fill-opacity:1;" d="M 18.164062 7.414062 C 18.164062 10.199219 15.90625 12.457031 13.121094 12.457031 C 10.335938 12.457031 8.078125 10.199219 8.078125 7.414062 C 8.078125 4.628906 10.335938 2.371094 13.121094 2.371094 C 15.90625 2.371094 18.164062 4.628906 18.164062 7.414062 Z M 18.164062 7.414062 "/>
<path style=" stroke:none;fill-rule:nonzero;fill:rgb(9.803922%,52.156863%,58.823529%);fill-opacity:1;" d="M 7.308594 9.203125 L 2.96875 4.863281 C 2.203125 4.101562 1.019531 5.285156 1.769531 6.035156 L 6.121094 10.390625 C 6.886719 11.152344 8.070312 9.96875 7.308594 9.203125 Z M 7.308594 9.203125 "/>
<path style=" stroke:none;fill-rule:nonzero;fill:rgb(9.803922%,52.156863%,58.823529%);fill-opacity:1;" d="M 2.96875 10.390625 L 7.308594 6.035156 C 8.070312 5.269531 6.886719 4.085938 6.121094 4.851562 L 1.769531 9.203125 C 1.019531 9.964844 2.203125 11.152344 2.96875 10.390625 Z M 2.96875 10.390625 "/>
</g>
</svg>
