<?xml version="1.0" encoding="UTF-8"?>
<svg xmlns="http://www.w3.org/2000/svg" xmlns:xlink="http://www.w3.org/1999/xlink" width="20px" height="20px" viewBox="0 0 20 20" version="1.1">
<g id="surface1">
<path style=" stroke:none;fill-rule:nonzero;fill:rgb(100%,100%,100%);fill-opacity:1;" d="M 1.515625 0.355469 L 18.441406 0.355469 C 19.082031 0.355469 19.601562 0.875 19.601562 1.515625 L 19.601562 18.417969 C 19.601562 19.058594 19.082031 19.574219 18.441406 19.574219 L 1.515625 19.574219 C 0.875 19.574219 0.355469 19.058594 0.355469 18.417969 L 0.355469 1.515625 C 0.355469 0.875 0.875 0.355469 1.515625 0.355469 Z M 1.515625 0.355469 "/>
<path style=" stroke:none;fill-rule:nonzero;fill:rgb(9.803922%,52.156863%,58.823529%);fill-opacity:1;" d="M 18.441406 0.714844 C 18.882812 0.714844 19.242188 1.074219 19.242188 1.515625 L 19.242188 18.417969 C 19.242188 18.859375 18.882812 19.214844 18.441406 19.21875 L 1.515625 19.21875 C 1.300781 19.222656 1.09375 19.140625 0.9375 18.988281 C 0.785156 18.839844 0.699219 18.632812 0.699219 18.417969 L 0.699219 1.515625 C 0.699219 1.300781 0.785156 1.09375 0.9375 0.945312 C 1.09375 0.792969 1.300781 0.710938 1.515625 0.714844 L 18.441406 0.714844 M 18.441406 0 L 1.515625 0 C 1.109375 -0.00390625 0.722656 0.152344 0.433594 0.4375 C 0.148438 0.722656 -0.015625 1.109375 -0.015625 1.515625 L -0.015625 18.417969 C -0.015625 19.253906 0.664062 19.933594 1.5 19.933594 L 18.429688 19.933594 C 19.265625 19.933594 19.941406 19.253906 19.941406 18.417969 L 19.941406 1.515625 C 19.941406 0.683594 19.273438 0.0078125 18.441406 0 Z M 18.441406 0 "/>
<path style=" stroke:none;fill-rule:nonzero;fill:rgb(9.803922%,52.156863%,58.823529%);fill-opacity:1;" d="M 14.410156 5.851562 L 12.296875 5.851562 C 12.449219 5.539062 12.570312 5.210938 12.652344 4.875 C 12.796875 4.289062 12.859375 3.691406 12.851562 3.089844 L 12.800781 1.917969 L 12.210938 2.953125 C 11.925781 3.460938 11.554688 3.910156 11.109375 4.285156 C 10.773438 4.570312 10.394531 4.796875 9.984375 4.964844 C 9.761719 5.058594 9.527344 5.128906 9.289062 5.183594 L 6.613281 5.183594 C 5.363281 4.894531 4.296875 4.078125 3.6875 2.945312 L 3.105469 1.933594 L 3.058594 3.105469 C 3.042969 3.703125 3.109375 4.304688 3.253906 4.890625 C 3.339844 5.226562 3.457031 5.550781 3.609375 5.863281 L 1.488281 5.863281 L 1.488281 6.195312 C 1.503906 6.875 1.761719 7.523438 2.222656 8.019531 C 2.726562 8.511719 3.394531 8.800781 4.101562 8.828125 C 4.050781 9.613281 4.207031 10.398438 4.554688 11.105469 C 5.105469 12.039062 5.246094 14.8125 5.269531 15.808594 L 5.269531 15.894531 L 5.3125 15.96875 C 5.449219 16.164062 5.652344 16.304688 5.886719 16.367188 C 6.5625 16.574219 7.269531 16.667969 7.976562 16.640625 C 8.683594 16.667969 9.386719 16.578125 10.0625 16.367188 C 10.296875 16.304688 10.5 16.164062 10.640625 15.96875 L 10.683594 15.894531 L 10.683594 15.808594 C 10.683594 14.8125 10.824219 12.039062 11.378906 11.105469 C 11.726562 10.398438 11.882812 9.613281 11.832031 8.828125 C 12.535156 8.800781 13.207031 8.511719 13.710938 8.019531 C 14.164062 7.519531 14.417969 6.871094 14.425781 6.195312 Z M 4.378906 5.851562 C 4.09375 5.371094 3.90625 4.84375 3.824219 4.296875 C 3.992188 4.484375 4.175781 4.65625 4.367188 4.816406 C 4.652344 5.054688 4.960938 5.257812 5.289062 5.425781 C 5.0625 5.542969 4.847656 5.683594 4.652344 5.851562 Z M 5.125 10.285156 C 4.855469 10.097656 4.785156 9.734375 4.964844 9.460938 C 5.085938 9.15625 5.429688 9.007812 5.734375 9.125 C 5.867188 9.214844 5.960938 9.355469 5.988281 9.511719 C 6.019531 9.667969 5.988281 9.832031 5.894531 9.964844 C 5.773438 10.269531 5.429688 10.417969 5.125 10.300781 Z M 9.980469 15.644531 C 9.792969 15.742188 9.59375 15.808594 9.382812 15.84375 C 9.046875 15.398438 8.507812 15.160156 7.953125 15.214844 C 7.398438 15.160156 6.855469 15.398438 6.523438 15.847656 C 6.308594 15.8125 6.101562 15.746094 5.910156 15.644531 C 5.910156 15.507812 5.910156 15.285156 5.890625 15.003906 C 6.382812 14.570312 7.265625 13.527344 7.296875 11.542969 C 7.34375 8.792969 5.511719 8.382812 6.1875 7.335938 C 6.867188 6.289062 7.617188 6.519531 7.949219 6.519531 C 8.28125 6.519531 9.019531 6.289062 9.710938 7.335938 C 10.398438 8.382812 8.558594 8.785156 8.609375 11.535156 C 8.644531 13.5 9.511719 14.546875 10.003906 14.980469 C 10.003906 15.269531 9.984375 15.496094 9.980469 15.636719 Z M 10.789062 10.285156 C 10.488281 10.402344 10.148438 10.261719 10.019531 9.964844 C 9.839844 9.691406 9.914062 9.324219 10.183594 9.140625 C 10.488281 9.023438 10.828125 9.171875 10.949219 9.476562 C 11.128906 9.746094 11.058594 10.113281 10.789062 10.300781 Z M 11.503906 5.851562 L 11.230469 5.851562 C 11.035156 5.683594 10.820312 5.542969 10.59375 5.425781 C 10.921875 5.257812 11.230469 5.054688 11.511719 4.816406 C 11.707031 4.65625 11.886719 4.484375 12.058594 4.296875 C 11.976562 4.84375 11.785156 5.371094 11.503906 5.851562 Z M 11.503906 5.851562 "/>
<path style=" stroke:none;fill-rule:nonzero;fill:rgb(9.803922%,52.156863%,58.823529%);fill-opacity:1;" d="M 15.984375 14.671875 L 15.984375 8.933594 C 15.984375 7.921875 14.417969 7.921875 14.417969 8.933594 L 14.417969 14.671875 C 14.417969 15.679688 15.984375 15.683594 15.984375 14.671875 Z M 15.984375 14.671875 "/>
<path style=" stroke:none;fill-rule:nonzero;fill:rgb(9.803922%,52.156863%,58.823529%);fill-opacity:1;" d="M 12.332031 12.585938 L 18.070312 12.585938 C 19.082031 12.585938 19.082031 11.019531 18.070312 11.019531 L 12.332031 11.019531 C 11.320312 11.019531 11.320312 12.585938 12.332031 12.585938 Z M 12.332031 12.585938 "/>
<path style=" stroke:none;fill-rule:nonzero;fill:rgb(9.803922%,52.156863%,58.823529%);fill-opacity:1;" d="M 12.484375 17.65625 L 17.523438 17.65625 C 18.535156 17.65625 18.535156 16.089844 17.523438 16.089844 L 12.484375 16.089844 C 11.476562 16.089844 11.476562 17.65625 12.484375 17.65625 Z M 12.484375 17.65625 "/>
</g>
</svg>
