<?xml version="1.0" encoding="UTF-8"?><svg xmlns="http://www.w3.org/2000/svg" width="20px" height="20px" viewBox="0 0 56.41 56.53"><defs><style>.cls-1{letter-spacing:-.03em;}.cls-2{letter-spacing:-.02em;}.cls-3,.cls-4{fill:#198596;}.cls-3,.cls-5{stroke-width:0px;}.cls-4{font-family:FranklinGothic-Demi, 'Franklin Gothic Demi';font-size:19.77px;font-weight:300;}.cls-5{fill:#fff;}</style></defs><g id="Backgrounds"><rect class="cls-5" x="1.2" y="1.29" width="53.88" height="53.81" rx="3.24" ry="3.24"/><path class="cls-3" d="M51.84,2.29c1.24,0,2.24,1.01,2.24,2.24v47.33c0,1.24-1.01,2.24-2.24,2.24H4.44c-1.24,0-2.24-1.01-2.24-2.24V4.53c0-1.24,1.01-2.24,2.24-2.24h47.4M51.84.29H4.44C2.1.29.2,2.19.2,4.53v47.33c0,2.34,1.9,4.24,4.24,4.24h47.4c2.34,0,4.24-1.9,4.24-4.24V4.53c0-2.34-1.9-4.24-4.24-4.24h0Z"/></g><g id="Activities"><g id="Layer_49"><path class="cls-3" d="M35.19,46.62h9.81v-25.16h2.19c.66,0,.92-.31,1.01-.5.09-.19.19-.58-.21-1.11l-5.45-7.23c-.28-.37-.67-.58-1.08-.58s-.8.21-1.08.58l-5.45,7.23c-.4.53-.3.92-.21,1.11.09.19.35.5,1.01.5h2.19v25.16h-4.9v-15.55h2.19c.66,0,.92-.31,1.01-.5.09-.19.19-.58-.21-1.11l-5.45-7.23c-.28-.37-.67-.58-1.08-.58s-.8.21-1.08.58l-5.45,7.23c-.4.53-.3.92-.21,1.11.09.19.35.5,1.01.5h2.19v15.55H5.25c-.69,0-1.24.56-1.24,1.24s.56,1.24,1.24,1.24h46.45c.69,0,1.24-.56,1.24-1.24s-.56-1.24-1.24-1.24h-4.35M40.67,46.38h0M41.63,46.62,40.67,46.38"/><path class="cls-3" d="M20.28,48.22v-8.23h2.19c.66,0,.92-.31,1.01-.5.09-.19.19-.58-.21-1.11l-5.45-7.23c-.28-.37-.67-.58-1.08-.58s-.8.21-1.08.58l-5.45,7.23c-.4.53-.3.92-.21,1.11.09.19.35.5,1.01.5h2.19v8.23"/><g id="Layer_185"><text class="cls-4" transform="translate(5.53 18.82)"><tspan class="cls-1" x="0" y="0">2</tspan><tspan class="cls-2" x="11.04" y="0">4</tspan></text></g></g></g></svg>