<?xml version="1.0" encoding="UTF-8"?><svg xmlns="http://www.w3.org/2000/svg" width="20px" height="20px" viewBox="0 0 56.41 56.53"><defs><style>.cls-1{font-family:MyriadPro-Bold, 'Myriad Pro';font-size:11.09px;font-weight:700;}.cls-1,.cls-2,.cls-3{fill:#fff;}.cls-2{stroke:#198596;stroke-miterlimit:10;}.cls-4{fill:#198596;}.cls-4,.cls-3{stroke-width:0px;}</style></defs><g id="Backgrounds"><rect class="cls-3" x="1.2" y="1.29" width="53.88" height="53.81" rx="3.24" ry="3.24"/><path class="cls-4" d="M51.84,2.29c1.24,0,2.24,1.01,2.24,2.24v47.33c0,1.24-1.01,2.24-2.24,2.24H4.44c-1.24,0-2.24-1.01-2.24-2.24V4.53c0-1.24,1.01-2.24,2.24-2.24h47.4M51.84.29H4.44C2.1.29.2,2.19.2,4.53v47.33c0,2.34,1.9,4.24,4.24,4.24h47.4c2.34,0,4.24-1.9,4.24-4.24V4.53c0-2.34-1.9-4.24-4.24-4.24h0Z"/></g><g id="Activities"><g id="Layer_179"><path class="cls-2" d="M47.41,41.92c-1.39-.48-2.87.08-3.64,1.26l-8.71-3,8.75-2.91c.75,1.18,2.23,1.75,3.62,1.29,1.64-.55,2.53-2.32,1.98-3.96-.18-.54-.51-.99-.91-1.35.11-.52.1-1.08-.08-1.62-.55-1.64-2.32-2.53-3.96-1.98-1.39.46-2.23,1.81-2.12,3.21l-14.5,4.83-14.33-4.93c.32-1.52-.52-3.08-2.03-3.6-1.63-.56-3.41.31-3.98,1.94-.24.7-.21,1.42.02,2.06-.58.37-1.05.91-1.29,1.61-.56,1.63.31,3.41,1.94,3.98,1.51.52,3.13-.19,3.82-1.59l8.59,2.96-8.62,2.87c-.67-1.41-2.28-2.13-3.8-1.63-1.64.55-2.53,2.32-1.98,3.96.23.7.7,1.25,1.27,1.62-.24.64-.28,1.36-.04,2.06.55,1.64,2.32,2.53,3.96,1.98,1.52-.5,2.37-2.06,2.06-3.58l14.38-4.79,14.46,4.97c-.12,1.39.71,2.74,2.09,3.22,1.63.56,3.41-.31,3.98-1.94.19-.54.2-1.1.1-1.62.4-.35.73-.8.92-1.34.56-1.63-.31-3.41-1.94-3.98Z"/><rect class="cls-3" x="19.59" y="21.31" width="16.36" height="26.19"/><path class="cls-4" d="M49.23,16.63h-6.98c.47-.97.86-2.04,1.15-3.22.76-3.05.66-5.73.65-5.84l-.17-3.87-1.92,3.37c-.99,1.74-2.21,3.22-3.62,4.4-1.13.95-2.39,1.71-3.74,2.27-.86.35-1.64.58-2.3.72h-8.8c-2.43-.54-6.71-2.21-9.66-7.39l-1.92-3.37-.17,3.87c0,.11-.11,2.79.65,5.84.29,1.18.68,2.26,1.15,3.22h-6.97l-.02,1.09c0,.14-.04,3.49,2.42,6.03,1.51,1.55,3.59,2.45,6.2,2.66,0,3.34.49,5.81,1.5,7.51,1.83,3.08,2.28,12.25,2.3,15.52v.28l.14.25c.16.29.61.84,1.9,1.33,1.57.59,3.89.89,6.9.89s5.33-.3,6.89-.89c1.29-.48,1.74-1.04,1.9-1.33l.14-.25v-.28c.02-3.27.47-12.43,2.3-15.52,1.01-1.7,1.5-4.16,1.5-7.51,2.61-.21,4.69-1.11,6.19-2.66,2.46-2.54,2.42-5.89,2.42-6.03l-.02-1.09ZM16.12,16.63c-1.01-1.6-1.54-3.5-1.82-5.13.56.62,1.16,1.2,1.8,1.73.94.78,1.96,1.45,3.04,2-.68.36-1.47.84-2.1,1.4h-.91ZM18.58,31.27c-.85-.45-1.08-1.67-.53-2.72.55-1.06,1.7-1.56,2.54-1.11.85.45,1.09,1.66.53,2.72-.56,1.06-1.7,1.55-2.54,1.11h0ZM34.61,48.93c-.27.17-.86.44-1.98.65-.59-.88-1.9-2.06-4.68-2.07h0s-.02,0-.02,0c0,0-.02,0-.03,0h0c-2.78.02-4.09,1.21-4.68,2.09-1.15-.22-1.74-.5-2.02-.66,0-.45-.03-1.19-.07-2.12,1.62-1.42,4.53-4.87,4.64-11.41.15-9.08-5.88-10.44-3.65-13.89,2.23-3.45,4.69-2.7,5.81-2.7s3.57-.75,5.8,2.7c2.23,3.45-3.8,4.81-3.65,13.89.11,6.48,2.97,9.93,4.59,11.37-.04.94-.06,1.7-.07,2.16h0ZM37.28,31.27c-.85.44-1.99-.05-2.54-1.11-.56-1.06-.32-2.28.53-2.72.85-.45,1.99.05,2.54,1.11.56,1.06.32,2.28-.53,2.72h0ZM39.7,16.63h-.91c-.63-.57-1.42-1.04-2.11-1.4,1.08-.55,2.1-1.22,3.04-2,.64-.53,1.24-1.1,1.8-1.73-.28,1.64-.81,3.54-1.82,5.13h0ZM39.7,16.63"/><circle class="cls-4" cx="19.59" cy="29.68" r="3.65"/><text class="cls-1" transform="translate(16.16 32.24)"><tspan x="0" y="0">+</tspan></text><circle class="cls-4" cx="35.95" cy="29.68" r="3.65"/><text class="cls-1" transform="translate(32.52 32.24)"><tspan x="0" y="0">+</tspan></text></g></g></svg>