<?xml version="1.0" encoding="UTF-8"?>
<svg xmlns="http://www.w3.org/2000/svg" xmlns:xlink="http://www.w3.org/1999/xlink" width="20px" height="20px" viewBox="0 0 20 20" version="1.1">
<g id="surface1">
<path style=" stroke:none;fill-rule:nonzero;fill:rgb(100%,100%,100%);fill-opacity:1;" d="M 1.515625 0.355469 L 18.441406 0.355469 C 19.082031 0.355469 19.601562 0.875 19.601562 1.515625 L 19.601562 18.417969 C 19.601562 19.058594 19.082031 19.574219 18.441406 19.574219 L 1.515625 19.574219 C 0.875 19.574219 0.355469 19.058594 0.355469 18.417969 L 0.355469 1.515625 C 0.355469 0.875 0.875 0.355469 1.515625 0.355469 Z M 1.515625 0.355469 "/>
<path style=" stroke:none;fill-rule:nonzero;fill:rgb(9.803922%,52.156863%,58.823529%);fill-opacity:1;" d="M 18.441406 0.714844 C 18.882812 0.714844 19.242188 1.074219 19.242188 1.515625 L 19.242188 18.417969 C 19.242188 18.859375 18.882812 19.214844 18.441406 19.21875 L 1.515625 19.21875 C 1.300781 19.222656 1.09375 19.140625 0.9375 18.988281 C 0.785156 18.839844 0.699219 18.632812 0.699219 18.417969 L 0.699219 1.515625 C 0.699219 1.300781 0.785156 1.09375 0.9375 0.945312 C 1.09375 0.792969 1.300781 0.710938 1.515625 0.714844 L 18.441406 0.714844 M 18.441406 0 L 1.515625 0 C 1.109375 -0.00390625 0.722656 0.152344 0.433594 0.4375 C 0.148438 0.722656 -0.015625 1.109375 -0.015625 1.515625 L -0.015625 18.417969 C -0.015625 19.253906 0.664062 19.933594 1.5 19.933594 L 18.429688 19.933594 C 19.265625 19.933594 19.941406 19.253906 19.941406 18.417969 L 19.941406 1.515625 C 19.941406 0.683594 19.273438 0.0078125 18.441406 0 Z M 18.441406 0 "/>
<path style=" stroke:none;fill-rule:nonzero;fill:rgb(9.803922%,52.156863%,58.823529%);fill-opacity:1;" d="M 15.765625 4.519531 L 13.914062 4.519531 C 14.046875 4.246094 14.148438 3.957031 14.222656 3.664062 C 14.347656 3.15625 14.402344 2.632812 14.390625 2.105469 L 14.347656 1.082031 L 13.839844 1.980469 C 13.589844 2.421875 13.261719 2.816406 12.875 3.144531 C 12.578125 3.398438 12.242188 3.601562 11.882812 3.75 C 11.6875 3.832031 11.484375 3.894531 11.273438 3.9375 L 8.9375 3.9375 C 7.84375 3.683594 6.910156 2.96875 6.378906 1.980469 L 5.867188 1.089844 L 5.824219 2.105469 C 5.816406 2.628906 5.875 3.148438 5.996094 3.65625 C 6.070312 3.953125 6.171875 4.238281 6.304688 4.511719 L 4.453125 4.511719 L 4.453125 4.800781 C 4.464844 5.390625 4.691406 5.957031 5.089844 6.394531 C 5.53125 6.824219 6.113281 7.082031 6.730469 7.105469 C 6.6875 7.796875 6.824219 8.484375 7.128906 9.105469 C 7.613281 9.921875 7.734375 12.351562 7.738281 13.21875 L 7.738281 13.292969 L 7.773438 13.359375 C 7.898438 13.535156 8.074219 13.660156 8.277344 13.71875 C 8.871094 13.898438 9.488281 13.980469 10.105469 13.953125 C 10.726562 13.980469 11.34375 13.898438 11.9375 13.71875 C 12.140625 13.664062 12.320312 13.535156 12.4375 13.359375 L 12.476562 13.292969 L 12.476562 13.21875 C 12.476562 12.355469 12.601562 9.921875 13.082031 9.105469 C 13.390625 8.484375 13.527344 7.796875 13.484375 7.105469 C 14.101562 7.082031 14.6875 6.824219 15.128906 6.394531 C 15.535156 5.957031 15.761719 5.386719 15.769531 4.792969 Z M 6.980469 4.519531 C 6.734375 4.097656 6.570312 3.636719 6.496094 3.15625 C 6.644531 3.320312 6.804688 3.472656 6.976562 3.613281 C 7.222656 3.820312 7.492188 4 7.777344 4.144531 C 7.578125 4.242188 7.390625 4.363281 7.222656 4.503906 Z M 7.636719 8.398438 C 7.40625 8.238281 7.34375 7.921875 7.496094 7.6875 C 7.601562 7.421875 7.902344 7.289062 8.167969 7.390625 C 8.398438 7.550781 8.460938 7.863281 8.3125 8.105469 C 8.203125 8.367188 7.902344 8.496094 7.636719 8.394531 Z M 11.886719 13.082031 C 11.722656 13.171875 11.542969 13.230469 11.359375 13.257812 C 11.070312 12.871094 10.601562 12.660156 10.121094 12.707031 C 9.640625 12.664062 9.171875 12.871094 8.882812 13.257812 C 8.695312 13.230469 8.511719 13.171875 8.34375 13.082031 C 8.34375 12.964844 8.34375 12.769531 8.324219 12.519531 C 8.757812 12.164062 9.527344 11.230469 9.558594 9.496094 C 9.597656 7.085938 7.996094 6.726562 8.589844 5.8125 C 8.886719 5.253906 9.511719 4.964844 10.128906 5.097656 C 10.742188 4.964844 11.371094 5.253906 11.667969 5.8125 C 12.261719 6.726562 10.660156 7.085938 10.699219 9.496094 C 10.730469 11.214844 11.484375 12.128906 11.917969 12.511719 C 11.917969 12.761719 11.917969 12.960938 11.917969 13.082031 Z M 12.601562 8.398438 C 12.332031 8.5 12.035156 8.371094 11.929688 8.105469 C 11.804688 7.960938 11.78125 7.75 11.871094 7.582031 C 11.960938 7.410156 12.148438 7.3125 12.339844 7.332031 C 12.53125 7.355469 12.691406 7.492188 12.742188 7.679688 C 12.894531 7.917969 12.832031 8.230469 12.601562 8.394531 Z M 13.242188 4.519531 L 13 4.519531 C 12.828125 4.375 12.640625 4.257812 12.441406 4.160156 C 12.730469 4.015625 13 3.835938 13.246094 3.628906 C 13.417969 3.488281 13.578125 3.335938 13.726562 3.171875 C 13.652344 3.652344 13.488281 4.113281 13.242188 4.53125 Z M 13.242188 4.519531 "/>
<path style=" stroke:none;fill-rule:nonzero;fill:rgb(9.803922%,52.156863%,58.823529%);fill-opacity:1;" d="M 7.523438 15.996094 L 7.523438 18.007812 C 7.507812 18.230469 7.617188 18.445312 7.808594 18.5625 C 8 18.679688 8.238281 18.679688 8.429688 18.5625 C 8.621094 18.445312 8.730469 18.230469 8.714844 18.007812 L 8.714844 15.996094 C 8.730469 15.773438 8.621094 15.558594 8.429688 15.441406 C 8.238281 15.324219 8 15.324219 7.808594 15.441406 C 7.617188 15.558594 7.507812 15.773438 7.523438 15.996094 Z M 7.523438 15.996094 "/>
<path style=" stroke:none;fill-rule:nonzero;fill:rgb(9.803922%,52.156863%,58.823529%);fill-opacity:1;" d="M 5.726562 15.996094 L 5.726562 18.007812 C 5.707031 18.230469 5.816406 18.445312 6.007812 18.5625 C 6.199219 18.679688 6.441406 18.679688 6.632812 18.5625 C 6.820312 18.445312 6.929688 18.230469 6.914062 18.007812 L 6.914062 15.996094 C 6.929688 15.773438 6.820312 15.558594 6.632812 15.441406 C 6.441406 15.324219 6.199219 15.324219 6.007812 15.441406 C 5.816406 15.558594 5.707031 15.773438 5.726562 15.996094 Z M 5.726562 15.996094 "/>
<path style=" stroke:none;fill-rule:nonzero;fill:rgb(9.803922%,52.156863%,58.823529%);fill-opacity:1;" d="M 3.996094 15.996094 L 3.996094 18.007812 C 3.980469 18.230469 4.089844 18.445312 4.28125 18.5625 C 4.472656 18.679688 4.710938 18.679688 4.902344 18.5625 C 5.09375 18.445312 5.203125 18.230469 5.1875 18.007812 L 5.1875 15.996094 C 5.203125 15.773438 5.09375 15.558594 4.902344 15.441406 C 4.710938 15.324219 4.472656 15.324219 4.28125 15.441406 C 4.089844 15.558594 3.980469 15.773438 3.996094 15.996094 Z M 3.996094 15.996094 "/>
<path style=" stroke:none;fill-rule:nonzero;fill:rgb(9.803922%,52.156863%,58.823529%);fill-opacity:1;" d="M 12.753906 15.976562 L 12.753906 17.984375 C 12.734375 18.210938 12.84375 18.421875 13.035156 18.539062 C 13.226562 18.65625 13.46875 18.65625 13.660156 18.539062 C 13.851562 18.421875 13.960938 18.210938 13.941406 17.984375 L 13.941406 15.976562 C 13.960938 15.75 13.851562 15.539062 13.660156 15.421875 C 13.46875 15.304688 13.226562 15.304688 13.035156 15.421875 C 12.84375 15.539062 12.734375 15.75 12.753906 15.976562 Z M 12.753906 15.976562 "/>
<path style=" stroke:none;fill-rule:nonzero;fill:rgb(9.803922%,52.156863%,58.823529%);fill-opacity:1;" d="M 14.53125 15.976562 L 14.53125 17.984375 C 14.515625 18.210938 14.625 18.421875 14.816406 18.539062 C 15.007812 18.65625 15.246094 18.65625 15.4375 18.539062 C 15.628906 18.421875 15.738281 18.210938 15.722656 17.984375 L 15.722656 15.976562 C 15.738281 15.75 15.628906 15.539062 15.4375 15.421875 C 15.246094 15.304688 15.007812 15.304688 14.816406 15.421875 C 14.625 15.539062 14.515625 15.75 14.53125 15.976562 Z M 14.53125 15.976562 "/>
<path style=" stroke:none;fill-rule:nonzero;fill:rgb(9.803922%,52.156863%,58.823529%);fill-opacity:1;" d="M 10.953125 15.976562 L 10.953125 17.984375 C 10.9375 18.210938 11.046875 18.421875 11.238281 18.539062 C 11.429688 18.65625 11.667969 18.65625 11.859375 18.539062 C 12.050781 18.421875 12.160156 18.210938 12.144531 17.984375 L 12.144531 15.976562 C 12.160156 15.75 12.050781 15.539062 11.859375 15.421875 C 11.667969 15.304688 11.429688 15.304688 11.238281 15.421875 C 11.046875 15.539062 10.9375 15.75 10.953125 15.976562 Z M 10.953125 15.976562 "/>
<path style=" stroke:none;fill-rule:nonzero;fill:rgb(9.803922%,52.156863%,58.823529%);fill-opacity:1;" d="M 9.226562 15.976562 L 9.226562 17.984375 C 9.207031 18.210938 9.316406 18.421875 9.507812 18.539062 C 9.699219 18.65625 9.941406 18.65625 10.132812 18.539062 C 10.320312 18.421875 10.429688 18.210938 10.414062 17.984375 L 10.414062 15.976562 C 10.429688 15.75 10.320312 15.539062 10.132812 15.421875 C 9.941406 15.304688 9.699219 15.304688 9.507812 15.421875 C 9.316406 15.539062 9.207031 15.75 9.226562 15.976562 Z M 9.226562 15.976562 "/>
</g>
</svg>
