<?xml version="1.0" encoding="UTF-8"?>
<svg xmlns="http://www.w3.org/2000/svg" xmlns:xlink="http://www.w3.org/1999/xlink" width="20px" height="20px" viewBox="0 0 20 20" version="1.1">
<g id="surface1">
<path style=" stroke:none;fill-rule:nonzero;fill:rgb(100%,100%,100%);fill-opacity:1;" d="M 1.515625 0.355469 L 18.441406 0.355469 C 19.082031 0.355469 19.601562 0.875 19.601562 1.515625 L 19.601562 18.417969 C 19.601562 19.058594 19.082031 19.574219 18.441406 19.574219 L 1.515625 19.574219 C 0.875 19.574219 0.355469 19.058594 0.355469 18.417969 L 0.355469 1.515625 C 0.355469 0.875 0.875 0.355469 1.515625 0.355469 Z M 1.515625 0.355469 "/>
<path style=" stroke:none;fill-rule:nonzero;fill:rgb(9.803922%,52.156863%,58.823529%);fill-opacity:1;" d="M 18.441406 0.714844 C 18.882812 0.714844 19.242188 1.074219 19.242188 1.515625 L 19.242188 18.417969 C 19.242188 18.859375 18.882812 19.214844 18.441406 19.21875 L 1.515625 19.21875 C 1.300781 19.222656 1.09375 19.140625 0.9375 18.988281 C 0.785156 18.839844 0.699219 18.632812 0.699219 18.417969 L 0.699219 1.515625 C 0.699219 1.300781 0.785156 1.09375 0.9375 0.945312 C 1.09375 0.792969 1.300781 0.710938 1.515625 0.714844 L 18.441406 0.714844 M 18.441406 0 L 1.515625 0 C 1.109375 -0.00390625 0.722656 0.152344 0.433594 0.4375 C 0.148438 0.722656 -0.015625 1.109375 -0.015625 1.515625 L -0.015625 18.417969 C -0.015625 19.253906 0.664062 19.933594 1.5 19.933594 L 18.429688 19.933594 C 19.265625 19.933594 19.941406 19.253906 19.941406 18.417969 L 19.941406 1.515625 C 19.941406 0.683594 19.273438 0.0078125 18.441406 0 Z M 18.441406 0 "/>
<path style=" stroke:none;fill-rule:nonzero;fill:rgb(9.803922%,52.156863%,58.823529%);fill-opacity:1;" d="M 11.3125 3.535156 C 9.398438 3.535156 7.847656 5.085938 7.847656 7 C 7.847656 8.914062 9.398438 10.464844 11.3125 10.464844 C 13.222656 10.464844 14.773438 8.914062 14.773438 7 C 14.773438 5.085938 13.222656 3.539062 11.3125 3.535156 Z M 11.3125 3.535156 "/>
<path style=" stroke:none;fill-rule:nonzero;fill:rgb(9.803922%,52.156863%,58.823529%);fill-opacity:1;" d="M 11.3125 2.523438 C 10.9375 2.523438 10.636719 2.222656 10.636719 1.851562 L 10.636719 0.777344 C 10.660156 0.425781 10.957031 0.148438 11.3125 0.148438 C 11.667969 0.148438 11.964844 0.425781 11.988281 0.777344 L 11.988281 1.851562 C 11.988281 2.03125 11.917969 2.203125 11.789062 2.328125 C 11.664062 2.457031 11.492188 2.527344 11.3125 2.523438 Z M 11.3125 2.523438 "/>
<path style=" stroke:none;fill-rule:nonzero;fill:rgb(9.803922%,52.156863%,58.823529%);fill-opacity:1;" d="M 11.3125 11.484375 C 10.9375 11.488281 10.636719 11.789062 10.636719 12.164062 L 10.636719 13.234375 C 10.660156 13.589844 10.957031 13.863281 11.3125 13.863281 C 11.667969 13.863281 11.964844 13.589844 11.988281 13.234375 L 11.988281 12.164062 C 11.988281 11.789062 11.683594 11.484375 11.3125 11.484375 Z M 11.3125 11.484375 "/>
<path style=" stroke:none;fill-rule:nonzero;fill:rgb(9.803922%,52.156863%,58.823529%);fill-opacity:1;" d="M 14.480469 3.839844 C 14.21875 3.574219 14.21875 3.148438 14.480469 2.882812 L 15.246094 2.105469 C 15.515625 1.84375 15.945312 1.847656 16.207031 2.113281 C 16.46875 2.382812 16.46875 2.8125 16.199219 3.074219 L 15.4375 3.839844 C 15.171875 4.101562 14.746094 4.101562 14.480469 3.839844 Z M 14.480469 3.839844 "/>
<path style=" stroke:none;fill-rule:nonzero;fill:rgb(9.803922%,52.156863%,58.823529%);fill-opacity:1;" d="M 8.144531 10.175781 C 7.882812 9.910156 7.453125 9.910156 7.1875 10.175781 L 6.414062 10.9375 C 6.152344 11.203125 6.152344 11.632812 6.417969 11.894531 C 6.679688 12.15625 7.109375 12.15625 7.371094 11.894531 L 8.136719 11.128906 C 8.398438 10.863281 8.398438 10.4375 8.136719 10.175781 Z M 8.144531 10.175781 "/>
<path style=" stroke:none;fill-rule:nonzero;fill:rgb(9.803922%,52.156863%,58.823529%);fill-opacity:1;" d="M 15.792969 7.007812 C 15.792969 6.632812 16.09375 6.332031 16.46875 6.328125 L 17.539062 6.328125 C 17.894531 6.355469 18.167969 6.648438 18.167969 7.003906 C 18.167969 7.359375 17.894531 7.65625 17.539062 7.683594 L 16.46875 7.683594 C 16.09375 7.683594 15.792969 7.378906 15.792969 7.007812 Z M 15.792969 7.007812 "/>
<path style=" stroke:none;fill-rule:nonzero;fill:rgb(9.803922%,52.156863%,58.823529%);fill-opacity:1;" d="M 6.832031 7.007812 C 6.832031 6.632812 6.53125 6.332031 6.15625 6.328125 L 5.085938 6.328125 C 4.730469 6.355469 4.457031 6.648438 4.457031 7.003906 C 4.457031 7.359375 4.730469 7.65625 5.085938 7.683594 L 6.15625 7.683594 C 6.53125 7.683594 6.832031 7.378906 6.832031 7.007812 Z M 6.832031 7.007812 "/>
<path style=" stroke:none;fill-rule:nonzero;fill:rgb(9.803922%,52.156863%,58.823529%);fill-opacity:1;" d="M 14.480469 10.175781 C 14.609375 10.046875 14.78125 9.976562 14.957031 9.976562 C 15.136719 9.976562 15.308594 10.046875 15.4375 10.175781 L 16.199219 10.9375 C 16.441406 11.207031 16.433594 11.617188 16.179688 11.871094 C 15.921875 12.125 15.511719 12.136719 15.246094 11.894531 L 14.480469 11.128906 C 14.355469 11.003906 14.285156 10.832031 14.285156 10.652344 C 14.285156 10.472656 14.355469 10.300781 14.480469 10.175781 Z M 14.480469 10.175781 "/>
<path style=" stroke:none;fill-rule:nonzero;fill:rgb(9.803922%,52.156863%,58.823529%);fill-opacity:1;" d="M 8.144531 3.839844 C 8.40625 3.574219 8.40625 3.148438 8.144531 2.882812 L 7.382812 2.105469 C 7.113281 1.839844 6.679688 1.839844 6.414062 2.105469 C 6.148438 2.375 6.148438 2.808594 6.414062 3.074219 L 7.179688 3.839844 C 7.441406 4.101562 7.871094 4.101562 8.136719 3.839844 Z M 8.144531 3.839844 "/>
<path style=" stroke:none;fill-rule:nonzero;fill:rgb(9.803922%,52.156863%,58.823529%);fill-opacity:1;" d="M 19.605469 14.835938 L 19.605469 16.230469 C 19.605469 18.089844 20.164062 19.804688 16.230469 19.605469 L 3.730469 19.605469 C -0.078125 19.683594 0.367188 18.289062 0.355469 16.230469 L 0.355469 14.835938 "/>
</g>
</svg>
