<?xml version="1.0" encoding="UTF-8"?>
<svg xmlns="http://www.w3.org/2000/svg" xmlns:xlink="http://www.w3.org/1999/xlink" width="20px" height="20px" viewBox="0 0 20 20" version="1.1">
<g id="surface1">
<path style=" stroke:none;fill-rule:nonzero;fill:rgb(100%,100%,100%);fill-opacity:1;" d="M 1.515625 0.355469 L 18.441406 0.355469 C 19.082031 0.355469 19.601562 0.875 19.601562 1.515625 L 19.601562 18.417969 C 19.601562 19.058594 19.082031 19.574219 18.441406 19.574219 L 1.515625 19.574219 C 0.875 19.574219 0.355469 19.058594 0.355469 18.417969 L 0.355469 1.515625 C 0.355469 0.875 0.875 0.355469 1.515625 0.355469 Z M 1.515625 0.355469 "/>
<path style=" stroke:none;fill-rule:nonzero;fill:rgb(9.803922%,52.156863%,58.823529%);fill-opacity:1;" d="M 18.441406 0.714844 C 18.882812 0.714844 19.242188 1.074219 19.242188 1.515625 L 19.242188 18.417969 C 19.242188 18.859375 18.882812 19.214844 18.441406 19.21875 L 1.515625 19.21875 C 1.300781 19.222656 1.09375 19.140625 0.9375 18.988281 C 0.785156 18.839844 0.699219 18.632812 0.699219 18.417969 L 0.699219 1.515625 C 0.699219 1.300781 0.785156 1.09375 0.9375 0.945312 C 1.09375 0.792969 1.300781 0.710938 1.515625 0.714844 L 18.441406 0.714844 M 18.441406 0 L 1.515625 0 C 1.109375 -0.00390625 0.722656 0.152344 0.433594 0.4375 C 0.148438 0.722656 -0.015625 1.109375 -0.015625 1.515625 L -0.015625 18.417969 C -0.015625 19.253906 0.664062 19.933594 1.5 19.933594 L 18.429688 19.933594 C 19.265625 19.933594 19.941406 19.253906 19.941406 18.417969 L 19.941406 1.515625 C 19.941406 0.683594 19.273438 0.0078125 18.441406 0 Z M 18.441406 0 "/>
<path style=" stroke:none;fill-rule:nonzero;fill:rgb(9.803922%,52.156863%,58.823529%);fill-opacity:1;" d="M 12.484375 15.476562 L 15.988281 15.476562 L 15.988281 6.484375 L 16.769531 6.484375 C 16.914062 6.503906 17.058594 6.433594 17.128906 6.308594 C 17.1875 6.171875 17.15625 6.015625 17.054688 5.910156 L 15.117188 3.328125 C 15.03125 3.203125 14.890625 3.125 14.734375 3.121094 C 14.582031 3.125 14.4375 3.203125 14.351562 3.328125 L 12.402344 5.910156 C 12.300781 6.015625 12.269531 6.171875 12.328125 6.308594 C 12.398438 6.433594 12.542969 6.503906 12.6875 6.484375 L 13.46875 6.484375 L 13.46875 15.476562 L 11.71875 15.476562 L 11.71875 9.917969 L 12.484375 9.917969 C 12.632812 9.949219 12.785156 9.878906 12.855469 9.742188 C 12.921875 9.605469 12.890625 9.441406 12.773438 9.34375 L 10.84375 6.75 C 10.757812 6.621094 10.613281 6.542969 10.457031 6.542969 C 10.300781 6.542969 10.15625 6.621094 10.070312 6.75 L 8.125 9.332031 C 8.011719 9.433594 7.976562 9.597656 8.046875 9.730469 C 8.113281 9.867188 8.265625 9.941406 8.414062 9.90625 L 9.191406 9.90625 L 9.191406 15.476562 L 1.800781 15.476562 C 1.554688 15.476562 1.355469 15.671875 1.355469 15.917969 C 1.355469 16.164062 1.554688 16.359375 1.800781 16.359375 L 18.390625 16.359375 C 18.632812 16.359375 18.832031 16.164062 18.832031 15.917969 C 18.832031 15.671875 18.632812 15.476562 18.390625 15.476562 L 16.835938 15.476562 M 14.453125 15.390625 L 14.453125 15.390625 M 14.8125 15.476562 L 14.453125 15.390625 "/>
<path style=" stroke:none;fill-rule:nonzero;fill:rgb(9.803922%,52.156863%,58.823529%);fill-opacity:1;" d="M 7.167969 16.035156 L 7.167969 13.105469 L 7.949219 13.105469 C 8.097656 13.136719 8.246094 13.0625 8.3125 12.929688 C 8.382812 12.792969 8.347656 12.632812 8.234375 12.53125 L 6.289062 9.964844 C 6.199219 9.839844 6.058594 9.765625 5.90625 9.761719 C 5.753906 9.765625 5.613281 9.839844 5.519531 9.964844 L 3.574219 12.550781 C 3.46875 12.652344 3.441406 12.8125 3.5 12.945312 C 3.570312 13.074219 3.710938 13.144531 3.855469 13.125 L 4.628906 13.125 L 4.628906 16.035156 "/>
</g>
</svg>
