<?xml version="1.0" encoding="UTF-8"?>
<svg xmlns="http://www.w3.org/2000/svg" xmlns:xlink="http://www.w3.org/1999/xlink" width="20px" height="20px" viewBox="0 0 20 20" version="1.1">
<g id="surface1">
<path style=" stroke:none;fill-rule:nonzero;fill:rgb(100%,100%,100%);fill-opacity:1;" d="M 1.515625 0.355469 L 18.441406 0.355469 C 19.082031 0.355469 19.601562 0.875 19.601562 1.515625 L 19.601562 18.417969 C 19.601562 19.058594 19.082031 19.574219 18.441406 19.574219 L 1.515625 19.574219 C 0.875 19.574219 0.355469 19.058594 0.355469 18.417969 L 0.355469 1.515625 C 0.355469 0.875 0.875 0.355469 1.515625 0.355469 Z M 1.515625 0.355469 "/>
<path style=" stroke:none;fill-rule:nonzero;fill:rgb(9.803922%,52.156863%,58.823529%);fill-opacity:1;" d="M 18.441406 0.714844 C 18.882812 0.714844 19.242188 1.074219 19.242188 1.515625 L 19.242188 18.417969 C 19.242188 18.859375 18.882812 19.214844 18.441406 19.21875 L 1.515625 19.21875 C 1.300781 19.222656 1.09375 19.140625 0.9375 18.988281 C 0.785156 18.839844 0.699219 18.632812 0.699219 18.417969 L 0.699219 1.515625 C 0.699219 1.300781 0.785156 1.09375 0.9375 0.945312 C 1.09375 0.792969 1.300781 0.710938 1.515625 0.714844 L 18.441406 0.714844 M 18.441406 0 L 1.515625 0 C 1.109375 -0.00390625 0.722656 0.152344 0.433594 0.4375 C 0.148438 0.722656 -0.015625 1.109375 -0.015625 1.515625 L -0.015625 18.417969 C -0.015625 19.253906 0.664062 19.933594 1.5 19.933594 L 18.429688 19.933594 C 19.265625 19.933594 19.941406 19.253906 19.941406 18.417969 L 19.941406 1.515625 C 19.941406 0.683594 19.273438 0.0078125 18.441406 0 Z M 18.441406 0 "/>
<path style=" stroke:none;fill-rule:nonzero;fill:rgb(9.803922%,52.156863%,58.823529%);fill-opacity:1;" d="M 17.375 6.105469 L 14.953125 6.105469 C 15.121094 5.746094 15.253906 5.371094 15.34375 4.984375 C 15.507812 4.324219 15.582031 3.644531 15.566406 2.960938 L 15.519531 1.617188 L 14.855469 2.785156 C 14.53125 3.367188 14.105469 3.882812 13.597656 4.3125 C 13.207031 4.640625 12.769531 4.90625 12.300781 5.101562 C 12.042969 5.207031 11.773438 5.289062 11.5 5.351562 L 8.445312 5.351562 C 7.011719 5.015625 5.789062 4.082031 5.09375 2.785156 L 4.429688 1.617188 L 4.371094 2.960938 C 4.355469 3.644531 4.433594 4.324219 4.597656 4.984375 C 4.683594 5.371094 4.816406 5.75 4.984375 6.105469 L 2.574219 6.105469 L 2.574219 6.484375 C 2.589844 7.261719 2.886719 8.007812 3.414062 8.578125 C 3.988281 9.140625 4.753906 9.46875 5.558594 9.5 C 5.558594 10.660156 5.730469 11.519531 6.078125 12.105469 C 6.710938 13.179688 6.867188 16.355469 6.875 17.492188 L 6.875 17.589844 L 6.925781 17.679688 C 7.082031 17.902344 7.316406 18.066406 7.582031 18.140625 C 8.355469 18.375 9.164062 18.480469 9.976562 18.445312 C 10.785156 18.480469 11.59375 18.375 12.367188 18.140625 C 12.636719 18.066406 12.867188 17.902344 13.027344 17.679688 L 13.074219 17.589844 L 13.074219 17.492188 C 13.074219 16.355469 13.238281 13.179688 13.875 12.105469 C 14.230469 11.519531 14.394531 10.679688 14.394531 9.5 C 15.195312 9.46875 15.960938 9.140625 16.535156 8.578125 C 17.066406 8.007812 17.363281 7.261719 17.378906 6.484375 Z M 5.882812 6.105469 C 5.558594 5.558594 5.34375 4.953125 5.25 4.320312 C 5.445312 4.535156 5.652344 4.734375 5.875 4.921875 C 6.203125 5.191406 6.5625 5.425781 6.945312 5.613281 C 6.683594 5.75 6.4375 5.914062 6.214844 6.105469 Z M 6.738281 11.1875 C 6.433594 10.972656 6.351562 10.554688 6.558594 10.242188 C 6.695312 9.894531 7.089844 9.722656 7.4375 9.855469 C 7.746094 10.070312 7.824219 10.492188 7.621094 10.804688 C 7.476562 11.148438 7.089844 11.316406 6.738281 11.1875 Z M 12.304688 17.3125 C 12.085938 17.425781 11.855469 17.503906 11.613281 17.542969 C 11.410156 17.234375 10.953125 16.828125 9.992188 16.828125 L 9.984375 16.828125 C 9.019531 16.828125 8.558594 17.246094 8.359375 17.542969 C 8.109375 17.507812 7.871094 17.429688 7.644531 17.3125 C 7.644531 17.152344 7.644531 16.894531 7.625 16.574219 C 8.1875 16.085938 9.195312 14.886719 9.234375 12.613281 C 9.285156 9.464844 7.191406 8.992188 7.96875 7.792969 C 8.742188 6.59375 9.597656 6.855469 9.984375 6.855469 C 10.375 6.855469 11.226562 6.597656 12 7.792969 C 12.773438 8.988281 10.699219 9.46875 10.730469 12.617188 C 10.769531 14.867188 11.761719 16.0625 12.324219 16.546875 C 12.324219 16.875 12.324219 17.136719 12.304688 17.296875 Z M 13.230469 11.1875 C 12.878906 11.316406 12.488281 11.148438 12.347656 10.804688 C 12.140625 10.488281 12.222656 10.070312 12.53125 9.855469 C 12.882812 9.722656 13.273438 9.894531 13.414062 10.242188 C 13.621094 10.554688 13.539062 10.976562 13.230469 11.1875 Z M 14.066406 6.105469 L 13.753906 6.105469 C 13.535156 5.917969 13.296875 5.753906 13.039062 5.617188 C 13.421875 5.429688 13.78125 5.195312 14.109375 4.925781 C 14.332031 4.738281 14.542969 4.539062 14.734375 4.324219 C 14.640625 4.957031 14.425781 5.5625 14.105469 6.109375 Z M 14.066406 6.105469 "/>
</g>
</svg>
