<?xml version="1.0" encoding="UTF-8"?>
<svg xmlns="http://www.w3.org/2000/svg" xmlns:xlink="http://www.w3.org/1999/xlink" width="20px" height="20px" viewBox="0 0 20 20" version="1.1">
<g id="surface1">
<path style=" stroke:none;fill-rule:nonzero;fill:rgb(100%,100%,100%);fill-opacity:1;" d="M 1.515625 0.355469 L 18.441406 0.355469 C 19.082031 0.355469 19.601562 0.875 19.601562 1.515625 L 19.601562 18.417969 C 19.601562 19.058594 19.082031 19.574219 18.441406 19.574219 L 1.515625 19.574219 C 0.875 19.574219 0.355469 19.058594 0.355469 18.417969 L 0.355469 1.515625 C 0.355469 0.875 0.875 0.355469 1.515625 0.355469 Z M 1.515625 0.355469 "/>
<path style=" stroke:none;fill-rule:nonzero;fill:rgb(9.803922%,52.156863%,58.823529%);fill-opacity:1;" d="M 18.441406 0.714844 C 18.882812 0.714844 19.242188 1.074219 19.242188 1.515625 L 19.242188 18.417969 C 19.242188 18.859375 18.882812 19.214844 18.441406 19.21875 L 1.515625 19.21875 C 1.300781 19.222656 1.09375 19.140625 0.9375 18.988281 C 0.785156 18.839844 0.699219 18.632812 0.699219 18.417969 L 0.699219 1.515625 C 0.699219 1.300781 0.785156 1.09375 0.9375 0.945312 C 1.09375 0.792969 1.300781 0.710938 1.515625 0.714844 L 18.441406 0.714844 M 18.441406 0 L 1.515625 0 C 1.109375 -0.00390625 0.722656 0.152344 0.433594 0.4375 C 0.148438 0.722656 -0.015625 1.109375 -0.015625 1.515625 L -0.015625 18.417969 C -0.015625 19.253906 0.664062 19.933594 1.5 19.933594 L 18.429688 19.933594 C 19.265625 19.933594 19.941406 19.253906 19.941406 18.417969 L 19.941406 1.515625 C 19.941406 0.683594 19.273438 0.0078125 18.441406 0 Z M 18.441406 0 "/>
<path style=" stroke:none;fill-rule:nonzero;fill:rgb(9.803922%,52.156863%,58.823529%);fill-opacity:1;" d="M 11.144531 5.070312 C 11.144531 3.394531 9.789062 2.035156 8.109375 2.035156 C 6.433594 2.035156 5.074219 3.394531 5.074219 5.070312 L 5.074219 11.890625 C 4.441406 12.613281 4.09375 13.542969 4.101562 14.507812 C 4.054688 15.964844 4.808594 17.335938 6.066406 18.078125 C 7.324219 18.820312 8.886719 18.820312 10.144531 18.078125 C 11.402344 17.335938 12.15625 15.964844 12.109375 14.507812 C 12.117188 13.542969 11.769531 12.613281 11.136719 11.890625 Z M 8.109375 17.4375 C 6.929688 17.441406 5.863281 16.738281 5.402344 15.652344 C 4.941406 14.566406 5.175781 13.308594 6 12.464844 C 6.09375 12.367188 6.144531 12.242188 6.148438 12.105469 L 6.148438 5.070312 C 6.148438 3.992188 7.023438 3.117188 8.105469 3.117188 C 9.183594 3.117188 10.058594 3.992188 10.058594 5.070312 L 10.058594 12.105469 C 10.0625 12.242188 10.121094 12.367188 10.214844 12.464844 C 11.03125 13.308594 11.265625 14.558594 10.808594 15.640625 C 10.347656 16.722656 9.285156 17.425781 8.109375 17.425781 Z M 8.109375 17.4375 "/>
<path style=" stroke:none;fill-rule:nonzero;fill:rgb(9.803922%,52.156863%,58.823529%);fill-opacity:1;" d="M 9.019531 12.789062 L 9.019531 10.320312 C 9.019531 9.824219 8.617188 9.417969 8.117188 9.417969 C 7.617188 9.417969 7.214844 9.824219 7.214844 10.320312 L 7.214844 12.789062 C 6.597656 13.121094 6.214844 13.765625 6.210938 14.464844 C 6.210938 15.515625 7.0625 16.367188 8.113281 16.367188 C 9.164062 16.367188 10.019531 15.515625 10.019531 14.464844 C 10.015625 13.765625 9.632812 13.125 9.019531 12.789062 Z M 9.019531 12.789062 "/>
<path style=" stroke:none;fill-rule:nonzero;fill:rgb(9.803922%,52.156863%,58.823529%);fill-opacity:1;" d="M 12.84375 4.046875 L 15.34375 4.046875 C 15.644531 4.046875 15.890625 3.800781 15.890625 3.5 C 15.890625 3.199219 15.644531 2.953125 15.34375 2.953125 L 12.84375 2.953125 C 12.542969 2.953125 12.296875 3.199219 12.296875 3.5 C 12.296875 3.800781 12.542969 4.046875 12.84375 4.046875 Z M 12.84375 4.046875 "/>
<path style=" stroke:none;fill-rule:nonzero;fill:rgb(9.803922%,52.156863%,58.823529%);fill-opacity:1;" d="M 15.367188 5.480469 L 12.84375 5.480469 C 12.546875 5.480469 12.308594 5.722656 12.308594 6.019531 C 12.308594 6.3125 12.546875 6.554688 12.84375 6.554688 L 15.34375 6.554688 C 15.640625 6.554688 15.878906 6.3125 15.878906 6.019531 C 15.878906 5.722656 15.640625 5.480469 15.34375 5.480469 Z M 15.367188 5.480469 "/>
<path style=" stroke:none;fill-rule:nonzero;fill:rgb(9.803922%,52.156863%,58.823529%);fill-opacity:1;" d="M 15.367188 7.980469 L 12.84375 7.980469 C 12.585938 8.03125 12.402344 8.253906 12.402344 8.515625 C 12.402344 8.773438 12.585938 9 12.84375 9.050781 L 15.34375 9.050781 C 15.597656 9 15.78125 8.773438 15.78125 8.515625 C 15.78125 8.253906 15.597656 8.03125 15.34375 7.980469 Z M 15.367188 7.980469 "/>
<path style=" stroke:none;fill-rule:nonzero;fill:rgb(9.803922%,52.156863%,58.823529%);fill-opacity:1;" d="M 15.367188 10.503906 L 12.84375 10.503906 C 12.546875 10.503906 12.308594 10.742188 12.308594 11.039062 C 12.308594 11.335938 12.546875 11.574219 12.84375 11.574219 L 15.34375 11.574219 C 15.640625 11.574219 15.878906 11.335938 15.878906 11.039062 C 15.878906 10.742188 15.640625 10.503906 15.34375 10.503906 Z M 15.367188 10.503906 "/>
</g>
</svg>
