<?xml version="1.0" encoding="UTF-8"?><svg xmlns="http://www.w3.org/2000/svg" width="20px" height="20px" viewBox="0 0 56.33 56.53"><defs><style>.c{fill:#fff;}.d{fill:#198596;}</style></defs><g id="a"><g><rect class="c" x="1.17" y="1.19" width="54" height="54" rx="11" ry="11"/><path class="c" d="M44.17,2.19c5.51,0,10,4.49,10,10V44.19c0,5.51-4.49,10-10,10H12.17c-5.51,0-10-4.49-10-10V12.19C2.17,6.68,6.65,2.19,12.17,2.19H44.17m0-2H12.17C5.57,.19,.17,5.59,.17,12.19V44.19c0,6.6,5.4,12,12,12H44.17c6.6,0,12-5.4,12-12V12.19C56.17,5.59,50.77,.19,44.17,.19h0Z"/></g><g><rect class="c" x="1.2" y="1.29" width="53.88" height="53.88" rx="3.24" ry="3.24"/><path class="c" d="M51.84,2.29c1.24,0,2.24,1.01,2.24,2.24V51.93c0,1.24-1.01,2.24-2.24,2.24H4.44c-1.24,0-2.24-1.01-2.24-2.24V4.53c0-1.24,1.01-2.24,2.24-2.24H51.84m0-2H4.44C2.1,.29,.2,2.19,.2,4.53V51.93c0,2.34,1.9,4.24,4.24,4.24H51.84c2.34,0,4.24-1.9,4.24-4.24V4.53c0-2.34-1.9-4.24-4.24-4.24h0Z"/></g><g><rect class="c" x="1.2" y="1.29" width="53.88" height="53.81" rx="3.24" ry="3.24"/><path class="d" d="M51.84,2.29c1.24,0,2.24,1.01,2.24,2.24V51.86c0,1.24-1.01,2.24-2.24,2.24H4.44c-1.24,0-2.24-1.01-2.24-2.24V4.53c0-1.24,1.01-2.24,2.24-2.24H51.84m0-2H4.44C2.1,.29,.2,2.19,.2,4.53V51.86c0,2.34,1.9,4.24,4.24,4.24H51.84c2.34,0,4.24-1.9,4.24-4.24V4.53c0-2.34-1.9-4.24-4.24-4.24h0Z"/></g></g><g id="b"><path class="d" d="M43.94,16.73c-.89,.81-1.37,1.9-1.37,3.14,0,1.34-.05,18.06-.07,24.79H14.71s-.08,0-.12,0-.08,0-.12,0h-.07c-1.85,.1-3.32,1.63-3.32,3.51s1.57,3.51,3.51,3.51,3.51-1.57,3.51-3.51c0-.25-.03-.49-.08-.73h20.51c-.05,.24-.08,.5-.08,.76,0,1.94,1.57,3.51,3.51,3.51s3.51-1.57,3.51-3.51c0-.4-.07-.79-.2-1.15,0-3.24,.08-25.61,.08-27.18,0-.46,.14-.8,.45-1.08,1.02-.93,3.54-1.06,4.9-.93l.27-2.77c-.48-.05-4.77-.41-7.03,1.64Z"/><path class="d" d="M38.49,26.05h-6.52v1.82h6.52c.9,0,1.64,.74,1.64,1.64v10.57c0,.9-.74,1.64-1.64,1.64H14.63c-.43,0-1.13-1.03-1.46-1.95l-5.06-10.64s-.01-.21,.14-.45c.3-.46,.88-.81,1.35-.81h9.32v-1.82H9.6c-1.09,0-2.25,.66-2.88,1.65-.47,.73-.56,1.53-.26,2.2l5.01,10.53c.23,.62,1.26,3.11,3.16,3.11h23.86c1.91,0,3.46-1.55,3.46-3.46v-10.57c0-1.91-1.55-3.46-3.46-3.46Z"/><path class="d" d="M40.33,13.43h-4.99c.34-.69,.61-1.46,.82-2.3,.54-2.18,.47-4.09,.47-4.17l-.12-2.76-1.37,2.4c-.71,1.24-1.58,2.3-2.59,3.15-.81,.68-1.71,1.22-2.67,1.62-.61,.25-1.17,.41-1.64,.51h-6.29c-1.74-.38-4.79-1.58-6.9-5.28l-1.37-2.4-.12,2.76c0,.08-.08,2,.46,4.17,.21,.84,.49,1.61,.82,2.3h-4.98l-.02,.78c0,.1-.03,2.49,1.73,4.31,1.08,1.11,2.56,1.75,4.43,1.9,0,2.39,.35,4.15,1.07,5.36,1.3,2.2,1.63,8.75,1.64,11.09v.2l.1,.18c.11,.21,.44,.6,1.36,.95,1.12,.42,2.78,.64,4.93,.64s3.8-.21,4.93-.64c.92-.35,1.24-.74,1.36-.95l.1-.18v-.2c.01-2.34,.34-8.88,1.64-11.09,.72-1.21,1.07-2.97,1.07-5.36,1.86-.15,3.35-.79,4.43-1.9,1.76-1.81,1.73-4.21,1.73-4.31l-.02-.78Zm-23.66,0c-.72-1.14-1.1-2.5-1.3-3.67,.4,.45,.83,.86,1.28,1.23,.67,.56,1.4,1.04,2.17,1.43-.49,.26-1.05,.6-1.5,1h-.65Zm1.76,10.46c-.61-.32-.78-1.19-.38-1.95,.4-.76,1.21-1.11,1.82-.79,.61,.32,.78,1.19,.38,1.95-.4,.75-1.21,1.11-1.82,.79h0Zm11.45,12.61c-.2,.12-.61,.31-1.41,.47-.42-.63-1.36-1.47-3.34-1.48h-.04c-1.99,.01-2.92,.86-3.34,1.49-.82-.16-1.25-.35-1.45-.47,0-.32-.02-.85-.05-1.51,1.16-1.01,3.24-3.48,3.31-8.15,.11-6.49-4.2-7.46-2.61-9.92,1.6-2.46,3.35-1.93,4.15-1.93s2.55-.53,4.15,1.93c1.59,2.47-2.71,3.44-2.61,9.92,.08,4.63,2.12,7.09,3.28,8.12-.03,.67-.04,1.21-.05,1.54h0Zm1.91-12.61c-.61,.32-1.42-.04-1.82-.79-.4-.76-.23-1.63,.38-1.95,.61-.32,1.42,.04,1.82,.79,.4,.75,.23,1.63-.38,1.95h0Zm1.72-10.46h-.65c-.45-.4-1.02-.75-1.51-1,.77-.39,1.5-.87,2.17-1.43,.45-.38,.88-.79,1.28-1.23-.2,1.17-.58,2.53-1.3,3.67h0Zm0,0"/></g></svg>