<?xml version="1.0" encoding="UTF-8"?>
<svg xmlns="http://www.w3.org/2000/svg" xmlns:xlink="http://www.w3.org/1999/xlink" width="20px" height="20px" viewBox="0 0 20 20" version="1.1">
<g id="surface1">
<path style=" stroke:none;fill-rule:nonzero;fill:rgb(100%,100%,100%);fill-opacity:1;" d="M 1.515625 0.355469 L 18.441406 0.355469 C 19.082031 0.355469 19.601562 0.875 19.601562 1.515625 L 19.601562 18.417969 C 19.601562 19.058594 19.082031 19.574219 18.441406 19.574219 L 1.515625 19.574219 C 0.875 19.574219 0.355469 19.058594 0.355469 18.417969 L 0.355469 1.515625 C 0.355469 0.875 0.875 0.355469 1.515625 0.355469 Z M 1.515625 0.355469 "/>
<path style=" stroke:none;fill-rule:nonzero;fill:rgb(9.803922%,52.156863%,58.823529%);fill-opacity:1;" d="M 18.441406 0.714844 C 18.882812 0.714844 19.242188 1.074219 19.242188 1.515625 L 19.242188 18.417969 C 19.242188 18.859375 18.882812 19.214844 18.441406 19.21875 L 1.515625 19.21875 C 1.300781 19.222656 1.09375 19.140625 0.9375 18.988281 C 0.785156 18.839844 0.699219 18.632812 0.699219 18.417969 L 0.699219 1.515625 C 0.699219 1.300781 0.785156 1.09375 0.9375 0.945312 C 1.09375 0.792969 1.300781 0.710938 1.515625 0.714844 L 18.441406 0.714844 M 18.441406 0 L 1.515625 0 C 1.109375 -0.00390625 0.722656 0.152344 0.433594 0.4375 C 0.148438 0.722656 -0.015625 1.109375 -0.015625 1.515625 L -0.015625 18.417969 C -0.015625 19.253906 0.664062 19.933594 1.5 19.933594 L 18.429688 19.933594 C 19.265625 19.933594 19.941406 19.253906 19.941406 18.417969 L 19.941406 1.515625 C 19.941406 0.683594 19.273438 0.0078125 18.441406 0 Z M 18.441406 0 "/>
<path style=" stroke:none;fill-rule:nonzero;fill:rgb(9.803922%,52.156863%,58.823529%);fill-opacity:1;" d="M 4.851562 7.554688 L 8.0625 11.160156 L 7.128906 12.019531 C 6.929688 12.15625 6.832031 12.398438 6.882812 12.632812 C 6.914062 12.753906 7.023438 12.960938 7.40625 13.039062 L 12.617188 14.070312 C 12.867188 14.136719 13.136719 14.074219 13.332031 13.902344 C 13.507812 13.726562 13.589844 13.476562 13.558594 13.230469 L 13.113281 7.925781 C 13.140625 7.679688 13 7.445312 12.769531 7.351562 C 12.542969 7.261719 12.277344 7.335938 12.128906 7.53125 L 11.171875 8.390625 L 7.957031 4.78125 "/>
<path style=" stroke:none;fill-rule:nonzero;fill:rgb(9.803922%,52.156863%,58.823529%);fill-opacity:1;" d="M 6.886719 3.941406 C 6.886719 5.113281 5.9375 6.0625 4.765625 6.0625 C 3.59375 6.0625 2.644531 5.113281 2.644531 3.941406 C 2.644531 2.769531 3.59375 1.820312 4.765625 1.820312 C 5.9375 1.820312 6.886719 2.769531 6.886719 3.941406 Z M 6.886719 3.941406 "/>
<path style=" stroke:none;fill-rule:nonzero;fill:rgb(9.803922%,52.156863%,58.823529%);fill-opacity:1;" d="M 17.375 15.984375 C 17.375 17.15625 16.425781 18.105469 15.253906 18.105469 C 14.082031 18.105469 13.132812 17.15625 13.132812 15.984375 C 13.132812 14.8125 14.082031 13.863281 15.253906 13.863281 C 16.425781 13.863281 17.375 14.8125 17.375 15.984375 Z M 17.375 15.984375 "/>
</g>
</svg>
