<?xml version="1.0" encoding="UTF-8"?>
<svg xmlns="http://www.w3.org/2000/svg" xmlns:xlink="http://www.w3.org/1999/xlink" width="20px" height="20px" viewBox="0 0 20 20" version="1.1">
<g id="surface1">
<path style=" stroke:none;fill-rule:nonzero;fill:rgb(100%,100%,100%);fill-opacity:1;" d="M 1.515625 0.355469 L 18.441406 0.355469 C 19.082031 0.355469 19.601562 0.875 19.601562 1.515625 L 19.601562 18.417969 C 19.601562 19.058594 19.082031 19.574219 18.441406 19.574219 L 1.515625 19.574219 C 0.875 19.574219 0.355469 19.058594 0.355469 18.417969 L 0.355469 1.515625 C 0.355469 0.875 0.875 0.355469 1.515625 0.355469 Z M 1.515625 0.355469 "/>
<path style=" stroke:none;fill-rule:nonzero;fill:rgb(9.803922%,52.156863%,58.823529%);fill-opacity:1;" d="M 18.441406 0.714844 C 18.882812 0.714844 19.242188 1.074219 19.242188 1.515625 L 19.242188 18.417969 C 19.242188 18.859375 18.882812 19.214844 18.441406 19.21875 L 1.515625 19.21875 C 1.300781 19.222656 1.09375 19.140625 0.9375 18.988281 C 0.785156 18.839844 0.699219 18.632812 0.699219 18.417969 L 0.699219 1.515625 C 0.699219 1.300781 0.785156 1.09375 0.9375 0.945312 C 1.09375 0.792969 1.300781 0.710938 1.515625 0.714844 L 18.441406 0.714844 M 18.441406 0 L 1.515625 0 C 1.109375 -0.00390625 0.722656 0.152344 0.433594 0.4375 C 0.148438 0.722656 -0.015625 1.109375 -0.015625 1.515625 L -0.015625 18.417969 C -0.015625 19.253906 0.664062 19.933594 1.5 19.933594 L 18.429688 19.933594 C 19.265625 19.933594 19.941406 19.253906 19.941406 18.417969 L 19.941406 1.515625 C 19.941406 0.683594 19.273438 0.0078125 18.441406 0 Z M 18.441406 0 "/>
<path style=" stroke:none;fill-rule:nonzero;fill:rgb(9.803922%,52.156863%,58.823529%);fill-opacity:1;" d="M 10.105469 1.8125 L 1.90625 1.8125 L 1.894531 10.023438 L 10.105469 18.238281 L 18.320312 10.023438 Z M 10.105469 1.8125 "/>
<path style=" stroke:none;fill-rule:nonzero;fill:rgb(100%,100%,100%);fill-opacity:1;" d="M 9.570312 15.855469 C 9.519531 15.90625 9.441406 15.90625 9.34375 15.855469 C 9.027344 15.605469 8.730469 15.332031 8.457031 15.039062 C 8.167969 14.765625 7.902344 14.472656 7.652344 14.164062 C 7.570312 14.042969 7.570312 13.882812 7.652344 13.761719 C 7.988281 13.21875 8.144531 12.902344 8.113281 12.8125 C 7.742188 12.375 7.34375 11.957031 6.921875 11.5625 C 6.664062 11.265625 6.375 11.003906 6.058594 10.773438 C 5.816406 10.832031 5.589844 10.9375 5.394531 11.089844 C 5.085938 11.285156 4.878906 11.351562 4.773438 11.289062 C 4.394531 10.980469 4.035156 10.644531 3.703125 10.285156 C 3.238281 9.820312 3.050781 9.542969 3.140625 9.453125 C 3.230469 9.363281 4.53125 8.738281 7.089844 7.566406 C 9.855469 6.308594 11.367188 5.605469 11.632812 5.453125 C 11.785156 5.375 11.886719 5.359375 11.9375 5.40625 C 11.984375 5.453125 12.136719 5.625 12.292969 5.8125 C 12.449219 5.996094 12.570312 6.136719 12.648438 6.222656 C 12.730469 6.308594 12.855469 6.417969 13.027344 6.578125 L 13.402344 6.9375 C 13.460938 6.992188 13.464844 7.097656 13.402344 7.246094 C 13.230469 7.722656 12.570312 9.253906 11.421875 11.839844 C 10.269531 14.425781 9.65625 15.761719 9.570312 15.855469 Z M 10.496094 8.453125 C 10.296875 8.523438 9.898438 8.707031 9.300781 9.003906 C 8.925781 9.167969 8.566406 9.363281 8.230469 9.59375 C 8.171875 9.644531 8.230469 9.765625 8.410156 9.949219 C 8.496094 10.050781 8.648438 10.207031 8.867188 10.425781 C 9.085938 10.644531 9.203125 10.710938 9.269531 10.6875 C 9.300781 10.671875 9.324219 10.652344 9.347656 10.628906 C 9.582031 10.308594 9.785156 9.964844 9.957031 9.605469 C 10.160156 9.234375 10.339844 8.847656 10.496094 8.453125 Z M 10.496094 8.453125 "/>
</g>
</svg>
