<?xml version="1.0" encoding="UTF-8" standalone="no"?>
<!DOCTYPE svg PUBLIC "-//W3C//DTD SVG 1.1//EN" "http://www.w3.org/Graphics/SVG/1.1/DTD/svg11.dtd">
<svg width="20px" height="20px" viewBox="0 0 57 57" version="1.1" xmlns="http://www.w3.org/2000/svg" xmlns:xlink="http://www.w3.org/1999/xlink" xml:space="preserve" xmlns:serif="http://www.serif.com/" style="fill-rule:evenodd;clip-rule:evenodd;stroke-linejoin:round;stroke-miterlimit:2;">
    <g id="Border">
        <g transform="matrix(1,0,0,1,4.2925,1.1942)">
            <path d="M0,53.738C-1.787,53.738 -3.241,52.284 -3.241,50.497L-3.241,3.241C-3.241,1.454 -1.787,0 0,0L47.541,0C49.328,0 50.782,1.454 50.782,3.241L50.782,50.497C50.782,52.284 49.328,53.738 47.541,53.738L0,53.738Z" style="fill:white;fill-rule:nonzero;"/>
        </g>
        <g id="ActivityBorder" transform="matrix(1,0,0,1,51.8335,55.9322)">
            <path d="M0,-55.738L-47.541,-55.738C-49.883,-55.738 -51.782,-53.839 -51.782,-51.497L-51.782,-4.241C-51.782,-1.899 -49.883,0 -47.541,0L0,0C2.342,0 4.241,-1.899 4.241,-4.241L4.241,-51.497C4.241,-53.839 2.342,-55.738 0,-55.738M0,-53.738C1.236,-53.738 2.241,-52.733 2.241,-51.497L2.241,-4.241C2.241,-3.006 1.236,-2 0,-2L-47.541,-2C-48.777,-2 -49.782,-3.006 -49.782,-4.241L-49.782,-51.497C-49.782,-52.733 -48.777,-53.738 -47.541,-53.738L0,-53.738Z" style="fill:rgb(25,133,150);fill-rule:nonzero;"/>
        </g>
    </g>
    <g id="Activities">
        <g id="Grow24">
            <g transform="matrix(0.969827,0,0,0.999384,0.0713597,-2.05955)">
                <g transform="matrix(19.7699,0,0,19.7699,51.9822,19.8692)">
                </g>
                <text x="5.192px" y="19.869px" style="font-family:'FranklinGothic-Demi', 'Franklin Gothic Demi';font-size:19.77px;fill:rgb(25,133,150);">O<tspan x="17.414px 29.818px 41.672px " y="19.869px 19.869px 19.869px ">DDY</tspan></text>
            </g>
            <g transform="matrix(1,0,0,1,40.4433,15.6994)">
                <path d="M-6.484,31.857L3.327,31.857L3.327,14.696L5.515,14.696C6.177,14.696 6.433,14.382 6.526,14.195C6.619,14.007 6.716,13.614 6.318,13.085L0.866,5.851C0.59,5.485 0.198,5.276 -0.21,5.276C-0.618,5.276 -1.01,5.485 -1.285,5.851L-6.737,13.085C-7.136,13.614 -7.039,14.007 -6.946,14.195C-6.853,14.382 -6.597,14.696 -5.934,14.696L-3.747,14.696L-3.747,31.857L-8.648,31.857L-8.648,24.303L-6.461,24.303C-5.799,24.303 -5.543,23.989 -5.45,23.801C-5.356,23.614 -5.259,23.22 -5.658,22.692L-11.11,15.458C-11.385,15.092 -11.777,14.882 -12.185,14.882C-12.593,14.882 -12.985,15.092 -13.261,15.458L-18.713,22.692C-19.112,23.221 -19.015,23.614 -18.921,23.801C-18.828,23.989 -18.573,24.303 -17.91,24.303L-15.723,24.303L-15.723,31.857L-35.424,31.857C-36.111,31.857 -36.668,32.414 -36.668,33.101C-36.668,33.788 -36.111,34.345 -35.424,34.345L11.028,34.345C11.716,34.345 12.272,33.788 12.272,33.101C12.272,32.414 11.715,31.857 11.028,31.857L1.675,31.857" style="fill:rgb(25,133,150);fill-rule:nonzero;"/>
            </g>
            <g transform="matrix(1,0,0,1,20.3092,34)">
                <path d="M4,15.653L4,14.421L6.187,14.421C6.849,14.421 2.105,14.107 2.199,13.919C2.292,13.732 2.389,13.338 1.99,12.81L-3.462,5.576C-3.737,5.21 -4.129,5 -4.537,5C-4.945,5 -5.337,5.21 -5.613,5.576L-11.065,12.81C-11.464,13.339 -11.366,13.732 -11.273,13.919C-11.18,14.107 -5.925,14.421 -5.262,14.421L-3.074,14.421L-3.074,15.653" style="fill:rgb(25,133,150);fill-rule:nonzero;"/>
            </g>
        </g>
    </g>
</svg>
