<?xml version="1.0" encoding="UTF-8"?>
<svg xmlns="http://www.w3.org/2000/svg" xmlns:xlink="http://www.w3.org/1999/xlink" width="20px" height="20px" viewBox="0 0 20 20" version="1.1">
<g id="surface1">
<path style=" stroke:none;fill-rule:nonzero;fill:rgb(100%,100%,100%);fill-opacity:1;" d="M 1.515625 0.355469 L 18.441406 0.355469 C 19.082031 0.355469 19.601562 0.875 19.601562 1.515625 L 19.601562 18.417969 C 19.601562 19.058594 19.082031 19.574219 18.441406 19.574219 L 1.515625 19.574219 C 0.875 19.574219 0.355469 19.058594 0.355469 18.417969 L 0.355469 1.515625 C 0.355469 0.875 0.875 0.355469 1.515625 0.355469 Z M 1.515625 0.355469 "/>
<path style=" stroke:none;fill-rule:nonzero;fill:rgb(9.803922%,52.156863%,58.823529%);fill-opacity:1;" d="M 18.441406 0.714844 C 18.882812 0.714844 19.242188 1.074219 19.242188 1.515625 L 19.242188 18.417969 C 19.242188 18.859375 18.882812 19.214844 18.441406 19.21875 L 1.515625 19.21875 C 1.300781 19.222656 1.09375 19.140625 0.9375 18.988281 C 0.785156 18.839844 0.699219 18.632812 0.699219 18.417969 L 0.699219 1.515625 C 0.699219 1.300781 0.785156 1.09375 0.9375 0.945312 C 1.09375 0.792969 1.300781 0.710938 1.515625 0.714844 L 18.441406 0.714844 M 18.441406 0 L 1.515625 0 C 1.109375 -0.00390625 0.722656 0.152344 0.433594 0.4375 C 0.148438 0.722656 -0.015625 1.109375 -0.015625 1.515625 L -0.015625 18.417969 C -0.015625 19.253906 0.664062 19.933594 1.5 19.933594 L 18.429688 19.933594 C 19.265625 19.933594 19.941406 19.253906 19.941406 18.417969 L 19.941406 1.515625 C 19.941406 0.683594 19.273438 0.0078125 18.441406 0 Z M 18.441406 0 "/>
<path style=" stroke:none;fill-rule:nonzero;fill:rgb(9.803922%,52.156863%,58.823529%);fill-opacity:1;" d="M 17.84375 14.679688 L 14.90625 12.007812 C 14.769531 11.878906 14.558594 11.878906 14.421875 12.007812 C 14.355469 12.0625 14.320312 12.144531 14.316406 12.230469 L 14.316406 13.65625 L 11.910156 13.65625 C 11.820312 13.65625 11.734375 13.691406 11.667969 13.75 C 11.601562 13.804688 11.5625 13.886719 11.5625 13.972656 L 11.5625 15.855469 C 11.5625 15.9375 11.601562 16.019531 11.667969 16.074219 C 11.734375 16.136719 11.820312 16.167969 11.910156 16.167969 L 14.328125 16.167969 L 14.328125 17.597656 C 14.328125 17.683594 14.367188 17.761719 14.433594 17.816406 C 14.570312 17.945312 14.78125 17.945312 14.917969 17.816406 L 17.84375 15.117188 C 17.90625 15.0625 17.945312 14.984375 17.945312 14.898438 C 17.945312 14.8125 17.90625 14.734375 17.84375 14.679688 Z M 17.84375 14.679688 "/>
<path style=" stroke:none;fill-rule:nonzero;fill:rgb(9.803922%,52.156863%,58.823529%);fill-opacity:1;" d="M 2.355469 14.71875 C 2.292969 14.773438 2.257812 14.855469 2.257812 14.9375 C 2.257812 15.023438 2.292969 15.105469 2.355469 15.160156 L 5.296875 17.820312 C 5.363281 17.882812 5.449219 17.914062 5.539062 17.914062 C 5.628906 17.914062 5.714844 17.882812 5.78125 17.820312 C 5.847656 17.765625 5.882812 17.683594 5.882812 17.601562 L 5.882812 16.195312 L 8.300781 16.195312 C 8.390625 16.195312 8.476562 16.164062 8.542969 16.105469 C 8.609375 16.050781 8.648438 15.96875 8.644531 15.882812 L 8.644531 13.996094 C 8.648438 13.910156 8.609375 13.828125 8.542969 13.773438 C 8.476562 13.714844 8.390625 13.679688 8.300781 13.683594 L 5.882812 13.683594 L 5.882812 12.269531 C 5.882812 12.1875 5.847656 12.105469 5.78125 12.050781 C 5.714844 11.988281 5.628906 11.957031 5.539062 11.957031 C 5.449219 11.957031 5.363281 11.988281 5.296875 12.050781 Z M 2.355469 14.71875 "/>
<path style=" stroke:none;fill-rule:nonzero;fill:rgb(9.803922%,52.156863%,58.823529%);fill-opacity:1;" d="M 15.480469 4.929688 L 13.667969 4.929688 C 13.792969 4.6875 13.894531 4.429688 13.96875 4.167969 C 14.089844 3.71875 14.144531 3.257812 14.136719 2.792969 L 14.09375 1.882812 L 13.597656 2.675781 C 13.347656 3.074219 13.027344 3.425781 12.65625 3.710938 C 12.363281 3.9375 12.035156 4.121094 11.6875 4.25 C 11.492188 4.320312 11.292969 4.378906 11.09375 4.417969 L 8.8125 4.417969 C 7.773438 4.210938 6.867188 3.578125 6.3125 2.679688 L 5.8125 1.882812 L 5.769531 2.792969 C 5.757812 3.257812 5.816406 3.71875 5.9375 4.167969 C 6.003906 4.433594 6.105469 4.6875 6.234375 4.929688 L 4.429688 4.929688 L 4.429688 5.1875 C 4.4375 5.726562 4.664062 6.242188 5.058594 6.613281 C 5.503906 7.003906 6.070312 7.226562 6.660156 7.242188 C 6.621094 7.855469 6.753906 8.46875 7.050781 9.011719 C 7.519531 9.726562 7.640625 11.894531 7.644531 12.664062 L 7.644531 12.730469 L 7.683594 12.789062 C 7.804688 12.949219 7.976562 13.058594 8.171875 13.101562 C 8.753906 13.261719 9.355469 13.332031 9.957031 13.3125 C 10.558594 13.332031 11.160156 13.261719 11.742188 13.101562 C 11.9375 13.054688 12.113281 12.945312 12.234375 12.789062 L 12.269531 12.730469 L 12.269531 12.664062 C 12.269531 11.894531 12.390625 9.734375 12.859375 9.011719 C 13.15625 8.472656 13.292969 7.855469 13.25 7.242188 C 13.84375 7.226562 14.410156 7.003906 14.855469 6.613281 C 15.246094 6.238281 15.472656 5.726562 15.480469 5.1875 Z M 6.90625 4.929688 C 6.660156 4.5625 6.492188 4.152344 6.414062 3.71875 C 6.558594 3.863281 6.714844 4 6.878906 4.125 C 7.125 4.316406 7.394531 4.476562 7.679688 4.605469 C 7.484375 4.691406 7.296875 4.800781 7.128906 4.929688 Z M 7.546875 8.375 C 7.4375 8.3125 7.363281 8.207031 7.335938 8.082031 C 7.308594 7.960938 7.335938 7.832031 7.410156 7.730469 C 7.527344 7.492188 7.804688 7.378906 8.058594 7.464844 C 8.164062 7.527344 8.242188 7.632812 8.269531 7.753906 C 8.296875 7.878906 8.269531 8.003906 8.195312 8.105469 C 8.074219 8.347656 7.789062 8.460938 7.535156 8.367188 Z M 11.6875 12.53125 C 11.527344 12.609375 11.355469 12.664062 11.175781 12.6875 C 10.875 12.335938 10.421875 12.15625 9.964844 12.195312 C 9.503906 12.15625 9.050781 12.339844 8.75 12.6875 C 8.558594 12.667969 8.375 12.613281 8.199219 12.53125 C 8.199219 12.425781 8.199219 12.253906 8.183594 12.035156 C 8.972656 11.371094 9.417969 10.378906 9.386719 9.347656 C 9.425781 7.203125 7.859375 6.890625 8.4375 6.074219 C 8.757812 5.570312 9.359375 5.316406 9.941406 5.4375 C 10.527344 5.3125 11.128906 5.566406 11.449219 6.074219 C 12.023438 6.890625 10.464844 7.207031 10.503906 9.347656 C 10.472656 10.375 10.910156 11.359375 11.691406 12.023438 C 11.691406 12.246094 11.691406 12.425781 11.691406 12.53125 Z M 12.382812 8.375 C 12.128906 8.46875 11.84375 8.355469 11.722656 8.113281 C 11.648438 8.011719 11.621094 7.882812 11.648438 7.761719 C 11.675781 7.640625 11.75 7.535156 11.859375 7.472656 C 12.113281 7.378906 12.398438 7.492188 12.519531 7.730469 C 12.589844 7.832031 12.617188 7.960938 12.59375 8.082031 C 12.566406 8.207031 12.492188 8.3125 12.382812 8.375 Z M 13.007812 4.929688 L 12.769531 4.929688 C 12.601562 4.800781 12.417969 4.691406 12.226562 4.605469 C 12.503906 4.480469 12.769531 4.320312 13.015625 4.136719 C 13.179688 4.011719 13.332031 3.875 13.480469 3.730469 C 13.40625 4.160156 13.246094 4.574219 13.007812 4.9375 Z M 13.007812 4.929688 "/>
</g>
</svg>
