<?xml version="1.0" standalone="no"?>
<!DOCTYPE svg PUBLIC "-//W3C//DTD SVG 1.0//EN" "http://www.w3.org/TR/2001/REC-SVG-20010904/DTD/svg10.dtd">
<svg xmlns="http://www.w3.org/2000/svg" xmlns:xlink="http://www.w3.org/1999/xlink" id="body_1" width="20" height="20">

<g transform="matrix(0.35746202 0 0 0.35746202 0.012511117 -0)">
    <path d="M0 0L55.88 0L55.88 55.95L0 55.95z" stroke="none" fill="none" />
    <path transform="matrix(1 0 0 1 -0.04 -0.1)"  d="M50.39 26.35L49.829998 26.220001C 47.98 25.740002 47.059998 25.45 46.409996 24.220001L46.409996 24.220001L44 18.08C 43.056625 16.48631 41.379303 15.469409 39.53 15.37L39.53 15.37L32.32 15.37C 31.98022 15.345065 31.645323 15.462176 31.395128 15.693418C 31.144932 15.924659 31.001854 16.249313 31 16.59L31 16.59L31 31.37L28.6 31.37L28.6 26.37C 28.60034 25.284666 27.734995 24.397133 26.65 24.37L26.65 24.37L2.88 24.37C 1.7754306 24.37 0.8800001 25.26543 0.8800001 26.37L0.8800001 26.37L0.8800001 31.6C 0.8806739 31.782902 0.9076154 31.964758 0.9600001 32.14C 0.90846956 32.277573 0.8813951 32.4231 0.8800001 32.57L0.8800001 32.57L0.8800001 38.29C 0.88 38.60826 1.0064281 38.913486 1.2314718 39.13853C 1.4565154 39.36357 1.7617403 39.49 2.0800002 39.49L2.0800002 39.49L7.66 39.49C 7.8010454 43.190445 10.841868 46.117573 14.545 46.117573C 18.248133 46.117573 21.288956 43.190445 21.43 39.49L21.43 39.49L33 39.49C 33.1447 43.055885 35.988346 45.92107 39.553032 46.092674C 43.11772 46.26428 46.223442 43.685493 46.71 40.15L46.71 40.15L51.239998 40.15C 52.986282 40.150143 54.408104 38.74615 54.43 37L54.43 37L54.43 31.51C 54.43 27.19 52 26.68 50.43 26.35L50.43 26.35L50.39 26.35zM39.89 36.63C 40.923187 36.625957 41.856705 37.245758 42.253956 38.19953C 42.65121 39.1533 42.43368 40.252525 41.703102 40.983105C 40.972523 41.713684 39.8733 41.931213 38.91953 41.53396C 37.965755 41.136707 37.345955 40.20319 37.35 39.170002C 37.35548 37.769474 38.48947 36.635483 39.89 36.63zM33.93 26L33.93 18L38.49 18C 39.89225 18.072403 41.17332 18.817213 41.93 20L41.93 20L44.08 25.59C 44.140003 25.69 44.190002 25.79 44.25 25.880001zM14.54 36.63C 15.573189 36.62596 16.506706 37.24576 16.90396 38.199535C 17.301214 39.15331 17.083683 40.25253 16.353102 40.98311C 15.622522 41.713688 14.5233 41.931217 13.569528 41.533962C 12.615755 41.136707 11.995955 40.20319 12 39.17C 12.005482 37.76947 13.139474 36.63548 14.54 36.629997z" stroke="none" fill="#198596" fill-rule="nonzero" />
    <path transform="matrix(1 0 0 1 -0.04 -0.1)"  d="M2.25 21.42L14 21.42C 14.729016 21.42 15.32 20.829016 15.32 20.1L15.32 20.1L15.32 13.58C 15.32 12.850984 14.729016 12.26 14 12.26L14 12.26L2.25 12.26C 1.5193491 12.259979 0.92549396 12.849369 0.92 13.58L0.92 13.58L0.92 20.1C 0.92549396 20.830631 1.5193491 21.420021 2.25 21.42z" stroke="none" fill="#198596" fill-rule="nonzero" />
    <path transform="matrix(1 0 0 1 -0.04 -0.1)"  d="M20 21.42L27.33 21.42C 28.059015 21.42 28.65 20.829016 28.65 20.1L28.65 20.1L28.65 13.58C 28.65 12.850984 28.059015 12.26 27.33 12.26L27.33 12.26L20 12.26C 19.270985 12.26 18.68 12.850984 18.68 13.58L18.68 13.58L18.68 20.1C 18.68 20.829016 19.270985 21.42 20 21.42z" stroke="none" fill="#198596" fill-rule="nonzero" />
</g>
</svg>