<svg xmlns="http://www.w3.org/2000/svg" viewBox="0 0 20 20"><defs><style>.cls-1{fill:#009245;}.cls-2{fill:#00813c;}</style></defs><title>AGPRyegrassAsset 188</title><g id="Layer_2" data-name="Layer 2"><g id="Layer_1-2" data-name="Layer 1"><path class="cls-1" d="M11.28,20c.34-1.39.68-3.12,1.13-4.48a31.77,31.77,0,0,1,1.57-4,15.51,15.51,0,0,1,2.38-3.6,5.36,5.36,0,0,1,3.64-2,5,5,0,0,0-2.84,2.6,14.85,14.85,0,0,0-1.3,3.67,30.31,30.31,0,0,0-.51,3.91c-.1,1.31-.09,2.58-.09,3.9Z"/><path class="cls-1" d="M6.21,20l0-1.5c0-.76,0-1.52-.06-2.28S6.06,14.7,6,13.94s-.21-1.52-.39-2.25A16.61,16.61,0,0,0,4.13,7.37a8.14,8.14,0,0,0-3-3.45A8.57,8.57,0,0,1,5,6.82a18.39,18.39,0,0,1,2.55,4.23c.36.75.61,1.53.92,2.31s.51,1.57.72,2.36.41,1.6.58,2.41L10.08,20Z"/><path class="cls-2" d="M5.58,20a13.9,13.9,0,0,0-.11-2.24,12.4,12.4,0,0,0-.62-3,3.75,3.75,0,0,0-1.78-2.12A3.76,3.76,0,0,0,0,12.89a4.31,4.31,0,0,1,3.3-1.23,5.24,5.24,0,0,1,3.27,2.08A14.41,14.41,0,0,1,8.37,17a24.59,24.59,0,0,1,.87,3Z"/><path class="cls-2" d="M6.89,20l.87-2.28c.31-1,.55-2,.82-3l.21-1.54.11-.77c0-.26,0-.51,0-.77l0-1.55L8.64,8.55a10.54,10.54,0,0,0-3-5.38A12.84,12.84,0,0,0,0,0,13.37,13.37,0,0,1,6.3,2.4,12.14,12.14,0,0,1,10.56,8l.55,1.72.29,1.77c0,.3.11.6.12.89l0,.89,0,1.8c-.12,1.16-.22,2.35-.4,3.52L10.85,20Z"/><path class="cls-2" d="M9.24,20l.29-2.38c.21-1,.38-2,.61-3s.49-2,.87-2.94l.52-1.44.62-1.4a23,23,0,0,1,3.24-5.11A14.61,14.61,0,0,1,20,0a14.23,14.23,0,0,0-3.8,4.31A21.46,21.46,0,0,0,14,9.53l-.35,1.37-.24,1.39c-.19.91-.21,1.87-.32,2.79s0,1.88-.09,2.81l.1,2.11Z"/></g></g></svg>