<svg xmlns="http://www.w3.org/2000/svg" viewBox="0 0 19.98 19.97"><defs><style>.cls-1{fill:#e69f00;}.cls-2{fill:#8d4223;}.cls-3{fill:#009245;}.cls-4{fill:#00db73;}</style></defs><title>AgroforestrySystemAsset 185</title><g id="Layer_2" data-name="Layer 2"><g id="Layer_1-2" data-name="Layer 1"><path class="cls-1" d="M19.12,20a4.66,4.66,0,0,1-.68-1.84,6.74,6.74,0,0,1,.15-1.84c.15-1.23.3-2.45.53-3.68h.15c.23,1.23.38,2.45.53,3.68a6.36,6.36,0,0,1,.14,1.84A4.49,4.49,0,0,1,19.27,20Z"/><rect class="cls-2" x="2.81" y="16.3" width="0.68" height="3.63"/><polygon class="cls-3" points="3.15 7.64 1.68 11.34 3.15 10.62 4.62 11.34 3.15 7.64"/><polygon class="cls-3" points="3.15 9.2 0.86 15.21 3.15 14.05 5.44 15.21 3.15 9.2"/><path class="cls-4" d="M3,9.2,2.3,10.66l.53-.22A.3.3,0,0,0,3,10.15Z"/><polygon class="cls-3" points="3.15 11.82 0 18.39 3.15 17.88 6.3 18.39 3.15 11.82"/><path class="cls-4" d="M2.72,12l-1,2,.82-.3a.41.41,0,0,0,.22-.39Z"/><path class="cls-4" d="M2.1,15.64,1,17.74l.83-.32A.44.44,0,0,0,2.1,17Z"/><path class="cls-1" d="M16.7,20A4.4,4.4,0,0,1,16,18.12a6.34,6.34,0,0,1,.15-1.84c.14-1.23.29-2.45.52-3.68h.15c.23,1.23.38,2.45.53,3.68a6.7,6.7,0,0,1,.15,1.84A4.56,4.56,0,0,1,16.85,20Z"/><path class="cls-1" d="M14.3,20a4.28,4.28,0,0,1-.68-1.83,6.7,6.7,0,0,1,.15-1.84c.14-1.23.3-2.45.53-3.68h.15c.23,1.23.38,2.45.52,3.68a6.34,6.34,0,0,1,.15,1.84A4.4,4.4,0,0,1,14.45,20Z"/><rect class="cls-2" x="7.52" y="14.05" width="1.1" height="5.89"/><polygon class="cls-3" points="8.07 0 5.68 6 8.07 4.84 10.46 6 8.07 0"/><polygon class="cls-3" points="8.07 2.53 4.35 12.27 8.07 10.39 11.79 12.27 8.07 2.53"/><path class="cls-4" d="M7.79,2.53,6.68,4.9l.87-.36a.49.49,0,0,0,.24-.46Z"/><polygon class="cls-3" points="8.07 6.79 2.96 17.44 8.07 16.6 13.18 17.44 8.07 6.79"/><path class="cls-4" d="M7.37,7.12,5.68,10.33,7,9.84a.65.65,0,0,0,.36-.63Z"/><path class="cls-4" d="M6.36,13,4.64,16.38,6,15.86a.69.69,0,0,0,.37-.67Z"/></g></g></svg>