<svg xmlns="http://www.w3.org/2000/svg" viewBox="0 0 22.21 23.52"><defs><style>.cls-1{fill:#e69f00;}.cls-2{fill:none;stroke:#e69f00;stroke-miterlimit:10;}.cls-3{fill:#ecce85;}</style></defs><title>BarleyAsset 174</title><g id="Layer_2" data-name="Layer 2"><g id="Layer_1-2" data-name="Layer 1"><path class="cls-1" d="M6.91,16.89c1-.29,3.49,1,3.49,1s-1.57,2.38-2.63,2.68a1.85,1.85,0,0,1-2.34-1.3A2,2,0,0,1,6.91,16.89Z"/><path class="cls-1" d="M10.71,13c1-.29,3.49,1,3.49,1s-1.57,2.38-2.63,2.68a1.85,1.85,0,0,1-2.34-1.3A2,2,0,0,1,10.71,13Z"/><path class="cls-1" d="M14.5,9.07c1.06-.29,3.5,1,3.5,1s-1.57,2.38-2.63,2.68A1.85,1.85,0,0,1,13,11.43,2,2,0,0,1,14.5,9.07Z"/><path class="cls-1" d="M3.85,14.41c.11-1.05,2.28-3,2.28-3s1.73,2.08,1.61,3.13A2.09,2.09,0,0,1,5.59,16.4,1.78,1.78,0,0,1,3.85,14.41Z"/><path class="cls-1" d="M7.36,10.79c.12-1,2.28-3,2.28-3S11.37,9.91,11.26,11A2.1,2.1,0,0,1,9.1,12.78,1.8,1.8,0,0,1,7.36,10.79Z"/><path class="cls-1" d="M10.92,7.2c.12-1,2.28-2.95,2.28-2.95s1.73,2.08,1.62,3.13a2.09,2.09,0,0,1-2.16,1.81A1.79,1.79,0,0,1,10.92,7.2Z"/><path class="cls-1" d="M16.17,4.43c.8-.71,3.73-.77,3.73-.77S19.79,6.33,19,7a2.16,2.16,0,0,1-2.86,0A1.73,1.73,0,0,1,16.17,4.43Z"/><line class="cls-2" x1="16.8" y1="6.45" x2="0.36" y2="23.17"/><path class="cls-3" d="M11.39,7.44a8.57,8.57,0,0,1,1.16-1.93,19.64,19.64,0,0,1,.06,2c0,.45,0,.84-.46.82A.78.78,0,0,1,11.39,7.44Z"/><path class="cls-3" d="M8.18,10.88A8.6,8.6,0,0,1,9.33,9s.11,1.51.07,2,0,.84-.47.82A.78.78,0,0,1,8.18,10.88Z"/><path class="cls-3" d="M4.64,14.83A8.47,8.47,0,0,1,5.8,12.91a19.53,19.53,0,0,1,.06,2c-.05.46,0,.84-.46.82A.78.78,0,0,1,4.64,14.83Z"/><path class="cls-3" d="M14.54,12.21a8.78,8.78,0,0,0,2-1.11S15,11,14.5,11s-.87,0-.85.44A.78.78,0,0,0,14.54,12.21Z"/><path class="cls-3" d="M11,16.22a9.15,9.15,0,0,0,2-1.12s-1.56-.11-2-.06-.87,0-.85.45A.78.78,0,0,0,11,16.22Z"/><path class="cls-3" d="M7.33,20.06a9,9,0,0,0,2-1.12s-1.55-.11-2-.06-.87,0-.85.45A.79.79,0,0,0,7.33,20.06Z"/><path class="cls-3" d="M18.15,7.06a8.63,8.63,0,0,0,1.22-1.88s-1.43.61-1.82.86-.78.39-.54.78A.8.8,0,0,0,18.15,7.06Z"/><polygon class="cls-1" points="5.67 12.58 5.7 8.06 6.42 12.52 5.67 12.58"/><polygon class="cls-1" points="9.2 8.71 9.58 4.21 9.95 8.71 9.2 8.71"/><polygon class="cls-1" points="12.84 5.07 13.56 0 13.59 5.12 12.84 5.07"/><polygon class="cls-1" points="9.76 17.77 14.28 18.48 9.7 18.52 9.76 17.77"/><polygon class="cls-1" points="13.23 13.71 17.75 14.08 13.23 14.46 13.23 13.71"/><polygon class="cls-1" points="17.05 9.89 22.21 9.95 17.09 10.64 17.05 9.89"/><polygon class="cls-1" points="18.63 4.21 21.59 2.25 19.1 4.79 18.63 4.21"/></g></g></svg>