<svg xmlns="http://www.w3.org/2000/svg" viewBox="0 0 20.1 19.92"><defs><style>.cls-1{fill:none;stroke:#009245;stroke-miterlimit:10;}.cls-2{fill:#e69f00;}.cls-3{fill:#f0e442;}.cls-4{fill:#d55e00;}</style></defs><title>CanolaAsset 187</title><g id="Layer_2" data-name="Layer 2"><g id="Layer_1-2" data-name="Layer 1"><path class="cls-1" d="M16.43,5a24.81,24.81,0,0,0-3.64,8.83"/><path class="cls-1" d="M10.7,11.54c-4.77-3-6.37-.22-6.37-.22"/><path class="cls-2" d="M15.68,5.93a1.61,1.61,0,0,0,.66-1.46C16,1,14.42.19,13.4.07a1.11,1.11,0,0,0-1.09.64c-.51,1.48-1.17,2.51,1.58,4.88A1.81,1.81,0,0,0,15.68,5.93Z"/><path class="cls-2" d="M16.29,4.84a1.62,1.62,0,0,0-1.39-.79c-3.53,0-4.44,1.52-4.66,2.52a1.1,1.1,0,0,0,.54,1.14c1.43.65,2.39,1.4,5-1.12A1.81,1.81,0,0,0,16.29,4.84Z"/><path class="cls-2" d="M14.85,4.51A1.63,1.63,0,0,0,14.14,6c.24,3.51,1.76,4.35,2.77,4.51A1.12,1.12,0,0,0,18,9.86c.57-1.46,1.27-2.46-1.39-4.94A1.82,1.82,0,0,0,14.85,4.51Z"/><path class="cls-2" d="M14.24,5.46a1.64,1.64,0,0,0,1.47.65c3.5-.39,4.27-1.94,4.39-3a1.11,1.11,0,0,0-.65-1.08C18,1.55,16.94.9,14.58,3.67A1.83,1.83,0,0,0,14.24,5.46Z"/><path class="cls-3" d="M15.25,5.87a1.22,1.22,0,0,0,.6-1.07C15.85,2,14.75,1.19,14,1a.77.77,0,0,0-.86.37c-.5,1.1-1.07,1.83.81,4A1.38,1.38,0,0,0,15.25,5.87Z"/><path class="cls-3" d="M15.13,5.46a1,1,0,0,0-.84-.5c-2.14,0-2.73.85-2.88,1.46a.66.66,0,0,0,.3.69c.86.42,1.43.89,3.08-.6A1.1,1.1,0,0,0,15.13,5.46Z"/><path class="cls-3" d="M15.32,4.71a1.15,1.15,0,0,0,.89.61c2.19.16,2.75-.8,2.87-1.48A.87.87,0,0,0,18.73,3c-.9-.52-1.51-1.09-3.11.51A1.27,1.27,0,0,0,15.32,4.71Z"/><path class="cls-3" d="M15.11,4.9a1.15,1.15,0,0,0-.49,1c.18,2.59,1.26,3.24,2,3.39a.73.73,0,0,0,.78-.41c.4-1.06.89-1.77-1-3.66A1.3,1.3,0,0,0,15.11,4.9Z"/><path class="cls-4" d="M15.6,5a.29.29,0,0,0,.28-.07c.47-.45.4-.76.31-.92A.21.21,0,0,0,16,3.89c-.27.1-.49.12-.52.78A.35.35,0,0,0,15.6,5Z"/><path class="cls-4" d="M15.31,5.29a.3.3,0,0,0-.14.25c0,.65.25.82.43.87a.19.19,0,0,0,.21-.09c.12-.26.26-.43-.18-.92A.36.36,0,0,0,15.31,5.29Z"/><path class="cls-4" d="M15.17,4.73a.3.3,0,0,0-.25-.15c-.65,0-.82.25-.87.43a.2.2,0,0,0,.09.21c.26.13.43.27.93-.18A.32.32,0,0,0,15.17,4.73Z"/><path class="cls-2" d="M4.7,11.63a1.25,1.25,0,0,0-.44-1.14C2.17,8.8.92,9.21.3,9.7a.84.84,0,0,0-.24.93c.52,1.08.72,2,3.49,1.78A1.4,1.4,0,0,0,4.7,11.63Z"/><path class="cls-2" d="M4.44,10.71a1.25,1.25,0,0,0-1.18.34C1.38,13,1.68,14.26,2.11,14.92a.84.84,0,0,0,.9.32c1.12-.42,2.05-.53,2.1-3.31A1.41,1.41,0,0,0,4.44,10.71Z"/><path class="cls-2" d="M3.48,11.32a1.22,1.22,0,0,0,.4,1.15c2,1.78,3.29,1.41,3.92.94a.83.83,0,0,0,.28-.92c-.48-1.1-.65-2-3.42-1.91A1.39,1.39,0,0,0,3.48,11.32Z"/><path class="cls-2" d="M3.67,12.16a1.24,1.24,0,0,0,1.14-.45c1.68-2.1,1.25-3.35.76-4a.84.84,0,0,0-.93-.23c-1.08.53-2,.73-1.76,3.5A1.4,1.4,0,0,0,3.67,12.16Z"/><path class="cls-3" d="M4.43,11.83a.92.92,0,0,0-.26-.9C2.66,9.42,1.63,9.58,1.1,9.87a.6.6,0,0,0-.26.67c.33.86.41,1.56,2.62,1.73A1,1,0,0,0,4.43,11.83Z"/><path class="cls-3" d="M4.14,11.68a.76.76,0,0,0-.72.18c-1.17,1.14-1,1.93-.77,2.34a.49.49,0,0,0,.54.21c.69-.23,1.25-.29,1.33-2A.82.82,0,0,0,4.14,11.68Z"/><path class="cls-3" d="M3.85,11.17a.88.88,0,0,0,.8-.15c1.27-1.1,1-1.92.75-2.35a.68.68,0,0,0-.63-.25c-.77.21-1.4.23-1.4,2A1,1,0,0,0,3.85,11.17Z"/><path class="cls-3" d="M3.83,11.39a.85.85,0,0,0,.29.82c1.5,1.3,2.44,1.07,2.91.76a.57.57,0,0,0,.2-.64c-.36-.79-.48-1.43-2.53-1.43A1,1,0,0,0,3.83,11.39Z"/><path class="cls-4" d="M4.13,11.16A.25.25,0,0,0,4.25,11c0-.5-.2-.63-.34-.66a.15.15,0,0,0-.16.06c-.09.2-.2.33.14.71A.27.27,0,0,0,4.13,11.16Z"/><path class="cls-4" d="M4.15,11.49a.21.21,0,0,0,.06.21c.34.36.58.31.7.24A.16.16,0,0,0,5,11.77c-.07-.2-.08-.37-.59-.4A.27.27,0,0,0,4.15,11.49Z"/><path class="cls-4" d="M3.77,11.26a.22.22,0,0,0-.22.06c-.35.34-.3.58-.23.7a.15.15,0,0,0,.16.06c.21-.07.38-.09.4-.59A.25.25,0,0,0,3.77,11.26Z"/><path class="cls-1" d="M19.32,19.52a50.47,50.47,0,0,1-8.69-8.07c-4-4.83-4.36-7.9-4.36-7.9"/><path class="cls-2" d="M6.77,3.22a1,1,0,0,0-.34-.88c-1.61-1.3-2.57-1-3-.61a.64.64,0,0,0-.18.72c.4.83.55,1.53,2.68,1.37A1.07,1.07,0,0,0,6.77,3.22Z"/><path class="cls-2" d="M6.57,2.51a1,1,0,0,0-.91.26c-1.45,1.48-1.22,2.47-.89,3a.67.67,0,0,0,.7.25C6.33,5.67,7,5.59,7.09,3.45A1.09,1.09,0,0,0,6.57,2.51Z"/><path class="cls-2" d="M5.83,3a1,1,0,0,0,.31.89c1.55,1.36,2.53,1.08,3,.72a.64.64,0,0,0,.21-.71C9,3,8.88,2.33,6.74,2.41A1.07,1.07,0,0,0,5.83,3Z"/><path class="cls-2" d="M6,3.62a.94.94,0,0,0,.87-.34c1.3-1.62,1-2.58.59-3A.64.64,0,0,0,6.72.05C5.9.45,5.2.61,5.37,2.74A1.06,1.06,0,0,0,6,3.62Z"/><path class="cls-3" d="M6.56,3.37a.69.69,0,0,0-.19-.69c-1.17-1.16-2-1-2.37-.82a.46.46,0,0,0-.2.52c.25.66.31,1.2,2,1.33A.79.79,0,0,0,6.56,3.37Z"/><path class="cls-3" d="M6.34,3.26a.54.54,0,0,0-.55.14c-.91.87-.79,1.48-.6,1.8a.39.39,0,0,0,.42.16c.53-.18,1-.22,1-1.53A.64.64,0,0,0,6.34,3.26Z"/><path class="cls-3" d="M6.11,2.86a.68.68,0,0,0,.62-.11c1-.85.81-1.48.58-1.81A.51.51,0,0,0,6.83.75c-.59.16-1.08.17-1.08,1.5A.74.74,0,0,0,6.11,2.86Z"/><path class="cls-3" d="M6.1,3a.67.67,0,0,0,.23.64c1.15,1,1.87.82,2.23.58a.45.45,0,0,0,.16-.5c-.28-.6-.37-1.1-2-1.1A.76.76,0,0,0,6.1,3Z"/><path class="cls-4" d="M6.33,2.85a.16.16,0,0,0,.09-.14c0-.38-.15-.49-.25-.51a.12.12,0,0,0-.13,0c-.07.15-.15.25.11.54A.18.18,0,0,0,6.33,2.85Z"/><path class="cls-4" d="M6.35,3.11a.16.16,0,0,0,0,.16c.27.28.45.24.54.18A.1.1,0,0,0,7,3.33C6.93,3.17,6.91,3,6.52,3A.18.18,0,0,0,6.35,3.11Z"/><path class="cls-4" d="M6.05,2.93a.16.16,0,0,0-.16,0c-.27.26-.24.44-.18.54a.11.11,0,0,0,.12,0c.16-.06.29-.07.31-.46A.2.2,0,0,0,6.05,2.93Z"/><path class="cls-2" d="M13.39,16.26a1,1,0,0,0-.35-.9c-1.64-1.33-2.63-1-3.12-.62a.67.67,0,0,0-.19.74c.41.84.57,1.56,2.75,1.4A1.1,1.1,0,0,0,13.39,16.26Z"/><path class="cls-2" d="M13.18,15.54a1,1,0,0,0-.93.26c-1.48,1.51-1.24,2.53-.9,3.05a.66.66,0,0,0,.71.25c.88-.33,1.61-.42,1.65-2.6A1.1,1.1,0,0,0,13.18,15.54Z"/><path class="cls-2" d="M12.43,16a1,1,0,0,0,.31.92c1.59,1.39,2.59,1.1,3.09.73a.66.66,0,0,0,.22-.72c-.38-.87-.51-1.59-2.69-1.51A1.11,1.11,0,0,0,12.43,16Z"/><path class="cls-2" d="M12.57,16.67a1,1,0,0,0,.9-.35c1.33-1.65,1-2.64.6-3.12a.66.66,0,0,0-.73-.18c-.85.41-1.56.57-1.39,2.75A1.09,1.09,0,0,0,12.57,16.67Z"/><path class="cls-3" d="M13.17,16.42a.72.72,0,0,0-.2-.71c-1.19-1.19-2-1.06-2.41-.83a.44.44,0,0,0-.21.52c.26.68.32,1.23,2.06,1.37A.81.81,0,0,0,13.17,16.42Z"/><path class="cls-3" d="M13,16.3a.61.61,0,0,0-.57.14c-.92.9-.8,1.52-.61,1.85a.41.41,0,0,0,.43.16c.54-.19,1-.23,1.05-1.56A.65.65,0,0,0,13,16.3Z"/><path class="cls-3" d="M12.72,15.9a.69.69,0,0,0,.63-.12c1-.87.83-1.51.59-1.85a.55.55,0,0,0-.5-.2c-.6.17-1.1.19-1.1,1.54A.77.77,0,0,0,12.72,15.9Z"/><path class="cls-3" d="M12.7,16.07a.69.69,0,0,0,.23.65c1.18,1,1.92.84,2.29.6a.47.47,0,0,0,.16-.51c-.28-.62-.38-1.13-2-1.13A.79.79,0,0,0,12.7,16.07Z"/><path class="cls-4" d="M12.94,15.89a.18.18,0,0,0,.09-.15c0-.39-.15-.5-.26-.52a.12.12,0,0,0-.13,0c-.07.16-.16.26.11.56A.2.2,0,0,0,12.94,15.89Z"/><path class="cls-4" d="M13,16.15a.18.18,0,0,0,0,.17c.27.28.46.24.55.18a.11.11,0,0,0,0-.13c0-.16-.07-.29-.46-.31A.18.18,0,0,0,13,16.15Z"/><path class="cls-4" d="M12.65,16a.18.18,0,0,0-.17,0c-.27.27-.24.46-.18.56a.14.14,0,0,0,.13.05c.16-.06.29-.07.31-.47A.2.2,0,0,0,12.65,16Z"/></g></g></svg>