<svg xmlns="http://www.w3.org/2000/svg" viewBox="0 0 19.78 19.27"><defs><style>.cls-1{fill:#f0e442;stroke:#000;stroke-miterlimit:10;}</style></defs><title>ChemicalAsset 166</title><g id="Layer_2" data-name="Layer 2"><g id="Layer_1-2" data-name="Layer 1"><path class="cls-1" d="M9.11,1,.6,17.49a.88.88,0,0,0,.78,1.28h17a.87.87,0,0,0,.78-1.28L10.67,1A.87.87,0,0,0,9.11,1Z"/><circle cx="9.89" cy="15.79" r="1.44"/><path d="M9.71,12.89a.19.19,0,0,0,.37,0c.44-2.15,1-3.52,1-5.56,0-2.36-.53-3.57-1.19-3.57S8.71,5,8.71,7.37C8.71,9.43,9.29,10.69,9.71,12.89Z"/></g></g></svg>