<svg xmlns="http://www.w3.org/2000/svg" viewBox="0 0 19.8 19.91"><defs><style>.cls-1{fill:#009245;}.cls-2{fill:#39b54a;}.cls-3{fill:#56b4e9;}.cls-4{fill:#0072b2;}</style></defs><title>ChicoryAsset 180</title><g id="Layer_2" data-name="Layer 2"><g id="Layer_1-2" data-name="Layer 1"><path class="cls-1" d="M8.89,19.33A1.94,1.94,0,0,1,7,19.8c-.17-.07-.18-1-.38-1.08s-.69.56-.95.42-.17-1-.37-1.12c-.36-.22-1.08.43-1.48.12-.14-.12.05-1.15-.09-1.28s-1.1.38-1.42.19,0-1.11-.29-1.22a10.22,10.22,0,0,0-1.8-.59c-.62-.23.28-.21,1.64-.05.29,0,1.18-.78,1.5-.73s.08,1,.41,1,1-.85,1.29-.81c.41.09.23,1.11.59,1.21s1.15-.7,1.43-.59c.12.05-.16,1-.06,1.05.41.19,1.23-.46,1.49-.23s.22,1.64.35,1.87A1.15,1.15,0,0,1,8.89,19.33Z"/><path class="cls-2" d="M12.88,19.24a2.65,2.65,0,0,0,.4-2.65c-.12-.21-1.42,0-1.56-.22s.69-1.06.45-1.38-1.42,0-1.62-.18c-.36-.42.45-1.55,0-2-.19-.17-1.61.37-1.81.2-.38-.3.38-1.55.08-1.92S7.22,11.35,7,11A11.62,11.62,0,0,1,6,8.81c-.41-.77-.27.43.15,2.18.09.38-.94,1.77-.83,2.19s1.36-.16,1.49.27-1,1.62-.95,1.92c.17.53,1.59,0,1.77.47s-.83,1.7-.63,2.05c.08.14,1.38-.48,1.47-.36.32.49-.49,1.76-.13,2s2.33-.15,2.68,0A1.74,1.74,0,0,0,12.88,19.24Z"/><path class="cls-2" d="M12,19.09a1.8,1.8,0,0,0,1.71.6c.15-.05.08-1,.25-1.05s.65.61.87.49.07-1,.23-1.1,1,.51,1.31.22c.12-.1-.14-1.15,0-1.27s1,.45,1.26.29-.06-1.11.16-1.2a7.36,7.36,0,0,1,1.53-.47c.53-.18-.26-.23-1.44-.16-.25,0-1.1-.87-1.38-.84s0,1-.27,1-1-.93-1.2-.9c-.36.06-.11,1.1-.42,1.17s-1.07-.78-1.31-.69.23,1,.14,1.06c-.34.16-1.12-.55-1.33-.34s-.06,1.62-.16,1.85A1.33,1.33,0,0,0,12,19.09Z"/><path class="cls-1" d="M13.51,19.9a3.12,3.12,0,0,0,2.41-2.06c.06-.27-1.29-1.08-1.24-1.4s1.46-.41,1.49-.87-1.31-1.07-1.32-1.42c0-.66,1.62-1,1.52-1.8,0-.29-1.74-.91-1.79-1.21-.1-.57,1.54-1.09,1.57-1.65s-1.61-1-1.54-1.42a13.66,13.66,0,0,1,.77-2.81c.22-1-.58.18-1.56,2.06-.21.4-2.22.85-2.44,1.31s1.34.91,1.13,1.39-2.22.63-2.36,1c-.25.59,1.42,1.23,1.23,1.78s-2.07.88-2.16,1.34c0,.19,1.62.64,1.6.82-.09.68-1.8,1.19-1.7,1.71s2.22,1.67,2.44,2A2.11,2.11,0,0,0,13.51,19.9Z"/><path class="cls-3" d="M14.4,5.33a1,1,0,0,0,1.06.42c3-.23,4-1.21,4.29-1.86a.49.49,0,0,0-.29-.69c-1.1-.33-1.8-.75-4.37,1C14.3,4.73,14.4,5.33,14.4,5.33Z"/><path class="cls-3" d="M15.31,5.68a1,1,0,0,0,.25-1.11c-.67-2.9-1.8-3.72-2.49-3.95a.49.49,0,0,0-.64.39C12.28,2.15,12,2.9,14.09,5.18,14.74,5.87,15.31,5.68,15.31,5.68Z"/><path class="cls-4" d="M14.9,5.45A1,1,0,0,0,16,5.36c2.57-1.51,3-2.83,3-3.56a.49.49,0,0,0-.56-.49c-1.14.19-1.95.12-3.49,2.82A1.24,1.24,0,0,0,14.9,5.45Z"/><path class="cls-4" d="M15.54,5.6a1,1,0,0,0,.58-1c.25-3-.56-4.1-1.15-4.52a.48.48,0,0,0-.73.17c-.5,1-1,1.65.29,4.47C14.93,5.61,15.54,5.6,15.54,5.6Z"/><path class="cls-3" d="M5.64,9.27a.81.81,0,0,0,.8-.39C7.9,7.07,7.86,6,7.67,5.44a.38.38,0,0,0-.55-.2c-.78.45-1.39.63-1.76,3A1,1,0,0,0,5.64,9.27Z"/><path class="cls-3" d="M6.33,8.93s0-.41-.5-.73c-2-1.16-3.09-1-3.59-.68a.38.38,0,0,0-.12.57c.57.69.83,1.27,3.27,1.28A1,1,0,0,0,6.33,8.93Z"/><path class="cls-4" d="M6,9.05s.42-.07.56-.7c.5-2.27,0-3.23-.42-3.62a.37.37,0,0,0-.58,0c-.5.75-1,1.18-.25,3.5C5.5,9,6,9.05,6,9.05Z"/><path class="cls-4" d="M6.4,8.76a.8.8,0,0,0-.25-.85C4.59,6.18,3.51,6,3,6.15a.39.39,0,0,0-.29.51c.33.84.4,1.47,2.71,2.22A1,1,0,0,0,6.4,8.76Z"/></g></g></svg>