<svg xmlns="http://www.w3.org/2000/svg" viewBox="0 0 18.74 20.01"><defs><style>.cls-1{fill:#c18c40;}.cls-2{fill:#d0a24d;}.cls-3{fill:#e8c368;}</style></defs><title>ChickpeaAsset 184</title><g id="Layer_2" data-name="Layer 2"><g id="Layer_1-2" data-name="Layer 1"><path class="cls-1" d="M0,11.26C0,8.62,3.29,6.57,5.13,5c1.54-1.34.23-5,2.42-5C9,0,11.78,2.38,13.29,3.32c3.53,2.2,5.45,4.56,5.45,7.94,0,4.63-3.65,8.64-5.91,8.74-1.09.05-4-1.1-4.22-1.1A18.46,18.46,0,0,1,5,20C1.68,20,0,15.92,0,11.26Z"/><path class="cls-2" d="M5.9,3.38A2.72,2.72,0,0,1,5.13,5C3.29,6.57,0,8.62,0,11.26,0,15,1.1,18.43,3.27,19.58a9.57,9.57,0,0,0,1.8.41,6.62,6.62,0,0,0,1.45-.33c2.16-1.06,3.93-4.64,3.93-8.53,0-2.58-1-6.91-2.87-8.65C7,2,6.62,1.26,5.9,3.38Z"/><path class="cls-3" d="M6.64,5.84c-.1.49-1,1.31-1.33,1.61C3.85,8.72,2.07,9.5,2.07,11.58c0,3,.87,5.68,2.59,6.59.56.15-1.22-3-.34-6.32C5.15,8.69,8.22,6.73,7.64,6,7.26,5.51,7.21,4.16,6.64,5.84Z"/><path class="cls-2" d="M14.15,3.88C12.89,3.1,11.48,3,11.32,3.5a5.22,5.22,0,0,0,.28,3.44c1.9,3.61-.74,9.06-1.11,10.25-.3,1,1.45,2.95,2.34,2.81,3.11-.48,5.91-4.71,5.91-9C18.74,8.24,17.07,5.7,14.15,3.88Z"/><path class="cls-3" d="M14.3,7a4.36,4.36,0,0,0,.23,2.87c1.58,3-1.15,6.79-1.46,7.79-.25.8,4-2.69,4-6.23C17.06,9.13,14.43,6.62,14.3,7Z"/></g></g></svg>