<svg xmlns="http://www.w3.org/2000/svg" viewBox="0 0 20 20"><defs><style>.cls-1{fill:#56b4e9;}</style></defs><title>DataStoreAsset 204</title><g id="Layer_2" data-name="Layer 2"><g id="Layer_1-2" data-name="Layer 1"><path class="cls-1" d="M10,16.44c-5.24,0-9.54-1.17-10-2.65H0V17.1C0,18.7,4.48,20,10,20s10-1.3,10-2.9V13.79h0C19.54,15.27,15.24,16.44,10,16.44Z"/><path class="cls-1" d="M10,11.79c-5.24,0-9.54-1.17-10-2.66H0v3.32c0,1.6,4.48,2.9,10,2.9s10-1.3,10-2.9V9.13h0C19.54,10.62,15.24,11.79,10,11.79Z"/><path class="cls-1" d="M10,7.11C4.76,7.11.46,5.94,0,4.45H0V7.77c0,1.6,4.48,2.89,10,2.89S20,9.37,20,7.77V4.45h0C19.54,5.94,15.24,7.11,10,7.11Z"/><ellipse class="cls-1" cx="10" cy="2.89" rx="10" ry="2.89"/></g></g></svg>