<svg xmlns="http://www.w3.org/2000/svg" viewBox="0 0 20 19.94"><defs><style>.cls-1{fill:#8d4223;}.cls-2{fill:#009245;}</style></defs><title>EucalyptusAsset 176</title><g id="Layer_2" data-name="Layer 2"><g id="Layer_1-2" data-name="Layer 1"><ellipse class="cls-1" cx="17.42" cy="7.07" rx="1.47" ry="1.72" transform="translate(-1.37 6.39) rotate(-20.01)"/><ellipse class="cls-1" cx="14.1" cy="2.57" rx="1.47" ry="1.72" transform="translate(0.39 6.76) rotate(-27.31)"/><path class="cls-1" d="M19.86,1.14A1.94,1.94,0,0,1,20,2.25a1.4,1.4,0,0,1-.82,1A1.36,1.36,0,0,1,18,3.2a1.84,1.84,0,0,1-.86-1A1.61,1.61,0,0,1,17.85.09,1.62,1.62,0,0,1,19.86,1.14Z"/><path class="cls-2" d="M3.88,12.91A23.46,23.46,0,0,1,11,6.48c-1.11-.26-3.5-.38-5.77,2.61S-1.18,21.72.33,19.65a16.62,16.62,0,0,1,4.49-5.24c4.89-3.32,6.4-6.74,6.71-7.54A23.17,23.17,0,0,0,3.88,12.91Z"/><path class="cls-2" d="M4.59,6.17a20.36,20.36,0,0,1,6.66-4.32c-.76-.4-2.5-.86-4.84,1.31S-1.12,12.81.46,11.31A15.4,15.4,0,0,1,5,7.58a15.87,15.87,0,0,0,6.63-5.33A19.79,19.79,0,0,0,4.59,6.17Z"/><path class="cls-2" d="M14,13.76a17.76,17.76,0,0,0-1.34-7c.76.31,2.22,1.27,2.24,4.07s-1.77,10.47-1.76,8.56a12.62,12.62,0,0,0-.34-5.14,13.08,13.08,0,0,1-.64-7.5A17.31,17.31,0,0,1,14,13.76Z"/></g></g></svg>