<?xml version="1.0" encoding="UTF-8" standalone="no"?>
<!DOCTYPE svg PUBLIC "-//W3C//DTD SVG 1.1//EN" "http://www.w3.org/Graphics/SVG/1.1/DTD/svg11.dtd">
<svg width="20px" height="20px" viewBox="0 0 57 57" version="1.1" xmlns="http://www.w3.org/2000/svg" xmlns:xlink="http://www.w3.org/1999/xlink" xml:space="preserve" xmlns:serif="http://www.serif.com/" style="fill-rule:evenodd;clip-rule:evenodd;stroke-linejoin:round;stroke-miterlimit:2;">
    <g id="FactorFile">
        <g id="Layer-82" serif:id="Layer 82">
            <g transform="matrix(1,0,0,1,48.964,36.3374)">
                <path d="M0,-17.282L-15.999,-32.247L-39.448,-32.497L-39.886,14.714L-0.125,15.215L0,-17.282Z" style="fill:white;fill-rule:nonzero;"/>
            </g>
            <g transform="matrix(1,0,0,1,46.2716,5.293)">
                <path d="M0,44.358L-35.487,44.358L-35.487,0L-17.744,0L-17.744,14.416C-17.744,15.341 -17.422,16.125 -16.774,16.774C-16.128,17.42 -15.343,17.743 -14.416,17.743L0,17.743L0,44.358ZM-13.307,0.276C-12.639,0.506 -12.165,0.762 -11.887,1.038L-1.038,11.887C-0.762,12.165 -0.509,12.636 -0.279,13.307L-13.307,13.307L-13.307,0.276ZM3.743,11.367C3.282,10.258 2.727,9.38 2.079,8.734L-8.734,-2.079C-9.38,-2.727 -10.258,-3.282 -11.367,-3.743C-12.477,-4.206 -13.492,-4.437 -14.416,-4.437L-36.596,-4.437C-37.52,-4.437 -38.306,-4.112 -38.954,-3.466C-39.6,-2.821 -39.924,-2.034 -39.924,-1.109L-39.924,45.467C-39.924,46.391 -39.6,47.179 -38.954,47.824C-38.306,48.47 -37.52,48.795 -36.596,48.795L1.109,48.795C2.033,48.795 2.819,48.47 3.465,47.824C4.112,47.177 4.434,46.391 4.434,45.467L4.434,14.416C4.437,13.492 4.204,12.474 3.743,11.367" style="fill:rgb(18,53,148);fill-rule:nonzero;"/>
            </g>
            <rect x="15.935" y="27.022" width="24.059" height="18.446" style="fill:rgb(18,53,148);"/>
            <rect x="19.088" y="30.491" width="18.004" height="11.95" style="fill:rgb(143,177,222);"/>
            <rect x="22.967" y="30.522" width="14.126" height="11.856" style="fill:rgb(10,125,223);"/>
        </g>
    </g>
</svg>
