<svg xmlns="http://www.w3.org/2000/svg" viewBox="0 0 20 20"><defs><style>.cls-1{fill:#a05f2a;}.cls-2,.cls-3{fill:none;stroke:#fff;stroke-miterlimit:10;}.cls-2{stroke-linecap:round;}</style></defs><title>FertiliserAsset 163</title><g id="Layer_2" data-name="Layer 2"><g id="Layer_1-2" data-name="Layer 1"><path class="cls-1" d="M2.32,4.84H20a0,0,0,0,1,0,0V17.68A2.32,2.32,0,0,1,17.68,20H2.32A2.32,2.32,0,0,1,0,17.68V7.15A2.32,2.32,0,0,1,2.32,4.84Z"/><rect class="cls-1" x="2.46" y="1.15" width="4.73" height="2.26" rx="0.51"/><rect class="cls-1" x="2.86" y="3.29" width="3.93" height="1.63"/><path class="cls-1" d="M17.68,0h-6A2.32,2.32,0,0,0,9.36,2.32V6.11H20V2.32A2.32,2.32,0,0,0,17.68,0Zm.45,3.69A1.16,1.16,0,0,1,17,4.84H12.2a1.15,1.15,0,0,1-1.15-1.15V2.59A1.14,1.14,0,0,1,12.2,1.45H17a1.15,1.15,0,0,1,1.15,1.14Z"/><path class="cls-2" d="M13.48,18c3-5.57-1.12-7.54-1.12-7.54-1.87-.9-5.22-3.13-5.22-3.13C.92,19.13,13.48,18,13.48,18"/><path class="cls-3" d="M13.32,17.88C10,17.31,8.58,12,8.58,12"/></g></g></svg>