<svg xmlns="http://www.w3.org/2000/svg" viewBox="0 0 20 19.87"><defs><style>.cls-1{fill:#098246;}.cls-2{fill:#ed454c;}.cls-3{fill:#f59ca0;}.cls-4{fill:#fbd6d8;}</style></defs><title>FodderbeetAsset 192</title><g id="Layer_2" data-name="Layer 2"><g id="Layer_1-2" data-name="Layer 1"><path class="cls-1" d="M10.42,10.61A3.49,3.49,0,0,0,12,8.67c.08-.23-.33-.64-.26-.91s.63-.62.7-1-.36-.64-.33-.94c.06-.56.82-1.14.81-1.8,0-.25-.74-.55-.75-.81,0-.5,1.43-.78,1.5-1.26s-.45-3.4-3.21-1c-.34.28.27.76,0,1.15s-1.31.2-1.46.48c-.28.48.44,1.33.23,1.78s-1.2.42-1.33.8c0,.16.68.85.64,1-.14.57-1,.7-1,1.16A14.31,14.31,0,0,0,8.87,9.39,1.81,1.81,0,0,0,10.42,10.61Z"/><path class="cls-2" d="M8.28,9.75C10.16,7.14,12.06.4,12.06.4c.16,2.32-3.34,10.3-3.51,10.1C8.55,10.5,8,10.2,8.28,9.75Z"/><path class="cls-1" d="M10.88,12a4,4,0,0,0,2.76-.83c.22-.17.09-.83.33-1s1-.2,1.31-.53.06-.83.28-1.1C16,8,17.07,8,17.48,7.33c.15-.24-.36-1-.21-1.25.29-.5,1.87.16,2.25-.26s1.72-3.53-2.41-3c-.5.06-.23.9-.7,1.13s-1.37-.65-1.7-.48c-.57.29-.41,1.56-.91,1.85S12.39,4.92,12,5.21c-.15.12.11,1.24,0,1.36-.5.46-1.41,0-1.66.5a15,15,0,0,0-.17,2.82A2.07,2.07,0,0,0,10.88,12Z"/><path class="cls-2" d="M9.59,10C13,8.7,19.14,3.46,19.14,3.46c-1.32,2.32-9.74,7.73-9.77,7.43C9.37,10.89,9,10.22,9.59,10Z"/><path class="cls-2" d="M10.6,11.9A12,12,0,0,0,8.48,9.77a3.19,3.19,0,0,0-2.12-.54A4.45,4.45,0,0,0,4.07,10.5C.75,13.13.12,17.92,0,19.46a.39.39,0,0,0,.45.41c1.8-.34,8.09-1.66,9.65-3.83C10.1,16,12.11,14,10.6,11.9Z"/><path class="cls-3" d="M9.13,14.45a2.88,2.88,0,0,0-.25-4,3.34,3.34,0,0,0-2.05-1,3.67,3.67,0,0,0-2.64,1.34c-2.06,2-3.31,6.2-2.13,6.2A10.26,10.26,0,0,0,9.13,14.45Z"/><path class="cls-4" d="M7.63,10.47c-3-1.85-4.58,2.7-3.64,3.64C4.06,13.86,5.29,10.71,7.63,10.47Z"/></g></g></svg>