<svg xmlns="http://www.w3.org/2000/svg" viewBox="0 0 19.57 17.11"><defs><style>.cls-1{fill:#d55e00;}.cls-2{fill:#ccc;}.cls-3{fill:#e6e6e6;}.cls-4{fill:#e69f00;}</style></defs><title>FolderAsset 205</title><g id="Layer_2" data-name="Layer 2"><g id="Layer_1-2" data-name="Layer 1"><path class="cls-1" d="M15.57,17.11H1.33A1.27,1.27,0,0,1,0,16.18V1.33A1.34,1.34,0,0,1,1.33,0H6.86A1.18,1.18,0,0,1,8,1.18v.93a.61.61,0,0,0,.6.61h6.94a1.33,1.33,0,0,1,1.34,1.33V15.78A1.34,1.34,0,0,1,15.57,17.11Z"/><rect class="cls-2" x="0.95" y="4.63" width="14.27" height="10.79" rx="1.47"/><path class="cls-3" d="M15.24,15.42H2.93a1,1,0,0,1-1-.84V4.45a1,1,0,0,1,1-.84H15.24a1,1,0,0,1,1,.84V14.58C16.26,15,15.77,15.3,15.24,15.42Z"/><path class="cls-4" d="M18.23,4.63c.74,0,1.34.44,1.34,1L16.93,16.14c0,.53-.6,1-1.34,1H1.33c-.73,0-1.33-.44-1.33-1L2.64,5.6c0-.53.6-1,1.33-1Z"/></g></g></svg>