<svg xmlns="http://www.w3.org/2000/svg" viewBox="0 0 20.05 19.86"><defs><style>.cls-1{fill:#8d4223;}.cls-2{fill:#098246;}.cls-3{fill:#39b54a;}.cls-4{fill:#a05f2a;}</style></defs><title>ForestryAsset 195</title><g id="Layer_2" data-name="Layer 2"><g id="Layer_1-2" data-name="Layer 1"><path class="cls-1" d="M7.93,19.86c1.35-1.66.51-5,.51-5C8.15,13.52,5.92,13,5.92,13l.55-.64A17.2,17.2,0,0,0,8.15,13a2.77,2.77,0,0,0-.35-1.05l.74-.23s.35,1,.43.79a5.32,5.32,0,0,0,0-1.75h1.39v3.54A4.32,4.32,0,0,0,14,11.47h1c-.22,2.78-4.54,4.23-4.54,4.23a6.23,6.23,0,0,0,1.21,4.16Z"/><circle class="cls-2" cx="14.76" cy="5.13" r="3.16"/><circle class="cls-3" cx="14.76" cy="4.42" r="2.44"/><circle class="cls-2" cx="3.16" cy="8.43" r="3.16"/><circle class="cls-3" cx="3.16" cy="7.72" r="2.44"/><circle class="cls-2" cx="6.03" cy="9.86" r="3.16"/><circle class="cls-3" cx="6.03" cy="9.15" r="2.44"/><circle class="cls-2" cx="16.69" cy="9.5" r="3.36"/><circle class="cls-3" cx="16.69" cy="8.74" r="2.6"/><circle class="cls-2" cx="6.77" cy="5.13" r="3.16"/><circle class="cls-3" cx="6.77" cy="4.42" r="2.44"/><circle class="cls-2" cx="10.45" cy="3.16" r="3.16"/><circle class="cls-3" cx="10.45" cy="2.44" r="2.44"/><circle class="cls-2" cx="10.63" cy="7.36" r="4.6"/><circle class="cls-3" cx="10.63" cy="6.32" r="3.56"/><path class="cls-4" d="M10.45,19c-.65-1.77-.58-6-.58-6-.74,1.34-.1,6.47.07,6.37C9.94,19.38,10.56,19.3,10.45,19Z"/></g></g></svg>