<svg xmlns="http://www.w3.org/2000/svg" viewBox="0 0 20 20.06"><defs><style>.cls-1{fill:#56b4e9;}.cls-2{fill:#fff;}.cls-3{fill:#999;}.cls-4{fill:#b3b3b3;}</style></defs><title>IrrigationAsset 198</title><g id="Layer_2" data-name="Layer 2"><g id="Layer_1-2" data-name="Layer 1"><path class="cls-1" d="M16.6,11.1c-1.27,2.46-3.41,3.74-3.41,5.82s1.53,3.14,3.41,3.14A3.1,3.1,0,0,0,20,16.88C20,14.8,17.81,13.65,16.6,11.1Z"/><path class="cls-2" d="M16,18.84c-2.29,0-1.61-3-1.61-3"/><rect class="cls-3" x="14.06" y="8" width="5.07" height="1.85" rx="0.56"/><path class="cls-3" d="M13.53,6.84H.73A.66.66,0,0,1,0,6.28V4.88a.66.66,0,0,1,.73-.56H16.46A1.5,1.5,0,0,1,18.1,5.58V8.4c0,.25-2.05.47-3.07,0C15,8.4,15.45,6.84,13.53,6.84Z"/><path class="cls-3" d="M13.13,2.61s-2.8-.29-3.74-.29-3.73.29-3.73.29a.66.66,0,0,1-.73-.56V1.11c0-.3.32-.55.73-.55,0,0,2.79.36,3.73.36S13.13.56,13.13.56a.65.65,0,0,1,.72.55v.94A.65.65,0,0,1,13.13,2.61Z"/><rect class="cls-3" x="5.97" y="2.08" width="6.84" height="2.68" rx="0.56" transform="translate(12.81 -5.97) rotate(90)"/><circle class="cls-3" cx="9.35" cy="5.67" r="2.84"/><path class="cls-4" d="M16.74,5.38H14.09c-.09,0-.15,0-.15-.11V5c0-.07.06-.12.15-.12H17c.19,0,.68.38.68.52Z"/><path class="cls-4" d="M8.53,1.84c-.85,0-2.45.11-2.45.11-.36,0-.66-.12-.66-.25V1.27c0-.14.3-.25.66-.25,0,0,1.32.13,2.17.13.13,0,0-.68.45-.68C9.44.47,9.48,1.86,8.53,1.84Z"/><path class="cls-4" d="M8,5.56c-2,0-5.94.11-5.94.11-.88,0-1.59-.12-1.59-.26V5c0-.14.71-.25,1.59-.25,0,0,3.22.13,5.28.13.32,0-.09-.68,1.08-.68C10.18,4.19,10.27,5.57,8,5.56Z"/></g></g></svg>