<svg xmlns="http://www.w3.org/2000/svg" viewBox="0 0 20.01 20.01"><defs><style>.cls-1{fill:#009245;}.cls-2{fill:#ffe50d;}.cls-2,.cls-3,.cls-4{stroke:#ea9a1f;stroke-miterlimit:10;}.cls-3{fill:#f0e442;}.cls-4{fill:none;}.cls-5{fill:#39b54a;}</style></defs><title>MaizeAsset 177</title><g id="Layer_2" data-name="Layer 2"><g id="Layer_1-2" data-name="Layer 1"><path class="cls-1" d="M.85,19S.18,14.74,4.17,9.46A27.51,27.51,0,0,0,8.88,0c.69,5.38.66,8.16-1,13.19C5.66,19.71.85,19,.85,19Z"/><ellipse class="cls-2" cx="12.23" cy="7.78" rx="9.6" ry="3.73" transform="translate(-1.92 10.92) rotate(-45)"/><ellipse class="cls-3" cx="12.23" cy="7.78" rx="9.6" ry="1.71" transform="translate(-1.92 10.92) rotate(-45)"/><path class="cls-4" d="M6.85,8.28A8.86,8.86,0,0,0,12,13"/><path class="cls-4" d="M9.92,4.92a9.4,9.4,0,0,0,5.49,4.95"/><path class="cls-4" d="M13.5,2a8.21,8.21,0,0,0,4.77,4.31"/><path class="cls-1" d="M.26,19.83s-1.33-4.21,2-10A9.28,9.28,0,0,0,2,0c4.66,1.76,5.66,7.8,4.66,13C5.34,19.73.26,19.83.26,19.83Z"/><path class="cls-1" d="M.26,19.83S4.42,21,10.09,17.55A27.59,27.59,0,0,1,20,13.88c-5.27-1.26-8-1.52-13.22-.38C.07,15,.26,19.83.26,19.83Z"/><path class="cls-5" d="M5.91,16.57a6.76,6.76,0,0,0,4.18-.79,13.63,13.63,0,0,1,4.26-1.29,11.84,11.84,0,0,0-5.49-.18C6,14.82,5.91,16.57,5.91,16.57Z"/><path class="cls-5" d="M2.25,17.64a5.85,5.85,0,0,1,.69-4.2A11.92,11.92,0,0,0,4.2,9.17a10.51,10.51,0,0,1,.5,5.54C4.27,17.57,2.25,17.64,2.25,17.64Z"/></g></g></svg>