<svg xmlns="http://www.w3.org/2000/svg" viewBox="0 0 20.11 20.19"><defs><style>.cls-1{fill:#56b4e9;}.cls-2{fill:#0072b2;}</style></defs><title>ManagerAsset 201</title><g id="Layer_2" data-name="Layer 2"><g id="Layer_1-2" data-name="Layer 1"><path class="cls-1" d="M10.14,6.09a47,47,0,0,1-4.73-.22,2.36,2.36,0,0,0-.15.79c0,1.85,2.15,3.34,4.8,3.34s4.79-1.49,4.79-3.34a2.29,2.29,0,0,0-.14-.78C13.39,6,11.82,6.09,10.14,6.09Z"/><rect class="cls-1" y="10.95" width="20.11" height="9.24" rx="2.3"/><rect class="cls-2" x="5.21" width="9.5" height="3.84" rx="1.64"/><ellipse class="cls-2" cx="10.06" cy="3.65" rx="9.93" ry="1.15"/><rect class="cls-2" x="5.53" y="10.95" width="1.64" height="7.05"/><rect class="cls-2" x="12.92" y="10.95" width="1.64" height="7.05"/><path class="cls-2" d="M16.38,20.19V17.06c0-.93-1-1.7-2.27-1.7H6.2c-1.25,0-2.27.77-2.27,1.7v3.13Z"/></g></g></svg>