<svg xmlns="http://www.w3.org/2000/svg" viewBox="0 0 19.89 20"><defs><style>.cls-1{fill:#cda264;}.cls-2{fill:#c18c40;}.cls-3{fill:none;stroke:#d9b46f;stroke-linecap:round;stroke-miterlimit:10;}.cls-4{fill:#e6e6e6;}</style></defs><title>MemoAsset 190</title><g id="Layer_2" data-name="Layer 2"><g id="Layer_1-2" data-name="Layer 1"><rect class="cls-1" x="2.33" width="17.56" height="20" rx="1.23"/><path class="cls-2" d="M3.56,0H6.12a0,0,0,0,1,0,0V20a0,0,0,0,1,0,0H3.56a1.23,1.23,0,0,1-1.23-1.23V1.23A1.23,1.23,0,0,1,3.56,0Z"/><line class="cls-3" x1="0.5" y1="2.91" x2="4.22" y2="2.91"/><line class="cls-3" x1="0.5" y1="7.91" x2="4.22" y2="7.91"/><line class="cls-3" x1="0.5" y1="12.59" x2="4.22" y2="12.59"/><line class="cls-3" x1="0.5" y1="17.27" x2="4.22" y2="17.27"/><rect class="cls-4" x="7.78" y="3.49" width="10.9" height="5.65" rx="0.73"/><line class="cls-3" x1="9.25" y1="5.23" x2="17.49" y2="5.23"/><line class="cls-3" x1="9.25" y1="7.56" x2="17.49" y2="7.56"/></g></g></svg>