<svg xmlns="http://www.w3.org/2000/svg" viewBox="0 0 19.97 16.95"><defs><style>.cls-1{fill:#e69f00;}.cls-2{fill:none;stroke:#56b4e9;stroke-linecap:round;stroke-miterlimit:10;}</style></defs><title>MicroClimateAsset 200</title><g id="Layer_2" data-name="Layer 2"><g id="Layer_1-2" data-name="Layer 1"><path class="cls-1" d="M16.22,13.87c.58-.91,3.22-1.51,3.22-1.51s.44,2.82-.14,3.72a1.8,1.8,0,0,1-2.59.53A2,2,0,0,1,16.22,13.87Z"/><path class="cls-1" d="M16.41,8.45c.58-.9,3.22-1.51,3.22-1.51s.43,2.82-.15,3.72a1.79,1.79,0,0,1-2.58.53A2,2,0,0,1,16.41,8.45Z"/><path class="cls-1" d="M16.6,3c.58-.9,3.21-1.51,3.21-1.51s.44,2.82-.14,3.72a1.8,1.8,0,0,1-2.59.53A2.05,2.05,0,0,1,16.6,3Z"/><path class="cls-1" d="M12.14,13.74c-.62-.87-.3-3.71-.3-3.71s2.66.47,3.28,1.34a2.06,2.06,0,0,1-.38,2.76A1.77,1.77,0,0,1,12.14,13.74Z"/><path class="cls-1" d="M12.31,8.73C11.7,7.86,12,5,12,5s2.66.47,3.27,1.34a2.05,2.05,0,0,1-.38,2.77A1.79,1.79,0,0,1,12.31,8.73Z"/><path class="cls-1" d="M12.54,3.71C11.92,2.84,12.25,0,12.25,0s2.65.47,3.27,1.34a2.06,2.06,0,0,1-.38,2.76A1.77,1.77,0,0,1,12.54,3.71Z"/><path class="cls-2" d="M.5,7.35H5.79C10,7.35,9.68,1,5.82,1c-3.27,0-3,4-1,4"/><path class="cls-2" d="M.5,9.54H3.76c2.6,0,2.49,4.22.12,4.22-1.74,0-1.52-1.91-.81-1.91"/></g></g></svg>