<svg xmlns="http://www.w3.org/2000/svg" viewBox="0 0 20 20"><defs><style>.cls-1{fill:#d55e00;}.cls-2{fill:#754c24;}.cls-3{fill:#e69f00;}</style></defs><title>NutrientAsset 169</title><g id="Layer_2" data-name="Layer 2"><g id="Layer_1-2" data-name="Layer 1"><rect class="cls-1" width="20" height="20" rx="3.61"/><path class="cls-2" d="M18,13.89c-1.3.07-2.83-1.16-3.21-1.46s-1.88-1.06-2.37,1.1-2.63,2.6-7,.94c-1.4-.53-3.1-.64-5.37,2.61A3.62,3.62,0,0,0,3.61,20H16.39A3.61,3.61,0,0,0,20,16.39V11.66S19.32,13.83,18,13.89Z"/><path class="cls-3" d="M16.39,0H3.61A3.62,3.62,0,0,0,0,3.61V9.67c2.16-2.87,2.84.23,5.56-1s1.11-5.47,4.93-4S15.91,9.07,17.67,7,20,4.17,20,4.17V3.61A3.61,3.61,0,0,0,16.39,0Z"/></g></g></svg>