<svg xmlns="http://www.w3.org/2000/svg" viewBox="0 0 19.77 19.62"><defs><style>.cls-1{fill:#c18c40;}.cls-2{fill:#cda264;}.cls-3{fill:#ecce85;}</style></defs><title>OatsAsset 186</title><g id="Layer_2" data-name="Layer 2"><g id="Layer_1-2" data-name="Layer 1"><ellipse class="cls-1" cx="4.44" cy="4.44" rx="5.31" ry="3.35" transform="translate(-1.84 4.44) rotate(-45)"/><path class="cls-2" d="M.79,8.28a.19.19,0,0,1,0-.12C1,8,1.47,7.65,2,7.1s1.55-2,2.22-2.72,1.33-.88,2-1.51c.07-.07.76-.45.83-.52A11.91,11.91,0,0,0,7.92,1C8,1,8.3.82,8.33.86c.67,1-.15,3.32-2.15,5.32S1.71,9,.79,8.28Z"/><path class="cls-2" d="M.52,8a.89.89,0,0,1,.08-.3A16.35,16.35,0,0,1,2,6.05c.42-.42,1.23-1.89,1.68-2.34.74-.73,2.35-1,3.15-2,.56-.69.65-1,.95-1.24,0,0,.17,0,.12,0C6.62-.5,4.07.07,2.07,2.07S-.49,6.81.52,8Z"/><path class="cls-3" d="M1,5.43c.19,0,.22-.29.89-1,.26-.26.85-1,1.11-1.32C4,2,8.38-.39,2.77,2.26A3.63,3.63,0,0,0,1,5.43Z"/><ellipse class="cls-1" cx="4.49" cy="14.51" rx="5.31" ry="3.35" transform="translate(-10.67 13.75) rotate(-69.92)"/><path class="cls-2" d="M2.81,19.53a.17.17,0,0,1,0-.14c.08-.22.35-.72.62-1.45.33-.88.56-2.47.86-3.41s.84-1.35,1.16-2.2c0-.09.5-.72.54-.82a10.75,10.75,0,0,0,.22-1.6c0-.05.27-.32.31-.29,1,.64,1.26,3.07.29,5.73S4,19.81,2.81,19.53Z"/><path class="cls-2" d="M2.44,19.39a1,1,0,0,1,0-.3A16.11,16.11,0,0,1,3,17c.21-.57.33-2.24.55-2.84.36-1,1.72-1.88,2-3.1.22-.87.19-1.15.34-1.53,0-.06.14-.09.09-.1C4.39,9.1,2.32,10.7,1.35,13.36S1,18.74,2.44,19.39Z"/><path class="cls-3" d="M1.76,16.86c.19,0,.08-.35.41-1.25.12-.33.33-1.29.45-1.66.47-1.45,3.41-5.48-.56-.72A3.63,3.63,0,0,0,1.76,16.86Z"/><ellipse class="cls-1" cx="14.47" cy="5.97" rx="5.31" ry="3.35" transform="translate(-1.06 7.93) rotate(-29.63)"/><path class="cls-2" d="M9.94,8.71A.16.16,0,0,1,10,8.6c.2-.11.74-.32,1.41-.7.82-.46,2-1.52,2.86-2a24.25,24.25,0,0,1,2.31-.93c.09,0,.85-.23.94-.28.64-.38.9-.89,1.2-1.07.05,0,.42-.07.43,0,.38,1.16-1,3.16-3.48,4.56S10.63,9.66,9.94,8.71Z"/><path class="cls-2" d="M9.75,8.38s.09-.23.16-.27a13.53,13.53,0,0,1,1.81-1.22c.52-.3,1.69-1.5,2.24-1.81.91-.51,2.53-.32,3.56-1.06.72-.52.88-.75,1.24-.95,0,0,.17,0,.13,0-1-1.28-3.62-1.4-6.08,0S9.09,7,9.75,8.38Z"/><path class="cls-3" d="M10.86,6c.17.09.29-.22,1.12-.7.31-.17,1.09-.77,1.42-1,1.29-.8,6.15-2,0-.91A3.64,3.64,0,0,0,10.86,6Z"/><ellipse class="cls-1" cx="14.47" cy="15.78" rx="3.35" ry="5.31" transform="translate(-2.2 29.22) rotate(-86.36)"/><path class="cls-2" d="M9.18,15.58a.16.16,0,0,1,.13,0c.23,0,.79.14,1.56.19.94.06,2.53-.17,3.51-.14a21.82,21.82,0,0,1,2.44.49c.1,0,.84.27.94.28a10.9,10.9,0,0,0,1.6-.24c.06,0,.38.17.37.21-.32,1.18-2.59,2.09-5.42,1.91S9.23,16.76,9.18,15.58Z"/><path class="cls-2" d="M9.2,15.2a1,1,0,0,1,.28-.14,14.53,14.53,0,0,1,2.18,0c.6,0,2.24-.32,2.88-.28,1,.06,2.29,1.11,3.55,1.06.89,0,1.15-.15,1.56-.11.06,0,.12.12.12.06-.15-1.62-2.26-3.15-5.09-3.33S9.43,13.65,9.2,15.2Z"/><path class="cls-3" d="M11.44,13.83c.09.17.35,0,1.31,0,.36,0,1.34,0,1.72,0,1.52,0,6.23,1.72.53-.74A3.61,3.61,0,0,0,11.44,13.83Z"/></g></g></svg>