<svg xmlns="http://www.w3.org/2000/svg" viewBox="0 0 19.94 20"><defs><style>.cls-1{fill:#8d4223;}.cls-2{fill:#a05f2a;}.cls-3{fill:#009245;}.cls-4{fill:#00db73;}</style></defs><title>OilPalmAsset 191</title><g id="Layer_2" data-name="Layer 2"><g id="Layer_1-2" data-name="Layer 1"><path class="cls-1" d="M8.21,20C9.36,15.55,6.59,6.75,6.59,6.75l1-.46A87.1,87.1,0,0,1,11.71,20Z"/><path class="cls-2" d="M9.79,18.08C9.85,14.35,7.22,6.67,7.22,6.67c1.68,2.11,3.61,12,3.31,11.94C10.53,18.61,9.77,18.71,9.79,18.08Z"/><path class="cls-3" d="M3,13.84a.08.08,0,0,1-.15,0c-2.47-4.93.6-7.45,1.36-8a.08.08,0,0,0,0-.14C1.3,5.22,0,6.47,0,6.47.47,3.22,5.06,4,5.75,4.14c0,0,.08,0,.08-.08C5.73.12,8.56,0,8.56,0A7.06,7.06,0,0,0,7.9,3.11a.07.07,0,0,0,.1.06C12.29,2,13.49,4,13.49,4c-3.42-.1-3.51.32-3.51.32,3.95,1.18,3,4.36,3,4.36C4.74,2.57,3.16,12.81,3,13.84Z"/><path class="cls-4" d="M4.59,4.93a4.73,4.73,0,0,0-4,.8c1-1.81,4.45-1.5,4.39-1.3C5,4.43,5,5,4.59,4.93Z"/><path class="cls-4" d="M4.84,7a6,6,0,0,0-2.29,4.62c-1-2.46,2-5.62,2.1-5.4C4.65,6.24,5.26,6.66,4.84,7Z"/><path class="cls-4" d="M7,3.46A3.45,3.45,0,0,1,8.18.27C6.29.94,6.29,3.76,6.5,3.73,6.5,3.73,7.08,3.82,7,3.46Z"/><path class="cls-4" d="M8.92,4.15a4.38,4.38,0,0,1,3.88-.31c-1.48-1.45-4.49-.23-4.37,0C8.43,3.79,8.56,4.36,8.92,4.15Z"/><path class="cls-4" d="M9.53,5.4a4.4,4.4,0,0,1,3.06,2.41c-.1-2.07-3.14-3.22-3.17-3C9.42,4.8,9.13,5.31,9.53,5.4Z"/><path class="cls-1" d="M15.27,20c-.58-2.21.8-6.56.8-6.56l-.48-.23A43.39,43.39,0,0,0,13.54,20Z"/><path class="cls-2" d="M14.49,19.05a23.87,23.87,0,0,1,1.27-5.65c-.83,1-1.79,6-1.64,5.91S14.49,19.36,14.49,19.05Z"/><path class="cls-3" d="M18.13,17.51s.07,0,.1,0c1.5-3-.37-4.55-.83-4.87a0,0,0,0,1,0-.08,2.93,2.93,0,0,1,2.52.45c-.29-2-3.09-1.51-3.51-1.42a0,0,0,0,1-.05-.05c.06-2.4-1.67-2.48-1.67-2.48a4.3,4.3,0,0,1,.41,1.9,0,0,0,0,1-.06,0c-2.62-.7-3.35.5-3.35.5,2.08-.06,2.14.2,2.14.2-2.42.72-1.86,2.66-1.86,2.66C17,10.63,18,16.88,18.13,17.51Z"/><path class="cls-4" d="M17.13,12.07a2.89,2.89,0,0,1,2.44.49c-.64-1.11-2.72-.92-2.68-.8S16.87,12.12,17.13,12.07Z"/><path class="cls-4" d="M17,13.34a3.65,3.65,0,0,1,1.39,2.82c.61-1.5-1.19-3.43-1.28-3.29S16.73,13.13,17,13.34Z"/><path class="cls-4" d="M15.65,11.17A2.11,2.11,0,0,0,15,9.23a1.94,1.94,0,0,1,1,2.11S15.62,11.39,15.65,11.17Z"/><path class="cls-4" d="M14.49,11.59a2.64,2.64,0,0,0-2.36-.18,2.44,2.44,0,0,1,2.67,0S14.71,11.72,14.49,11.59Z"/><path class="cls-4" d="M14.12,12.36a2.68,2.68,0,0,0-1.87,1.46c.07-1.26,1.92-2,1.94-1.83S14.37,12.3,14.12,12.36Z"/></g></g></svg>