<svg xmlns="http://www.w3.org/2000/svg" viewBox="0 0 20 19.89"><defs><style>.cls-1{fill:#cda264;}.cls-2{fill:#c18c40;}.cls-3{fill:none;stroke:#e8c368;stroke-linecap:round;stroke-miterlimit:10;}.cls-4{fill:#c1272d;}</style></defs><title>OperationsAsset 197</title><g id="Layer_2" data-name="Layer 2"><g id="Layer_1-2" data-name="Layer 1"><path class="cls-1" d="M18.77,2.33H1.23A1.23,1.23,0,0,0,0,3.56v15.1a1.23,1.23,0,0,0,1.23,1.23H18.77A1.23,1.23,0,0,0,20,18.66V3.56A1.23,1.23,0,0,0,18.77,2.33ZM2.47,12.08a.8.8,0,0,1,.8-.8H4.55a.8.8,0,0,1,.8.8v1.28a.8.8,0,0,1-.8.8H3.27a.8.8,0,0,1-.8-.8ZM5.36,17.7a.8.8,0,0,1-.8.8H3.28a.8.8,0,0,1-.8-.8V16.42a.8.8,0,0,1,.8-.8H4.56a.8.8,0,0,1,.8.8Zm4.24,0a.8.8,0,0,1-.8.8H7.52a.8.8,0,0,1-.8-.8V16.42a.8.8,0,0,1,.8-.8H8.8a.8.8,0,0,1,.8.8Zm0-4.34a.8.8,0,0,1-.8.8H7.52a.8.8,0,0,1-.8-.8V12.08a.8.8,0,0,1,.8-.8H8.8a.8.8,0,0,1,.8.8ZM9.61,9a.8.8,0,0,1-.8.8H7.53a.8.8,0,0,1-.8-.8V7.73a.8.8,0,0,1,.8-.8H8.81a.8.8,0,0,1,.8.8Zm4.21,8.69a.8.8,0,0,1-.8.8H11.74a.8.8,0,0,1-.8-.8V16.42a.8.8,0,0,1,.8-.8H13a.8.8,0,0,1,.8.8Zm0-4.34a.8.8,0,0,1-.8.8H11.74a.8.8,0,0,1-.8-.8V12.08a.8.8,0,0,1,.8-.8H13a.8.8,0,0,1,.8.8Zm0-4.35a.8.8,0,0,1-.8.8H11.75A.8.8,0,0,1,11,9V7.73a.8.8,0,0,1,.8-.8H13a.8.8,0,0,1,.8.8Zm4.09,4.35a.8.8,0,0,1-.8.8H15.84a.8.8,0,0,1-.8-.8V12.08a.8.8,0,0,1,.8-.8h1.28a.8.8,0,0,1,.8.8Zm0-4.35a.8.8,0,0,1-.8.8H15.85a.8.8,0,0,1-.8-.8V7.73a.8.8,0,0,1,.8-.8h1.28a.8.8,0,0,1,.8.8Z"/><path class="cls-2" d="M9.33-5.78h2.56a0,0,0,0,1,0,0v20a0,0,0,0,1,0,0H9.33A1.23,1.23,0,0,1,8.11,13V-4.55A1.23,1.23,0,0,1,9.33-5.78Z" transform="translate(14.22 -5.78) rotate(90)"/><line class="cls-3" x1="16.77" y1="0.5" x2="16.77" y2="4.22"/><line class="cls-3" x1="2.73" y1="0.5" x2="2.73" y2="4.22"/><path class="cls-4" d="M18.57,15.38a.47.47,0,0,0-.37-.14.5.5,0,0,0-.35.18L16.4,17.2l-.48-.6a.47.47,0,0,0-.71,0,.61.61,0,0,0,0,.8l1.23,1.53,2.21-2.72a.57.57,0,0,0,.13-.4A.61.61,0,0,0,18.57,15.38Z"/></g></g></svg>