<svg xmlns="http://www.w3.org/2000/svg" viewBox="0 0 19.27 19.58"><defs><style>.cls-1,.cls-3{fill:none;}.cls-1{stroke:#cc79a7;stroke-width:3px;}.cls-1,.cls-3,.cls-4{stroke-linecap:round;}.cls-1,.cls-2,.cls-3,.cls-4{stroke-miterlimit:10;}.cls-2{stroke:#000;opacity:0.97;}.cls-2,.cls-3,.cls-4{stroke-width:0.5px;}.cls-3,.cls-4{stroke:#981d4a;}.cls-4{fill:#333;}</style></defs><title>OrganicAsset 171</title><g id="Layer_2" data-name="Layer 2"><g id="Layer_1-2" data-name="Layer 1"><path class="cls-1" d="M17.77,17.68c-1.72.27-1.93-3.65-5.29-.29-1,1-.46-5.36-3.07-5.36C7.56,12,7.25,15.19,4,17.37c-6.14,4.14.87-11.21.87-11.21,1.37-4-1.14-4.66-1.14-4.66"/><circle class="cls-2" cx="4.06" cy="1.34" r="0.29"/><path class="cls-3" d="M6.54,4.52a3,3,0,0,1-1.88,0"/><path class="cls-3" d="M5.38,8.12a1.24,1.24,0,0,1-1.45,0"/><path class="cls-3" d="M4.27,11a1.26,1.26,0,0,1-1.34,0"/><path class="cls-3" d="M3.34,13.59c-.24.25-1,0-1,0"/><path class="cls-3" d="M2.78,15.91a2.9,2.9,0,0,0-1.21.73"/><path class="cls-3" d="M5.37,14.38a1.53,1.53,0,0,0,.2,1.17"/><path class="cls-3" d="M11,11.34a2.24,2.24,0,0,0-.61,1.36"/><path class="cls-3" d="M12.2,13.08a2.3,2.3,0,0,0-.53,1.37"/><path class="cls-3" d="M7.27,11.78a2.59,2.59,0,0,0,.41,1.43"/><path class="cls-3" d="M13.39,15.14c-.54,1.3-.14,1.54-.14,1.54"/><path class="cls-4" d="M16.45,15.37a5,5,0,0,0-.11,1.47"/><path class="cls-3" d="M3.6,16.2a2,2,0,0,0-.51,1.48"/></g></g></svg>