<svg xmlns="http://www.w3.org/2000/svg" viewBox="0 0 20.05 19.96"><defs><style>.cls-1{fill:#d0a24d;}.cls-2{fill:#a67c52;}</style></defs><title>PeanutAsset 183</title><g id="Layer_2" data-name="Layer 2"><g id="Layer_1-2" data-name="Layer 1"><path class="cls-1" d="M17.59.88A1,1,0,0,0,18.83.2l1,.37a1.71,1.71,0,0,1-.61,1c-.3.27-.09.73-.09.73Z"/><path class="cls-1" d="M20.05,5.27A5.26,5.26,0,0,0,9.67,4.07h0A4.76,4.76,0,0,1,6.07,7.62h0a6.17,6.17,0,1,0,6.24,6.75h0c0-.15,0-.3,0-.45.1-.81.67-2.5,3.39-3.46h0A5.26,5.26,0,0,0,20.05,5.27Z"/><path class="cls-2" d="M.65,16.55a9.35,9.35,0,0,1,.19-3.24,7,7,0,0,1,1.63-2.9A7.66,7.66,0,0,1,5.29,8.57,7.27,7.27,0,0,1,7,8.17c.33,0,.57,0,.8,0A3.73,3.73,0,0,0,8.44,8,4.38,4.38,0,0,0,10.63,6.2a7.72,7.72,0,0,0,.74-1.32l.31-.72a6.82,6.82,0,0,1,.37-.77A6.22,6.22,0,0,1,14.39,1,4.4,4.4,0,0,1,17.63.83a4.46,4.46,0,0,0-3,.6,5.69,5.69,0,0,0-1.91,2.32,15.86,15.86,0,0,1-1.31,3A5.35,5.35,0,0,1,8.74,8.94a5.46,5.46,0,0,1-.88.17l-.81,0a6.64,6.64,0,0,0-1.44.32A7.69,7.69,0,0,0,3,11,8,8,0,0,0,.65,16.55Z"/><path class="cls-2" d="M3.16,18.72a9.36,9.36,0,0,0,5.76-2,5.82,5.82,0,0,0,1.62-2.43,3.57,3.57,0,0,0,.17-.7,3.92,3.92,0,0,0,0-.73,4.71,4.71,0,0,1,.41-1.73,5.91,5.91,0,0,1,2.39-2.46A11.49,11.49,0,0,1,15.07,8a4.74,4.74,0,0,0,1.34-.62A6.4,6.4,0,0,0,18.33,5a5.1,5.1,0,0,0,.55-3,5,5,0,0,1-.1,3.22,7,7,0,0,1-1.89,2.73,4.7,4.7,0,0,1-.73.5c-.29.14-.52.21-.76.32a10.17,10.17,0,0,0-1.35.71,5,5,0,0,0-2,2.07,3.49,3.49,0,0,0-.34,1.35,4.74,4.74,0,0,1-.08.86,4,4,0,0,1-.23.84,6,6,0,0,1-2,2.71,7.41,7.41,0,0,1-3,1.35A11,11,0,0,1,3.16,18.72Z"/><path class="cls-2" d="M1.79,18.08a6.72,6.72,0,0,1,.74-4.54,6.92,6.92,0,0,1,3.72-2.93,10.89,10.89,0,0,1,2.31-.53,3.24,3.24,0,0,0,1.83-.76,6.41,6.41,0,0,0,1.39-1.61A20.76,20.76,0,0,0,13,5.79,9.12,9.12,0,0,1,12.28,8a5.61,5.61,0,0,1-1.35,2A4.1,4.1,0,0,1,8.69,11a10.58,10.58,0,0,0-2.1.52A6.94,6.94,0,0,0,3.17,14,8.27,8.27,0,0,0,1.79,18.08Z"/><path class="cls-2" d="M3,17.25a15.36,15.36,0,0,0,1.82-.69,6.71,6.71,0,0,0,1.51-1,15.71,15.71,0,0,0,2.48-2.88A5.24,5.24,0,0,1,7,16.33a4.63,4.63,0,0,1-1.9,1A4,4,0,0,1,3,17.25Z"/><path class="cls-2" d="M18.71,7.69a11,11,0,0,0-2.09-4A20.16,20.16,0,0,0,15.11,2,14.7,14.7,0,0,0,13.35.43a5.08,5.08,0,0,1,2.26.94,8.19,8.19,0,0,1,1.8,1.68,7.23,7.23,0,0,1,1.17,2.19A4.55,4.55,0,0,1,18.71,7.69Z"/><path class="cls-2" d="M16,10a11,11,0,0,0-2.09-4,17.17,17.17,0,0,0-1.51-1.7,15.41,15.41,0,0,0-1.75-1.54,5,5,0,0,1,2.25.94,8.19,8.19,0,0,1,1.8,1.68A7.23,7.23,0,0,1,15.9,7.55,4.55,4.55,0,0,1,16,10Z"/><path class="cls-2" d="M1,11.15a11.79,11.79,0,0,0,2.32,4.62A17.63,17.63,0,0,0,5.05,17.7a14.68,14.68,0,0,0,2,1.71A6,6,0,0,1,4.55,18.3a9.63,9.63,0,0,1-2-1.91,8,8,0,0,1-1.34-2.47A5.24,5.24,0,0,1,1,11.15Z"/><path class="cls-2" d="M3.16,8.43a13.42,13.42,0,0,0,2.4,5.17,22.44,22.44,0,0,0,1.85,2.18,15.63,15.63,0,0,0,2.2,1.91A6.5,6.5,0,0,1,6.9,16.36a10.74,10.74,0,0,1-2.14-2.17,9.15,9.15,0,0,1-1.39-2.73A6.25,6.25,0,0,1,3.16,8.43Z"/><path class="cls-2" d="M6.51,7.85a10.86,10.86,0,0,0,2.06,3.93A17.74,17.74,0,0,0,10,13.45,15.74,15.74,0,0,0,11.76,15a4.8,4.8,0,0,1-2.21-.91A7.91,7.91,0,0,1,7.78,12.4a6.64,6.64,0,0,1-1.14-2.15A4.36,4.36,0,0,1,6.51,7.85Z"/><path class="cls-2" d="M8.85,6.65a10.07,10.07,0,0,0,1.69,3c.34.45.73.87,1.12,1.3A15.41,15.41,0,0,0,13,12.2a3.7,3.7,0,0,1-1.79-.65,6.11,6.11,0,0,1-1.41-1.28,5.2,5.2,0,0,1-.88-1.72A3.24,3.24,0,0,1,8.85,6.65Z"/><path class="cls-2" d="M18.45,1.53a4.5,4.5,0,0,0-2.51,2.09,6.82,6.82,0,0,0-.71,1.49,11.33,11.33,0,0,0-.45,1.72A3.38,3.38,0,0,1,14.46,5a4.46,4.46,0,0,1,.62-1.86,3.79,3.79,0,0,1,1.45-1.36A2.4,2.4,0,0,1,18.45,1.53Z"/></g></g></svg>