<svg xmlns="http://www.w3.org/2000/svg" viewBox="0 0 17.25 20"><defs><style>.cls-1{fill:#8d4223;}.cls-2{fill:#009245;}.cls-3{fill:#00db73;}.cls-4{fill:#f0e442;}</style></defs><title>PinusAsset 182</title><g id="Layer_2" data-name="Layer 2"><g id="Layer_1-2" data-name="Layer 1"><rect class="cls-1" x="7.7" y="14.59" width="1.85" height="5.41"/><polygon class="cls-2" points="8.62 1.69 4.59 7.2 8.62 6.14 12.66 7.2 8.62 1.69"/><polygon class="cls-2" points="8.62 4.01 2.35 12.97 8.62 11.24 14.9 12.97 8.62 4.01"/><path class="cls-3" d="M7.81,4,6.28,6.2l1.21-.33a.45.45,0,0,0,.32-.43Z"/><polygon class="cls-2" points="8.62 7.92 0 17.71 8.62 15.82 17.25 17.71 8.62 7.92"/><path class="cls-3" d="M7.59,7.61l-2.5,3.57,2-.54a.74.74,0,0,0,.53-.7Z"/><path class="cls-3" d="M6.54,11.71l-2.9,4.14,2.28-.63a.83.83,0,0,0,.62-.81Z"/><polygon class="cls-4" points="8.7 0 9.2 1.52 10.8 1.52 9.5 2.47 10 3.99 8.7 3.05 7.4 3.99 7.9 2.47 6.6 1.52 8.21 1.52 8.7 0"/></g></g></svg>