<svg xmlns="http://www.w3.org/2000/svg" viewBox="0 0 19.98 20"><defs><style>.cls-1{fill:#098246;}.cls-2{fill:#39b54a;}</style></defs><title>PlantainAsset 193</title><g id="Layer_2" data-name="Layer 2"><g id="Layer_1-2" data-name="Layer 1"><path class="cls-1" d="M19.37,14.28c-.1,0,.09-.22.09-.22s0-.07-.65-.12c-.22,0,0-.08.05-.19s-.15-.17-1.3.06a.63.63,0,0,0,.38-.39s-.5-.41-2,.2a1.89,1.89,0,0,0,.47-1,3.88,3.88,0,0,0-3,.81c.54-.53,1.09-1.32.51-2-.06-.07-.57,0-.81,0s-.39.26-.73.37-.47-.07-.66.09C10.82,12.67,9.22,14.62,8,15a22.84,22.84,0,0,0,.68-2.25C9,11,13.87,10.2,15.54,9.49c.3-.13,0-.26.38-.64s.85-.33.82-.61.33-.75.25-.84c-.76-.84-2.13-.57-3.11-.22C16.2,6,16.2,4.42,16.2,4.42a3.78,3.78,0,0,0-1.62.11c1.46-1.32,1-2,1-2a1,1,0,0,0-.7.25c.76-1.09.56-1.31.56-1.31-.19,0-.36.21-.3,0,.18-.69.07-.7.07-.7s-.34.12-.35,0C14.81.1,14.6,0,14.6,0c-2.25.43-1.84,1.53-1.84,1.53-.4-.57-.58-.38-.58-.38-.58,1-.5,1.38-.41,1.55C11.27,2,10.84,2,10.84,2c-1.41,1.06-.9,3.19-.9,3.19-.74-2-1.42-2-1.42-2a4.28,4.28,0,0,0-.47,1,.76.76,0,0,0-.43-.26A1.82,1.82,0,0,0,7.6,5c-.3-.3-.45-.23-.45-.23-.52,2.53.94,4,1.4,5.31a1.84,1.84,0,0,1-.09,1.6,21.52,21.52,0,0,0-.86,2.71s-.75-.62-.66-1.18C7.1,12.14,8,10.86,7.23,9c0,0-.12,0-.31.22a1.39,1.39,0,0,0-.17-.82s-.14,0-.29.24A4.06,4.06,0,0,0,6,7.89s-.53.06-.8,1.7A2.7,2.7,0,0,0,4,7.23s-.33,0-.61.62c0-.14,0-.48-.55-1.15,0,0-.17-.13-.39.35,0,0,.16-.89-1.64-1,0,0-.15.09-.12.61,0,.09-.27,0-.27,0s-.08,0,.16.54c.07.17-.09,0-.23,0s-.12.19.63,1a.79.79,0,0,0-.59-.13s-.22.57,1.1,1.44a2.71,2.71,0,0,0-1.26.08s.22,1.17,2.19,1.88C1.6,11.35.51,11.28.05,12c0,.08.29.41.31.62s.46.18.73.39.13.38.38.45c1.39.38,5.72.24,5.82,1.57,0,0-2.6,3.86-6.42,3.89C.53,18.93-.25,20.05.08,20c6.05-.92,7.7-4.6,7.7-4.6a2,2,0,0,1,1.34.06c1.06.58,2.54,2.48,4.92,2.73,0,0,.09-.07-.11-.33a2.35,2.35,0,0,0,1,.23s0-.11-.13-.32a5.4,5.4,0,0,0,1-.08s.17-.41-1.48-1.34a4.15,4.15,0,0,0,3.05.17s.1-.27-.4-.74c.13.1.5.25,1.48.09,0,0,.22-.06-.21-.44,0,0,.9.51,1.79-.8C20,14.63,19.94,14.48,19.37,14.28Z"/><path class="cls-2" d="M6.32,12.86a4,4,0,0,0,.15-3s-.09,0-.22.16a1,1,0,0,0-.13-.58s-.09,0-.2.18a2.4,2.4,0,0,0-.36-.49s-.37.05-.54,1.2a1.9,1.9,0,0,0-.85-1.64s-.23,0-.42.45c0-.1,0-.34-.4-.8,0,0-.11-.09-.26.25,0,0,.09-.63-1.17-.67C1.92,8,5.79,14.42,6.32,12.86Z"/><path class="cls-2" d="M10,14.55a3.89,3.89,0,0,1,2.35-1.82s.07,0,0,.27a1,1,0,0,1,.55-.22.35.35,0,0,1,0,.26,2.68,2.68,0,0,1,.61,0s.17.33-.68,1.13a1.9,1.9,0,0,1,1.83-.25s.1.21-.13.6c.07-.08.27-.21.89-.12,0,0,.14,0-.06.36,0,0,.46-.44,1.22.57C16.51,15.35,9,15.87,10,14.55Z"/><path class="cls-2" d="M9.69,10.74c.21-1,3.1-1.49,4.09-1.91.18-.08,0-.15.22-.38s.51-.19.49-.36.19-.44.15-.49c-.45-.5-1.26-.34-1.84-.13,1.37-.73,1.37-1.64,1.37-1.64a2.24,2.24,0,0,0-1,.07c.86-.79.62-1.18.62-1.18a.57.57,0,0,0-.42.15c.45-.65.33-.78.33-.78s-.21.12-.18,0c.11-.41,0-.42,0-.42s-.2.07-.21,0c-.05-.39-.18-.45-.18-.45-1.33.25-1.09.91-1.09.91-.23-.35-.34-.23-.34-.23-.34.56-.3.82-.24.92-.3-.41-.55-.41-.55-.41a1.93,1.93,0,0,0-.53,1.88C10,5.09,9.63,5.1,9.63,5.1a2.46,2.46,0,0,0-.28.58.5.5,0,0,0-.26-.15,1.08,1.08,0,0,0,0,.64C8.9,6,8.82,6,8.82,6c-.31,1.5.55,2.37.83,3.15Z"/></g></g></svg>