<svg xmlns="http://www.w3.org/2000/svg" viewBox="0 0 19.9 19.93"><defs><style>.cls-1{fill:#d0a24d;}.cls-2{fill:#e8c368;}.cls-3{fill:#c18c40;}</style></defs><title>PotatoAsset 181</title><g id="Layer_2" data-name="Layer 2"><g id="Layer_1-2" data-name="Layer 1"><path class="cls-1" d="M1.94,17.58C10,25.09,16,12.15,16,12.15a18.12,18.12,0,0,1,3.19-5.74C21.6,3.4,17,.59,17,.59,11.75-2.13,4.17,5.46,4.17,5.46-3.66,13.28,1.94,17.58,1.94,17.58Z"/><path class="cls-2" d="M3.84,9.15c2.59-6.34,11.6-6.83,11.6-6.83,2.82.35-1.29,3.21-1.29,3.21a5.4,5.4,0,0,1-2.61.6,8.93,8.93,0,0,0-6,2.62C3.44,11.09,3.84,9.15,3.84,9.15Z"/><path class="cls-3" d="M12.76,13.63s3.48-5.49,6.45-7.22A18.57,18.57,0,0,0,16,12.15S10,25.09,1.94,17.58A11.61,11.61,0,0,0,12.76,13.63Z"/><circle class="cls-3" cx="11.39" cy="15.06" r="0.49"/><circle class="cls-3" cx="5.05" cy="17.06" r="0.5"/><circle class="cls-3" cx="17.2" cy="4.03" r="0.6"/><circle class="cls-3" cx="7.77" cy="13.19" r="0.59"/><path class="cls-3" d="M3.24,14.92A1.43,1.43,0,0,0,2,13.56L2,12.82a2.19,2.19,0,0,1,2,2Z"/><path class="cls-3" d="M14.48,3.08a1.44,1.44,0,0,0-1.26-1.36l0-.74a2.18,2.18,0,0,1,2,2Z"/><path class="cls-3" d="M13.21,11.71A1.44,1.44,0,0,0,12,10.35L12,9.6a2.2,2.2,0,0,1,2,2Z"/><circle class="cls-3" cx="9.52" cy="4.81" r="0.66"/><circle class="cls-3" cx="7.08" cy="9.09" r="0.69"/><circle class="cls-3" cx="14.58" cy="7.45" r="0.53"/></g></g></svg>