<svg xmlns="http://www.w3.org/2000/svg" viewBox="0 0 19.78 19.75"><defs><style>.cls-1{fill:#e6e6e6;}.cls-1,.cls-3,.cls-4{stroke:#b3b3b3;stroke-miterlimit:10;}.cls-2{font-size:3.98px;font-family:Impact;}.cls-3,.cls-4{fill:none;}.cls-4{stroke-dasharray:0.97 0.97;}.cls-5{fill:#333;}.cls-6{fill:#42d338;}</style></defs><title>SCRUMAsset 199</title><g id="Layer_2" data-name="Layer 2"><g id="Layer_1-2" data-name="Layer 1"><path class="cls-1" d="M1.46,17.66C-.69,13.69,1.19,9.54,3,6.85A15.44,15.44,0,0,1,9,1.72c4.68-2.26,7.75-.81,8.76-.18a1.89,1.89,0,0,1,.56.53c1.81,2.58.88,6-.35,8.55a15.85,15.85,0,0,1-6.2,6.75c-4.85,2.89-8.18,1.75-9.44,1.09A1.92,1.92,0,0,1,1.46,17.66Z"/><text class="cls-2" transform="translate(5.14 14.68) rotate(-56.22)">S</text><text class="cls-2" transform="translate(6.39 12.83) rotate(-52.37)">T</text><text class="cls-2" transform="translate(7.64 11.22) rotate(-49.18)">E</text><text class="cls-2" transform="matrix(0.69, -0.72, 0.72, 0.69, 8.87, 9.81)">E</text><text class="cls-2" transform="matrix(0.73, -0.69, 0.69, 0.73, 10.13, 8.48)">D</text><text class="cls-2" transform="translate(11.89 6.83) rotate(-40.6)">E</text><text class="cls-2" transform="translate(13.3 5.62) rotate(-37.6)">N</text><path class="cls-3" d="M2,18.31l.49-.12"/><path class="cls-4" d="M3.47,17.94C17.46,14,18.22,5.55,18.05,2.69"/><path class="cls-3" d="M18,2.2a4.5,4.5,0,0,0-.07-.49"/><path class="cls-5" d="M2,16.2C.72,12.88,3.39,7,3.39,7c-3.75,5.19-2.22,9.64-2,9.55C1.38,16.57,2.12,16.54,2,16.2Z"/><path class="cls-6" d="M3,16c-1.27-3.33,1.4-9.19,1.4-9.19-3.75,5.19-2.22,9.64-2,9.56C2.35,16.34,3.09,16.3,3,16Z"/><path class="cls-5" d="M16.66,2c.78,3.47-2.7,8.89-2.7,8.89,4.45-4.61,3.58-9.23,3.36-9.17C17.32,1.75,16.58,1.68,16.66,2Z"/><path class="cls-6" d="M15.66,2.12C16.44,5.59,13,11,13,11c4.46-4.6,3.58-9.22,3.36-9.16C16.32,1.85,15.58,1.77,15.66,2.12Z"/></g></g></svg>