<svg xmlns="http://www.w3.org/2000/svg" viewBox="0 0 19.94 19.94"><defs><style>.cls-1{fill:#cc79a7;stroke:#cc79a7;stroke-miterlimit:10;}.cls-2{fill:none;stroke:#fff;stroke-linecap:round;stroke-linejoin:round;}.cls-3{fill:#fff;}</style></defs><title>SeriesAsset 203</title><g id="Layer_2" data-name="Layer 2"><g id="Layer_1-2" data-name="Layer 1"><rect class="cls-1" x="0.5" y="0.5" width="18.94" height="18.94" rx="2.64"/><polyline class="cls-2" points="3.13 15.31 5.92 6.3 9.45 10.99 11.57 4.2 13.88 14.22 16.61 8.33"/><path class="cls-3" d="M4.7,15.71a1.62,1.62,0,1,1-1.06-2A1.62,1.62,0,0,1,4.7,15.71Z"/><path class="cls-3" d="M18,9.08a1.62,1.62,0,0,0-2.93-1.36A1.62,1.62,0,1,0,18,9.08Z"/><ellipse class="cls-3" cx="5.76" cy="6.01" rx="1.41" ry="1.49"/><ellipse class="cls-3" cx="9.36" cy="11.24" rx="1.41" ry="1.49"/><ellipse class="cls-3" cx="13.84" cy="14.22" rx="1.41" ry="1.49"/><ellipse class="cls-3" cx="11.67" cy="4.09" rx="1.41" ry="1.49"/></g></g></svg>