<svg xmlns="http://www.w3.org/2000/svg" viewBox="0 0 20 19.79"><defs><style>.cls-1{fill:#009e73;}.cls-2{fill:#fff;}.cls-3{fill:none;stroke:#fff;stroke-miterlimit:10;}</style></defs><title>SimulationAsset 156</title><g id="Layer_2" data-name="Layer 2"><g id="Layer_1-2" data-name="Layer 1"><rect class="cls-1" width="20" height="19.79"/><path class="cls-2" d="M7.21,3.69,2.45,8.3l1.7.22,4-3.83a.72.72,0,0,0,0-1A.64.64,0,0,0,7.21,3.69Z"/><ellipse class="cls-3" cx="9.23" cy="2.75" rx="1.88" ry="1.85"/><ellipse class="cls-3" cx="6.36" cy="11.88" rx="1.88" ry="1.85"/><path class="cls-2" d="M4.38,7.11H0V8.52H4.15l.85-1A.72.72,0,0,0,4.38,7.11Z"/><path class="cls-2" d="M4,11.06,0,11v1.41l4,0a.73.73,0,0,0,.74-.72A.69.69,0,0,0,4,11.06Z"/><path class="cls-2" d="M13.42,16.33l4.08-5H15.8l-3.38,4.16a.67.67,0,0,0,.1,1A.65.65,0,0,0,13.42,16.33Z"/><ellipse class="cls-3" cx="11.22" cy="17.04" rx="1.88" ry="1.85"/><ellipse class="cls-3" cx="13.81" cy="8.17" rx="1.88" ry="1.85"/><path class="cls-2" d="M15.62,12.73H20V11.31H15.85l-.85,1A.74.74,0,0,0,15.62,12.73Z"/><path class="cls-2" d="M16,9l4,0V7.62l-4,0a.73.73,0,0,0-.74.72A.69.69,0,0,0,16,9Z"/></g></g></svg>