<svg xmlns="http://www.w3.org/2000/svg" viewBox="0 0 19.67 19.74"><defs><style>.cls-1{fill:none;stroke:#c1272d;stroke-miterlimit:10;stroke-width:2px;}.cls-2{fill:#fff;}</style></defs><title>SlurpAsset 178</title><g id="Layer_2" data-name="Layer 2"><g id="Layer_1-2" data-name="Layer 1"><polyline class="cls-1" points="0.91 19.28 9.65 2.15 19.55 0.99"/><polygon class="cls-2" points="2.62 18.11 0.37 18.11 0 18.83 2.25 18.83 2.62 18.11"/><polygon class="cls-2" points="4.76 13.91 2.51 13.91 2.15 14.64 4.39 14.64 4.76 13.91"/><polygon class="cls-2" points="6.91 9.72 4.66 9.72 4.29 10.45 6.54 10.45 6.91 9.72"/><polygon class="cls-2" points="9.05 5.53 6.8 5.53 6.43 6.25 8.69 6.25 9.05 5.53"/><polygon class="cls-2" points="14.31 0.58 16.12 2.4 17.04 2.29 15.25 0.49 14.31 0.58"/><polygon class="cls-2" points="11.95 2.88 9 1.23 8.63 1.95 10.83 3.04 11.95 2.88"/></g></g></svg>