<svg xmlns="http://www.w3.org/2000/svg" viewBox="0 0 17.68 18.62"><defs><style>.cls-1{fill:#e69f00;}.cls-2{fill:#999;}.cls-3{fill:#a05f2a;}</style></defs><title>SoilCropAsset 168</title><g id="Layer_2" data-name="Layer 2"><g id="Layer_1-2" data-name="Layer 1"><path class="cls-1" d="M4.55,13.72c.54-.92,3.16-1.62,3.16-1.62s.53,2.81,0,3.73a1.8,1.8,0,0,1-2.56.62A2.05,2.05,0,0,1,4.55,13.72Z"/><path class="cls-1" d="M4.55,8.3c.54-.92,3.16-1.62,3.16-1.62s.53,2.81,0,3.73A1.79,1.79,0,0,1,5.13,11,2,2,0,0,1,4.55,8.3Z"/><path class="cls-1" d="M4.55,2.88C5.09,2,7.71,1.26,7.71,1.26s.53,2.8,0,3.73a1.79,1.79,0,0,1-2.56.61A2,2,0,0,1,4.55,2.88Z"/><path class="cls-1" d="M.46,13.74C-.19,12.89,0,10,0,10s2.67.37,3.31,1.22A2.06,2.06,0,0,1,3.07,14,1.78,1.78,0,0,1,.46,13.74Z"/><path class="cls-1" d="M.46,8.72C-.19,7.87,0,5,0,5s2.67.37,3.31,1.22A2.06,2.06,0,0,1,3.07,9,1.78,1.78,0,0,1,.46,8.72Z"/><path class="cls-1" d="M.51,3.7C-.13,2.85.09,0,.09,0S2.77.38,3.41,1.22A2.07,2.07,0,0,1,3.13,4,1.79,1.79,0,0,1,.51,3.7Z"/><path class="cls-2" d="M3.17,17.75h0a3,3,0,0,1,0-4.22l2.15-2.16a.44.44,0,0,1,.63,0l3.54,3.55a.5.5,0,0,1,0,.7L7.37,17.75A3,3,0,0,1,3.17,17.75Z"/><path class="cls-3" d="M15.56,8.05a1.9,1.9,0,0,1-1.34-.56l-.85-.86a1.89,1.89,0,0,1-.55-1.34A1.93,1.93,0,0,1,13.37,4l.78-.78,3.53,3.54-.78.78A1.89,1.89,0,0,1,15.56,8.05ZM14.15,4.26l-.24.24a1.1,1.1,0,0,0-.32.79,1.13,1.13,0,0,0,.32.8l.86.85a1.13,1.13,0,0,0,1.58,0l.24-.23Z"/><path class="cls-3" d="M6.11,15.56a.78.78,0,0,1-.54-1.32l7.68-7.71a.75.75,0,0,1,1.09,0,.77.77,0,0,1,0,1.09L6.66,15.33A.78.78,0,0,1,6.11,15.56Z"/></g></g></svg>