<svg xmlns="http://www.w3.org/2000/svg" viewBox="0 0 19.01 19.63"><defs><style>.cls-1{fill:#009e73;}</style></defs><title>SoilArbitratorAsset 160</title><g id="Layer_2" data-name="Layer 2"><g id="Layer_1-2" data-name="Layer 1"><path class="cls-1" d="M3.45,12.46A2.76,2.76,0,0,1,.62,9.64H6.28s-.08,2.91-2.83,2.82"/><rect class="cls-1" x="8.2" y="2.45" width="2" height="16.76"/><rect class="cls-1" x="3.87" y="17.63" width="10.66" height="2" rx="1"/><path class="cls-1" d="M16,4.13,2.61,2A1,1,0,0,1,1.75.91h0A1,1,0,0,1,2.94,0L16.28,2.14a1,1,0,0,1,.86,1.07h0A1,1,0,0,1,16,4.13Z"/><path class="cls-1" d="M15.47,15.61a3.47,3.47,0,0,1-3.55-3.54H19s-.1,3.65-3.54,3.54"/><polygon class="cls-1" points="13.71 13.02 12.64 12.57 15.09 3.17 16.16 3.62 13.71 13.02"/><polygon class="cls-1" points="17.22 13.02 14.81 3.62 15.91 3.12 18.29 12.57 17.22 13.02"/><path class="cls-1" d="M3.54,12.82C0,12.82,0,9.28,0,9.28H7.08S7,12.93,3.54,12.82"/><polygon class="cls-1" points="1.78 10.23 0.72 9.78 3.17 0.38 4.23 0.83 1.78 10.23"/><polygon class="cls-1" points="5.3 10.23 2.88 0.83 3.99 0.33 6.37 9.78 5.3 10.23"/></g></g></svg>