<svg xmlns="http://www.w3.org/2000/svg" viewBox="0 0 9.57 19.43"><defs><style>.cls-1{fill:#009e73;}</style></defs><title>SoilTemperatureAsset 159</title><g id="Layer_2" data-name="Layer 2"><g id="Layer_1-2" data-name="Layer 1"><circle class="cls-1" cx="4.78" cy="14.64" r="2.74"/><rect class="cls-1" x="4.52" y="6.71" width="0.52" height="7.11"/><path class="cls-1" d="M4.79,0A2.19,2.19,0,0,0,2.51,2.1v8.76c0,.06,0,.11,0,.16H3.64V2.11a1.1,1.1,0,0,1,1.14-1,1.1,1.1,0,0,1,1.14,1V11H7.05s0-.1,0-.16V2.1A2.19,2.19,0,0,0,4.79,0Z"/><path class="cls-1" d="M5.91,10v1a3.79,3.79,0,1,1-2.27,0V10a4.77,4.77,0,1,0,2.27,0Z"/></g></g></svg>