<svg xmlns="http://www.w3.org/2000/svg" viewBox="0 0 19.99 19.99"><defs><style>.cls-1{fill:#999;}.cls-2{fill:#a05f2a;}</style></defs><title>SoilAsset 164</title><g id="Layer_2" data-name="Layer 2"><g id="Layer_1-2" data-name="Layer 1"><path class="cls-1" d="M.82,11.7h6.5a.64.64,0,0,1,.64.64v3.9A3.86,3.86,0,0,1,4.09,20.1h0A3.86,3.86,0,0,1,.23,16.24v-4a.58.58,0,0,1,.58-.58Z" transform="translate(12.44 1.76) rotate(45)"/><path class="cls-2" d="M17.24,6.31A2.49,2.49,0,0,1,15.5,5.6L14.39,4.49a2.47,2.47,0,0,1,0-3.47l1-1L20,4.58l-1,1A2.49,2.49,0,0,1,17.24,6.31Zm-1.83-4.9-.31.32a1.43,1.43,0,0,0-.42,1,1.45,1.45,0,0,0,.42,1l1.11,1.11a1.49,1.49,0,0,0,2.06,0l.31-.31Z"/><path class="cls-2" d="M5,16a1,1,0,0,1-.71-.3,1,1,0,0,1,0-1.41l10-10a1,1,0,0,1,1.42,0,1,1,0,0,1,0,1.41l-10,10A1,1,0,0,1,5,16Z"/></g></g></svg>