<svg xmlns="http://www.w3.org/2000/svg" viewBox="0 0 20 19.86"><defs><style>.cls-1{fill:#098246;}.cls-2{fill:#009e73;}</style></defs><title>SugarcaneAsset 196</title><g id="Layer_2" data-name="Layer 2"><g id="Layer_1-2" data-name="Layer 1"><path class="cls-1" d="M5.26,12l-.09-.72,0-.36A2.09,2.09,0,0,0,5,10.57l-.17-.69-.26-.65A4.89,4.89,0,0,0,2.92,7.15,4.44,4.44,0,0,0,.5,6.36,7.92,7.92,0,0,1,4,6.54a5.1,5.1,0,0,1,2.17,2l.39.71.3.76c0,.13.11.25.15.39l.1.39.21.8C7.42,12.15,5.28,12.47,5.26,12Z"/><path class="cls-1" d="M5.25,11.84,5,11.26,4.89,11c0-.1-.1-.18-.15-.28l-.31-.54L4,9.67A4.19,4.19,0,0,0,2,8.38a3.1,3.1,0,0,0-2-.17,6.37,6.37,0,0,1,2.91-.67,4.54,4.54,0,0,1,2.5,1.09l.53.49.45.57c.07.09.15.18.22.29l.18.31.37.62C7.35,11.35,5.37,12.26,5.25,11.84Z"/><path class="cls-1" d="M5.25,19.58,5,19l-.12-.29a2.34,2.34,0,0,0-.15-.27l-.31-.55L4,17.41a4.17,4.17,0,0,0-2-1.28A3,3,0,0,0,0,16a6.38,6.38,0,0,1,2.91-.68,4.54,4.54,0,0,1,2.5,1.09l.53.49.45.57.22.29.18.31.37.62C7.35,19.09,5.37,20,5.25,19.58Z"/><path class="cls-1" d="M14.4,19l.28-.64.14-.33a2.28,2.28,0,0,1,.17-.3l.35-.6.42-.54a4.82,4.82,0,0,1,2.17-1.5A3.09,3.09,0,0,1,20,14.82a6,6,0,0,0-3-.58,5.05,5.05,0,0,0-2.63,1.31l-.57.56-.49.63a4,4,0,0,0-.24.33l-.2.34-.41.7C12.26,18.59,14.26,19.48,14.4,19Z"/><path class="cls-1" d="M12.82,9.75c.3-.34.59-.69.9-1s.63-.66,1-1l.51-.45.54-.41A6.2,6.2,0,0,1,17.52,6c.82-.32,1.64,1.24,2.48,1.26-.84.12-1.81-.25-2.53.18s-.42.31-1,.9L16,8.79l-.4.49c-.28.31-.92,1.18-1.17,1.51S12.82,9.75,12.82,9.75Z"/><path class="cls-2" d="M7.06,12.57l-1.65.06c-.18,0-.31-.08-.31-.19S5,10.64,5,10s.36-2.71.36-2.71.15-.2.33-.21L7.32,7c.18,0,.32.07.31.18S7.3,9.26,7.27,9.91s.12,2.45.12,2.45S7.24,12.56,7.06,12.57Z"/><path class="cls-2" d="M5.18,19.84l1.65-.07c.18,0,.32-.11.33-.23s.32-2,.35-2.74-.11-3-.11-3-.13-.21-.31-.2l-1.65.07a.31.31,0,0,0-.33.23s.14,2.27.11,3-.35,2.75-.35,2.75S5,19.85,5.18,19.84Z"/><path class="cls-2" d="M7.35,6.18,5.7,6.25c-.18,0-.32-.09-.31-.21s-.15-2-.12-2.72.36-3,.36-3S5.78.08,6,.07L7.61,0c.17,0,.31.08.31.2s-.34,2.3-.37,3S7.68,6,7.68,6,7.52,6.17,7.35,6.18Z"/><path class="cls-2" d="M14.37,12.57l-1.65.06c-.18,0-.32-.08-.31-.19s-.15-1.8-.12-2.44.36-2.71.36-2.71.15-.2.33-.21L14.63,7c.17,0,.31.07.31.18s-.34,2.06-.37,2.71.13,2.45.13,2.45S14.54,12.56,14.37,12.57Z"/><path class="cls-2" d="M12.48,19.84l1.66-.07c.17,0,.32-.11.32-.23s.32-2,.35-2.74-.11-3-.11-3-.13-.21-.3-.2l-1.66.07c-.17,0-.32.11-.32.23s.14,2.27.11,3-.35,2.75-.35,2.75S12.31,19.85,12.48,19.84Z"/><path class="cls-2" d="M14.66,6.18,13,6.25c-.17,0-.31-.09-.31-.21s-.15-2-.12-2.72.37-3,.37-3,.15-.22.32-.23L14.92,0c.17,0,.31.08.3.2s-.33,2.3-.36,3S15,6,15,6,14.83,6.17,14.66,6.18Z"/><path class="cls-2" d="M9,19.86l1.65-.11a.36.36,0,0,0,.33-.34s.32-3,.35-4-.11-4.4-.11-4.4a.28.28,0,0,0-.31-.3l-1.65.1a.36.36,0,0,0-.33.34S9,14.46,9,15.52s-.35,4-.35,4A.29.29,0,0,0,9,19.86Z"/><path class="cls-2" d="M11.12,9.82l-1.65.11a.29.29,0,0,1-.31-.32S9,6.42,9,5.28,9.4.49,9.4.49A.37.37,0,0,1,9.73.13L11.38,0a.29.29,0,0,1,.31.32S11.36,4,11.33,5.13s.12,4.33.12,4.33A.37.37,0,0,1,11.12,9.82Z"/></g></g></svg>