<svg xmlns="http://www.w3.org/2000/svg" viewBox="0 0 18.19 18.25"><defs><style>.cls-1{fill:#009e73;}.cls-2{fill:none;stroke:#fff;stroke-linecap:round;stroke-miterlimit:10;stroke-width:0.75px;}</style></defs><title>SummaryAsset 157</title><g id="Layer_2" data-name="Layer 2"><g id="Layer_1-2" data-name="Layer 1"><path class="cls-1" d="M14.26,1.7h0V1.54A2.25,2.25,0,0,1,14.89,0H3.72A1.55,1.55,0,0,0,2.15,1.54v0h0V14.43H12.82v.2h1.44Z"/><path class="cls-1" d="M1.57,15.18a1.54,1.54,0,1,0,0,3.07H11a2.21,2.21,0,0,1,0-3.07Z"/><path class="cls-1" d="M12.82,14.64v.53h-.13a1.54,1.54,0,1,0,1.57,1.53.38.38,0,0,0,0-.1h0V15h0v-.39"/><line class="cls-2" x1="4.32" y1="3.51" x2="11.87" y2="3.51"/><line class="cls-2" x1="4.32" y1="5.65" x2="11.87" y2="5.65"/><line class="cls-2" x1="4.32" y1="7.79" x2="11.87" y2="7.79"/><path class="cls-1" d="M15,1.7h3.13c0-.05,0-.11,0-.16a1.58,1.58,0,0,0-3.15,0"/></g></g></svg>