<svg xmlns="http://www.w3.org/2000/svg" viewBox="0 0 17.13 19.92"><defs><style>.cls-1{fill:#bdccd4;}.cls-2{fill:#0072b2;}.cls-3{fill:none;stroke:#fff;stroke-linecap:round;stroke-miterlimit:10;}.cls-4{fill:#56b4e9;}</style></defs><title>InitialWaterAsset 172</title><g id="Layer_2" data-name="Layer 2"><g id="Layer_1-2" data-name="Layer 1"><path class="cls-1" d="M17,5.73c0-1.46-3.79-2.65-8.46-2.65S.11,4.27.11,5.73a.85.85,0,0,0,.08.35L3.27,18.8c2.1,1.49,8.7,1.5,10.78,0L17,6.06A.8.8,0,0,0,17,5.73Z"/><path class="cls-2" d="M1.76,7.79,3.9,17.6c1.84,1.47,7.65,1.48,9.48,0l2.25-9.81A26.41,26.41,0,0,1,1.76,7.79Z"/><line class="cls-3" x1="3.64" y1="9.92" x2="5.19" y2="16.69"/><ellipse class="cls-4" cx="8.57" cy="5.9" rx="7.44" ry="1.89"/><path class="cls-4" d="M2.62,5.69C-1.71,1,.34.7,1.63,1.44,5.51,4.36,6.17,4.18,6.57,3.18c.28-.71,2.21-3.52,3-1.34s1.75.78,2.43.89-.53,1.46.38,1.55,5.4-6.57,4.71-3.44a28.62,28.62,0,0,0-3,5.33"/></g></g></svg>