<svg xmlns="http://www.w3.org/2000/svg" viewBox="0 0 19.28 19.06"><defs><style>.cls-1{fill:#009e73;}</style></defs><title>WeatherAsset 158</title><g id="Layer_2" data-name="Layer 2"><g id="Layer_1-2" data-name="Layer 1"><path class="cls-1" d="M9.53,2.52a21.86,21.86,0,0,0-4.27,8.34c4.07-2.49,8.54,0,8.54,0C12.58,5.08,9.53,2.52,9.53,2.52Z"/><path class="cls-1" d="M8.21,2.52C1.79,2.52,0,10.86,0,10.86a2.8,2.8,0,0,1,3.86,0A19.78,19.78,0,0,1,8.21,2.52Z"/><path class="cls-1" d="M10.86,2.52c6.42,0,8.42,8.34,8.42,8.34a3,3,0,0,0-4.22,0A14.29,14.29,0,0,0,10.86,2.52Z"/><path class="cls-1" d="M9.53,1.61c-.33,0-.59-.17-.59-.37V.38c0-.21.26-.38.59-.38s.59.17.59.38v.86C10.12,1.44,9.85,1.61,9.53,1.61Z"/><path class="cls-1" d="M9,11.24v5.15a1.54,1.54,0,1,1-3.07,0,.58.58,0,0,0-.57-.57.57.57,0,0,0-.57.57,2.68,2.68,0,0,0,5.35,0V11.24Z"/></g></g></svg>