<svg xmlns="http://www.w3.org/2000/svg" viewBox="0 0 19.9 19.86"><defs><style>.cls-1{fill:#e69f00;}.cls-2{fill:none;stroke:#e69f00;stroke-miterlimit:10;}.cls-3{fill:#ecce85;}</style></defs><title>WheatAsset 175</title><g id="Layer_2" data-name="Layer 2"><g id="Layer_1-2" data-name="Layer 1"><path class="cls-1" d="M6.91,13.24c1-.3,3.49,1,3.49,1S8.83,16.6,7.77,16.89A1.84,1.84,0,0,1,5.43,15.6,2,2,0,0,1,6.91,13.24Z"/><path class="cls-1" d="M10.71,9.33c1-.3,3.49,1,3.49,1S12.63,12.69,11.57,13a1.85,1.85,0,0,1-2.34-1.29A2,2,0,0,1,10.71,9.33Z"/><path class="cls-1" d="M14.5,5.42c1.06-.3,3.5,1,3.5,1s-1.57,2.39-2.63,2.68A1.85,1.85,0,0,1,13,7.77,2,2,0,0,1,14.5,5.42Z"/><path class="cls-1" d="M3.85,10.75c.11-1.05,2.28-3,2.28-3s1.73,2.09,1.61,3.14a2.08,2.08,0,0,1-2.15,1.81A1.78,1.78,0,0,1,3.85,10.75Z"/><path class="cls-1" d="M7.36,7.13c.12-1,2.28-2.95,2.28-2.95s1.73,2.08,1.62,3.13A2.09,2.09,0,0,1,9.1,9.12,1.8,1.8,0,0,1,7.36,7.13Z"/><path class="cls-1" d="M10.92,3.55c.12-1,2.28-3,2.28-3s1.73,2.09,1.62,3.14a2.1,2.1,0,0,1-2.16,1.81A1.79,1.79,0,0,1,10.92,3.55Z"/><path class="cls-1" d="M16.17.78C17,.06,19.9,0,19.9,0S19.79,2.67,19,3.39a2.16,2.16,0,0,1-2.86,0A1.72,1.72,0,0,1,16.17.78Z"/><line class="cls-2" x1="16.8" y1="2.79" x2="0.36" y2="19.51"/><path class="cls-3" d="M11.39,3.78a8.47,8.47,0,0,1,1.16-1.92,19.53,19.53,0,0,1,.06,2c0,.46,0,.84-.46.82A.78.78,0,0,1,11.39,3.78Z"/><path class="cls-3" d="M8.18,7.22A8.5,8.5,0,0,1,9.33,5.3s.11,1.51.07,2,0,.84-.47.82A.78.78,0,0,1,8.18,7.22Z"/><path class="cls-3" d="M4.64,11.17A8.7,8.7,0,0,1,5.8,9.25a19.64,19.64,0,0,1,.06,2c-.05.45,0,.84-.46.82A.79.79,0,0,1,4.64,11.17Z"/><path class="cls-3" d="M14.54,8.56a9.15,9.15,0,0,0,2-1.12s-1.56-.11-2-.06-.87,0-.85.45A.78.78,0,0,0,14.54,8.56Z"/><path class="cls-3" d="M11,12.56a9.19,9.19,0,0,0,2-1.11s-1.56-.11-2-.06-.87,0-.85.44A.78.78,0,0,0,11,12.56Z"/><path class="cls-3" d="M7.33,16.4a9,9,0,0,0,2-1.12s-1.55-.11-2-.06-.87,0-.85.45A.78.78,0,0,0,7.33,16.4Z"/><path class="cls-3" d="M18.15,3.41a8.89,8.89,0,0,0,1.22-1.89s-1.43.61-1.82.86-.78.39-.54.78A.81.81,0,0,0,18.15,3.41Z"/></g></g></svg>