<svg xmlns="http://www.w3.org/2000/svg" viewBox="0 0 19.62 19.84"><defs><style>.cls-1{fill:none;stroke:#999;stroke-linecap:round;stroke-miterlimit:10;stroke-width:0.75px;}.cls-2{fill:#999;}.cls-3{fill:#ccc;}.cls-4{fill:#f2f2f2;}.cls-5{fill:#e6e6e6;}</style></defs><title>WhiteCloverAsset 189</title><g id="Layer_2" data-name="Layer 2"><g id="Layer_1-2" data-name="Layer 1"><path class="cls-1" d="M11.38,8.3C9.38,20,.38,19.46.38,19.46"/><path class="cls-2" d="M11.42,8.08C9,7.86,7.48,6.85,5.57,7.31S2.91,8.94,3.19,10.09a2,2,0,0,0,2,1.49,2,2,0,0,0,.24,2.49c.83.83,2.24.77,3.63-.62S10.25,10.32,11.42,8.08Z"/><path class="cls-2" d="M11.33,8.25c2.45.21,3.95,1.23,5.85.76s2.67-1.63,2.39-2.77a2,2,0,0,0-2-1.49,2,2,0,0,0-.23-2.5c-.84-.83-2.25-.76-3.64.62S12.5,6,11.33,8.25Z"/><path class="cls-3" d="M12.19,7.66c1.74.15,2.8.87,4.15.54S18.23,7,18,6.23a1.44,1.44,0,0,0-1.42-1.05,1.44,1.44,0,0,0-.17-1.77c-.59-.59-1.59-.54-2.57.44S13,6.07,12.19,7.66Z"/><path class="cls-4" d="M13,7.12c-.36,1.25,2.81-2.19,2.81-2.19a.88.88,0,0,0,0-1.2,1.06,1.06,0,0,0-1.4.08A9.18,9.18,0,0,0,13,7.12Z"/><path class="cls-3" d="M10.67,8.67c-1.74-.16-2.8-.87-4.15-.54s-1.89,1.15-1.69,2a1.44,1.44,0,0,0,1.42,1.06,1.44,1.44,0,0,0,.17,1.77C7,13.51,8,13.46,9,12.48S9.84,10.26,10.67,8.67Z"/><path class="cls-2" d="M11.58,8.1c-.22,2.45-1.23,4-.76,5.85s1.63,2.67,2.77,2.39a2,2,0,0,0,1.49-2,2,2,0,0,0,2.49-.23c.84-.84.77-2.25-.62-3.64S13.82,9.27,11.58,8.1Z"/><path class="cls-2" d="M11.52,8.29c.21-2.44,1.23-3.94.76-5.85S10.65-.22,9.51.06A2,2,0,0,0,8,2.06a2,2,0,0,0-2.5.24c-.83.83-.76,2.24.63,3.63S9.27,7.12,11.52,8.29Z"/><path class="cls-3" d="M11,7.43c.15-1.73.87-2.8.54-4.15s-1.16-1.89-2-1.69A1.45,1.45,0,0,0,8.55,3a1.43,1.43,0,0,0-1.76.17c-.59.59-.55,1.59.44,2.58S9.45,6.6,11,7.43Z"/><path class="cls-5" d="M11.06,3.66c-.27-1.12-.8-1.6-1.47-1.44A1.21,1.21,0,0,0,8.71,3.4a1.22,1.22,0,0,0-1.47.14c-.49.49-.3,1,.49,1.88C8.84,6.63,11.52,5.66,11.06,3.66Z"/><path class="cls-3" d="M12,9c-.16,1.74-.87,2.8-.54,4.15s1.15,1.89,2,1.69a1.44,1.44,0,0,0,1.06-1.42,1.44,1.44,0,0,0,1.77-.17c.59-.59.54-1.59-.44-2.57S13.57,9.79,12,9Z"/><path class="cls-4" d="M9.55,9c1.79.27-2.71,1.5-2.71,1.5A1,1,0,0,1,5.6,10c-.2-.32-.08-.76.46-1.09A6.46,6.46,0,0,1,9.55,9Z"/><path class="cls-4" d="M12.22,9.69a.1.1,0,0,1,.13-.08,13.46,13.46,0,0,1,1.84.59c1.69.73-1.1,3.3-2.19,2A7.43,7.43,0,0,1,12.22,9.69Z"/></g></g></svg>