<?xml version="1.0" encoding="UTF-8"?>
<svg xmlns="http://www.w3.org/2000/svg" xmlns:xlink="http://www.w3.org/1999/xlink" width="20px" height="20px" viewBox="0 0 20 20" version="1.1">
<defs>
<clipPath id="clip1">
  <path d="M 3.972656 1.394531 L 16.121094 1.394531 L 16.121094 19.234375 L 3.972656 19.234375 Z M 3.972656 1.394531 "/>
</clipPath>
</defs>
<g id="surface1">
<path style=" stroke:none;fill-rule:nonzero;fill:rgb(100%,97.254902%,77.254902%);fill-opacity:1;" d="M 1.519531 0.355469 L 18.5 0.355469 C 19.140625 0.355469 19.65625 0.875 19.65625 1.515625 L 19.65625 18.441406 C 19.65625 19.082031 19.140625 19.601562 18.5 19.601562 L 1.519531 19.601562 C 0.882812 19.601562 0.363281 19.082031 0.363281 18.441406 L 0.363281 1.515625 C 0.363281 0.875 0.882812 0.355469 1.519531 0.355469 Z M 1.519531 0.355469 "/>
<path style=" stroke:none;fill-rule:nonzero;fill:rgb(60%,40%,20%);fill-opacity:1;" d="M 18.5 0.714844 C 18.941406 0.714844 19.300781 1.074219 19.300781 1.515625 L 19.300781 18.441406 C 19.300781 18.65625 19.21875 18.863281 19.066406 19.011719 C 18.917969 19.164062 18.714844 19.25 18.5 19.25 L 1.519531 19.25 C 1.082031 19.246094 0.722656 18.890625 0.722656 18.449219 L 0.722656 1.515625 C 0.722656 1.074219 1.082031 0.714844 1.519531 0.714844 L 18.5 0.714844 M 18.5 0 L 1.519531 0 C 0.683594 0 0.0078125 0.679688 0.0078125 1.515625 L 0.0078125 18.441406 C 0.00390625 18.847656 0.164062 19.234375 0.449219 19.519531 C 0.730469 19.804688 1.117188 19.964844 1.519531 19.964844 L 18.5 19.964844 C 19.335938 19.964844 20.015625 19.285156 20.015625 18.449219 L 20.015625 1.515625 C 20.015625 0.679688 19.335938 0 18.5 0 Z M 18.5 0 "/>
<path style=" stroke:none;fill-rule:nonzero;fill:rgb(60%,40%,20%);fill-opacity:1;" d="M 9.984375 4.65625 C 9.738281 4.65625 9.539062 4.855469 9.539062 5.105469 L 9.539062 6.394531 C 9.558594 6.621094 9.753906 6.800781 9.984375 6.800781 C 10.214844 6.800781 10.40625 6.621094 10.429688 6.394531 L 10.429688 5.105469 C 10.429688 4.859375 10.230469 4.660156 9.984375 4.65625 Z M 9.984375 4.65625 "/>
<path style=" stroke:none;fill-rule:nonzero;fill:rgb(60%,40%,20%);fill-opacity:1;" d="M 7.085938 10.953125 C 6.914062 10.78125 6.628906 10.78125 6.457031 10.953125 C 6.285156 11.128906 6.285156 11.410156 6.457031 11.582031 L 7.378906 12.503906 C 7.550781 12.675781 7.832031 12.675781 8.007812 12.503906 C 8.179688 12.328125 8.179688 12.046875 8.007812 11.875 Z M 7.085938 10.953125 "/>
<g clip-path="url(#clip1)" clip-rule="nonzero">
<path style=" stroke:none;fill-rule:nonzero;fill:rgb(60%,40%,20%);fill-opacity:1;" d="M 16.058594 8.894531 C 16.023438 8.710938 15.882812 8.570312 15.699219 8.535156 C 13.628906 8.230469 11.570312 9.167969 10.441406 10.929688 L 10.441406 9.882812 C 11.710938 8.84375 12.429688 7.277344 12.394531 5.640625 C 12.359375 4.003906 11.574219 2.46875 10.265625 1.484375 C 10.105469 1.367188 9.890625 1.367188 9.730469 1.484375 C 8.421875 2.46875 7.636719 4.003906 7.601562 5.640625 C 7.566406 7.277344 8.285156 8.84375 9.554688 9.882812 L 9.554688 10.78125 C 8.40625 9.113281 6.40625 8.242188 4.402344 8.535156 C 4.214844 8.5625 4.0625 8.703125 4.023438 8.894531 C 3.804688 10.464844 4.292969 12.054688 5.363281 13.226562 C 6.429688 14.402344 7.96875 15.039062 9.554688 14.964844 L 9.554688 18.71875 C 9.539062 18.886719 9.621094 19.046875 9.761719 19.136719 C 9.90625 19.226562 10.089844 19.226562 10.234375 19.136719 C 10.375 19.046875 10.457031 18.886719 10.441406 18.71875 L 10.441406 14.964844 C 12.042969 15.066406 13.605469 14.441406 14.691406 13.261719 C 15.78125 12.085938 16.28125 10.480469 16.058594 8.894531 Z M 9.554688 14.09375 C 8.285156 14.164062 7.042969 13.6875 6.148438 12.785156 C 5.253906 11.878906 4.789062 10.636719 4.871094 9.367188 C 7.171875 9.222656 9.203125 10.855469 9.554688 13.132812 Z M 10 9.09375 C 9.039062 8.25 8.488281 7.03125 8.488281 5.753906 C 8.488281 4.476562 9.039062 3.257812 10 2.414062 C 10.957031 3.257812 11.507812 4.476562 11.507812 5.753906 C 11.507812 7.03125 10.957031 8.246094 10 9.09375 Z M 10.5 14.09375 C 10.417969 12.816406 10.886719 11.566406 11.792969 10.660156 C 12.699219 9.757812 13.949219 9.285156 15.226562 9.367188 C 15.308594 10.644531 14.835938 11.894531 13.929688 12.796875 C 13.027344 13.703125 11.777344 14.175781 10.5 14.09375 Z M 10.5 14.09375 "/>
</g>
<path style=" stroke:none;fill-rule:nonzero;fill:rgb(60%,40%,20%);fill-opacity:1;" d="M 13.007812 10.953125 L 12.085938 11.875 C 11.914062 12.046875 11.914062 12.328125 12.085938 12.503906 C 12.257812 12.675781 12.539062 12.675781 12.714844 12.503906 L 13.636719 11.582031 C 13.808594 11.410156 13.808594 11.128906 13.636719 10.953125 C 13.460938 10.78125 13.179688 10.78125 13.007812 10.953125 Z M 13.007812 10.953125 "/>
</g>
</svg>
