<?xml version="1.0" encoding="UTF-8"?>
<svg xmlns="http://www.w3.org/2000/svg" xmlns:xlink="http://www.w3.org/1999/xlink" width="20px" height="20px" viewBox="0 0 20 20" version="1.1">
<g id="surface1">
<path style=" stroke:none;fill-rule:nonzero;fill:rgb(100%,97.254902%,77.254902%);fill-opacity:1;" d="M 1.519531 0.355469 L 18.5 0.355469 C 19.140625 0.355469 19.65625 0.875 19.65625 1.515625 L 19.65625 18.441406 C 19.65625 19.082031 19.140625 19.601562 18.5 19.601562 L 1.519531 19.601562 C 0.882812 19.601562 0.363281 19.082031 0.363281 18.441406 L 0.363281 1.515625 C 0.363281 0.875 0.882812 0.355469 1.519531 0.355469 Z M 1.519531 0.355469 "/>
<path style=" stroke:none;fill-rule:nonzero;fill:rgb(60%,40%,20%);fill-opacity:1;" d="M 18.5 0.714844 C 18.941406 0.714844 19.300781 1.074219 19.300781 1.515625 L 19.300781 18.441406 C 19.300781 18.65625 19.21875 18.863281 19.066406 19.011719 C 18.917969 19.164062 18.714844 19.25 18.5 19.25 L 1.519531 19.25 C 1.082031 19.246094 0.722656 18.890625 0.722656 18.449219 L 0.722656 1.515625 C 0.722656 1.074219 1.082031 0.714844 1.519531 0.714844 L 18.5 0.714844 M 18.5 0 L 1.519531 0 C 0.683594 0 0.0078125 0.679688 0.0078125 1.515625 L 0.0078125 18.441406 C 0.00390625 18.847656 0.164062 19.234375 0.449219 19.519531 C 0.730469 19.804688 1.117188 19.964844 1.519531 19.964844 L 18.5 19.964844 C 19.335938 19.964844 20.015625 19.285156 20.015625 18.449219 L 20.015625 1.515625 C 20.015625 0.679688 19.335938 0 18.5 0 Z M 18.5 0 "/>
<path style=" stroke:none;fill-rule:nonzero;fill:rgb(60%,40%,20%);fill-opacity:1;" d="M 7.578125 17.496094 L 9.511719 15.566406 L 7.578125 13.636719 Z M 7.578125 17.496094 "/>
<path style=" stroke:none;fill-rule:nonzero;fill:rgb(60%,40%,20%);fill-opacity:1;" d="M 8.261719 18.179688 L 12.121094 18.179688 L 10.191406 16.246094 Z M 8.261719 18.179688 "/>
<path style=" stroke:none;fill-rule:nonzero;fill:rgb(60%,40%,20%);fill-opacity:1;" d="M 12.121094 12.953125 L 8.261719 12.953125 L 10.191406 14.886719 Z M 12.121094 12.953125 "/>
<path style=" stroke:none;fill-rule:nonzero;fill:rgb(60%,40%,20%);fill-opacity:1;" d="M 12.804688 17.496094 L 12.804688 13.636719 L 10.871094 15.566406 Z M 12.804688 17.496094 "/>
<path style=" stroke:none;fill-rule:nonzero;fill:rgb(60%,40%,20%);fill-opacity:1;" d="M 18.367188 9.777344 L 16.105469 4.3125 C 16.054688 4.191406 15.960938 4.097656 15.84375 4.050781 L 10.375 1.785156 C 10.261719 1.742188 10.132812 1.742188 10.019531 1.785156 L 4.539062 4.050781 C 4.421875 4.097656 4.328125 4.191406 4.277344 4.3125 L 2.011719 9.777344 C 1.949219 9.925781 1.96875 10.097656 2.058594 10.230469 C 2.148438 10.363281 2.296875 10.445312 2.457031 10.445312 L 3.527344 10.445312 L 3.527344 17.695312 C 3.527344 17.960938 3.738281 18.175781 4.003906 18.179688 L 6.613281 18.179688 L 6.613281 12.464844 C 6.613281 12.199219 6.832031 11.980469 7.097656 11.980469 L 13.28125 11.980469 C 13.410156 11.980469 13.535156 12.03125 13.625 12.121094 C 13.714844 12.214844 13.765625 12.335938 13.765625 12.464844 L 13.765625 18.179688 L 16.375 18.179688 C 16.503906 18.179688 16.625 18.128906 16.71875 18.039062 C 16.808594 17.949219 16.859375 17.824219 16.855469 17.695312 L 16.855469 10.445312 L 17.929688 10.445312 C 18.089844 10.445312 18.238281 10.363281 18.328125 10.230469 C 18.417969 10.097656 18.433594 9.925781 18.375 9.777344 Z M 12.21875 8.417969 C 12.214844 8.679688 12 8.894531 11.734375 8.894531 L 8.644531 8.894531 C 8.378906 8.890625 8.164062 8.675781 8.160156 8.410156 L 8.160156 5.320312 C 8.160156 5.054688 8.375 4.839844 8.644531 4.839844 L 11.734375 4.839844 C 11.863281 4.839844 11.988281 4.890625 12.078125 4.980469 C 12.167969 5.070312 12.21875 5.191406 12.21875 5.320312 Z M 12.21875 8.417969 "/>
<path style=" stroke:none;fill-rule:nonzero;fill:rgb(60%,40%,20%);fill-opacity:1;" d="M 9.125 5.808594 L 11.257812 5.808594 L 11.257812 7.9375 L 9.125 7.9375 Z M 9.125 5.808594 "/>
</g>
</svg>
