<?xml version="1.0" encoding="UTF-8"?>
<svg xmlns="http://www.w3.org/2000/svg" xmlns:xlink="http://www.w3.org/1999/xlink" width="20px" height="20px" viewBox="0 0 20 20" version="1.1">
<g id="surface1">
<path style=" stroke:none;fill-rule:nonzero;fill:rgb(60%,40%,20%);fill-opacity:1;" d="M 7.355469 8.597656 C 6.6875 8.269531 5.980469 8.019531 5.285156 7.753906 C 4.882812 7.617188 4.5 7.421875 4.144531 7.183594 C 3.472656 6.699219 3.601562 5.914062 4.394531 5.605469 C 4.617188 5.523438 4.851562 5.476562 5.089844 5.472656 C 5.984375 5.421875 6.878906 5.582031 7.703125 5.9375 C 8.117188 6.117188 8.253906 6.0625 8.394531 5.675781 C 8.53125 5.289062 8.664062 4.851562 8.800781 4.4375 C 8.890625 4.160156 8.777344 3.980469 8.488281 3.863281 C 7.957031 3.652344 7.402344 3.503906 6.835938 3.421875 C 6.089844 3.316406 6.089844 3.3125 6.085938 2.636719 C 6.085938 1.6875 6.085938 1.6875 5.015625 1.6875 C 4.859375 1.6875 4.707031 1.6875 4.554688 1.6875 C 4.058594 1.6875 3.972656 1.773438 3.957031 2.226562 C 3.957031 2.425781 3.957031 2.628906 3.957031 2.832031 C 3.957031 3.429688 3.957031 3.421875 3.3125 3.628906 C 1.773438 4.132812 0.8125 5.074219 0.726562 6.582031 C 0.632812 7.917969 1.414062 8.820312 2.628906 9.480469 C 3.402344 9.84375 4.199219 10.164062 5.011719 10.4375 C 5.320312 10.550781 5.613281 10.707031 5.878906 10.898438 C 6.644531 11.46875 6.503906 12.414062 5.597656 12.769531 C 5.109375 12.957031 4.585938 13.019531 4.066406 12.949219 C 3.261719 12.871094 2.476562 12.660156 1.738281 12.324219 C 1.308594 12.125 1.183594 12.179688 1.023438 12.597656 C 0.894531 12.953125 0.785156 13.3125 0.667969 13.6875 C 0.519531 14.179688 0.570312 14.292969 1.09375 14.523438 C 1.769531 14.800781 2.476562 14.980469 3.199219 15.0625 C 3.765625 15.144531 3.78125 15.167969 3.789062 15.695312 C 3.789062 15.9375 3.789062 16.179688 3.789062 16.410156 C 3.789062 16.714844 3.953125 16.890625 4.300781 16.894531 C 4.644531 16.902344 5.089844 16.894531 5.480469 16.894531 C 5.800781 16.894531 5.964844 16.730469 5.964844 16.4375 C 5.964844 16.144531 5.980469 15.785156 5.964844 15.457031 C 5.945312 15.128906 6.109375 14.953125 6.464844 14.867188 C 7.265625 14.691406 7.996094 14.277344 8.558594 13.679688 C 10.054688 12.042969 9.484375 9.648438 7.363281 8.597656 Z M 7.355469 8.597656 "/>
<path style=" stroke:none;fill-rule:nonzero;fill:rgb(60%,40%,20%);fill-opacity:1;" d="M 12.191406 6.636719 L 17.652344 6.636719 C 19.925781 6.636719 19.929688 3.105469 17.652344 3.105469 L 12.191406 3.105469 C 9.921875 3.105469 9.917969 6.636719 12.191406 6.636719 Z M 12.191406 6.636719 "/>
<path style=" stroke:none;fill-rule:nonzero;fill:rgb(60%,40%,20%);fill-opacity:1;" d="M 12.191406 11.980469 L 17.652344 11.980469 C 19.925781 11.980469 19.929688 8.449219 17.652344 8.449219 L 12.191406 8.449219 C 9.921875 8.449219 9.917969 11.980469 12.191406 11.980469 Z M 12.191406 11.980469 "/>
<path style=" stroke:none;fill-rule:nonzero;fill:rgb(60%,40%,20%);fill-opacity:1;" d="M 12.191406 17.105469 L 17.652344 17.105469 C 19.925781 17.105469 19.929688 13.578125 17.652344 13.578125 L 12.191406 13.578125 C 9.921875 13.578125 9.917969 17.105469 12.191406 17.105469 Z M 12.191406 17.105469 "/>
</g>
</svg>
