<?xml version="1.0" encoding="UTF-8"?>
<svg xmlns="http://www.w3.org/2000/svg" xmlns:xlink="http://www.w3.org/1999/xlink" width="20px" height="20px" viewBox="0 0 20 20" version="1.1">
<g id="surface1">
<path style=" stroke:none;fill-rule:nonzero;fill:rgb(60%,40%,20%);fill-opacity:1;" d="M 1.515625 0.351562 L 18.492188 0.351562 C 19.132812 0.351562 19.648438 0.859375 19.648438 1.488281 L 19.648438 18.367188 C 19.648438 18.996094 19.132812 19.503906 18.492188 19.503906 L 1.515625 19.503906 C 0.875 19.503906 0.355469 18.996094 0.355469 18.367188 L 0.355469 1.488281 C 0.355469 0.859375 0.875 0.351562 1.515625 0.351562 Z M 1.515625 0.351562 "/>
<path style=" stroke:none;fill-rule:nonzero;fill:rgb(60%,40%,20%);fill-opacity:1;" d="M 18.492188 0.703125 C 18.933594 0.703125 19.292969 1.054688 19.292969 1.488281 L 19.292969 18.367188 C 19.292969 18.800781 18.933594 19.15625 18.492188 19.15625 L 1.515625 19.15625 C 1.074219 19.152344 0.714844 18.800781 0.714844 18.367188 L 0.714844 1.488281 C 0.714844 1.054688 1.074219 0.703125 1.515625 0.703125 L 18.492188 0.703125 M 18.492188 0 L 1.515625 0 C 0.679688 0 0 0.667969 0 1.488281 L 0 18.367188 C 0 19.191406 0.679688 19.855469 1.515625 19.855469 L 18.492188 19.855469 C 19.328125 19.855469 20.007812 19.191406 20.007812 18.367188 L 20.007812 1.488281 C 20.007812 0.667969 19.328125 0 18.492188 0 Z M 18.492188 0 "/>
<path style=" stroke:none;fill-rule:nonzero;fill:rgb(100%,97.254902%,77.254902%);fill-opacity:1;" d="M 11.019531 1.652344 L 17.832031 1.652344 L 17.832031 8.347656 L 11.019531 8.347656 Z M 11.019531 1.652344 "/>
<path style=" stroke:none;fill-rule:nonzero;fill:rgb(100%,97.254902%,77.254902%);fill-opacity:1;" d="M 1.210938 6.289062 L 8.023438 6.289062 L 8.023438 12.984375 L 1.210938 12.984375 Z M 1.210938 6.289062 "/>
<path style=" stroke:none;fill-rule:nonzero;fill:rgb(100%,97.254902%,77.254902%);fill-opacity:1;" d="M 11.007812 11.238281 L 17.820312 11.238281 L 17.820312 17.933594 L 11.007812 17.933594 Z M 11.007812 11.238281 "/>
<path style=" stroke:none;fill-rule:nonzero;fill:rgb(60%,40%,20%);fill-opacity:1;" d="M 14.511719 14.660156 L 16.382812 14.660156 L 16.382812 16.5 L 14.511719 16.5 Z M 14.511719 14.660156 "/>
<path style=" stroke:none;fill-rule:nonzero;fill:rgb(60%,40%,20%);fill-opacity:1;" d="M 12.015625 3.035156 L 13.886719 3.035156 L 13.886719 4.875 L 12.015625 4.875 Z M 12.015625 3.035156 "/>
<path style=" stroke:none;fill-rule:nonzero;fill:rgb(60%,40%,20%);fill-opacity:1;" d="M 3.683594 8.441406 L 5.554688 8.441406 L 5.554688 10.28125 L 3.683594 10.28125 Z M 3.683594 8.441406 "/>
</g>
</svg>
