<?xml version="1.0" encoding="UTF-8"?>
<svg xmlns="http://www.w3.org/2000/svg" xmlns:xlink="http://www.w3.org/1999/xlink" width="20px" height="20px" viewBox="0 0 20 20" version="1.1">
<g id="surface1">
<path style=" stroke:none;fill-rule:nonzero;fill:rgb(100%,97.254902%,77.254902%);fill-opacity:1;" d="M 1.519531 0.355469 L 18.5 0.355469 C 19.140625 0.355469 19.65625 0.875 19.65625 1.515625 L 19.65625 18.441406 C 19.65625 19.082031 19.140625 19.601562 18.5 19.601562 L 1.519531 19.601562 C 0.882812 19.601562 0.363281 19.082031 0.363281 18.441406 L 0.363281 1.515625 C 0.363281 0.875 0.882812 0.355469 1.519531 0.355469 Z M 1.519531 0.355469 "/>
<path style=" stroke:none;fill-rule:nonzero;fill:rgb(60%,40%,20%);fill-opacity:1;" d="M 18.5 0.714844 C 18.941406 0.714844 19.300781 1.074219 19.300781 1.515625 L 19.300781 18.441406 C 19.300781 18.65625 19.21875 18.863281 19.066406 19.011719 C 18.917969 19.164062 18.714844 19.25 18.5 19.25 L 1.519531 19.25 C 1.082031 19.246094 0.722656 18.890625 0.722656 18.449219 L 0.722656 1.515625 C 0.722656 1.074219 1.082031 0.714844 1.519531 0.714844 L 18.5 0.714844 M 18.5 0 L 1.519531 0 C 0.683594 0 0.0078125 0.679688 0.0078125 1.515625 L 0.0078125 18.441406 C 0.00390625 18.847656 0.164062 19.234375 0.449219 19.519531 C 0.730469 19.804688 1.117188 19.964844 1.519531 19.964844 L 18.5 19.964844 C 19.335938 19.964844 20.015625 19.285156 20.015625 18.449219 L 20.015625 1.515625 C 20.015625 0.679688 19.335938 0 18.5 0 Z M 18.5 0 "/>
<path style=" stroke:none;fill-rule:nonzero;fill:rgb(60%,40%,20%);fill-opacity:1;" d="M 2.914062 7.65625 C 3 7.953125 3.117188 8.238281 3.269531 8.503906 L 2.84375 9.046875 C 2.703125 9.222656 2.71875 9.476562 2.878906 9.636719 L 3.617188 10.375 C 3.777344 10.535156 4.03125 10.550781 4.207031 10.40625 L 4.746094 9.980469 C 5.023438 10.136719 5.320312 10.257812 5.625 10.339844 L 5.699219 11.035156 C 5.726562 11.261719 5.917969 11.429688 6.144531 11.429688 L 7.1875 11.429688 C 7.414062 11.429688 7.605469 11.261719 7.628906 11.035156 L 7.707031 10.367188 C 8.035156 10.28125 8.355469 10.152344 8.648438 9.984375 L 9.167969 10.398438 C 9.34375 10.539062 9.597656 10.523438 9.757812 10.363281 L 10.5 9.625 C 10.65625 9.464844 10.671875 9.210938 10.53125 9.035156 L 10.128906 8.535156 C 10.296875 8.246094 10.425781 7.933594 10.515625 7.609375 L 11.140625 7.539062 C 11.359375 7.511719 11.527344 7.328125 11.53125 7.105469 L 11.53125 6.035156 C 11.535156 5.808594 11.363281 5.621094 11.140625 5.597656 L 10.523438 5.523438 C 10.441406 5.203125 10.3125 4.894531 10.148438 4.605469 L 10.527344 4.128906 C 10.671875 3.953125 10.65625 3.695312 10.496094 3.535156 L 9.757812 2.820312 C 9.597656 2.660156 9.34375 2.644531 9.167969 2.785156 L 8.703125 3.144531 C 8.402344 2.96875 8.078125 2.832031 7.742188 2.738281 L 7.671875 2.140625 C 7.644531 1.917969 7.457031 1.75 7.230469 1.75 L 6.183594 1.75 C 5.957031 1.753906 5.769531 1.921875 5.742188 2.144531 L 5.675781 2.742188 C 5.328125 2.84375 4.996094 2.988281 4.6875 3.179688 L 4.203125 2.777344 C 4.027344 2.640625 3.773438 2.652344 3.613281 2.8125 L 2.875 3.554688 C 2.714844 3.714844 2.703125 3.96875 2.84375 4.144531 L 3.246094 4.652344 C 3.089844 4.945312 2.96875 5.257812 2.890625 5.578125 L 2.242188 5.648438 C 2.019531 5.679688 1.851562 5.867188 1.851562 6.09375 L 1.851562 7.140625 C 1.851562 7.363281 2.019531 7.554688 2.242188 7.578125 Z M 6.707031 4.824219 C 7.410156 4.820312 8.042969 5.238281 8.316406 5.886719 C 8.585938 6.535156 8.441406 7.28125 7.945312 7.777344 C 7.453125 8.277344 6.707031 8.425781 6.058594 8.160156 C 5.410156 7.890625 4.984375 7.257812 4.984375 6.558594 C 4.988281 5.601562 5.761719 4.828125 6.714844 4.824219 Z M 6.707031 4.824219 "/>
<path style=" stroke:none;fill-rule:nonzero;fill:rgb(60%,40%,20%);fill-opacity:1;" d="M 17.0625 7.914062 L 16.507812 7.464844 C 16.34375 7.3125 16.089844 7.3125 15.925781 7.464844 L 15.621094 7.75 C 15.363281 7.625 15.089844 7.539062 14.808594 7.484375 L 14.722656 7.066406 C 14.679688 6.847656 14.476562 6.695312 14.253906 6.710938 L 13.539062 6.773438 C 13.316406 6.792969 13.144531 6.972656 13.140625 7.195312 L 13.140625 7.625 C 12.863281 7.722656 12.601562 7.859375 12.359375 8.03125 L 12.003906 7.789062 C 11.816406 7.667969 11.570312 7.703125 11.429688 7.875 L 10.960938 8.429688 C 10.8125 8.59375 10.8125 8.84375 10.960938 9.011719 L 11.28125 9.367188 C 11.171875 9.617188 11.089844 9.878906 11.046875 10.144531 L 10.589844 10.238281 C 10.367188 10.277344 10.214844 10.480469 10.230469 10.703125 L 10.292969 11.417969 C 10.3125 11.632812 10.484375 11.800781 10.699219 11.816406 L 11.191406 11.816406 C 11.285156 12.054688 11.40625 12.277344 11.550781 12.484375 L 11.273438 12.898438 C 11.15625 13.085938 11.191406 13.332031 11.355469 13.480469 L 11.910156 13.941406 C 12.074219 14.09375 12.328125 14.09375 12.492188 13.941406 L 12.851562 13.585938 C 13.085938 13.695312 13.335938 13.777344 13.59375 13.828125 L 13.691406 14.320312 C 13.738281 14.539062 13.9375 14.695312 14.160156 14.679688 L 14.875 14.613281 C 15.097656 14.597656 15.269531 14.414062 15.277344 14.191406 L 15.277344 13.707031 C 15.554688 13.621094 15.816406 13.5 16.058594 13.347656 L 16.457031 13.609375 C 16.636719 13.726562 16.875 13.695312 17.019531 13.535156 L 17.484375 12.976562 C 17.632812 12.808594 17.632812 12.558594 17.484375 12.394531 L 17.167969 12.054688 C 17.28125 11.804688 17.367188 11.542969 17.417969 11.269531 L 17.84375 11.183594 C 18.0625 11.140625 18.21875 10.9375 18.199219 10.714844 L 18.140625 10 C 18.117188 9.777344 17.929688 9.609375 17.707031 9.605469 L 17.265625 9.605469 C 17.179688 9.355469 17.058594 9.113281 16.90625 8.894531 L 17.144531 8.535156 C 17.273438 8.351562 17.238281 8.101562 17.066406 7.957031 Z M 14.34375 12.082031 C 13.765625 12.136719 13.214844 11.835938 12.945312 11.320312 C 12.675781 10.804688 12.746094 10.179688 13.121094 9.738281 C 13.492188 9.296875 14.097656 9.121094 14.648438 9.300781 C 15.203125 9.476562 15.589844 9.972656 15.636719 10.550781 C 15.695312 11.328125 15.121094 12.011719 14.34375 12.082031 Z M 14.34375 12.082031 "/>
<path style=" stroke:none;fill-rule:nonzero;fill:rgb(60%,40%,20%);fill-opacity:1;" d="M 5.4375 14.019531 C 5.214844 14.046875 5.046875 14.230469 5.042969 14.453125 L 5.042969 14.894531 C 5.039062 15.121094 5.203125 15.308594 5.425781 15.339844 L 5.75 15.382812 C 5.804688 15.578125 5.882812 15.769531 5.980469 15.945312 L 5.769531 16.207031 C 5.632812 16.378906 5.640625 16.628906 5.796875 16.789062 L 6.105469 17.105469 C 6.261719 17.265625 6.511719 17.28125 6.6875 17.144531 L 6.953125 16.945312 C 7.136719 17.054688 7.332031 17.140625 7.535156 17.199219 L 7.566406 17.535156 C 7.589844 17.757812 7.777344 17.925781 8 17.929688 L 8.445312 17.929688 C 8.667969 17.929688 8.855469 17.765625 8.886719 17.546875 L 8.925781 17.226562 C 9.144531 17.171875 9.359375 17.089844 9.558594 16.980469 L 9.804688 17.179688 C 9.976562 17.316406 10.226562 17.304688 10.386719 17.152344 L 10.703125 16.84375 C 10.859375 16.6875 10.878906 16.4375 10.742188 16.261719 L 10.550781 16.035156 C 10.667969 15.84375 10.757812 15.636719 10.816406 15.421875 L 11.109375 15.394531 C 11.332031 15.371094 11.5 15.1875 11.503906 14.964844 L 11.503906 14.503906 C 11.507812 14.28125 11.34375 14.089844 11.121094 14.0625 L 10.835938 14.023438 C 10.78125 13.8125 10.703125 13.605469 10.597656 13.414062 L 10.773438 13.195312 C 10.914062 13.023438 10.902344 12.773438 10.746094 12.613281 L 10.4375 12.296875 C 10.28125 12.136719 10.03125 12.117188 9.855469 12.253906 L 9.644531 12.417969 C 9.441406 12.296875 9.226562 12.203125 9.003906 12.140625 L 8.976562 11.863281 C 8.953125 11.644531 8.769531 11.472656 8.546875 11.472656 L 8.105469 11.472656 C 7.882812 11.46875 7.691406 11.632812 7.664062 11.855469 L 7.628906 12.128906 C 7.398438 12.1875 7.175781 12.277344 6.96875 12.394531 L 6.75 12.21875 C 6.578125 12.078125 6.328125 12.089844 6.167969 12.242188 L 5.847656 12.558594 C 5.6875 12.714844 5.671875 12.964844 5.808594 13.140625 L 5.992188 13.382812 C 5.882812 13.574219 5.800781 13.78125 5.742188 13.996094 Z M 8.292969 13.519531 C 8.929688 13.527344 9.441406 14.050781 9.4375 14.6875 C 9.429688 15.324219 8.90625 15.835938 8.269531 15.828125 C 7.632812 15.820312 7.121094 15.296875 7.128906 14.660156 C 7.144531 14.027344 7.667969 13.527344 8.300781 13.535156 Z M 8.292969 13.519531 "/>
</g>
</svg>
