<?xml version="1.0" encoding="UTF-8"?>
<svg xmlns="http://www.w3.org/2000/svg" xmlns:xlink="http://www.w3.org/1999/xlink" width="20px" height="20px" viewBox="0 0 20 20" version="1.1">
<g id="surface1">
<path style=" stroke:none;fill-rule:nonzero;fill:rgb(100%,97.254902%,77.254902%);fill-opacity:1;" d="M 1.519531 0.355469 L 18.5 0.355469 C 19.140625 0.355469 19.65625 0.875 19.65625 1.515625 L 19.65625 18.441406 C 19.65625 19.082031 19.140625 19.601562 18.5 19.601562 L 1.519531 19.601562 C 0.882812 19.601562 0.363281 19.082031 0.363281 18.441406 L 0.363281 1.515625 C 0.363281 0.875 0.882812 0.355469 1.519531 0.355469 Z M 1.519531 0.355469 "/>
<path style=" stroke:none;fill-rule:nonzero;fill:rgb(60%,40%,20%);fill-opacity:1;" d="M 18.5 0.714844 C 18.941406 0.714844 19.300781 1.074219 19.300781 1.515625 L 19.300781 18.441406 C 19.300781 18.65625 19.21875 18.863281 19.066406 19.011719 C 18.917969 19.164062 18.714844 19.25 18.5 19.25 L 1.519531 19.25 C 1.082031 19.246094 0.722656 18.890625 0.722656 18.449219 L 0.722656 1.515625 C 0.722656 1.074219 1.082031 0.714844 1.519531 0.714844 L 18.5 0.714844 M 18.5 0 L 1.519531 0 C 0.683594 0 0.0078125 0.679688 0.0078125 1.515625 L 0.0078125 18.441406 C 0.00390625 18.847656 0.164062 19.234375 0.449219 19.519531 C 0.730469 19.804688 1.117188 19.964844 1.519531 19.964844 L 18.5 19.964844 C 19.335938 19.964844 20.015625 19.285156 20.015625 18.449219 L 20.015625 1.515625 C 20.015625 0.679688 19.335938 0 18.5 0 Z M 18.5 0 "/>
<path style=" stroke:none;fill-rule:evenodd;fill:rgb(60%,40%,20%);fill-opacity:1;" d="M 18.394531 9.125 C 18.335938 8.882812 18.113281 8.710938 17.863281 8.71875 C 17.101562 8.726562 16.414062 8.265625 16.136719 7.554688 C 15.859375 6.847656 16.046875 6.039062 16.609375 5.527344 C 16.789062 5.367188 16.808594 5.09375 16.660156 4.902344 C 16.273438 4.414062 15.832031 3.964844 15.34375 3.574219 C 15.152344 3.425781 14.875 3.445312 14.710938 3.625 C 14.179688 4.183594 13.363281 4.371094 12.644531 4.09375 C 11.925781 3.789062 11.480469 3.066406 11.519531 2.289062 C 11.535156 2.046875 11.355469 1.832031 11.113281 1.804688 C 10.492188 1.734375 9.867188 1.734375 9.246094 1.804688 C 9.007812 1.832031 8.832031 2.039062 8.835938 2.277344 C 8.871094 3.054688 8.417969 3.765625 7.699219 4.0625 C 6.984375 4.332031 6.175781 4.148438 5.644531 3.597656 C 5.484375 3.417969 5.21875 3.394531 5.023438 3.535156 C 4.527344 3.925781 4.074219 4.371094 3.683594 4.863281 C 3.527344 5.054688 3.550781 5.332031 3.730469 5.492188 C 4.308594 6.015625 4.492188 6.84375 4.195312 7.5625 C 3.875 8.265625 3.164062 8.707031 2.390625 8.6875 C 2.144531 8.667969 1.933594 8.851562 1.910156 9.09375 C 1.835938 9.71875 1.835938 10.351562 1.910156 10.980469 C 1.972656 11.222656 2.195312 11.394531 2.449219 11.394531 C 3.199219 11.382812 3.875 11.835938 4.15625 12.527344 C 4.445312 13.242188 4.261719 14.0625 3.691406 14.582031 C 3.515625 14.746094 3.496094 15.015625 3.644531 15.207031 C 4.03125 15.699219 4.472656 16.144531 4.957031 16.535156 C 5.148438 16.6875 5.421875 16.664062 5.589844 16.484375 C 6.121094 15.925781 6.9375 15.742188 7.65625 16.019531 C 8.375 16.320312 8.824219 17.042969 8.777344 17.820312 C 8.765625 18.066406 8.941406 18.277344 9.1875 18.304688 C 9.503906 18.34375 9.824219 18.363281 10.144531 18.359375 C 10.449219 18.355469 10.753906 18.335938 11.058594 18.296875 C 11.292969 18.265625 11.46875 18.0625 11.464844 17.820312 C 11.429688 17.046875 11.882812 16.332031 12.601562 16.035156 C 13.316406 15.765625 14.125 15.949219 14.652344 16.503906 C 14.816406 16.679688 15.089844 16.703125 15.28125 16.558594 C 15.777344 16.167969 16.226562 15.722656 16.621094 15.230469 C 16.769531 15.039062 16.75 14.769531 16.574219 14.605469 C 15.996094 14.085938 15.808594 13.253906 16.105469 12.535156 C 16.398438 11.855469 17.066406 11.414062 17.808594 11.410156 L 17.90625 11.410156 C 18.152344 11.425781 18.363281 11.246094 18.394531 11.003906 C 18.464844 10.375 18.464844 9.742188 18.394531 9.113281 Z M 10.164062 12.820312 C 8.636719 12.820312 7.394531 11.582031 7.394531 10.054688 C 7.394531 8.523438 8.636719 7.285156 10.164062 7.285156 C 11.691406 7.285156 12.933594 8.523438 12.933594 10.054688 C 12.929688 11.582031 11.691406 12.820312 10.164062 12.820312 Z M 10.164062 12.820312 "/>
</g>
</svg>
