<?xml version="1.0" encoding="UTF-8"?>
<svg xmlns="http://www.w3.org/2000/svg" xmlns:xlink="http://www.w3.org/1999/xlink" width="20px" height="20px" viewBox="0 0 20 20" version="1.1">
<g id="surface1">
<path style=" stroke:none;fill-rule:nonzero;fill:rgb(100%,97.254902%,77.254902%);fill-opacity:1;" d="M 1.519531 0.355469 L 18.5 0.355469 C 19.140625 0.355469 19.65625 0.875 19.65625 1.515625 L 19.65625 18.441406 C 19.65625 19.082031 19.140625 19.601562 18.5 19.601562 L 1.519531 19.601562 C 0.882812 19.601562 0.363281 19.082031 0.363281 18.441406 L 0.363281 1.515625 C 0.363281 0.875 0.882812 0.355469 1.519531 0.355469 Z M 1.519531 0.355469 "/>
<path style=" stroke:none;fill-rule:nonzero;fill:rgb(60%,40%,20%);fill-opacity:1;" d="M 18.5 0.714844 C 18.941406 0.714844 19.300781 1.074219 19.300781 1.515625 L 19.300781 18.441406 C 19.300781 18.65625 19.21875 18.863281 19.066406 19.011719 C 18.917969 19.164062 18.714844 19.25 18.5 19.25 L 1.519531 19.25 C 1.082031 19.246094 0.722656 18.890625 0.722656 18.449219 L 0.722656 1.515625 C 0.722656 1.074219 1.082031 0.714844 1.519531 0.714844 L 18.5 0.714844 M 18.5 0 L 1.519531 0 C 0.683594 0 0.0078125 0.679688 0.0078125 1.515625 L 0.0078125 18.441406 C 0.00390625 18.847656 0.164062 19.234375 0.449219 19.519531 C 0.730469 19.804688 1.117188 19.964844 1.519531 19.964844 L 18.5 19.964844 C 19.335938 19.964844 20.015625 19.285156 20.015625 18.449219 L 20.015625 1.515625 C 20.015625 0.679688 19.335938 0 18.5 0 Z M 18.5 0 "/>
<path style="fill-rule:nonzero;fill:rgb(100%,100%,100%);fill-opacity:1;stroke-width:2;stroke-linecap:butt;stroke-linejoin:miter;stroke:rgb(60%,40%,20%);stroke-opacity:1;stroke-miterlimit:10;" d="M 11.046875 7.557812 L 45.478125 7.557812 L 45.478125 49.678125 L 11.046875 49.678125 Z M 11.046875 7.557812 " transform="matrix(0.357143,0,0,0.357143,0,0)"/>
<path style=" stroke:none;fill-rule:nonzero;fill:rgb(60%,40%,20%);fill-opacity:1;" d="M 11.878906 9.542969 C 11.324219 9.28125 10.734375 9.082031 10.152344 8.875 C 9.820312 8.765625 9.5 8.617188 9.207031 8.425781 C 8.644531 8.039062 8.753906 7.417969 9.410156 7.171875 C 9.597656 7.109375 9.789062 7.078125 9.984375 7.070312 C 10.730469 7.027344 11.472656 7.148438 12.164062 7.429688 C 12.519531 7.566406 12.621094 7.523438 12.738281 7.21875 C 12.855469 6.910156 12.964844 6.566406 13.074219 6.242188 C 13.152344 6.019531 13.074219 5.886719 12.816406 5.785156 C 12.375 5.617188 11.914062 5.496094 11.441406 5.429688 C 10.816406 5.347656 10.816406 5.34375 10.816406 4.8125 C 10.816406 4.058594 10.816406 4.058594 9.929688 4.058594 L 9.546875 4.058594 C 9.136719 4.058594 9.0625 4.128906 9.054688 4.480469 C 9.054688 4.644531 9.054688 4.804688 9.054688 4.964844 C 9.054688 5.4375 9.054688 5.429688 8.519531 5.59375 C 7.234375 5.988281 6.441406 6.734375 6.375 7.933594 C 6.296875 8.984375 6.941406 9.699219 7.960938 10.222656 C 8.605469 10.511719 9.269531 10.765625 9.941406 10.980469 C 10.195312 11.070312 10.4375 11.1875 10.65625 11.339844 C 11.292969 11.789062 11.179688 12.535156 10.417969 12.820312 C 10.011719 12.964844 9.574219 13.015625 9.144531 12.960938 C 8.476562 12.898438 7.824219 12.734375 7.207031 12.46875 C 6.851562 12.308594 6.742188 12.351562 6.621094 12.683594 C 6.5 13.015625 6.425781 13.253906 6.332031 13.542969 C 6.207031 13.933594 6.253906 14.023438 6.6875 14.203125 C 7.25 14.421875 7.835938 14.5625 8.4375 14.632812 C 8.910156 14.695312 8.925781 14.714844 8.929688 15.132812 C 8.929688 15.320312 8.929688 15.515625 8.929688 15.703125 C 8.929688 15.894531 9.0625 16.0625 9.355469 16.085938 C 9.644531 16.109375 10.007812 16.085938 10.335938 16.085938 C 10.605469 16.085938 10.738281 15.957031 10.738281 15.730469 C 10.738281 15.5 10.738281 15.210938 10.738281 14.949219 C 10.738281 14.6875 10.855469 14.554688 11.152344 14.480469 C 11.804688 14.34375 12.402344 14.019531 12.871094 13.542969 C 14.117188 12.25 13.644531 10.355469 11.878906 9.523438 Z M 11.878906 9.542969 "/>
</g>
</svg>
