<?xml version="1.0" encoding="UTF-8"?>
<svg xmlns="http://www.w3.org/2000/svg" xmlns:xlink="http://www.w3.org/1999/xlink" width="20px" height="20px" viewBox="0 0 20 20" version="1.1">
<g id="surface1">
<path style=" stroke:none;fill-rule:nonzero;fill:rgb(100%,97.254902%,77.254902%);fill-opacity:1;" d="M 1.519531 0.355469 L 18.5 0.355469 C 19.140625 0.355469 19.65625 0.875 19.65625 1.515625 L 19.65625 18.441406 C 19.65625 19.082031 19.140625 19.601562 18.5 19.601562 L 1.519531 19.601562 C 0.882812 19.601562 0.363281 19.082031 0.363281 18.441406 L 0.363281 1.515625 C 0.363281 0.875 0.882812 0.355469 1.519531 0.355469 Z M 1.519531 0.355469 "/>
<path style=" stroke:none;fill-rule:nonzero;fill:rgb(60%,40%,20%);fill-opacity:1;" d="M 18.5 0.714844 C 18.941406 0.714844 19.300781 1.074219 19.300781 1.515625 L 19.300781 18.441406 C 19.300781 18.65625 19.21875 18.863281 19.066406 19.011719 C 18.917969 19.164062 18.714844 19.25 18.5 19.25 L 1.519531 19.25 C 1.082031 19.246094 0.722656 18.890625 0.722656 18.449219 L 0.722656 1.515625 C 0.722656 1.074219 1.082031 0.714844 1.519531 0.714844 L 18.5 0.714844 M 18.5 0 L 1.519531 0 C 0.683594 0 0.0078125 0.679688 0.0078125 1.515625 L 0.0078125 18.441406 C 0.00390625 18.847656 0.164062 19.234375 0.449219 19.519531 C 0.730469 19.804688 1.117188 19.964844 1.519531 19.964844 L 18.5 19.964844 C 19.335938 19.964844 20.015625 19.285156 20.015625 18.449219 L 20.015625 1.515625 C 20.015625 0.679688 19.335938 0 18.5 0 Z M 18.5 0 "/>
<path style=" stroke:none;fill-rule:nonzero;fill:rgb(60%,40%,20%);fill-opacity:1;" d="M 12.359375 9.167969 C 11.597656 8.8125 10.785156 8.535156 9.984375 8.25 C 9.527344 8.101562 9.089844 7.890625 8.683594 7.628906 C 7.90625 7.101562 8.058594 6.246094 8.964844 5.90625 C 9.222656 5.820312 9.488281 5.769531 9.761719 5.765625 C 10.785156 5.710938 11.808594 5.882812 12.761719 6.269531 C 13.230469 6.46875 13.390625 6.40625 13.550781 5.984375 C 13.710938 5.5625 13.855469 5.085938 14.015625 4.640625 C 14.121094 4.335938 13.992188 4.140625 13.65625 4.011719 C 13.046875 3.78125 12.414062 3.621094 11.769531 3.535156 C 10.914062 3.425781 10.914062 3.421875 10.910156 2.6875 C 10.910156 1.644531 10.910156 1.644531 9.6875 1.644531 C 9.511719 1.644531 9.328125 1.644531 9.15625 1.644531 C 8.589844 1.644531 8.492188 1.746094 8.476562 2.234375 C 8.476562 2.453125 8.476562 2.675781 8.476562 2.894531 C 8.476562 3.546875 8.476562 3.535156 7.738281 3.765625 C 5.976562 4.3125 4.882812 5.339844 4.769531 6.980469 C 4.660156 8.433594 5.554688 9.417969 6.953125 10.132812 C 7.84375 10.53125 8.753906 10.882812 9.683594 11.179688 C 10.035156 11.300781 10.367188 11.46875 10.679688 11.679688 C 11.558594 12.300781 11.394531 13.328125 10.355469 13.722656 C 9.792969 13.921875 9.191406 13.988281 8.601562 13.914062 C 7.679688 13.828125 6.777344 13.601562 5.929688 13.234375 C 5.4375 13.015625 5.292969 13.070312 5.125 13.527344 C 4.980469 13.921875 4.851562 14.320312 4.722656 14.71875 C 4.550781 15.25 4.613281 15.378906 5.210938 15.628906 C 5.984375 15.925781 6.792969 16.125 7.617188 16.21875 C 8.269531 16.308594 8.285156 16.328125 8.296875 16.902344 C 8.296875 17.164062 8.296875 17.429688 8.296875 17.6875 C 8.296875 18.019531 8.484375 18.210938 8.882812 18.21875 C 9.332031 18.21875 9.785156 18.21875 10.230469 18.21875 C 10.589844 18.21875 10.789062 18.039062 10.789062 17.722656 C 10.789062 17.402344 10.8125 17.007812 10.789062 16.648438 C 10.769531 16.292969 10.953125 16.101562 11.359375 16.003906 C 12.257812 15.816406 13.078125 15.367188 13.722656 14.710938 C 15.4375 12.925781 14.792969 10.324219 12.355469 9.175781 Z M 12.359375 9.167969 "/>
</g>
</svg>
