<?xml version="1.0" encoding="UTF-8"?>
<svg xmlns="http://www.w3.org/2000/svg" xmlns:xlink="http://www.w3.org/1999/xlink" width="20px" height="20px" viewBox="0 0 20 20" version="1.1">
<g id="surface1">
<path style=" stroke:none;fill-rule:nonzero;fill:rgb(100%,97.254902%,77.254902%);fill-opacity:1;" d="M 1.519531 0.355469 L 18.5 0.355469 C 19.140625 0.355469 19.65625 0.875 19.65625 1.515625 L 19.65625 18.441406 C 19.65625 19.082031 19.140625 19.601562 18.5 19.601562 L 1.519531 19.601562 C 0.882812 19.601562 0.363281 19.082031 0.363281 18.441406 L 0.363281 1.515625 C 0.363281 0.875 0.882812 0.355469 1.519531 0.355469 Z M 1.519531 0.355469 "/>
<path style=" stroke:none;fill-rule:nonzero;fill:rgb(60%,40%,20%);fill-opacity:1;" d="M 18.5 0.714844 C 18.941406 0.714844 19.300781 1.074219 19.300781 1.515625 L 19.300781 18.441406 C 19.300781 18.65625 19.21875 18.863281 19.066406 19.011719 C 18.917969 19.164062 18.714844 19.25 18.5 19.25 L 1.519531 19.25 C 1.082031 19.246094 0.722656 18.890625 0.722656 18.449219 L 0.722656 1.515625 C 0.722656 1.074219 1.082031 0.714844 1.519531 0.714844 L 18.5 0.714844 M 18.5 0 L 1.519531 0 C 0.683594 0 0.0078125 0.679688 0.0078125 1.515625 L 0.0078125 18.441406 C 0.00390625 18.847656 0.164062 19.234375 0.449219 19.519531 C 0.730469 19.804688 1.117188 19.964844 1.519531 19.964844 L 18.5 19.964844 C 19.335938 19.964844 20.015625 19.285156 20.015625 18.449219 L 20.015625 1.515625 C 20.015625 0.679688 19.335938 0 18.5 0 Z M 18.5 0 "/>
<path style="fill-rule:nonzero;fill:rgb(100%,100%,100%);fill-opacity:1;stroke-width:4;stroke-linecap:butt;stroke-linejoin:miter;stroke:rgb(60%,40%,20%);stroke-opacity:1;stroke-miterlimit:10;" d="M 7.459375 10.904687 L 48.3 10.904687 L 48.3 44.734375 L 7.459375 44.734375 Z M 7.459375 10.904687 " transform="matrix(0.357143,0,0,0.357143,0,0)"/>
<path style=" stroke:none;fill-rule:nonzero;fill:rgb(60%,40%,20%);fill-opacity:1;" d="M 14.578125 13.269531 C 14.792969 13.273438 15.003906 13.304688 15.207031 13.371094 C 15.011719 12.519531 14.6875 10.574219 15.324219 8.78125 C 15.324219 8.78125 14.203125 8.78125 13.363281 10.105469 C 13.285156 10.226562 13.21875 10.359375 13.167969 10.5 C 13.011719 9.617188 12.699219 8.769531 12.242188 8 C 12.140625 9.214844 11.792969 10.398438 11.222656 11.476562 C 11.101562 9.566406 10.476562 7.722656 9.410156 6.136719 C 9.28125 7.941406 8.996094 9.734375 8.5625 11.492188 C 8.257812 10.523438 7.886719 9.214844 7.488281 7.488281 C 7.089844 8.328125 6.808594 9.222656 6.664062 10.144531 L 6.640625 10.105469 C 5.800781 8.78125 4.679688 8.78125 4.679688 8.78125 C 5.3125 10.566406 4.988281 12.519531 4.792969 13.371094 C 4.996094 13.304688 5.210938 13.273438 5.425781 13.269531 Z M 14.578125 13.269531 "/>
</g>
</svg>
