<?xml version="1.0" encoding="UTF-8"?>
<svg xmlns="http://www.w3.org/2000/svg" xmlns:xlink="http://www.w3.org/1999/xlink" width="20px" height="20px" viewBox="0 0 20 20" version="1.1">
<g id="surface1">
<path style=" stroke:none;fill-rule:nonzero;fill:rgb(100%,97.254902%,77.254902%);fill-opacity:1;" d="M 1.519531 0.355469 L 18.5 0.355469 C 19.140625 0.355469 19.65625 0.875 19.65625 1.515625 L 19.65625 18.441406 C 19.65625 19.082031 19.140625 19.601562 18.5 19.601562 L 1.519531 19.601562 C 0.882812 19.601562 0.363281 19.082031 0.363281 18.441406 L 0.363281 1.515625 C 0.363281 0.875 0.882812 0.355469 1.519531 0.355469 Z M 1.519531 0.355469 "/>
<path style=" stroke:none;fill-rule:nonzero;fill:rgb(60%,40%,20%);fill-opacity:1;" d="M 18.5 0.714844 C 18.941406 0.714844 19.300781 1.074219 19.300781 1.515625 L 19.300781 18.441406 C 19.300781 18.65625 19.21875 18.863281 19.066406 19.011719 C 18.917969 19.164062 18.714844 19.25 18.5 19.25 L 1.519531 19.25 C 1.082031 19.246094 0.722656 18.890625 0.722656 18.449219 L 0.722656 1.515625 C 0.722656 1.074219 1.082031 0.714844 1.519531 0.714844 L 18.5 0.714844 M 18.5 0 L 1.519531 0 C 0.683594 0 0.0078125 0.679688 0.0078125 1.515625 L 0.0078125 18.441406 C 0.00390625 18.847656 0.164062 19.234375 0.449219 19.519531 C 0.730469 19.804688 1.117188 19.964844 1.519531 19.964844 L 18.5 19.964844 C 19.335938 19.964844 20.015625 19.285156 20.015625 18.449219 L 20.015625 1.515625 C 20.015625 0.679688 19.335938 0 18.5 0 Z M 18.5 0 "/>
<path style=" stroke:none;fill-rule:nonzero;fill:rgb(60%,40%,20%);fill-opacity:1;" d="M 13.582031 11.511719 L 11.816406 10.363281 C 12.046875 9.710938 11.988281 8.996094 11.664062 8.386719 L 13.113281 7.105469 C 13.984375 7.640625 15.113281 7.457031 15.769531 6.671875 C 16.421875 5.890625 16.398438 4.742188 15.71875 3.984375 C 15.035156 3.226562 13.898438 3.082031 13.046875 3.652344 C 12.199219 4.21875 11.898438 5.324219 12.339844 6.246094 L 10.894531 7.539062 C 10.207031 7.066406 9.324219 6.972656 8.554688 7.289062 L 6.882812 4.964844 C 7.484375 4.171875 7.410156 3.054688 6.714844 2.347656 C 6.015625 1.636719 4.902344 1.542969 4.101562 2.128906 C 3.296875 2.71875 3.042969 3.804688 3.503906 4.6875 C 3.96875 5.566406 5.007812 5.976562 5.945312 5.644531 L 7.617188 7.945312 C 6.785156 8.921875 6.84375 10.375 7.75 11.28125 L 7.804688 11.335938 L 6.1875 14.191406 C 5.1875 13.953125 4.164062 14.488281 3.789062 15.441406 C 3.410156 16.398438 3.792969 17.484375 4.683594 17.992188 C 5.574219 18.503906 6.707031 18.277344 7.335938 17.46875 C 7.96875 16.65625 7.90625 15.507812 7.191406 14.769531 L 8.8125 11.910156 C 9.648438 12.15625 10.554688 11.933594 11.1875 11.332031 L 12.972656 12.480469 C 12.804688 13.25 13.214844 14.03125 13.941406 14.335938 C 14.671875 14.636719 15.515625 14.375 15.945312 13.710938 C 16.371094 13.050781 16.265625 12.175781 15.691406 11.632812 C 15.117188 11.089844 14.234375 11.039062 13.601562 11.507812 Z M 4.949219 15.730469 L 4.839844 15.855469 C 4.789062 15.910156 4.726562 15.953125 4.652344 15.980469 C 4.558594 16.007812 4.453125 15.976562 4.386719 15.902344 C 4.1875 15.707031 4.265625 15.335938 4.5625 15.039062 C 4.855469 14.742188 5.230469 14.683594 5.425781 14.863281 C 5.5 14.929688 5.527344 15.035156 5.496094 15.132812 C 5.472656 15.203125 5.429688 15.265625 5.375 15.316406 C 5.339844 15.355469 5.296875 15.390625 5.25 15.429688 C 5.203125 15.46875 5.144531 15.519531 5.09375 15.574219 C 5.039062 15.628906 4.996094 15.679688 4.949219 15.730469 Z M 13.054688 4.1875 C 13.351562 3.894531 13.722656 3.832031 13.917969 4.015625 C 13.992188 4.082031 14.019531 4.1875 13.988281 4.285156 C 13.964844 4.355469 13.921875 4.417969 13.867188 4.46875 L 13.742188 4.582031 C 13.6875 4.625 13.636719 4.675781 13.589844 4.726562 C 13.535156 4.777344 13.488281 4.832031 13.441406 4.882812 L 13.332031 5.003906 C 13.28125 5.058594 13.21875 5.101562 13.144531 5.128906 C 13.050781 5.15625 12.945312 5.128906 12.878906 5.058594 C 12.683594 4.859375 12.757812 4.488281 13.054688 4.1875 Z M 4.546875 3.3125 L 4.4375 3.433594 C 4.390625 3.480469 4.332031 3.515625 4.269531 3.535156 C 4.179688 3.5625 4.078125 3.539062 4.011719 3.46875 C 3.816406 3.273438 3.894531 2.914062 4.179688 2.625 C 4.464844 2.335938 4.832031 2.269531 5.019531 2.453125 C 5.09375 2.519531 5.121094 2.621094 5.09375 2.714844 C 5.066406 2.785156 5.027344 2.847656 4.972656 2.894531 L 4.855469 3.003906 C 4.804688 3.046875 4.75 3.09375 4.699219 3.144531 L 4.5625 3.296875 Z M 8.121094 8.179688 C 8.480469 7.820312 8.917969 7.734375 9.152344 7.96875 C 9.242188 8.050781 9.273438 8.175781 9.238281 8.292969 C 9.207031 8.375 9.15625 8.449219 9.09375 8.511719 L 8.945312 8.644531 C 8.886719 8.699219 8.820312 8.753906 8.757812 8.816406 C 8.691406 8.882812 8.640625 8.941406 8.585938 9.003906 C 8.53125 9.0625 8.496094 9.105469 8.453125 9.148438 C 8.390625 9.214844 8.316406 9.265625 8.230469 9.300781 C 8.117188 9.335938 7.992188 9.300781 7.910156 9.214844 C 7.675781 8.980469 7.765625 8.53125 8.121094 8.179688 Z M 13.859375 12.5625 C 13.820312 12.605469 13.769531 12.640625 13.714844 12.660156 C 13.636719 12.683594 13.554688 12.660156 13.5 12.605469 C 13.347656 12.445312 13.402344 12.152344 13.640625 11.917969 C 13.875 11.683594 14.167969 11.621094 14.324219 11.777344 C 14.382812 11.832031 14.40625 11.917969 14.382812 11.992188 C 14.363281 12.046875 14.332031 12.097656 14.285156 12.136719 L 14.1875 12.226562 L 14.0625 12.339844 C 14.019531 12.382812 13.984375 12.425781 13.949219 12.464844 Z M 13.859375 12.5625 "/>
</g>
</svg>
