<?xml version="1.0" encoding="UTF-8"?>
<svg xmlns="http://www.w3.org/2000/svg" xmlns:xlink="http://www.w3.org/1999/xlink" width="20px" height="20px" viewBox="0 0 20 20" version="1.1">
<g id="surface1">
<path style=" stroke:none;fill-rule:nonzero;fill:rgb(100%,97.254902%,77.254902%);fill-opacity:1;" d="M 1.519531 0.355469 L 18.5 0.355469 C 19.140625 0.355469 19.65625 0.875 19.65625 1.515625 L 19.65625 18.441406 C 19.65625 19.082031 19.140625 19.601562 18.5 19.601562 L 1.519531 19.601562 C 0.882812 19.601562 0.363281 19.082031 0.363281 18.441406 L 0.363281 1.515625 C 0.363281 0.875 0.882812 0.355469 1.519531 0.355469 Z M 1.519531 0.355469 "/>
<path style=" stroke:none;fill-rule:nonzero;fill:rgb(60%,40%,20%);fill-opacity:1;" d="M 18.5 0.714844 C 18.941406 0.714844 19.300781 1.074219 19.300781 1.515625 L 19.300781 18.441406 C 19.300781 18.65625 19.21875 18.863281 19.066406 19.011719 C 18.917969 19.164062 18.714844 19.25 18.5 19.25 L 1.519531 19.25 C 1.082031 19.246094 0.722656 18.890625 0.722656 18.449219 L 0.722656 1.515625 C 0.722656 1.074219 1.082031 0.714844 1.519531 0.714844 L 18.5 0.714844 M 18.5 0 L 1.519531 0 C 0.683594 0 0.0078125 0.679688 0.0078125 1.515625 L 0.0078125 18.441406 C 0.00390625 18.847656 0.164062 19.234375 0.449219 19.519531 C 0.730469 19.804688 1.117188 19.964844 1.519531 19.964844 L 18.5 19.964844 C 19.335938 19.964844 20.015625 19.285156 20.015625 18.449219 L 20.015625 1.515625 C 20.015625 0.679688 19.335938 0 18.5 0 Z M 18.5 0 "/>
<path style=" stroke:none;fill-rule:nonzero;fill:rgb(60%,40%,20%);fill-opacity:1;" d="M 9.027344 1.75 C 8.855469 1.746094 8.6875 1.808594 8.558594 1.925781 C 8.433594 2.023438 8.359375 2.175781 8.359375 2.335938 L 8.359375 6.152344 C 8.359375 6.3125 8.289062 6.464844 8.164062 6.5625 C 7.894531 6.796875 7.496094 6.796875 7.230469 6.5625 C 7.105469 6.464844 7.03125 6.3125 7.03125 6.152344 L 7.03125 2.335938 C 7.03125 2.175781 6.957031 2.023438 6.832031 1.925781 C 6.5625 1.695312 6.167969 1.695312 5.898438 1.925781 C 5.773438 2.023438 5.703125 2.175781 5.699219 2.335938 L 5.699219 6.152344 C 5.699219 6.3125 5.628906 6.464844 5.503906 6.5625 C 5.234375 6.796875 4.835938 6.796875 4.566406 6.5625 C 4.445312 6.464844 4.371094 6.3125 4.371094 6.152344 L 4.371094 2.335938 C 4.371094 2.175781 4.300781 2.023438 4.175781 1.925781 C 3.90625 1.691406 3.507812 1.691406 3.238281 1.925781 C 3.113281 2.023438 3.042969 2.175781 3.042969 2.335938 L 3.042969 8.207031 C 3.039062 8.578125 3.164062 8.9375 3.398438 9.226562 C 3.648438 9.53125 3.980469 9.757812 4.359375 9.867188 L 4.359375 17.011719 C 4.363281 17.332031 4.507812 17.632812 4.757812 17.835938 C 5.015625 18.066406 5.351562 18.1875 5.699219 18.179688 L 7.03125 18.179688 C 7.375 18.183594 7.710938 18.054688 7.964844 17.820312 C 8.214844 17.621094 8.359375 17.316406 8.359375 16.996094 L 8.359375 9.855469 C 8.738281 9.742188 9.074219 9.519531 9.320312 9.210938 C 9.558594 8.925781 9.683594 8.5625 9.679688 8.191406 L 9.679688 2.335938 C 9.679688 2.175781 9.605469 2.023438 9.480469 1.925781 C 9.359375 1.8125 9.195312 1.75 9.027344 1.75 Z M 9.027344 1.75 "/>
<path style=" stroke:none;fill-rule:nonzero;fill:rgb(60%,40%,20%);fill-opacity:1;" d="M 16.5625 1.925781 C 16.457031 1.8125 16.308594 1.75 16.152344 1.75 L 13.804688 1.75 C 13.023438 1.738281 12.273438 2.050781 11.730469 2.613281 C 11.167969 3.15625 10.855469 3.90625 10.867188 4.6875 L 10.867188 12.023438 C 10.867188 12.1875 11 12.316406 11.160156 12.316406 L 13.21875 12.316406 L 13.21875 17.015625 C 13.230469 17.65625 13.75 18.167969 14.390625 18.179688 L 15.5625 18.179688 C 16.207031 18.167969 16.726562 17.648438 16.738281 17.003906 L 16.738281 2.335938 C 16.742188 2.179688 16.675781 2.03125 16.5625 1.925781 Z M 16.5625 1.925781 "/>
</g>
</svg>
