<?xml version="1.0" encoding="UTF-8"?>
<svg xmlns="http://www.w3.org/2000/svg" xmlns:xlink="http://www.w3.org/1999/xlink" width="20px" height="20px" viewBox="0 0 20 20" version="1.1">
<g id="surface1">
<path style=" stroke:none;fill-rule:nonzero;fill:rgb(60%,40%,20%);fill-opacity:1;" d="M 18.667969 13.941406 C 18.667969 16.609375 16.507812 18.769531 13.84375 18.769531 C 11.179688 18.769531 9.019531 16.609375 9.019531 13.941406 C 9.019531 11.277344 11.179688 9.117188 13.84375 9.117188 C 16.507812 9.117188 18.667969 11.277344 18.667969 13.941406 Z M 17.460938 13.941406 C 17.460938 11.941406 15.839844 10.320312 13.839844 10.316406 C 11.839844 10.316406 10.21875 11.941406 10.21875 13.941406 C 10.21875 15.941406 11.84375 17.5625 13.84375 17.5625 C 15.839844 17.558594 17.457031 15.9375 17.460938 13.941406 Z M 15.648438 13.941406 L 13.84375 13.941406 L 13.84375 12.132812 C 13.84375 11.796875 13.574219 11.527344 13.238281 11.527344 C 12.90625 11.527344 12.636719 11.796875 12.636719 12.132812 L 12.636719 14.546875 C 12.636719 14.878906 12.90625 15.148438 13.238281 15.148438 L 15.648438 15.148438 C 15.984375 15.148438 16.253906 14.878906 16.253906 14.546875 C 16.253906 14.214844 15.984375 13.941406 15.648438 13.941406 Z M 15.648438 13.941406 "/>
<path style=" stroke:none;fill-rule:nonzero;fill:rgb(60%,40%,20%);fill-opacity:1;" d="M 5.535156 6.355469 L 1.605469 6.355469 C 1.445312 6.351562 1.285156 6.414062 1.171875 6.527344 C 1.054688 6.644531 0.992188 6.800781 0.992188 6.964844 L 0.992188 10.753906 C 0.996094 11.089844 1.265625 11.359375 1.601562 11.363281 C 1.78125 11.359375 1.953125 11.277344 2.066406 11.136719 L 2.316406 14.820312 C 2.335938 15.148438 2.613281 15.40625 2.941406 15.394531 L 4.1875 15.394531 C 4.519531 15.402344 4.792969 15.144531 4.8125 14.816406 L 5.050781 11.125 C 5.160156 11.273438 5.332031 11.359375 5.519531 11.363281 C 5.851562 11.359375 6.121094 11.085938 6.121094 10.75 L 6.121094 6.96875 C 6.125 6.632812 5.855469 6.359375 5.519531 6.355469 Z M 5.535156 6.355469 "/>
<path style=" stroke:none;fill-rule:nonzero;fill:rgb(60%,40%,20%);fill-opacity:1;" d="M 5.242188 4.269531 C 5.246094 5.199219 4.496094 5.949219 3.570312 5.953125 C 2.640625 5.957031 1.890625 5.207031 1.886719 4.28125 C 1.882812 3.355469 2.628906 2.601562 3.558594 2.597656 C 4.480469 2.597656 5.230469 3.347656 5.230469 4.269531 Z M 5.242188 4.269531 "/>
<path style=" stroke:none;fill-rule:nonzero;fill:rgb(60%,40%,20%);fill-opacity:1;" d="M 7.285156 3.609375 L 10.378906 3.609375 C 10.640625 3.613281 10.855469 3.828125 10.855469 4.09375 L 10.855469 7.066406 C 10.855469 7.332031 10.640625 7.546875 10.378906 7.550781 C 10.238281 7.546875 10.109375 7.480469 10.019531 7.367188 L 9.832031 10.265625 C 9.816406 10.519531 9.601562 10.71875 9.34375 10.71875 L 8.34375 10.71875 C 8.082031 10.722656 7.863281 10.523438 7.84375 10.265625 L 7.65625 7.359375 C 7.570312 7.472656 7.441406 7.542969 7.300781 7.550781 C 7.039062 7.542969 6.828125 7.328125 6.824219 7.066406 L 6.824219 4.097656 C 6.824219 3.832031 7.035156 3.617188 7.300781 3.609375 Z M 7.285156 3.609375 "/>
<path style=" stroke:none;fill-rule:nonzero;fill:rgb(60%,40%,20%);fill-opacity:1;" d="M 10.144531 1.980469 C 10.152344 2.511719 9.835938 3 9.34375 3.210938 C 8.851562 3.417969 8.28125 3.308594 7.902344 2.933594 C 7.523438 2.558594 7.40625 1.988281 7.609375 1.492188 C 7.8125 1 8.296875 0.675781 8.832031 0.679688 C 9.558594 0.679688 10.144531 1.269531 10.144531 1.996094 Z M 10.144531 1.980469 "/>
</g>
</svg>
