<?xml version="1.0" encoding="UTF-8"?>
<svg xmlns="http://www.w3.org/2000/svg" xmlns:xlink="http://www.w3.org/1999/xlink" width="20px" height="20px" viewBox="0 0 20 20" version="1.1">
<g id="surface1">
<path style=" stroke:none;fill-rule:nonzero;fill:rgb(60%,40%,20%);fill-opacity:1;" d="M 19.59375 10.859375 C 19.597656 13.175781 18.207031 15.265625 16.066406 16.152344 C 13.925781 17.039062 11.464844 16.546875 9.832031 14.90625 C 8.195312 13.265625 7.714844 10.800781 8.609375 8.667969 C 9.503906 6.53125 11.597656 5.144531 13.914062 5.160156 C 17.0625 5.171875 19.609375 7.726562 19.609375 10.875 Z M 18.164062 10.859375 C 18.164062 8.492188 16.246094 6.574219 13.878906 6.574219 C 11.511719 6.574219 9.59375 8.492188 9.59375 10.859375 C 9.59375 13.226562 11.511719 15.144531 13.878906 15.144531 C 16.246094 15.144531 18.164062 13.226562 18.164062 10.859375 Z M 16.019531 10.859375 L 13.914062 10.859375 L 13.914062 8.71875 C 13.914062 8.324219 13.59375 8.003906 13.199219 8.003906 C 12.804688 8.003906 12.484375 8.324219 12.484375 8.71875 L 12.484375 11.574219 C 12.484375 11.96875 12.804688 12.289062 13.199219 12.289062 L 16.058594 12.289062 C 16.453125 12.289062 16.769531 11.96875 16.769531 11.574219 C 16.769531 11.179688 16.453125 10.859375 16.058594 10.859375 Z M 16.019531 10.859375 "/>
<path style=" stroke:none;fill-rule:nonzero;fill:rgb(60%,40%,20%);fill-opacity:1;" d="M 6.5625 6.394531 L 1.472656 6.394531 C 1.046875 6.402344 0.707031 6.746094 0.699219 7.171875 L 0.699219 12.066406 C 0.699219 12.503906 1.046875 12.855469 1.480469 12.859375 C 1.71875 12.855469 1.9375 12.75 2.085938 12.5625 L 2.394531 17.332031 C 2.421875 17.753906 2.777344 18.082031 3.199219 18.078125 L 4.8125 18.078125 C 5.238281 18.082031 5.589844 17.753906 5.621094 17.328125 L 5.929688 12.550781 C 6.070312 12.742188 6.292969 12.855469 6.53125 12.859375 C 6.964844 12.851562 7.3125 12.5 7.3125 12.066406 L 7.332031 7.175781 C 7.328125 6.75 6.988281 6.40625 6.5625 6.394531 Z M 6.5625 6.394531 "/>
<path style=" stroke:none;fill-rule:nonzero;fill:rgb(60%,40%,20%);fill-opacity:1;" d="M 6.1875 3.6875 C 6.1875 4.886719 5.21875 5.859375 4.019531 5.859375 C 2.824219 5.863281 1.851562 4.890625 1.851562 3.695312 C 1.847656 2.496094 2.820312 1.523438 4.019531 1.523438 C 5.214844 1.523438 6.183594 2.492188 6.1875 3.6875 Z M 6.1875 3.6875 "/>
</g>
</svg>
