<?xml version="1.0" encoding="UTF-8"?>
<svg xmlns="http://www.w3.org/2000/svg" xmlns:xlink="http://www.w3.org/1999/xlink" width="20px" height="20px" viewBox="0 0 20 20" version="1.1">
<g id="surface1">
<path style=" stroke:none;fill-rule:nonzero;fill:rgb(100%,97.254902%,77.254902%);fill-opacity:1;" d="M 1.519531 0.355469 L 18.5 0.355469 C 19.140625 0.355469 19.65625 0.875 19.65625 1.515625 L 19.65625 18.441406 C 19.65625 19.082031 19.140625 19.601562 18.5 19.601562 L 1.519531 19.601562 C 0.882812 19.601562 0.363281 19.082031 0.363281 18.441406 L 0.363281 1.515625 C 0.363281 0.875 0.882812 0.355469 1.519531 0.355469 Z M 1.519531 0.355469 "/>
<path style=" stroke:none;fill-rule:nonzero;fill:rgb(60%,40%,20%);fill-opacity:1;" d="M 18.5 0.714844 C 18.941406 0.714844 19.300781 1.074219 19.300781 1.515625 L 19.300781 18.441406 C 19.300781 18.65625 19.21875 18.863281 19.066406 19.011719 C 18.917969 19.164062 18.714844 19.25 18.5 19.25 L 1.519531 19.25 C 1.082031 19.246094 0.722656 18.890625 0.722656 18.449219 L 0.722656 1.515625 C 0.722656 1.074219 1.082031 0.714844 1.519531 0.714844 L 18.5 0.714844 M 18.5 0 L 1.519531 0 C 0.683594 0 0.0078125 0.679688 0.0078125 1.515625 L 0.0078125 18.441406 C 0.00390625 18.847656 0.164062 19.234375 0.449219 19.519531 C 0.730469 19.804688 1.117188 19.964844 1.519531 19.964844 L 18.5 19.964844 C 19.335938 19.964844 20.015625 19.285156 20.015625 18.449219 L 20.015625 1.515625 C 20.015625 0.679688 19.335938 0 18.5 0 Z M 18.5 0 "/>
<path style=" stroke:none;fill-rule:nonzero;fill:rgb(60%,40%,20%);fill-opacity:1;" d="M 6.148438 3.671875 C 6.148438 4.535156 5.449219 5.234375 4.585938 5.234375 C 3.722656 5.234375 3.019531 4.535156 3.019531 3.671875 C 3.019531 2.808594 3.722656 2.105469 4.585938 2.105469 C 5.449219 2.109375 6.148438 2.808594 6.148438 3.671875 Z M 6.148438 3.671875 "/>
<path style=" stroke:none;fill-rule:nonzero;fill:rgb(60%,40%,20%);fill-opacity:1;" d="M 2.84375 10.714844 L 3 10.714844 L 3 13.816406 C 2.996094 14.023438 3.074219 14.226562 3.21875 14.375 C 3.367188 14.523438 3.5625 14.605469 3.769531 14.605469 L 5.398438 14.605469 C 5.828125 14.605469 6.175781 14.261719 6.175781 13.832031 L 6.175781 13.648438 C 6.023438 13.371094 5.945312 13.0625 5.941406 12.746094 L 5.941406 8.675781 C 5.9375 7.902344 6.394531 7.199219 7.105469 6.890625 L 7.105469 6.578125 C 7.105469 6.152344 6.757812 5.804688 6.328125 5.804688 L 2.84375 5.804688 C 2.414062 5.804688 2.066406 6.152344 2.066406 6.578125 L 2.066406 9.925781 C 2.0625 10.132812 2.140625 10.335938 2.289062 10.484375 C 2.433594 10.632812 2.632812 10.714844 2.84375 10.714844 Z M 2.84375 10.714844 "/>
<path style=" stroke:none;fill-rule:nonzero;fill:rgb(60%,40%,20%);fill-opacity:1;" d="M 16.980469 3.671875 C 16.980469 4.535156 16.28125 5.234375 15.417969 5.234375 C 14.554688 5.234375 13.855469 4.535156 13.855469 3.671875 C 13.855469 2.808594 14.554688 2.105469 15.417969 2.105469 C 16.28125 2.109375 16.980469 2.808594 16.980469 3.671875 Z M 16.980469 3.671875 "/>
<path style=" stroke:none;fill-rule:nonzero;fill:rgb(60%,40%,20%);fill-opacity:1;" d="M 12.882812 6.578125 L 12.882812 6.890625 C 13.59375 7.195312 14.050781 7.898438 14.046875 8.675781 L 14.046875 12.707031 C 14.046875 13.023438 13.96875 13.335938 13.8125 13.609375 L 13.8125 13.792969 C 13.8125 14.222656 14.160156 14.566406 14.589844 14.566406 L 16.21875 14.566406 C 16.644531 14.566406 16.992188 14.21875 16.992188 13.792969 L 16.992188 10.679688 L 17.148438 10.679688 C 17.578125 10.679688 17.925781 10.332031 17.925781 9.902344 L 17.925781 6.578125 C 17.921875 6.152344 17.578125 5.804688 17.148438 5.804688 L 13.65625 5.804688 C 13.230469 5.804688 12.882812 6.152344 12.882812 6.578125 Z M 12.882812 6.578125 "/>
<path style=" stroke:none;fill-rule:nonzero;fill:rgb(60%,40%,20%);fill-opacity:1;" d="M 7.128906 8.675781 L 7.128906 12.730469 C 7.128906 13.160156 7.476562 13.503906 7.902344 13.507812 L 8.199219 13.507812 L 8.199219 17.164062 C 8.199219 17.59375 8.546875 17.941406 8.976562 17.941406 L 11.058594 17.941406 C 11.484375 17.941406 11.832031 17.59375 11.832031 17.164062 L 11.832031 13.496094 L 12.128906 13.496094 C 12.558594 13.496094 12.902344 13.144531 12.902344 12.71875 L 12.902344 8.675781 C 12.902344 8.246094 12.558594 7.898438 12.128906 7.894531 L 7.894531 7.894531 C 7.46875 7.898438 7.125 8.25 7.128906 8.675781 Z M 7.128906 8.675781 "/>
<path style=" stroke:none;fill-rule:nonzero;fill:rgb(60%,40%,20%);fill-opacity:1;" d="M 11.796875 5.453125 C 11.796875 6.441406 10.996094 7.238281 10.011719 7.238281 C 9.023438 7.238281 8.226562 6.441406 8.226562 5.453125 C 8.226562 4.46875 9.023438 3.667969 10.011719 3.667969 C 10.996094 3.667969 11.796875 4.46875 11.796875 5.453125 Z M 11.796875 5.453125 "/>
</g>
</svg>
