<?xml version="1.0" encoding="UTF-8"?>
<svg xmlns="http://www.w3.org/2000/svg" xmlns:xlink="http://www.w3.org/1999/xlink" width="20px" height="20px" viewBox="0 0 20 20" version="1.1">
<g id="surface1">
<path style=" stroke:none;fill-rule:nonzero;fill:rgb(100%,97.254902%,77.254902%);fill-opacity:1;" d="M 1.519531 0.355469 L 18.5 0.355469 C 19.140625 0.355469 19.65625 0.875 19.65625 1.515625 L 19.65625 18.441406 C 19.65625 19.082031 19.140625 19.601562 18.5 19.601562 L 1.519531 19.601562 C 0.882812 19.601562 0.363281 19.082031 0.363281 18.441406 L 0.363281 1.515625 C 0.363281 0.875 0.882812 0.355469 1.519531 0.355469 Z M 1.519531 0.355469 "/>
<path style=" stroke:none;fill-rule:nonzero;fill:rgb(60%,40%,20%);fill-opacity:1;" d="M 18.5 0.714844 C 18.941406 0.714844 19.300781 1.074219 19.300781 1.515625 L 19.300781 18.441406 C 19.300781 18.65625 19.21875 18.863281 19.066406 19.011719 C 18.917969 19.164062 18.714844 19.25 18.5 19.25 L 1.519531 19.25 C 1.082031 19.246094 0.722656 18.890625 0.722656 18.449219 L 0.722656 1.515625 C 0.722656 1.074219 1.082031 0.714844 1.519531 0.714844 L 18.5 0.714844 M 18.5 0 L 1.519531 0 C 0.683594 0 0.0078125 0.679688 0.0078125 1.515625 L 0.0078125 18.441406 C 0.00390625 18.847656 0.164062 19.234375 0.449219 19.519531 C 0.730469 19.804688 1.117188 19.964844 1.519531 19.964844 L 18.5 19.964844 C 19.335938 19.964844 20.015625 19.285156 20.015625 18.449219 L 20.015625 1.515625 C 20.015625 0.679688 19.335938 0 18.5 0 Z M 18.5 0 "/>
<path style=" stroke:none;fill-rule:nonzero;fill:rgb(60%,40%,20%);fill-opacity:1;" d="M 16.277344 5.253906 C 16.304688 4.875 16.1875 4.5 15.949219 4.207031 C 16.167969 3.929688 16.238281 3.5625 16.132812 3.226562 C 16.050781 3.023438 15.84375 2.789062 15.3125 2.789062 L 15.183594 2.789062 C 15.050781 2.460938 14.738281 2.238281 14.386719 2.230469 C 14.0625 2.238281 13.773438 2.417969 13.617188 2.699219 L 13.511719 2.699219 C 13.136719 2.703125 12.792969 2.894531 12.601562 3.214844 C 12.453125 3.554688 12.515625 3.949219 12.757812 4.230469 C 12.265625 5.050781 11.882812 5.925781 11.617188 6.84375 C 11.257812 8.144531 10.050781 9.03125 8.699219 8.984375 C 7.1875 8.984375 5.304688 8.136719 3.101562 6.464844 C 3.074219 6.445312 3.046875 6.4375 3.015625 6.4375 L 2.980469 6.4375 C 2.941406 6.445312 2.902344 6.476562 2.886719 6.515625 C 2.863281 6.554688 2.421875 7.535156 4.0625 9.210938 C 3.792969 9.246094 3.558594 9.417969 3.449219 9.667969 C 3.335938 9.996094 3.535156 10.382812 4.039062 10.820312 C 3.910156 10.871094 3.804688 10.972656 3.75 11.101562 C 3.652344 11.355469 3.78125 11.734375 4.1875 12.359375 C 4.8125 13.332031 6.246094 15.554688 9.640625 15.734375 C 9.640625 15.734375 9.640625 15.761719 9.640625 15.773438 L 9.640625 17.464844 L 9.046875 17.464844 C 8.789062 17.484375 8.589844 17.703125 8.589844 17.960938 C 8.589844 18.222656 8.789062 18.4375 9.046875 18.460938 L 12.074219 18.460938 C 12.261719 18.476562 12.445312 18.386719 12.542969 18.222656 C 12.640625 18.0625 12.640625 17.859375 12.542969 17.699219 C 12.445312 17.539062 12.261719 17.449219 12.074219 17.464844 L 10.644531 17.464844 L 10.644531 15.773438 C 10.648438 15.761719 10.648438 15.746094 10.644531 15.730469 C 11.898438 15.703125 13.109375 15.285156 14.113281 14.539062 C 15.132812 13.742188 15.714844 12.511719 15.683594 11.21875 C 15.671875 10.628906 15.597656 10.039062 15.460938 9.464844 C 15.328125 8.894531 15.257812 8.3125 15.25 7.726562 C 15.238281 7.34375 15.363281 6.96875 15.605469 6.671875 C 15.722656 6.546875 15.886719 6.472656 16.058594 6.46875 C 16.28125 6.480469 16.5 6.550781 16.6875 6.675781 C 16.710938 6.6875 16.734375 6.695312 16.761719 6.695312 C 16.78125 6.699219 16.804688 6.699219 16.824219 6.695312 C 16.867188 6.675781 16.898438 6.632812 16.902344 6.585938 C 16.925781 6.070312 16.691406 5.574219 16.273438 5.269531 Z M 16.277344 5.253906 "/>
</g>
</svg>
