<?xml version="1.0" encoding="UTF-8"?>
<svg xmlns="http://www.w3.org/2000/svg" xmlns:xlink="http://www.w3.org/1999/xlink" width="20px" height="20px" viewBox="0 0 20 20" version="1.1">
<g id="surface1">
<path style=" stroke:none;fill-rule:nonzero;fill:rgb(100%,97.254902%,77.254902%);fill-opacity:1;" d="M 1.519531 0.355469 L 18.5 0.355469 C 19.140625 0.355469 19.65625 0.875 19.65625 1.515625 L 19.65625 18.441406 C 19.65625 19.082031 19.140625 19.601562 18.5 19.601562 L 1.519531 19.601562 C 0.882812 19.601562 0.363281 19.082031 0.363281 18.441406 L 0.363281 1.515625 C 0.363281 0.875 0.882812 0.355469 1.519531 0.355469 Z M 1.519531 0.355469 "/>
<path style=" stroke:none;fill-rule:nonzero;fill:rgb(60%,40%,20%);fill-opacity:1;" d="M 18.5 0.714844 C 18.941406 0.714844 19.300781 1.074219 19.300781 1.515625 L 19.300781 18.441406 C 19.300781 18.65625 19.21875 18.863281 19.066406 19.011719 C 18.917969 19.164062 18.714844 19.25 18.5 19.25 L 1.519531 19.25 C 1.082031 19.246094 0.722656 18.890625 0.722656 18.449219 L 0.722656 1.515625 C 0.722656 1.074219 1.082031 0.714844 1.519531 0.714844 L 18.5 0.714844 M 18.5 0 L 1.519531 0 C 0.683594 0 0.0078125 0.679688 0.0078125 1.515625 L 0.0078125 18.441406 C 0.00390625 18.847656 0.164062 19.234375 0.449219 19.519531 C 0.730469 19.804688 1.117188 19.964844 1.519531 19.964844 L 18.5 19.964844 C 19.335938 19.964844 20.015625 19.285156 20.015625 18.449219 L 20.015625 1.515625 C 20.015625 0.679688 19.335938 0 18.5 0 Z M 18.5 0 "/>
<path style=" stroke:none;fill-rule:nonzero;fill:rgb(60%,40%,20%);fill-opacity:1;" d="M 18.0625 3.179688 C 16.945312 1.5 14.601562 1.75 13.472656 2.777344 C 12.34375 3.808594 11.589844 6.308594 11.554688 6.394531 C 10.566406 5.957031 9.4375 5.957031 8.449219 6.394531 C 8.417969 6.304688 7.636719 3.777344 6.535156 2.769531 C 5.4375 1.757812 3.058594 1.492188 1.941406 3.179688 C 1.617188 3.660156 0.988281 5.679688 3.101562 6.445312 C 3.785156 6.644531 4.519531 6.511719 5.09375 6.089844 C 5.328125 5.914062 5.386719 5.585938 5.222656 5.339844 C 5.0625 5.09375 4.734375 5.019531 4.480469 5.167969 C 4.058594 5.484375 3.460938 5.433594 3.101562 5.046875 C 2.589844 4.53125 2.882812 3.460938 4.210938 3.460938 C 5.960938 3.460938 6.628906 6.015625 6.886719 7.355469 L 6.261719 7.710938 C 5.867188 7.753906 5.484375 7.859375 5.125 8.027344 C 3.996094 8.5625 3.339844 9.542969 3.65625 10.214844 C 3.976562 10.886719 5.144531 10.996094 6.273438 10.464844 C 6.570312 10.324219 6.847656 10.140625 7.097656 9.925781 L 8.785156 14.375 L 11.242188 14.375 L 12.929688 9.925781 C 13.175781 10.140625 13.453125 10.324219 13.753906 10.464844 C 14.882812 10.996094 16.054688 10.886719 16.375 10.214844 C 16.695312 9.542969 16.019531 8.5625 14.902344 8.027344 C 14.546875 7.859375 14.160156 7.753906 13.769531 7.710938 L 13.140625 7.355469 C 13.398438 6.015625 14.066406 3.460938 15.816406 3.460938 C 17.144531 3.460938 17.441406 4.53125 16.925781 5.046875 C 16.5625 5.433594 15.96875 5.484375 15.546875 5.167969 C 15.292969 5.03125 14.976562 5.109375 14.816406 5.347656 C 14.660156 5.589844 14.710938 5.910156 14.9375 6.089844 C 15.511719 6.511719 16.246094 6.644531 16.929688 6.445312 C 19.019531 5.679688 18.386719 3.660156 18.0625 3.179688 Z M 18.0625 3.179688 "/>
<path style=" stroke:none;fill-rule:nonzero;fill:rgb(60%,40%,20%);fill-opacity:1;" d="M 8.824219 15.027344 C 8.824219 15.027344 7.808594 16.140625 9.011719 17.09375 C 9.558594 17.519531 9.609375 17.894531 9.507812 18.164062 C 9.476562 18.246094 9.496094 18.335938 9.5625 18.394531 C 9.621094 18.449219 9.710938 18.464844 9.785156 18.429688 C 10.816406 17.976562 12.382812 16.921875 11.175781 15.019531 Z M 8.824219 15.027344 "/>
</g>
</svg>
