<?xml version="1.0" encoding="UTF-8"?>
<svg xmlns="http://www.w3.org/2000/svg" xmlns:xlink="http://www.w3.org/1999/xlink" width="20px" height="20px" viewBox="0 0 20 20" version="1.1">
<g id="surface1">
<path style=" stroke:none;fill-rule:nonzero;fill:rgb(100%,100%,100%);fill-opacity:1;" d="M 1.9375 1.882812 L 8.199219 1.882812 L 8.199219 8.320312 L 1.9375 8.320312 Z M 1.9375 1.882812 "/>
<path style=" stroke:none;fill-rule:nonzero;fill:rgb(100%,100%,100%);fill-opacity:1;" d="M 1.902344 11.65625 L 8.164062 11.65625 L 8.164062 18.097656 L 1.902344 18.097656 Z M 1.902344 11.65625 "/>
<path style=" stroke:none;fill-rule:nonzero;fill:rgb(100%,100%,100%);fill-opacity:1;" d="M 11.769531 1.9375 L 18.132812 1.9375 L 18.132812 8.527344 L 11.769531 8.527344 Z M 11.769531 1.9375 "/>
<path style=" stroke:none;fill-rule:nonzero;fill:rgb(100%,100%,100%);fill-opacity:1;" d="M 11.730469 11.605469 L 17.988281 11.605469 L 17.988281 18.046875 L 11.730469 18.046875 Z M 11.730469 11.605469 "/>
<path style=" stroke:none;fill-rule:nonzero;fill:rgb(60%,40%,20%);fill-opacity:1;" d="M 6.769531 9.382812 L 3.484375 9.382812 C 1.933594 9.378906 0.675781 8.121094 0.671875 6.566406 L 0.671875 3.277344 C 0.671875 1.722656 1.933594 0.464844 3.484375 0.460938 L 6.769531 0.460938 C 8.328125 0.460938 9.589844 1.722656 9.59375 3.277344 L 9.59375 6.566406 C 9.589844 8.125 8.328125 9.382812 6.769531 9.382812 Z M 3.484375 2.4375 C 3.023438 2.441406 2.648438 2.816406 2.648438 3.277344 L 2.648438 6.566406 C 2.648438 7.03125 3.023438 7.402344 3.484375 7.402344 L 6.769531 7.402344 C 7.234375 7.402344 7.609375 7.03125 7.609375 6.566406 L 7.609375 3.277344 C 7.609375 2.816406 7.234375 2.4375 6.769531 2.4375 Z M 3.484375 2.4375 "/>
<path style=" stroke:none;fill-rule:nonzero;fill:rgb(60%,40%,20%);fill-opacity:1;" d="M 16.640625 9.382812 L 13.351562 9.382812 C 11.796875 9.378906 10.539062 8.121094 10.535156 6.566406 L 10.535156 3.277344 C 10.539062 1.722656 11.796875 0.464844 13.351562 0.460938 L 16.640625 0.460938 C 18.195312 0.460938 19.453125 1.722656 19.453125 3.277344 L 19.453125 6.566406 C 19.453125 8.121094 18.191406 9.378906 16.640625 9.382812 Z M 16.640625 9.382812 "/>
<path style=" stroke:none;fill-rule:nonzero;fill:rgb(60%,40%,20%);fill-opacity:1;" d="M 6.707031 19.117188 L 3.417969 19.117188 C 1.863281 19.117188 0.601562 17.855469 0.601562 16.300781 L 0.601562 13.011719 C 0.605469 11.457031 1.863281 10.199219 3.417969 10.195312 L 6.707031 10.195312 C 8.261719 10.199219 9.515625 11.457031 9.519531 13.011719 L 9.519531 16.300781 C 9.519531 17.855469 8.261719 19.113281 6.707031 19.117188 Z M 3.417969 12.175781 C 2.957031 12.175781 2.582031 12.546875 2.578125 13.011719 L 2.578125 16.300781 C 2.578125 16.761719 2.953125 17.140625 3.417969 17.140625 L 6.707031 17.140625 C 7.167969 17.136719 7.542969 16.761719 7.542969 16.300781 L 7.542969 13.011719 C 7.542969 12.550781 7.167969 12.175781 6.707031 12.175781 Z M 3.417969 12.175781 "/>
<path style=" stroke:none;fill-rule:nonzero;fill:rgb(60%,40%,20%);fill-opacity:1;" d="M 16.566406 19.117188 L 13.277344 19.117188 C 11.722656 19.113281 10.464844 17.855469 10.464844 16.300781 L 10.464844 13.011719 C 10.46875 11.457031 11.726562 10.199219 13.277344 10.195312 L 16.566406 10.195312 C 18.121094 10.199219 19.382812 11.457031 19.386719 13.011719 L 19.386719 16.300781 C 19.382812 17.855469 18.125 19.117188 16.566406 19.117188 Z M 13.277344 12.175781 C 12.816406 12.175781 12.441406 12.550781 12.441406 13.011719 L 12.441406 16.300781 C 12.441406 16.761719 12.816406 17.136719 13.277344 17.140625 L 16.566406 17.140625 C 17.03125 17.140625 17.40625 16.761719 17.40625 16.300781 L 17.40625 13.011719 C 17.40625 12.546875 17.03125 12.175781 16.566406 12.175781 Z M 13.277344 12.175781 "/>
</g>
</svg>
