<?xml version="1.0" encoding="UTF-8"?>
<svg xmlns="http://www.w3.org/2000/svg" xmlns:xlink="http://www.w3.org/1999/xlink" width="20px" height="20px" viewBox="0 0 20 20" version="1.1">
<g id="surface1">
<path style=" stroke:none;fill-rule:nonzero;fill:rgb(100%,97.254902%,77.254902%);fill-opacity:1;" d="M 1.519531 0.355469 L 18.5 0.355469 C 19.140625 0.355469 19.65625 0.875 19.65625 1.515625 L 19.65625 18.441406 C 19.65625 19.082031 19.140625 19.601562 18.5 19.601562 L 1.519531 19.601562 C 0.882812 19.601562 0.363281 19.082031 0.363281 18.441406 L 0.363281 1.515625 C 0.363281 0.875 0.882812 0.355469 1.519531 0.355469 Z M 1.519531 0.355469 "/>
<path style=" stroke:none;fill-rule:nonzero;fill:rgb(60%,40%,20%);fill-opacity:1;" d="M 18.5 0.714844 C 18.941406 0.714844 19.300781 1.074219 19.300781 1.515625 L 19.300781 18.441406 C 19.300781 18.65625 19.21875 18.863281 19.066406 19.011719 C 18.917969 19.164062 18.714844 19.25 18.5 19.25 L 1.519531 19.25 C 1.082031 19.246094 0.722656 18.890625 0.722656 18.449219 L 0.722656 1.515625 C 0.722656 1.074219 1.082031 0.714844 1.519531 0.714844 L 18.5 0.714844 M 18.5 0 L 1.519531 0 C 0.683594 0 0.0078125 0.679688 0.0078125 1.515625 L 0.0078125 18.441406 C 0.00390625 18.847656 0.164062 19.234375 0.449219 19.519531 C 0.730469 19.804688 1.117188 19.964844 1.519531 19.964844 L 18.5 19.964844 C 19.335938 19.964844 20.015625 19.285156 20.015625 18.449219 L 20.015625 1.515625 C 20.015625 0.679688 19.335938 0 18.5 0 Z M 18.5 0 "/>
<path style=" stroke:none;fill-rule:nonzero;fill:rgb(60%,40%,20%);fill-opacity:1;" d="M 3.355469 2.308594 L 8.144531 2.308594 C 8.539062 2.308594 8.859375 2.625 8.859375 3.019531 L 8.859375 7.8125 C 8.859375 8.207031 8.539062 8.523438 8.144531 8.523438 L 3.355469 8.523438 C 2.960938 8.523438 2.644531 8.207031 2.644531 7.8125 L 2.644531 3.019531 C 2.644531 2.625 2.960938 2.308594 3.355469 2.308594 Z M 3.355469 2.308594 "/>
<path style=" stroke:none;fill-rule:nonzero;fill:rgb(60%,40%,20%);fill-opacity:1;" d="M 17.019531 5.417969 C 17.019531 7.132812 15.628906 8.523438 13.914062 8.523438 C 12.199219 8.523438 10.808594 7.132812 10.808594 5.417969 C 10.808594 3.703125 12.199219 2.3125 13.914062 2.3125 C 15.628906 2.3125 17.019531 3.703125 17.019531 5.417969 Z M 17.019531 5.417969 "/>
<path style=" stroke:none;fill-rule:nonzero;fill:rgb(60%,40%,20%);fill-opacity:1;" d="M 5.601562 9.058594 L 6.835938 11.5625 L 9.601562 11.964844 L 7.601562 13.910156 L 8.070312 16.664062 L 5.601562 15.363281 L 3.128906 16.664062 L 3.601562 13.910156 L 1.601562 11.964844 L 4.363281 11.5625 Z M 5.601562 9.058594 "/>
<path style=" stroke:none;fill-rule:nonzero;fill:rgb(60%,40%,20%);fill-opacity:1;" d="M 10.039062 16.664062 L 13.890625 9.992188 L 17.742188 16.664062 Z M 10.039062 16.664062 "/>
</g>
</svg>
