<?xml version="1.0" encoding="UTF-8"?>
<svg xmlns="http://www.w3.org/2000/svg" xmlns:xlink="http://www.w3.org/1999/xlink" width="20px" height="20px" viewBox="0 0 20 20" version="1.1">
<g id="surface1">
<path style=" stroke:none;fill-rule:nonzero;fill:rgb(100%,97.254902%,77.254902%);fill-opacity:1;" d="M 1.519531 0.355469 L 18.5 0.355469 C 19.140625 0.355469 19.65625 0.875 19.65625 1.515625 L 19.65625 18.441406 C 19.65625 19.082031 19.140625 19.601562 18.5 19.601562 L 1.519531 19.601562 C 0.882812 19.601562 0.363281 19.082031 0.363281 18.441406 L 0.363281 1.515625 C 0.363281 0.875 0.882812 0.355469 1.519531 0.355469 Z M 1.519531 0.355469 "/>
<path style=" stroke:none;fill-rule:nonzero;fill:rgb(60%,40%,20%);fill-opacity:1;" d="M 18.5 0.714844 C 18.941406 0.714844 19.300781 1.074219 19.300781 1.515625 L 19.300781 18.441406 C 19.300781 18.65625 19.21875 18.863281 19.066406 19.011719 C 18.917969 19.164062 18.714844 19.25 18.5 19.25 L 1.519531 19.25 C 1.082031 19.246094 0.722656 18.890625 0.722656 18.449219 L 0.722656 1.515625 C 0.722656 1.074219 1.082031 0.714844 1.519531 0.714844 L 18.5 0.714844 M 18.5 0 L 1.519531 0 C 0.683594 0 0.0078125 0.679688 0.0078125 1.515625 L 0.0078125 18.441406 C 0.00390625 18.847656 0.164062 19.234375 0.449219 19.519531 C 0.730469 19.804688 1.117188 19.964844 1.519531 19.964844 L 18.5 19.964844 C 19.335938 19.964844 20.015625 19.285156 20.015625 18.449219 L 20.015625 1.515625 C 20.015625 0.679688 19.335938 0 18.5 0 Z M 18.5 0 "/>
<path style=" stroke:none;fill-rule:nonzero;fill:rgb(60%,40%,20%);fill-opacity:1;" d="M 15.699219 13.929688 C 15.875 13.625 15.964844 13.28125 15.964844 12.933594 C 15.964844 11.839844 15.085938 10.949219 13.992188 10.9375 C 14.105469 10.667969 14.167969 10.375 14.179688 10.082031 C 14.179688 7.347656 12.316406 6.828125 11.472656 6.734375 C 11.40625 6.726562 11.34375 6.753906 11.308594 6.808594 C 11.273438 6.863281 11.273438 6.929688 11.304688 6.984375 C 11.40625 7.164062 11.429688 7.375 11.367188 7.570312 C 11.195312 8.179688 10.539062 8.097656 10.222656 8.097656 L 7.84375 8.097656 C 7.316406 8.09375 6.808594 8.304688 6.4375 8.675781 C 6.066406 9.050781 5.855469 9.554688 5.855469 10.082031 C 5.859375 10.378906 5.929688 10.671875 6.058594 10.9375 L 5.992188 10.9375 C 5.28125 10.9375 4.621094 11.316406 4.265625 11.933594 C 3.910156 12.550781 3.910156 13.3125 4.269531 13.929688 C 3.34375 14.222656 2.761719 15.144531 2.898438 16.109375 C 3.035156 17.074219 3.847656 17.796875 4.820312 17.820312 L 15.15625 17.820312 C 16.128906 17.792969 16.941406 17.066406 17.074219 16.105469 C 17.210938 15.140625 16.628906 14.222656 15.699219 13.929688 Z M 15.699219 13.929688 "/>
<path style=" stroke:none;fill-rule:nonzero;fill:rgb(60%,40%,20%);fill-opacity:1;" d="M 7.867188 7.351562 C 8.046875 7.304688 8.214844 7.21875 8.363281 7.105469 C 8.972656 6.589844 9.191406 5.75 8.914062 5.003906 C 8.710938 4.398438 8.296875 3.898438 8.035156 3.324219 C 7.992188 3.226562 7.953125 3.121094 7.921875 3.019531 C 7.855469 2.761719 7.835938 2.492188 7.867188 2.230469 C 7.871094 2.210938 7.863281 2.191406 7.847656 2.183594 C 7.835938 2.171875 7.816406 2.167969 7.800781 2.175781 C 7.25 2.40625 6.890625 2.941406 6.882812 3.535156 C 6.867188 4.074219 7.003906 4.609375 7.277344 5.074219 C 7.5625 5.507812 7.753906 5.992188 7.847656 6.503906 C 7.859375 6.78125 7.84375 7.054688 7.804688 7.328125 C 7.800781 7.34375 7.808594 7.363281 7.820312 7.375 C 7.835938 7.382812 7.851562 7.390625 7.867188 7.386719 Z M 7.867188 7.351562 "/>
<path style=" stroke:none;fill-rule:nonzero;fill:rgb(60%,40%,20%);fill-opacity:1;" d="M 4.496094 9.335938 C 4.675781 9.285156 4.839844 9.199219 4.984375 9.082031 C 5.589844 8.570312 5.816406 7.734375 5.546875 6.988281 C 5.34375 6.394531 4.933594 5.886719 4.675781 5.320312 C 4.628906 5.222656 4.589844 5.121094 4.558594 5.015625 C 4.492188 4.753906 4.472656 4.488281 4.507812 4.222656 C 4.507812 4.203125 4.5 4.1875 4.484375 4.175781 C 4.472656 4.164062 4.453125 4.160156 4.4375 4.167969 C 3.886719 4.394531 3.527344 4.921875 3.511719 5.515625 C 3.5 6.050781 3.640625 6.582031 3.914062 7.042969 C 4.199219 7.46875 4.394531 7.949219 4.484375 8.453125 C 4.496094 8.730469 4.484375 9.003906 4.441406 9.277344 C 4.441406 9.296875 4.445312 9.3125 4.457031 9.324219 C 4.46875 9.335938 4.488281 9.339844 4.503906 9.335938 Z M 4.496094 9.335938 "/>
</g>
</svg>
