<?xml version="1.0" encoding="UTF-8"?>
<svg xmlns="http://www.w3.org/2000/svg" xmlns:xlink="http://www.w3.org/1999/xlink" width="20px" height="20px" viewBox="0 0 20 20" version="1.1">
<g id="surface1">
<path style=" stroke:none;fill-rule:nonzero;fill:rgb(60%,40%,20%);fill-opacity:1;" d="M 6.480469 9.28125 C 5.855469 8.953125 5.210938 8.664062 4.554688 8.40625 C 4.171875 8.261719 3.808594 8.0625 3.480469 7.8125 C 3.191406 7.617188 3.035156 7.273438 3.082031 6.925781 C 3.132812 6.578125 3.375 6.285156 3.707031 6.175781 C 3.917969 6.085938 4.144531 6.039062 4.371094 6.035156 C 5.210938 5.984375 6.050781 6.152344 6.8125 6.519531 C 7.191406 6.703125 7.320312 6.644531 7.449219 6.242188 C 7.578125 5.84375 7.703125 5.394531 7.84375 4.964844 C 7.890625 4.847656 7.886719 4.714844 7.832031 4.601562 C 7.777344 4.488281 7.675781 4.402344 7.554688 4.367188 C 7.0625 4.148438 6.546875 3.996094 6.015625 3.910156 C 5.316406 3.800781 5.316406 3.800781 5.300781 3.097656 C 5.296875 2.105469 5.296875 2.105469 4.308594 2.105469 L 3.875 2.105469 C 3.414062 2.105469 3.335938 2.199219 3.320312 2.667969 C 3.320312 2.875 3.320312 3.085938 3.320312 3.296875 C 3.320312 3.914062 3.320312 3.90625 2.722656 4.121094 C 1.292969 4.644531 0.402344 5.621094 0.308594 7.1875 C 0.222656 8.570312 0.945312 9.503906 2.09375 10.1875 C 2.8125 10.5625 3.554688 10.894531 4.3125 11.183594 C 4.605469 11.300781 4.875 11.464844 5.121094 11.660156 C 5.457031 11.898438 5.632812 12.304688 5.578125 12.710938 C 5.519531 13.121094 5.242188 13.464844 4.855469 13.605469 C 4.40625 13.792969 3.914062 13.859375 3.429688 13.789062 C 2.671875 13.703125 1.9375 13.484375 1.257812 13.140625 C 0.855469 12.933594 0.738281 12.984375 0.601562 13.417969 C 0.480469 13.792969 0.378906 14.171875 0.273438 14.550781 C 0.128906 15.066406 0.179688 15.1875 0.664062 15.425781 C 1.285156 15.707031 1.945312 15.894531 2.621094 15.984375 C 3.148438 16.070312 3.164062 16.09375 3.171875 16.640625 C 3.171875 16.890625 3.171875 17.140625 3.171875 17.386719 C 3.152344 17.519531 3.195312 17.652344 3.289062 17.75 C 3.378906 17.851562 3.511719 17.902344 3.644531 17.890625 C 4.003906 17.890625 4.382812 17.890625 4.746094 17.890625 C 4.875 17.902344 5 17.855469 5.085938 17.761719 C 5.175781 17.671875 5.21875 17.542969 5.199219 17.417969 C 5.199219 17.0625 5.199219 16.734375 5.199219 16.394531 C 5.179688 16.253906 5.214844 16.105469 5.304688 15.992188 C 5.390625 15.875 5.519531 15.800781 5.664062 15.78125 C 6.417969 15.585938 7.09375 15.15625 7.585938 14.550781 C 8.242188 13.738281 8.5 12.675781 8.28125 11.652344 C 8.066406 10.628906 7.402344 9.761719 6.472656 9.285156 Z M 6.480469 9.28125 "/>
<path style=" stroke:none;fill-rule:nonzero;fill:rgb(100%,97.254902%,77.254902%);fill-opacity:1;" d="M 9.714844 7.695312 L 18.367188 7.695312 L 18.367188 15.566406 L 9.714844 15.566406 Z M 9.714844 7.695312 "/>
<path style=" stroke:none;fill-rule:nonzero;fill:rgb(60%,40%,20%);fill-opacity:1;" d="M 16.113281 17.597656 L 12.105469 17.597656 C 10.207031 17.59375 8.671875 16.058594 8.671875 14.164062 L 8.671875 10.152344 C 8.675781 8.261719 10.210938 6.726562 12.105469 6.726562 L 16.113281 6.726562 C 18.007812 6.726562 19.542969 8.261719 19.546875 10.152344 L 19.546875 14.164062 C 19.542969 16.058594 18.007812 17.59375 16.113281 17.597656 Z M 12.105469 9.136719 C 11.542969 9.136719 11.085938 9.59375 11.085938 10.152344 L 11.085938 14.164062 C 11.085938 14.726562 11.539062 15.183594 12.105469 15.1875 L 16.113281 15.1875 C 16.675781 15.183594 17.128906 14.726562 17.128906 14.164062 L 17.128906 10.152344 C 17.125 9.59375 16.671875 9.136719 16.109375 9.136719 Z M 12.105469 9.136719 "/>
</g>
</svg>
