<?xml version="1.0" encoding="UTF-8"?>
<svg xmlns="http://www.w3.org/2000/svg" xmlns:xlink="http://www.w3.org/1999/xlink" width="20px" height="20px" viewBox="0 0 20 20" version="1.1">
<g id="surface1">
<path style=" stroke:none;fill-rule:nonzero;fill:rgb(60%,40%,20%);fill-opacity:1;" d="M 19.753906 9.933594 L 14.199219 6.273438 C 14.128906 6.191406 14.027344 6.144531 13.917969 6.144531 C 13.808594 6.144531 13.707031 6.191406 13.636719 6.273438 C 13.554688 6.355469 13.511719 6.460938 13.515625 6.574219 L 13.515625 8.511719 L 8.578125 8.511719 C 8.46875 8.507812 8.367188 8.554688 8.296875 8.640625 C 8.21875 8.722656 8.175781 8.832031 8.179688 8.941406 L 8.179688 10.8125 C 8.175781 10.921875 8.21875 11.03125 8.296875 11.109375 C 8.367188 11.195312 8.46875 11.242188 8.578125 11.238281 L 13.515625 11.238281 L 13.515625 13.179688 C 13.511719 13.292969 13.554688 13.402344 13.636719 13.480469 C 13.707031 13.566406 13.808594 13.613281 13.917969 13.609375 C 14.027344 13.613281 14.128906 13.566406 14.199219 13.480469 L 19.753906 10.535156 C 19.832031 10.453125 19.875 10.34375 19.871094 10.230469 C 19.875 10.121094 19.832031 10.011719 19.753906 9.933594 Z M 19.753906 9.933594 "/>
<path style=" stroke:none;fill-rule:nonzero;fill:rgb(60%,40%,20%);fill-opacity:1;" d="M 0.9375 13.246094 L 3.402344 9.644531 L 1.328125 6.429688 C 1.164062 6.171875 1.015625 5.90625 0.890625 5.628906 C 0.792969 5.425781 0.742188 5.207031 0.738281 4.984375 C 0.75 4.769531 0.851562 4.566406 1.019531 4.429688 C 1.210938 4.257812 1.457031 4.167969 1.710938 4.175781 C 1.976562 4.164062 2.234375 4.261719 2.425781 4.449219 C 2.695312 4.765625 2.933594 5.105469 3.140625 5.46875 L 4.796875 8.144531 L 6.582031 5.46875 L 6.9375 4.890625 C 7.027344 4.75 7.125 4.613281 7.234375 4.488281 C 7.414062 4.28125 7.675781 4.167969 7.949219 4.175781 C 8.203125 4.164062 8.453125 4.257812 8.640625 4.429688 C 8.8125 4.578125 8.910156 4.796875 8.90625 5.023438 C 8.851562 5.523438 8.65625 5.996094 8.351562 6.394531 L 6.179688 9.644531 L 8.519531 13.246094 C 8.691406 13.496094 8.84375 13.757812 8.976562 14.03125 C 9.066406 14.214844 9.113281 14.417969 9.117188 14.621094 C 9.121094 14.789062 9.074219 14.957031 8.988281 15.105469 C 8.90625 15.253906 8.785156 15.378906 8.632812 15.460938 C 8.46875 15.546875 8.289062 15.589844 8.105469 15.585938 C 7.921875 15.59375 7.738281 15.546875 7.574219 15.457031 C 7.433594 15.375 7.3125 15.261719 7.21875 15.128906 C 7.125 15 6.957031 14.746094 6.710938 14.367188 L 4.769531 11.304688 L 2.710938 14.449219 C 2.550781 14.6875 2.433594 14.863281 2.355469 14.976562 C 2.28125 15.082031 2.203125 15.179688 2.109375 15.269531 C 2.007812 15.367188 1.886719 15.445312 1.753906 15.492188 C 1.609375 15.550781 1.453125 15.578125 1.296875 15.574219 C 1.058594 15.574219 0.828125 15.484375 0.652344 15.320312 C 0.46875 15.132812 0.371094 14.871094 0.386719 14.605469 C 0.433594 14.109375 0.625 13.636719 0.9375 13.246094 Z M 0.9375 13.246094 "/>
</g>
</svg>
