<?xml version="1.0" encoding="UTF-8"?><svg xmlns="http://www.w3.org/2000/svg" width="20px" height="20px" viewBox="0 0 56.41 56.53"><defs><style>.cls-1{font-family:MyriadPro-Bold, 'Myriad Pro';font-size:10.02px;font-weight:700;}.cls-1,.cls-2,.cls-3{fill:#fff;}.cls-2{stroke:#963;stroke-miterlimit:10;}.cls-3,.cls-4{stroke-width:0px;}.cls-4{fill:#963;}</style></defs><g id="Backgrounds"><rect class="cls-3" x="1.22" y="1.36" width="54.02" height="53.74" rx="3.24" ry="3.24"/><path class="cls-4" d="M52,2.36c1.24,0,2.24,1.01,2.24,2.24v47.26c0,1.24-1.01,2.24-2.24,2.24H4.46c-1.24,0-2.24-1.01-2.24-2.24V4.6c0-1.24,1.01-2.24,2.24-2.24h47.54M52,.36H4.46C2.12.36.22,2.26.22,4.6v47.26c0,2.34,1.9,4.24,4.24,4.24h47.54c2.34,0,4.24-1.9,4.24-4.24V4.6c0-2.34-1.9-4.24-4.24-4.24h0Z"/></g><g id="Resources"><g id="Layer_187"><path class="cls-2" d="M46.22,40.9c-1.25-.43-2.6.08-3.29,1.14l-7.88-2.71,7.91-2.63c.68,1.07,2.01,1.58,3.27,1.16,1.48-.49,2.28-2.09,1.79-3.58-.16-.49-.46-.9-.82-1.22.1-.47.09-.97-.07-1.47-.49-1.48-2.09-2.28-3.58-1.79-1.26.42-2.02,1.64-1.92,2.9l-13.11,4.37-12.95-4.46c.29-1.38-.47-2.79-1.83-3.26-1.48-.51-3.09.28-3.59,1.75-.22.63-.19,1.28.02,1.86-.52.33-.94.82-1.16,1.45-.51,1.48.28,3.09,1.75,3.59,1.36.47,2.83-.17,3.45-1.44l7.76,2.67-7.79,2.59c-.6-1.27-2.06-1.93-3.43-1.47-1.48.49-2.28,2.09-1.79,3.58.21.63.63,1.13,1.15,1.47-.21.58-.25,1.23-.04,1.86.49,1.48,2.09,2.28,3.58,1.79,1.37-.46,2.14-1.86,1.87-3.24l12.99-4.33,13.07,4.5c-.11,1.26.64,2.48,1.89,2.91,1.48.51,3.09-.28,3.59-1.75.17-.49.18-.99.09-1.46.37-.32.66-.72.83-1.21.51-1.48-.28-3.09-1.75-3.59Z"/><rect class="cls-3" x="21.08" y="22.28" width="14.79" height="23.68"/><path class="cls-4" d="M47.87,18.05h-6.31c.43-.87.78-1.85,1.04-2.91.69-2.75.59-5.18.59-5.28l-.15-3.5-1.74,3.04c-.9,1.57-2,2.91-3.28,3.98-1.02.86-2.16,1.54-3.38,2.05-.77.32-1.49.52-2.08.65h-7.95c-2.2-.49-6.06-2-8.73-6.68l-1.73-3.04-.15,3.5c0,.1-.1,2.52.59,5.28.27,1.07.61,2.04,1.04,2.91h-6.3l-.02.99c0,.13-.04,3.16,2.19,5.45,1.36,1.41,3.24,2.21,5.6,2.41,0,3.02.44,5.25,1.35,6.79,1.65,2.79,2.06,11.07,2.08,14.03v.25l.12.22c.14.26.55.76,1.72,1.2,1.42.53,3.52.81,6.23.81s4.81-.27,6.23-.81c1.16-.44,1.57-.94,1.72-1.2l.12-.22v-.25c.02-2.96.43-11.24,2.08-14.02.91-1.54,1.35-3.76,1.35-6.79,2.35-.19,4.24-1,5.6-2.41,2.23-2.29,2.19-5.32,2.19-5.45l-.02-.99ZM17.94,18.05c-.91-1.44-1.4-3.16-1.65-4.64.51.56,1.05,1.09,1.63,1.56.85.71,1.77,1.31,2.75,1.81-.62.32-1.33.75-1.9,1.27h-.82ZM20.17,31.28c-.77-.4-.98-1.51-.48-2.46.5-.96,1.53-1.41,2.3-1,.77.4.98,1.5.48,2.46-.5.96-1.53,1.4-2.3,1h0ZM34.66,47.24c-.25.15-.78.39-1.79.59-.54-.79-1.72-1.86-4.23-1.87h0s-.01,0-.02,0c0,0-.01,0-.02,0h0c-2.51.02-3.7,1.09-4.23,1.89-1.04-.2-1.58-.45-1.83-.6,0-.41-.03-1.08-.06-1.92,1.46-1.28,4.1-4.4,4.19-10.31.13-8.21-5.31-9.44-3.3-12.56,2.02-3.12,4.24-2.44,5.25-2.44s3.23-.67,5.25,2.44c2.02,3.12-3.43,4.35-3.3,12.56.1,5.86,2.68,8.97,4.15,10.28-.04.85-.06,1.53-.06,1.95h0ZM37.07,31.28c-.77.4-1.8-.05-2.3-1-.5-.96-.29-2.06.48-2.46.77-.4,1.8.04,2.3,1,.5.96.29,2.06-.48,2.46h0ZM39.25,18.05h-.82c-.57-.51-1.29-.94-1.9-1.27.97-.5,1.89-1.11,2.74-1.81.57-.48,1.12-1,1.63-1.56-.25,1.48-.74,3.2-1.65,4.64h0ZM39.25,18.05"/><circle class="cls-4" cx="21.08" cy="29.83" r="3.3"/><text class="cls-1" transform="translate(17.97 32.16)"><tspan x="0" y="0">+</tspan></text><circle class="cls-4" cx="35.87" cy="29.83" r="3.3"/><text class="cls-1" transform="translate(32.76 32.16)"><tspan x="0" y="0">+</tspan></text></g></g></svg>