<?xml version="1.0" encoding="UTF-8"?>
<svg xmlns="http://www.w3.org/2000/svg" xmlns:xlink="http://www.w3.org/1999/xlink" width="20px" height="20px" viewBox="0 0 20 20" version="1.1">
<g id="surface1">
<path style=" stroke:none;fill-rule:nonzero;fill:rgb(60%,40%,20%);fill-opacity:1;" d="M 18.894531 5.394531 C 18.894531 7.808594 16.9375 9.761719 14.527344 9.761719 C 12.117188 9.761719 10.164062 7.808594 10.164062 5.394531 C 10.164062 2.984375 12.117188 1.03125 14.527344 1.03125 C 16.9375 1.03125 18.894531 2.984375 18.894531 5.394531 Z M 18.894531 5.394531 "/>
<path style=" stroke:none;fill-rule:nonzero;fill:rgb(60%,40%,20%);fill-opacity:1;" d="M 5.863281 11.8125 C 5.464844 12.273438 5.128906 12.785156 4.867188 13.335938 C 4.605469 13.777344 4.484375 14.289062 4.527344 14.804688 C 4.328125 14.9375 4.101562 15.019531 3.859375 15.042969 C 3.371094 15.097656 2.914062 15.324219 2.574219 15.679688 C 2.222656 16.019531 2 16.476562 1.949219 16.964844 C 1.929688 17.289062 1.785156 17.597656 1.546875 17.820312 C 1.394531 17.980469 1.398438 18.238281 1.5625 18.390625 C 1.722656 18.542969 1.976562 18.535156 2.128906 18.375 C 2.46875 18.035156 2.683594 17.585938 2.730469 17.105469 C 2.757812 16.78125 2.898438 16.472656 3.136719 16.246094 C 3.363281 16.007812 3.667969 15.867188 3.996094 15.84375 C 4.386719 15.796875 4.757812 15.640625 5.066406 15.398438 C 5.15625 15.429688 5.246094 15.445312 5.339844 15.445312 C 6.214844 15.445312 7.695312 14.496094 8.113281 14.078125 C 8.734375 13.457031 8.734375 12.453125 8.113281 11.832031 C 7.488281 11.226562 6.5 11.21875 5.863281 11.8125 Z M 5.863281 11.8125 "/>
<path style=" stroke:none;fill-rule:nonzero;fill:rgb(60%,40%,20%);fill-opacity:1;" d="M 13.007812 11.035156 C 12.605469 11.496094 12.269531 12.007812 12.011719 12.558594 C 11.6875 13.226562 11.578125 13.730469 11.679688 14.085938 C 11.441406 14.398438 11.289062 14.769531 11.242188 15.15625 C 11.21875 15.484375 11.074219 15.789062 10.839844 16.019531 C 10.609375 16.242188 10.304688 16.375 9.984375 16.394531 C 9.496094 16.445312 9.042969 16.667969 8.699219 17.019531 C 8.625 17.089844 8.582031 17.191406 8.582031 17.296875 C 8.582031 17.402344 8.625 17.503906 8.699219 17.578125 C 8.773438 17.652344 8.875 17.695312 8.980469 17.695312 C 9.085938 17.695312 9.1875 17.652344 9.261719 17.578125 C 9.488281 17.34375 9.792969 17.199219 10.121094 17.175781 C 11.125 17.058594 11.914062 16.265625 12.03125 15.265625 C 12.054688 15.03125 12.132812 14.804688 12.265625 14.605469 C 12.335938 14.625 12.40625 14.636719 12.480469 14.640625 C 13.355469 14.640625 14.835938 13.6875 15.253906 13.269531 C 15.871094 12.652344 15.871094 11.648438 15.253906 11.027344 C 14.621094 10.429688 13.632812 10.433594 13.007812 11.035156 Z M 13.007812 11.035156 "/>
<path style=" stroke:none;fill-rule:nonzero;fill:rgb(60%,40%,20%);fill-opacity:1;" d="M 5.863281 6.261719 C 5.464844 6.71875 5.128906 7.230469 4.867188 7.777344 C 4.542969 8.449219 4.4375 8.953125 4.535156 9.3125 C 4.296875 9.621094 4.144531 9.992188 4.101562 10.382812 C 4.074219 10.707031 3.933594 11.015625 3.695312 11.242188 C 3.46875 11.472656 3.167969 11.613281 2.84375 11.636719 C 2.355469 11.6875 1.898438 11.910156 1.554688 12.261719 C 1.402344 12.417969 1.402344 12.664062 1.554688 12.820312 C 1.710938 12.980469 1.96875 12.980469 2.128906 12.820312 C 2.355469 12.585938 2.660156 12.441406 2.988281 12.417969 C 3.476562 12.367188 3.929688 12.144531 4.269531 11.792969 C 4.625 11.449219 4.84375 10.996094 4.894531 10.507812 C 4.917969 10.265625 5.003906 10.035156 5.136719 9.835938 C 5.207031 9.855469 5.277344 9.867188 5.351562 9.871094 C 6.226562 9.871094 7.707031 8.921875 8.125 8.503906 C 8.746094 7.882812 8.746094 6.878906 8.125 6.257812 C 7.492188 5.648438 6.496094 5.652344 5.863281 6.261719 Z M 5.863281 6.261719 "/>
</g>
</svg>
