<?xml version="1.0" encoding="UTF-8"?><svg xmlns="http://www.w3.org/2000/svg" width="20px" height="20px" viewBox="0 0 56.41 56.53"><defs><style>.cls-1{font-family:FranklinGothic-Demi, 'Franklin Gothic Demi';font-size:19.77px;font-weight:300;letter-spacing:-.02em;}.cls-1,.cls-2{fill:#963;}.cls-3{fill:#fff;}.cls-3,.cls-2{stroke-width:0px;}</style></defs><g id="Backgrounds"><rect class="cls-3" x="1.22" y="1.36" width="54.02" height="53.74" rx="3.24" ry="3.24"/><path class="cls-2" d="M52,2.36c1.24,0,2.24,1.01,2.24,2.24v47.26c0,1.24-1.01,2.24-2.24,2.24H4.46c-1.24,0-2.24-1.01-2.24-2.24V4.6c0-1.24,1.01-2.24,2.24-2.24h47.54M52,.36H4.46C2.12.36.22,2.26.22,4.6v47.26c0,2.34,1.9,4.24,4.24,4.24h47.54c2.34,0,4.24-1.9,4.24-4.24V4.6c0-2.34-1.9-4.24-4.24-4.24h0Z"/></g><g id="Resources"><g id="Layer_189"><circle class="cls-2" cx="37.73" cy="50.54" r="2.23"/><circle class="cls-2" cx="39.23" cy="48.14" r="2.23"/><circle class="cls-2" cx="34.5" cy="49.47" r="2.23"/><circle class="cls-2" cx="36.39" cy="47.24" r="2.23"/><circle class="cls-2" cx="35.51" cy="45.57" r="2.23"/><path class="cls-2" d="M47.27,13.84h-5.79c.39-.8.71-1.7.96-2.67.63-2.53.55-4.75.54-4.85l-.14-3.21-1.59,2.79c-.82,1.44-1.83,2.67-3.01,3.65-.94.79-1.98,1.42-3.1,1.88-.71.29-1.36.48-1.91.6h-7.3c-2.02-.45-5.57-1.83-8.02-6.13l-1.59-2.79-.14,3.21c0,.09-.09,2.32.54,4.85.24.98.56,1.87.96,2.67h-5.79l-.02.91c0,.12-.03,2.9,2.01,5,1.25,1.29,2.98,2.03,5.14,2.21,0,2.77.41,4.82,1.24,6.23,1.52,2.56,1.89,10.16,1.91,12.88v.23l.11.21c.13.24.51.7,1.58,1.1,1.3.49,3.23.74,5.72.74s4.42-.25,5.72-.74c1.07-.4,1.45-.86,1.58-1.1l.11-.21v-.23c.02-2.71.39-10.32,1.91-12.88.84-1.41,1.24-3.45,1.24-6.23,2.16-.18,3.89-.92,5.14-2.21,2.04-2.1,2.01-4.88,2.01-5l-.02-.91ZM19.8,13.84c-.84-1.33-1.28-2.9-1.51-4.26.47.52.96,1,1.49,1.43.78.65,1.63,1.2,2.52,1.66-.57.3-1.22.69-1.75,1.16h-.75ZM21.84,25.99c-.7-.37-.9-1.38-.44-2.26.46-.88,1.41-1.29,2.11-.92.7.37.9,1.38.44,2.26-.46.88-1.41,1.29-2.11.92h0ZM35.14,40.64c-.23.14-.71.36-1.64.54-.49-.73-1.58-1.71-3.88-1.72h0s-.01,0-.02,0c0,0-.01,0-.02,0h0c-2.31.01-3.4,1-3.88,1.73-.95-.18-1.45-.41-1.68-.55,0-.38-.02-.99-.06-1.76,1.34-1.18,3.76-4.04,3.85-9.47.12-7.53-4.88-8.66-3.03-11.53,1.85-2.86,3.89-2.24,4.82-2.24s2.96-.62,4.82,2.24c1.85,2.86-3.15,3.99-3.03,11.53.09,5.38,2.46,8.24,3.81,9.43-.04.78-.05,1.41-.06,1.79h0ZM37.36,25.99c-.7.37-1.65-.04-2.11-.92-.46-.88-.26-1.89.44-2.26.7-.37,1.65.04,2.11.92.46.88.26,1.89-.44,2.26h0ZM39.36,13.84h-.75c-.53-.47-1.18-.87-1.75-1.16.89-.46,1.74-1.01,2.52-1.66.53-.44,1.03-.92,1.49-1.43-.23,1.36-.68,2.93-1.51,4.26h0ZM39.36,13.84"/><text class="cls-1" transform="translate(5.79 48.15)"><tspan x="0" y="0">C</tspan></text></g></g></svg>