<?xml version="1.0" encoding="UTF-8"?><svg xmlns="http://www.w3.org/2000/svg" width="20px" height="20px" viewBox="0 0 56.41 56.53"><defs><style>.cls-1{fill:#fff;}.cls-1,.cls-2{stroke-width:0px;}.cls-2{fill:#963;}</style></defs><g id="Backgrounds"><rect class="cls-1" x="1.22" y="1.36" width="54.02" height="53.74" rx="3.24" ry="3.24"/><path class="cls-2" d="M52,2.36c1.24,0,2.24,1.01,2.24,2.24v47.26c0,1.24-1.01,2.24-2.24,2.24H4.46c-1.24,0-2.24-1.01-2.24-2.24V4.6c0-1.24,1.01-2.24,2.24-2.24h47.54M52,.36H4.46C2.12.36.22,2.26.22,4.6v47.26c0,2.34,1.9,4.24,4.24,4.24h47.54c2.34,0,4.24-1.9,4.24-4.24V4.6c0-2.34-1.9-4.24-4.24-4.24h0Z"/></g><g id="Resources"><g id="Layer_188"><path class="cls-2" d="M45.03,14.68h-5.18c.35-.72.64-1.52.86-2.39.57-2.26.49-4.25.48-4.34l-.12-2.87-1.43,2.5c-.74,1.29-1.64,2.39-2.69,3.27-.84.7-1.77,1.27-2.78,1.68-.64.26-1.22.43-1.71.53h-6.53c-1.8-.4-4.98-1.64-7.18-5.49l-1.42-2.5-.12,2.87c0,.08-.08,2.07.48,4.34.22.88.51,1.68.86,2.39h-5.18l-.02.81c0,.1-.03,2.59,1.8,4.48,1.12,1.15,2.67,1.82,4.6,1.98,0,2.48.36,4.31,1.11,5.57,1.36,2.29,1.69,9.09,1.71,11.52v.21l.1.18c.12.21.45.63,1.41.99,1.17.44,2.89.66,5.12.66s3.95-.22,5.12-.66c.95-.36,1.29-.77,1.41-.99l.1-.18v-.21c.02-2.43.35-9.23,1.71-11.52.75-1.26,1.11-3.09,1.11-5.58,1.93-.16,3.48-.82,4.6-1.98,1.83-1.88,1.8-4.37,1.8-4.48l-.02-.81ZM20.44,14.68c-.75-1.19-1.15-2.6-1.35-3.81.42.46.86.89,1.34,1.28.7.58,1.46,1.08,2.26,1.49-.51.27-1.09.62-1.56,1.04h-.67ZM22.27,25.55c-.63-.33-.81-1.24-.39-2.02.41-.79,1.26-1.15,1.89-.82.63.33.81,1.24.39,2.02-.41.78-1.26,1.15-1.89.82h0ZM34.18,38.67c-.2.12-.64.32-1.47.49-.44-.65-1.41-1.53-3.47-1.54h0s-.01,0-.02,0c0,0-.01,0-.02,0h0c-2.06.01-3.04.9-3.48,1.55-.85-.16-1.3-.37-1.5-.49,0-.34-.02-.89-.05-1.57,1.2-1.05,3.37-3.62,3.45-8.47.11-6.74-4.37-7.75-2.71-10.32,1.66-2.56,3.48-2.01,4.31-2.01s2.65-.55,4.31,2.01c1.66,2.56-2.82,3.57-2.71,10.32.08,4.81,2.2,7.37,3.41,8.44-.03.7-.05,1.26-.05,1.6h0ZM36.16,25.55c-.63.33-1.48-.04-1.89-.82-.41-.79-.24-1.69.39-2.02.63-.33,1.48.04,1.89.82.41.78.24,1.69-.39,2.02h0ZM37.95,14.68h-.67c-.47-.42-1.06-.77-1.56-1.04.8-.41,1.56-.91,2.25-1.49.47-.39.92-.82,1.34-1.28-.21,1.22-.6,2.63-1.35,3.81h0ZM37.95,14.68"/><path class="cls-2" d="M21.96,44.82c0,1.88,0,3.75,0,5.63,0,2.34,3.33,2.35,3.33,0,0-1.88,0-3.75,0-5.63,0-2.34-3.33-2.35-3.33,0h0Z"/><path class="cls-2" d="M16.92,44.82c0,1.88,0,3.75,0,5.63,0,2.34,3.33,2.35,3.33,0,0-1.88,0-3.75,0-5.63,0-2.34-3.33-2.35-3.33,0h0Z"/><path class="cls-2" d="M12.08,44.82c0,1.88,0,3.75,0,5.63,0,2.34,3.33,2.35,3.33,0,0-1.88,0-3.75,0-5.63,0-2.34-3.33-2.35-3.33,0h0Z"/><path class="cls-2" d="M36.6,44.76v5.63c0,2.34,3.33,2.35,3.33,0,0-1.88,0-3.75,0-5.63,0-2.34-3.33-2.35-3.33,0h0Z"/><path class="cls-2" d="M41.59,44.76c0,1.88,0,3.75,0,5.63,0,2.34,3.33,2.35,3.33,0,0-1.88,0-3.75,0-5.63,0-2.34-3.33-2.35-3.33,0h0Z"/><path class="cls-2" d="M31.56,44.76c0,1.88,0,3.75,0,5.63,0,2.34,3.33,2.35,3.33,0,0-1.88,0-3.75,0-5.63,0-2.34-3.33-2.35-3.33,0h0Z"/><path class="cls-2" d="M26.72,44.76c0,1.88,0,3.75,0,5.63,0,2.34,3.33,2.35,3.33,0,0-1.88,0-3.75,0-5.63,0-2.34-3.33-2.35-3.33,0h0Z"/></g></g></svg>