<?xml version="1.0" encoding="UTF-8"?><svg xmlns="http://www.w3.org/2000/svg" width="20px" height="20px" viewBox="0 0 56.41 56.53"><defs><style>.cls-1{fill:#fff;}.cls-1,.cls-2{stroke-width:0px;}.cls-2{fill:#963;}</style></defs><g id="Backgrounds"><rect class="cls-1" x="1.22" y="1.36" width="54.02" height="53.74" rx="3.24" ry="3.24"/><path class="cls-2" d="M52,2.36c1.24,0,2.24,1.01,2.24,2.24v47.26c0,1.24-1.01,2.24-2.24,2.24H4.46c-1.24,0-2.24-1.01-2.24-2.24V4.6c0-1.24,1.01-2.24,2.24-2.24h47.54M52,.36H4.46C2.12.36.22,2.26.22,4.6v47.26c0,2.34,1.9,4.24,4.24,4.24h47.54c2.34,0,4.24-1.9,4.24-4.24V4.6c0-2.34-1.9-4.24-4.24-4.24h0Z"/></g><g id="Resources"><g id="Layer_175"><path class="cls-2" d="M35.13,47.71h9.81v-25.16h2.19c.66,0,.92-.31,1.01-.5.09-.19.19-.58-.21-1.11l-5.45-7.23c-.28-.37-.67-.58-1.08-.58s-.8.21-1.08.58l-5.45,7.23c-.4.53-.3.92-.21,1.11.09.19.35.5,1.01.5h2.19v25.16h-4.9v-15.55h2.19c.66,0,.92-.31,1.01-.5.09-.19.19-.58-.21-1.11l-5.45-7.23c-.28-.37-.67-.58-1.08-.58s-.8.21-1.08.58l-5.45,7.23c-.4.53-.3.92-.21,1.11.09.19.35.5,1.01.5h2.19v15.55H5.19c-.69,0-1.24.56-1.24,1.24s.56,1.24,1.24,1.24h46.45c.69,0,1.24-.56,1.24-1.24s-.56-1.24-1.24-1.24h-4.35M40.61,47.47h0M41.57,47.71,40.61,47.47"/><path class="cls-2" d="M20.22,49.31v-8.23h2.19c.66,0,.92-.31,1.01-.5.09-.19.19-.58-.21-1.11l-5.45-7.23c-.28-.37-.67-.58-1.08-.58s-.8.21-1.08.58l-5.45,7.23c-.4.53-.3.92-.21,1.11.09.19.35.5,1.01.5h2.19v8.23"/><path class="cls-1" d="M11.99,14.25c-.05-.1-.11-.19-.18-.28-.29-.39-.66-.68-1.11-.88-.33-.15-.76-.3-1.3-.46-.57-.17-1.05-.38-1.42-.6-.28-.17-.5-.39-.67-.68.12.13.25.25.4.35.24.17.49.31.75.41.19.08.5.19.94.33.49.15.92.31,1.3.48.32.14.59.32.8.52.18.17.33.39.44.67.02.04.03.09.05.14Z"/><path class="cls-2" d="M9.46,6.69c-.7,0-1.31.14-1.83.41-.52.27-.92.67-1.19,1.18-.27.51-.41,1.1-.41,1.76,0,.69.13,1.27.39,1.74.26.47.61.83,1.06,1.1.44.27.99.51,1.65.71.49.15.88.29,1.18.42.29.13.53.32.72.57.19.25.28.57.28.97,0,.5-.17.92-.52,1.26-.34.33-.79.5-1.34.5-.4,0-.72-.08-.97-.25-.25-.17-.44-.38-.57-.63-.14-.26-.26-.58-.38-.96-.1-.32-.21-.56-.35-.73-.14-.16-.3-.25-.5-.25-.24,0-.44.1-.6.31-.16.21-.23.46-.23.76,0,.51.13,1.03.39,1.57.26.54.6.97,1.01,1.29.59.45,1.33.67,2.23.67.75,0,1.4-.16,1.95-.49.55-.33.97-.78,1.25-1.36.28-.58.43-1.23.43-1.95,0-.6-.08-1.12-.25-1.53-.16-.42-.39-.76-.69-1.03s-.65-.5-1.07-.7c-.42-.19-.89-.36-1.4-.52-.41-.14-.71-.24-.89-.31-.18-.07-.36-.17-.53-.29-.17-.13-.31-.28-.41-.45-.1-.17-.15-.38-.15-.62,0-.39.15-.72.44-.99.29-.28.68-.41,1.16-.41.52,0,.89.13,1.12.38.23.25.43.61.6,1.06.13.32.25.54.36.68.11.14.27.21.48.21.23,0,.43-.12.58-.35.16-.23.23-.49.23-.78,0-.32-.06-.64-.19-.97-.12-.33-.32-.65-.59-.95-.27-.3-.61-.54-1.02-.73-.41-.18-.9-.27-1.46-.27h0Z"/><path class="cls-1" d="M22.49,15.09c0,.38-.07.79-.22,1.24s-.37.88-.68,1.31c-.31.43-.7.78-1.18,1.04s-1.04.4-1.67.4c-.48,0-.92-.06-1.32-.18-.4-.12-.75-.31-1.08-.56-.32-.25-.62-.59-.89-1-.24-.38-.45-.8-.62-1.26-.17-.47-.3-.96-.38-1.49-.09-.53-.13-1.09-.13-1.68,0-.96.11-1.83.32-2.59s.52-1.42.92-1.96c.4-.54.87-.96,1.4-1.24.54-.28,1.11-.43,1.72-.43.74,0,1.4.19,1.98.58s1.02.87,1.33,1.43c.31.57.46,1.11.46,1.62,0,.28-.07.52-.22.74-.15.21-.33.32-.54.32-.24,0-.42-.07-.53-.22-.12-.15-.25-.4-.4-.76-.24-.59-.53-1.04-.85-1.33s-.73-.44-1.21-.44c-.76,0-1.37.38-1.82,1.14-.45.76-.68,1.83-.68,3.23,0,.93.1,1.71.3,2.33.2.62.48,1.08.85,1.39.37.31.79.46,1.29.46.53,0,.98-.17,1.35-.52s.65-.85.83-1.52c.08-.32.18-.57.29-.77.12-.2.3-.3.56-.3.22,0,.41.1.57.3s.24.45.24.75Z"/><path class="cls-2" d="M18.69,6.69c-.61,0-1.18.14-1.72.43-.54.28-1,.7-1.4,1.24-.4.54-.71,1.2-.92,1.96-.21.76-.32,1.63-.32,2.59,0,.59.04,1.16.13,1.68.09.53.21,1.03.38,1.49.17.47.38.89.62,1.26.27.41.57.75.89,1,.32.25.68.44,1.08.56.4.12.83.18,1.32.18.64,0,1.19-.13,1.67-.4.48-.27.87-.61,1.18-1.04.31-.43.53-.86.68-1.31.14-.44.22-.86.22-1.24,0-.3-.08-.55-.24-.75-.16-.2-.35-.3-.57-.3-.26,0-.45.1-.56.3-.12.2-.21.46-.29.77-.19.67-.47,1.18-.83,1.52-.37.35-.82.52-1.35.52-.49,0-.92-.15-1.29-.46-.37-.31-.65-.77-.85-1.39-.2-.62-.3-1.39-.3-2.33,0-1.4.23-2.47.68-3.23.45-.76,1.06-1.14,1.82-1.14.48,0,.88.15,1.21.44.33.29.61.74.85,1.33.15.36.28.61.4.76.12.15.3.22.53.22.21,0,.39-.11.54-.32.15-.21.22-.46.22-.74,0-.51-.15-1.05-.46-1.62-.31-.57-.75-1.05-1.33-1.43-.58-.39-1.24-.58-1.98-.58h0Z"/><path class="cls-1" d="M30.01,17.52l-.44-1.5h-3.72l-.44,1.54c-.17.6-.32,1-.44,1.21s-.32.31-.59.31c-.23,0-.44-.11-.62-.34-.18-.22-.27-.48-.27-.76,0-.16.02-.33.06-.51s.11-.42.21-.73l2.34-7.78c.07-.22.15-.49.24-.81.09-.31.19-.57.3-.78.11-.21.25-.37.42-.5.17-.13.39-.19.64-.19s.47.06.65.19c.17.13.31.29.42.49.11.2.2.42.27.65.07.23.16.54.28.93l2.39,7.73c.19.59.28,1.02.28,1.28s-.09.53-.26.76-.39.35-.64.35c-.14,0-.27-.03-.37-.1-.1-.07-.19-.16-.26-.28-.07-.12-.15-.3-.23-.54-.08-.24-.15-.46-.21-.64ZM26.34,14.19h2.73l-1.38-4.95-1.35,4.95Z"/><path class="cls-2" d="M27.71,6.69c-.25,0-.47.06-.64.19-.17.13-.31.3-.42.5-.11.21-.21.47-.3.78-.09.31-.17.58-.24.81l-2.34,7.78c-.1.31-.16.55-.21.73-.04.17-.06.34-.06.51,0,.28.09.54.27.76.18.22.38.34.62.34.27,0,.47-.1.59-.31.12-.21.27-.61.44-1.21l.44-1.54h3.72l.44,1.5c.06.19.13.4.21.64.08.24.16.42.23.54.07.12.16.21.26.28.1.07.23.1.37.1.25,0,.46-.12.64-.35.18-.23.26-.49.26-.76s-.09-.69-.28-1.28l-2.39-7.73c-.11-.39-.21-.7-.28-.93-.07-.23-.16-.45-.27-.65-.11-.2-.25-.37-.42-.49-.17-.13-.39-.19-.65-.19h0ZM26.34,14.19l1.35-4.95,1.38,4.95h-2.73Z"/></g></g></svg>