<?xml version="1.0" encoding="UTF-8"?><svg xmlns="http://www.w3.org/2000/svg" width="20px" height="20px" viewBox="0 0 56.41 56.53"><defs><style>.cls-1{fill:#fff;}.cls-1,.cls-2{stroke-width:0px;}.cls-2{fill:#963;}</style></defs><g id="Backgrounds"><rect class="cls-1" x="1.22" y="1.36" width="54.02" height="53.74" rx="3.24" ry="3.24"/><path class="cls-2" d="M52,2.36c1.24,0,2.24,1.01,2.24,2.24v47.26c0,1.24-1.01,2.24-2.24,2.24H4.46c-1.24,0-2.24-1.01-2.24-2.24V4.6c0-1.24,1.01-2.24,2.24-2.24h47.54M52,.36H4.46C2.12.36.22,2.26.22,4.6v47.26c0,2.34,1.9,4.24,4.24,4.24h47.54c2.34,0,4.24-1.9,4.24-4.24V4.6c0-2.34-1.9-4.24-4.24-4.24h0Z"/></g><g id="Resources"><g id="Layer_173"><path class="cls-2" d="M8.58,22.18c0,.89.17,1.73.51,2.52.34.79.8,1.47,1.38,2.05.58.58,1.26,1.04,2.03,1.38.77.34,1.6.51,2.5.51s1.73-.17,2.52-.51c.79-.34,1.47-.8,2.05-1.38.58-.58,1.04-1.27,1.38-2.05.34-.79.51-1.62.51-2.52s-.17-1.73-.51-2.52c-.34-.79-.8-1.47-1.38-2.05-.58-.58-1.27-1.04-2.05-1.38-.79-.34-1.62-.51-2.52-.51s-1.73.17-2.5.51c-.77.34-1.45.8-2.03,1.38-.58.58-1.04,1.27-1.38,2.05-.34.79-.51,1.62-.51,2.52h0ZM25.81,22.18c0,1.3-.22,2.54-.67,3.72-.45,1.18-1.06,2.23-1.85,3.17-.79.93-1.71,1.73-2.76,2.38-1.06.65-2.21,1.1-3.45,1.34v3.33h2.8c.6,0,1.1.2,1.5.61.41.41.61.92.61,1.54s-.2,1.14-.61,1.54c-.41.41-.91.61-1.5.61h-2.8v2.97c0,.6-.2,1.1-.61,1.5-.46.41-.97.61-1.54.61s-1.08-.2-1.54-.61c-.41-.41-.61-.91-.61-1.5v-2.97h-2.64c-.57,0-1.06-.22-1.48-.65-.42-.43-.63-.93-.63-1.5s.2-1.08.61-1.54c.41-.41.91-.61,1.5-.61h2.64v-3.37c-1.22-.27-2.35-.72-3.39-1.36-1.04-.64-1.94-1.42-2.7-2.36-.76-.93-1.35-1.98-1.79-3.15-.43-1.16-.65-2.4-.65-3.7,0-1.49.28-2.89.85-4.2.57-1.31,1.34-2.46,2.32-3.43.97-.97,2.11-1.75,3.41-2.32,1.3-.57,2.69-.85,4.18-.85s2.89.28,4.2.85c1.31.57,2.46,1.34,3.43,2.32.97.97,1.75,2.12,2.32,3.43.57,1.31.85,2.71.85,4.2h0ZM25.81,22.18"/><path class="cls-2" d="M50.6,16.48h-7.34c-1.1,0-2,.9-2,2.01s.89,2.01,2,2.01h2.52l-5.6,5.62c-1.73-1.18-3.76-1.81-5.9-1.81-2.81,0-5.45,1.1-7.44,3.1-4.1,4.12-4.1,10.84,0,14.96,1.99,2,4.63,3.1,7.44,3.1s5.45-1.1,7.44-3.1c3.62-3.64,4.05-9.29,1.28-13.41l5.6-5.63v2.53c0,1.11.89,2.01,2,2.01s2-.9,2-2.01v-7.38c0-1.11-.89-2.01-2-2.01h0ZM38.91,39.53c-1.23,1.24-2.87,1.92-4.62,1.92s-3.39-.68-4.62-1.92c-2.55-2.56-2.55-6.72,0-9.28,1.23-1.24,2.87-1.92,4.62-1.92s3.38.68,4.62,1.92c2.55,2.56,2.55,6.72,0,9.28h0ZM38.91,39.53"/></g></g></svg>