<?xml version="1.0" encoding="UTF-8"?><svg xmlns="http://www.w3.org/2000/svg" xmlns:xlink="http://www.w3.org/1999/xlink" width="20px" height="20px" viewBox="0 0 56.41 56.53"><defs><style>.cls-1{fill:none;}.cls-1,.cls-2,.cls-3{stroke-width:0px;}.cls-2{fill:#fff;}.cls-3{fill:#963;}.cls-4{clip-path:url(#clippath);}</style><clipPath id="clippath"><rect id="SVGID" class="cls-1" x="11.32" y="4.19" width="34.02" height="49.96"/></clipPath></defs><g id="Backgrounds"><rect class="cls-2" x="1.22" y="1.36" width="54.02" height="53.74" rx="3.24" ry="3.24"/><path class="cls-3" d="M52,2.36c1.24,0,2.24,1.01,2.24,2.24v47.26c0,1.24-1.01,2.24-2.24,2.24H4.46c-1.24,0-2.24-1.01-2.24-2.24V4.6c0-1.24,1.01-2.24,2.24-2.24h47.54M52,.36H4.46C2.12.36.22,2.26.22,4.6v47.26c0,2.34,1.9,4.24,4.24,4.24h47.54c2.34,0,4.24-1.9,4.24-4.24V4.6c0-2.34-1.9-4.24-4.24-4.24h0Z"/></g><g id="Resources"><g id="Layer_3"><path class="cls-3" d="M28.2,13.33c-.69,0-1.25.56-1.25,1.25v3.65c0,.69.56,1.25,1.25,1.25s1.25-.56,1.25-1.25v-3.65c0-.69-.56-1.25-1.25-1.25h0ZM28.2,13.33"/><g class="cls-4"><path class="cls-3" d="M20.04,30.96c-.49-.49-1.27-.49-1.76,0-.49.49-.49,1.27,0,1.76l2.58,2.58c.49.49,1.27.49,1.76,0,.49-.49.49-1.27,0-1.76l-2.58-2.58ZM20.04,30.96"/><path class="cls-3" d="M45.2,25.21c-.08-.55-.51-.98-1.06-1.06-6.01-.85-11.6,1.94-14.69,6.73v-2.92c3.49-2.85,5.47-7.03,5.47-11.56s-2.18-9.1-5.97-11.95c-.44-.33-1.05-.33-1.5,0-3.79,2.85-5.97,7.21-5.97,11.95s1.99,8.71,5.47,11.56v2.52c-3.21-4.64-8.68-7.14-14.42-6.32-.55.08-.98.51-1.06,1.06-1.33,9.39,6.24,17.48,15.48,17.03v10.46c0,.69.56,1.25,1.25,1.25s1.25-.56,1.25-1.25v-10.48c9.35.62,17.1-7.52,15.75-17.02h0ZM26.96,39.75c-7.45.42-13.6-5.79-13.11-13.23,6.62-.43,12.18,4.36,13.11,10.54v2.69ZM28.2,25.75c-2.7-2.37-4.23-5.72-4.23-9.35s1.53-6.99,4.23-9.35c2.7,2.37,4.23,5.72,4.23,9.35s-1.53,6.99-4.23,9.35h0ZM29.61,39.75c-.49-7.46,5.71-13.72,13.23-13.23.49,7.49-5.73,13.72-13.23,13.23h0ZM29.61,39.75"/></g><path class="cls-3" d="M36.63,30.96l-2.58,2.58c-.49.49-.49,1.28,0,1.76.49.49,1.27.49,1.76,0l2.58-2.58c.49-.49.49-1.27,0-1.76s-1.27-.49-1.76,0h0ZM36.63,30.96"/></g></g></svg>