<?xml version="1.0" encoding="UTF-8"?>
<svg xmlns="http://www.w3.org/2000/svg" xmlns:xlink="http://www.w3.org/1999/xlink" width="20px" height="20px" viewBox="0 0 20 20" version="1.1">
<g id="surface1">
<path style=" stroke:none;fill-rule:nonzero;fill:rgb(100%,97.254902%,77.254902%);fill-opacity:1;" d="M 1.519531 0.355469 L 18.5 0.355469 C 19.140625 0.355469 19.65625 0.875 19.65625 1.515625 L 19.65625 18.441406 C 19.65625 19.082031 19.140625 19.601562 18.5 19.601562 L 1.519531 19.601562 C 0.882812 19.601562 0.363281 19.082031 0.363281 18.441406 L 0.363281 1.515625 C 0.363281 0.875 0.882812 0.355469 1.519531 0.355469 Z M 1.519531 0.355469 "/>
<path style=" stroke:none;fill-rule:nonzero;fill:rgb(60%,40%,20%);fill-opacity:1;" d="M 18.5 0.714844 C 18.941406 0.714844 19.300781 1.074219 19.300781 1.515625 L 19.300781 18.441406 C 19.300781 18.65625 19.21875 18.863281 19.066406 19.011719 C 18.917969 19.164062 18.714844 19.25 18.5 19.25 L 1.519531 19.25 C 1.082031 19.246094 0.722656 18.890625 0.722656 18.449219 L 0.722656 1.515625 C 0.722656 1.074219 1.082031 0.714844 1.519531 0.714844 L 18.5 0.714844 M 18.5 0 L 1.519531 0 C 0.683594 0 0.0078125 0.679688 0.0078125 1.515625 L 0.0078125 18.441406 C 0.00390625 18.847656 0.164062 19.234375 0.449219 19.519531 C 0.730469 19.804688 1.117188 19.964844 1.519531 19.964844 L 18.5 19.964844 C 19.335938 19.964844 20.015625 19.285156 20.015625 18.449219 L 20.015625 1.515625 C 20.015625 0.679688 19.335938 0 18.5 0 Z M 18.5 0 "/>
<path style=" stroke:none;fill-rule:nonzero;fill:rgb(60%,40%,20%);fill-opacity:1;" d="M 17.425781 5.988281 L 14.949219 5.988281 C 15.121094 5.625 15.253906 5.238281 15.34375 4.847656 C 15.511719 4.167969 15.589844 3.472656 15.574219 2.773438 L 15.53125 1.394531 L 14.851562 2.59375 C 14.515625 3.1875 14.078125 3.714844 13.558594 4.15625 C 13.160156 4.492188 12.714844 4.765625 12.234375 4.964844 C 11.972656 5.070312 11.699219 5.160156 11.421875 5.222656 L 8.296875 5.222656 C 6.828125 4.878906 5.582031 3.921875 4.867188 2.597656 L 4.1875 1.394531 L 4.128906 2.773438 C 4.113281 3.472656 4.191406 4.167969 4.359375 4.847656 C 4.457031 5.242188 4.59375 5.625 4.769531 5.988281 L 2.292969 5.988281 L 2.292969 6.378906 C 2.304688 7.175781 2.609375 7.9375 3.148438 8.519531 C 3.742188 9.09375 4.519531 9.429688 5.34375 9.460938 C 5.34375 10.648438 5.519531 11.519531 5.875 12.125 C 6.519531 13.222656 6.683594 16.472656 6.6875 17.632812 L 6.6875 17.730469 L 6.738281 17.820312 C 6.902344 18.050781 7.140625 18.21875 7.414062 18.292969 C 8.207031 18.535156 9.035156 18.640625 9.859375 18.605469 C 10.6875 18.640625 11.515625 18.535156 12.308594 18.292969 C 12.582031 18.21875 12.820312 18.050781 12.980469 17.820312 L 13.027344 17.730469 L 13.027344 17.632812 C 13.027344 16.472656 13.195312 13.222656 13.847656 12.125 C 14.203125 11.519531 14.378906 10.648438 14.378906 9.460938 C 15.199219 9.433594 15.980469 9.105469 16.574219 8.535156 C 17.117188 7.953125 17.421875 7.1875 17.4375 6.394531 Z M 5.675781 5.988281 C 5.34375 5.429688 5.125 4.8125 5.027344 4.167969 C 5.226562 4.386719 5.4375 4.59375 5.664062 4.78125 C 5.996094 5.058594 6.355469 5.296875 6.734375 5.496094 C 6.46875 5.632812 6.21875 5.796875 5.988281 5.992188 Z M 6.550781 11.1875 C 6.238281 10.964844 6.15625 10.539062 6.363281 10.21875 C 6.511719 9.867188 6.90625 9.695312 7.265625 9.824219 C 7.574219 10.046875 7.660156 10.472656 7.453125 10.792969 C 7.304688 11.144531 6.90625 11.316406 6.550781 11.1875 Z M 12.238281 17.464844 C 12.015625 17.582031 11.773438 17.660156 11.523438 17.695312 C 11.3125 17.386719 10.851562 16.980469 9.867188 16.960938 L 9.851562 16.960938 C 8.859375 16.960938 8.394531 17.390625 8.1875 17.699219 C 7.941406 17.660156 7.703125 17.582031 7.484375 17.464844 C 7.484375 17.304688 7.484375 17.042969 7.464844 16.714844 C 8.039062 16.210938 9.070312 14.984375 9.109375 12.664062 C 9.160156 9.449219 7.023438 8.957031 7.8125 7.734375 C 8.605469 6.515625 9.472656 6.75 9.867188 6.75 C 10.265625 6.75 11.136719 6.484375 11.929688 7.710938 C 12.722656 8.9375 10.582031 9.417969 10.632812 12.640625 C 10.671875 14.9375 11.6875 16.160156 12.265625 16.675781 C 12.265625 17.007812 12.242188 17.273438 12.238281 17.4375 Z M 13.199219 11.1875 C 12.84375 11.316406 12.445312 11.144531 12.296875 10.792969 C 12.089844 10.472656 12.175781 10.046875 12.484375 9.824219 C 12.84375 9.695312 13.242188 9.867188 13.390625 10.21875 C 13.59375 10.539062 13.511719 10.964844 13.199219 11.1875 Z M 14.058594 5.988281 L 13.734375 5.988281 C 13.507812 5.792969 13.257812 5.628906 12.988281 5.492188 C 13.371094 5.292969 13.730469 5.054688 14.0625 4.777344 C 14.289062 4.589844 14.503906 4.382812 14.699219 4.164062 C 14.601562 4.808594 14.382812 5.425781 14.054688 5.984375 Z M 14.058594 5.988281 "/>
</g>
</svg>
