<?xml version="1.0" encoding="UTF-8"?>
<svg xmlns="http://www.w3.org/2000/svg" xmlns:xlink="http://www.w3.org/1999/xlink" width="20px" height="20px" viewBox="0 0 20 20" version="1.1">
<g id="surface1">
<path style=" stroke:none;fill-rule:nonzero;fill:rgb(60%,40%,20%);fill-opacity:1;" d="M 18.765625 5.625 C 18.765625 8.035156 16.808594 9.988281 14.398438 9.988281 C 11.988281 9.988281 10.035156 8.035156 10.035156 5.625 C 10.035156 3.214844 11.988281 1.261719 14.398438 1.261719 C 16.808594 1.261719 18.765625 3.214844 18.765625 5.625 Z M 18.765625 5.625 "/>
<path style=" stroke:none;fill-rule:nonzero;fill:rgb(60%,40%,20%);fill-opacity:1;" d="M 5.738281 12.042969 C 5.339844 12.5 5.003906 13.011719 4.742188 13.5625 C 4.472656 14.003906 4.347656 14.515625 4.386719 15.03125 C 4.1875 15.164062 3.957031 15.25 3.71875 15.269531 C 2.714844 15.390625 1.921875 16.179688 1.804688 17.183594 C 1.785156 17.507812 1.648438 17.8125 1.414062 18.042969 C 1.339844 18.117188 1.296875 18.21875 1.296875 18.324219 C 1.296875 18.429688 1.339844 18.53125 1.414062 18.605469 C 1.570312 18.761719 1.820312 18.761719 1.976562 18.605469 C 2.328125 18.261719 2.546875 17.808594 2.601562 17.316406 C 2.621094 16.992188 2.765625 16.683594 3 16.457031 C 3.226562 16.222656 3.535156 16.078125 3.859375 16.054688 C 4.25 16.007812 4.621094 15.855469 4.933594 15.609375 C 5.019531 15.640625 5.109375 15.65625 5.203125 15.65625 C 6.078125 15.65625 7.5625 14.707031 7.980469 14.289062 C 8.597656 13.667969 8.597656 12.664062 7.980469 12.042969 C 7.351562 11.445312 6.367188 11.445312 5.738281 12.042969 Z M 5.738281 12.042969 "/>
<path style=" stroke:none;fill-rule:nonzero;fill:rgb(60%,40%,20%);fill-opacity:1;" d="M 12.882812 11.25 C 12.480469 11.707031 12.144531 12.21875 11.886719 12.769531 C 11.5625 13.4375 11.453125 13.941406 11.554688 14.304688 C 11.3125 14.613281 11.160156 14.984375 11.113281 15.375 C 11.085938 15.699219 10.941406 16.003906 10.699219 16.226562 C 10.472656 16.460938 10.167969 16.605469 9.839844 16.628906 C 9.351562 16.679688 8.898438 16.898438 8.558594 17.25 C 8.398438 17.40625 8.398438 17.660156 8.554688 17.820312 C 8.710938 17.976562 8.96875 17.976562 9.125 17.820312 C 9.351562 17.582031 9.65625 17.433594 9.984375 17.410156 C 10.472656 17.355469 10.929688 17.136719 11.273438 16.785156 C 11.625 16.441406 11.847656 15.984375 11.894531 15.496094 C 11.917969 15.257812 11.996094 15.027344 12.128906 14.828125 C 12.195312 14.847656 12.269531 14.859375 12.339844 14.863281 C 13.214844 14.863281 14.695312 13.910156 15.113281 13.492188 C 15.734375 12.875 15.734375 11.871094 15.113281 11.25 C 14.488281 10.65625 13.507812 10.65625 12.882812 11.25 Z M 12.882812 11.25 "/>
<path style=" stroke:none;fill-rule:nonzero;fill:rgb(60%,40%,20%);fill-opacity:1;" d="M 4.417969 0.511719 L 4.417969 3.308594 L 7.101562 3.308594 L 7.101562 4.515625 L 4.417969 4.515625 L 4.417969 7.339844 L 3.160156 7.339844 L 3.160156 4.515625 L 0.476562 4.515625 L 0.476562 3.308594 L 3.160156 3.308594 L 3.160156 0.511719 Z M 4.417969 0.511719 "/>
</g>
</svg>
