<?xml version="1.0" encoding="UTF-8"?><svg xmlns="http://www.w3.org/2000/svg" width="20px" height="20px" viewBox="0 0 56.41 56.53"><defs><style>.cls-1{fill:#fff;}.cls-1,.cls-2{stroke-width:0px;}.cls-2{fill:#963;}</style></defs><g id="Backgrounds"><rect class="cls-1" x="1.22" y="1.36" width="54.02" height="53.74" rx="3.24" ry="3.24"/><path class="cls-2" d="M52,2.36c1.24,0,2.24,1.01,2.24,2.24v47.26c0,1.24-1.01,2.24-2.24,2.24H4.46c-1.24,0-2.24-1.01-2.24-2.24V4.6c0-1.24,1.01-2.24,2.24-2.24h47.54M52,.36H4.46C2.12.36.22,2.26.22,4.6v47.26c0,2.34,1.9,4.24,4.24,4.24h47.54c2.34,0,4.24-1.9,4.24-4.24V4.6c0-2.34-1.9-4.24-4.24-4.24h0Z"/></g><g id="Resources"><g id="Layer_186"><path class="cls-2" d="M51.47,16.87c0,12.64-10.25,22.89-22.89,22.89S5.69,29.51,5.69,16.87"/><path class="cls-2" d="M24.67,28.32v15.65c0,5.03,7.82,5.04,7.82,0v-15.65c0-5.03-7.82-5.04-7.82,0h0Z"/><path class="cls-2" d="M32.59,26.47c2.54,5.11,5.07,10.22,7.61,15.34,2.24,4.51,8.98.55,6.75-3.95-2.54-5.11-5.07-10.22-7.61-15.34-2.24-4.51-8.98-.55-6.75,3.95h0Z"/><path class="cls-2" d="M17.85,22.9c-2.54,5.11-5.07,10.22-7.61,15.34-2.23,4.49,4.51,8.46,6.75,3.95,2.54-5.11,5.07-10.22,7.61-15.34,2.23-4.49-4.51-8.46-6.75-3.95h0Z"/></g></g></svg>