<?xml version="1.0" encoding="UTF-8"?><svg xmlns="http://www.w3.org/2000/svg" width="20px" height="20px" viewBox="0 0 56.41 56.53"><defs><style>.cls-1{letter-spacing:-.03em;}.cls-2{font-size:19.77px;}.cls-2,.cls-3{font-family:FranklinGothic-Demi, 'Franklin Gothic Demi';font-weight:300;}.cls-2,.cls-3,.cls-4{fill:#963;}.cls-5{letter-spacing:-.02em;}.cls-6{fill:#198596;}.cls-6,.cls-7,.cls-4{stroke-width:0px;}.cls-3{font-size:13.27px;letter-spacing:-.02em;}.cls-7{fill:#fff;}</style></defs><g id="Backgrounds"><rect class="cls-7" x="1.22" y="1.36" width="54.02" height="53.74" rx="3.24" ry="3.24"/><path class="cls-4" d="M52,2.36c1.24,0,2.24,1.01,2.24,2.24v47.26c0,1.24-1.01,2.24-2.24,2.24H4.46c-1.24,0-2.24-1.01-2.24-2.24V4.6c0-1.24,1.01-2.24,2.24-2.24h47.54M52,.36H4.46C2.12.36.22,2.26.22,4.6v47.26c0,2.34,1.9,4.24,4.24,4.24h47.54c2.34,0,4.24-1.9,4.24-4.24V4.6c0-2.34-1.9-4.24-4.24-4.24h0Z"/></g><g id="Activities"><g id="Layer_49"><path class="cls-6" d="M35.19,47.62h9.81v-25.16h2.19c.66,0,.92-.31,1.01-.5.09-.19.19-.58-.21-1.11l-5.45-7.23c-.28-.37-.67-.58-1.08-.58s-.8.21-1.08.58l-5.45,7.23c-.4.53-.3.92-.21,1.11.09.19.35.5,1.01.5h2.19v25.16h-4.9v-15.55h2.19c.66,0,.92-.31,1.01-.5.09-.19.19-.58-.21-1.11l-5.45-7.23c-.28-.37-.67-.58-1.08-.58s-.8.21-1.08.58l-5.45,7.23c-.4.53-.3.92-.21,1.11.09.19.35.5,1.01.5h2.19v15.55H5.25c-.69,0-1.24.56-1.24,1.24s.56,1.24,1.24,1.24h46.45c.69,0,1.24-.56,1.24-1.24s-.56-1.24-1.24-1.24h-4.35M40.67,47.38h0M41.63,47.62,40.67,47.38"/><path class="cls-6" d="M20.28,49.22v-8.23h2.19c.66,0,.92-.31,1.01-.5.09-.19.19-.58-.21-1.11l-5.45-7.23c-.28-.37-.67-.58-1.08-.58s-.8.21-1.08.58l-5.45,7.23c-.4.53-.3.92-.21,1.11.09.19.35.5,1.01.5h2.19v8.23"/></g></g><g id="Resources"><g id="Layer_174"><path class="cls-4" d="M35.13,47.71h9.81v-25.16h2.19c.66,0,.92-.31,1.01-.5.09-.19.19-.58-.21-1.11l-5.45-7.23c-.28-.37-.67-.58-1.08-.58s-.8.21-1.08.58l-5.45,7.23c-.4.53-.3.92-.21,1.11.09.19.35.5,1.01.5h2.19v25.16h-4.9v-15.55h2.19c.66,0,.92-.31,1.01-.5.09-.19.19-.58-.21-1.11l-5.45-7.23c-.28-.37-.67-.58-1.08-.58s-.8.21-1.08.58l-5.45,7.23c-.4.53-.3.92-.21,1.11.09.19.35.5,1.01.5h2.19v15.55H5.19c-.69,0-1.24.56-1.24,1.24s.56,1.24,1.24,1.24h46.45c.69,0,1.24-.56,1.24-1.24s-.56-1.24-1.24-1.24h-4.35M40.61,47.47h0M41.57,47.71,40.61,47.47"/><path class="cls-4" d="M20.22,49.31v-8.23h2.19c.66,0,.92-.31,1.01-.5.09-.19.19-.58-.21-1.11l-5.45-7.23c-.28-.37-.67-.58-1.08-.58s-.8.21-1.08.58l-5.45,7.23c-.4.53-.3.92-.21,1.11.09.19.35.5,1.01.5h2.19v8.23"/></g><g id="Layer_182"><g id="Layer_183"><text class="cls-3" transform="translate(4.82 29.38)"><tspan x="0" y="0">I</tspan></text><text class="cls-2" transform="translate(4.79 18.15)"><tspan class="cls-1" x="0" y="0">2</tspan><tspan class="cls-5" x="11.04" y="0">4</tspan></text></g></g></g></svg>