<?xml version="1.0" encoding="UTF-8" standalone="no"?>
<!DOCTYPE svg PUBLIC "-//W3C//DTD SVG 1.1//EN" "http://www.w3.org/Graphics/SVG/1.1/DTD/svg11.dtd">
<svg width="20px" height="20px" viewBox="0 0 57 57" version="1.1" xmlns="http://www.w3.org/2000/svg" xmlns:xlink="http://www.w3.org/1999/xlink" xml:space="preserve" xmlns:serif="http://www.serif.com/" style="fill-rule:evenodd;clip-rule:evenodd;stroke-linejoin:round;stroke-miterlimit:2;">
    <g id="Border">
        <g transform="matrix(1,0,0,1,4.2925,1.1942)">
            <path d="M0,53.738C-1.787,53.738 -3.241,52.284 -3.241,50.497L-3.241,3.241C-3.241,1.454 -1.787,0 0,0L47.541,0C49.328,0 50.782,1.454 50.782,3.241L50.782,50.497C50.782,52.284 49.328,53.738 47.541,53.738L0,53.738Z" style="fill:white;fill-rule:nonzero;"/>
        </g>
        <g id="ResourceBorder" transform="matrix(1,0,0,1,51.8335,55.9322)">
            <path d="M0,-55.738L-47.541,-55.738C-49.883,-55.738 -51.782,-53.839 -51.782,-51.497L-51.782,-4.241C-51.782,-1.899 -49.883,0 -47.541,0L0,0C2.342,0 4.241,-1.899 4.241,-4.241L4.241,-51.497C4.241,-53.839 2.342,-55.738 0,-55.738M0,-53.738C1.236,-53.738 2.241,-52.733 2.241,-51.497L2.241,-4.241C2.241,-3.006 1.236,-2 0,-2L-47.541,-2C-48.777,-2 -49.782,-3.006 -49.782,-4.241L-49.782,-51.497C-49.782,-52.733 -48.777,-53.738 -47.541,-53.738L0,-53.738Z" style="fill:rgb(153,102,51);fill-rule:nonzero;"/>
        </g>
    </g>
    <g id="RuminantParameters">
        <g id="Layer-154" serif:id="Layer 154">
            <g transform="matrix(1,0,0,1,40.4433,15.6994)">
                <path d="M-1.484,31.857L8.327,31.857L8.327,14.696L10.515,14.696C11.177,14.696 11.433,14.382 11.526,14.195C11.619,14.007 11.716,13.614 11.318,13.085L5.866,5.851C5.59,5.485 5.198,5.276 4.79,5.276C4.382,5.276 3.99,5.485 3.715,5.851L-1.737,13.085C-2.136,13.614 -2.039,14.007 -1.946,14.195C-1.853,14.382 -1.597,14.696 -0.934,14.696L1.253,14.696L1.253,31.857L-3.648,31.857L-3.648,24.303L-1.461,24.303C-0.799,24.303 -0.543,23.989 -0.45,23.801C-0.356,23.614 -0.259,23.22 -0.658,22.692L-6.11,15.458C-6.385,15.092 -6.777,14.882 -7.185,14.882C-7.593,14.882 -7.985,15.092 -8.261,15.458L-13.713,22.692C-14.112,23.221 -14.015,23.614 -13.921,23.801C-13.828,23.989 -13.573,24.303 -12.91,24.303L-10.723,24.303L-10.723,31.857L-35.424,31.857C-36.111,31.857 -36.668,32.414 -36.668,33.101C-36.668,33.788 -36.111,34.345 -35.424,34.345L11.028,34.345C11.716,34.345 12.272,33.788 12.272,33.101C12.272,32.414 11.715,31.857 11.028,31.857L6.675,31.857" style="fill:rgb(153,102,51);fill-rule:nonzero;"/>
            </g>
            <g transform="matrix(1,0,0,1,20.3092,34)">
                <path d="M4,15.653L4,14.421L6.187,14.421C6.849,14.421 7.105,14.107 7.199,13.919C7.292,13.732 7.389,13.338 6.99,12.81L1.538,5.576C1.263,5.21 0.871,5 0.463,5C0.055,5 -0.337,5.21 -0.613,5.576L-6.065,12.81C-6.464,13.339 -6.366,13.732 -6.273,13.919C-6.18,14.107 -5.925,14.421 -5.262,14.421L-3.074,14.421L-3.074,15.653" style="fill:rgb(153,102,51);fill-rule:nonzero;"/>
            </g>
            <g transform="matrix(1.00481,0,0,1.05186,-0.957066,-0.250017)">
                <g transform="matrix(19.7699,0,0,19.7699,27.0886,17.9981)">
                </g>
                <text x="4.616px" y="17.998px" style="font-family:'FranklinGothic-Demi', 'Franklin Gothic Demi';font-size:19.77px;fill:rgb(153,102,51);">P<tspan x="16.132px " y="17.998px ">F</tspan></text>
            </g>
            <g transform="matrix(1.48157,0,0,1.52045,22.9574,-27.0631)">
                <g transform="matrix(13.2687,0,0,13.2687,19.6674,29.9502)">
                </g>
                <text x="3.644px" y="29.95px" style="font-family:'FranklinGothic-Demi', 'Franklin Gothic Demi';font-size:13.269px;fill:rgb(153,102,51);">C<tspan x="11.601px " y="29.95px ">A</tspan></text>
            </g>
            <g transform="matrix(1.48157,0,0,1.52045,-1.7139,-10.7515)">
                <g transform="matrix(13.2687,0,0,13.2687,20.691,29.9502)">
                </g>
                <text x="3.644px" y="29.95px" style="font-family:'FranklinGothic-Demi', 'Franklin Gothic Demi';font-size:13.269px;fill:rgb(153,102,51);">R<tspan x="12.087px " y="29.95px ">D</tspan></text>
            </g>
        </g>
    </g>
</svg>
