<?xml version="1.0" encoding="UTF-8"?><svg xmlns="http://www.w3.org/2000/svg" width="20px" height="20px" viewBox="0 0 56.41 56.53"><defs><style>.cls-1{fill:#fff;}.cls-1,.cls-2{stroke-width:0px;}.cls-2{fill:#963;}</style></defs><g id="Backgrounds"><rect class="cls-1" x="1.22" y="1.36" width="54.02" height="53.74" rx="3.24" ry="3.24"/><path class="cls-2" d="M52,2.36c1.24,0,2.24,1.01,2.24,2.24v47.26c0,1.24-1.01,2.24-2.24,2.24H4.46c-1.24,0-2.24-1.01-2.24-2.24V4.6c0-1.24,1.01-2.24,2.24-2.24h47.54M52,.36H4.46C2.12.36.22,2.26.22,4.6v47.26c0,2.34,1.9,4.24,4.24,4.24h47.54c2.34,0,4.24-1.9,4.24-4.24V4.6c0-2.34-1.9-4.24-4.24-4.24h0Z"/></g><g id="Resources"><g id="Layer_145"><path class="cls-2" d="M49,17.06h-6.94c.47-.96.85-2.03,1.15-3.2.76-3.03.65-5.69.65-5.8l-.16-3.85-1.91,3.34c-.99,1.73-2.2,3.2-3.6,4.38-1.12.94-2.37,1.7-3.72,2.25-.85.35-1.63.57-2.28.72h-8.74c-2.41-.53-6.66-2.2-9.6-7.34l-1.91-3.34-.16,3.85c0,.11-.11,2.78.65,5.8.29,1.17.68,2.24,1.15,3.2h-6.93l-.02,1.09c0,.14-.04,3.47,2.41,5.99,1.5,1.54,3.57,2.43,6.16,2.65,0,3.32.49,5.77,1.49,7.46,1.81,3.06,2.27,12.17,2.29,15.42v.28l.14.25c.16.29.61.84,1.89,1.32,1.56.59,3.87.89,6.85.89s5.29-.3,6.85-.89c1.28-.48,1.73-1.03,1.89-1.32l.13-.25v-.28c.02-3.25.47-12.35,2.29-15.42,1-1.69,1.49-4.14,1.49-7.46,2.59-.21,4.66-1.1,6.16-2.65,2.45-2.52,2.41-5.85,2.41-5.99l-.02-1.09ZM16.1,17.06c-1-1.59-1.53-3.47-1.81-5.1.56.62,1.16,1.19,1.79,1.72.93.78,1.95,1.44,3.02,1.99-.68.36-1.46.83-2.09,1.39h-.9ZM18.55,31.61c-.84-.44-1.08-1.66-.53-2.71.55-1.05,1.68-1.55,2.53-1.1.84.44,1.08,1.65.53,2.71-.55,1.05-1.68,1.54-2.53,1.1h0ZM34.48,49.15c-.27.17-.85.43-1.97.65-.59-.87-1.89-2.05-4.65-2.06h0s-.02,0-.02,0c0,0-.02,0-.03,0h0c-2.76.02-4.07,1.2-4.65,2.07-1.14-.22-1.73-.49-2.01-.66,0-.45-.03-1.18-.07-2.11,1.61-1.41,4.5-4.84,4.61-11.34.15-9.02-5.84-10.37-3.63-13.8,2.22-3.43,4.66-2.69,5.77-2.69s3.55-.74,5.77,2.69c2.22,3.43-3.77,4.78-3.63,13.8.11,6.44,2.95,9.86,4.56,11.3-.04.94-.06,1.69-.07,2.14h0ZM37.13,31.61c-.84.44-1.97-.05-2.53-1.1-.55-1.05-.32-2.27.53-2.71.84-.44,1.98.05,2.53,1.1.55,1.05.32,2.26-.53,2.71h0ZM39.53,17.06h-.9c-.63-.56-1.42-1.04-2.09-1.39,1.07-.55,2.08-1.22,3.02-1.99.63-.52,1.23-1.1,1.79-1.72-.28,1.63-.81,3.51-1.81,5.1h0ZM39.53,17.06"/></g></g></svg>