<?xml version="1.0" encoding="UTF-8"?>
<svg xmlns="http://www.w3.org/2000/svg" xmlns:xlink="http://www.w3.org/1999/xlink" width="20px" height="20px" viewBox="0 0 20 20" version="1.1">
<g id="surface1">
<path style=" stroke:none;fill-rule:nonzero;fill:rgb(100%,97.254902%,77.254902%);fill-opacity:1;" d="M 1.519531 0.355469 L 18.5 0.355469 C 19.140625 0.355469 19.65625 0.875 19.65625 1.515625 L 19.65625 18.441406 C 19.65625 19.082031 19.140625 19.601562 18.5 19.601562 L 1.519531 19.601562 C 0.882812 19.601562 0.363281 19.082031 0.363281 18.441406 L 0.363281 1.515625 C 0.363281 0.875 0.882812 0.355469 1.519531 0.355469 Z M 1.519531 0.355469 "/>
<path style=" stroke:none;fill-rule:nonzero;fill:rgb(60%,40%,20%);fill-opacity:1;" d="M 18.5 0.714844 C 18.941406 0.714844 19.300781 1.074219 19.300781 1.515625 L 19.300781 18.441406 C 19.300781 18.65625 19.21875 18.863281 19.066406 19.011719 C 18.917969 19.164062 18.714844 19.25 18.5 19.25 L 1.519531 19.25 C 1.082031 19.246094 0.722656 18.890625 0.722656 18.449219 L 0.722656 1.515625 C 0.722656 1.074219 1.082031 0.714844 1.519531 0.714844 L 18.5 0.714844 M 18.5 0 L 1.519531 0 C 0.683594 0 0.0078125 0.679688 0.0078125 1.515625 L 0.0078125 18.441406 C 0.00390625 18.847656 0.164062 19.234375 0.449219 19.519531 C 0.730469 19.804688 1.117188 19.964844 1.519531 19.964844 L 18.5 19.964844 C 19.335938 19.964844 20.015625 19.285156 20.015625 18.449219 L 20.015625 1.515625 C 20.015625 0.679688 19.335938 0 18.5 0 Z M 18.5 0 "/>
<path style=" stroke:none;fill-rule:nonzero;fill:rgb(60%,40%,20%);fill-opacity:1;" d="M 10.644531 4.144531 L 9.195312 4.144531 C 9.300781 3.929688 9.382812 3.703125 9.4375 3.472656 C 9.535156 3.074219 9.582031 2.667969 9.570312 2.261719 L 9.539062 1.457031 L 9.140625 2.171875 C 8.945312 2.519531 8.6875 2.828125 8.386719 3.085938 C 8.152344 3.273438 7.890625 3.425781 7.609375 3.535156 C 7.457031 3.601562 7.296875 3.652344 7.132812 3.6875 L 5.304688 3.6875 C 4.445312 3.488281 3.710938 2.929688 3.296875 2.148438 L 2.898438 1.457031 L 2.863281 2.261719 C 2.859375 2.667969 2.902344 3.074219 3 3.472656 C 3.054688 3.703125 3.136719 3.929688 3.238281 4.144531 L 1.8125 4.144531 L 1.8125 4.367188 C 1.820312 4.832031 2 5.28125 2.3125 5.621094 C 2.660156 5.957031 3.117188 6.152344 3.601562 6.175781 C 3.566406 6.710938 3.675781 7.25 3.910156 7.730469 C 4.292969 8.371094 4.386719 10.273438 4.390625 10.945312 L 4.390625 11.007812 L 4.417969 11.058594 C 4.511719 11.191406 4.652344 11.289062 4.8125 11.332031 C 5.273438 11.476562 5.757812 11.539062 6.238281 11.519531 C 6.722656 11.539062 7.207031 11.476562 7.667969 11.332031 C 7.828125 11.289062 7.96875 11.191406 8.0625 11.058594 L 8.09375 11.007812 L 8.09375 10.945312 C 8.09375 10.269531 8.1875 8.367188 8.566406 7.730469 C 8.808594 7.25 8.914062 6.710938 8.882812 6.175781 C 9.363281 6.152344 9.820312 5.957031 10.167969 5.621094 C 10.484375 5.28125 10.664062 4.832031 10.671875 4.367188 Z M 3.769531 4.144531 C 3.578125 3.8125 3.449219 3.449219 3.394531 3.070312 C 3.503906 3.199219 3.621094 3.320312 3.75 3.429688 C 3.945312 3.589844 4.15625 3.726562 4.382812 3.84375 C 4.226562 3.921875 4.078125 4.019531 3.945312 4.136719 Z M 4.269531 7.183594 C 4.089844 7.054688 4.039062 6.804688 4.160156 6.617188 C 4.246094 6.40625 4.488281 6.308594 4.699219 6.394531 C 4.882812 6.519531 4.933594 6.769531 4.8125 6.957031 C 4.726562 7.167969 4.492188 7.269531 4.28125 7.1875 Z M 7.601562 10.847656 C 7.472656 10.917969 7.332031 10.964844 7.1875 10.984375 C 6.964844 10.679688 6.59375 10.515625 6.21875 10.554688 C 5.839844 10.519531 5.472656 10.683594 5.246094 10.984375 C 5.101562 10.960938 4.957031 10.917969 4.824219 10.851562 C 4.824219 10.753906 4.824219 10.601562 4.824219 10.40625 C 5.472656 9.792969 5.820312 8.929688 5.785156 8.039062 C 5.816406 6.152344 4.5625 5.871094 5.027344 5.152344 C 5.261719 4.726562 5.75 4.503906 6.226562 4.605469 C 6.707031 4.503906 7.199219 4.734375 7.429688 5.167969 C 7.894531 5.882812 6.644531 6.167969 6.671875 8.054688 C 6.636719 8.941406 6.984375 9.800781 7.625 10.414062 C 7.625 10.609375 7.625 10.769531 7.625 10.859375 Z M 8.164062 7.183594 C 7.953125 7.261719 7.71875 7.15625 7.636719 6.949219 C 7.519531 6.765625 7.566406 6.519531 7.746094 6.394531 C 7.957031 6.3125 8.191406 6.414062 8.273438 6.625 C 8.398438 6.8125 8.351562 7.0625 8.164062 7.1875 Z M 8.667969 4.144531 L 8.480469 4.144531 C 8.34375 4.027344 8.199219 3.929688 8.042969 3.851562 C 8.265625 3.734375 8.476562 3.59375 8.671875 3.4375 C 8.804688 3.324219 8.929688 3.207031 9.046875 3.078125 C 8.988281 3.457031 8.859375 3.820312 8.667969 4.148438 Z M 8.667969 4.144531 "/>
<path style=" stroke:none;fill-rule:nonzero;fill:rgb(60%,40%,20%);fill-opacity:1;" d="M 18.070312 10.746094 L 16.621094 10.746094 C 16.722656 10.53125 16.804688 10.308594 16.859375 10.078125 C 16.957031 9.679688 17.003906 9.273438 16.996094 8.863281 L 16.960938 8.0625 L 16.5625 8.773438 C 16.367188 9.121094 16.113281 9.433594 15.8125 9.6875 C 15.578125 9.882812 15.3125 10.042969 15.03125 10.160156 C 14.878906 10.222656 14.71875 10.273438 14.558594 10.3125 L 12.730469 10.3125 C 11.871094 10.109375 11.140625 9.550781 10.722656 8.773438 L 10.320312 8.0625 L 10.289062 8.863281 C 10.28125 9.273438 10.328125 9.679688 10.425781 10.078125 C 10.480469 10.308594 10.558594 10.53125 10.664062 10.746094 L 9.214844 10.746094 L 9.214844 10.976562 C 9.222656 11.4375 9.402344 11.882812 9.71875 12.226562 C 10.0625 12.566406 10.519531 12.761719 11.003906 12.777344 C 10.96875 13.316406 11.074219 13.855469 11.3125 14.339844 C 11.691406 14.980469 11.785156 16.882812 11.792969 17.554688 L 11.792969 17.609375 L 11.820312 17.664062 C 11.914062 17.800781 12.054688 17.898438 12.214844 17.9375 C 12.675781 18.082031 13.160156 18.144531 13.644531 18.125 C 14.125 18.144531 14.609375 18.082031 15.070312 17.9375 C 15.230469 17.898438 15.371094 17.800781 15.464844 17.664062 L 15.492188 17.609375 L 15.492188 17.554688 C 15.492188 16.875 15.59375 14.972656 15.972656 14.339844 C 16.210938 13.855469 16.316406 13.316406 16.28125 12.777344 C 16.765625 12.761719 17.222656 12.566406 17.566406 12.226562 C 17.882812 11.882812 18.0625 11.4375 18.070312 10.976562 Z M 11.191406 10.746094 C 11 10.417969 10.871094 10.050781 10.8125 9.675781 C 10.929688 9.804688 11.054688 9.921875 11.1875 10.03125 C 11.382812 10.195312 11.59375 10.335938 11.816406 10.449219 C 11.660156 10.53125 11.515625 10.625 11.382812 10.738281 Z M 11.707031 13.789062 C 11.519531 13.738281 11.382812 13.574219 11.367188 13.378906 C 11.351562 13.183594 11.460938 13 11.640625 12.921875 C 11.820312 12.84375 12.03125 12.886719 12.164062 13.03125 C 12.296875 13.171875 12.324219 13.382812 12.234375 13.558594 C 12.152344 13.765625 11.917969 13.867188 11.707031 13.789062 Z M 15.035156 17.464844 C 14.90625 17.53125 14.769531 17.578125 14.625 17.601562 C 14.398438 17.296875 14.03125 17.136719 13.652344 17.171875 C 13.277344 17.132812 12.90625 17.296875 12.683594 17.605469 C 12.53125 17.582031 12.382812 17.535156 12.25 17.464844 C 12.25 17.371094 12.25 17.21875 12.25 17.023438 C 12.894531 16.40625 13.242188 15.539062 13.199219 14.644531 C 13.230469 12.761719 11.980469 12.480469 12.441406 11.761719 C 12.671875 11.324219 13.164062 11.09375 13.644531 11.199219 C 14.125 11.09375 14.621094 11.316406 14.855469 11.75 C 15.316406 12.464844 14.0625 12.75 14.097656 14.636719 C 14.0625 15.523438 14.410156 16.382812 15.050781 16.996094 C 15.050781 17.191406 15.050781 17.355469 15.050781 17.441406 Z M 15.589844 13.800781 C 15.4375 13.921875 15.226562 13.9375 15.0625 13.839844 C 14.894531 13.742188 14.808594 13.546875 14.84375 13.359375 C 14.878906 13.167969 15.03125 13.019531 15.222656 12.988281 C 15.414062 12.957031 15.605469 13.050781 15.699219 13.222656 C 15.824219 13.410156 15.773438 13.660156 15.589844 13.789062 Z M 16.089844 10.757812 L 15.902344 10.757812 C 15.769531 10.644531 15.621094 10.546875 15.464844 10.46875 C 15.691406 10.351562 15.902344 10.210938 16.097656 10.050781 C 16.226562 9.941406 16.34375 9.820312 16.453125 9.691406 C 16.398438 10.070312 16.269531 10.433594 16.074219 10.765625 Z M 16.089844 10.757812 "/>
</g>
</svg>
