<?xml version="1.0" encoding="UTF-8" standalone="no"?>
<!DOCTYPE svg PUBLIC "-//W3C//DTD SVG 1.1//EN" "http://www.w3.org/Graphics/SVG/1.1/DTD/svg11.dtd">
<svg width="20px" height="20px" viewBox="0 0 57 57" version="1.1" xmlns="http://www.w3.org/2000/svg" xmlns:xlink="http://www.w3.org/1999/xlink" xml:space="preserve" xmlns:serif="http://www.serif.com/" style="fill-rule:evenodd;clip-rule:evenodd;stroke-linejoin:round;stroke-miterlimit:2;">
    <g id="Border">
        <g transform="matrix(1,0,0,1,4.2925,1.1942)">
            <path d="M0,53.738C-1.787,53.738 -3.241,52.284 -3.241,50.497L-3.241,3.241C-3.241,1.454 -1.787,0 0,0L47.541,0C49.328,0 50.782,1.454 50.782,3.241L50.782,50.497C50.782,52.284 49.328,53.738 47.541,53.738L0,53.738Z" style="fill:white;fill-rule:nonzero;"/>
        </g>
        <g id="ResourceBorder" transform="matrix(1,0,0,1,51.8335,55.9322)">
            <path d="M0,-55.738L-47.541,-55.738C-49.883,-55.738 -51.782,-53.839 -51.782,-51.497L-51.782,-4.241C-51.782,-1.899 -49.883,0 -47.541,0L0,0C2.342,0 4.241,-1.899 4.241,-4.241L4.241,-51.497C4.241,-53.839 2.342,-55.738 0,-55.738M0,-53.738C1.236,-53.738 2.241,-52.733 2.241,-51.497L2.241,-4.241C2.241,-3.006 1.236,-2 0,-2L-47.541,-2C-48.777,-2 -49.782,-3.006 -49.782,-4.241L-49.782,-51.497C-49.782,-52.733 -48.777,-53.738 -47.541,-53.738L0,-53.738Z" style="fill:rgb(153,102,51);fill-rule:nonzero;"/>
        </g>
    </g>
    <g id="RuminantParameters">
        <g id="Layer-155" serif:id="Layer 155">
            <g transform="matrix(1,0,0,1,40.4433,14.6818)">
                <path d="M-5.484,31.857L4.327,31.857L4.327,6.696L6.515,6.696C7.177,6.696 7.433,6.382 7.526,6.195C7.619,6.007 7.716,5.614 7.318,5.085L1.866,-2.149C1.59,-2.515 1.198,-2.724 0.79,-2.724C0.382,-2.724 -0.01,-2.515 -0.285,-2.149L-5.737,5.085C-6.136,5.614 -6.039,6.007 -5.946,6.195C-5.853,6.382 -5.597,6.696 -4.934,6.696L-2.747,6.696L-2.747,31.857L-7.648,31.857L-7.648,16.303L-5.461,16.303C-4.799,16.303 -4.543,15.989 -4.45,15.801C-4.356,15.614 -4.259,15.22 -4.658,14.692L-10.11,7.458C-10.385,7.092 -10.777,6.882 -11.185,6.882C-11.593,6.882 -11.985,7.092 -12.261,7.458L-17.713,14.692C-18.112,15.221 -18.015,15.614 -17.921,15.801C-17.828,15.989 -17.573,16.303 -16.91,16.303L-14.723,16.303L-14.723,31.857L-35.424,31.857C-36.111,31.857 -36.668,32.414 -36.668,33.101C-36.668,33.788 -36.111,34.345 -35.424,34.345L11.028,34.345C11.716,34.345 12.272,33.788 12.272,33.101C12.272,32.414 11.715,31.857 11.028,31.857L6.675,31.857" style="fill:rgb(153,102,51);fill-rule:nonzero;"/>
            </g>
            <g transform="matrix(1,0,0,1,20.0514,31.492)">
                <path d="M0,17.653L0,9.421L2.187,9.421C2.849,9.421 3.105,9.107 3.199,8.919C3.292,8.732 3.389,8.338 2.99,7.81L-2.462,0.576C-2.737,0.21 -3.129,0 -3.537,0C-3.945,0 -4.337,0.21 -4.613,0.576L-10.065,7.81C-10.464,8.339 -10.366,8.732 -10.273,8.919C-10.18,9.107 -9.925,9.421 -9.262,9.421L-7.074,9.421L-7.074,17.653" style="fill:rgb(153,102,51);fill-rule:nonzero;"/>
            </g>
            <g transform="matrix(1.19962,0,0,1.22915,-1.18347,-2.78827)">
                <g transform="matrix(19.7699,0,0,19.7699,27.0886,20.9805)">
                </g>
                <text x="4.616px" y="20.981px" style="font-family:'FranklinGothic-Demi', 'Franklin Gothic Demi';font-size:19.77px;fill:rgb(153,102,51);">P<tspan x="16.132px " y="20.981px ">F</tspan></text>
            </g>
        </g>
    </g>
</svg>
