<?xml version="1.0" encoding="UTF-8"?>
<svg xmlns="http://www.w3.org/2000/svg" xmlns:xlink="http://www.w3.org/1999/xlink" width="20px" height="20px" viewBox="0 0 20 20" version="1.1">
<g id="surface1">
<path style=" stroke:none;fill-rule:nonzero;fill:rgb(60%,40%,20%);fill-opacity:1;" d="M 18.910156 5.371094 C 18.910156 7.78125 16.957031 9.734375 14.546875 9.734375 C 12.136719 9.734375 10.183594 7.78125 10.183594 5.371094 C 10.183594 2.960938 12.136719 1.007812 14.546875 1.007812 C 16.957031 1.007812 18.910156 2.960938 18.910156 5.371094 Z M 18.910156 5.371094 "/>
<path style=" stroke:none;fill-rule:nonzero;fill:rgb(60%,40%,20%);fill-opacity:1;" d="M 5.882812 11.789062 C 5.480469 12.246094 5.144531 12.757812 4.886719 13.3125 C 4.613281 13.75 4.488281 14.265625 4.527344 14.777344 C 4.328125 14.914062 4.101562 14.996094 3.859375 15.019531 C 3.371094 15.066406 2.917969 15.289062 2.574219 15.640625 C 2.226562 15.984375 2.011719 16.441406 1.96875 16.929688 C 1.945312 17.253906 1.800781 17.5625 1.5625 17.789062 C 1.410156 17.945312 1.410156 18.195312 1.5625 18.351562 C 1.640625 18.425781 1.742188 18.46875 1.847656 18.46875 C 1.953125 18.46875 2.054688 18.425781 2.128906 18.351562 C 2.480469 18.007812 2.703125 17.550781 2.753906 17.0625 C 2.8125 16.390625 3.347656 15.859375 4.019531 15.800781 C 4.40625 15.75 4.777344 15.597656 5.089844 15.355469 C 5.175781 15.382812 5.265625 15.398438 5.355469 15.398438 C 6.234375 15.398438 7.714844 14.449219 8.132812 14.03125 C 8.429688 13.734375 8.601562 13.332031 8.601562 12.910156 C 8.601562 12.488281 8.429688 12.085938 8.132812 11.789062 C 7.503906 11.183594 6.511719 11.183594 5.882812 11.789062 Z M 5.882812 11.789062 "/>
<path style=" stroke:none;fill-rule:nonzero;fill:rgb(60%,40%,20%);fill-opacity:1;" d="M 13.023438 10.996094 C 12.625 11.453125 12.289062 11.964844 12.027344 12.515625 C 11.703125 13.1875 11.597656 13.6875 11.695312 14.046875 C 11.457031 14.359375 11.308594 14.726562 11.257812 15.117188 C 11.195312 15.789062 10.65625 16.316406 9.984375 16.371094 C 9.496094 16.421875 9.039062 16.644531 8.695312 16.996094 C 8.542969 17.152344 8.542969 17.402344 8.695312 17.558594 C 8.773438 17.628906 8.875 17.671875 8.980469 17.671875 C 9.082031 17.671875 9.183594 17.628906 9.257812 17.558594 C 9.484375 17.320312 9.789062 17.175781 10.117188 17.152344 C 10.609375 17.105469 11.070312 16.882812 11.414062 16.527344 C 11.765625 16.183594 11.984375 15.730469 12.039062 15.242188 C 12.0625 15.003906 12.144531 14.769531 12.277344 14.570312 C 12.347656 14.589844 12.414062 14.601562 12.484375 14.605469 C 13.363281 14.605469 14.847656 13.65625 15.265625 13.238281 C 15.882812 12.621094 15.882812 11.617188 15.265625 10.996094 C 14.636719 10.402344 13.652344 10.402344 13.023438 10.996094 Z M 13.023438 10.996094 "/>
<path style=" stroke:none;fill-rule:nonzero;fill:rgb(60%,40%,20%);fill-opacity:1;" d="M 9.21875 0.941406 L 9.441406 1.265625 C 8.304688 2.191406 7.285156 3.257812 6.414062 4.4375 C 5.417969 5.679688 4.558594 7.023438 3.855469 8.445312 L 3.378906 8.769531 C 3.101562 8.953125 2.832031 9.15625 2.578125 9.375 C 2.519531 9.175781 2.402344 8.847656 2.222656 8.390625 L 2.042969 7.976562 C 1.855469 7.507812 1.617188 7.0625 1.328125 6.648438 C 1.144531 6.390625 0.886719 6.191406 0.589844 6.078125 C 1.050781 5.59375 1.472656 5.363281 1.855469 5.363281 C 2.1875 5.363281 2.550781 5.808594 2.949219 6.699219 L 3.148438 7.148438 C 3.929688 5.859375 4.859375 4.667969 5.929688 3.605469 C 6.898438 2.570312 8.003906 1.675781 9.21875 0.941406 Z M 9.21875 0.941406 "/>
</g>
</svg>
