<?xml version="1.0" encoding="UTF-8"?>
<svg xmlns="http://www.w3.org/2000/svg" xmlns:xlink="http://www.w3.org/1999/xlink" width="20px" height="20px" viewBox="0 0 20 20" version="1.1">
<g id="surface1">
<path style=" stroke:none;fill-rule:nonzero;fill:rgb(60%,40%,20%);fill-opacity:1;" d="M 10.207031 0.714844 L 0.773438 0.714844 L 0.761719 10.160156 L 10.207031 19.605469 L 19.652344 10.160156 Z M 10.207031 0.714844 "/>
<path style=" stroke:none;fill-rule:nonzero;fill:rgb(100%,100%,100%);fill-opacity:1;" d="M 10.171875 17.019531 C 10.113281 17.082031 10.027344 17.082031 9.925781 17.019531 C 9.582031 16.753906 9.257812 16.460938 8.964844 16.140625 C 8.652344 15.84375 8.359375 15.527344 8.09375 15.1875 C 8 15.058594 8 14.882812 8.09375 14.753906 C 8.449219 14.167969 8.621094 13.824219 8.59375 13.730469 C 8.1875 13.25 7.757812 12.796875 7.300781 12.367188 C 7.019531 12.050781 6.703125 11.765625 6.359375 11.519531 C 6.101562 11.585938 5.855469 11.707031 5.644531 11.875 C 5.308594 12.085938 5.085938 12.15625 4.972656 12.089844 C 4.558594 11.757812 4.167969 11.402344 3.804688 11.019531 C 3.300781 10.511719 3.089844 10.210938 3.1875 10.113281 C 3.289062 10.019531 4.703125 9.347656 7.476562 8.070312 C 10.46875 6.691406 12.113281 5.929688 12.398438 5.777344 C 12.5625 5.691406 12.675781 5.675781 12.730469 5.730469 C 12.78125 5.78125 12.945312 5.964844 13.117188 6.167969 C 13.289062 6.371094 13.417969 6.523438 13.511719 6.609375 C 13.605469 6.695312 13.734375 6.824219 13.921875 6.96875 C 14.105469 7.109375 14.238281 7.253906 14.328125 7.324219 C 14.417969 7.394531 14.394531 7.5 14.328125 7.660156 C 14.144531 8.171875 13.429688 9.835938 12.1875 12.660156 C 10.941406 15.484375 10.269531 16.9375 10.171875 17.019531 Z M 11.171875 9.003906 C 10.957031 9.078125 10.523438 9.273438 9.875 9.597656 C 9.464844 9.769531 9.074219 9.984375 8.703125 10.234375 C 8.644531 10.292969 8.703125 10.425781 8.898438 10.632812 C 8.996094 10.738281 9.160156 10.910156 9.394531 11.144531 C 9.632812 11.382812 9.753906 11.457031 9.835938 11.429688 C 9.867188 11.414062 9.890625 11.394531 9.914062 11.367188 C 10.175781 11.015625 10.402344 10.636719 10.589844 10.238281 C 10.8125 9.839844 11.007812 9.429688 11.171875 9.003906 Z M 11.171875 9.003906 "/>
</g>
</svg>
