<svg xmlns="http://www.w3.org/2000/svg" width="20px" height="20px" viewBox="0 0 56.27 56.82"><defs><style>.a{fill:#963;}.b{fill:#fff;}</style></defs><polygon class="a" points="54.98 27.68 51.03 27.68 51.03 6.39 46.03 6.39 46.03 6.4 38.85 6.4 38.85 11.4 46.03 11.4 46.03 46.56 38.85 46.56 38.85 51.56 50.94 51.56 50.94 51.55 51.03 51.55 51.03 32.68 54.98 32.68 54.98 27.68"/><polygon class="a" points="23.48 7.29 2.27 7.29 2.23 28.55 23.48 49.8 44.73 28.55 23.48 7.29"/><path class="b" d="M23.41,44c-.14.14-.32.14-.56,0a17.81,17.81,0,0,1-2.16-2,19.68,19.68,0,0,1-2-2.14.86.86,0,0,1,0-1,6.17,6.17,0,0,0,1.13-2.3A33.6,33.6,0,0,0,17,33.51a11.88,11.88,0,0,0-2.12-1.91,4.31,4.31,0,0,0-1.61.77c-.76.47-1.26.63-1.52.49A28.15,28.15,0,0,1,9.1,30.41c-1.14-1.14-1.6-1.82-1.38-2s3.4-1.73,9.63-4.6q10.11-4.65,11.08-5.16c.37-.19.62-.23.74-.11s.49.53.87,1,.68.79.88,1,.51.49.93.85.72.64.91.84.15.39,0,.75Q32.16,24.65,28,34.14T23.41,44Zm2.25-18c-.49.17-1.46.62-2.92,1.34a15.92,15.92,0,0,0-2.64,1.43c-.13.14,0,.43.45.89.21.25.58.63,1.11,1.16s.82.7,1,.64a.89.89,0,0,0,.18-.14,15.16,15.16,0,0,0,1.51-2.54A21.76,21.76,0,0,0,25.66,25.94Z"/></svg>