<?xml version="1.0" encoding="UTF-8"?>
<svg xmlns="http://www.w3.org/2000/svg" xmlns:xlink="http://www.w3.org/1999/xlink" width="20px" height="20px" viewBox="0 0 20 20" version="1.1">
<g id="surface1">
<path style=" stroke:none;fill-rule:nonzero;fill:rgb(100%,100%,100%);fill-opacity:1;" d="M 1.054688 6.515625 L 19.210938 6.515625 L 19.210938 18.839844 L 1.054688 18.839844 Z M 1.054688 6.515625 "/>
<path style=" stroke:none;fill-rule:nonzero;fill:rgb(60%,40%,20%);fill-opacity:1;" d="M 0.570312 19.964844 L 19.4375 19.964844 C 19.734375 19.964844 19.980469 19.726562 19.984375 19.425781 L 19.984375 2.160156 C 19.984375 1.859375 19.738281 1.621094 19.4375 1.621094 L 17.484375 1.621094 L 17.484375 3.496094 C 17.480469 4.15625 16.945312 4.683594 16.285156 4.683594 L 14.960938 4.683594 C 14.300781 4.683594 13.765625 4.15625 13.761719 3.496094 L 13.761719 1.621094 L 11.871094 1.621094 L 11.871094 3.496094 C 11.867188 4.15625 11.328125 4.683594 10.671875 4.683594 L 9.335938 4.683594 C 8.675781 4.683594 8.140625 4.15625 8.136719 3.496094 L 8.136719 1.621094 L 6.242188 1.621094 L 6.242188 3.496094 C 6.238281 4.15625 5.699219 4.683594 5.042969 4.683594 L 3.707031 4.683594 C 3.050781 4.683594 2.511719 4.15625 2.507812 3.496094 L 2.507812 1.621094 L 0.570312 1.621094 C 0.273438 1.621094 0.0273438 1.859375 0.0234375 2.160156 L 0.0234375 19.425781 C 0.0273438 19.722656 0.273438 19.964844 0.570312 19.964844 Z M 1.414062 7.074219 L 18.558594 7.074219 L 18.558594 18.566406 L 1.414062 18.566406 Z M 1.414062 7.074219 "/>
<path style=" stroke:none;fill-rule:nonzero;fill:rgb(60%,40%,20%);fill-opacity:1;" d="M 3.710938 -0.00390625 C 3.410156 -0.00390625 3.167969 0.238281 3.164062 0.539062 L 3.164062 3.496094 C 3.167969 3.796875 3.410156 4.035156 3.710938 4.035156 L 5.046875 4.035156 C 5.34375 4.035156 5.589844 3.796875 5.59375 3.496094 L 5.59375 0.539062 C 5.589844 0.238281 5.347656 -0.00390625 5.046875 -0.00390625 Z M 3.710938 -0.00390625 "/>
<path style=" stroke:none;fill-rule:nonzero;fill:rgb(60%,40%,20%);fill-opacity:1;" d="M 9.335938 -0.00390625 C 9.035156 -0.00390625 8.792969 0.234375 8.789062 0.535156 L 8.789062 3.496094 C 8.792969 3.796875 9.035156 4.039062 9.335938 4.035156 L 10.671875 4.035156 C 10.96875 4.035156 11.214844 3.796875 11.21875 3.496094 L 11.21875 0.539062 C 11.214844 0.238281 10.972656 -0.00390625 10.671875 -0.00390625 Z M 9.335938 -0.00390625 "/>
<path style=" stroke:none;fill-rule:nonzero;fill:rgb(60%,40%,20%);fill-opacity:1;" d="M 16.296875 -0.00390625 L 14.960938 -0.00390625 C 14.816406 -0.00390625 14.675781 0.0507812 14.574219 0.152344 C 14.472656 0.257812 14.414062 0.394531 14.414062 0.539062 L 14.414062 3.496094 C 14.417969 3.796875 14.660156 4.039062 14.960938 4.035156 L 16.296875 4.035156 C 16.59375 4.035156 16.835938 3.792969 16.839844 3.496094 L 16.839844 0.539062 C 16.839844 0.238281 16.597656 -0.00390625 16.296875 -0.00390625 Z M 16.296875 -0.00390625 "/>
<path style=" stroke:none;fill-rule:nonzero;fill:rgb(60%,40%,20%);fill-opacity:1;" d="M 17.476562 12.5625 C 17.476562 14.523438 15.886719 16.113281 13.925781 16.113281 C 11.964844 16.113281 10.375 14.523438 10.375 12.5625 C 10.375 10.605469 11.964844 9.015625 13.925781 9.015625 C 15.886719 9.015625 17.476562 10.605469 17.476562 12.5625 Z M 17.476562 12.5625 "/>
<path style=" stroke:none;fill-rule:nonzero;fill:rgb(60%,40%,20%);fill-opacity:1;" d="M 8.558594 11.78125 C 8.066406 11.835938 7.585938 11.957031 7.128906 12.140625 C 6.726562 12.265625 6.375 12.515625 6.125 12.855469 C 5.929688 12.824219 5.746094 12.75 5.589844 12.632812 C 4.921875 12.15625 4.015625 12.199219 3.394531 12.738281 C 3.203125 12.925781 2.949219 13.03125 2.683594 13.039062 C 2.597656 13.042969 2.515625 13.082031 2.457031 13.144531 C 2.402344 13.207031 2.371094 13.289062 2.375 13.375 C 2.390625 13.449219 2.429688 13.515625 2.484375 13.566406 C 2.550781 13.625 2.632812 13.652344 2.71875 13.648438 C 3.113281 13.632812 3.492188 13.480469 3.789062 13.214844 C 3.984375 13.03125 4.238281 12.925781 4.503906 12.917969 C 4.769531 12.898438 5.035156 12.980469 5.242188 13.144531 C 5.503906 13.328125 5.808594 13.4375 6.125 13.460938 C 6.164062 13.523438 6.210938 13.585938 6.265625 13.636719 C 6.792969 14.113281 8.203125 14.351562 8.683594 14.328125 C 9.394531 14.292969 9.941406 13.691406 9.910156 12.980469 C 9.84375 12.285156 9.253906 11.765625 8.558594 11.78125 Z M 8.558594 11.78125 "/>
</g>
</svg>
