<?xml version="1.0" encoding="UTF-8"?>
<svg xmlns="http://www.w3.org/2000/svg" xmlns:xlink="http://www.w3.org/1999/xlink" width="20px" height="20px" viewBox="0 0 20 20" version="1.1">
<g id="surface1">
<path style=" stroke:none;fill-rule:nonzero;fill:rgb(60%,40%,20%);fill-opacity:1;" d="M 15.90625 5.0625 L 13.40625 5.0625 C 13.585938 4.695312 13.722656 4.308594 13.816406 3.910156 C 13.988281 3.230469 14.066406 2.527344 14.050781 1.824219 L 13.992188 0.4375 L 13.3125 1.644531 C 12.976562 2.238281 12.539062 2.773438 12.019531 3.21875 C 11.617188 3.554688 11.164062 3.828125 10.679688 4.027344 C 10.414062 4.136719 10.136719 4.222656 9.855469 4.285156 L 6.710938 4.285156 C 5.234375 3.941406 3.972656 2.980469 3.257812 1.644531 L 2.570312 0.4375 L 2.515625 1.824219 C 2.5 2.527344 2.578125 3.230469 2.746094 3.910156 C 2.84375 4.308594 2.980469 4.695312 3.15625 5.0625 L 0.65625 5.0625 L 0.65625 5.453125 C 0.671875 6.25 0.980469 7.011719 1.519531 7.597656 C 2.117188 8.175781 2.90625 8.515625 3.734375 8.550781 C 3.734375 9.746094 3.910156 10.625 4.269531 11.230469 C 4.925781 12.335938 5.085938 15.609375 5.09375 16.78125 L 5.09375 16.882812 L 5.144531 16.96875 C 5.300781 17.210938 5.542969 17.386719 5.820312 17.464844 C 6.617188 17.710938 7.453125 17.820312 8.285156 17.785156 C 9.121094 17.820312 9.953125 17.710938 10.75 17.464844 C 11.023438 17.386719 11.257812 17.214844 11.414062 16.980469 L 11.464844 16.894531 L 11.464844 16.792969 C 11.464844 15.621094 11.632812 12.347656 12.285156 11.246094 C 12.644531 10.636719 12.820312 9.757812 12.820312 8.5625 C 13.652344 8.527344 14.441406 8.1875 15.035156 7.605469 C 15.578125 7.023438 15.886719 6.261719 15.902344 5.464844 Z M 4.070312 5.0625 C 3.738281 4.5 3.515625 3.875 3.417969 3.230469 C 3.617188 3.449219 3.832031 3.65625 4.0625 3.847656 C 4.390625 4.121094 4.75 4.363281 5.132812 4.5625 C 4.863281 4.699219 4.609375 4.867188 4.382812 5.0625 Z M 4.953125 10.296875 C 4.636719 10.074219 4.554688 9.644531 4.765625 9.320312 C 4.910156 8.96875 5.3125 8.792969 5.671875 8.925781 C 5.988281 9.144531 6.074219 9.578125 5.863281 9.898438 C 5.71875 10.257812 5.3125 10.429688 4.953125 10.296875 Z M 10.699219 16.605469 C 10.476562 16.726562 10.234375 16.808594 9.984375 16.84375 C 9.773438 16.527344 9.308594 16.105469 8.3125 16.101562 L 8.296875 16.101562 C 7.304688 16.101562 6.832031 16.53125 6.625 16.847656 C 6.375 16.804688 6.132812 16.726562 5.910156 16.605469 C 5.910156 16.445312 5.910156 16.183594 5.886719 15.851562 C 6.464844 15.34375 7.507812 14.109375 7.546875 11.769531 C 7.597656 8.523438 5.441406 8.039062 6.238281 6.808594 C 7.035156 5.574219 7.917969 5.839844 8.316406 5.839844 C 8.71875 5.839844 9.59375 5.570312 10.394531 6.808594 C 11.191406 8.042969 9.035156 8.523438 9.085938 11.769531 C 9.125 14.089844 10.15625 15.320312 10.730469 15.835938 C 10.730469 16.191406 10.707031 16.441406 10.703125 16.605469 Z M 11.652344 10.296875 C 11.292969 10.429688 10.894531 10.253906 10.746094 9.898438 C 10.535156 9.578125 10.621094 9.144531 10.9375 8.925781 C 11.296875 8.789062 11.699219 8.964844 11.847656 9.320312 C 12.054688 9.644531 11.96875 10.078125 11.652344 10.296875 Z M 12.484375 5.0625 L 12.160156 5.0625 C 11.933594 4.867188 11.683594 4.699219 11.414062 4.5625 C 11.796875 4.363281 12.15625 4.121094 12.484375 3.847656 C 12.714844 3.65625 12.929688 3.449219 13.128906 3.230469 C 13.035156 3.875 12.816406 4.5 12.484375 5.0625 Z M 12.484375 5.0625 "/>
<path style=" stroke:none;fill-rule:nonzero;fill:rgb(60%,40%,20%);fill-opacity:1;" d="M 14.167969 15.203125 L 18.574219 15.203125 C 20.046875 15.203125 20.046875 12.921875 18.574219 12.921875 L 14.167969 12.921875 C 12.691406 12.921875 12.691406 15.203125 14.167969 15.203125 Z M 14.167969 15.203125 "/>
<path style=" stroke:none;fill-rule:nonzero;fill:rgb(60%,40%,20%);fill-opacity:1;" d="M 14.167969 19.515625 L 18.574219 19.515625 C 20.046875 19.515625 20.046875 17.230469 18.574219 17.230469 L 14.167969 17.230469 C 12.691406 17.230469 12.691406 19.515625 14.167969 19.515625 Z M 14.167969 19.515625 "/>
</g>
</svg>
