<?xml version="1.0" standalone="no"?>
<!DOCTYPE svg PUBLIC "-//W3C//DTD SVG 1.0//EN" "http://www.w3.org/TR/2001/REC-SVG-20010904/DTD/svg10.dtd">
<svg xmlns="http://www.w3.org/2000/svg" xmlns:xlink="http://www.w3.org/1999/xlink" id="body_1" width="20" height="20">

<g transform="matrix(0.35682428 0 0 0.35682428 -0 0.017840942)">
    <path d="M0 0L55.88 0L55.88 55.95L0 55.95z" stroke="none" fill="none" />
    <path d="M1.02 4.24C 1.02 2.4505975 2.4705975 1 4.26 1L4.26 1L51.8 1C 53.5894 1 55.04 2.4505975 55.04 4.24L55.04 4.24L55.04 51.64C 55.04 53.429405 53.5894 54.88 51.8 54.88L51.8 54.88L4.26 54.88C 2.4705975 54.88 1.02 53.429405 1.02 51.64L1.02 51.64L1.02 4.24z" stroke="none" fill="#FFF8C5" fill-rule="nonzero" />
    <path transform="matrix(1 0 0 1 -0.04 -0.1)"  d="M51.84 2.1C 52.434082 2.0999997 53.003838 2.335999 53.42392 2.7560806C 53.844 3.1761622 54.08 3.7459152 54.08 4.34L54.08 4.34L54.08 51.74C 54.085335 52.337547 53.851692 52.91245 53.43103 53.33687C 53.01037 53.761284 52.437565 54.000027 51.84 54L51.84 54L4.3 54C 3.0651574 53.994522 2.0654757 52.99484 2.0600002 51.76L2.0600002 51.76L2.0600002 4.34C 2.0654764 3.1051576 3.065158 2.1054761 4.3 2.1L4.3 2.1L51.84 2.1zM51.84 0.099999905L4.3 0.099999905C 3.175482 0.099999905 2.0970213 0.5467129 1.301867 1.3418672C 0.50671244 2.1370215 0.059999943 3.215482 0.06 4.34L0.06 4.34L0.06 51.74C 0.054679394 52.86798 0.4990425 53.951588 1.2947743 54.751072C 2.090506 55.550556 3.1720085 56.000015 4.3 56L4.3 56L51.84 56C 54.181686 56.000004 56.079998 54.101692 56.08 51.760002L56.08 51.760002L56.08 4.34C 56.08 3.2154822 55.633286 2.1370206 54.83813 1.3418665C 54.042976 0.54671216 52.964516 0.09999943 51.84 0.1z" stroke="none" fill="#996633" fill-rule="nonzero" />
    <path transform="matrix(1 0 0 1 -0.04 -0.1)"  d="M37 18.77C 34.587982 14.861214 31.91523 11.119358 29 7.5700006C 28.772106 7.290526 28.430613 7.128354 28.07 7.128354C 27.709387 7.128354 27.367893 7.290526 27.14 7.5700006C 24.241913 11.120907 21.585945 14.862656 19.189999 18.77C 15.379999 25.07 13.439999 30.27 13.439999 34.24C 13.442787 42.317955 19.992044 48.864952 28.069998 48.864952C 36.14795 48.864952 42.69721 42.317955 42.699997 34.24C 42.699997 30.240002 40.769997 25.060001 36.949997 18.77L36.949997 18.77L37 18.77zM30.08 43.49C 29.216177 43.70304 28.329706 43.81049 27.44 43.81C 21.98 43.81 17.53 39.68 17.53 34.61C 17.597836 33.14049 17.93687 31.696198 18.53 30.35C 18.655043 30.075195 18.95513 29.92515 19.25 29.99C 19.542603 30.045364 19.745731 30.313322 19.72 30.61C 19.72 30.95 19.67 31.28 19.67 31.61C 19.67 37.14 24.119999 41.760002 30.02 42.370003C 30.308382 42.388153 30.541185 42.61249 30.57 42.9C 30.57888 43.18066 30.39192 43.429943 30.119999 43.5z" stroke="none" fill="#996633" fill-rule="nonzero" />
</g>
</svg>