<?xml version="1.0" standalone="no"?>
<!DOCTYPE svg PUBLIC "-//W3C//DTD SVG 1.0//EN" "http://www.w3.org/TR/2001/REC-SVG-20010904/DTD/svg10.dtd">
<svg xmlns="http://www.w3.org/2000/svg" xmlns:xlink="http://www.w3.org/1999/xlink" id="body_1" width="20" height="20">

<g transform="matrix(0.35682428 0 0 0.35682428 -0 0.017840942)">
    <path d="M0 0L55.88 0L55.88 55.95L0 55.95z" stroke="none" fill="none" />
    <path d="M1.02 4.24C 1.02 2.4505975 2.4705975 1 4.26 1L4.26 1L51.8 1C 53.5894 1 55.04 2.4505975 55.04 4.24L55.04 4.24L55.04 51.64C 55.04 53.429405 53.5894 54.88 51.8 54.88L51.8 54.88L4.26 54.88C 2.4705975 54.88 1.02 53.429405 1.02 51.64L1.02 51.64L1.02 4.24z" stroke="none" fill="#FFF8C5" fill-rule="nonzero" />
    <path transform="matrix(1 0 0 1 -0.04 -0.1)"  d="M51.84 2.1C 52.434082 2.0999997 53.003838 2.335999 53.42392 2.7560806C 53.844 3.1761622 54.08 3.7459152 54.08 4.34L54.08 4.34L54.08 51.74C 54.085335 52.337547 53.851692 52.91245 53.43103 53.33687C 53.01037 53.761284 52.437565 54.000027 51.84 54L51.84 54L4.3 54C 3.0651574 53.994522 2.0654757 52.99484 2.0600002 51.76L2.0600002 51.76L2.0600002 4.34C 2.0654764 3.1051576 3.065158 2.1054761 4.3 2.1L4.3 2.1L51.84 2.1zM51.84 0.099999905L4.3 0.099999905C 3.175482 0.099999905 2.0970213 0.5467129 1.301867 1.3418672C 0.50671244 2.1370215 0.059999943 3.215482 0.06 4.34L0.06 4.34L0.06 51.74C 0.054679394 52.86798 0.4990425 53.951588 1.2947743 54.751072C 2.090506 55.550556 3.1720085 56.000015 4.3 56L4.3 56L51.84 56C 54.181686 56.000004 56.079998 54.101692 56.08 51.760002L56.08 51.760002L56.08 4.34C 56.08 3.2154822 55.633286 2.1370206 54.83813 1.3418665C 54.042976 0.54671216 52.964516 0.09999943 51.84 0.1z" stroke="none" fill="#996633" fill-rule="nonzero" />
    <path transform="matrix(1 0 0 1 -0.04 -0.1)"  d="M50.65 37.2C 48.95871 37.208214 47.348083 36.47777 46.24 35.2C 45.938274 34.858833 45.50545 34.662422 45.050003 34.66C 44.594276 34.661144 44.160954 34.85778 43.860004 35.2C 42.756218 36.486866 41.1454 37.22741 39.450005 37.22741C 37.75461 37.22741 36.14379 36.486866 35.040005 35.2C 34.739967 34.85648 34.30611 34.659374 33.850006 34.659374C 33.3939 34.659374 32.960045 34.85648 32.660004 35.2C 31.55622 36.486866 29.9454 37.22741 28.250004 37.22741C 26.554607 37.22741 24.943789 36.486866 23.840004 35.2C 23.539055 34.85778 23.105728 34.661144 22.650003 34.66C 22.19456 34.662422 21.761734 34.858833 21.460003 35.2C 20.356218 36.486866 18.7454 37.22741 17.050003 37.22741C 15.354607 37.22741 13.743789 36.486866 12.640003 35.2C 12.339054 34.85778 11.905727 34.661144 11.450003 34.66C 10.996914 34.6601 10.566253 34.85718 10.270002 35.2C 9.160288 36.47558 7.550724 37.20554 5.8600025 37.2C 5.271019 37.15288 4.7054586 37.44044 4.396516 37.944103C 4.087574 38.447765 4.087574 39.082233 4.3965163 39.585896C 4.7054586 40.089558 5.271019 40.377117 5.8600025 40.33C 7.664939 40.329155 9.427921 39.78563 10.920002 38.77C 11.100002 38.64 11.280002 38.510002 11.450002 38.37L11.450002 38.37L11.990002 38.77C 15.043883 40.846165 19.05612 40.846165 22.11 38.77C 22.300001 38.64 22.480001 38.510002 22.650002 38.37L22.650002 38.37L23.190002 38.77C 26.243883 40.846165 30.25612 40.846165 33.31 38.77C 33.5 38.64 33.68 38.510002 33.850002 38.37L33.850002 38.37L34.390003 38.77C 37.443886 40.846165 41.456123 40.846165 44.510002 38.77L44.510002 38.77L45.050003 38.37C 45.22 38.51 45.4 38.64 45.590004 38.77C 47.079895 39.79017 48.84432 40.33414 50.650005 40.33C 51.23899 40.377117 51.80455 40.089558 52.113495 39.585896C 52.422436 39.082233 52.422436 38.447765 52.113495 37.944103C 51.80455 37.44044 51.23899 37.15288 50.650005 37.2L50.650005 37.2L50.65 37.2z" stroke="none" fill="#996633" fill-rule="nonzero" />
    <path transform="matrix(1 0 0 1 -0.04 -0.1)"  d="M50.65 28.85C 48.95871 28.858212 47.348083 28.12777 46.24 26.85C 45.938274 26.508835 45.50545 26.312426 45.050003 26.31C 44.594276 26.311142 44.160954 26.507778 43.860004 26.85C 42.756218 28.136868 41.1454 28.877407 39.450005 28.877407C 37.75461 28.877407 36.14379 28.136868 35.040005 26.85C 34.739967 26.506477 34.30611 26.309374 33.850006 26.309374C 33.3939 26.309374 32.960045 26.506477 32.660004 26.85C 31.55622 28.136868 29.9454 28.877407 28.250004 28.877407C 26.554607 28.877407 24.943789 28.136868 23.840004 26.85C 23.539055 26.507778 23.105728 26.311142 22.650003 26.31C 22.19456 26.312424 21.761734 26.508833 21.460003 26.85C 20.356218 28.136868 18.7454 28.877407 17.050003 28.877407C 15.354607 28.877407 13.743789 28.136868 12.640003 26.85C 12.339054 26.507778 11.905727 26.311142 11.450003 26.31C 10.996914 26.310097 10.566253 26.50718 10.270002 26.85C 9.160288 28.12558 7.550724 28.855541 5.8600025 28.85C 5.2710156 28.80288 4.70545 29.090435 4.396505 29.5941C 4.0875597 30.097765 4.0875597 30.732237 4.3965054 31.2359C 4.7054505 31.739567 5.2710156 32.027122 5.8600025 31.98C 7.6668415 31.981823 9.4315405 31.43428 10.920002 30.41C 11.103091 30.288961 11.279981 30.158798 11.450002 30.02L11.450002 30.02L11.990002 30.41C 15.038666 32.50305 19.061337 32.50305 22.11 30.41C 22.298002 30.29145 22.478355 30.161196 22.650002 30.02C 22.830002 30.16 23.010002 30.29 23.190002 30.41C 26.238667 32.50305 30.261337 32.50305 33.31 30.41C 33.498 30.29145 33.678356 30.161196 33.850002 30.02C 34.030006 30.16 34.210007 30.29 34.390003 30.41C 37.438667 32.50305 41.46134 32.50305 44.510002 30.41C 44.690002 30.29 44.870003 30.16 45.050003 30.02C 45.22165 30.161196 45.402004 30.29145 45.590004 30.41C 47.074738 31.444262 48.840546 31.99913 50.65 32C 51.238987 32.047115 51.804546 31.75956 52.11349 31.255896C 52.422432 30.752234 52.422432 30.117765 52.11349 29.614103C 51.804546 29.11044 51.238987 28.822884 50.65 28.869999L50.65 28.869999L50.65 28.85z" stroke="none" fill="#996633" fill-rule="nonzero" />
    <path transform="matrix(1 0 0 1 -0.04 -0.1)"  d="M5.86 23.63C 7.666839 23.631824 9.431539 23.08428 10.92 22.06C 11.103089 21.938961 11.279979 21.808798 11.45 21.67C 11.63 21.81 11.81 21.939999 11.99 22.06C 15.038663 24.153053 19.061337 24.153053 22.11 22.06C 22.298002 21.94145 22.478355 21.811195 22.650002 21.67C 22.830002 21.81 23.010002 21.939999 23.190002 22.06C 26.238667 24.153053 30.261337 24.153053 33.31 22.06C 33.498 21.94145 33.678356 21.811195 33.850002 21.67C 34.030006 21.81 34.210007 21.939999 34.390003 22.06C 37.438667 24.153053 41.46134 24.153053 44.510002 22.06C 44.690002 21.939999 44.870003 21.81 45.050003 21.67C 45.22165 21.811195 45.402004 21.94145 45.590004 22.06C 47.077065 23.08717 48.842686 23.635002 50.650005 23.63C 51.23899 23.67712 51.804558 23.389565 52.113503 22.885899C 52.422447 22.382235 52.422447 21.747763 52.113503 21.244099C 51.804558 20.740433 51.23899 20.452877 50.650005 20.5C 48.958717 20.508211 47.34809 19.77777 46.240005 18.5C 45.938274 18.158834 45.50545 17.962425 45.050007 17.96C 44.594284 17.961143 44.16096 18.157778 43.86001 18.5C 42.75622 19.786867 41.145405 20.527409 39.45001 20.527409C 37.754612 20.527409 36.143795 19.786867 35.04001 18.5C 34.739967 18.156477 34.30611 17.959373 33.850006 17.959373C 33.3939 17.959373 32.960045 18.156477 32.660007 18.5C 31.556223 19.786867 29.945404 20.527409 28.250008 20.527409C 26.554611 20.527409 24.943792 19.786867 23.840008 18.5C 23.539059 18.157778 23.105732 17.961142 22.650007 17.96C 22.194563 17.962425 21.761738 18.158833 21.460007 18.5C 20.356222 19.786867 18.745403 20.527409 17.050007 20.527409C 15.35461 20.527409 13.743793 19.786867 12.640007 18.5C 12.339058 18.157778 11.905731 17.961142 11.4500065 17.96C 10.996918 17.960096 10.5662565 18.157179 10.270006 18.5C 9.160292 19.77558 7.550728 20.50554 5.8600063 20.5C 5.271023 20.452885 4.7054625 20.74044 4.3965197 21.244104C 4.087578 21.747766 4.087578 22.382235 4.39652 22.885897C 4.7054625 23.38956 5.271023 23.677116 5.8600063 23.630001L5.8600063 23.630001L5.86 23.63z" stroke="none" fill="#996633" fill-rule="nonzero" />
</g>
</svg>