<?xml version="1.0" encoding="UTF-8"?>
<svg xmlns="http://www.w3.org/2000/svg" xmlns:xlink="http://www.w3.org/1999/xlink" width="20px" height="20px" viewBox="0 0 20 20" version="1.1">
<g id="surface1">
<path style=" stroke:none;fill-rule:nonzero;fill:rgb(80%,20%,80%);fill-opacity:1;" d="M 19.628906 2.59375 C 19.589844 2.445312 19.460938 2.335938 19.308594 2.324219 L 13.414062 2.324219 C 13.261719 2.335938 13.132812 2.445312 13.09375 2.59375 C 13.023438 2.769531 13.023438 2.964844 13.09375 3.140625 L 15.542969 9.980469 L 15.542969 16.519531 C 15.527344 16.71875 15.621094 16.910156 15.78125 17.027344 C 15.824219 17.050781 15.867188 17.0625 15.914062 17.0625 C 16.03125 17.054688 16.136719 16.984375 16.1875 16.878906 L 17.113281 15.339844 C 17.175781 15.230469 17.207031 15.105469 17.207031 14.980469 L 17.207031 9.980469 L 19.628906 3.136719 C 19.695312 2.960938 19.695312 2.765625 19.628906 2.59375 Z M 19.628906 2.59375 "/>
<path style=" stroke:none;fill-rule:nonzero;fill:rgb(80%,20%,80%);fill-opacity:1;" d="M 7.339844 2.796875 L 0.3125 2.796875 L 0.304688 9.832031 L 7.339844 16.867188 L 14.375 9.832031 Z M 7.339844 2.796875 "/>
<path style=" stroke:none;fill-rule:nonzero;fill:rgb(100%,100%,100%);fill-opacity:1;" d="M 7.3125 14.941406 C 7.269531 14.984375 7.207031 14.984375 7.128906 14.941406 C 6.875 14.742188 6.632812 14.523438 6.414062 14.285156 C 6.179688 14.066406 5.960938 13.824219 5.765625 13.570312 C 5.695312 13.472656 5.695312 13.34375 5.765625 13.246094 C 6.035156 12.808594 6.160156 12.554688 6.121094 12.480469 C 5.820312 12.125 5.5 11.785156 5.160156 11.46875 C 4.949219 11.230469 4.707031 11.019531 4.445312 10.835938 C 4.253906 10.882812 4.070312 10.96875 3.910156 11.089844 C 3.660156 11.246094 3.492188 11.300781 3.410156 11.25 C 3.101562 11 2.808594 10.730469 2.539062 10.4375 C 2.199219 10.070312 2.046875 9.847656 2.128906 9.773438 C 2.210938 9.703125 3.253906 9.203125 5.316406 8.253906 C 7.546875 7.226562 8.769531 6.65625 8.984375 6.546875 C 9.109375 6.480469 9.1875 6.472656 9.230469 6.511719 C 9.332031 6.613281 9.425781 6.722656 9.519531 6.835938 C 9.644531 6.984375 9.742188 7.097656 9.8125 7.164062 C 9.886719 7.230469 9.980469 7.324219 10.117188 7.445312 C 10.253906 7.566406 10.355469 7.65625 10.421875 7.722656 C 10.484375 7.785156 10.472656 7.855469 10.421875 7.972656 C 10.28125 8.347656 9.746094 9.585938 8.816406 11.683594 C 7.890625 13.78125 7.386719 14.867188 7.3125 14.941406 Z M 8.058594 8.96875 C 7.894531 9.023438 7.574219 9.171875 7.09375 9.410156 C 6.789062 9.542969 6.496094 9.703125 6.21875 9.886719 C 6.175781 9.933594 6.21875 10.027344 6.363281 10.183594 C 6.4375 10.265625 6.5625 10.390625 6.722656 10.5625 C 6.882812 10.738281 6.992188 10.796875 7.046875 10.773438 C 7.070312 10.765625 7.089844 10.75 7.105469 10.730469 C 7.300781 10.46875 7.46875 10.1875 7.605469 9.890625 C 7.78125 9.59375 7.929688 9.285156 8.058594 8.96875 Z M 8.058594 8.96875 "/>
</g>
</svg>
