<?xml version="1.0" encoding="UTF-8"?>
<svg xmlns="http://www.w3.org/2000/svg" xmlns:xlink="http://www.w3.org/1999/xlink" width="20px" height="20px" viewBox="0 0 20 20" version="1.1">
<g id="surface1">
<path style=" stroke:none;fill-rule:nonzero;fill:rgb(80%,20%,80%);fill-opacity:1;" d="M 18.136719 1.75 C 18.089844 1.585938 17.949219 1.460938 17.777344 1.4375 L 10.917969 1.4375 C 10.742188 1.457031 10.59375 1.578125 10.542969 1.75 C 10.46875 1.957031 10.46875 2.179688 10.542969 2.386719 L 13.398438 10.34375 L 13.398438 17.953125 C 13.382812 18.179688 13.480469 18.398438 13.660156 18.535156 C 13.707031 18.5625 13.761719 18.578125 13.8125 18.578125 C 13.953125 18.566406 14.074219 18.484375 14.136719 18.359375 L 15.207031 16.574219 C 15.277344 16.445312 15.316406 16.300781 15.3125 16.152344 L 15.3125 10.355469 L 18.148438 2.394531 C 18.226562 2.183594 18.21875 1.957031 18.136719 1.75 Z M 18.136719 1.75 "/>
<path style=" stroke:none;fill-rule:nonzero;fill:rgb(80%,20%,80%);fill-opacity:1;" d="M 9.652344 9.328125 C 9.652344 9.402344 9.605469 9.453125 9.5 9.480469 C 9.125 9.527344 8.75 9.542969 8.371094 9.527344 C 7.996094 9.539062 7.621094 9.523438 7.25 9.480469 C 7.113281 9.453125 7.007812 9.34375 6.988281 9.207031 C 6.851562 8.621094 6.742188 8.3125 6.664062 8.269531 C 6.121094 8.222656 5.578125 8.210938 5.035156 8.230469 C 4.667969 8.207031 4.296875 8.222656 3.933594 8.28125 C 3.8125 8.480469 3.734375 8.703125 3.703125 8.933594 C 3.625 9.269531 3.53125 9.453125 3.421875 9.480469 C 2.960938 9.527344 2.5 9.542969 2.035156 9.527344 C 1.414062 9.527344 1.105469 9.472656 1.105469 9.355469 C 1.105469 9.234375 1.5625 7.953125 2.484375 5.464844 C 3.480469 2.777344 4.015625 1.300781 4.097656 1.035156 C 4.144531 0.882812 4.203125 0.804688 4.269531 0.804688 C 4.332031 0.804688 4.546875 0.804688 4.773438 0.835938 C 5.003906 0.867188 5.179688 0.867188 5.289062 0.867188 C 5.398438 0.867188 5.5625 0.867188 5.773438 0.847656 C 5.988281 0.824219 6.132812 0.824219 6.25 0.824219 C 6.367188 0.824219 6.398438 0.890625 6.464844 1.023438 C 6.667969 1.445312 7.246094 2.902344 8.199219 5.394531 C 9.171875 7.910156 9.652344 9.21875 9.652344 9.328125 Z M 5.34375 3.785156 C 5.257812 3.964844 5.113281 4.351562 4.910156 4.945312 C 4.769531 5.308594 4.660156 5.679688 4.582031 6.0625 C 4.582031 6.136719 4.703125 6.175781 4.9375 6.183594 C 5.0625 6.183594 5.269531 6.183594 5.5625 6.183594 C 5.851562 6.183594 5.976562 6.148438 6.003906 6.082031 C 6.011719 6.054688 6.011719 6.027344 6.003906 6 C 5.945312 5.621094 5.851562 5.25 5.722656 4.894531 C 5.621094 4.515625 5.496094 4.144531 5.34375 3.785156 Z M 5.34375 3.785156 "/>
<path style=" stroke:none;fill-rule:nonzero;fill:rgb(80%,20%,80%);fill-opacity:1;" d="M 8.039062 19.148438 C 7.800781 19.148438 7.4375 19.148438 6.96875 19.109375 C 6.496094 19.070312 6.128906 19.074219 5.894531 19.074219 L 4.371094 19.074219 L 2.84375 19.050781 C 2.695312 19.050781 2.613281 19.003906 2.59375 18.910156 C 2.574219 18.523438 2.53125 18.136719 2.472656 17.753906 C 2.425781 17.558594 2.398438 17.445312 2.398438 17.421875 C 2.398438 17.394531 2.894531 16.613281 3.890625 15.0625 C 4.882812 13.515625 5.382812 12.675781 5.382812 12.5625 C 5.382812 12.5 5.328125 12.46875 5.222656 12.46875 C 4.9375 12.46875 4.507812 12.46875 3.9375 12.492188 C 3.363281 12.519531 2.933594 12.519531 2.644531 12.519531 C 2.601562 12.53125 2.554688 12.523438 2.519531 12.492188 C 2.488281 12.460938 2.472656 12.414062 2.484375 12.371094 C 2.507812 12.074219 2.554688 11.78125 2.625 11.492188 C 2.699219 11.183594 2.742188 10.867188 2.761719 10.550781 C 2.761719 10.484375 2.8125 10.453125 2.925781 10.453125 C 3.488281 10.453125 4.328125 10.464844 5.445312 10.488281 C 6.566406 10.515625 7.410156 10.523438 7.96875 10.523438 C 8.050781 10.523438 8.121094 10.585938 8.132812 10.667969 C 8.21875 11.125 8.253906 11.59375 8.242188 12.0625 C 8.234375 12.160156 8.195312 12.253906 8.132812 12.332031 C 7.878906 12.6875 7.339844 13.519531 6.519531 14.777344 C 6.015625 15.507812 5.550781 16.265625 5.121094 17.042969 C 5.121094 17.074219 5.15625 17.09375 5.226562 17.09375 C 6.050781 17.09375 6.683594 17.074219 7.125 17.042969 C 7.214844 17.042969 7.40625 17.015625 7.707031 16.972656 C 7.894531 16.9375 8.085938 16.917969 8.273438 16.910156 C 8.332031 16.910156 8.355469 16.953125 8.355469 17.035156 C 8.363281 17.699219 8.3125 18.359375 8.199219 19.015625 C 8.199219 19.054688 8.179688 19.089844 8.148438 19.117188 C 8.117188 19.144531 8.078125 19.15625 8.039062 19.148438 Z M 8.039062 19.148438 "/>
</g>
</svg>
