<?xml version="1.0" encoding="UTF-8"?><svg xmlns="http://www.w3.org/2000/svg" width="20px" height="20px" viewBox="0 0 56.33 56.53"><defs><style>.d{fill:#fff;}.e{fill:#c3c;}</style></defs><g id="a"><g><rect class="d" x="1.17" y="1.19" width="54" height="54" rx="11" ry="11"/><path class="d" d="M44.17,2.19c5.51,0,10,4.49,10,10V44.19c0,5.51-4.49,10-10,10H12.17c-5.51,0-10-4.49-10-10V12.19C2.17,6.68,6.65,2.19,12.17,2.19H44.17m0-2H12.17C5.57,.19,.17,5.59,.17,12.19V44.19c0,6.6,5.4,12,12,12H44.17c6.6,0,12-5.4,12-12V12.19C56.17,5.59,50.77,.19,44.17,.19h0Z"/></g><g><rect class="d" x="1.2" y="1.29" width="53.88" height="53.88" rx="3.24" ry="3.24"/><path class="d" d="M51.84,2.29c1.24,0,2.24,1.01,2.24,2.24V51.93c0,1.24-1.01,2.24-2.24,2.24H4.44c-1.24,0-2.24-1.01-2.24-2.24V4.53c0-1.24,1.01-2.24,2.24-2.24H51.84m0-2H4.44C2.1,.29,.2,2.19,.2,4.53V51.93c0,2.34,1.9,4.24,4.24,4.24H51.84c2.34,0,4.24-1.9,4.24-4.24V4.53c0-2.34-1.9-4.24-4.24-4.24h0Z"/></g><g><rect class="d" x="1.17" y="1.19" width="54" height="54" rx="4" ry="4"/><path class="e" d="M51.17,2.19c1.65,0,3,1.35,3,3V51.19c0,1.65-1.35,3-3,3H5.17c-1.65,0-3-1.35-3-3V5.19c0-1.65,1.35-3,3-3H51.17m0-2H5.17C2.42,.19,.17,2.44,.17,5.19V51.19c0,2.75,2.25,5,5,5H51.17c2.75,0,5-2.25,5-5V5.19c0-2.75-2.25-5-5-5h0Z"/></g></g><g id="b"><g id="c"><g><path class="e" d="M28.61,21.59v11.65c0,1.22,1,2.22,2.22,2.22h.85v10.5c0,1.22,1,2.23,2.22,2.23h5.97c1.22,0,2.22-1,2.22-2.23v-10.53h.85c1.22,0,2.23-1,2.23-2.23v-11.61c0-1.22-1-2.23-2.23-2.23h-12.13c-1.26,0-2.22,1-2.22,2.23h0Zm0,0"/><path class="e" d="M42.03,12.35c0,2.85-2.31,5.16-5.15,5.16s-5.16-2.31-5.16-5.16,2.31-5.15,5.16-5.15,5.15,2.31,5.15,5.15h0Zm0,0"/></g><path class="e" d="M26,9.97c-.19-.45-.51-.73-.87-.73H9.18c-.36,0-.69,.27-.87,.73-.19,.46-.2,1.01-.03,1.48l6.64,18.55v17.71c0,.62,.25,1.17,.65,1.39,.12,.07,.24,.1,.36,.1,.28,0,.55-.18,.75-.5l2.5-4.18c.16-.27,.25-.62,.25-.98v-13.53l6.6-18.55c.17-.47,.16-1.02-.03-1.48Z"/></g></g></svg>