<?xml version="1.0" encoding="UTF-8"?>
<svg xmlns="http://www.w3.org/2000/svg" xmlns:xlink="http://www.w3.org/1999/xlink" width="20px" height="20px" viewBox="0 0 20 20" version="1.1">
<g id="surface1">
<path style=" stroke:none;fill-rule:nonzero;fill:rgb(80%,20%,80%);fill-opacity:1;" d="M 7.28125 5.980469 L 1.3125 5.980469 C 0.800781 5.980469 0.390625 6.394531 0.394531 6.902344 L 0.410156 12.648438 C 0.410156 13.160156 0.820312 13.574219 1.328125 13.578125 C 1.609375 13.574219 1.871094 13.441406 2.042969 13.222656 L 2.398438 18.8125 C 2.433594 19.3125 2.851562 19.695312 3.351562 19.6875 L 5.238281 19.6875 C 5.738281 19.6875 6.152344 19.304688 6.1875 18.808594 L 6.546875 13.203125 C 6.714844 13.425781 6.980469 13.558594 7.261719 13.5625 C 7.769531 13.550781 8.175781 13.136719 8.179688 12.628906 L 8.179688 6.914062 C 8.179688 6.40625 7.773438 5.988281 7.265625 5.980469 Z M 7.28125 5.980469 "/>
<path style=" stroke:none;fill-rule:nonzero;fill:rgb(80%,20%,80%);fill-opacity:1;" d="M 6.835938 2.820312 C 6.835938 4.226562 5.695312 5.363281 4.292969 5.363281 C 2.886719 5.363281 1.75 4.222656 1.75 2.820312 C 1.75 1.414062 2.890625 0.277344 4.296875 0.277344 C 5.699219 0.28125 6.835938 1.417969 6.835938 2.820312 Z M 6.835938 2.820312 "/>
<path style=" stroke:none;fill-rule:nonzero;fill:rgb(80%,20%,80%);fill-opacity:1;" d="M 13.609375 4.277344 C 13.476562 4.277344 13.351562 4.328125 13.253906 4.417969 C 13.15625 4.496094 13.097656 4.613281 13.097656 4.738281 L 13.097656 7.730469 C 13.097656 7.859375 13.039062 7.976562 12.941406 8.058594 C 12.84375 8.144531 12.71875 8.191406 12.585938 8.191406 C 12.453125 8.191406 12.328125 8.144531 12.230469 8.058594 C 12.128906 7.976562 12.074219 7.859375 12.070312 7.730469 L 12.070312 4.738281 C 12.074219 4.613281 12.015625 4.496094 11.917969 4.417969 C 11.820312 4.328125 11.691406 4.277344 11.5625 4.277344 C 11.429688 4.28125 11.300781 4.328125 11.203125 4.417969 C 11.105469 4.496094 11.050781 4.613281 11.050781 4.738281 L 11.050781 7.730469 C 11.050781 7.859375 10.992188 7.976562 10.894531 8.058594 C 10.796875 8.144531 10.671875 8.191406 10.539062 8.191406 C 10.40625 8.191406 10.28125 8.144531 10.183594 8.058594 C 10.085938 7.976562 10.03125 7.859375 10.027344 7.730469 L 10.027344 4.738281 C 10.03125 4.613281 9.972656 4.496094 9.875 4.417969 C 9.777344 4.328125 9.648438 4.277344 9.519531 4.277344 C 9.386719 4.28125 9.257812 4.328125 9.160156 4.417969 C 9.066406 4.496094 9.007812 4.613281 9.007812 4.738281 L 9.007812 9.347656 C 9.007812 9.636719 9.109375 9.917969 9.296875 10.144531 C 9.492188 10.382812 9.753906 10.558594 10.050781 10.644531 L 10.050781 16.25 C 10.050781 16.503906 10.164062 16.742188 10.359375 16.898438 C 10.5625 17.078125 10.824219 17.175781 11.09375 17.171875 L 12.136719 17.171875 C 12.398438 17.171875 12.652344 17.074219 12.851562 16.898438 C 13.046875 16.742188 13.160156 16.503906 13.160156 16.25 L 13.160156 10.644531 C 13.429688 10.546875 13.667969 10.371094 13.84375 10.144531 C 14.03125 9.917969 14.132812 9.636719 14.132812 9.347656 L 14.132812 4.738281 C 14.132812 4.613281 14.078125 4.496094 13.980469 4.417969 C 13.882812 4.328125 13.753906 4.277344 13.621094 4.277344 Z M 13.609375 4.277344 "/>
<path style=" stroke:none;fill-rule:nonzero;fill:rgb(80%,20%,80%);fill-opacity:1;" d="M 19.519531 4.417969 C 19.4375 4.328125 19.320312 4.277344 19.195312 4.277344 L 17.355469 4.277344 C 16.085938 4.28125 15.058594 5.3125 15.054688 6.582031 L 15.054688 12.339844 C 15.054688 12.398438 15.078125 12.457031 15.121094 12.5 C 15.164062 12.542969 15.222656 12.570312 15.285156 12.566406 L 16.894531 12.566406 L 16.894531 16.25 C 16.898438 16.757812 17.308594 17.167969 17.816406 17.171875 L 18.734375 17.171875 C 19.242188 17.167969 19.65625 16.757812 19.65625 16.25 L 19.65625 4.738281 C 19.660156 4.617188 19.609375 4.5 19.519531 4.417969 Z M 19.519531 4.417969 "/>
</g>
</svg>
