<?xml version="1.0" encoding="UTF-8"?>
<svg xmlns="http://www.w3.org/2000/svg" xmlns:xlink="http://www.w3.org/1999/xlink" width="20px" height="20px" viewBox="0 0 20 20" version="1.1">
<g id="surface1">
<path style=" stroke:none;fill-rule:nonzero;fill:rgb(60%,40%,20%);fill-opacity:1;" d="M 6.492188 6.214844 L 1.414062 6.214844 C 0.980469 6.214844 0.628906 6.570312 0.632812 7.003906 L 0.632812 11.902344 C 0.632812 12.335938 0.980469 12.6875 1.414062 12.691406 C 1.648438 12.691406 1.871094 12.582031 2.019531 12.394531 L 2.324219 17.167969 C 2.355469 17.589844 2.710938 17.917969 3.136719 17.910156 L 4.746094 17.910156 C 5.171875 17.914062 5.527344 17.585938 5.558594 17.160156 L 5.863281 12.382812 C 6.007812 12.574219 6.230469 12.6875 6.46875 12.691406 C 6.902344 12.683594 7.25 12.332031 7.25 11.898438 L 7.25 7.011719 C 7.253906 6.578125 6.90625 6.222656 6.472656 6.214844 Z M 6.492188 6.214844 "/>
<path style=" stroke:none;fill-rule:nonzero;fill:rgb(60%,40%,20%);fill-opacity:1;" d="M 6.113281 3.535156 C 6.109375 4.730469 5.136719 5.695312 3.9375 5.691406 C 2.742188 5.6875 1.777344 4.71875 1.777344 3.519531 C 1.78125 2.324219 2.75 1.355469 3.945312 1.355469 C 4.523438 1.355469 5.078125 1.585938 5.484375 1.996094 C 5.890625 2.40625 6.117188 2.957031 6.113281 3.535156 Z M 6.113281 3.535156 "/>
<path style=" stroke:none;fill-rule:nonzero;fill:rgb(60%,40%,20%);fill-opacity:1;" d="M 15.289062 10.867188 L 14.605469 10.867188 C 14.445312 10.867188 14.3125 11 14.3125 11.160156 L 14.3125 11.84375 C 14.3125 12.003906 14.445312 12.136719 14.605469 12.140625 L 15.289062 12.140625 C 15.453125 12.140625 15.585938 12.007812 15.585938 11.84375 L 15.585938 11.160156 C 15.585938 11.082031 15.554688 11.007812 15.5 10.953125 C 15.441406 10.898438 15.367188 10.867188 15.289062 10.867188 Z M 15.289062 10.867188 "/>
<path style=" stroke:none;fill-rule:nonzero;fill:rgb(60%,40%,20%);fill-opacity:1;" d="M 17.316406 10.867188 L 16.636719 10.867188 C 16.472656 10.867188 16.339844 11 16.339844 11.160156 L 16.339844 11.84375 C 16.339844 12.007812 16.472656 12.140625 16.636719 12.140625 L 17.316406 12.140625 C 17.480469 12.140625 17.613281 12.007812 17.613281 11.84375 L 17.613281 11.160156 C 17.613281 11.082031 17.582031 11.007812 17.527344 10.953125 C 17.472656 10.898438 17.394531 10.867188 17.316406 10.867188 Z M 17.316406 10.867188 "/>
<path style=" stroke:none;fill-rule:nonzero;fill:rgb(60%,40%,20%);fill-opacity:1;" d="M 11.257812 14.769531 L 10.570312 14.769531 C 10.410156 14.769531 10.277344 14.902344 10.277344 15.0625 L 10.277344 15.746094 C 10.277344 15.90625 10.410156 16.039062 10.570312 16.039062 L 11.253906 16.039062 C 11.414062 16.039062 11.546875 15.910156 11.550781 15.746094 L 11.550781 15.0625 C 11.550781 14.902344 11.417969 14.769531 11.257812 14.769531 Z M 11.257812 14.769531 "/>
<path style=" stroke:none;fill-rule:nonzero;fill:rgb(60%,40%,20%);fill-opacity:1;" d="M 13.28125 14.769531 L 12.601562 14.769531 C 12.4375 14.769531 12.308594 14.902344 12.308594 15.0625 L 12.308594 15.746094 C 12.308594 15.90625 12.4375 16.039062 12.601562 16.039062 L 13.28125 16.039062 C 13.445312 16.039062 13.578125 15.910156 13.578125 15.746094 L 13.578125 15.0625 C 13.578125 14.902344 13.445312 14.769531 13.28125 14.769531 Z M 13.28125 14.769531 "/>
<path style=" stroke:none;fill-rule:nonzero;fill:rgb(60%,40%,20%);fill-opacity:1;" d="M 10.554688 14.085938 L 11.234375 14.085938 C 11.398438 14.085938 11.53125 13.957031 11.53125 13.792969 L 11.53125 13.109375 C 11.527344 12.949219 11.398438 12.820312 11.234375 12.820312 L 10.554688 12.820312 C 10.390625 12.824219 10.261719 12.957031 10.261719 13.117188 L 10.261719 13.800781 C 10.261719 13.960938 10.390625 14.09375 10.554688 14.09375 Z M 10.554688 14.085938 "/>
<path style=" stroke:none;fill-rule:nonzero;fill:rgb(60%,40%,20%);fill-opacity:1;" d="M 12.582031 14.085938 L 13.265625 14.085938 C 13.425781 14.085938 13.558594 13.953125 13.558594 13.792969 L 13.558594 13.109375 C 13.558594 12.949219 13.425781 12.816406 13.265625 12.8125 L 12.582031 12.8125 C 12.417969 12.8125 12.285156 12.945312 12.285156 13.109375 L 12.285156 13.792969 C 12.289062 13.957031 12.417969 14.085938 12.582031 14.085938 Z M 12.582031 14.085938 "/>
<path style=" stroke:none;fill-rule:nonzero;fill:rgb(60%,40%,20%);fill-opacity:1;" d="M 15.289062 12.820312 L 14.605469 12.820312 C 14.445312 12.820312 14.3125 12.953125 14.3125 13.113281 L 14.3125 13.796875 C 14.3125 13.957031 14.445312 14.089844 14.605469 14.09375 L 15.289062 14.09375 C 15.453125 14.09375 15.585938 13.960938 15.585938 13.796875 L 15.585938 13.105469 C 15.582031 12.945312 15.453125 12.8125 15.289062 12.8125 Z M 15.289062 12.820312 "/>
<path style=" stroke:none;fill-rule:nonzero;fill:rgb(60%,40%,20%);fill-opacity:1;" d="M 17.316406 12.820312 L 16.636719 12.820312 C 16.472656 12.820312 16.339844 12.953125 16.339844 13.113281 L 16.339844 13.796875 C 16.339844 13.960938 16.472656 14.09375 16.636719 14.09375 L 17.316406 14.09375 C 17.480469 14.09375 17.613281 13.960938 17.613281 13.796875 L 17.613281 13.105469 C 17.613281 12.945312 17.480469 12.8125 17.316406 12.8125 Z M 17.316406 12.820312 "/>
<path style=" stroke:none;fill-rule:nonzero;fill:rgb(60%,40%,20%);fill-opacity:1;" d="M 8.835938 17.371094 L 19.035156 17.371094 C 19.199219 17.371094 19.332031 17.238281 19.332031 17.074219 L 19.332031 7.621094 C 19.332031 7.460938 19.199219 7.328125 19.035156 7.328125 L 17.988281 7.328125 L 17.988281 8.355469 C 17.988281 8.710938 17.699219 9.003906 17.339844 9.003906 L 16.625 9.003906 C 16.265625 9.003906 15.976562 8.710938 15.976562 8.355469 L 15.976562 7.328125 L 14.945312 7.328125 L 14.945312 8.355469 C 14.945312 8.710938 14.65625 9.003906 14.296875 9.003906 L 13.582031 9.003906 C 13.222656 9.003906 12.933594 8.710938 12.933594 8.355469 L 12.933594 7.328125 L 11.902344 7.328125 L 11.902344 8.355469 C 11.90625 8.527344 11.835938 8.691406 11.714844 8.8125 C 11.59375 8.9375 11.425781 9.003906 11.253906 9.003906 L 10.539062 9.003906 C 10.367188 9.003906 10.203125 8.933594 10.082031 8.8125 C 9.960938 8.691406 9.890625 8.527344 9.894531 8.355469 L 9.894531 7.328125 L 8.835938 7.328125 C 8.675781 7.328125 8.542969 7.460938 8.542969 7.621094 L 8.542969 17.074219 C 8.542969 17.238281 8.671875 17.371094 8.835938 17.371094 Z M 9.300781 10.320312 L 18.558594 10.320312 L 18.558594 16.609375 L 9.269531 16.609375 Z M 9.300781 10.320312 "/>
<path style=" stroke:none;fill-rule:nonzero;fill:rgb(60%,40%,20%);fill-opacity:1;" d="M 10.535156 6.4375 C 10.371094 6.4375 10.238281 6.570312 10.238281 6.734375 L 10.238281 8.355469 C 10.238281 8.515625 10.371094 8.648438 10.535156 8.648438 L 11.25 8.648438 C 11.414062 8.648438 11.542969 8.515625 11.542969 8.355469 L 11.542969 6.75 C 11.542969 6.585938 11.414062 6.457031 11.25 6.453125 Z M 10.535156 6.4375 "/>
<path style=" stroke:none;fill-rule:nonzero;fill:rgb(60%,40%,20%);fill-opacity:1;" d="M 13.574219 6.4375 C 13.410156 6.4375 13.277344 6.570312 13.277344 6.734375 L 13.277344 8.355469 C 13.277344 8.515625 13.410156 8.648438 13.574219 8.648438 L 14.289062 8.648438 C 14.453125 8.648438 14.585938 8.515625 14.585938 8.355469 L 14.585938 6.75 C 14.585938 6.585938 14.453125 6.453125 14.289062 6.453125 Z M 13.574219 6.4375 "/>
<path style=" stroke:none;fill-rule:nonzero;fill:rgb(60%,40%,20%);fill-opacity:1;" d="M 17.339844 6.4375 L 16.625 6.4375 C 16.460938 6.441406 16.332031 6.574219 16.332031 6.734375 L 16.332031 8.355469 C 16.332031 8.515625 16.460938 8.648438 16.625 8.648438 L 17.339844 8.648438 C 17.5 8.648438 17.632812 8.515625 17.632812 8.355469 L 17.632812 6.75 C 17.632812 6.585938 17.5 6.457031 17.339844 6.453125 Z M 17.339844 6.4375 "/>
</g>
</svg>
