<?xml version="1.0" encoding="UTF-8"?>
<svg xmlns="http://www.w3.org/2000/svg" xmlns:xlink="http://www.w3.org/1999/xlink" width="20px" height="20px" viewBox="0 0 20 20" version="1.1">
<g id="surface1">
<path style=" stroke:none;fill-rule:nonzero;fill:rgb(60%,40%,20%);fill-opacity:1;" d="M 6.414062 7.324219 L 1.515625 7.324219 C 1.109375 7.320312 0.773438 7.636719 0.757812 8.039062 L 0.757812 12.539062 C 0.773438 12.941406 1.105469 13.257812 1.511719 13.253906 C 1.742188 13.269531 1.96875 13.175781 2.128906 13.007812 L 2.425781 17.390625 C 2.460938 17.785156 2.800781 18.085938 3.199219 18.074219 L 4.753906 18.074219 C 5.15625 18.085938 5.496094 17.785156 5.535156 17.386719 L 5.828125 12.992188 C 5.96875 13.171875 6.183594 13.277344 6.410156 13.277344 C 6.8125 13.28125 7.144531 12.964844 7.164062 12.5625 L 7.183594 8.066406 C 7.164062 7.664062 6.832031 7.347656 6.429688 7.355469 Z M 6.414062 7.324219 "/>
<path style=" stroke:none;fill-rule:nonzero;fill:rgb(60%,40%,20%);fill-opacity:1;" d="M 6.058594 4.851562 C 6.046875 5.390625 5.816406 5.90625 5.425781 6.28125 C 5.035156 6.652344 4.507812 6.855469 3.96875 6.84375 C 3.425781 6.855469 2.902344 6.652344 2.511719 6.28125 C 2.117188 5.90625 1.890625 5.390625 1.878906 4.851562 C 1.90625 3.722656 2.84375 2.835938 3.96875 2.859375 C 5.09375 2.835938 6.027344 3.722656 6.058594 4.851562 Z M 6.058594 4.851562 "/>
<path style=" stroke:none;fill-rule:nonzero;fill:rgb(60%,40%,20%);fill-opacity:1;" d="M 8.597656 4.066406 L 12.449219 4.066406 C 12.769531 4.0625 13.035156 4.316406 13.046875 4.636719 L 13.046875 8.175781 C 13.039062 8.496094 12.773438 8.75 12.453125 8.746094 C 12.277344 8.742188 12.113281 8.664062 11.996094 8.53125 L 11.765625 11.976562 C 11.734375 12.285156 11.464844 12.519531 11.152344 12.511719 L 9.914062 12.511719 C 9.601562 12.519531 9.332031 12.285156 9.304688 11.972656 L 9.070312 8.535156 C 8.957031 8.675781 8.789062 8.757812 8.609375 8.761719 C 8.285156 8.761719 8.023438 8.503906 8.019531 8.179688 L 8.019531 4.644531 C 8.027344 4.328125 8.289062 4.074219 8.605469 4.074219 Z M 8.597656 4.066406 "/>
<path style=" stroke:none;fill-rule:nonzero;fill:rgb(60%,40%,20%);fill-opacity:1;" d="M 12.164062 2.125 C 12.105469 2.988281 11.390625 3.660156 10.523438 3.660156 C 9.660156 3.660156 8.941406 2.988281 8.886719 2.125 C 8.941406 1.261719 9.660156 0.589844 10.523438 0.589844 C 11.390625 0.589844 12.105469 1.261719 12.164062 2.125 Z M 12.164062 2.125 "/>
<path style=" stroke:none;fill-rule:nonzero;fill:rgb(60%,40%,20%);fill-opacity:1;" d="M 17.375 13.804688 C 16.914062 13.585938 16.421875 13.421875 15.945312 13.246094 C 15.667969 13.15625 15.398438 13.027344 15.152344 12.867188 C 14.683594 12.550781 14.769531 12.027344 15.324219 11.820312 C 15.476562 11.777344 15.636719 11.75 15.796875 11.75 C 16.421875 11.71875 17.042969 11.824219 17.621094 12.0625 C 17.90625 12.179688 18.003906 12.140625 18.101562 11.886719 C 18.195312 11.632812 18.285156 11.339844 18.382812 11.066406 C 18.445312 10.886719 18.382812 10.765625 18.164062 10.6875 C 17.792969 10.542969 17.40625 10.445312 17.015625 10.394531 C 16.492188 10.324219 16.492188 10.320312 16.492188 9.875 C 16.492188 9.246094 16.492188 9.246094 15.75 9.246094 L 15.429688 9.246094 C 15.070312 9.246094 15.019531 9.304688 15.015625 9.605469 C 15.015625 9.734375 15.015625 9.867188 15.015625 10.003906 C 15.015625 10.398438 15.015625 10.394531 14.566406 10.53125 C 13.496094 10.863281 12.832031 11.484375 12.761719 12.484375 C 12.695312 13.371094 13.238281 13.96875 14.089844 14.402344 C 14.628906 14.644531 15.183594 14.859375 15.746094 15.039062 C 15.960938 15.113281 16.164062 15.214844 16.351562 15.34375 C 16.886719 15.699219 16.789062 16.347656 16.152344 16.582031 C 15.8125 16.707031 15.445312 16.746094 15.082031 16.699219 C 14.523438 16.648438 13.976562 16.507812 13.460938 16.285156 C 13.160156 16.152344 13.070312 16.1875 12.972656 16.464844 C 12.871094 16.738281 12.804688 16.945312 12.730469 17.179688 C 12.621094 17.5 12.660156 17.578125 13.023438 17.730469 C 13.496094 17.910156 13.984375 18.03125 14.484375 18.085938 C 14.882812 18.140625 14.894531 18.152344 14.894531 18.503906 C 14.894531 18.660156 14.894531 18.820312 14.894531 18.980469 C 14.894531 19.136719 15.011719 19.296875 15.253906 19.300781 C 15.496094 19.304688 15.804688 19.300781 16.074219 19.300781 C 16.347656 19.300781 16.433594 19.191406 16.433594 19 C 16.433594 18.808594 16.433594 18.5625 16.433594 18.351562 C 16.433594 18.136719 16.53125 18.015625 16.789062 17.957031 C 17.332031 17.839844 17.828125 17.566406 18.21875 17.171875 C 19.261719 16.101562 18.863281 14.507812 17.386719 13.808594 Z M 17.375 13.804688 "/>
</g>
</svg>
