<?xml version="1.0" encoding="UTF-8"?>
<svg xmlns="http://www.w3.org/2000/svg" xmlns:xlink="http://www.w3.org/1999/xlink" width="20px" height="20px" viewBox="0 0 20 20" version="1.1">
<g id="surface1">
<path style=" stroke:none;fill-rule:nonzero;fill:rgb(80%,20%,80%);fill-opacity:1;" d="M 10.878906 6.925781 L 10.878906 12.15625 C 10.878906 12.707031 11.328125 13.15625 11.878906 13.15625 L 12.261719 13.15625 L 12.261719 17.871094 C 12.261719 18.421875 12.710938 18.871094 13.261719 18.871094 L 15.941406 18.871094 C 16.496094 18.871094 16.941406 18.421875 16.941406 17.871094 L 16.941406 13.144531 L 17.324219 13.144531 C 17.875 13.140625 18.324219 12.695312 18.324219 12.144531 L 18.324219 6.925781 C 18.324219 6.375 17.875 5.925781 17.324219 5.925781 L 11.878906 5.925781 C 11.613281 5.921875 11.355469 6.027344 11.167969 6.214844 C 10.980469 6.402344 10.875 6.660156 10.878906 6.925781 Z M 10.878906 6.925781 "/>
<path style=" stroke:none;fill-rule:nonzero;fill:rgb(80%,20%,80%);fill-opacity:1;" d="M 16.910156 2.777344 C 16.910156 4.058594 15.871094 5.097656 14.59375 5.097656 C 13.3125 5.097656 12.273438 4.058594 12.273438 2.777344 C 12.273438 1.5 13.3125 0.460938 14.59375 0.460938 C 15.871094 0.460938 16.910156 1.5 16.910156 2.777344 Z M 16.910156 2.777344 "/>
<path style=" stroke:none;fill-rule:nonzero;fill:rgb(80%,20%,80%);fill-opacity:1;" d="M 9.707031 1.707031 C 9.652344 1.535156 9.5 1.410156 9.316406 1.394531 L 2.148438 1.394531 C 1.972656 1.414062 1.824219 1.535156 1.769531 1.707031 C 1.691406 1.921875 1.691406 2.15625 1.769531 2.371094 L 4.757812 10.703125 L 4.757812 18.65625 C 4.738281 18.902344 4.847656 19.136719 5.046875 19.28125 C 5.097656 19.308594 5.152344 19.324219 5.207031 19.324219 C 5.351562 19.316406 5.480469 19.230469 5.542969 19.101562 L 6.667969 17.226562 C 6.742188 17.089844 6.777344 16.9375 6.769531 16.78125 L 6.769531 10.710938 L 9.734375 2.378906 C 9.808594 2.160156 9.796875 1.921875 9.707031 1.707031 Z M 9.707031 1.707031 "/>
</g>
</svg>
