<?xml version="1.0" encoding="UTF-8" standalone="no"?>
<!DOCTYPE svg PUBLIC "-//W3C//DTD SVG 1.1//EN" "http://www.w3.org/Graphics/SVG/1.1/DTD/svg11.dtd">
<svg width="20px" height="20px" viewBox="0 0 57 57" version="1.1" xmlns="http://www.w3.org/2000/svg" xmlns:xlink="http://www.w3.org/1999/xlink" xml:space="preserve" xmlns:serif="http://www.serif.com/" style="fill-rule:evenodd;clip-rule:evenodd;stroke-linejoin:round;stroke-miterlimit:2;">
    <g id="OtherGroup" transform="matrix(1.07852,0,0,1.06016,-1.91368,-1.89685)">
        <g id="Filters">
            <g id="OtherGroup1" serif:id="OtherGroup">
                <g transform="matrix(1,0,0,1,14.4605,40.6943)">
                    <path d="M0,6.354C-2.683,6.354 -4.858,4.179 -4.858,1.496C-4.858,-1.187 -2.683,-3.362 0,-3.362C2.683,-3.362 4.858,-1.187 4.858,1.496C4.858,4.179 2.683,6.354 0,6.354M-10.207,9.566C-10.797,10.156 -10.797,11.113 -10.207,11.703C-9.617,12.293 -8.66,12.293 -8.07,11.703L-4.141,7.774C-4.12,7.754 -4.105,7.729 -4.086,7.707C-2.913,8.48 -1.51,8.931 0,8.931C4.106,8.931 7.435,5.603 7.435,1.496C7.435,-2.61 4.106,-5.939 0,-5.939C-4.106,-5.939 -7.435,-2.61 -7.435,1.496C-7.435,3.006 -6.984,4.41 -6.211,5.582C-6.233,5.602 -6.257,5.616 -6.278,5.637L-10.207,9.566Z" style="fill:rgb(204,51,204);"/>
                </g>
                <g transform="matrix(0.93006,0,0,0.93006,48.7331,38.263)">
                    <path d="M0,-28.485C0.048,-29.629 -0.338,-30.811 -0.925,-31.414C-0.369,-32.171 -0.05,-33.297 -0.411,-34.168C-0.64,-34.721 -1.225,-35.381 -2.708,-35.381C-2.825,-35.381 -2.947,-35.377 -3.072,-35.37C-3.437,-36.287 -4.344,-36.942 -5.308,-36.942C-5.806,-36.942 -6.712,-36.763 -7.452,-35.619C-7.542,-35.635 -7.642,-35.643 -7.751,-35.643C-8.453,-35.643 -9.769,-35.251 -10.305,-34.204C-10.597,-33.636 -10.743,-32.689 -9.867,-31.349C-10.329,-30.641 -11.695,-28.344 -13.056,-24.044C-13.628,-22.241 -15.567,-18.044 -21.22,-18.044C-25.453,-18.044 -30.731,-20.419 -36.905,-25.102C-36.974,-25.155 -37.057,-25.183 -37.145,-25.183C-37.177,-25.183 -37.208,-25.179 -37.238,-25.171C-37.356,-25.144 -37.453,-25.064 -37.504,-24.957C-37.562,-24.839 -38.801,-22.092 -34.199,-17.402C-34.947,-17.245 -35.674,-16.857 -35.924,-16.125C-36.24,-15.204 -35.685,-14.117 -34.275,-12.893C-34.62,-12.738 -34.933,-12.509 -35.082,-12.115C-35.353,-11.39 -34.99,-10.334 -33.862,-8.586C-32.108,-5.864 -28.094,0.352 -18.592,0.863C-18.596,0.901 -18.604,0.938 -18.604,0.975L-18.604,5.664L-20.25,5.664C-21.02,5.664 -21.646,6.29 -21.646,7.061C-21.646,7.834 -21.02,8.457 -20.25,8.457L-11.769,8.457C-11,8.457 -10.373,7.834 -10.373,7.061C-10.373,6.29 -11,5.664 -11.769,5.664L-15.809,5.664L-15.809,0.975C-15.809,0.935 -15.818,0.895 -15.823,0.857C-11.932,0.623 -8.598,-0.516 -6.117,-2.48C-3.243,-4.753 -1.724,-7.969 -1.724,-11.783C-1.767,-13.946 -2.059,-15.341 -2.34,-16.693C-2.631,-18.093 -2.907,-19.415 -2.929,-21.562C-2.951,-22.503 -2.648,-23.781 -1.93,-24.515C-1.561,-24.893 -1.116,-25.083 -0.61,-25.083C-0.089,-25.083 0.504,-24.887 1.155,-24.502C1.217,-24.465 1.289,-24.446 1.36,-24.446C1.419,-24.446 1.478,-24.461 1.533,-24.486C1.654,-24.544 1.738,-24.659 1.755,-24.791C1.765,-24.875 1.998,-26.791 0,-28.485" style="fill:rgb(204,51,204);fill-rule:nonzero;"/>
                </g>
            </g>
        </g>
    </g>
</svg>
