<?xml version="1.0" encoding="UTF-8"?><svg xmlns="http://www.w3.org/2000/svg" width="20px" height="20px" viewBox="0 0 56.33 56.53"><defs><style>.cls-1{fill:#fff;}.cls-2{fill:#c3c;}</style></defs><g id="Backgrounds"><g><rect class="cls-2" x="1.17" y="1.19" width="54" height="54" rx="4" ry="4"/><path class="cls-2" d="M51.17,2.19c1.65,0,3,1.35,3,3V51.19c0,1.65-1.35,3-3,3H5.17c-1.65,0-3-1.35-3-3V5.19c0-1.65,1.35-3,3-3H51.17m0-2H5.17C2.42,.19,.17,2.44,.17,5.19V51.19c0,2.75,2.25,5,5,5H51.17c2.75,0,5-2.25,5-5V5.19c0-2.75-2.25-5-5-5h0Z"/></g></g><g id="Filters"><g id="Layer_167"><path class="cls-1" d="M49.9,15.87h-7.14c.48-.99,.88-2.09,1.18-3.3,.78-3.12,.67-5.86,.67-5.97l-.17-3.96-1.96,3.44c-1.01,1.78-2.26,3.29-3.71,4.5-1.16,.97-2.44,1.75-3.83,2.32-.88,.36-1.68,.59-2.35,.74h-9c-2.49-.55-6.86-2.26-9.89-7.56l-1.96-3.44-.17,3.96c0,.12-.11,2.86,.67,5.97,.3,1.21,.7,2.31,1.18,3.3H6.27l-.02,1.12c0,.14-.04,3.57,2.48,6.17,1.54,1.59,3.67,2.5,6.34,2.72,0,3.42,.5,5.94,1.53,7.68,1.87,3.16,2.33,12.53,2.35,15.88v.29l.14,.25c.16,.29,.63,.86,1.94,1.36,1.61,.6,3.98,.91,7.05,.91s5.45-.31,7.05-.91c1.32-.49,1.78-1.06,1.94-1.36l.14-.25v-.29c.02-3.34,.49-12.72,2.35-15.87,1.03-1.74,1.53-4.26,1.53-7.68,2.67-.22,4.79-1.13,6.34-2.72,2.52-2.59,2.48-6.02,2.48-6.17l-.02-1.12Zm-33.88,0c-1.03-1.63-1.58-3.58-1.87-5.25,.58,.64,1.19,1.23,1.84,1.77,.96,.8,2.01,1.49,3.11,2.05-.7,.37-1.5,.85-2.15,1.43h-.93Zm2.52,14.98c-.87-.46-1.11-1.71-.54-2.79,.57-1.08,1.73-1.59,2.6-1.13,.87,.46,1.11,1.7,.54,2.79-.57,1.08-1.73,1.59-2.6,1.13h0Zm16.4,18.06c-.28,.17-.88,.45-2.02,.67-.61-.9-1.95-2.11-4.79-2.12h0s-.02,0-.02,0c0,0-.02,0-.03,0h0c-2.84,.02-4.19,1.23-4.79,2.13-1.17-.23-1.78-.51-2.07-.68,0-.46-.03-1.22-.07-2.17,1.66-1.45,4.64-4.98,4.75-11.67,.15-9.29-6.01-10.68-3.73-14.21,2.29-3.53,4.8-2.77,5.94-2.77s3.65-.76,5.94,2.77c2.28,3.53-3.88,4.92-3.73,14.21,.11,6.63,3.03,10.16,4.7,11.63-.04,.97-.06,1.74-.07,2.21h0Zm2.73-18.06c-.87,.45-2.03-.05-2.6-1.13-.57-1.08-.33-2.33,.54-2.79,.87-.46,2.03,.05,2.6,1.13,.57,1.08,.33,2.33-.54,2.79h0Zm2.47-14.98h-.93c-.65-.58-1.46-1.07-2.16-1.43,1.1-.56,2.14-1.25,3.11-2.05,.65-.54,1.27-1.13,1.84-1.77-.29,1.67-.83,3.62-1.86,5.25h0Zm0,0"/></g></g></svg>