<?xml version="1.0" encoding="UTF-8"?><svg id="Filters" xmlns="http://www.w3.org/2000/svg" width="20px" height="20px" viewBox="0 0 56.41 56.53"><defs><style>.cls-1{fill:#c3c;stroke-width:0px;}</style></defs><g id="Layer_180"><circle class="cls-1" cx="48.47" cy="43.11" r="4.19"/><circle class="cls-1" cx="46.86" cy="46.14" r="4.61"/><circle class="cls-1" cx="14.22" cy="8.19" r="4.19"/><circle class="cls-1" cx="10.6" cy="11.47" r="4.61"/><rect class="cls-1" x="2.41" y="23.82" width="52.35" height="6.81" transform="translate(27.62 -12.24) rotate(45)"/><circle class="cls-1" cx="8.7" cy="41.95" r="4.19"/><circle class="cls-1" cx="9.61" cy="45.36" r="4.61"/><circle class="cls-1" cx="43.37" cy="7.28" r="4.19"/><circle class="cls-1" cx="45.71" cy="11.47" r="4.61"/><rect class="cls-1" x="2.41" y="22.98" width="52.35" height="6.81" transform="translate(67.45 24.83) rotate(135)"/><path class="cls-1" d="M19.22,44.2c-.2-.03-.34.01-.42.12s-.07.25.02.44l3.84,7.92c.09.18.23.35.43.49s.4.23.6.26c.2.03.34-.01.42-.12l1.29-1.79,5.17,3.74c.2.14.4.23.6.26.2.03.34-.01.42-.12l1.72-2.38c.08-.11.07-.25-.02-.44-.09-.18-.23-.35-.43-.49l-5.17-3.74,1.29-1.78c.08-.11.07-.25-.02-.44-.09-.18-.23-.35-.43-.49s-.4-.23-.6-.26l-8.72-1.18h0ZM19.22,44.2"/></g></svg>