<?xml version="1.0" encoding="UTF-8"?><svg xmlns="http://www.w3.org/2000/svg" width="20px" height="20px" viewBox="0 0 56.33 56.53"><defs><style>.d{fill:#fff;}.e{fill-rule:evenodd;}.e,.f{fill:#c3c;}</style></defs><g id="a"><g><rect class="d" x="1.17" y="1.19" width="54" height="54" rx="11" ry="11"/><path class="d" d="M44.17,2.19c5.51,0,10,4.49,10,10V44.19c0,5.51-4.49,10-10,10H12.17c-5.51,0-10-4.49-10-10V12.19C2.17,6.68,6.65,2.19,12.17,2.19H44.17m0-2H12.17C5.57,.19,.17,5.59,.17,12.19V44.19c0,6.6,5.4,12,12,12H44.17c6.6,0,12-5.4,12-12V12.19C56.17,5.59,50.77,.19,44.17,.19h0Z"/></g><g><rect class="d" x="1.2" y="1.29" width="53.88" height="53.88" rx="3.24" ry="3.24"/><path class="d" d="M51.84,2.29c1.24,0,2.24,1.01,2.24,2.24V51.93c0,1.24-1.01,2.24-2.24,2.24H4.44c-1.24,0-2.24-1.01-2.24-2.24V4.53c0-1.24,1.01-2.24,2.24-2.24H51.84m0-2H4.44C2.1,.29,.2,2.19,.2,4.53V51.93c0,2.34,1.9,4.24,4.24,4.24H51.84c2.34,0,4.24-1.9,4.24-4.24V4.53c0-2.34-1.9-4.24-4.24-4.24h0Z"/></g><g><rect class="d" x="1.17" y="1.19" width="54" height="54" rx="4" ry="4"/><path class="f" d="M51.17,2.19c1.65,0,3,1.35,3,3V51.19c0,1.65-1.35,3-3,3H5.17c-1.65,0-3-1.35-3-3V5.19c0-1.65,1.35-3,3-3H51.17m0-2H5.17C2.42,.19,.17,2.44,.17,5.19V51.19c0,2.75,2.25,5,5,5H51.17c2.75,0,5-2.25,5-5V5.19c0-2.75-2.25-5-5-5h0Z"/></g></g><g id="b"><g id="c"><path class="f" d="M51.79,16.15h-6.41c.43-.89,.79-1.88,1.06-2.96,.7-2.8,.6-5.26,.6-5.36l-.15-3.55-1.76,3.09c-.91,1.6-2.03,2.96-3.33,4.04-1.04,.87-2.19,1.57-3.44,2.08-.79,.32-1.51,.53-2.11,.66h-8.08c-2.23-.49-6.16-2.03-8.87-6.79l-1.76-3.09-.15,3.55c0,.1-.1,2.56,.6,5.36,.27,1.08,.62,2.07,1.06,2.96h-6.4l-.02,1.01c0,.13-.04,3.21,2.22,5.54,1.39,1.43,3.3,2.25,5.69,2.45,0,3.07,.45,5.33,1.37,6.89,1.68,2.83,2.09,11.25,2.11,14.25v.26l.12,.23c.14,.26,.56,.78,1.74,1.22,1.44,.54,3.57,.82,6.33,.82s4.89-.27,6.33-.82c1.18-.44,1.6-.96,1.74-1.22l.12-.23v-.26c.02-3,.44-11.42,2.11-14.25,.93-1.56,1.38-3.82,1.38-6.9,2.39-.2,4.3-1.02,5.69-2.45,2.26-2.33,2.22-5.41,2.22-5.54l-.02-1.01Zm-30.41,0c-.93-1.47-1.42-3.21-1.68-4.71,.52,.57,1.07,1.1,1.65,1.59,.86,.72,1.8,1.33,2.79,1.84-.63,.33-1.35,.77-1.93,1.29h-.83Zm2.27,13.44c-.78-.41-1-1.53-.49-2.5,.51-.97,1.56-1.43,2.33-1.02,.78,.41,1,1.53,.49,2.5-.51,.97-1.56,1.43-2.34,1.02h0Zm14.72,16.22c-.25,.15-.79,.4-1.82,.6-.55-.81-1.75-1.89-4.3-1.91h0s-.01,0-.02,0h-.02c-2.55,.01-3.76,1.11-4.3,1.91-1.05-.2-1.6-.46-1.86-.61,0-.42-.03-1.1-.06-1.95,1.49-1.3,4.16-4.47,4.26-10.48,.14-8.34-5.4-9.59-3.35-12.76,2.05-3.17,4.31-2.48,5.33-2.48s3.28-.69,5.33,2.48c2.05,3.17-3.49,4.42-3.35,12.76,.1,5.95,2.72,9.12,4.22,10.44-.04,.87-.06,1.56-.06,1.98h0Zm2.45-16.22c-.78,.41-1.83-.05-2.34-1.02-.51-.97-.29-2.09,.49-2.5,.78-.41,1.83,.05,2.34,1.02,.51,.97,.29,2.09-.49,2.5h0Zm2.22-13.44h-.83c-.58-.52-1.31-.96-1.94-1.29,.99-.51,1.92-1.12,2.79-1.84,.58-.48,1.14-1.01,1.65-1.59-.26,1.5-.75,3.25-1.67,4.71h0Zm0,0"/><path class="e" d="M5.07,49.74c-.56,.56-.56,1.47,0,2.03,.56,.56,1.47,.56,2.03,0l3.74-3.74s.03-.04,.05-.06c1.12,.74,2.45,1.16,3.89,1.16,3.9,0,7.07-3.17,7.07-7.07s-3.17-7.07-7.07-7.07c-3.9,0-7.07,3.17-7.07,7.07,0,1.44,.43,2.77,1.16,3.89-.02,.02-.04,.03-.06,.05l-3.74,3.74h0Zm9.71-3.05c-2.55,0-4.62-2.07-4.62-4.62,0-2.55,2.07-4.62,4.62-4.62,2.55,0,4.62,2.07,4.62,4.62s-2.07,4.62-4.62,4.62h0Zm0,0"/></g></g></svg>