<svg xmlns="http://www.w3.org/2000/svg" width="20" height="20" viewBox="0 0 56 56.05"><defs><style>.a{fill:none;}.b{fill:#fff;}.c{fill:#c3c;}</style></defs><rect class="a" x="0.04" y="0.1" width="55.88" height="55.95"/><rect class="b" x="1.04" y="1.1" width="53.88" height="53.88" rx="3.24"/><path class="b" d="M51.68,2.1a2.25,2.25,0,0,1,2.24,2.24v47.4A2.25,2.25,0,0,1,51.68,54H4.28A2.24,2.24,0,0,1,2,51.74V4.34A2.24,2.24,0,0,1,4.28,2.1h47.4m0-2H4.28A4.24,4.24,0,0,0,0,4.34v47.4A4.24,4.24,0,0,0,4.28,56h47.4a4.24,4.24,0,0,0,4.24-4.24V4.34A4.24,4.24,0,0,0,51.68.1Z"/><rect class="b" x="1" y="1" width="54" height="54" rx="4"/><path class="c" d="M51,2a3,3,0,0,1,3,3V51a3,3,0,0,1-3,3H5a3,3,0,0,1-3-3V5A3,3,0,0,1,5,2H51m0-2H5A5,5,0,0,0,0,5V51a5,5,0,0,0,5,5H51a5,5,0,0,0,5-5V5a5,5,0,0,0-5-5Z"/><path class="c" d="M49.43,16.43H42.29a16.22,16.22,0,0,0,1.18-3.3,23.44,23.44,0,0,0,.67-6L44,3.2,42,6.64a16.63,16.63,0,0,1-3.71,4.5,14.74,14.74,0,0,1-3.83,2.32,14.68,14.68,0,0,1-2.35.74h-9a15.08,15.08,0,0,1-9.88-7.56l-2-3.44-.17,4a22.67,22.67,0,0,0,.66,6,16.84,16.84,0,0,0,1.18,3.3H5.81l0,1.12a9.32,9.32,0,0,0,2.48,6.16,9.61,9.61,0,0,0,6.34,2.73c0,3.42.5,5.94,1.53,7.68C18,37.27,18.46,46.65,18.49,50v.29l.13.25a3.41,3.41,0,0,0,1.95,1.36,21.2,21.2,0,0,0,7.05.91,20.9,20.9,0,0,0,7.05-.91,3.41,3.41,0,0,0,1.95-1.36l.14-.25V50c0-3.34.48-12.72,2.35-15.87,1-1.74,1.53-4.26,1.53-7.68A9.61,9.61,0,0,0,47,23.71a9.32,9.32,0,0,0,2.48-6.16Zm-33.87,0a14.76,14.76,0,0,1-1.87-5.25,19.07,19.07,0,0,0,1.84,1.76A16.72,16.72,0,0,0,18.64,15a10.77,10.77,0,0,0-2.15,1.44Zm2.52,15a2,2,0,0,1-.54-2.78,2,2,0,0,1,2.6-1.14,2,2,0,0,1,.54,2.79,2,2,0,0,1-2.6,1.13Zm16.4,18.07a6.49,6.49,0,0,1-2,.67c-.6-.9-1.94-2.11-4.78-2.13h-.05c-2.84,0-4.19,1.24-4.79,2.14a6.69,6.69,0,0,1-2.07-.68c0-.47,0-1.22-.07-2.17,1.66-1.45,4.64-5,4.75-11.67.15-9.29-6-10.68-3.73-14.22s4.79-2.76,5.94-2.76,3.65-.76,5.93,2.76-3.88,4.93-3.73,14.22c.11,6.63,3,10.15,4.7,11.63,0,1-.06,1.73-.07,2.21ZM37.21,31.4a2,2,0,0,1-2.6-1.13,2,2,0,0,1,.54-2.79,2,2,0,0,1,2.6,1.14,2,2,0,0,1-.54,2.78Zm2.47-15h-.93A10.77,10.77,0,0,0,36.6,15a16.65,16.65,0,0,0,3.1-2.05,18,18,0,0,0,1.84-1.76,14.54,14.54,0,0,1-1.86,5.25Zm0,0"/></svg>