<?xml version="1.0" encoding="UTF-8"?><svg id="Filters" xmlns="http://www.w3.org/2000/svg" width="20px" height="20px" viewBox="0 0 56.41 56.53"><defs><style>.cls-1{fill:#c3c;stroke-width:0px;}</style></defs><g id="Layer_178"><circle class="cls-1" cx="48.31" cy="42.22" r="4.19"/><circle class="cls-1" cx="46.7" cy="45.25" r="4.61"/><circle class="cls-1" cx="14.06" cy="7.3" r="4.19"/><circle class="cls-1" cx="10.44" cy="10.57" r="4.61"/><rect class="cls-1" x="2.25" y="22.92" width="52.35" height="6.81" transform="translate(26.94 -12.39) rotate(45)"/><circle class="cls-1" cx="8.54" cy="41.06" r="4.19"/><circle class="cls-1" cx="9.45" cy="44.46" r="4.61"/><circle class="cls-1" cx="43.21" cy="6.38" r="4.19"/><circle class="cls-1" cx="45.55" cy="10.57" r="4.61"/><rect class="cls-1" x="2.25" y="22.08" width="52.35" height="6.81" transform="translate(66.54 23.41) rotate(135)"/><path class="cls-1" d="M34.57,51.37c-3.47-3.47-6.95-6.95-10.42-10.42-1.83-1.83-4.68,1.01-2.85,2.85,3.47,3.47,6.95,6.95,10.42,10.42,1.83,1.83,4.68-1.01,2.85-2.85h0Z"/><path class="cls-1" d="M24.15,54.22c3.47-3.47,6.95-6.95,10.42-10.42,1.83-1.83-1.01-4.68-2.85-2.85-3.47,3.47-6.95,6.95-10.42,10.42-1.83,1.83,1.01,4.68,2.85,2.85h0Z"/></g></svg>