<?xml version="1.0" encoding="UTF-8"?>
<svg xmlns="http://www.w3.org/2000/svg" xmlns:xlink="http://www.w3.org/1999/xlink" width="20px" height="20px" viewBox="0 0 20 20" version="1.1">
<g id="surface1">
<path style=" stroke:none;fill-rule:nonzero;fill:rgb(80%,20%,80%);fill-opacity:1;" d="M 19.5625 4.933594 L 17.023438 4.933594 C 17.203125 4.558594 17.34375 4.164062 17.441406 3.761719 C 17.613281 3.066406 17.695312 2.355469 17.683594 1.640625 L 17.621094 0.234375 L 16.90625 1.457031 C 16.566406 2.0625 16.121094 2.605469 15.59375 3.058594 C 15.1875 3.402344 14.734375 3.683594 14.246094 3.894531 C 13.976562 4.003906 13.695312 4.09375 13.410156 4.152344 L 10.195312 4.152344 C 8.695312 3.804688 7.414062 2.828125 6.6875 1.472656 L 6.007812 0.234375 L 5.945312 1.640625 C 5.933594 2.355469 6.015625 3.066406 6.1875 3.761719 C 6.285156 4.164062 6.421875 4.558594 6.605469 4.933594 L 4.070312 4.933594 L 4.070312 5.328125 C 4.085938 6.140625 4.398438 6.921875 4.949219 7.519531 C 5.554688 8.109375 6.359375 8.453125 7.203125 8.484375 C 7.203125 9.699219 7.382812 10.597656 7.746094 11.214844 C 8.398438 12.332031 8.558594 15.679688 8.558594 16.851562 L 8.558594 16.953125 L 8.605469 17.042969 C 8.773438 17.28125 9.015625 17.449219 9.296875 17.523438 C 10.105469 17.773438 10.949219 17.882812 11.796875 17.851562 C 12.640625 17.882812 13.488281 17.773438 14.296875 17.523438 C 14.574219 17.449219 14.820312 17.277344 14.984375 17.042969 L 15.03125 16.953125 L 15.03125 16.851562 C 15.03125 15.664062 15.203125 12.335938 15.867188 11.214844 C 16.226562 10.597656 16.410156 9.703125 16.410156 8.484375 C 17.253906 8.453125 18.054688 8.109375 18.660156 7.519531 C 19.226562 6.925781 19.550781 6.140625 19.566406 5.320312 Z M 7.53125 4.933594 C 7.195312 4.359375 6.96875 3.726562 6.867188 3.066406 C 7.074219 3.289062 7.289062 3.5 7.519531 3.695312 C 7.863281 3.972656 8.234375 4.210938 8.625 4.410156 C 8.351562 4.550781 8.09375 4.722656 7.859375 4.921875 Z M 8.429688 10.25 C 8.269531 10.144531 8.160156 9.976562 8.121094 9.789062 C 8.085938 9.601562 8.128906 9.40625 8.234375 9.25 C 8.378906 8.882812 8.792969 8.703125 9.160156 8.847656 C 9.488281 9.066406 9.574219 9.507812 9.355469 9.835938 C 9.210938 10.203125 8.796875 10.382812 8.429688 10.238281 Z M 14.25 16.679688 C 14.027344 16.796875 13.785156 16.875 13.535156 16.914062 C 13.316406 16.597656 12.84375 16.167969 11.835938 16.160156 L 11.816406 16.160156 C 10.808594 16.160156 10.332031 16.601562 10.117188 16.917969 C 9.859375 16.882812 9.613281 16.800781 9.382812 16.679688 C 9.382812 16.515625 9.382812 16.246094 9.355469 15.90625 C 9.945312 15.394531 11.003906 14.121094 11.042969 11.765625 C 11.097656 8.464844 8.898438 7.972656 9.71875 6.71875 C 10.535156 5.464844 11.421875 5.734375 11.828125 5.734375 C 12.234375 5.734375 13.125 5.464844 13.9375 6.71875 C 14.746094 7.972656 12.554688 8.449219 12.605469 11.75 C 12.644531 14.105469 13.679688 15.355469 14.273438 15.878906 C 14.273438 16.234375 14.253906 16.496094 14.25 16.664062 Z M 15.222656 10.25 C 14.855469 10.394531 14.441406 10.214844 14.296875 9.847656 C 14.078125 9.519531 14.164062 9.078125 14.488281 8.855469 C 14.851562 8.710938 15.265625 8.886719 15.414062 9.25 C 15.632812 9.578125 15.546875 10.019531 15.222656 10.238281 Z M 16.097656 4.933594 L 15.769531 4.933594 C 15.535156 4.734375 15.277344 4.5625 15.003906 4.421875 C 15.394531 4.222656 15.765625 3.984375 16.105469 3.707031 C 16.34375 3.507812 16.566406 3.296875 16.769531 3.066406 C 16.675781 3.726562 16.449219 4.359375 16.109375 4.933594 Z M 16.097656 4.933594 "/>
<path style=" stroke:none;fill-rule:nonzero;fill:rgb(80%,20%,80%);fill-opacity:1;" d="M 3.84375 17.820312 C 3.84375 18.746094 3.09375 19.496094 2.167969 19.496094 C 1.242188 19.496094 0.492188 18.746094 0.492188 17.820312 C 0.492188 16.894531 1.242188 16.144531 2.167969 16.144531 C 3.09375 16.144531 3.84375 16.894531 3.84375 17.820312 Z M 3.84375 17.820312 "/>
<path style=" stroke:none;fill-rule:nonzero;fill:rgb(80%,20%,80%);fill-opacity:1;" d="M 8.144531 17.820312 C 8.144531 18.746094 7.398438 19.496094 6.472656 19.496094 C 5.546875 19.496094 4.796875 18.746094 4.796875 17.820312 C 4.796875 16.894531 5.546875 16.144531 6.472656 16.144531 C 7.398438 16.144531 8.144531 16.894531 8.144531 17.820312 Z M 8.144531 17.820312 "/>
<path style=" stroke:none;fill-rule:nonzero;fill:rgb(80%,20%,80%);fill-opacity:1;" d="M 6.472656 13.71875 C 6.472656 14.644531 5.722656 15.394531 4.796875 15.394531 C 3.871094 15.394531 3.121094 14.644531 3.121094 13.71875 C 3.121094 12.792969 3.871094 12.042969 4.796875 12.042969 C 5.722656 12.042969 6.472656 12.792969 6.472656 13.71875 Z M 6.472656 13.71875 "/>
</g>
</svg>
