<?xml version="1.0" encoding="UTF-8"?>
<svg xmlns="http://www.w3.org/2000/svg" xmlns:xlink="http://www.w3.org/1999/xlink" width="20px" height="20px" viewBox="0 0 20 20" version="1.1">
<g id="surface1">
<path style=" stroke:none;fill-rule:nonzero;fill:rgb(80%,20%,80%);fill-opacity:1;" d="M 19.683594 5.027344 L 17.074219 5.027344 C 17.261719 4.644531 17.40625 4.242188 17.507812 3.824219 C 17.679688 3.113281 17.761719 2.378906 17.75 1.644531 L 17.6875 0.21875 L 16.976562 1.472656 C 16.625 2.09375 16.167969 2.652344 15.621094 3.113281 C 15.203125 3.464844 14.734375 3.753906 14.230469 3.960938 C 13.949219 4.074219 13.660156 4.164062 13.367188 4.230469 L 10.082031 4.230469 C 8.535156 3.867188 7.222656 2.859375 6.480469 1.457031 L 5.765625 0.203125 L 5.703125 1.632812 C 5.6875 2.367188 5.769531 3.097656 5.945312 3.8125 C 6.046875 4.226562 6.191406 4.628906 6.375 5.015625 L 3.769531 5.015625 L 3.769531 5.421875 C 3.785156 6.257812 4.109375 7.058594 4.675781 7.671875 C 5.296875 8.277344 6.121094 8.628906 6.988281 8.664062 C 6.988281 9.910156 7.171875 10.832031 7.546875 11.464844 C 8.230469 12.613281 8.394531 16.03125 8.402344 17.253906 L 8.402344 17.359375 L 8.453125 17.449219 C 8.625 17.695312 8.878906 17.871094 9.167969 17.945312 C 10 18.203125 10.871094 18.316406 11.738281 18.277344 C 12.609375 18.316406 13.480469 18.203125 14.3125 17.945312 C 14.605469 17.871094 14.859375 17.695312 15.027344 17.449219 L 15.078125 17.359375 L 15.078125 17.253906 C 15.078125 16.035156 15.257812 12.609375 15.9375 11.464844 C 16.3125 10.832031 16.496094 9.910156 16.496094 8.664062 C 17.363281 8.628906 18.1875 8.277344 18.808594 7.671875 C 19.375 7.058594 19.695312 6.257812 19.710938 5.421875 Z M 7.324219 5.027344 C 6.976562 4.4375 6.746094 3.789062 6.644531 3.109375 C 6.851562 3.34375 7.078125 3.558594 7.316406 3.757812 C 7.664062 4.046875 8.046875 4.300781 8.449219 4.503906 C 8.167969 4.648438 7.90625 4.824219 7.664062 5.027344 Z M 8.246094 10.488281 C 7.914062 10.257812 7.828125 9.808594 8.050781 9.472656 C 8.203125 9.101562 8.621094 8.917969 8.996094 9.0625 C 9.328125 9.285156 9.417969 9.738281 9.195312 10.074219 C 9.042969 10.449219 8.621094 10.632812 8.246094 10.488281 Z M 14.230469 17.074219 C 14 17.199219 13.75 17.28125 13.488281 17.320312 C 13.269531 16.992188 12.773438 16.554688 11.742188 16.546875 L 11.726562 16.546875 C 10.6875 16.546875 10.199219 16.996094 9.980469 17.324219 C 9.714844 17.285156 9.460938 17.203125 9.226562 17.078125 C 9.226562 16.90625 9.226562 16.632812 9.199219 16.285156 C 9.804688 15.757812 10.890625 14.472656 10.929688 12.027344 C 10.984375 8.644531 8.734375 8.136719 9.566406 6.847656 C 10.398438 5.558594 11.316406 5.839844 11.734375 5.839844 C 12.152344 5.839844 13.066406 5.5625 13.898438 6.847656 C 14.730469 8.132812 12.472656 8.632812 12.539062 12.027344 C 12.578125 14.445312 13.644531 15.730469 14.253906 16.269531 C 14.234375 16.628906 14.230469 16.902344 14.230469 17.074219 Z M 15.222656 10.488281 C 14.84375 10.632812 14.421875 10.449219 14.269531 10.074219 C 14.046875 9.738281 14.136719 9.289062 14.46875 9.0625 C 14.84375 8.917969 15.265625 9.097656 15.417969 9.472656 C 15.636719 9.808594 15.550781 10.261719 15.21875 10.488281 Z M 16.125 5.027344 L 15.785156 5.027344 C 15.539062 4.824219 15.273438 4.648438 14.984375 4.503906 C 15.390625 4.300781 15.769531 4.046875 16.117188 3.757812 C 16.355469 3.558594 16.582031 3.34375 16.789062 3.109375 C 16.6875 3.789062 16.457031 4.4375 16.109375 5.027344 Z M 16.125 5.027344 "/>
<path style=" stroke:none;fill-rule:evenodd;fill:rgb(80%,20%,80%);fill-opacity:1;" d="M 0.699219 18.671875 C 0.472656 18.898438 0.472656 19.269531 0.699219 19.496094 C 0.929688 19.722656 1.296875 19.722656 1.523438 19.496094 L 3.042969 17.980469 L 3.0625 17.953125 C 4.289062 18.757812 5.921875 18.503906 6.847656 17.367188 C 7.773438 16.230469 7.6875 14.582031 6.652344 13.542969 C 5.617188 12.507812 3.964844 12.425781 2.828125 13.347656 C 1.691406 14.273438 1.4375 15.90625 2.242188 17.132812 C 2.242188 17.132812 2.226562 17.132812 2.21875 17.152344 Z M 4.628906 17.429688 C 3.867188 17.429688 3.183594 16.972656 2.890625 16.269531 C 2.597656 15.566406 2.757812 14.757812 3.296875 14.222656 C 3.835938 13.683594 4.644531 13.523438 5.34375 13.816406 C 6.046875 14.105469 6.503906 14.792969 6.503906 15.554688 C 6.5 16.589844 5.664062 17.425781 4.628906 17.429688 Z M 4.628906 17.429688 "/>
</g>
</svg>
