<?xml version="1.0" encoding="UTF-8"?>
<svg xmlns="http://www.w3.org/2000/svg" xmlns:xlink="http://www.w3.org/1999/xlink" width="20px" height="20px" viewBox="0 0 20 20" version="1.1">
<g id="surface1">
<path style=" stroke:none;fill-rule:nonzero;fill:rgb(80%,20%,80%);fill-opacity:1;" d="M 15.304688 18.816406 L 18.957031 13.238281 C 19.082031 13.121094 19.15625 12.953125 19.152344 12.777344 C 19.152344 12.605469 19.082031 12.4375 18.957031 12.3125 C 18.839844 12.183594 18.671875 12.109375 18.496094 12.105469 L 16.3125 12.105469 L 16.3125 1.59375 C 16.316406 1.417969 16.242188 1.253906 16.117188 1.132812 C 16 1.003906 15.832031 0.933594 15.65625 0.9375 L 13.644531 0.9375 C 13.476562 0.9375 13.316406 1.007812 13.199219 1.132812 C 13.074219 1.25 13 1.417969 13.003906 1.59375 L 13.003906 12.105469 L 10.804688 12.105469 C 10.441406 12.109375 10.148438 12.402344 10.144531 12.765625 C 10.140625 12.945312 10.210938 13.117188 10.34375 13.238281 L 14.382812 18.816406 C 14.503906 18.941406 14.667969 19.011719 14.84375 19.011719 C 15.015625 19.011719 15.183594 18.941406 15.304688 18.816406 Z M 15.304688 18.816406 "/>
<path style=" stroke:none;fill-rule:nonzero;fill:rgb(80%,20%,80%);fill-opacity:1;" d="M 9.316406 9.285156 C 9.316406 9.355469 9.269531 9.40625 9.171875 9.4375 C 8.804688 9.480469 8.429688 9.496094 8.0625 9.480469 C 7.695312 9.492188 7.324219 9.476562 6.960938 9.4375 C 6.824219 9.410156 6.722656 9.300781 6.703125 9.164062 C 6.566406 8.59375 6.464844 8.285156 6.390625 8.246094 C 5.855469 8.199219 5.324219 8.183594 4.789062 8.203125 C 4.429688 8.179688 4.070312 8.199219 3.71875 8.257812 C 3.597656 8.449219 3.515625 8.667969 3.480469 8.894531 C 3.402344 9.226562 3.3125 9.402344 3.207031 9.433594 C 2.753906 9.476562 2.300781 9.492188 1.847656 9.480469 C 1.234375 9.480469 0.933594 9.421875 0.933594 9.308594 C 0.933594 9.191406 1.382812 7.933594 2.277344 5.488281 C 3.257812 2.851562 3.785156 1.402344 3.867188 1.144531 C 3.917969 0.988281 3.972656 0.914062 4.035156 0.914062 C 4.101562 0.914062 4.3125 0.914062 4.53125 0.945312 C 4.753906 0.980469 4.929688 0.976562 5.039062 0.976562 C 5.148438 0.976562 5.304688 0.976562 5.515625 0.953125 C 5.726562 0.933594 5.871094 0.933594 5.980469 0.933594 C 6.09375 0.933594 6.128906 1 6.1875 1.128906 C 6.382812 1.546875 6.953125 2.976562 7.898438 5.414062 C 8.84375 7.851562 9.316406 9.144531 9.316406 9.285156 Z M 5.085938 3.847656 C 5.003906 4.019531 4.859375 4.398438 4.660156 4.984375 C 4.519531 5.339844 4.414062 5.707031 4.339844 6.078125 C 4.339844 6.148438 4.460938 6.1875 4.695312 6.199219 C 4.816406 6.199219 5.019531 6.199219 5.304688 6.199219 C 5.585938 6.199219 5.710938 6.167969 5.738281 6.105469 C 5.742188 6.078125 5.742188 6.046875 5.738281 6.019531 C 5.683594 5.65625 5.59375 5.296875 5.46875 4.949219 C 5.367188 4.574219 5.238281 4.207031 5.085938 3.847656 Z M 5.085938 3.847656 "/>
<path style=" stroke:none;fill-rule:nonzero;fill:rgb(80%,20%,80%);fill-opacity:1;" d="M 7.734375 18.921875 C 7.5 18.921875 7.144531 18.921875 6.664062 18.886719 C 6.183594 18.851562 5.839844 18.851562 5.59375 18.851562 C 5.257812 18.851562 4.757812 18.851562 4.09375 18.851562 L 2.59375 18.851562 C 2.449219 18.851562 2.371094 18.804688 2.351562 18.710938 C 2.332031 18.332031 2.292969 17.953125 2.230469 17.578125 C 2.199219 17.472656 2.175781 17.359375 2.160156 17.25 C 2.160156 17.230469 2.648438 16.457031 3.621094 14.9375 C 4.59375 13.414062 5.09375 12.589844 5.113281 12.464844 C 5.113281 12.398438 5.0625 12.367188 4.957031 12.367188 C 4.679688 12.367188 4.242188 12.367188 3.695312 12.394531 C 3.148438 12.417969 2.710938 12.417969 2.425781 12.417969 C 2.339844 12.417969 2.296875 12.371094 2.296875 12.277344 C 2.316406 11.988281 2.359375 11.703125 2.429688 11.421875 C 2.5 11.117188 2.546875 10.808594 2.5625 10.496094 C 2.5625 10.433594 2.617188 10.398438 2.726562 10.398438 C 3.273438 10.398438 4.101562 10.410156 5.199219 10.4375 C 6.300781 10.460938 7.125 10.472656 7.675781 10.472656 C 7.753906 10.46875 7.824219 10.527344 7.835938 10.605469 C 7.917969 11.058594 7.953125 11.515625 7.941406 11.976562 C 7.933594 12.074219 7.894531 12.164062 7.835938 12.242188 C 7.585938 12.605469 7.058594 13.40625 6.253906 14.644531 C 5.757812 15.359375 5.300781 16.101562 4.878906 16.863281 C 4.878906 16.894531 4.914062 16.914062 4.980469 16.914062 C 5.789062 16.914062 6.410156 16.914062 6.84375 16.863281 C 6.933594 16.863281 7.121094 16.839844 7.417969 16.792969 C 7.601562 16.761719 7.785156 16.738281 7.972656 16.730469 C 8.027344 16.730469 8.058594 16.773438 8.058594 16.859375 C 8.058594 17.511719 8 18.160156 7.882812 18.800781 C 7.871094 18.871094 7.808594 18.925781 7.734375 18.921875 Z M 7.734375 18.921875 "/>
</g>
</svg>
