<?xml version="1.0" encoding="UTF-8"?>
<svg xmlns="http://www.w3.org/2000/svg" xmlns:xlink="http://www.w3.org/1999/xlink" width="20px" height="20px" viewBox="0 0 20 20" version="1.1">
<g id="surface1">
<path style=" stroke:none;fill-rule:nonzero;fill:rgb(80%,20%,80%);fill-opacity:1;" d="M 16.375 17.601562 L 19.351562 13.0625 C 19.5 12.910156 19.542969 12.6875 19.464844 12.488281 C 19.390625 12.292969 19.203125 12.160156 18.992188 12.148438 L 17.207031 12.148438 L 17.207031 3.578125 C 17.203125 3.285156 16.96875 3.046875 16.675781 3.042969 L 15.019531 3.042969 C 14.878906 3.042969 14.742188 3.101562 14.644531 3.203125 C 14.546875 3.296875 14.492188 3.425781 14.488281 3.5625 L 14.488281 12.132812 L 12.703125 12.132812 C 12.488281 12.132812 12.292969 12.261719 12.210938 12.460938 C 12.128906 12.660156 12.175781 12.890625 12.328125 13.042969 L 15.617188 17.582031 C 15.714844 17.6875 15.851562 17.746094 15.992188 17.742188 C 16.128906 17.738281 16.257812 17.679688 16.351562 17.582031 Z M 16.375 17.601562 "/>
<path style=" stroke:none;fill-rule:nonzero;fill:rgb(80%,20%,80%);fill-opacity:1;" d="M 7.160156 3.1875 L 0.632812 3.1875 L 0.621094 9.730469 L 7.160156 16.269531 L 13.699219 9.730469 Z M 7.160156 3.1875 "/>
<path style=" stroke:none;fill-rule:nonzero;fill:rgb(100%,100%,100%);fill-opacity:1;" d="M 7.128906 14.480469 C 7.089844 14.519531 7.035156 14.519531 6.957031 14.480469 C 6.71875 14.292969 6.496094 14.089844 6.292969 13.867188 C 6.078125 13.664062 5.882812 13.445312 5.699219 13.210938 C 5.636719 13.121094 5.636719 13 5.699219 12.910156 C 5.949219 12.503906 6.058594 12.269531 6.058594 12.195312 C 5.78125 11.863281 5.480469 11.550781 5.164062 11.253906 C 4.96875 11.035156 4.746094 10.84375 4.503906 10.679688 C 4.324219 10.722656 4.152344 10.800781 4.007812 10.914062 C 3.773438 11.0625 3.617188 11.109375 3.542969 11.0625 C 3.253906 10.832031 2.984375 10.582031 2.730469 10.3125 C 2.375 9.953125 2.242188 9.753906 2.308594 9.6875 C 2.371094 9.625 3.355469 9.15625 5.269531 8.261719 C 7.347656 7.308594 8.484375 6.78125 8.683594 6.675781 C 8.796875 6.617188 8.871094 6.605469 8.90625 6.644531 C 9.003906 6.738281 9.09375 6.839844 9.179688 6.945312 C 9.292969 7.085938 9.386719 7.1875 9.449219 7.25 C 9.515625 7.3125 9.605469 7.398438 9.730469 7.511719 C 9.855469 7.621094 9.957031 7.710938 10.015625 7.769531 C 10.070312 7.824219 10.0625 7.890625 10.015625 8.003906 C 9.886719 8.355469 9.390625 9.503906 8.527344 11.449219 C 7.667969 13.398438 7.199219 14.40625 7.128906 14.480469 Z M 7.84375 8.929688 C 7.539062 9.050781 7.238281 9.1875 6.945312 9.339844 C 6.660156 9.460938 6.386719 9.609375 6.132812 9.78125 C 6.09375 9.820312 6.132812 9.914062 6.269531 10.054688 C 6.335938 10.128906 6.449219 10.25 6.628906 10.410156 C 6.808594 10.570312 6.878906 10.628906 6.933594 10.605469 C 6.953125 10.59375 6.96875 10.582031 6.984375 10.5625 C 7.167969 10.320312 7.324219 10.058594 7.453125 9.78125 C 7.601562 9.507812 7.734375 9.222656 7.84375 8.929688 Z M 7.84375 8.929688 "/>
</g>
</svg>
