<?xml version="1.0" encoding="UTF-8"?>
<svg xmlns="http://www.w3.org/2000/svg" xmlns:xlink="http://www.w3.org/1999/xlink" width="20px" height="20px" viewBox="0 0 20 20" version="1.1">
<g id="surface1">
<path style=" stroke:none;fill-rule:nonzero;fill:rgb(80%,20%,80%);fill-opacity:1;" d="M 18.441406 4.09375 L 15.429688 1.078125 C 15.007812 0.640625 14.335938 0.570312 13.832031 0.902344 C 13.292969 1.292969 13.167969 2.046875 13.558594 2.589844 C 13.589844 2.632812 13.625 2.675781 13.660156 2.714844 L 14.046875 3.097656 C 14.257812 3.300781 14.515625 3.453125 14.796875 3.535156 L 15.1875 3.65625 L 14.269531 3.65625 C 12.988281 3.660156 11.761719 4.175781 10.859375 5.085938 L 9.574219 6.394531 C 9.105469 6.839844 9.054688 7.574219 9.460938 8.078125 C 9.679688 8.332031 9.992188 8.488281 10.328125 8.5 C 10.664062 8.511719 10.988281 8.382812 11.226562 8.144531 L 12.574219 6.796875 C 13.027344 6.339844 13.644531 6.082031 14.285156 6.082031 L 15.269531 6.082031 L 14.914062 6.195312 C 14.632812 6.285156 14.375 6.441406 14.164062 6.648438 L 13.769531 7.050781 C 13.304688 7.496094 13.253906 8.230469 13.65625 8.734375 C 14.082031 9.238281 14.832031 9.308594 15.34375 8.894531 L 15.414062 8.824219 L 18.429688 5.8125 C 18.660156 5.585938 18.792969 5.277344 18.796875 4.953125 C 18.800781 4.632812 18.671875 4.320312 18.441406 4.09375 Z M 18.441406 4.09375 "/>
<path style=" stroke:none;fill-rule:nonzero;fill:rgb(80%,20%,80%);fill-opacity:1;" d="M 18.433594 13.6875 L 15.429688 10.636719 C 14.949219 10.175781 14.1875 10.191406 13.726562 10.667969 C 13.6875 10.707031 13.652344 10.75 13.617188 10.792969 C 13.28125 11.296875 13.355469 11.96875 13.792969 12.390625 L 14.175781 12.769531 C 14.371094 12.964844 14.605469 13.113281 14.867188 13.199219 L 15.269531 13.339844 L 14.308594 13.339844 C 13.667969 13.335938 13.050781 13.078125 12.601562 12.625 L 6.886719 6.910156 C 5.980469 5.992188 4.742188 5.476562 3.453125 5.480469 L 2.007812 5.480469 C 1.394531 5.457031 0.855469 5.882812 0.734375 6.480469 C 0.675781 6.800781 0.746094 7.128906 0.929688 7.394531 C 1.113281 7.660156 1.398438 7.839844 1.71875 7.894531 C 1.789062 7.90625 1.863281 7.914062 1.9375 7.910156 L 3.453125 7.910156 C 4.09375 7.914062 4.707031 8.167969 5.15625 8.625 L 6.261719 9.726562 L 5.15625 10.820312 C 4.707031 11.277344 4.09375 11.535156 3.453125 11.535156 L 2.007812 11.535156 C 1.398438 11.511719 0.859375 11.929688 0.734375 12.527344 C 0.679688 12.84375 0.753906 13.167969 0.9375 13.425781 C 1.121094 13.6875 1.402344 13.863281 1.71875 13.917969 C 1.792969 13.925781 1.867188 13.925781 1.9375 13.917969 L 3.453125 13.917969 C 4.730469 13.921875 5.957031 13.414062 6.859375 12.511719 L 7.964844 11.40625 L 10.875 14.316406 C 11.773438 15.226562 12.996094 15.738281 14.269531 15.742188 L 15.179688 15.742188 L 14.820312 15.863281 C 14.550781 15.953125 14.308594 16.101562 14.105469 16.304688 L 13.75 16.660156 C 13.28125 17.109375 13.230469 17.84375 13.636719 18.351562 C 14.066406 18.855469 14.824219 18.917969 15.332031 18.488281 C 15.359375 18.46875 15.382812 18.445312 15.40625 18.421875 L 18.417969 15.410156 C 18.648438 15.183594 18.78125 14.875 18.785156 14.554688 C 18.785156 14.230469 18.660156 13.917969 18.433594 13.6875 Z M 18.433594 13.6875 "/>
</g>
</svg>
