<?xml version="1.0" encoding="UTF-8"?>
<svg xmlns="http://www.w3.org/2000/svg" xmlns:xlink="http://www.w3.org/1999/xlink" width="20px" height="20px" viewBox="0 0 20 20" version="1.1">
<g id="surface1">
<path style=" stroke:none;fill-rule:nonzero;fill:rgb(80%,20%,80%);fill-opacity:1;" d="M 19.09375 9.746094 L 14.5 5.585938 C 14.285156 5.390625 13.957031 5.390625 13.738281 5.585938 C 13.632812 5.671875 13.574219 5.804688 13.578125 5.941406 L 13.578125 8.144531 L 6.5 8.144531 C 6.359375 8.144531 6.222656 8.199219 6.121094 8.292969 C 6.015625 8.378906 5.957031 8.511719 5.960938 8.648438 L 5.960938 11.585938 C 5.957031 11.722656 6.015625 11.855469 6.121094 11.941406 C 6.222656 12.039062 6.359375 12.09375 6.5 12.089844 L 13.578125 12.089844 L 13.578125 14.25 C 13.574219 14.386719 13.632812 14.519531 13.738281 14.605469 C 13.957031 14.800781 14.285156 14.800781 14.5 14.605469 L 19.09375 10.433594 C 19.195312 10.347656 19.253906 10.222656 19.253906 10.089844 C 19.253906 9.957031 19.195312 9.832031 19.09375 9.746094 Z M 19.09375 9.746094 "/>
<path style=" stroke:none;fill-rule:nonzero;fill:rgb(80%,20%,80%);fill-opacity:1;" d="M 10.136719 19.121094 L 9.859375 19.121094 C 5.46875 18.964844 0.765625 15.257812 0.765625 9.984375 C 0.769531 4.945312 4.855469 0.859375 9.894531 0.851562 C 11.804688 0.871094 13.660156 1.46875 15.226562 2.5625 C 15.71875 2.917969 15.832031 3.605469 15.476562 4.097656 C 15.121094 4.589844 14.4375 4.703125 13.941406 4.351562 C 12.757812 3.515625 11.347656 3.0625 9.894531 3.042969 C 6.066406 3.046875 2.960938 6.15625 2.957031 9.984375 C 2.957031 14.355469 7.011719 16.824219 9.9375 16.925781 C 11.296875 16.949219 12.632812 16.542969 13.75 15.757812 C 14.253906 15.414062 14.9375 15.546875 15.277344 16.046875 C 15.617188 16.550781 15.488281 17.234375 14.984375 17.574219 C 13.5625 18.566406 11.871094 19.105469 10.136719 19.121094 Z M 10.136719 19.121094 "/>
</g>
</svg>
