<svg xmlns="http://www.w3.org/2000/svg" viewBox="0 0 33.96 33.96"><defs><style>.cls-1{fill:#009e73;}.cls-2{fill:#ccc;}</style></defs><title>ImportAsset 209</title><g id="Layer_2" data-name="Layer 2"><g id="Layer_1-2" data-name="Layer 1"><path class="cls-1" d="M32.54,25.82h-7a1.28,1.28,0,0,1-1.41-1.1v-3.1a1.28,1.28,0,0,1,1.41-1.09h7A1.29,1.29,0,0,1,34,21.62v3.1A1.29,1.29,0,0,1,32.54,25.82Z"/><path class="cls-1" d="M25.92,27.42v-8.5a.2.2,0,0,0-.35-.14L21.33,23a.21.21,0,0,0,0,.29l4.24,4.25A.21.21,0,0,0,25.92,27.42Z"/><path class="cls-2" d="M9.43,27.73,4,27.55A2,2,0,0,1,2.1,25.38V4.08A2,2,0,0,1,4,1.92L16,2.1a2,2,0,0,1,1.85,2.16V6.91h1.89V2.17A2,2,0,0,0,17.92,0H1.85A2,2,0,0,0,0,2.17V27.3a2,2,0,0,0,1.85,2.16H9.43Z"/><path class="cls-2" d="M28.44,26.86V29.7A2.26,2.26,0,0,1,26.19,32H12.48a2.27,2.27,0,0,1-2.26-2.26V9.17a2.27,2.27,0,0,1,2.26-2.26H23.55v3a2.26,2.26,0,0,0,2.25,2.26h2.64v7.26h2.12v-7a4.06,4.06,0,0,0-1.19-2.88L26,6.11a4,4,0,0,0-2.87-1.2H10.35A2.26,2.26,0,0,0,8.1,7.17V31.7A2.26,2.26,0,0,0,10.35,34h18a2.26,2.26,0,0,0,2.25-2.26V26.86Z"/></g></g></svg>