<svg xmlns="http://www.w3.org/2000/svg" viewBox="0 0 33.96 33.52"><defs><style>.cls-1{fill:#d55e00;}.cls-2{fill:#ccc;}.cls-3{fill:#e6e6e6;}.cls-4{fill:#e69f00;}.cls-5{fill:#009e73;}.cls-6{font-size:16px;fill:#333;font-family:Segoe UI, Arial, sans-serif;}.cls-7{letter-spacing:-0.01em;}.cls-8{letter-spacing:0em;}.cls-9{letter-spacing:-0.01em;}</style></defs><title>OpenExampleAsset 207</title><g id="Layer_2" data-name="Layer 2"><g id="Layer_1-2" data-name="Layer 1"><path class="cls-1" d="M27,33.52H2.31A2.19,2.19,0,0,1,0,31.91V6.14A2.32,2.32,0,0,1,2.31,3.83H11.9a2,2,0,0,1,2,2.05V7.49A1.06,1.06,0,0,0,15,8.55H27a2.32,2.32,0,0,1,2.31,2.3V31.21A2.32,2.32,0,0,1,27,33.52Z"/><rect class="cls-2" x="1.64" y="11.87" width="24.77" height="18.73" rx="1.47"/><path class="cls-3" d="M26.44,30.6H5.08A1.65,1.65,0,0,1,3.3,29.13V11.56a1.65,1.65,0,0,1,1.78-1.47H26.44a1.66,1.66,0,0,1,1.79,1.47V29.13C28.23,29.94,27.37,30.39,26.44,30.6Z"/><path class="cls-4" d="M31.64,11.87c1.28,0,2.32.76,2.32,1.68L29.38,31.84c0,.92-1,1.68-2.32,1.68H2.31C1,33.52,0,32.76,0,31.84L4.58,13.55c0-.92,1-1.68,2.31-1.68Z"/><path class="cls-5" d="M18,4.67A10.22,10.22,0,0,1,19.71,2a5.93,5.93,0,0,1,3-1.75,7.88,7.88,0,0,1,3.68.11,13.8,13.8,0,0,1,3.32,1.33L27,5.21a7.21,7.21,0,0,0-4.06-2.74,4.19,4.19,0,0,0-2.53.42A9.21,9.21,0,0,0,18,4.67Z"/><path class="cls-5" d="M30.72.08,25,6a.26.26,0,0,0,.19.44L31,6.34a.26.26,0,0,0,.25-.26L31.16.25A.25.25,0,0,0,30.72.08Z"/><text class="cls-6" transform="translate(6.44 27.03)"><tspan class="cls-7">e</tspan><tspan class="cls-8" x="7.82" y="0">.</tspan><tspan class="cls-9" x="11.13" y="0">g</tspan><tspan x="19.84" y="0">.</tspan></text></g></g></svg>