<?xml version="1.0" encoding="UTF-8"?>
<svg xmlns="http://www.w3.org/2000/svg" xmlns:xlink="http://www.w3.org/1999/xlink" width="20px" height="20px" viewBox="0 0 20 20" version="1.1">
<g id="surface1">
<path style=" stroke:none;fill-rule:nonzero;fill:rgb(100%,100%,100%);fill-opacity:1;" d="M 0.773438 3.203125 L 19.109375 3.203125 L 19.109375 19.199219 L 0.773438 19.199219 Z M 0.773438 3.203125 "/>
<path style=" stroke:none;fill-rule:nonzero;fill:rgb(60%,40%,20%);fill-opacity:1;" d="M 0.0078125 0 L 0.0078125 19.945312 L 20.046875 19.945312 L 20.046875 0 Z M 1.4375 18.519531 L 1.4375 4.109375 L 18.613281 4.109375 L 18.613281 18.519531 Z M 1.4375 18.519531 "/>
<path style=" stroke:none;fill-rule:nonzero;fill:rgb(60%,40%,20%);fill-opacity:1;" d="M 4.09375 9.265625 L 5.792969 9.265625 C 6.507812 9.265625 6.507812 7.625 5.792969 7.625 L 4.09375 7.625 C 3.378906 7.625 3.378906 9.265625 4.09375 9.265625 Z M 4.09375 9.265625 "/>
<path style=" stroke:none;fill-rule:nonzero;fill:rgb(60%,40%,20%);fill-opacity:1;" d="M 4.09375 11.765625 L 5.792969 11.765625 C 6.507812 11.765625 6.507812 10.125 5.792969 10.125 L 4.09375 10.125 C 3.378906 10.125 3.378906 11.765625 4.09375 11.765625 Z M 4.09375 11.765625 "/>
<path style=" stroke:none;fill-rule:nonzero;fill:rgb(60%,40%,20%);fill-opacity:1;" d="M 4.09375 14.144531 L 5.792969 14.144531 C 6.507812 14.144531 6.507812 12.503906 5.792969 12.503906 L 4.09375 12.503906 C 3.378906 12.503906 3.378906 14.144531 4.09375 14.144531 Z M 4.09375 14.144531 "/>
<path style=" stroke:none;fill-rule:nonzero;fill:rgb(60%,40%,20%);fill-opacity:1;" d="M 4.09375 16.472656 L 5.792969 16.472656 C 6.507812 16.472656 6.507812 14.835938 5.792969 14.835938 L 4.09375 14.835938 C 3.378906 14.835938 3.378906 16.472656 4.09375 16.472656 Z M 4.09375 16.472656 "/>
<path style=" stroke:none;fill-rule:nonzero;fill:rgb(60%,40%,20%);fill-opacity:1;" d="M 7.460938 9.265625 L 9.160156 9.265625 C 9.875 9.265625 9.875 7.625 9.160156 7.625 L 7.460938 7.625 C 6.746094 7.625 6.746094 9.265625 7.460938 9.265625 Z M 7.460938 9.265625 "/>
<path style=" stroke:none;fill-rule:nonzero;fill:rgb(60%,40%,20%);fill-opacity:1;" d="M 7.460938 11.765625 L 9.160156 11.765625 C 9.875 11.765625 9.875 10.125 9.160156 10.125 L 7.460938 10.125 C 6.746094 10.125 6.746094 11.765625 7.460938 11.765625 Z M 7.460938 11.765625 "/>
<path style=" stroke:none;fill-rule:nonzero;fill:rgb(60%,40%,20%);fill-opacity:1;" d="M 7.460938 14.144531 L 9.160156 14.144531 C 9.875 14.144531 9.875 12.503906 9.160156 12.503906 L 7.460938 12.503906 C 6.746094 12.503906 6.746094 14.144531 7.460938 14.144531 Z M 7.460938 14.144531 "/>
<path style=" stroke:none;fill-rule:nonzero;fill:rgb(60%,40%,20%);fill-opacity:1;" d="M 7.460938 16.472656 L 9.160156 16.472656 C 9.875 16.472656 9.875 14.835938 9.160156 14.835938 L 7.460938 14.835938 C 6.746094 14.835938 6.746094 16.472656 7.460938 16.472656 Z M 7.460938 16.472656 "/>
<path style=" stroke:none;fill-rule:nonzero;fill:rgb(60%,40%,20%);fill-opacity:1;" d="M 10.921875 9.265625 L 12.617188 9.265625 C 13.332031 9.265625 13.332031 7.625 12.617188 7.625 L 10.921875 7.625 C 10.207031 7.625 10.207031 9.265625 10.921875 9.265625 Z M 10.921875 9.265625 "/>
<path style=" stroke:none;fill-rule:nonzero;fill:rgb(60%,40%,20%);fill-opacity:1;" d="M 10.921875 11.765625 L 12.617188 11.765625 C 13.332031 11.765625 13.332031 10.125 12.617188 10.125 L 10.921875 10.125 C 10.207031 10.125 10.207031 11.765625 10.921875 11.765625 Z M 10.921875 11.765625 "/>
<path style=" stroke:none;fill-rule:nonzero;fill:rgb(60%,40%,20%);fill-opacity:1;" d="M 10.921875 14.144531 L 12.617188 14.144531 C 13.332031 14.144531 13.332031 12.503906 12.617188 12.503906 L 10.921875 12.503906 C 10.207031 12.503906 10.207031 14.144531 10.921875 14.144531 Z M 10.921875 14.144531 "/>
<path style=" stroke:none;fill-rule:nonzero;fill:rgb(60%,40%,20%);fill-opacity:1;" d="M 10.921875 16.472656 L 12.617188 16.472656 C 13.332031 16.472656 13.332031 14.835938 12.617188 14.835938 L 10.921875 14.835938 C 10.207031 14.835938 10.207031 16.472656 10.921875 16.472656 Z M 10.921875 16.472656 "/>
<path style=" stroke:none;fill-rule:nonzero;fill:rgb(60%,40%,20%);fill-opacity:1;" d="M 14.289062 9.265625 L 15.988281 9.265625 C 16.703125 9.265625 16.703125 7.625 15.988281 7.625 L 14.289062 7.625 C 13.574219 7.625 13.574219 9.265625 14.289062 9.265625 Z M 14.289062 9.265625 "/>
<path style=" stroke:none;fill-rule:nonzero;fill:rgb(60%,40%,20%);fill-opacity:1;" d="M 14.289062 11.765625 L 15.988281 11.765625 C 16.703125 11.765625 16.703125 10.125 15.988281 10.125 L 14.289062 10.125 C 13.574219 10.125 13.574219 11.765625 14.289062 11.765625 Z M 14.289062 11.765625 "/>
<path style=" stroke:none;fill-rule:nonzero;fill:rgb(60%,40%,20%);fill-opacity:1;" d="M 14.289062 14.144531 L 15.988281 14.144531 C 16.703125 14.144531 16.703125 12.503906 15.988281 12.503906 L 14.289062 12.503906 C 13.574219 12.503906 13.574219 14.144531 14.289062 14.144531 Z M 14.289062 14.144531 "/>
<path style=" stroke:none;fill-rule:nonzero;fill:rgb(60%,40%,20%);fill-opacity:1;" d="M 14.289062 16.472656 L 15.988281 16.472656 C 16.703125 16.472656 16.703125 14.835938 15.988281 14.835938 L 14.289062 14.835938 C 13.574219 14.835938 13.574219 16.472656 14.289062 16.472656 Z M 14.289062 16.472656 "/>
</g>
</svg>
