<?xml version="1.0" encoding="UTF-8"?>
<svg xmlns="http://www.w3.org/2000/svg" xmlns:xlink="http://www.w3.org/1999/xlink" width="20px" height="20px" viewBox="0 0 20 20" version="1.1">
<g id="surface1">
<path style=" stroke:none;fill-rule:nonzero;fill:rgb(100%,100%,100%);fill-opacity:1;" d="M 1.515625 0.371094 L 18.441406 0.371094 C 19.082031 0.371094 19.601562 0.890625 19.601562 1.527344 L 19.601562 18.433594 C 19.601562 19.070312 19.082031 19.589844 18.441406 19.589844 L 1.515625 19.589844 C 0.875 19.589844 0.355469 19.070312 0.355469 18.433594 L 0.355469 1.527344 C 0.355469 0.890625 0.875 0.371094 1.515625 0.371094 Z M 1.515625 0.371094 "/>
<path style=" stroke:none;fill-rule:nonzero;fill:rgb(9.803922%,52.156863%,58.823529%);fill-opacity:1;" d="M 18.441406 0.730469 C 18.882812 0.730469 19.242188 1.085938 19.242188 1.527344 L 19.242188 18.433594 C 19.242188 18.875 18.882812 19.230469 18.441406 19.230469 L 1.515625 19.230469 C 1.300781 19.234375 1.09375 19.152344 0.9375 19.003906 C 0.785156 18.851562 0.699219 18.648438 0.699219 18.433594 L 0.699219 1.527344 C 0.699219 1.3125 0.785156 1.109375 0.9375 0.957031 C 1.09375 0.808594 1.300781 0.726562 1.515625 0.730469 L 18.441406 0.730469 M 18.441406 0.015625 L 1.515625 0.015625 C 1.109375 0.0117188 0.722656 0.167969 0.433594 0.453125 C 0.148438 0.738281 -0.015625 1.125 -0.015625 1.527344 L -0.015625 18.433594 C -0.015625 19.269531 0.664062 19.945312 1.5 19.945312 L 18.429688 19.945312 C 19.265625 19.945312 19.941406 19.269531 19.941406 18.433594 L 19.941406 1.527344 C 19.941406 0.699219 19.273438 0.0234375 18.441406 0.015625 Z M 18.441406 0.015625 "/>
<path style=" stroke:none;fill-rule:nonzero;fill:rgb(100%,100%,100%);fill-opacity:1;" d="M 0.773438 3.203125 L 19.109375 3.203125 L 19.109375 19.199219 L 0.773438 19.199219 Z M 0.773438 3.203125 "/>
<path style=" stroke:none;fill-rule:nonzero;fill:rgb(60%,40%,20%);fill-opacity:1;" d="M 0.0078125 0 L 0.0078125 19.945312 L 20.046875 19.945312 L 20.046875 0 Z M 1.4375 18.519531 L 1.4375 4.109375 L 18.613281 4.109375 L 18.613281 18.519531 Z M 1.4375 18.519531 "/>
<path style=" stroke:none;fill-rule:nonzero;fill:rgb(60%,40%,20%);fill-opacity:1;" d="M 2.648438 11.980469 L 4.164062 11.890625 C 4.179688 12.089844 4.25 12.285156 4.363281 12.449219 C 4.535156 12.664062 4.804688 12.78125 5.078125 12.761719 C 5.265625 12.773438 5.453125 12.71875 5.605469 12.605469 C 5.710938 12.515625 5.773438 12.386719 5.773438 12.246094 C 5.773438 12.109375 5.710938 11.976562 5.605469 11.890625 C 5.355469 11.730469 5.078125 11.628906 4.789062 11.589844 C 4.25 11.503906 3.738281 11.289062 3.296875 10.964844 C 2.996094 10.71875 2.828125 10.34375 2.84375 9.957031 C 2.84375 9.691406 2.921875 9.429688 3.070312 9.207031 C 3.242188 8.957031 3.484375 8.765625 3.765625 8.652344 C 4.167969 8.5 4.597656 8.433594 5.027344 8.449219 C 5.554688 8.410156 6.082031 8.535156 6.535156 8.808594 C 6.902344 9.089844 7.125 9.515625 7.148438 9.980469 L 5.648438 10.0625 C 5.632812 9.871094 5.542969 9.691406 5.398438 9.5625 C 5.25 9.445312 5.0625 9.390625 4.871094 9.402344 C 4.722656 9.394531 4.574219 9.433594 4.453125 9.519531 C 4.363281 9.585938 4.3125 9.695312 4.3125 9.808594 C 4.316406 9.894531 4.359375 9.976562 4.429688 10.027344 C 4.589844 10.128906 4.773438 10.195312 4.964844 10.21875 C 5.480469 10.316406 5.980469 10.476562 6.457031 10.691406 C 6.730469 10.8125 6.960938 11.003906 7.128906 11.25 C 7.265625 11.480469 7.335938 11.742188 7.332031 12.011719 C 7.335938 12.335938 7.238281 12.652344 7.0625 12.925781 C 6.867188 13.207031 6.597656 13.425781 6.277344 13.550781 C 5.882812 13.707031 5.460938 13.777344 5.039062 13.765625 C 4.164062 13.765625 3.5625 13.597656 3.222656 13.261719 C 2.882812 12.917969 2.679688 12.464844 2.648438 11.980469 Z M 2.648438 11.980469 "/>
<path style=" stroke:none;fill-rule:nonzero;fill:rgb(60%,40%,20%);fill-opacity:1;" d="M 12.503906 12.933594 C 12.703125 13.070312 12.832031 13.15625 12.894531 13.191406 C 13.007812 13.257812 13.128906 13.316406 13.25 13.371094 L 12.816406 14.265625 C 12.589844 14.152344 12.371094 14.023438 12.160156 13.878906 C 11.941406 13.730469 11.804688 13.617188 11.703125 13.546875 C 11.28125 13.707031 10.832031 13.785156 10.382812 13.769531 C 9.710938 13.808594 9.050781 13.589844 8.53125 13.160156 C 7.980469 12.632812 7.6875 11.890625 7.730469 11.128906 C 7.691406 10.402344 7.949219 9.6875 8.445312 9.152344 C 8.972656 8.660156 9.679688 8.398438 10.402344 8.4375 C 11.128906 8.390625 11.84375 8.640625 12.382812 9.128906 C 12.875 9.660156 13.125 10.371094 13.078125 11.097656 C 13.113281 11.757812 12.90625 12.410156 12.503906 12.933594 Z M 11.285156 12.121094 C 11.429688 11.800781 11.496094 11.453125 11.476562 11.105469 C 11.515625 10.707031 11.410156 10.308594 11.1875 9.980469 C 10.984375 9.753906 10.6875 9.628906 10.386719 9.644531 C 10.089844 9.636719 9.804688 9.769531 9.617188 10 C 9.394531 10.308594 9.289062 10.691406 9.320312 11.070312 C 9.289062 11.484375 9.398438 11.898438 9.628906 12.242188 C 9.824219 12.472656 10.117188 12.597656 10.417969 12.582031 C 10.511719 12.582031 10.605469 12.570312 10.699219 12.550781 C 10.511719 12.394531 10.296875 12.273438 10.066406 12.191406 L 10.316406 11.621094 C 10.429688 11.640625 10.539062 11.671875 10.644531 11.714844 C 10.800781 11.804688 10.957031 11.902344 11.105469 12.011719 Z M 11.285156 12.121094 "/>
<path style=" stroke:none;fill-rule:nonzero;fill:rgb(60%,40%,20%);fill-opacity:1;" d="M 13.734375 8.550781 L 15.34375 8.550781 L 15.34375 12.417969 L 17.808594 12.417969 L 17.808594 13.6875 L 13.734375 13.6875 Z M 13.734375 8.550781 "/>
</g>
</svg>
