<?xml version="1.0" encoding="UTF-8"?>
<svg xmlns="http://www.w3.org/2000/svg" xmlns:xlink="http://www.w3.org/1999/xlink" width="20px" height="20px" viewBox="0 0 20 20" version="1.1">
<g id="surface1">
<path style=" stroke:none;fill-rule:nonzero;fill:rgb(100%,100%,100%);fill-opacity:1;" d="M 0.773438 3.203125 L 19.109375 3.203125 L 19.109375 19.199219 L 0.773438 19.199219 Z M 0.773438 3.203125 "/>
<path style=" stroke:none;fill-rule:nonzero;fill:rgb(60%,40%,20%);fill-opacity:1;" d="M 0.0078125 0 L 0.0078125 19.945312 L 20.046875 19.945312 L 20.046875 0 Z M 1.4375 18.519531 L 1.4375 4.109375 L 18.613281 4.109375 L 18.613281 18.519531 Z M 1.4375 18.519531 "/>
<path style=" stroke:none;fill-rule:nonzero;fill:rgb(60%,40%,20%);fill-opacity:1;" d="M 10.0625 5.269531 L 3.675781 5.269531 L 3.664062 11.671875 L 10.0625 18.074219 L 16.46875 11.671875 Z M 10.0625 5.269531 "/>
<path style=" stroke:none;fill-rule:nonzero;fill:rgb(100%,100%,100%);fill-opacity:1;" d="M 10.042969 16.320312 C 10 16.363281 9.945312 16.363281 9.875 16.320312 C 9.640625 16.144531 9.421875 15.941406 9.226562 15.726562 C 9.011719 15.527344 8.8125 15.3125 8.632812 15.082031 C 8.570312 14.992188 8.570312 14.875 8.632812 14.785156 C 8.878906 14.390625 8.988281 14.15625 8.972656 14.09375 C 8.699219 13.765625 8.40625 13.460938 8.097656 13.171875 C 7.90625 12.953125 7.691406 12.757812 7.457031 12.59375 C 7.28125 12.636719 7.113281 12.714844 6.972656 12.824219 C 6.742188 12.96875 6.59375 13.019531 6.515625 12.972656 C 6.234375 12.742188 5.96875 12.496094 5.726562 12.230469 C 5.382812 11.890625 5.242188 11.6875 5.308594 11.621094 C 5.371094 11.554688 6.339844 11.09375 8.210938 10.234375 C 10.238281 9.304688 11.351562 8.789062 11.546875 8.6875 C 11.660156 8.625 11.730469 8.613281 11.769531 8.648438 C 11.804688 8.6875 11.917969 8.8125 12.03125 8.945312 C 12.117188 9.050781 12.203125 9.152344 12.300781 9.246094 C 12.363281 9.308594 12.453125 9.394531 12.578125 9.503906 C 12.703125 9.609375 12.792969 9.695312 12.855469 9.753906 C 12.914062 9.8125 12.894531 9.871094 12.855469 9.980469 C 12.730469 10.328125 12.242188 11.453125 11.394531 13.355469 C 10.546875 15.261719 10.097656 16.25 10.042969 16.320312 Z M 10.71875 10.890625 C 10.574219 10.9375 10.28125 11.074219 9.839844 11.289062 C 9.5625 11.410156 9.296875 11.554688 9.046875 11.726562 C 9.003906 11.765625 9.046875 11.855469 9.179688 11.992188 C 9.242188 12.0625 9.355469 12.183594 9.515625 12.351562 C 9.671875 12.519531 9.761719 12.5625 9.8125 12.542969 L 9.867188 12.503906 C 10.050781 12.261719 10.210938 12 10.34375 11.730469 C 10.488281 11.457031 10.613281 11.179688 10.71875 10.890625 Z M 10.71875 10.890625 "/>
</g>
</svg>
