<?xml version="1.0" encoding="UTF-8"?>
<svg xmlns="http://www.w3.org/2000/svg" xmlns:xlink="http://www.w3.org/1999/xlink" width="20px" height="20px" viewBox="0 0 20 20" version="1.1">
<g id="surface1">
<path style=" stroke:none;fill-rule:nonzero;fill:rgb(100%,100%,100%);fill-opacity:1;" d="M 0.773438 3.203125 L 19.109375 3.203125 L 19.109375 19.199219 L 0.773438 19.199219 Z M 0.773438 3.203125 "/>
<path style=" stroke:none;fill-rule:nonzero;fill:rgb(60%,40%,20%);fill-opacity:1;" d="M 0.0078125 0 L 0.0078125 19.945312 L 20.046875 19.945312 L 20.046875 0 Z M 1.4375 18.519531 L 1.4375 4.109375 L 18.613281 4.109375 L 18.613281 18.519531 Z M 1.4375 18.519531 "/>
<path style=" stroke:none;fill-rule:nonzero;fill:rgb(60%,40%,20%);fill-opacity:1;" d="M 4.09375 9.265625 L 5.792969 9.265625 C 6.507812 9.265625 6.507812 7.625 5.792969 7.625 L 4.09375 7.625 C 3.378906 7.625 3.378906 9.265625 4.09375 9.265625 Z M 4.09375 9.265625 "/>
<path style=" stroke:none;fill-rule:nonzero;fill:rgb(60%,40%,20%);fill-opacity:1;" d="M 4.09375 11.738281 L 5.792969 11.738281 C 6.507812 11.738281 6.507812 10.101562 5.792969 10.101562 L 4.09375 10.101562 C 3.378906 10.101562 3.378906 11.738281 4.09375 11.738281 Z M 4.09375 11.738281 "/>
<path style=" stroke:none;fill-rule:nonzero;fill:rgb(60%,40%,20%);fill-opacity:1;" d="M 4.09375 14.121094 L 5.792969 14.121094 C 6.507812 14.121094 6.507812 12.480469 5.792969 12.480469 L 4.09375 12.480469 C 3.378906 12.480469 3.378906 14.121094 4.09375 14.121094 Z M 4.09375 14.121094 "/>
<path style=" stroke:none;fill-rule:nonzero;fill:rgb(60%,40%,20%);fill-opacity:1;" d="M 4.09375 16.449219 L 5.792969 16.449219 C 6.507812 16.449219 6.507812 14.8125 5.792969 14.8125 L 4.09375 14.8125 C 3.378906 14.8125 3.378906 16.449219 4.09375 16.449219 Z M 4.09375 16.449219 "/>
<path style=" stroke:none;fill-rule:nonzero;fill:rgb(60%,40%,20%);fill-opacity:1;" d="M 7.460938 9.265625 L 9.160156 9.265625 C 9.875 9.265625 9.875 7.625 9.160156 7.625 L 7.460938 7.625 C 6.746094 7.625 6.746094 9.265625 7.460938 9.265625 Z M 7.460938 9.265625 "/>
<path style=" stroke:none;fill-rule:nonzero;fill:rgb(60%,40%,20%);fill-opacity:1;" d="M 7.460938 11.738281 L 9.160156 11.738281 C 9.875 11.738281 9.875 10.101562 9.160156 10.101562 L 7.460938 10.101562 C 6.746094 10.101562 6.746094 11.738281 7.460938 11.738281 Z M 7.460938 11.738281 "/>
<path style=" stroke:none;fill-rule:nonzero;fill:rgb(60%,40%,20%);fill-opacity:1;" d="M 7.460938 14.121094 L 9.160156 14.121094 C 9.875 14.121094 9.875 12.480469 9.160156 12.480469 L 7.460938 12.480469 C 6.746094 12.480469 6.746094 14.121094 7.460938 14.121094 Z M 7.460938 14.121094 "/>
<path style=" stroke:none;fill-rule:nonzero;fill:rgb(60%,40%,20%);fill-opacity:1;" d="M 7.460938 16.449219 L 9.160156 16.449219 C 9.875 16.449219 9.875 14.8125 9.160156 14.8125 L 7.460938 14.8125 C 6.746094 14.8125 6.746094 16.449219 7.460938 16.449219 Z M 7.460938 16.449219 "/>
</g>
</svg>
