<?xml version="1.0" encoding="UTF-8"?>
<svg xmlns="http://www.w3.org/2000/svg" xmlns:xlink="http://www.w3.org/1999/xlink" width="20px" height="20px" viewBox="0 0 20 20" version="1.1">
<g id="surface1">
<path style=" stroke:none;fill-rule:nonzero;fill:rgb(100%,100%,100%);fill-opacity:1;" d="M 0.773438 3.203125 L 19.109375 3.203125 L 19.109375 19.199219 L 0.773438 19.199219 Z M 0.773438 3.203125 "/>
<path style=" stroke:none;fill-rule:nonzero;fill:rgb(60%,40%,20%);fill-opacity:1;" d="M 0.0078125 0 L 0.0078125 19.945312 L 20.046875 19.945312 L 20.046875 0 Z M 1.4375 18.519531 L 1.4375 4.109375 L 18.613281 4.109375 L 18.613281 18.519531 Z M 1.4375 18.519531 "/>
<path style=" stroke:none;fill-rule:nonzero;fill:rgb(60%,40%,20%);fill-opacity:1;" d="M 9.804688 10.71875 C 9.953125 10.714844 10.105469 10.738281 10.25 10.785156 C 9.988281 9.710938 10.019531 8.582031 10.34375 7.523438 C 9.75 7.585938 9.226562 7.941406 8.949219 8.46875 C 8.894531 8.554688 8.847656 8.648438 8.8125 8.746094 C 8.699219 8.117188 8.476562 7.511719 8.152344 6.960938 C 8.089844 7.824219 7.84375 8.664062 7.4375 9.429688 C 7.355469 8.074219 6.910156 6.765625 6.152344 5.636719 C 6.0625 6.914062 5.859375 8.183594 5.550781 9.429688 C 5.332031 8.742188 5.070312 7.8125 4.78125 6.570312 C 4.5 7.175781 4.304688 7.816406 4.203125 8.480469 L 4.1875 8.453125 C 3.90625 7.925781 3.386719 7.574219 2.792969 7.511719 C 3.105469 8.578125 3.121094 9.710938 2.84375 10.785156 C 2.988281 10.738281 3.136719 10.714844 3.289062 10.71875 Z M 9.804688 10.71875 "/>
<path style=" stroke:none;fill-rule:nonzero;fill:rgb(60%,40%,20%);fill-opacity:1;" d="M 16.640625 16.933594 C 16.789062 16.933594 16.941406 16.957031 17.085938 17 C 16.820312 15.925781 16.847656 14.800781 17.167969 13.742188 C 16.574219 13.804688 16.054688 14.15625 15.773438 14.683594 C 15.71875 14.769531 15.671875 14.867188 15.636719 14.964844 C 15.527344 14.339844 15.308594 13.738281 14.984375 13.191406 C 14.917969 14.054688 14.675781 14.894531 14.269531 15.65625 C 14.183594 14.300781 13.742188 12.992188 12.984375 11.863281 C 12.894531 13.144531 12.691406 14.414062 12.382812 15.65625 C 12.164062 14.972656 11.902344 14.042969 11.613281 12.800781 C 11.328125 13.402344 11.132812 14.046875 11.035156 14.707031 L 11.019531 14.679688 C 10.738281 14.152344 10.214844 13.800781 9.625 13.738281 C 9.945312 14.796875 9.972656 15.921875 9.707031 16.996094 C 9.851562 16.953125 10.003906 16.929688 10.152344 16.929688 Z M 16.640625 16.933594 "/>
</g>
</svg>
