<?xml version="1.0" encoding="UTF-8"?><svg id="Report" xmlns="http://www.w3.org/2000/svg" width="20px" height="20px" viewBox="0 0 56.33 56.53"><defs><style>.cls-1{fill:#fff;}.cls-2{fill:#963;}</style></defs><g id="Outline"><g id="Outline-2"><rect class="cls-1" x="2.37" y="9.22" width="51.34" height="44.79"/><path class="cls-2" d="M.23,.25V56.1H56.33V.25H.23ZM4.24,52.11V11.76H52.33V52.11H4.24Z"/></g></g><g id="Layer_168"><path class="cls-2" d="M51.15,22.08h-3.92c.26-.54,.48-1.15,.65-1.81,.43-1.71,.37-3.21,.37-3.28l-.09-2.17-1.08,1.89c-.56,.97-1.24,1.8-2.03,2.47-.63,.53-1.34,.96-2.1,1.27-.48,.2-.92,.32-1.29,.4h-4.94c-1.36-.3-3.76-1.24-5.42-4.14l-1.08-1.89-.09,2.17c0,.06-.06,1.57,.36,3.28,.17,.66,.38,1.27,.65,1.81h-3.91v.61c-.01,.08-.04,1.96,1.34,3.38,.85,.87,2.01,1.37,3.48,1.49,0,1.88,.28,3.26,.84,4.21,1.02,1.73,1.28,6.87,1.29,8.7v.16l.08,.14c.09,.16,.34,.47,1.07,.74,.88,.33,2.18,.5,3.87,.5s2.99-.17,3.87-.5c.72-.27,.98-.58,1.07-.74l.08-.14v-.16c.01-1.83,.27-6.97,1.29-8.7,.57-.95,.84-2.33,.84-4.21,1.46-.12,2.63-.62,3.47-1.49,1.38-1.42,1.36-3.3,1.36-3.38v-.61Zm-18.59,0c-.57-.9-.87-1.96-1.02-2.88,.32,.35,.65,.67,1.01,.97,.53,.44,1.1,.81,1.7,1.12-.38,.2-.82,.47-1.18,.79h-.51Zm1.38,8.21c-.48-.25-.61-.94-.3-1.53,.31-.59,.95-.87,1.43-.62,.48,.25,.61,.93,.3,1.53-.31,.59-.95,.87-1.43,.62h0Zm8.99,9.9c-.15,.09-.48,.24-1.11,.37-.33-.49-1.07-1.16-2.62-1.16h-.03c-1.56,0-2.3,.68-2.63,1.17-.64-.12-.98-.28-1.13-.37,0-.25-.02-.67-.04-1.19,.91-.79,2.54-2.73,2.6-6.4,.08-5.09-3.3-5.86-2.05-7.79,1.25-1.93,2.63-1.52,3.26-1.52s2-.42,3.26,1.52c1.25,1.94-2.13,2.7-2.05,7.79,.06,3.63,1.66,5.57,2.58,6.38-.02,.53-.03,.95-.04,1.21h0Zm1.5-9.9c-.48,.25-1.11-.03-1.43-.62-.31-.59-.18-1.28,.3-1.53,.48-.25,1.12,.03,1.43,.62,.31,.59,.18,1.28-.3,1.53h0Zm1.35-8.21h-.51c-.36-.32-.8-.58-1.18-.79,.6-.31,1.18-.69,1.7-1.12,.36-.3,.69-.62,1.01-.97-.16,.92-.46,1.98-1.02,2.88h0Zm0,0"/><path class="cls-2" d="M27,48.55c.46,0,.91,.07,1.33,.21-.41-1.79-1.09-5.88,.24-9.66,0,0-2.36,0-4.13,2.78-.17,.26-.3,.54-.41,.83-.69-3.42-1.94-5.29-1.94-5.29-.24,2.93-1.13,5.38-2.15,7.31-.5-6.86-3.81-11.24-3.81-11.24-.36,4.75-1.11,8.57-1.79,11.24-.64-2.04-1.42-4.79-2.27-8.42,0,0-1.14,2.15-1.72,5.65-.02-.03-.03-.06-.05-.08-1.77-2.78-4.13-2.78-4.13-2.78,1.33,3.78,.66,7.87,.24,9.66,.42-.13,.87-.21,1.33-.21H27Z"/><path class="cls-2" d="M6.47,25.86h6.22v3.82c0,.23,.08,.43,.24,.6,.16,.17,.34,.25,.56,.25s.4-.08,.56-.25l10.96-5.81c.16-.17,.24-.37,.24-.6s-.08-.43-.24-.6h0l-10.96-7.22c-.16-.17-.34-.25-.56-.25s-.4,.08-.56,.25c-.16,.17-.24,.37-.24,.6v3.82H6.47"/></g></svg>