<?xml version="1.0" encoding="UTF-8"?>
<svg xmlns="http://www.w3.org/2000/svg" xmlns:xlink="http://www.w3.org/1999/xlink" width="20px" height="20px" viewBox="0 0 20 20" version="1.1">
<g id="surface1">
<path style=" stroke:none;fill-rule:nonzero;fill:rgb(100%,100%,100%);fill-opacity:1;" d="M 0.773438 3.203125 L 19.109375 3.203125 L 19.109375 19.199219 L 0.773438 19.199219 Z M 0.773438 3.203125 "/>
<path style=" stroke:none;fill-rule:nonzero;fill:rgb(60%,40%,20%);fill-opacity:1;" d="M 0.0078125 0 L 0.0078125 19.945312 L 20.046875 19.945312 L 20.046875 0 Z M 1.4375 18.519531 L 1.4375 4.109375 L 18.613281 4.109375 L 18.613281 18.519531 Z M 1.4375 18.519531 "/>
<path style=" stroke:none;fill-rule:nonzero;fill:rgb(60%,40%,20%);fill-opacity:1;" d="M 5.878906 11.523438 L 2.664062 11.523438 L 2.664062 10.113281 L 5.878906 10.113281 Z M 5.878906 11.523438 "/>
<path style=" stroke:none;fill-rule:nonzero;fill:rgb(60%,40%,20%);fill-opacity:1;" d="M 11.578125 8.066406 L 9.835938 14.898438 L 8.355469 14.898438 L 6.617188 8.066406 L 8.199219 8.066406 L 9.101562 12.550781 L 9.984375 8.066406 Z M 11.578125 8.066406 "/>
<path style=" stroke:none;fill-rule:nonzero;fill:rgb(60%,40%,20%);fill-opacity:1;" d="M 16.769531 14.042969 C 16.800781 14.28125 16.71875 14.515625 16.546875 14.683594 C 16.375 14.847656 16.136719 14.925781 15.898438 14.890625 L 13.199219 14.890625 C 12.964844 14.925781 12.722656 14.851562 12.550781 14.683594 C 12.378906 14.519531 12.296875 14.28125 12.328125 14.042969 L 12.328125 8.90625 C 12.300781 8.671875 12.382812 8.433594 12.554688 8.269531 C 12.726562 8.105469 12.964844 8.03125 13.199219 8.066406 L 15.867188 8.066406 C 16.105469 8.019531 16.355469 8.089844 16.535156 8.257812 C 16.714844 8.421875 16.800781 8.664062 16.769531 8.90625 L 16.769531 11.40625 L 16.347656 11.832031 L 13.847656 11.832031 L 13.847656 13.742188 L 15.300781 13.742188 L 15.300781 12.617188 L 16.769531 12.617188 Z M 15.292969 10.828125 L 15.292969 9.199219 L 13.820312 9.199219 L 13.820312 10.835938 Z M 15.292969 10.828125 "/>
</g>
</svg>
