<?xml version="1.0" encoding="UTF-8"?>
<svg xmlns="http://www.w3.org/2000/svg" xmlns:xlink="http://www.w3.org/1999/xlink" width="20px" height="20px" viewBox="0 0 20 20" version="1.1">
<g id="surface1">
<path style=" stroke:none;fill-rule:nonzero;fill:rgb(100%,100%,100%);fill-opacity:1;" d="M 1.519531 0.386719 L 18.445312 0.386719 C 19.085938 0.386719 19.605469 0.902344 19.605469 1.542969 L 19.605469 18.445312 C 19.605469 19.085938 19.085938 19.605469 18.445312 19.605469 L 1.519531 19.605469 C 0.878906 19.605469 0.359375 19.085938 0.359375 18.445312 L 0.359375 1.542969 C 0.359375 0.902344 0.878906 0.386719 1.519531 0.386719 Z M 1.519531 0.386719 "/>
<path style=" stroke:none;fill-rule:nonzero;fill:rgb(9.803922%,52.156863%,58.823529%);fill-opacity:1;" d="M 18.449219 0.742188 C 18.890625 0.746094 19.246094 1.101562 19.25 1.542969 L 19.25 18.445312 C 19.246094 18.886719 18.890625 19.246094 18.449219 19.246094 L 1.519531 19.246094 C 1.308594 19.25 1.101562 19.167969 0.945312 19.015625 C 0.792969 18.867188 0.707031 18.660156 0.707031 18.445312 L 0.707031 1.542969 C 0.707031 1.328125 0.792969 1.121094 0.945312 0.972656 C 1.101562 0.820312 1.308594 0.738281 1.519531 0.742188 L 18.449219 0.742188 M 18.449219 0.0273438 L 1.519531 0.0273438 C 1.117188 0.0234375 0.726562 0.183594 0.441406 0.46875 C 0.15625 0.75 -0.0078125 1.140625 -0.0078125 1.542969 L -0.0078125 18.445312 C -0.0078125 19.28125 0.671875 19.960938 1.507812 19.960938 L 18.4375 19.960938 C 19.273438 19.960938 19.949219 19.28125 19.949219 18.445312 L 19.949219 1.542969 C 19.949219 0.710938 19.28125 0.0351562 18.449219 0.0273438 Z M 18.449219 0.0273438 "/>
<path style=" stroke:none;fill-rule:nonzero;fill:rgb(9.803922%,52.156863%,58.823529%);fill-opacity:1;" d="M 20.019531 20.019531 L -0.0078125 20.019531 L -0.0078125 -0.0078125 L 20.019531 -0.0078125 Z M 1.449219 18.59375 L 18.59375 18.59375 L 18.59375 1.421875 L 1.421875 1.421875 Z M 1.449219 18.59375 "/>
<path style=" stroke:none;fill-rule:nonzero;fill:rgb(9.803922%,52.156863%,58.823529%);fill-opacity:1;" d="M 0.714844 0.628906 L 19.304688 0.628906 L 19.304688 4.25 L 0.714844 4.25 Z M 0.714844 0.628906 "/>
<path style=" stroke:none;fill-rule:nonzero;fill:rgb(9.803922%,52.156863%,58.823529%);fill-opacity:1;" d="M 11.558594 10.132812 L 8.371094 10.132812 C 8.097656 10.132812 7.878906 10.355469 7.882812 10.628906 L 7.882812 13.691406 C 7.882812 13.964844 8.101562 14.183594 8.371094 14.1875 C 8.519531 14.183594 8.660156 14.117188 8.75 14 L 8.941406 16.980469 C 8.957031 17.246094 9.179688 17.453125 9.445312 17.449219 L 10.457031 17.449219 C 10.722656 17.449219 10.945312 17.242188 10.960938 16.980469 L 11.152344 13.992188 C 11.242188 14.113281 11.382812 14.183594 11.53125 14.1875 C 11.800781 14.179688 12.019531 13.960938 12.019531 13.6875 L 12.019531 10.632812 C 12.023438 10.363281 11.804688 10.140625 11.535156 10.136719 Z M 11.558594 10.132812 "/>
<path style=" stroke:none;fill-rule:nonzero;fill:rgb(9.803922%,52.156863%,58.823529%);fill-opacity:1;" d="M 11.316406 8.449219 C 11.316406 9.199219 10.710938 9.808594 9.960938 9.808594 C 9.210938 9.804688 8.601562 9.199219 8.605469 8.449219 C 8.605469 7.699219 9.214844 7.089844 9.964844 7.09375 C 10.324219 7.09375 10.667969 7.234375 10.921875 7.492188 C 11.175781 7.746094 11.320312 8.089844 11.316406 8.449219 Z M 11.316406 8.449219 "/>
<path style=" stroke:none;fill-rule:nonzero;fill:rgb(9.803922%,52.156863%,58.823529%);fill-opacity:1;" d="M 6.953125 7.914062 L 4.453125 7.914062 C 4.238281 7.917969 4.066406 8.089844 4.066406 8.304688 L 4.066406 10.710938 C 4.070312 10.921875 4.242188 11.09375 4.453125 11.097656 C 4.570312 11.097656 4.679688 11.042969 4.75 10.953125 L 4.902344 13.292969 C 4.921875 13.496094 5.09375 13.652344 5.300781 13.648438 L 6.101562 13.648438 C 6.304688 13.652344 6.476562 13.496094 6.496094 13.292969 L 6.648438 10.945312 C 6.71875 11.042969 6.828125 11.097656 6.945312 11.097656 C 7.160156 11.09375 7.332031 10.921875 7.332031 10.707031 L 7.332031 8.304688 C 7.332031 8.089844 7.160156 7.917969 6.945312 7.914062 Z M 6.953125 7.914062 "/>
<path style=" stroke:none;fill-rule:nonzero;fill:rgb(9.803922%,52.156863%,58.823529%);fill-opacity:1;" d="M 6.777344 6.59375 C 6.777344 7.183594 6.300781 7.664062 5.707031 7.664062 C 5.117188 7.664062 4.636719 7.183594 4.636719 6.59375 C 4.636719 6 5.117188 5.519531 5.707031 5.519531 C 6.300781 5.519531 6.777344 6 6.777344 6.59375 Z M 6.777344 6.59375 "/>
<path style=" stroke:none;fill-rule:nonzero;fill:rgb(9.803922%,52.156863%,58.823529%);fill-opacity:1;" d="M 12.972656 7.914062 L 15.472656 7.914062 C 15.683594 7.917969 15.855469 8.089844 15.855469 8.304688 L 15.855469 10.710938 C 15.855469 10.921875 15.6875 11.09375 15.476562 11.097656 C 15.359375 11.09375 15.25 11.042969 15.179688 10.953125 L 15.027344 13.292969 C 15.007812 13.496094 14.835938 13.652344 14.632812 13.648438 L 13.824219 13.648438 C 13.621094 13.652344 13.445312 13.496094 13.429688 13.292969 L 13.273438 10.945312 C 13.203125 11.039062 13.09375 11.09375 12.980469 11.097656 C 12.765625 11.09375 12.59375 10.921875 12.59375 10.707031 L 12.59375 8.304688 C 12.59375 8.089844 12.765625 7.917969 12.980469 7.914062 Z M 12.972656 7.914062 "/>
<path style=" stroke:none;fill-rule:nonzero;fill:rgb(9.803922%,52.156863%,58.823529%);fill-opacity:1;" d="M 15.285156 6.59375 C 15.285156 7.183594 14.804688 7.664062 14.214844 7.664062 C 13.621094 7.664062 13.144531 7.183594 13.144531 6.59375 C 13.144531 6 13.621094 5.519531 14.214844 5.519531 C 14.804688 5.519531 15.285156 6 15.285156 6.59375 Z M 15.285156 6.59375 "/>
</g>
</svg>
