<?xml version="1.0" encoding="UTF-8"?>
<svg xmlns="http://www.w3.org/2000/svg" xmlns:xlink="http://www.w3.org/1999/xlink" width="20px" height="20px" viewBox="0 0 20 20" version="1.1">
<g id="surface1">
<path style=" stroke:none;fill-rule:nonzero;fill:rgb(9.803922%,52.156863%,58.823529%);fill-opacity:1;" d="M 19.515625 5.277344 L 17.230469 5.277344 C 17.394531 4.9375 17.519531 4.578125 17.605469 4.207031 C 17.761719 3.582031 17.832031 2.941406 17.820312 2.296875 L 17.769531 1.035156 L 17.128906 2.148438 C 16.820312 2.691406 16.421875 3.175781 15.941406 3.578125 C 15.574219 3.886719 15.160156 4.136719 14.71875 4.320312 C 14.476562 4.421875 14.222656 4.5 13.96875 4.558594 L 11.101562 4.558594 C 9.746094 4.242188 8.597656 3.363281 7.9375 2.140625 L 7.3125 1.035156 L 7.257812 2.300781 C 7.246094 2.945312 7.316406 3.585938 7.472656 4.210938 C 7.558594 4.582031 7.683594 4.9375 7.847656 5.28125 L 5.5625 5.28125 L 5.5625 5.640625 C 5.578125 6.371094 5.859375 7.074219 6.355469 7.609375 C 6.902344 8.144531 7.625 8.453125 8.386719 8.480469 C 8.386719 9.578125 8.546875 10.382812 8.875 10.9375 C 9.464844 11.941406 9.628906 14.9375 9.628906 16.011719 L 9.628906 16.105469 L 9.675781 16.1875 C 9.824219 16.398438 10.042969 16.550781 10.296875 16.617188 C 11.027344 16.84375 11.789062 16.941406 12.550781 16.910156 C 13.3125 16.941406 14.078125 16.84375 14.808594 16.617188 C 15.058594 16.550781 15.277344 16.398438 15.429688 16.1875 L 15.472656 16.105469 L 15.472656 16.011719 C 15.472656 14.9375 15.625 11.945312 16.226562 10.9375 C 16.554688 10.378906 16.714844 9.574219 16.714844 8.480469 C 17.472656 8.453125 18.195312 8.140625 18.738281 7.605469 C 19.238281 7.070312 19.519531 6.367188 19.53125 5.636719 Z M 8.683594 5.277344 C 8.378906 4.761719 8.175781 4.191406 8.085938 3.601562 C 8.269531 3.800781 8.464844 3.988281 8.675781 4.164062 C 8.980469 4.417969 9.3125 4.640625 9.667969 4.820312 C 9.421875 4.945312 9.191406 5.101562 8.980469 5.277344 Z M 9.488281 10.066406 C 9.199219 9.867188 9.121094 9.46875 9.316406 9.175781 C 9.453125 8.847656 9.820312 8.691406 10.148438 8.816406 C 10.4375 9.019531 10.515625 9.414062 10.320312 9.707031 C 10.1875 10.03125 9.816406 10.191406 9.488281 10.0625 Z M 14.730469 15.84375 C 14.53125 15.949219 14.3125 16.023438 14.085938 16.058594 C 13.894531 15.769531 13.464844 15.382812 12.558594 15.378906 L 12.539062 15.378906 C 11.628906 15.378906 11.199219 15.769531 11.007812 16.0625 C 10.777344 16.023438 10.550781 15.949219 10.34375 15.84375 C 10.34375 15.695312 10.34375 15.453125 10.320312 15.148438 C 10.851562 14.6875 11.804688 13.558594 11.839844 11.417969 C 11.886719 8.449219 9.914062 8.003906 10.644531 6.875 C 11.378906 5.746094 12.179688 5.988281 12.542969 5.988281 C 12.90625 5.988281 13.710938 5.746094 14.441406 6.875 C 15.175781 8.003906 13.199219 8.449219 13.253906 11.417969 C 13.289062 13.535156 14.222656 14.664062 14.757812 15.136719 C 14.757812 15.445312 14.734375 15.691406 14.730469 15.851562 Z M 15.605469 10.066406 C 15.277344 10.195312 14.910156 10.035156 14.773438 9.710938 C 14.617188 9.527344 14.589844 9.269531 14.699219 9.058594 C 14.8125 8.847656 15.042969 8.722656 15.28125 8.75 C 15.519531 8.78125 15.71875 8.949219 15.777344 9.183594 C 15.972656 9.476562 15.894531 9.871094 15.605469 10.074219 Z M 16.414062 5.277344 L 16.117188 5.277344 C 15.90625 5.101562 15.675781 4.945312 15.429688 4.820312 C 15.78125 4.640625 16.109375 4.417969 16.414062 4.164062 C 16.625 3.988281 16.820312 3.800781 17.003906 3.601562 C 16.914062 4.191406 16.714844 4.761719 16.414062 5.277344 Z M 16.414062 5.277344 "/>
<path style=" stroke:none;fill-rule:nonzero;fill:rgb(9.803922%,52.156863%,58.823529%);fill-opacity:1;" d="M 1.058594 12.605469 L 2.910156 12.605469 C 3.679688 12.605469 3.679688 10.816406 2.910156 10.816406 L 1.058594 10.816406 C 0.292969 10.816406 0.292969 12.605469 1.058594 12.605469 Z M 1.058594 12.605469 "/>
<path style=" stroke:none;fill-rule:nonzero;fill:rgb(9.803922%,52.156863%,58.823529%);fill-opacity:1;" d="M 1.058594 15.296875 L 2.910156 15.296875 C 3.679688 15.296875 3.679688 13.511719 2.910156 13.511719 L 1.058594 13.511719 C 0.292969 13.511719 0.292969 15.296875 1.058594 15.296875 Z M 1.058594 15.296875 "/>
<path style=" stroke:none;fill-rule:nonzero;fill:rgb(9.803922%,52.156863%,58.823529%);fill-opacity:1;" d="M 1.058594 17.882812 L 2.910156 17.882812 C 3.679688 17.882812 3.679688 16.097656 2.910156 16.097656 L 1.058594 16.097656 C 0.292969 16.097656 0.292969 17.882812 1.058594 17.882812 Z M 1.058594 17.882812 "/>
<path style=" stroke:none;fill-rule:nonzero;fill:rgb(9.803922%,52.156863%,58.823529%);fill-opacity:1;" d="M 5.039062 12.464844 L 7.820312 12.464844 C 8.980469 12.464844 8.980469 10.679688 7.820312 10.679688 L 5.039062 10.679688 C 3.878906 10.679688 3.878906 12.464844 5.039062 12.464844 Z M 5.039062 12.464844 "/>
<path style=" stroke:none;fill-rule:nonzero;fill:rgb(9.803922%,52.156863%,58.823529%);fill-opacity:1;" d="M 5.039062 15.140625 L 7.820312 15.140625 C 8.980469 15.140625 8.980469 13.355469 7.820312 13.355469 L 5.039062 13.355469 C 3.878906 13.355469 3.878906 15.140625 5.039062 15.140625 Z M 5.039062 15.140625 "/>
<path style=" stroke:none;fill-rule:nonzero;fill:rgb(9.803922%,52.156863%,58.823529%);fill-opacity:1;" d="M 5.039062 17.726562 L 7.820312 17.726562 C 8.980469 17.726562 8.980469 15.9375 7.820312 15.9375 L 5.039062 15.9375 C 3.878906 15.9375 3.878906 17.726562 5.039062 17.726562 Z M 5.039062 17.726562 "/>
</g>
</svg>
