<?xml version="1.0" encoding="UTF-8"?>
<svg xmlns="http://www.w3.org/2000/svg" xmlns:xlink="http://www.w3.org/1999/xlink" width="20px" height="20px" viewBox="0 0 20 20" version="1.1">
<g id="surface1">
<path style=" stroke:none;fill-rule:nonzero;fill:rgb(100%,100%,100%);fill-opacity:1;" d="M 1.519531 0.386719 L 18.445312 0.386719 C 19.085938 0.386719 19.605469 0.902344 19.605469 1.542969 L 19.605469 18.445312 C 19.605469 19.085938 19.085938 19.605469 18.445312 19.605469 L 1.519531 19.605469 C 0.878906 19.605469 0.359375 19.085938 0.359375 18.445312 L 0.359375 1.542969 C 0.359375 0.902344 0.878906 0.386719 1.519531 0.386719 Z M 1.519531 0.386719 "/>
<path style=" stroke:none;fill-rule:nonzero;fill:rgb(9.803922%,52.156863%,58.823529%);fill-opacity:1;" d="M 18.449219 0.742188 C 18.890625 0.746094 19.246094 1.101562 19.25 1.542969 L 19.25 18.445312 C 19.246094 18.886719 18.890625 19.246094 18.449219 19.246094 L 1.519531 19.246094 C 1.308594 19.25 1.101562 19.167969 0.945312 19.015625 C 0.792969 18.867188 0.707031 18.660156 0.707031 18.445312 L 0.707031 1.542969 C 0.707031 1.328125 0.792969 1.121094 0.945312 0.972656 C 1.101562 0.820312 1.308594 0.738281 1.519531 0.742188 L 18.449219 0.742188 M 18.449219 0.0273438 L 1.519531 0.0273438 C 1.117188 0.0234375 0.726562 0.183594 0.441406 0.46875 C 0.15625 0.75 -0.0078125 1.140625 -0.0078125 1.542969 L -0.0078125 18.445312 C -0.0078125 19.28125 0.671875 19.960938 1.507812 19.960938 L 18.4375 19.960938 C 19.273438 19.960938 19.949219 19.28125 19.949219 18.445312 L 19.949219 1.542969 C 19.949219 0.710938 19.28125 0.0351562 18.449219 0.0273438 Z M 18.449219 0.0273438 "/>
<path style=" stroke:none;fill-rule:nonzero;fill:rgb(9.803922%,52.156863%,58.823529%);fill-opacity:1;" d="M 20.019531 20.019531 L -0.0078125 20.019531 L -0.0078125 -0.0078125 L 20.019531 -0.0078125 Z M 1.449219 18.59375 L 18.59375 18.59375 L 18.59375 1.421875 L 1.421875 1.421875 Z M 1.449219 18.59375 "/>
<path style=" stroke:none;fill-rule:nonzero;fill:rgb(9.803922%,52.156863%,58.823529%);fill-opacity:1;" d="M 0.714844 0.628906 L 19.304688 0.628906 L 19.304688 4.25 L 0.714844 4.25 Z M 0.714844 0.628906 "/>
<path style=" stroke:none;fill-rule:nonzero;fill:rgb(9.803922%,52.156863%,58.823529%);fill-opacity:1;" d="M 9.742188 5.558594 C 6.585938 5.558594 4.027344 8.117188 4.027344 11.269531 C 4.027344 14.425781 6.585938 16.984375 9.742188 16.984375 C 12.898438 16.984375 15.457031 14.425781 15.457031 11.269531 C 15.445312 8.121094 12.894531 5.570312 9.742188 5.558594 Z M 13.03125 10.316406 L 9.433594 13.921875 C 9.28125 14.074219 9.074219 14.160156 8.859375 14.160156 C 8.644531 14.160156 8.4375 14.074219 8.289062 13.921875 L 6.453125 12.089844 C 6.144531 11.773438 6.148438 11.265625 6.460938 10.949219 C 6.773438 10.636719 7.28125 10.632812 7.601562 10.941406 L 8.859375 12.203125 L 11.886719 9.171875 C 12.203125 8.855469 12.714844 8.855469 13.03125 9.171875 C 13.347656 9.488281 13.347656 10 13.03125 10.316406 Z M 13.03125 10.316406 "/>
</g>
</svg>
