<svg xmlns="http://www.w3.org/2000/svg" viewBox="0 0 19.79 19.97"><defs><style>.cls-1{fill:#0072b2;}.cls-2{fill:#e6e6e6;}</style></defs><title>ClearStatusAsset 222</title><g id="Layer_2" data-name="Layer 2"><g id="Layer_1-2" data-name="Layer 1"><path class="cls-1" d="M11.64,16.67l8-8.2a.63.63,0,0,0,0-.88L12.4.18a.58.58,0,0,0-.84,0L1.44,10.59a2.45,2.45,0,0,0,0,3.39l2.62,2.69a.6.6,0,0,0,.42.18h6.73A.62.62,0,0,0,11.64,16.67Z"/><path class="cls-2" d="M10,15.25l1.62-1.67L6.09,7.89l-3.4,3.5a1,1,0,0,0,0,1.45L5,15.25Z"/><path class="cls-1" d="M14,20H.5a.5.5,0,0,1-.5-.5A.5.5,0,0,1,.5,19H14a.51.51,0,0,1,.5.5A.5.5,0,0,1,14,20Z"/></g></g></svg>