<svg xmlns="http://www.w3.org/2000/svg" viewBox="0 0 20 20"><defs><style>.cls-1{fill:#0072b2;}.cls-2{fill:#f2f2f2;}</style></defs><title>HelpAsset 213</title><g id="Layer_2" data-name="Layer 2"><g id="Layer_1-2" data-name="Layer 1"><circle class="cls-1" cx="10" cy="10" r="10"/><path class="cls-2" d="M8.71,13v-.31c0-1.09.37-1.91,2-3.15,1.07-.78,1.42-1.18,1.43-1.92S11.61,6,10.15,6A2,2,0,0,0,7.92,7.81H5.43c.13-1.34,1-3.66,4.82-3.66,3.31,0,4.51,1.93,4.51,3.42,0,1.27-.35,2.09-2,3.29-1.07.76-1.43,1.26-1.43,2V13Zm0,3.9V14.15h2.6v2.77Z"/></g></g></svg>