<svg xmlns="http://www.w3.org/2000/svg" viewBox="0 0 20 20"><defs><style>.cls-1{fill:#0072b2;}.cls-2,.cls-3{fill:#e6e6e6;}.cls-3,.cls-4{stroke:#0072b2;stroke-miterlimit:10;stroke-width:0.75px;}.cls-4{fill:none;}</style></defs><title>Save AsAsset 215</title><g id="Layer_2" data-name="Layer 2"><g id="Layer_1-2" data-name="Layer 1"><path class="cls-1" d="M17.16,0H1.34A1.34,1.34,0,0,0,0,1.34V18.66A1.34,1.34,0,0,0,1.34,20H18.66A1.34,1.34,0,0,0,20,18.66V2.84Z"/><rect class="cls-2" x="2.43" y="9.24" width="13.89" height="9.27" rx="2.27"/><path class="cls-2" d="M5.15,0h8.44a0,0,0,0,1,0,0V4.57A1.61,1.61,0,0,1,12,6.18H6.76A1.61,1.61,0,0,1,5.15,4.57V0A0,0,0,0,1,5.15,0Z"/><rect class="cls-1" x="10.41" y="0.41" width="2.35" height="4.99" rx="0.68"/><path class="cls-1" d="M14.5,12.82H4.1a.49.49,0,0,1-.47-.5.48.48,0,0,1,.47-.5H14.5a.48.48,0,0,1,.47.5A.49.49,0,0,1,14.5,12.82Z"/><path class="cls-1" d="M14.5,15.3H4.1a.49.49,0,0,1-.47-.5.48.48,0,0,1,.47-.5H14.5a.48.48,0,0,1,.47.5A.49.49,0,0,1,14.5,15.3Z"/><path class="cls-3" d="M19.09,6.49a1.64,1.64,0,0,0-2.33,0l-.45.45,2.33,2.33.45-.45A1.64,1.64,0,0,0,19.09,6.49Z"/><path class="cls-3" d="M18.64,9.27,16.31,6.94,6.88,16.37l-.65,2.84a.12.12,0,0,0,.14.14l2.84-.65Z"/><line class="cls-4" x1="7.45" y1="15.87" x2="9.78" y2="18.21"/></g></g></svg>