<svg xmlns="http://www.w3.org/2000/svg" viewBox="0 0 20 20"><defs><style>.cls-1{fill:#0072b2;}.cls-2{fill:#e6e6e6;}</style></defs><title>SaveAsset 214</title><g id="Layer_2" data-name="Layer 2"><g id="Layer_1-2" data-name="Layer 1"><path class="cls-1" d="M17.16,0H1.34A1.34,1.34,0,0,0,0,1.34V18.66A1.34,1.34,0,0,0,1.34,20H18.66A1.34,1.34,0,0,0,20,18.66V2.84Z"/><rect class="cls-2" x="2.59" y="9.24" width="14.82" height="9.27" rx="2.27"/><path class="cls-2" d="M5.5,0h9a0,0,0,0,1,0,0V4.57a1.61,1.61,0,0,1-1.61,1.61H7.11A1.61,1.61,0,0,1,5.5,4.57V0A0,0,0,0,1,5.5,0Z"/><rect class="cls-1" x="11.88" y="0.41" width="1.74" height="4.99" rx="0.68"/><path class="cls-1" d="M15.47,12.82H4.38a.5.5,0,0,1-.5-.5.5.5,0,0,1,.5-.5H15.47a.5.5,0,0,1,.5.5A.5.5,0,0,1,15.47,12.82Z"/><path class="cls-1" d="M15.47,15.3H4.38a.5.5,0,0,1-.5-.5.5.5,0,0,1,.5-.5H15.47a.5.5,0,0,1,.5.5A.5.5,0,0,1,15.47,15.3Z"/></g></g></svg>