<svg xmlns="http://www.w3.org/2000/svg" viewBox="0 0 33.95 33.96"><defs><style>.cls-1{fill:#ccc;}</style></defs><title>SettingsAsset 212</title><g id="Layer_2" data-name="Layer 2"><g id="Layer_1-2" data-name="Layer 1"><rect class="cls-1" x="13.91" width="6.14" height="7.79" rx="1.16"/><rect class="cls-1" x="13.91" y="26.16" width="6.14" height="7.79" rx="1.16"/><rect class="cls-1" x="26.99" y="13.08" width="6.14" height="7.79" rx="1.16" transform="translate(13.08 47.03) rotate(-90)"/><rect class="cls-1" x="0.83" y="13.08" width="6.14" height="7.79" rx="1.16" transform="translate(-13.08 20.88) rotate(-90)"/><rect class="cls-1" x="4.5" y="3.9" width="6.14" height="7.79" rx="1.16" transform="translate(-3.29 7.64) rotate(-45)"/><rect class="cls-1" x="23.09" y="22.49" width="6.14" height="7.79" rx="1.16" transform="translate(-10.99 26.23) rotate(-45)"/><rect class="cls-1" x="23.23" y="3.9" width="6.14" height="7.79" rx="1.16" transform="translate(13.21 -16.31) rotate(45)"/><rect class="cls-1" x="4.72" y="22.4" width="6.14" height="7.79" rx="1.16" transform="translate(20.88 2.19) rotate(45)"/><path class="cls-1" d="M17,4.31A12.67,12.67,0,1,0,29.65,17,12.67,12.67,0,0,0,17,4.31Zm0,21.85A9.19,9.19,0,1,1,26.16,17,9.19,9.19,0,0,1,17,26.16Z"/></g></g></svg>