<?xml version="1.0" encoding="UTF-8"?>
<svg xmlns="http://www.w3.org/2000/svg" xmlns:xlink="http://www.w3.org/1999/xlink" width="20px" height="20px" viewBox="0 0 20 20" version="1.1">
<defs>
<clipPath id="clip1">
  <path d="M 2.0625 3.984375 L 17.886719 3.984375 L 17.886719 16.941406 L 2.0625 16.941406 Z M 2.0625 3.984375 "/>
</clipPath>
</defs>
<g id="surface1">
<path style=" stroke:none;fill-rule:nonzero;fill:rgb(100%,100%,100%);fill-opacity:1;" d="M 1.515625 0.355469 L 18.441406 0.355469 C 19.082031 0.355469 19.601562 0.875 19.601562 1.515625 L 19.601562 18.417969 C 19.601562 19.058594 19.082031 19.574219 18.441406 19.574219 L 1.515625 19.574219 C 0.875 19.574219 0.355469 19.058594 0.355469 18.417969 L 0.355469 1.515625 C 0.355469 0.875 0.875 0.355469 1.515625 0.355469 Z M 1.515625 0.355469 "/>
<path style=" stroke:none;fill-rule:nonzero;fill:rgb(9.803922%,52.156863%,58.823529%);fill-opacity:1;" d="M 18.441406 0.714844 C 18.882812 0.714844 19.242188 1.074219 19.242188 1.515625 L 19.242188 18.417969 C 19.242188 18.859375 18.882812 19.214844 18.441406 19.21875 L 1.515625 19.21875 C 1.300781 19.222656 1.09375 19.140625 0.9375 18.988281 C 0.785156 18.839844 0.699219 18.632812 0.699219 18.417969 L 0.699219 1.515625 C 0.699219 1.300781 0.785156 1.09375 0.9375 0.945312 C 1.09375 0.792969 1.300781 0.710938 1.515625 0.714844 L 18.441406 0.714844 M 18.441406 0 L 1.515625 0 C 1.109375 -0.00390625 0.722656 0.152344 0.433594 0.4375 C 0.148438 0.722656 -0.015625 1.109375 -0.015625 1.515625 L -0.015625 18.417969 C -0.015625 19.253906 0.664062 19.933594 1.5 19.933594 L 18.429688 19.933594 C 19.265625 19.933594 19.941406 19.253906 19.941406 18.417969 L 19.941406 1.515625 C 19.941406 0.683594 19.273438 0.0078125 18.441406 0 Z M 18.441406 0 "/>
<g clip-path="url(#clip1)" clip-rule="nonzero">
<path style=" stroke:none;fill-rule:nonzero;fill:rgb(9.803922%,52.156863%,58.823529%);fill-opacity:1;" d="M 17.070312 8.628906 L 17.035156 8.628906 L 17.035156 7.011719 C 17.035156 6.453125 16.582031 6.003906 16.023438 6.003906 L 7.195312 6.003906 L 6.542969 4.28125 C 6.476562 4.105469 6.304688 3.988281 6.113281 3.984375 L 2.519531 3.984375 C 2.398438 3.988281 2.28125 4.035156 2.191406 4.121094 C 2.105469 4.207031 2.058594 4.328125 2.0625 4.449219 L 2.0625 15.679688 C 2.0625 16.238281 2.515625 16.6875 3.074219 16.6875 L 17.070312 16.6875 C 17.433594 16.6875 17.726562 16.398438 17.730469 16.035156 L 17.730469 9.28125 C 17.726562 8.921875 17.433594 8.628906 17.070312 8.628906 Z M 16.113281 8.628906 L 4.6875 8.628906 C 4.324219 8.628906 4.03125 8.921875 4.027344 9.28125 L 4.027344 15.777344 L 3.074219 15.777344 C 3.050781 15.777344 3.023438 15.769531 3.007812 15.75 C 2.988281 15.730469 2.980469 15.703125 2.980469 15.679688 L 2.980469 4.90625 L 5.800781 4.90625 L 6.453125 6.625 C 6.523438 6.804688 6.695312 6.921875 6.886719 6.921875 L 16.027344 6.921875 C 16.078125 6.921875 16.117188 6.960938 16.117188 7.011719 Z M 16.113281 8.628906 "/>
</g>
</g>
</svg>
