<?xml version="1.0" encoding="UTF-8"?>
<svg xmlns="http://www.w3.org/2000/svg" xmlns:xlink="http://www.w3.org/1999/xlink" width="20px" height="20px" viewBox="0 0 20 20" version="1.1">
<g id="surface1">
<path style=" stroke:none;fill-rule:nonzero;fill:rgb(60%,40%,20%);fill-opacity:1;" d="M 7.152344 8.742188 C 6.472656 8.421875 5.773438 8.136719 5.0625 7.890625 C 4.652344 7.75 4.269531 7.554688 3.914062 7.3125 C 3.230469 6.820312 3.359375 6.035156 4.160156 5.714844 C 4.390625 5.632812 4.632812 5.585938 4.875 5.582031 C 5.78125 5.535156 6.683594 5.695312 7.519531 6.054688 C 7.9375 6.234375 8.074219 6.179688 8.230469 5.785156 C 8.390625 5.394531 8.507812 4.953125 8.644531 4.539062 C 8.734375 4.257812 8.621094 4.074219 8.328125 3.957031 C 7.792969 3.742188 7.234375 3.589844 6.660156 3.507812 C 5.902344 3.402344 5.902344 3.398438 5.898438 2.71875 C 5.898438 1.753906 5.898438 1.753906 4.828125 1.753906 L 4.324219 1.753906 C 3.824219 1.753906 3.738281 1.847656 3.726562 2.300781 C 3.726562 2.503906 3.726562 2.707031 3.726562 2.914062 C 3.726562 3.519531 3.726562 3.507812 3.074219 3.71875 C 1.519531 4.226562 0.574219 5.179688 0.453125 6.703125 C 0.363281 8.058594 1.167969 8.96875 2.382812 9.632812 C 3.164062 10.003906 3.96875 10.328125 4.789062 10.605469 C 5.101562 10.71875 5.394531 10.875 5.667969 11.066406 C 6.4375 11.644531 6.300781 12.601562 5.378906 12.960938 C 4.886719 13.148438 4.355469 13.210938 3.835938 13.144531 C 3.023438 13.0625 2.226562 12.847656 1.480469 12.511719 C 1.046875 12.308594 0.917969 12.359375 0.769531 12.78125 C 0.617188 13.203125 0.523438 13.535156 0.414062 13.894531 C 0.261719 14.382812 0.316406 14.5 0.84375 14.730469 C 1.523438 15.007812 2.234375 15.191406 2.964844 15.277344 C 3.539062 15.359375 3.558594 15.382812 3.5625 15.917969 C 3.5625 16.15625 3.5625 16.402344 3.5625 16.632812 C 3.550781 16.769531 3.601562 16.90625 3.703125 17.003906 C 3.800781 17.097656 3.941406 17.140625 4.078125 17.121094 C 4.476562 17.121094 4.875 17.121094 5.269531 17.121094 C 5.597656 17.121094 5.761719 16.953125 5.761719 16.660156 C 5.761719 16.367188 5.761719 15.996094 5.761719 15.664062 C 5.761719 15.332031 5.90625 15.15625 6.269531 15.066406 C 7.066406 14.894531 7.796875 14.484375 8.359375 13.894531 C 9.875 12.242188 9.296875 9.824219 7.152344 8.761719 Z M 7.152344 8.742188 "/>
<path style=" stroke:none;fill-rule:nonzero;fill:rgb(60%,40%,20%);fill-opacity:1;" d="M 12.046875 12.160156 L 17.566406 12.160156 C 19.859375 12.160156 19.863281 8.589844 17.566406 8.589844 L 12.046875 8.589844 C 9.75 8.589844 9.746094 12.160156 12.046875 12.160156 Z M 12.046875 12.160156 "/>
</g>
</svg>
