<?xml version="1.0" encoding="UTF-8"?><svg id="Extra" xmlns="http://www.w3.org/2000/svg" width="20" height="20" viewBox="0 0 56.41 56.53"><defs><style>.cls-1{fill:#393;}.cls-1,.cls-2,.cls-3,.cls-4,.cls-5,.cls-6{stroke-width:0px;}.cls-3{fill:#c3c;}.cls-4{fill:#fff;}.cls-5{fill:#963;}.cls-6{fill:#198596;}</style></defs><g id="Layer_172"><rect class="cls-5" x=".42" y=".47" width="25.91" height="25.97"/><rect class="cls-3" x=".49" y="30.37" width="25.91" height="26.01"/><rect class="cls-1" x="30.58" y="30.44" width="25.8" height="25.97"/><rect class="cls-6" x="30.54" y=".51" width="25.88" height="25.87"/><path class="cls-4" d="m51.67,28.44c0,12.84-10.41,23.25-23.25,23.25S5.17,41.28,5.17,28.44,15.58,5.19,28.42,5.19s23.25,10.41,23.25,23.25h0Z"/><path class="cls-2" d="m47.17,28.19c0,10.49-8.51,19-19,19s-19-8.51-19-19S17.67,9.19,28.17,9.19s19,8.51,19,19h0Zm-4.75,0c0-7.86-6.39-14.25-14.25-14.25s-14.25,6.39-14.25,14.25,6.39,14.25,14.25,14.25,14.25-6.39,14.25-14.25h0Zm-7.12,0h-7.13v-7.12c0-1.31-1.06-2.38-2.38-2.38s-2.37,1.06-2.37,2.38v9.5c0,1.31,1.06,2.38,2.37,2.38h9.5c1.31,0,2.37-1.06,2.37-2.38s-1.06-2.38-2.37-2.38h0Zm0,0"/></g></svg>