<svg xmlns="http://www.w3.org/2000/svg" width="19.57" height="17.14" viewBox="0 0 19.57 17.14"><defs><style>.a{fill:#c3c;}.b{fill:#ccc;}.c{fill:#e6e6e6;}.d{fill:#cf88d1;}</style></defs><path class="a" d="M15.57,17.11H1.33A1.27,1.27,0,0,1,0,16.18V1.33A1.35,1.35,0,0,1,1.33,0H6.86A1.17,1.17,0,0,1,8,1.18v.93a.62.62,0,0,0,.6.61h6.94A1.34,1.34,0,0,1,16.88,4h0V15.78A1.35,1.35,0,0,1,15.57,17.11Z" transform="translate(0 0)"/><rect class="b" x="0.95" y="4.63" width="14.27" height="10.79" rx="1.47"/><path class="c" d="M15.24,15.42H2.93a1,1,0,0,1-1-.84V4.45a1,1,0,0,1,1-.84H15.24a1,1,0,0,1,1,.84V14.58C16.26,15,15.77,15.3,15.24,15.42Z" transform="translate(0 0)"/><path class="d" d="M18.23,4.63c.74,0,1.34.44,1.34,1L16.93,16.14c0,.53-.6,1-1.34,1H1.33c-.73,0-1.33-.44-1.33-1L2.64,5.6c0-.53.6-1,1.33-1Z" transform="translate(0 0)"/></svg>