<?xml version="1.0" encoding="UTF-8" standalone="no"?>
<!DOCTYPE svg PUBLIC "-//W3C//DTD SVG 1.1//EN" "http://www.w3.org/Graphics/SVG/1.1/DTD/svg11.dtd">
<svg width="20px" height="20px" viewBox="0 0 57 57" version="1.1" xmlns="http://www.w3.org/2000/svg" xmlns:xlink="http://www.w3.org/1999/xlink" xml:space="preserve" xmlns:serif="http://www.serif.com/" style="fill-rule:evenodd;clip-rule:evenodd;stroke-linejoin:round;stroke-miterlimit:2;">
    <g id="Readers">
        <g id="Layer-82" serif:id="Layer 82">
            <g transform="matrix(1,0,0,1,48.964,36.3374)">
                <path d="M0,-17.282L-15.999,-32.247L-39.448,-32.497L-39.886,14.714L-0.125,15.215L0,-17.282Z" style="fill:white;fill-rule:nonzero;"/>
            </g>
            <g transform="matrix(1,0,0,1,46.2716,5.293)">
                <path d="M0,44.358L-35.487,44.358L-35.487,0L-17.744,0L-17.744,14.416C-17.744,15.341 -17.422,16.125 -16.774,16.774C-16.128,17.42 -15.343,17.743 -14.416,17.743L0,17.743L0,44.358ZM-13.307,0.276C-12.639,0.506 -12.165,0.762 -11.887,1.038L-1.038,11.887C-0.762,12.165 -0.509,12.636 -0.279,13.307L-13.307,13.307L-13.307,0.276ZM3.743,11.367C3.282,10.258 2.727,9.38 2.079,8.734L-8.734,-2.079C-9.38,-2.727 -10.258,-3.282 -11.367,-3.743C-12.477,-4.206 -13.492,-4.437 -14.416,-4.437L-36.596,-4.437C-37.52,-4.437 -38.306,-4.112 -38.954,-3.466C-39.6,-2.821 -39.924,-2.034 -39.924,-1.109L-39.924,45.467C-39.924,46.391 -39.6,47.179 -38.954,47.824C-38.306,48.47 -37.52,48.795 -36.596,48.795L1.109,48.795C2.033,48.795 2.819,48.47 3.465,47.824C4.112,47.177 4.434,46.391 4.434,45.467L4.434,14.416C4.437,13.492 4.204,12.474 3.743,11.367" style="fill:rgb(51,153,51);fill-rule:nonzero;"/>
            </g>
            <g transform="matrix(1,0,0,1,14.1808,42.688)">
                <path d="M0,-12.346C0.227,-10.969 0.441,-9.669 1.201,-8.909C1.979,-8.131 3.001,-7.742 4.023,-7.742C4.773,-7.742 5.519,-7.956 6.172,-8.373C7.993,-5.822 10.364,1.443 11.181,4.24C11.28,4.576 11.586,4.803 11.934,4.803L11.953,4.803C12.307,4.795 12.613,4.547 12.696,4.202C12.704,4.173 13.089,2.631 14.254,0.329C15.496,1.201 16.929,1.661 18.372,1.659C20.21,1.659 22.041,0.957 23.438,-0.44C24.78,-1.783 25.188,-4.262 25.619,-6.885C26.085,-9.713 26.566,-12.639 28.167,-14.242C28.391,-14.466 28.459,-14.803 28.336,-15.096C28.216,-15.389 27.929,-15.581 27.612,-15.581C21.729,-15.581 16.362,-13.726 13.257,-10.621C11.465,-8.829 10.758,-6.176 11.415,-3.694C11.495,-3.39 11.75,-3.162 12.062,-3.119C12.376,-3.075 12.683,-3.219 12.845,-3.49C14.281,-5.877 16.053,-8.13 18.11,-10.188C18.416,-10.494 18.913,-10.494 19.219,-10.188C19.524,-9.883 19.524,-9.386 19.219,-9.08C18.617,-8.478 18.069,-7.88 17.55,-7.288C17.5,-7.23 17.453,-7.172 17.403,-7.114C14.465,-3.714 12.821,-0.55 11.976,1.494C10.957,-1.692 9.047,-7.162 7.304,-9.473C8.375,-11.027 8.226,-13.174 6.844,-14.554C5.196,-16.203 2.479,-17.149 -0.61,-17.149C-0.927,-17.149 -1.214,-16.957 -1.334,-16.664C-1.457,-16.371 -1.389,-16.034 -1.165,-15.81C-0.452,-15.098 -0.223,-13.698 0,-12.346" style="fill:rgb(51,153,51);fill-rule:nonzero;"/>
            </g>
        </g>
        <g id="Layer-821" serif:id="Layer 82">
            <g transform="matrix(1,0,0,1,48.964,36.3374)">
                <path d="M0,-17.282L-15.999,-32.247L-39.448,-32.497L-39.886,14.714L-0.125,15.215L0,-17.282Z" style="fill:white;fill-rule:nonzero;"/>
            </g>
            <g transform="matrix(1,0,0,1,46.2716,5.293)">
                <path d="M0,44.358L-35.487,44.358L-35.487,0L-17.744,0L-17.744,14.416C-17.744,15.341 -17.422,16.125 -16.774,16.774C-16.128,17.42 -15.343,17.743 -14.416,17.743L0,17.743L0,44.358ZM-13.307,0.276C-12.639,0.506 -12.165,0.762 -11.887,1.038L-1.038,11.887C-0.762,12.165 -0.509,12.636 -0.279,13.307L-13.307,13.307L-13.307,0.276ZM3.743,11.367C3.282,10.258 2.727,9.38 2.079,8.734L-8.734,-2.079C-9.38,-2.727 -10.258,-3.282 -11.367,-3.743C-12.477,-4.206 -13.492,-4.437 -14.416,-4.437L-36.596,-4.437C-37.52,-4.437 -38.306,-4.112 -38.954,-3.466C-39.6,-2.821 -39.924,-2.034 -39.924,-1.109L-39.924,45.467C-39.924,46.391 -39.6,47.179 -38.954,47.824C-38.306,48.47 -37.52,48.795 -36.596,48.795L1.109,48.795C2.033,48.795 2.819,48.47 3.465,47.824C4.112,47.177 4.434,46.391 4.434,45.467L4.434,14.416C4.437,13.492 4.204,12.474 3.743,11.367" style="fill:rgb(51,153,51);fill-rule:nonzero;"/>
            </g>
            <g transform="matrix(0.606128,0,0,0.606128,31.2494,40.5846)">
                <path d="M0,-20.56L-0.823,-20.56C-1.399,-21.074 -2.117,-21.508 -2.737,-21.833C-1.758,-22.335 -0.833,-22.944 0.021,-23.654C0.599,-24.132 1.145,-24.657 1.655,-25.224C1.4,-23.737 0.916,-22.011 0,-20.56M-2.193,-7.257C-2.964,-6.854 -4,-7.304 -4.505,-8.264C-5.011,-9.227 -4.794,-10.336 -4.023,-10.74C-3.252,-11.146 -2.216,-10.695 -1.711,-9.733C-1.205,-8.772 -1.422,-7.663 -2.193,-7.257M-4.62,8.787C-4.868,8.938 -5.4,9.182 -6.418,9.382C-6.957,8.583 -8.148,7.51 -10.668,7.497L-10.668,7.495C-10.674,7.495 -10.683,7.495 -10.689,7.497C-10.697,7.497 -10.704,7.495 -10.713,7.495L-10.713,7.497C-13.239,7.51 -14.431,8.591 -14.967,9.39C-16.01,9.189 -16.552,8.94 -16.805,8.789C-16.813,8.377 -16.831,7.705 -16.866,6.863C-15.396,5.576 -12.748,2.44 -12.65,-3.506C-12.517,-11.756 -17.993,-12.993 -15.966,-16.129C-13.936,-19.264 -11.705,-18.586 -10.689,-18.586C-9.675,-18.586 -7.444,-19.264 -5.415,-16.129C-3.388,-12.993 -8.864,-11.756 -8.73,-3.506C-8.632,2.382 -6.035,5.514 -4.556,6.825C-4.595,7.684 -4.612,8.368 -4.62,8.787M-19.185,-7.257C-19.956,-7.663 -20.171,-8.772 -19.665,-9.733C-19.162,-10.695 -18.125,-11.146 -17.356,-10.74C-16.584,-10.334 -16.367,-9.227 -16.873,-8.264C-17.379,-7.304 -18.414,-6.854 -19.185,-7.257M-21.427,-20.56C-22.343,-22.011 -22.829,-23.737 -23.084,-25.224C-22.572,-24.657 -22.028,-24.132 -21.45,-23.654C-20.596,-22.942 -19.669,-22.335 -18.69,-21.833C-19.31,-21.508 -20.027,-21.074 -20.602,-20.56L-21.427,-20.56ZM8.664,-20.56L2.32,-20.56C2.749,-21.438 3.1,-22.417 3.368,-23.488C4.061,-26.257 3.965,-28.692 3.961,-28.795L3.81,-32.311L2.066,-29.253C1.164,-27.675 0.057,-26.329 -1.228,-25.252C-2.255,-24.391 -3.398,-23.701 -4.628,-23.193C-5.406,-22.874 -6.122,-22.668 -6.717,-22.539L-14.714,-22.539C-16.922,-23.027 -20.808,-24.547 -23.495,-29.253L-25.237,-32.311L-25.388,-28.795C-25.392,-28.692 -25.488,-26.257 -24.797,-23.488C-24.529,-22.417 -24.179,-21.438 -23.749,-20.56L-30.086,-20.56L-30.108,-19.566C-30.11,-19.438 -30.144,-16.393 -27.908,-14.089C-26.538,-12.676 -24.646,-11.864 -22.277,-11.669C-22.279,-8.63 -21.831,-6.39 -20.917,-4.847C-19.257,-2.045 -18.845,6.281 -18.826,9.254L-18.826,9.51L-18.702,9.735C-18.56,9.996 -18.146,10.502 -16.977,10.941C-15.549,11.477 -13.441,11.751 -10.71,11.751C-7.98,11.751 -5.871,11.479 -4.446,10.941C-3.277,10.502 -2.863,9.996 -2.72,9.735L-2.597,9.51L-2.595,9.254C-2.578,6.284 -2.166,-2.042 -0.506,-4.845C0.41,-6.39 0.856,-8.628 0.856,-11.669C3.224,-11.864 5.115,-12.676 6.486,-14.089C8.723,-16.393 8.687,-19.438 8.685,-19.566L8.664,-20.56Z" style="fill:rgb(51,153,51);fill-rule:nonzero;"/>
            </g>
        </g>
    </g>
</svg>
