<?xml version="1.0" encoding="UTF-8"?>
<svg xmlns="http://www.w3.org/2000/svg" xmlns:xlink="http://www.w3.org/1999/xlink" width="20px" height="20px" viewBox="0 0 20 20" version="1.1">
<g id="surface1">
<path style=" stroke:none;fill-rule:nonzero;fill:rgb(100%,100%,100%);fill-opacity:1;" d="M 17.550781 18.875 L 2.9375 18.875 L 2.9375 1.285156 L 12.894531 1.285156 L 17.535156 5.601562 Z M 17.550781 18.875 "/>
<path style=" stroke:none;fill-rule:nonzero;fill:rgb(20%,60%,20%);fill-opacity:1;" d="M 18.28125 5.933594 C 18.140625 5.566406 17.925781 5.230469 17.652344 4.941406 L 13.558594 0.886719 C 13.269531 0.613281 12.929688 0.398438 12.5625 0.261719 C 12.199219 0.105469 11.808594 0.0195312 11.414062 0.015625 L 3.007812 0.015625 C 2.679688 0.0117188 2.363281 0.140625 2.128906 0.371094 C 1.890625 0.601562 1.761719 0.921875 1.769531 1.253906 L 1.769531 18.753906 C 1.761719 19.085938 1.890625 19.40625 2.128906 19.640625 C 2.363281 19.875 2.6875 20.003906 3.019531 19.996094 L 17.308594 19.996094 C 17.640625 20.003906 17.960938 19.875 18.195312 19.640625 C 18.433594 19.40625 18.5625 19.085938 18.554688 18.753906 L 18.554688 7.074219 C 18.546875 6.679688 18.457031 6.292969 18.292969 5.933594 Z M 11.824219 1.769531 C 12.023438 1.824219 12.207031 1.921875 12.363281 2.054688 L 16.472656 6.125 C 16.605469 6.28125 16.703125 6.464844 16.761719 6.660156 L 11.824219 6.660156 Z M 16.863281 18.316406 L 3.425781 18.316406 L 3.425781 1.664062 L 10.144531 1.664062 L 10.144531 7.074219 C 10.136719 7.40625 10.265625 7.726562 10.503906 7.960938 C 10.738281 8.199219 11.0625 8.328125 11.394531 8.316406 L 16.863281 8.316406 Z M 16.863281 18.316406 "/>
<path style=" stroke:none;fill-rule:nonzero;fill:rgb(20%,60%,20%);fill-opacity:1;" d="M 8.488281 12.070312 C 8.109375 11.875 7.71875 11.695312 7.320312 11.542969 C 7.09375 11.453125 6.878906 11.332031 6.683594 11.1875 C 6.507812 11.066406 6.414062 10.859375 6.441406 10.648438 C 6.472656 10.4375 6.617188 10.265625 6.816406 10.195312 C 6.941406 10.144531 7.074219 10.117188 7.210938 10.113281 C 7.71875 10.082031 8.226562 10.183594 8.6875 10.40625 C 8.921875 10.519531 8.996094 10.480469 9.074219 10.238281 C 9.152344 9.996094 9.230469 9.726562 9.304688 9.464844 C 9.332031 9.394531 9.328125 9.316406 9.296875 9.246094 C 9.261719 9.179688 9.203125 9.128906 9.128906 9.105469 C 8.832031 8.972656 8.519531 8.878906 8.199219 8.820312 C 7.777344 8.757812 7.777344 8.757812 7.777344 8.332031 C 7.777344 7.734375 7.777344 7.734375 7.175781 7.734375 C 7.089844 7.734375 7.003906 7.734375 6.914062 7.734375 C 6.636719 7.734375 6.589844 7.792969 6.578125 8.074219 C 6.578125 8.199219 6.578125 8.324219 6.578125 8.453125 C 6.578125 8.828125 6.578125 8.8125 6.222656 8.953125 C 5.382812 9.1875 4.792969 9.9375 4.761719 10.808594 C 4.710938 11.644531 5.144531 12.210938 5.832031 12.625 C 6.265625 12.851562 6.710938 13.054688 7.167969 13.230469 C 7.34375 13.300781 7.507812 13.394531 7.65625 13.515625 C 7.859375 13.660156 7.960938 13.90625 7.925781 14.152344 C 7.890625 14.398438 7.71875 14.605469 7.484375 14.6875 C 7.214844 14.804688 6.917969 14.84375 6.625 14.804688 C 6.167969 14.753906 5.722656 14.621094 5.3125 14.410156 C 5.066406 14.285156 4.996094 14.316406 4.914062 14.578125 C 4.832031 14.839844 4.78125 15.035156 4.71875 15.265625 C 4.632812 15.570312 4.664062 15.644531 4.957031 15.789062 C 5.332031 15.960938 5.734375 16.074219 6.144531 16.128906 C 6.460938 16.179688 6.472656 16.191406 6.476562 16.523438 C 6.476562 16.675781 6.476562 16.824219 6.476562 16.976562 C 6.464844 17.054688 6.488281 17.136719 6.546875 17.195312 C 6.601562 17.253906 6.683594 17.285156 6.765625 17.277344 C 6.984375 17.277344 7.207031 17.277344 7.429688 17.277344 C 7.503906 17.285156 7.582031 17.257812 7.636719 17.203125 C 7.6875 17.144531 7.714844 17.070312 7.703125 16.992188 C 7.703125 16.785156 7.703125 16.578125 7.703125 16.375 C 7.6875 16.199219 7.8125 16.042969 7.984375 16.019531 C 8.441406 15.898438 8.847656 15.636719 9.144531 15.269531 C 9.546875 14.78125 9.703125 14.136719 9.570312 13.519531 C 9.441406 12.898438 9.039062 12.375 8.476562 12.085938 Z M 8.488281 12.070312 "/>
</g>
</svg>
