<?xml version="1.0" encoding="UTF-8"?>
<svg xmlns="http://www.w3.org/2000/svg" xmlns:xlink="http://www.w3.org/1999/xlink" width="20px" height="20px" viewBox="0 0 20 20" version="1.1">
<g id="surface1">
<path style=" stroke:none;fill-rule:nonzero;fill:rgb(100%,100%,100%);fill-opacity:1;" d="M 17.550781 18.875 L 2.9375 18.875 L 2.9375 1.285156 L 12.894531 1.285156 L 17.535156 5.601562 Z M 17.550781 18.875 "/>
<path style=" stroke:none;fill-rule:nonzero;fill:rgb(20%,60%,20%);fill-opacity:1;" d="M 18.28125 5.933594 C 18.140625 5.566406 17.925781 5.230469 17.652344 4.941406 L 13.558594 0.886719 C 13.269531 0.613281 12.929688 0.398438 12.5625 0.261719 C 12.199219 0.105469 11.808594 0.0195312 11.414062 0.015625 L 3.007812 0.015625 C 2.679688 0.0117188 2.363281 0.140625 2.128906 0.371094 C 1.890625 0.601562 1.761719 0.921875 1.769531 1.253906 L 1.769531 18.753906 C 1.761719 19.085938 1.890625 19.40625 2.128906 19.640625 C 2.363281 19.875 2.6875 20.003906 3.019531 19.996094 L 17.308594 19.996094 C 17.640625 20.003906 17.960938 19.875 18.195312 19.640625 C 18.433594 19.40625 18.5625 19.085938 18.554688 18.753906 L 18.554688 7.074219 C 18.546875 6.679688 18.457031 6.292969 18.292969 5.933594 Z M 11.824219 1.769531 C 12.023438 1.824219 12.207031 1.921875 12.363281 2.054688 L 16.472656 6.125 C 16.605469 6.28125 16.703125 6.464844 16.761719 6.660156 L 11.824219 6.660156 Z M 16.863281 18.316406 L 3.425781 18.316406 L 3.425781 1.664062 L 10.144531 1.664062 L 10.144531 7.074219 C 10.136719 7.40625 10.265625 7.726562 10.503906 7.960938 C 10.738281 8.199219 11.0625 8.328125 11.394531 8.316406 L 16.863281 8.316406 Z M 16.863281 18.316406 "/>
<path style=" stroke:none;fill-rule:nonzero;fill:rgb(20%,60%,20%);fill-opacity:1;" d="M 5.050781 10.851562 C 5.070312 11.292969 5.21875 11.71875 5.480469 12.078125 C 5.742188 12.351562 6.105469 12.507812 6.484375 12.515625 C 6.757812 12.515625 7.023438 12.4375 7.253906 12.289062 C 7.902344 13.199219 8.753906 15.792969 9.039062 16.792969 C 9.074219 16.910156 9.183594 16.992188 9.308594 16.992188 C 9.433594 16.988281 9.542969 16.902344 9.574219 16.777344 C 9.710938 16.289062 9.902344 15.820312 10.144531 15.371094 C 11.15625 16.097656 12.542969 15.980469 13.421875 15.097656 C 13.898438 14.617188 14.046875 13.730469 14.199219 12.792969 C 14.367188 11.78125 14.558594 10.738281 15.109375 10.167969 C 15.191406 10.085938 15.214844 9.964844 15.171875 9.859375 C 15.125 9.757812 15.023438 9.6875 14.910156 9.6875 C 12.8125 9.6875 10.894531 10.351562 9.785156 11.476562 C 9.144531 12.121094 8.894531 13.0625 9.128906 13.941406 C 9.15625 14.050781 9.246094 14.132812 9.355469 14.148438 C 9.464844 14.160156 9.570312 14.109375 9.628906 14.015625 C 10.152344 13.140625 10.785156 12.339844 11.507812 11.621094 C 11.617188 11.511719 11.792969 11.511719 11.902344 11.621094 C 12.011719 11.730469 12.011719 11.910156 11.902344 12.019531 C 11.6875 12.230469 11.492188 12.445312 11.308594 12.65625 L 11.253906 12.71875 C 10.449219 13.632812 9.796875 14.671875 9.316406 15.792969 C 8.960938 14.65625 8.269531 12.703125 7.644531 11.863281 C 8.03125 11.300781 7.960938 10.546875 7.484375 10.0625 C 6.75 9.417969 5.796875 9.085938 4.820312 9.136719 C 4.707031 9.136719 4.605469 9.207031 4.5625 9.308594 C 4.523438 9.414062 4.546875 9.535156 4.628906 9.613281 C 4.890625 9.867188 4.984375 10.371094 5.050781 10.851562 Z M 5.050781 10.851562 "/>
</g>
</svg>
