<?xml version="1.0" encoding="UTF-8"?>
<svg xmlns="http://www.w3.org/2000/svg" xmlns:xlink="http://www.w3.org/1999/xlink" width="20px" height="20px" viewBox="0 0 20 20" version="1.1">
<g id="surface1">
<path style=" stroke:none;fill-rule:nonzero;fill:rgb(100%,100%,100%);fill-opacity:1;" d="M 17.550781 18.875 L 2.9375 18.875 L 2.9375 1.285156 L 12.894531 1.285156 L 17.535156 5.601562 Z M 17.550781 18.875 "/>
<path style=" stroke:none;fill-rule:nonzero;fill:rgb(20%,60%,20%);fill-opacity:1;" d="M 18.28125 5.933594 C 18.140625 5.566406 17.925781 5.230469 17.652344 4.941406 L 13.558594 0.886719 C 13.269531 0.613281 12.929688 0.398438 12.5625 0.261719 C 12.199219 0.105469 11.808594 0.0195312 11.414062 0.015625 L 3.007812 0.015625 C 2.679688 0.0117188 2.363281 0.140625 2.128906 0.371094 C 1.890625 0.601562 1.761719 0.921875 1.769531 1.253906 L 1.769531 18.753906 C 1.761719 19.085938 1.890625 19.40625 2.128906 19.640625 C 2.363281 19.875 2.6875 20.003906 3.019531 19.996094 L 17.308594 19.996094 C 17.640625 20.003906 17.960938 19.875 18.195312 19.640625 C 18.433594 19.40625 18.5625 19.085938 18.554688 18.753906 L 18.554688 7.074219 C 18.546875 6.679688 18.457031 6.292969 18.292969 5.933594 Z M 11.824219 1.769531 C 12.023438 1.824219 12.207031 1.921875 12.363281 2.054688 L 16.472656 6.125 C 16.605469 6.28125 16.703125 6.464844 16.761719 6.660156 L 11.824219 6.660156 Z M 16.863281 18.316406 L 3.425781 18.316406 L 3.425781 1.664062 L 10.144531 1.664062 L 10.144531 7.074219 C 10.136719 7.40625 10.265625 7.726562 10.503906 7.960938 C 10.738281 8.199219 11.0625 8.328125 11.394531 8.316406 L 16.863281 8.316406 Z M 16.863281 18.316406 "/>
<path style=" stroke:none;fill-rule:nonzero;fill:rgb(20%,60%,20%);fill-opacity:1;" d="M 9.414062 14.9375 L 7.144531 14.9375 C 6.074219 14.9375 5.207031 14.070312 5.203125 13 L 5.203125 10.730469 C 5.207031 9.65625 6.074219 8.789062 7.144531 8.785156 L 9.414062 8.785156 C 10.484375 8.789062 11.355469 9.65625 11.355469 10.730469 L 11.355469 12.996094 C 11.355469 14.066406 10.484375 14.9375 9.414062 14.9375 Z M 7.144531 10.152344 C 6.828125 10.15625 6.570312 10.410156 6.566406 10.730469 L 6.566406 12.996094 C 6.566406 13.152344 6.625 13.300781 6.734375 13.414062 C 6.84375 13.523438 6.992188 13.585938 7.144531 13.585938 L 9.414062 13.585938 C 9.566406 13.585938 9.714844 13.523438 9.824219 13.414062 C 9.929688 13.300781 9.988281 13.152344 9.984375 13 L 9.984375 10.730469 C 9.984375 10.410156 9.730469 10.152344 9.410156 10.148438 Z M 7.144531 10.152344 "/>
<path style=" stroke:none;fill-rule:nonzero;fill:rgb(73.72549%,90.980392%,73.72549%);fill-opacity:1;" d="M 8.226562 11.867188 L 13.117188 11.867188 L 13.117188 16.320312 L 8.226562 16.320312 Z M 8.226562 11.867188 "/>
<path style=" stroke:none;fill-rule:nonzero;fill:rgb(20%,60%,20%);fill-opacity:1;" d="M 11.84375 17.464844 L 9.574219 17.464844 C 8.503906 17.460938 7.636719 16.59375 7.636719 15.523438 L 7.636719 13.257812 C 7.636719 12.183594 8.503906 11.316406 9.574219 11.3125 L 11.84375 11.3125 C 12.914062 11.316406 13.785156 12.183594 13.785156 13.257812 L 13.785156 15.523438 C 13.785156 16.597656 12.914062 17.464844 11.84375 17.464844 Z M 9.574219 12.679688 C 9.257812 12.679688 9 12.9375 9 13.257812 L 9 15.523438 C 9.007812 15.835938 9.261719 16.085938 9.574219 16.085938 L 11.84375 16.085938 C 12.160156 16.085938 12.417969 15.828125 12.421875 15.511719 L 12.421875 13.257812 C 12.417969 12.9375 12.160156 12.679688 11.84375 12.679688 Z M 9.574219 12.679688 "/>
</g>
</svg>
