<?xml version="1.0" encoding="UTF-8"?>
<svg xmlns="http://www.w3.org/2000/svg" xmlns:xlink="http://www.w3.org/1999/xlink" width="20px" height="20px" viewBox="0 0 20 20" version="1.1">
<g id="surface1">
<path style=" stroke:none;fill-rule:nonzero;fill:rgb(100%,100%,100%);fill-opacity:1;" d="M 17.550781 18.875 L 2.9375 18.875 L 2.9375 1.285156 L 12.894531 1.285156 L 17.535156 5.601562 Z M 17.550781 18.875 "/>
<path style=" stroke:none;fill-rule:nonzero;fill:rgb(20%,60%,20%);fill-opacity:1;" d="M 18.28125 5.933594 C 18.140625 5.566406 17.925781 5.230469 17.652344 4.941406 L 13.558594 0.886719 C 13.269531 0.613281 12.929688 0.398438 12.5625 0.261719 C 12.199219 0.105469 11.808594 0.0195312 11.414062 0.015625 L 3.007812 0.015625 C 2.679688 0.0117188 2.363281 0.140625 2.128906 0.371094 C 1.890625 0.601562 1.761719 0.921875 1.769531 1.253906 L 1.769531 18.753906 C 1.761719 19.085938 1.890625 19.40625 2.128906 19.640625 C 2.363281 19.875 2.6875 20.003906 3.019531 19.996094 L 17.308594 19.996094 C 17.640625 20.003906 17.960938 19.875 18.195312 19.640625 C 18.433594 19.40625 18.5625 19.085938 18.554688 18.753906 L 18.554688 7.074219 C 18.546875 6.679688 18.457031 6.292969 18.292969 5.933594 Z M 11.824219 1.769531 C 12.023438 1.824219 12.207031 1.921875 12.363281 2.054688 L 16.472656 6.125 C 16.605469 6.28125 16.703125 6.464844 16.761719 6.660156 L 11.824219 6.660156 Z M 16.863281 18.316406 L 3.425781 18.316406 L 3.425781 1.664062 L 10.144531 1.664062 L 10.144531 7.074219 C 10.136719 7.40625 10.265625 7.726562 10.503906 7.960938 C 10.738281 8.199219 11.0625 8.328125 11.394531 8.316406 L 16.863281 8.316406 Z M 16.863281 18.316406 "/>
<path style=" stroke:none;fill-rule:nonzero;fill:rgb(20%,60%,20%);fill-opacity:1;" d="M 14.078125 16.566406 C 14.277344 16.566406 14.472656 16.597656 14.660156 16.65625 C 14.480469 15.878906 14.1875 14.089844 14.769531 12.441406 C 14.769531 12.441406 13.734375 12.441406 12.980469 13.65625 C 12.910156 13.769531 12.851562 13.890625 12.804688 14.015625 C 12.660156 13.199219 12.371094 12.417969 11.953125 11.703125 C 11.859375 12.820312 11.539062 13.90625 11.015625 14.894531 C 10.894531 13.148438 10.3125 11.464844 9.332031 10.015625 C 9.210938 11.664062 8.953125 13.296875 8.558594 14.902344 C 8.277344 14.015625 7.9375 12.8125 7.5625 11.226562 C 7.195312 12.007812 6.941406 12.839844 6.8125 13.691406 L 6.769531 13.65625 C 6 12.441406 4.984375 12.441406 4.984375 12.441406 C 5.566406 14.089844 5.273438 15.878906 5.09375 16.65625 C 5.28125 16.597656 5.476562 16.566406 5.675781 16.566406 Z M 14.078125 16.566406 "/>
</g>
</svg>
