<?xml version="1.0" encoding="UTF-8"?>
<svg xmlns="http://www.w3.org/2000/svg" xmlns:xlink="http://www.w3.org/1999/xlink" width="20px" height="20px" viewBox="0 0 20 20" version="1.1">
<g id="surface1">
<path style=" stroke:none;fill-rule:nonzero;fill:rgb(100%,97.254902%,77.254902%);fill-opacity:1;" d="M 1.519531 0.355469 L 18.5 0.355469 C 19.140625 0.355469 19.65625 0.875 19.65625 1.515625 L 19.65625 18.441406 C 19.65625 19.082031 19.140625 19.601562 18.5 19.601562 L 1.519531 19.601562 C 0.882812 19.601562 0.363281 19.082031 0.363281 18.441406 L 0.363281 1.515625 C 0.363281 0.875 0.882812 0.355469 1.519531 0.355469 Z M 1.519531 0.355469 "/>
<path style=" stroke:none;fill-rule:nonzero;fill:rgb(60%,40%,20%);fill-opacity:1;" d="M 18.5 0.714844 C 18.941406 0.714844 19.300781 1.074219 19.300781 1.515625 L 19.300781 18.441406 C 19.300781 18.65625 19.21875 18.863281 19.066406 19.011719 C 18.917969 19.164062 18.714844 19.25 18.5 19.25 L 1.519531 19.25 C 1.082031 19.246094 0.722656 18.890625 0.722656 18.449219 L 0.722656 1.515625 C 0.722656 1.074219 1.082031 0.714844 1.519531 0.714844 L 18.5 0.714844 M 18.5 0 L 1.519531 0 C 0.683594 0 0.0078125 0.679688 0.0078125 1.515625 L 0.0078125 18.441406 C 0.00390625 18.847656 0.164062 19.234375 0.449219 19.519531 C 0.730469 19.804688 1.117188 19.964844 1.519531 19.964844 L 18.5 19.964844 C 19.335938 19.964844 20.015625 19.285156 20.015625 18.449219 L 20.015625 1.515625 C 20.015625 0.679688 19.335938 0 18.5 0 Z M 18.5 0 "/>
<path style=" stroke:none;fill-rule:nonzero;fill:rgb(60%,40%,20%);fill-opacity:1;" d="M 9.964844 6.875 C 10.324219 6.273438 10.734375 5.707031 11.191406 5.175781 C 11.605469 4.742188 12.054688 4.34375 12.53125 3.984375 C 12.597656 3.957031 12.632812 3.886719 12.625 3.816406 C 12.621094 3.746094 12.570312 3.6875 12.5 3.671875 L 11.414062 3.179688 C 11.253906 3.113281 11.066406 3.160156 10.953125 3.292969 C 10.25 4.417969 9.671875 5.613281 9.230469 6.863281 C 6.339844 5.5625 3.597656 7.390625 3.597656 10.570312 C 3.597656 13.894531 6.152344 18.9375 9.609375 17.417969 C 13.265625 18.976562 15.640625 13.894531 15.640625 10.554688 C 15.640625 7.339844 13.171875 5.460938 9.964844 6.875 Z M 9.964844 6.875 "/>
<path style=" stroke:none;fill-rule:nonzero;fill:rgb(60%,40%,20%);fill-opacity:1;" d="M 9.316406 5.800781 C 9.492188 5.785156 9.632812 5.648438 9.644531 5.472656 C 9.6875 4.660156 9.398438 3.867188 8.851562 3.269531 C 8.25 2.714844 7.457031 2.425781 6.644531 2.464844 C 6.46875 2.476562 6.328125 2.617188 6.3125 2.792969 C 6.277344 3.609375 6.570312 4.40625 7.128906 5.003906 C 7.726562 5.550781 8.519531 5.839844 9.332031 5.800781 Z M 9.316406 5.800781 "/>
</g>
</svg>
