<?xml version="1.0" encoding="UTF-8"?>
<svg xmlns="http://www.w3.org/2000/svg" xmlns:xlink="http://www.w3.org/1999/xlink" width="20px" height="20px" viewBox="0 0 20 20" version="1.1">
<g id="surface1">
<path style=" stroke:none;fill-rule:nonzero;fill:rgb(60%,40%,20%);fill-opacity:1;" d="M 17.078125 9.675781 C 16.324219 9.339844 15.550781 9.039062 14.765625 8.78125 C 14.316406 8.636719 13.890625 8.433594 13.496094 8.179688 C 12.738281 7.667969 12.886719 6.832031 13.769531 6.5 C 14.019531 6.414062 14.28125 6.371094 14.546875 6.363281 C 15.550781 6.308594 16.554688 6.472656 17.484375 6.851562 C 17.945312 7.042969 18.101562 6.980469 18.253906 6.570312 C 18.40625 6.160156 18.558594 5.695312 18.707031 5.257812 C 18.8125 4.964844 18.6875 4.769531 18.351562 4.644531 C 17.753906 4.421875 17.132812 4.265625 16.503906 4.179688 C 15.667969 4.066406 15.667969 4.0625 15.664062 3.347656 C 15.664062 2.335938 15.664062 2.335938 14.472656 2.335938 L 13.953125 2.335938 C 13.394531 2.335938 13.304688 2.433594 13.285156 2.90625 C 13.285156 3.121094 13.285156 3.335938 13.285156 3.554688 C 13.285156 4.1875 13.285156 4.179688 12.570312 4.394531 C 10.851562 4.933594 9.789062 5.933594 9.675781 7.535156 C 9.570312 8.964844 10.4375 9.910156 11.816406 10.609375 C 12.6875 11 13.578125 11.339844 14.480469 11.632812 C 14.816406 11.75 15.136719 11.910156 15.429688 12.105469 C 16.285156 12.710938 16.144531 13.71875 15.113281 14.097656 C 14.566406 14.292969 13.980469 14.359375 13.402344 14.289062 C 12.507812 14.203125 11.628906 13.980469 10.800781 13.625 C 10.320312 13.410156 10.179688 13.46875 10.015625 13.910156 C 9.875 14.292969 9.75 14.683594 9.625 15.066406 C 9.457031 15.589844 9.519531 15.714844 10.101562 15.957031 C 10.855469 16.25 11.644531 16.441406 12.445312 16.53125 C 13.082031 16.617188 13.101562 16.644531 13.105469 17.203125 C 13.105469 17.457031 13.105469 17.714844 13.105469 17.96875 C 13.105469 18.285156 13.292969 18.476562 13.679688 18.480469 C 14.117188 18.480469 14.558594 18.480469 14.996094 18.480469 C 15.355469 18.480469 15.539062 18.308594 15.539062 17.996094 C 15.539062 17.6875 15.5625 17.300781 15.539062 16.953125 C 15.519531 16.605469 15.699219 16.417969 16.101562 16.324219 C 16.976562 16.140625 17.78125 15.707031 18.414062 15.070312 C 20.085938 13.335938 19.449219 10.785156 17.078125 9.675781 Z M 17.078125 9.675781 "/>
<path style=" stroke:none;fill-rule:nonzero;fill:rgb(60%,40%,20%);fill-opacity:1;" d="M 7.238281 6.035156 L 1.414062 6.035156 C 0.917969 6.039062 0.515625 6.441406 0.519531 6.9375 L 0.539062 12.535156 C 0.539062 13.03125 0.9375 13.433594 1.433594 13.4375 C 1.699219 13.441406 1.957031 13.324219 2.128906 13.117188 L 2.484375 18.566406 C 2.519531 19.050781 2.925781 19.425781 3.410156 19.417969 L 5.253906 19.417969 C 5.738281 19.421875 6.144531 19.046875 6.179688 18.5625 L 6.535156 13.101562 C 6.695312 13.320312 6.953125 13.453125 7.226562 13.457031 C 7.71875 13.449219 8.113281 13.046875 8.117188 12.554688 L 8.117188 6.964844 C 8.128906 6.464844 7.738281 6.050781 7.238281 6.035156 Z M 7.238281 6.035156 "/>
<path style=" stroke:none;fill-rule:nonzero;fill:rgb(60%,40%,20%);fill-opacity:1;" d="M 6.808594 2.976562 C 6.808594 4.34375 5.699219 5.457031 4.328125 5.457031 C 2.960938 5.457031 1.847656 4.347656 1.851562 2.976562 C 1.851562 1.609375 2.960938 0.496094 4.332031 0.5 C 5.699219 0.503906 6.804688 1.609375 6.808594 2.976562 Z M 6.808594 2.976562 "/>
</g>
</svg>
