<?xml version="1.0" encoding="UTF-8"?>
<svg xmlns="http://www.w3.org/2000/svg" xmlns:xlink="http://www.w3.org/1999/xlink" width="20px" height="20px" viewBox="0 0 20 20" version="1.1">
<g id="surface1">
<path style=" stroke:none;fill-rule:nonzero;fill:rgb(9.019608%,52.156863%,100%);fill-opacity:1;" d="M 16.769531 13.800781 C 16.367188 13.589844 15.949219 13.398438 15.519531 13.234375 C 15.277344 13.140625 15.046875 13.007812 14.835938 12.851562 C 14.636719 12.726562 14.53125 12.5 14.5625 12.265625 C 14.59375 12.035156 14.757812 11.84375 14.980469 11.777344 C 15.117188 11.722656 15.257812 11.695312 15.402344 11.6875 C 15.949219 11.65625 16.492188 11.765625 16.980469 12.003906 C 17.230469 12.125 17.3125 12.085938 17.398438 11.824219 C 17.484375 11.5625 17.5625 11.269531 17.644531 10.996094 C 17.671875 10.925781 17.671875 10.847656 17.644531 10.777344 C 17.613281 10.707031 17.554688 10.648438 17.484375 10.621094 C 17.167969 10.480469 16.832031 10.378906 16.484375 10.320312 C 16.035156 10.253906 16.035156 10.25 16.03125 9.796875 C 16.03125 9.15625 16.03125 9.15625 15.390625 9.15625 L 15.09375 9.15625 C 14.792969 9.15625 14.734375 9.21875 14.734375 9.515625 C 14.734375 9.648438 14.734375 9.785156 14.734375 9.925781 C 14.734375 10.324219 14.734375 10.316406 14.347656 10.457031 C 13.441406 10.710938 12.804688 11.523438 12.777344 12.464844 C 12.722656 13.347656 13.199219 13.949219 13.914062 14.394531 C 14.378906 14.636719 14.855469 14.851562 15.34375 15.039062 C 15.53125 15.117188 15.707031 15.21875 15.863281 15.347656 C 16.085938 15.5 16.199219 15.761719 16.164062 16.027344 C 16.128906 16.296875 15.945312 16.519531 15.691406 16.605469 C 15.402344 16.730469 15.082031 16.773438 14.769531 16.726562 C 14.28125 16.671875 13.804688 16.527344 13.363281 16.308594 C 13.105469 16.171875 13.027344 16.207031 12.9375 16.488281 C 12.851562 16.769531 12.796875 16.976562 12.730469 17.203125 C 12.640625 17.53125 12.671875 17.609375 12.984375 17.765625 C 13.390625 17.941406 13.816406 18.0625 14.253906 18.121094 C 14.609375 18.175781 14.609375 18.1875 14.609375 18.546875 C 14.609375 18.707031 14.609375 18.867188 14.609375 19.027344 C 14.601562 19.113281 14.628906 19.203125 14.6875 19.265625 C 14.75 19.328125 14.835938 19.359375 14.921875 19.355469 L 15.636719 19.355469 C 15.71875 19.359375 15.800781 19.332031 15.855469 19.269531 C 15.914062 19.210938 15.941406 19.128906 15.929688 19.046875 C 15.929688 18.824219 15.929688 18.605469 15.929688 18.386719 C 15.90625 18.195312 16.039062 18.019531 16.230469 17.988281 C 16.71875 17.859375 17.152344 17.582031 17.476562 17.1875 C 17.902344 16.664062 18.070312 15.972656 17.929688 15.3125 C 17.792969 14.648438 17.363281 14.085938 16.761719 13.773438 Z M 16.769531 13.800781 "/>
<path style=" stroke:none;fill-rule:nonzero;fill:rgb(9.019608%,52.156863%,100%);fill-opacity:1;" d="M 2.539062 1.035156 L 8.578125 1.035156 C 8.972656 1.035156 9.292969 1.355469 9.292969 1.75 L 9.292969 7.789062 C 9.292969 8.183594 8.972656 8.503906 8.578125 8.503906 L 2.539062 8.503906 C 2.144531 8.503906 1.824219 8.183594 1.824219 7.789062 L 1.824219 1.75 C 1.824219 1.355469 2.144531 1.035156 2.539062 1.035156 Z M 2.539062 1.035156 "/>
<path style=" stroke:none;fill-rule:nonzero;fill:rgb(9.019608%,52.156863%,100%);fill-opacity:1;" d="M 19.09375 4.769531 C 19.09375 6.828125 17.421875 8.5 15.359375 8.5 C 13.300781 8.5 11.628906 6.828125 11.628906 4.769531 C 11.628906 2.707031 13.300781 1.035156 15.359375 1.035156 C 17.421875 1.035156 19.09375 2.707031 19.09375 4.769531 Z M 19.09375 4.769531 "/>
<path style=" stroke:none;fill-rule:nonzero;fill:rgb(9.019608%,52.156863%,100%);fill-opacity:1;" d="M 5.375 9.144531 L 6.859375 12.148438 L 10.179688 12.632812 L 7.777344 14.976562 L 8.347656 18.277344 L 5.375 16.71875 L 2.40625 18.277344 L 2.976562 14.976562 L 0.570312 12.632812 L 3.894531 12.148438 Z M 5.375 9.144531 "/>
</g>
</svg>
