<?xml version="1.0" encoding="UTF-8"?>
<svg xmlns="http://www.w3.org/2000/svg" xmlns:xlink="http://www.w3.org/1999/xlink" width="20px" height="20px" viewBox="0 0 20 20" version="1.1">
<g id="surface1">
<path style=" stroke:none;fill-rule:nonzero;fill:rgb(80%,20%,80%);fill-opacity:1;" d="M 18.0625 17.039062 C 18.433594 17.039062 18.804688 17.097656 19.15625 17.210938 C 18.800781 15.738281 18.261719 12.375 19.355469 9.269531 C 19.355469 9.269531 17.417969 9.269531 15.964844 11.5625 C 15.820312 11.773438 15.699219 12.003906 15.605469 12.246094 C 15.039062 9.429688 14.007812 7.894531 14.007812 7.894531 C 13.835938 9.992188 13.242188 12.03125 12.261719 13.894531 C 12.050781 10.589844 10.96875 7.402344 9.125 4.65625 C 8.898438 7.773438 8.410156 10.863281 7.65625 13.894531 C 7.128906 12.230469 6.488281 9.964844 5.785156 6.980469 C 5.089844 8.453125 4.613281 10.015625 4.375 11.625 L 4.332031 11.558594 C 2.878906 9.269531 0.9375 9.269531 0.9375 9.269531 C 2.035156 12.371094 1.480469 15.734375 1.140625 17.207031 C 1.492188 17.09375 1.859375 17.035156 2.230469 17.035156 Z M 18.0625 17.039062 "/>
</g>
</svg>
