<?xml version="1.0" encoding="UTF-8"?>
<svg xmlns="http://www.w3.org/2000/svg" xmlns:xlink="http://www.w3.org/1999/xlink" width="20px" height="20px" viewBox="0 0 20 20" version="1.1">
<g id="surface1">
<path style=" stroke:none;fill-rule:nonzero;fill:rgb(20%,60%,20%);fill-opacity:1;" d="M 15.765625 4.21875 C 16.03125 3.097656 16.222656 1.960938 16.339844 0.816406 C 16.351562 0.726562 16.316406 0.636719 16.253906 0.574219 C 16.1875 0.511719 16.101562 0.480469 16.011719 0.488281 C 14.867188 0.605469 13.730469 0.800781 12.613281 1.066406 C 10.828125 1.507812 9.554688 2.085938 8.851562 2.792969 C 7.417969 4.226562 7.417969 6.546875 8.851562 7.980469 C 10.285156 9.414062 12.605469 9.410156 14.039062 7.980469 C 14.753906 7.265625 15.320312 6.011719 15.765625 4.21875 Z M 10.160156 7.382812 C 9.96875 7.265625 9.789062 7.128906 9.628906 6.972656 C 8.660156 6.070312 8.605469 4.554688 9.503906 3.582031 C 9.773438 3.332031 10.085938 3.132812 10.429688 2.996094 C 10.5 2.96875 10.578125 2.996094 10.617188 3.0625 C 10.660156 3.121094 10.652344 3.207031 10.59375 3.253906 C 10.527344 3.304688 10.464844 3.363281 10.40625 3.421875 C 9.425781 4.46875 9.398438 6.085938 10.34375 7.164062 C 10.394531 7.21875 10.394531 7.300781 10.347656 7.355469 C 10.300781 7.410156 10.222656 7.421875 10.160156 7.382812 Z M 10.160156 7.382812 "/>
<path style=" stroke:none;fill-rule:nonzero;fill:rgb(12.156863%,35.686275%,12.156863%);fill-opacity:1;" d="M 18.335938 13.933594 C 18.601562 12.8125 18.796875 11.679688 18.914062 10.535156 C 18.921875 10.445312 18.886719 10.355469 18.824219 10.292969 C 18.761719 10.226562 18.671875 10.195312 18.582031 10.207031 C 17.4375 10.324219 16.304688 10.515625 15.1875 10.78125 C 13.398438 11.226562 12.128906 11.804688 11.421875 12.507812 C 9.988281 13.941406 9.988281 16.261719 11.421875 17.695312 C 12.855469 19.128906 15.175781 19.128906 16.609375 17.695312 C 17.324219 16.980469 17.894531 15.726562 18.335938 13.933594 Z M 12.734375 17.105469 C 12.542969 16.996094 12.367188 16.859375 12.207031 16.699219 C 11.242188 15.796875 11.183594 14.28125 12.082031 13.308594 C 12.351562 13.054688 12.667969 12.859375 13.011719 12.726562 C 13.082031 12.699219 13.160156 12.722656 13.199219 12.785156 C 13.242188 12.847656 13.234375 12.933594 13.175781 12.980469 C 13.109375 13.03125 13.046875 13.089844 12.988281 13.144531 C 12.007812 14.191406 11.976562 15.8125 12.917969 16.894531 C 12.960938 16.949219 12.960938 17.027344 12.917969 17.082031 C 12.871094 17.136719 12.792969 17.144531 12.730469 17.105469 Z M 12.734375 17.105469 "/>
<path style=" stroke:none;fill-rule:nonzero;fill:rgb(31.372549%,88.627451%,31.372549%);fill-opacity:1;" d="M 8.242188 14.054688 C 8.507812 12.933594 8.703125 11.800781 8.816406 10.65625 C 8.828125 10.566406 8.796875 10.480469 8.730469 10.414062 C 8.667969 10.351562 8.578125 10.320312 8.488281 10.328125 C 7.347656 10.445312 6.210938 10.636719 5.09375 10.902344 C 3.308594 11.347656 2.03125 11.925781 1.328125 12.628906 C -0.105469 14.0625 -0.105469 16.386719 1.328125 17.820312 C 2.761719 19.253906 5.082031 19.253906 6.519531 17.820312 C 7.230469 17.105469 7.804688 15.851562 8.242188 14.058594 Z M 2.640625 17.21875 C 2.453125 17.105469 2.28125 16.96875 2.128906 16.8125 C 1.160156 15.90625 1.105469 14.390625 2.003906 13.417969 C 2.265625 13.164062 2.574219 12.960938 2.914062 12.820312 C 2.984375 12.792969 3.0625 12.816406 3.105469 12.882812 C 3.148438 12.945312 3.136719 13.03125 3.078125 13.078125 C 3.015625 13.132812 2.949219 13.1875 2.894531 13.242188 C 1.914062 14.289062 1.882812 15.90625 2.820312 16.988281 C 2.867188 17.042969 2.867188 17.125 2.820312 17.179688 C 2.773438 17.234375 2.695312 17.246094 2.636719 17.203125 Z M 2.640625 17.21875 "/>
</g>
</svg>
