<?xml version="1.0" encoding="UTF-8"?>
<svg xmlns="http://www.w3.org/2000/svg" xmlns:xlink="http://www.w3.org/1999/xlink" width="20px" height="20px" viewBox="0 0 20 20" version="1.1">
<g id="surface1">
<path style=" stroke:none;fill-rule:nonzero;fill:rgb(100%,0%,0%);fill-opacity:1;" d="M 10.269531 6.871094 C 10.683594 6.464844 11.203125 6.175781 11.769531 6.035156 L 11.769531 1.785156 C 11.769531 1.351562 11.597656 0.933594 11.289062 0.628906 C 10.980469 0.324219 10.5625 0.152344 10.128906 0.152344 L 2.769531 0.152344 C 1.871094 0.15625 1.140625 0.886719 1.140625 1.785156 L 1.140625 9.144531 C 1.140625 10.042969 1.871094 10.777344 2.769531 10.777344 L 6.363281 10.777344 Z M 9.105469 1.535156 C 9.8125 1.53125 10.386719 2.097656 10.394531 2.800781 C 10.398438 3.503906 9.832031 4.078125 9.128906 4.085938 C 8.425781 4.089844 7.847656 3.527344 7.84375 2.820312 C 7.835938 2.117188 8.402344 1.542969 9.105469 1.535156 Z M 9.105469 6.847656 C 9.820312 6.847656 9.964844 7.179688 9.964844 7.179688 L 8.179688 8.964844 C 8.179688 8.964844 7.847656 8.8125 7.847656 8.105469 C 7.855469 7.414062 8.414062 6.855469 9.105469 6.847656 Z M 3.792969 1.535156 C 4.496094 1.535156 5.066406 2.105469 5.066406 2.808594 C 5.070312 3.511719 4.503906 4.082031 3.800781 4.085938 C 3.097656 4.089844 2.523438 3.523438 2.519531 2.820312 C 2.515625 2.480469 2.648438 2.152344 2.886719 1.910156 C 3.125 1.671875 3.453125 1.535156 3.792969 1.535156 Z M 3.792969 9.394531 C 3.089844 9.394531 2.519531 8.820312 2.519531 8.117188 C 2.519531 7.414062 3.089844 6.84375 3.792969 6.84375 C 4.496094 6.84375 5.066406 7.414062 5.066406 8.117188 C 5.070312 8.457031 4.933594 8.78125 4.695312 9.023438 C 4.457031 9.261719 4.132812 9.394531 3.792969 9.394531 Z M 3.792969 9.394531 "/>
<path style=" stroke:none;fill-rule:nonzero;fill:rgb(100%,0%,0%);fill-opacity:1;" d="M 18.359375 11.496094 L 14.179688 7.3125 C 14.042969 7.175781 13.878906 7.0625 13.699219 6.980469 C 12.746094 6.515625 11.597656 6.703125 10.84375 7.449219 L 6.664062 11.632812 C 6.527344 11.769531 6.414062 11.929688 6.332031 12.105469 C 5.863281 13.0625 6.050781 14.207031 6.800781 14.964844 L 10.980469 19.144531 C 11.121094 19.285156 11.28125 19.394531 11.460938 19.480469 C 12.417969 19.945312 13.5625 19.757812 14.316406 19.007812 L 18.496094 14.824219 C 18.636719 14.6875 18.75 14.523438 18.828125 14.347656 C 19.296875 13.390625 19.109375 12.246094 18.359375 11.488281 Z M 12.578125 14.503906 C 11.875 14.503906 11.304688 13.933594 11.304688 13.230469 C 11.304688 12.523438 11.875 11.953125 12.578125 11.953125 C 13.28125 11.953125 13.855469 12.523438 13.855469 13.230469 C 13.855469 13.933594 13.28125 14.503906 12.578125 14.503906 Z M 12.578125 14.503906 "/>
</g>
</svg>
