<?xml version="1.0" encoding="UTF-8"?>
<svg xmlns="http://www.w3.org/2000/svg" xmlns:xlink="http://www.w3.org/1999/xlink" width="20px" height="20px" viewBox="0 0 20 20" version="1.1">
<g id="surface1">
<path style=" stroke:none;fill-rule:nonzero;fill:rgb(100%,0%,0%);fill-opacity:1;" d="M 6.542969 12.273438 L 4.679688 9.535156 L 2.769531 12.273438 C 2.558594 12.574219 2.320312 12.847656 2.054688 13.09375 C 1.847656 13.261719 1.585938 13.351562 1.320312 13.339844 C 1.015625 13.347656 0.71875 13.234375 0.488281 13.03125 C 0.269531 12.859375 0.136719 12.597656 0.132812 12.316406 C 0.210938 11.890625 0.410156 11.492188 0.699219 11.171875 L 3.027344 7.839844 L 0.949219 5.0625 C 0.648438 4.730469 0.457031 4.3125 0.414062 3.863281 C 0.414062 3.601562 0.53125 3.351562 0.730469 3.179688 C 0.964844 2.976562 1.265625 2.871094 1.570312 2.886719 C 1.84375 2.875 2.109375 2.964844 2.320312 3.140625 C 2.582031 3.378906 2.8125 3.648438 3.015625 3.9375 L 4.679688 6.21875 L 6.300781 3.9375 C 6.503906 3.640625 6.742188 3.371094 7.015625 3.132812 C 7.222656 2.964844 7.484375 2.875 7.753906 2.886719 C 8.058594 2.875 8.359375 2.976562 8.597656 3.171875 C 8.800781 3.34375 8.917969 3.597656 8.914062 3.863281 C 8.914062 4.058594 8.867188 4.253906 8.773438 4.425781 C 8.65625 4.648438 8.515625 4.863281 8.355469 5.0625 L 6.296875 7.839844 L 8.621094 11.171875 C 8.90625 11.507812 9.09375 11.914062 9.167969 12.351562 C 9.171875 12.628906 9.046875 12.890625 8.828125 13.0625 C 8.59375 13.261719 8.296875 13.367188 7.988281 13.355469 C 7.71875 13.363281 7.453125 13.273438 7.242188 13.105469 C 6.976562 12.855469 6.742188 12.578125 6.542969 12.273438 Z M 6.542969 12.273438 "/>
<path style=" stroke:none;fill-rule:nonzero;fill:rgb(100%,0%,0%);fill-opacity:1;" d="M 13.390625 13.65625 L 13.625 13.085938 L 10.460938 5.117188 C 10.304688 4.804688 10.207031 4.464844 10.167969 4.117188 C 10.167969 3.902344 10.230469 3.691406 10.34375 3.507812 C 10.574219 3.132812 10.976562 2.898438 11.414062 2.886719 C 11.734375 2.863281 12.046875 2.996094 12.253906 3.242188 C 12.476562 3.546875 12.648438 3.886719 12.757812 4.25 L 14.933594 10.578125 L 16.996094 4.691406 C 17.121094 4.3125 17.269531 3.9375 17.4375 3.574219 C 17.523438 3.359375 17.664062 3.171875 17.84375 3.027344 C 18.035156 2.921875 18.25 2.871094 18.46875 2.886719 C 18.664062 2.886719 18.859375 2.941406 19.027344 3.042969 C 19.203125 3.140625 19.347656 3.285156 19.441406 3.460938 C 19.539062 3.628906 19.589844 3.820312 19.589844 4.015625 C 19.5625 4.136719 19.523438 4.304688 19.46875 4.523438 C 19.410156 4.746094 19.355469 4.964844 19.269531 5.191406 L 15.921875 13.96875 C 15.699219 14.601562 15.414062 15.207031 15.074219 15.785156 C 14.808594 16.21875 14.429688 16.566406 13.980469 16.800781 C 13.402344 17.0625 12.769531 17.183594 12.136719 17.15625 C 11.5625 17.1875 10.984375 17.101562 10.441406 16.910156 C 10.078125 16.769531 9.851562 16.40625 9.878906 16.019531 C 9.859375 15.757812 9.957031 15.503906 10.144531 15.320312 C 10.375 15.148438 10.65625 15.0625 10.941406 15.082031 C 11.078125 15.082031 11.214844 15.101562 11.347656 15.140625 C 11.484375 15.175781 11.628906 15.195312 11.769531 15.195312 C 12.015625 15.207031 12.261719 15.164062 12.484375 15.0625 C 12.667969 14.953125 12.820312 14.796875 12.925781 14.605469 C 13.101562 14.300781 13.257812 13.984375 13.390625 13.65625 Z M 13.390625 13.65625 "/>
</g>
</svg>
