<?xml version="1.0" encoding="UTF-8"?>
<svg xmlns="http://www.w3.org/2000/svg" xmlns:xlink="http://www.w3.org/1999/xlink" width="20px" height="20px" viewBox="0 0 20 20" version="1.1">
<g id="surface1">
<path style=" stroke:none;fill-rule:nonzero;fill:rgb(100%,100%,100%);fill-opacity:1;" d="M 1.515625 0.371094 L 18.441406 0.371094 C 19.082031 0.371094 19.601562 0.890625 19.601562 1.527344 L 19.601562 18.433594 C 19.601562 19.070312 19.082031 19.589844 18.441406 19.589844 L 1.515625 19.589844 C 0.875 19.589844 0.355469 19.070312 0.355469 18.433594 L 0.355469 1.527344 C 0.355469 0.890625 0.875 0.371094 1.515625 0.371094 Z M 1.515625 0.371094 "/>
<path style=" stroke:none;fill-rule:nonzero;fill:rgb(9.803922%,52.156863%,58.823529%);fill-opacity:1;" d="M 18.441406 0.730469 C 18.882812 0.730469 19.242188 1.085938 19.242188 1.527344 L 19.242188 18.433594 C 19.242188 18.875 18.882812 19.230469 18.441406 19.230469 L 1.515625 19.230469 C 1.300781 19.234375 1.09375 19.152344 0.9375 19.003906 C 0.785156 18.851562 0.699219 18.648438 0.699219 18.433594 L 0.699219 1.527344 C 0.699219 1.3125 0.785156 1.109375 0.9375 0.957031 C 1.09375 0.808594 1.300781 0.726562 1.515625 0.730469 L 18.441406 0.730469 M 18.441406 0.015625 L 1.515625 0.015625 C 1.109375 0.0117188 0.722656 0.167969 0.433594 0.453125 C 0.148438 0.738281 -0.015625 1.125 -0.015625 1.527344 L -0.015625 18.433594 C -0.015625 19.269531 0.664062 19.945312 1.5 19.945312 L 18.429688 19.945312 C 19.265625 19.945312 19.941406 19.269531 19.941406 18.433594 L 19.941406 1.527344 C 19.941406 0.699219 19.273438 0.0234375 18.441406 0.015625 Z M 18.441406 0.015625 "/>
<path style=" stroke:none;fill-rule:nonzero;fill:rgb(100%,100%,100%);fill-opacity:1;" d="M 0.773438 3.203125 L 19.109375 3.203125 L 19.109375 19.199219 L 0.773438 19.199219 Z M 0.773438 3.203125 "/>
<path style=" stroke:none;fill-rule:nonzero;fill:rgb(60%,40%,20%);fill-opacity:1;" d="M 0.0078125 0 L 0.0078125 19.945312 L 20.046875 19.945312 L 20.046875 0 Z M 1.4375 18.519531 L 1.4375 4.109375 L 18.613281 4.109375 L 18.613281 18.519531 Z M 1.4375 18.519531 "/>
<path style=" stroke:none;fill-rule:nonzero;fill:rgb(60%,40%,20%);fill-opacity:1;" d="M 3.027344 8.644531 L 5.109375 8.644531 C 5.980469 8.644531 5.980469 6.632812 5.109375 6.632812 L 3.027344 6.632812 C 2.164062 6.632812 2.160156 8.644531 3.027344 8.644531 Z M 3.027344 8.644531 "/>
<path style=" stroke:none;fill-rule:nonzero;fill:rgb(60%,40%,20%);fill-opacity:1;" d="M 3.027344 11.6875 L 5.109375 11.6875 C 5.980469 11.6875 5.980469 9.679688 5.109375 9.679688 L 3.027344 9.679688 C 2.164062 9.679688 2.160156 11.6875 3.027344 11.6875 Z M 3.027344 11.6875 "/>
<path style=" stroke:none;fill-rule:nonzero;fill:rgb(60%,40%,20%);fill-opacity:1;" d="M 3.027344 14.621094 L 5.109375 14.621094 C 5.980469 14.621094 5.980469 12.609375 5.109375 12.609375 L 3.027344 12.609375 C 2.164062 12.609375 2.160156 14.621094 3.027344 14.621094 Z M 3.027344 14.621094 "/>
<path style=" stroke:none;fill-rule:nonzero;fill:rgb(60%,40%,20%);fill-opacity:1;" d="M 3.027344 17.480469 L 5.109375 17.480469 C 5.980469 17.480469 5.980469 15.46875 5.109375 15.46875 L 3.027344 15.46875 C 2.164062 15.46875 2.160156 17.480469 3.027344 17.480469 Z M 3.027344 17.480469 "/>
<path style=" stroke:none;fill-rule:nonzero;fill:rgb(60%,40%,20%);fill-opacity:1;" d="M 15.652344 12.503906 C 15.652344 13.195312 15.578125 15.8125 15.582031 16.507812 C 15.582031 17.375 17.59375 17.371094 17.59375 16.507812 C 17.59375 15.8125 17.667969 13.195312 17.664062 12.5 C 17.664062 11.636719 15.652344 11.640625 15.652344 12.5 Z M 15.652344 12.503906 "/>
<path style=" stroke:none;fill-rule:nonzero;fill:rgb(60%,40%,20%);fill-opacity:1;" d="M 12.730469 12.507812 C 12.730469 13.222656 12.65625 15.820312 12.65625 16.515625 C 12.65625 17.382812 14.671875 17.378906 14.667969 16.515625 C 14.667969 15.816406 14.742188 13.199219 14.742188 12.507812 C 14.742188 11.644531 12.730469 11.644531 12.730469 12.507812 Z M 12.730469 12.507812 "/>
<path style=" stroke:none;fill-rule:nonzero;fill:rgb(60%,40%,20%);fill-opacity:1;" d="M 9.871094 12.515625 C 9.871094 13.207031 9.796875 15.824219 9.796875 16.519531 C 9.796875 17.386719 11.8125 17.382812 11.808594 16.519531 C 11.808594 15.808594 11.882812 13.207031 11.882812 12.515625 C 11.882812 11.644531 9.867188 11.648438 9.871094 12.515625 Z M 9.871094 12.515625 "/>
<path style=" stroke:none;fill-rule:nonzero;fill:rgb(60%,40%,20%);fill-opacity:1;" d="M 6.898438 8.90625 L 9.175781 8.90625 L 9.175781 10.308594 C 9.175781 10.386719 9.203125 10.464844 9.261719 10.523438 C 9.3125 10.585938 9.386719 10.617188 9.464844 10.617188 C 9.542969 10.617188 9.617188 10.585938 9.667969 10.523438 L 13.683594 8.398438 C 13.796875 8.277344 13.796875 8.085938 13.683594 7.960938 L 9.667969 5.316406 C 9.617188 5.261719 9.542969 5.226562 9.464844 5.226562 C 9.386719 5.226562 9.3125 5.261719 9.261719 5.316406 C 9.203125 5.378906 9.175781 5.457031 9.175781 5.539062 L 9.175781 6.9375 L 6.898438 6.9375 "/>
</g>
</svg>
