<?xml version="1.0" encoding="UTF-8"?>
<svg xmlns="http://www.w3.org/2000/svg" xmlns:xlink="http://www.w3.org/1999/xlink" width="20px" height="20px" viewBox="0 0 20 20" version="1.1">
<g id="surface1">
<path style=" stroke:none;fill-rule:nonzero;fill:rgb(100%,97.254902%,77.254902%);fill-opacity:1;" d="M 1.519531 0.355469 L 18.5 0.355469 C 19.140625 0.355469 19.65625 0.875 19.65625 1.515625 L 19.65625 18.441406 C 19.65625 19.082031 19.140625 19.601562 18.5 19.601562 L 1.519531 19.601562 C 0.882812 19.601562 0.363281 19.082031 0.363281 18.441406 L 0.363281 1.515625 C 0.363281 0.875 0.882812 0.355469 1.519531 0.355469 Z M 1.519531 0.355469 "/>
<path style=" stroke:none;fill-rule:nonzero;fill:rgb(60%,40%,20%);fill-opacity:1;" d="M 18.5 0.714844 C 18.941406 0.714844 19.300781 1.074219 19.300781 1.515625 L 19.300781 18.441406 C 19.300781 18.65625 19.21875 18.863281 19.066406 19.011719 C 18.917969 19.164062 18.714844 19.25 18.5 19.25 L 1.519531 19.25 C 1.082031 19.246094 0.722656 18.890625 0.722656 18.449219 L 0.722656 1.515625 C 0.722656 1.074219 1.082031 0.714844 1.519531 0.714844 L 18.5 0.714844 M 18.5 0 L 1.519531 0 C 0.683594 0 0.0078125 0.679688 0.0078125 1.515625 L 0.0078125 18.441406 C 0.00390625 18.847656 0.164062 19.234375 0.449219 19.519531 C 0.730469 19.804688 1.117188 19.964844 1.519531 19.964844 L 18.5 19.964844 C 19.335938 19.964844 20.015625 19.285156 20.015625 18.449219 L 20.015625 1.515625 C 20.015625 0.679688 19.335938 0 18.5 0 Z M 18.5 0 "/>
</g>
</svg>
