<?xml version="1.0" encoding="UTF-8"?>
<svg xmlns="http://www.w3.org/2000/svg" xmlns:xlink="http://www.w3.org/1999/xlink" width="20px" height="20px" viewBox="0 0 20 20" version="1.1">
<g id="surface1">
<path style=" stroke:none;fill-rule:nonzero;fill:rgb(100%,100%,100%);fill-opacity:1;" d="M 1.515625 0.355469 L 18.441406 0.355469 C 19.082031 0.355469 19.601562 0.875 19.601562 1.515625 L 19.601562 18.417969 C 19.601562 19.058594 19.082031 19.574219 18.441406 19.574219 L 1.515625 19.574219 C 0.875 19.574219 0.355469 19.058594 0.355469 18.417969 L 0.355469 1.515625 C 0.355469 0.875 0.875 0.355469 1.515625 0.355469 Z M 1.515625 0.355469 "/>
<path style=" stroke:none;fill-rule:nonzero;fill:rgb(9.803922%,52.156863%,58.823529%);fill-opacity:1;" d="M 18.441406 0.714844 C 18.882812 0.714844 19.242188 1.074219 19.242188 1.515625 L 19.242188 18.417969 C 19.242188 18.859375 18.882812 19.214844 18.441406 19.21875 L 1.515625 19.21875 C 1.300781 19.222656 1.09375 19.140625 0.9375 18.988281 C 0.785156 18.839844 0.699219 18.632812 0.699219 18.417969 L 0.699219 1.515625 C 0.699219 1.300781 0.785156 1.09375 0.9375 0.945312 C 1.09375 0.792969 1.300781 0.710938 1.515625 0.714844 L 18.441406 0.714844 M 18.441406 0 L 1.515625 0 C 1.109375 -0.00390625 0.722656 0.152344 0.433594 0.4375 C 0.148438 0.722656 -0.015625 1.109375 -0.015625 1.515625 L -0.015625 18.417969 C -0.015625 19.253906 0.664062 19.933594 1.5 19.933594 L 18.429688 19.933594 C 19.265625 19.933594 19.941406 19.253906 19.941406 18.417969 L 19.941406 1.515625 C 19.941406 0.683594 19.273438 0.0078125 18.441406 0 Z M 18.441406 0 "/>
<path style=" stroke:none;fill-rule:nonzero;fill:rgb(9.803922%,52.156863%,58.823529%);fill-opacity:1;" d="M 17.066406 6.535156 L 13.957031 6.535156 C 13.507812 6.566406 13.160156 6.9375 13.160156 7.386719 C 13.160156 7.835938 13.507812 8.210938 13.957031 8.238281 L 15.027344 8.238281 L 12.65625 10.621094 C 10.886719 9.417969 8.511719 9.648438 7.003906 11.164062 C 5.265625 12.921875 5.265625 15.75 7.003906 17.507812 C 7.839844 18.347656 8.972656 18.816406 10.15625 18.816406 C 11.339844 18.816406 12.476562 18.347656 13.3125 17.507812 C 14.820312 15.984375 15.046875 13.605469 13.855469 11.824219 L 16.226562 9.4375 L 16.226562 10.511719 C 16.226562 10.976562 16.605469 11.355469 17.070312 11.355469 C 17.539062 11.355469 17.917969 10.976562 17.917969 10.511719 L 17.917969 7.386719 C 17.917969 6.917969 17.539062 6.539062 17.070312 6.535156 Z M 12.128906 16.304688 C 11.609375 16.828125 10.902344 17.125 10.164062 17.125 C 9.425781 17.125 8.71875 16.828125 8.199219 16.304688 C 7.125 15.214844 7.125 13.464844 8.199219 12.375 C 8.71875 11.851562 9.425781 11.554688 10.164062 11.554688 C 10.902344 11.554688 11.609375 11.851562 12.128906 12.375 C 13.207031 13.464844 13.207031 15.214844 12.128906 16.304688 Z M 12.128906 16.304688 "/>
<path style=" stroke:none;fill-rule:nonzero;fill:rgb(9.803922%,52.156863%,58.823529%);fill-opacity:1;" d="M 11.601562 7.820312 L 7.578125 7.875 L 7.578125 9.304688 C 7.613281 9.570312 7.484375 9.828125 7.253906 9.964844 C 6.996094 10.078125 6.695312 10.027344 6.484375 9.835938 L 1.445312 6.300781 C 1.203125 6.144531 1.050781 5.875 1.042969 5.585938 C 1.050781 5.296875 1.195312 5.03125 1.433594 4.871094 L 6.414062 1.230469 C 6.617188 1.039062 6.917969 0.980469 7.179688 1.089844 C 7.425781 1.214844 7.566406 1.480469 7.535156 1.753906 L 7.535156 3.183594 L 11.558594 3.125 "/>
</g>
</svg>
