<?xml version="1.0" encoding="UTF-8"?>
<svg xmlns="http://www.w3.org/2000/svg" xmlns:xlink="http://www.w3.org/1999/xlink" width="20" height="20" viewBox="0 0 20 20" version="1.1">
<g id="surface1">
<path style=" stroke:none;fill-rule:nonzero;fill:rgb(9.803922%,52.156863%,58.823529%);fill-opacity:1;" d="M 6.621094 11.75 C 6.644531 11.890625 6.765625 11.992188 6.90625 11.988281 L 7.285156 11.988281 C 7.445312 11.988281 7.574219 11.859375 7.574219 11.699219 L 7.574219 9.65625 C 7.574219 9.496094 7.445312 9.367188 7.285156 9.367188 L 1.175781 9.367188 C 1.015625 9.367188 0.882812 9.496094 0.882812 9.65625 L 0.882812 10.394531 C 0.882812 10.449219 0.898438 10.5 0.929688 10.546875 L 2.039062 12.3125 L 3.074219 13.960938 L 2.039062 15.605469 L 0.929688 17.371094 C 0.898438 17.417969 0.882812 17.472656 0.882812 17.527344 L 0.882812 18.144531 C 0.882812 18.308594 1.015625 18.4375 1.175781 18.4375 L 7.285156 18.4375 C 7.445312 18.4375 7.574219 18.304688 7.574219 18.144531 L 7.574219 15.289062 C 7.574219 15.128906 7.445312 15 7.285156 14.996094 L 6.90625 14.996094 C 6.765625 14.996094 6.644531 15.097656 6.621094 15.238281 C 6.398438 16.496094 5.476562 16.496094 5.476562 16.496094 L 3.722656 16.496094 L 5.46875 14.105469 C 5.535156 14.015625 5.542969 13.894531 5.492188 13.796875 L 3.707031 10.476562 L 5.460938 10.476562 C 5.460938 10.476562 6.386719 10.476562 6.605469 11.734375 Z M 6.621094 11.75 "/>
<path style=" stroke:none;fill-rule:nonzero;fill:rgb(9.803922%,52.156863%,58.823529%);fill-opacity:1;" d="M 19.269531 4.992188 L 16.988281 4.992188 C 17.152344 4.65625 17.277344 4.304688 17.367188 3.941406 C 17.519531 3.320312 17.589844 2.683594 17.578125 2.042969 L 17.523438 0.78125 L 16.898438 1.878906 C 16.59375 2.421875 16.191406 2.902344 15.71875 3.308594 C 15.351562 3.617188 14.941406 3.863281 14.5 4.046875 C 14.257812 4.144531 14.007812 4.222656 13.753906 4.277344 L 10.894531 4.277344 C 9.550781 3.964844 8.40625 3.089844 7.75 1.875 L 7.128906 0.78125 L 7.070312 2.042969 C 7.058594 2.683594 7.132812 3.320312 7.285156 3.941406 C 7.375 4.304688 7.5 4.65625 7.660156 4.992188 L 5.378906 4.992188 L 5.378906 5.351562 C 5.390625 6.078125 5.671875 6.777344 6.167969 7.3125 C 6.707031 7.839844 7.425781 8.148438 8.179688 8.179688 C 8.179688 9.269531 8.335938 10.070312 8.664062 10.621094 C 9.269531 11.628906 9.40625 14.605469 9.414062 15.679688 L 9.414062 15.769531 L 9.457031 15.851562 C 9.605469 16.0625 9.824219 16.21875 10.074219 16.285156 C 10.800781 16.507812 11.5625 16.605469 12.320312 16.574219 C 13.082031 16.605469 13.839844 16.507812 14.566406 16.285156 C 14.816406 16.21875 15.035156 16.0625 15.1875 15.851562 L 15.230469 15.769531 L 15.230469 15.679688 C 15.230469 14.605469 15.382812 11.632812 15.980469 10.628906 C 16.308594 10.074219 16.464844 9.269531 16.464844 8.183594 C 17.222656 8.152344 17.941406 7.84375 18.480469 7.3125 C 18.980469 6.78125 19.261719 6.078125 19.269531 5.351562 Z M 8.488281 4.992188 C 8.183594 4.480469 7.980469 3.910156 7.886719 3.320312 C 8.066406 3.527344 8.261719 3.714844 8.472656 3.894531 C 8.777344 4.144531 9.109375 4.363281 9.460938 4.542969 C 9.214844 4.667969 8.988281 4.820312 8.777344 5 Z M 9.269531 9.761719 C 8.980469 9.558594 8.90625 9.164062 9.101562 8.871094 C 9.230469 8.546875 9.597656 8.390625 9.925781 8.515625 C 10.214844 8.714844 10.292969 9.109375 10.101562 9.402344 C 9.964844 9.726562 9.597656 9.882812 9.269531 9.761719 Z M 14.503906 15.507812 C 14.304688 15.617188 14.085938 15.6875 13.859375 15.722656 C 13.667969 15.4375 13.238281 15.050781 12.335938 15.046875 C 11.429688 15.046875 11.003906 15.4375 10.8125 15.726562 C 10.582031 15.691406 10.359375 15.617188 10.152344 15.511719 C 10.152344 15.359375 10.152344 15.121094 10.128906 14.816406 C 10.65625 14.355469 11.605469 13.234375 11.640625 11.105469 C 11.6875 8.144531 9.726562 7.703125 10.453125 6.582031 C 11.183594 5.460938 11.980469 5.699219 12.34375 5.699219 C 12.707031 5.699219 13.507812 5.457031 14.230469 6.582031 C 14.957031 7.707031 12.996094 8.144531 13.046875 11.105469 C 13.082031 13.214844 14.011719 14.335938 14.539062 14.808594 C 14.539062 15.113281 14.519531 15.355469 14.519531 15.519531 Z M 15.375 9.761719 C 15.046875 9.882812 14.679688 9.726562 14.546875 9.402344 C 14.394531 9.222656 14.367188 8.96875 14.480469 8.757812 C 14.589844 8.550781 14.816406 8.429688 15.050781 8.457031 C 15.285156 8.480469 15.484375 8.648438 15.546875 8.875 C 15.738281 9.167969 15.664062 9.5625 15.375 9.765625 Z M 16.160156 4.992188 L 15.863281 4.992188 C 15.65625 4.8125 15.425781 4.660156 15.179688 4.535156 C 15.53125 4.359375 15.863281 4.140625 16.167969 3.894531 C 16.382812 3.71875 16.585938 3.527344 16.769531 3.320312 C 16.679688 3.910156 16.480469 4.476562 16.179688 4.992188 Z M 16.160156 4.992188 "/>
</g>
</svg>
