<?xml version="1.0" encoding="UTF-8"?>
<svg xmlns="http://www.w3.org/2000/svg" xmlns:xlink="http://www.w3.org/1999/xlink" width="20px" height="20px" viewBox="0 0 20 20" version="1.1">
<g id="surface1">
<path style=" stroke:none;fill-rule:nonzero;fill:rgb(60%,40%,20%);fill-opacity:1;" d="M 11.390625 16.988281 C 11.390625 17.019531 11.390625 17.105469 11.390625 17.234375 C 11.390625 17.367188 11.390625 17.476562 11.390625 17.5625 C 11.398438 17.660156 11.410156 17.757812 11.429688 17.855469 C 11.441406 17.945312 11.484375 18.03125 11.550781 18.097656 C 11.613281 18.144531 11.691406 18.175781 11.769531 18.179688 L 15.742188 18.179688 C 17.714844 18.179688 19.3125 16.578125 19.3125 14.605469 L 19.3125 5.902344 C 19.324219 4.960938 18.945312 4.058594 18.269531 3.402344 C 17.609375 2.722656 16.699219 2.34375 15.75 2.355469 L 11.769531 2.355469 C 11.554688 2.363281 11.382812 2.539062 11.378906 2.753906 C 11.378906 2.785156 11.378906 2.867188 11.378906 3 C 11.378906 3.132812 11.378906 3.242188 11.378906 3.328125 C 11.386719 3.425781 11.398438 3.523438 11.417969 3.617188 C 11.429688 3.710938 11.472656 3.796875 11.539062 3.859375 C 11.613281 3.917969 11.703125 3.945312 11.792969 3.9375 L 15.742188 3.9375 C 16.835938 3.945312 17.71875 4.828125 17.722656 5.921875 L 17.722656 14.605469 C 17.71875 15.699219 16.835938 16.582031 15.742188 16.589844 L 11.738281 16.589844 C 11.644531 16.589844 11.601562 16.609375 11.601562 16.625 C 11.601562 16.640625 11.5625 16.664062 11.5 16.691406 C 11.4375 16.722656 11.402344 16.761719 11.414062 16.808594 C 11.417969 16.863281 11.410156 16.921875 11.390625 16.976562 Z M 11.390625 16.988281 "/>
<path style=" stroke:none;fill-rule:nonzero;fill:rgb(60%,40%,20%);fill-opacity:1;" d="M 14.984375 9.699219 L 8.234375 2.972656 C 8.089844 2.820312 7.886719 2.734375 7.679688 2.734375 C 7.46875 2.734375 7.265625 2.820312 7.121094 2.972656 C 6.96875 3.121094 6.886719 3.324219 6.890625 3.535156 L 6.890625 7.105469 L 1.347656 7.105469 C 1.136719 7.105469 0.933594 7.191406 0.789062 7.34375 C 0.636719 7.488281 0.550781 7.691406 0.554688 7.898438 L 0.554688 12.648438 C 0.558594 12.851562 0.644531 13.039062 0.789062 13.179688 C 0.933594 13.332031 1.136719 13.417969 1.347656 13.414062 L 6.890625 13.414062 L 6.890625 16.984375 C 6.886719 17.304688 7.082031 17.59375 7.375 17.714844 C 7.671875 17.835938 8.011719 17.765625 8.234375 17.539062 L 14.984375 10.8125 C 15.132812 10.667969 15.21875 10.464844 15.21875 10.257812 C 15.21875 10.046875 15.132812 9.847656 14.984375 9.699219 Z M 14.984375 9.699219 "/>
</g>
</svg>
