<?xml version="1.0" standalone="no"?>
<!DOCTYPE svg PUBLIC "-//W3C//DTD SVG 1.0//EN" "http://www.w3.org/TR/2001/REC-SVG-20010904/DTD/svg10.dtd">
<svg xmlns="http://www.w3.org/2000/svg" xmlns:xlink="http://www.w3.org/1999/xlink" id="body_1" width="20" height="20">

<g transform="matrix(0.35746202 0 0 0.35746202 0.012511117 -0)">
    <path d="M0 0L55.88 0L55.88 55.95L0 55.95z" stroke="none" fill="none" />
    <path transform="matrix(1 0 0 1 -0.04 -0.1)"  d="M18 8.44C 18.004045 11.211472 16.337664 13.712298 13.778318 14.7757C 11.218972 15.839101 8.271026 15.255514 6.3098655 13.297218C 4.348706 11.338922 3.7608132 8.39183 4.820474 5.8309336C 5.880135 3.2700367 8.378524 1.6000032 11.15 1.6C 14.926972 1.6054893 17.988993 4.6630387 18 8.44z" stroke="none" fill="#996633" fill-rule="nonzero" />
    <path transform="matrix(1 0 0 1 -0.04 -0.1)"  d="M16.39 45.72C 12.5434475 45.7201 9.417473 42.616455 9.389999 38.77L9.389999 38.77L9.389999 27.4C 9.417475 23.553547 12.543448 20.449902 16.39 20.45L16.39 20.45L21.66 20.45L21.66 19.45C 21.633247 18.104261 20.545837 17.02127 19.2 17L19.2 17L3.11 17C 1.7371049 17.010983 0.629956 18.127062 0.6299999 19.5L0.6299999 19.5L0.68 34.92C 0.6853633 36.290707 1.7893816 37.403625 3.16 37.42C 3.9049282 37.40692 4.605208 37.062283 5.07 36.48L5.07 36.48L6.07 51.55C 6.154767 52.88278 7.264553 53.91799 8.6 53.91L8.6 53.91L13.690001 53.91C 15.036704 53.92362 16.159931 52.883755 16.25 51.54L16.25 51.54L16.62 45.72L16.39 45.72z" stroke="none" fill="#996633" fill-rule="nonzero" />
    <path transform="matrix(1 0 0 1 -0.04 -0.1)"  d="M53.42 31.54L35.7 13.83C 35.10304 13.246973 34.216484 13.074904 33.444763 13.392288C 32.673042 13.709673 32.16406 14.45568 32.15 15.29L32.15 15.29L32.15 24.67L17.56 24.67C 16.416378 24.691471 15.495984 25.61629 15.48 26.76L15.48 26.76L15.48 39.260002C 15.473824 39.81479 15.698382 40.34721 16.1 40.730003C 16.48041 41.129066 17.008682 41.3534 17.560001 41.350002L17.560001 41.350002L32.15 41.350002L32.15 50.730003C 32.144787 51.573784 32.65225 52.336277 33.432625 52.65722C 34.213 52.978165 35.110077 52.793312 35.7 52.190002L35.7 52.190002L53.42 34.48C 53.817104 34.094013 54.041153 33.56378 54.041153 33.01C 54.041153 32.456215 53.817104 31.925985 53.42 31.539999L53.42 31.539999L53.42 31.54z" stroke="none" fill="#996633" fill-rule="nonzero" />
</g>
</svg>