<?xml version="1.0" standalone="no"?>
<!DOCTYPE svg PUBLIC "-//W3C//DTD SVG 1.0//EN" "http://www.w3.org/TR/2001/REC-SVG-20010904/DTD/svg10.dtd">
<svg xmlns="http://www.w3.org/2000/svg" xmlns:xlink="http://www.w3.org/1999/xlink" id="body_1" width="20" height="20">

<g transform="matrix(0.35746202 0 0 0.35746202 0.012511117 -0)">
    <path d="M0 0L55.88 0L55.88 55.95L0 55.95z" stroke="none" fill="none" />
    <path transform="matrix(1 0 0 1 -0.04 -0.1)"  d="M27.19 43.78C 27.609396 44.319054 28.078087 44.817875 28.59 45.27C 28.59 46.21 28.53 46.95 28.52 47.41C 27.89446 47.737194 27.218376 47.95692 26.52 48.06C 25.93 47.190002 24.630001 46.06 21.880001 46L21.880001 46L21.830002 46C 19.080002 46 17.780003 47.2 17.2 48.07C 16.500664 47.965282 15.824305 47.742085 15.200001 47.41C 15.200001 46.96 15.200001 46.23 15.130001 45.31C 16.14073 44.410023 16.995602 43.349033 17.660002 42.170002C 16.730854 41.218655 16.213558 39.939785 16.220001 38.61L16.220001 38.61L16.220001 27C 16.215511 26.15474 16.42538 25.322138 16.830002 24.58C 15.830002 22.97 15.110002 21.84 16.120003 20.29C 18.330002 16.87 20.760002 17.61 21.870003 17.61C 22.980003 17.61 25.410004 16.87 27.620003 20.29C 27.939695 20.739794 28.110996 21.27817 28.110003 21.830002L28.110003 21.830002L31.760002 21.830002L31.760002 16.27C 31.772684 15.797532 31.853518 15.329369 32 14.88C 31.541788 14.557684 31.064224 14.263799 30.57 14C 31.641392 13.447182 32.647633 12.776354 33.57 12C 34.20431 11.47426 34.799248 10.9027195 35.35 10.29C 35.289997 10.65 35.21 11.03 35.12 11.4C 35.722397 11.183348 36.360085 11.081589 37 11.1L37 11.1L37.51 11.1C 37.814415 9.555991 37.948555 7.983261 37.91 6.4100003L37.91 6.4100003L37.75 2.5700004L35.85 5.9100003C 34.923107 7.5659266 33.707268 9.042546 32.26 10.27C 31.144253 11.20333 29.893347 11.961966 28.55 12.52C 27.810978 12.819428 27.048363 13.0569105 26.269999 13.2300005L26.269999 13.2300005L17.51 13.2300005C 13.418142 12.287188 9.930883 9.627104 7.94 5.93L7.94 5.93L6 2.59L5.87 6.43C 5.835146 8.380001 6.0536385 10.326266 6.52 12.219999C 6.7873306 13.320291 7.169427 14.389488 7.66 15.41L7.66 15.41L0.75 15.41L0.75 16.49C 0.7769041 18.716812 1.6284456 20.854572 3.14 22.49C 4.789411 24.08332 6.9683657 25.01258 9.26 25.1C 9.26 28.42 9.75 30.86 10.75 32.54C 12.56 35.6 13 44.68 13 47.92L13 47.92L13 48.199997L13.13 48.44C 13.579631 49.0853 14.241387 49.55242 15 49.76C 17.214594 50.434483 19.526796 50.731956 21.84 50.64C 24.14988 50.731216 26.458685 50.43374 28.67 49.76C 29.432285 49.55453 30.097874 49.0872 30.55 48.44L30.55 48.44L30.679998 48.199997L30.679998 47.92C 30.679998 46.92 30.729998 45.469997 30.829998 43.78L30.829998 43.78L27.19 43.78zM10.190001 15.409998C 9.266062 13.844997 8.65158 12.116978 8.380001 10.319998C 8.9354 10.922403 9.5336275 11.48387 10.17 12C 11.092365 12.776354 12.098607 13.447182 13.17 14C 12.419769 14.377255 11.717993 14.8439865 11.08 15.39zM12.64 29.909998C 11.7739525 29.293812 11.541153 28.10785 12.110001 27.209997C 12.528555 26.236403 13.633882 25.758305 14.630001 26.119997C 15.496048 26.736183 15.7288475 27.922146 15.160001 28.819998C 14.741447 29.793594 13.63612 30.271692 12.64 29.91z" stroke="none" fill="#996633" fill-rule="nonzero" />
    <path transform="matrix(1 0 0 1 -0.04 -0.1)"  d="M55.2 31.39L38.7 14.89C 38.343903 14.514502 37.84747 14.304333 37.33 14.31C 36.2718 14.341298 35.4213 15.191803 35.390003 16.25L35.390003 16.25L35.390003 25L21.8 25C 20.7379 25.026093 19.881552 25.878048 19.849998 26.94L19.849998 26.94L19.849998 38.58C 19.849659 39.665337 20.715004 40.552868 21.8 40.58L21.8 40.58L35.39 40.58L35.39 49.31C 35.4213 50.3682 36.2718 51.2187 37.329998 51.25C 37.845276 51.254704 38.340134 51.048813 38.699997 50.68L38.699997 50.68L55.2 34.12C 55.56966 33.762077 55.778347 33.26954 55.778347 32.754997C 55.778347 32.240456 55.56966 31.747917 55.2 31.39z" stroke="none" fill="#996633" fill-rule="nonzero" />
</g>
</svg>