<?xml version="1.0" standalone="no"?>
<!DOCTYPE svg PUBLIC "-//W3C//DTD SVG 1.0//EN" "http://www.w3.org/TR/2001/REC-SVG-20010904/DTD/svg10.dtd">
<svg xmlns="http://www.w3.org/2000/svg" xmlns:xlink="http://www.w3.org/1999/xlink" id="body_1" width="20" height="20">

<g transform="matrix(0.35746202 0 0 0.35746202 0.012511117 -0)">
    <path d="M0 0L55.88 0L55.88 55.95L0 55.95z" stroke="none" fill="none" />
    <path transform="matrix(1 0 0 1 -0.04 -0.1)"  d="M23.92 47.68C 23.92 47.773335 23.92 48.003334 23.92 48.37C 23.938776 48.676373 23.938776 48.983624 23.92 49.289997C 23.907776 49.56219 23.87434 49.833008 23.82 50.1C 23.780619 50.358772 23.657707 50.597572 23.47 50.78C 23.271883 50.945415 23.01748 51.02783 22.76 51.01L22.76 51.01L11.73 51.01C 9.093526 51.034943 6.5626006 49.97557 4.7299995 48.079998C 2.8344288 46.2474 1.7750559 43.716473 1.7999995 41.079998L1.7999995 41.079998L1.7999995 16.65C 1.7750559 14.013527 2.8344288 11.482601 4.7299995 9.65C 6.5745764 7.7417116 9.126224 6.68124 11.78 6.7199993L11.78 6.7199993L22.81 6.7199993C 23.418558 6.7306786 23.90932 7.2214417 23.92 7.8299994C 23.92 7.9199996 23.92 8.16 23.92 8.53C 23.938847 8.833036 23.938847 9.136963 23.92 9.44C 23.902256 9.715012 23.868868 9.988784 23.82 10.259999C 23.778559 10.515206 23.655798 10.750203 23.47 10.929999C 23.270391 11.091833 23.016142 11.170614 22.76 11.15L22.76 11.15L11.73 11.15C 8.668725 11.155516 6.1899943 13.638721 6.1899996 16.7L6.1899996 16.7L6.1899996 41C 6.168414 42.470833 6.754512 43.88543 7.8099995 44.91C 8.834567 45.97273 10.25399 46.562946 11.73 46.54L11.73 46.54L22.529999 46.54L22.929998 46.54C 23.199999 46.54 23.329998 46.600002 23.329998 46.65C 23.329998 46.7 23.419998 46.760002 23.609999 46.84C 23.8 46.92 23.869999 47.02 23.849998 47.15C 23.832693 47.310078 23.856796 47.471916 23.919998 47.620003L23.919998 47.620003L23.92 47.68z" stroke="none" fill="#996633" fill-rule="nonzero" />
    <path transform="matrix(1 0 0 1 -0.04 -0.1)"  d="M53.38 27.28L34.54 8.44C 33.905468 7.8132305 32.957455 7.627053 32.13301 7.967298C 31.308573 8.307543 30.767797 9.108143 30.76 10L30.76 10L30.76 20L15.25 20C 14.030418 19.999567 13.032522 20.970852 13 22.19L13 22.19L13 35.49C 13.016152 36.709324 14.000682 37.69385 15.22 37.710003L15.22 37.710003L30.76 37.710003L30.76 47.710003C 30.758123 48.60659 31.298126 49.415462 32.126907 49.7575C 32.955692 50.099537 33.908997 49.90695 34.54 49.270004L34.54 49.270004L53.38 30.4C 53.802837 29.99115 54.041595 29.428173 54.041595 28.84C 54.041595 28.251827 53.802837 27.68885 53.38 27.279999L53.38 27.279999L53.38 27.28z" stroke="none" fill="#996633" fill-rule="nonzero" />
</g>
</svg>